G75*
%MOIN*%
%OFA0B0*%
%FSLAX24Y24*%
%IPPOS*%
%LPD*%
%AMOC8*
5,1,8,0,0,1.08239X$1,22.5*
%
%ADD10C,0.0160*%
%ADD11C,0.0000*%
D10*
X003260Y001095D02*
X003260Y025966D01*
X042260Y025970D01*
X042260Y001095D01*
X003260Y001095D01*
D11*
X015630Y003470D02*
X015632Y003520D01*
X015638Y003570D01*
X015648Y003619D01*
X015662Y003667D01*
X015679Y003714D01*
X015700Y003759D01*
X015725Y003803D01*
X015753Y003844D01*
X015785Y003883D01*
X015819Y003920D01*
X015856Y003954D01*
X015896Y003984D01*
X015938Y004011D01*
X015982Y004035D01*
X016028Y004056D01*
X016075Y004072D01*
X016123Y004085D01*
X016173Y004094D01*
X016222Y004099D01*
X016273Y004100D01*
X016323Y004097D01*
X016372Y004090D01*
X016421Y004079D01*
X016469Y004064D01*
X016515Y004046D01*
X016560Y004024D01*
X016603Y003998D01*
X016644Y003969D01*
X016683Y003937D01*
X016719Y003902D01*
X016751Y003864D01*
X016781Y003824D01*
X016808Y003781D01*
X016831Y003737D01*
X016850Y003691D01*
X016866Y003643D01*
X016878Y003594D01*
X016886Y003545D01*
X016890Y003495D01*
X016890Y003445D01*
X016886Y003395D01*
X016878Y003346D01*
X016866Y003297D01*
X016850Y003249D01*
X016831Y003203D01*
X016808Y003159D01*
X016781Y003116D01*
X016751Y003076D01*
X016719Y003038D01*
X016683Y003003D01*
X016644Y002971D01*
X016603Y002942D01*
X016560Y002916D01*
X016515Y002894D01*
X016469Y002876D01*
X016421Y002861D01*
X016372Y002850D01*
X016323Y002843D01*
X016273Y002840D01*
X016222Y002841D01*
X016173Y002846D01*
X016123Y002855D01*
X016075Y002868D01*
X016028Y002884D01*
X015982Y002905D01*
X015938Y002929D01*
X015896Y002956D01*
X015856Y002986D01*
X015819Y003020D01*
X015785Y003057D01*
X015753Y003096D01*
X015725Y003137D01*
X015700Y003181D01*
X015679Y003226D01*
X015662Y003273D01*
X015648Y003321D01*
X015638Y003370D01*
X015632Y003420D01*
X015630Y003470D01*
X015505Y016970D02*
X015507Y017020D01*
X015513Y017070D01*
X015523Y017119D01*
X015537Y017167D01*
X015554Y017214D01*
X015575Y017259D01*
X015600Y017303D01*
X015628Y017344D01*
X015660Y017383D01*
X015694Y017420D01*
X015731Y017454D01*
X015771Y017484D01*
X015813Y017511D01*
X015857Y017535D01*
X015903Y017556D01*
X015950Y017572D01*
X015998Y017585D01*
X016048Y017594D01*
X016097Y017599D01*
X016148Y017600D01*
X016198Y017597D01*
X016247Y017590D01*
X016296Y017579D01*
X016344Y017564D01*
X016390Y017546D01*
X016435Y017524D01*
X016478Y017498D01*
X016519Y017469D01*
X016558Y017437D01*
X016594Y017402D01*
X016626Y017364D01*
X016656Y017324D01*
X016683Y017281D01*
X016706Y017237D01*
X016725Y017191D01*
X016741Y017143D01*
X016753Y017094D01*
X016761Y017045D01*
X016765Y016995D01*
X016765Y016945D01*
X016761Y016895D01*
X016753Y016846D01*
X016741Y016797D01*
X016725Y016749D01*
X016706Y016703D01*
X016683Y016659D01*
X016656Y016616D01*
X016626Y016576D01*
X016594Y016538D01*
X016558Y016503D01*
X016519Y016471D01*
X016478Y016442D01*
X016435Y016416D01*
X016390Y016394D01*
X016344Y016376D01*
X016296Y016361D01*
X016247Y016350D01*
X016198Y016343D01*
X016148Y016340D01*
X016097Y016341D01*
X016048Y016346D01*
X015998Y016355D01*
X015950Y016368D01*
X015903Y016384D01*
X015857Y016405D01*
X015813Y016429D01*
X015771Y016456D01*
X015731Y016486D01*
X015694Y016520D01*
X015660Y016557D01*
X015628Y016596D01*
X015600Y016637D01*
X015575Y016681D01*
X015554Y016726D01*
X015537Y016773D01*
X015523Y016821D01*
X015513Y016870D01*
X015507Y016920D01*
X015505Y016970D01*
X040130Y002595D02*
X040132Y002645D01*
X040138Y002695D01*
X040148Y002744D01*
X040162Y002792D01*
X040179Y002839D01*
X040200Y002884D01*
X040225Y002928D01*
X040253Y002969D01*
X040285Y003008D01*
X040319Y003045D01*
X040356Y003079D01*
X040396Y003109D01*
X040438Y003136D01*
X040482Y003160D01*
X040528Y003181D01*
X040575Y003197D01*
X040623Y003210D01*
X040673Y003219D01*
X040722Y003224D01*
X040773Y003225D01*
X040823Y003222D01*
X040872Y003215D01*
X040921Y003204D01*
X040969Y003189D01*
X041015Y003171D01*
X041060Y003149D01*
X041103Y003123D01*
X041144Y003094D01*
X041183Y003062D01*
X041219Y003027D01*
X041251Y002989D01*
X041281Y002949D01*
X041308Y002906D01*
X041331Y002862D01*
X041350Y002816D01*
X041366Y002768D01*
X041378Y002719D01*
X041386Y002670D01*
X041390Y002620D01*
X041390Y002570D01*
X041386Y002520D01*
X041378Y002471D01*
X041366Y002422D01*
X041350Y002374D01*
X041331Y002328D01*
X041308Y002284D01*
X041281Y002241D01*
X041251Y002201D01*
X041219Y002163D01*
X041183Y002128D01*
X041144Y002096D01*
X041103Y002067D01*
X041060Y002041D01*
X041015Y002019D01*
X040969Y002001D01*
X040921Y001986D01*
X040872Y001975D01*
X040823Y001968D01*
X040773Y001965D01*
X040722Y001966D01*
X040673Y001971D01*
X040623Y001980D01*
X040575Y001993D01*
X040528Y002009D01*
X040482Y002030D01*
X040438Y002054D01*
X040396Y002081D01*
X040356Y002111D01*
X040319Y002145D01*
X040285Y002182D01*
X040253Y002221D01*
X040225Y002262D01*
X040200Y002306D01*
X040179Y002351D01*
X040162Y002398D01*
X040148Y002446D01*
X040138Y002495D01*
X040132Y002545D01*
X040130Y002595D01*
M02*
