G75*
%MOIN*%
%OFA0B0*%
%FSLAX24Y24*%
%IPPOS*%
%LPD*%
%AMOC8*
5,1,8,0,0,1.08239X$1,22.5*
%
%ADD10C,0.0160*%
%ADD11C,0.0000*%
%ADD12C,0.0050*%
%ADD13C,0.0030*%
%ADD14C,0.0020*%
%ADD15C,0.0040*%
%ADD16C,0.0080*%
%ADD17C,0.0051*%
%ADD18C,0.0060*%
%ADD19C,0.0120*%
%ADD20R,0.4200X0.0300*%
%ADD21R,0.0750X0.0200*%
%ADD22R,0.0300X0.0200*%
%ADD23R,0.1000X0.0200*%
%ADD24R,0.0300X0.0750*%
%ADD25R,0.0800X0.0200*%
%ADD26R,0.0200X0.0250*%
%ADD27C,0.0100*%
%ADD28R,0.1250X0.0400*%
%ADD29R,0.0600X0.1050*%
%ADD30C,0.0070*%
D10*
X003260Y001095D02*
X003260Y025966D01*
X042260Y025970D01*
X042260Y001095D01*
X003260Y001095D01*
D11*
X015630Y003470D02*
X015632Y003520D01*
X015638Y003570D01*
X015648Y003619D01*
X015662Y003667D01*
X015679Y003714D01*
X015700Y003759D01*
X015725Y003803D01*
X015753Y003844D01*
X015785Y003883D01*
X015819Y003920D01*
X015856Y003954D01*
X015896Y003984D01*
X015938Y004011D01*
X015982Y004035D01*
X016028Y004056D01*
X016075Y004072D01*
X016123Y004085D01*
X016173Y004094D01*
X016222Y004099D01*
X016273Y004100D01*
X016323Y004097D01*
X016372Y004090D01*
X016421Y004079D01*
X016469Y004064D01*
X016515Y004046D01*
X016560Y004024D01*
X016603Y003998D01*
X016644Y003969D01*
X016683Y003937D01*
X016719Y003902D01*
X016751Y003864D01*
X016781Y003824D01*
X016808Y003781D01*
X016831Y003737D01*
X016850Y003691D01*
X016866Y003643D01*
X016878Y003594D01*
X016886Y003545D01*
X016890Y003495D01*
X016890Y003445D01*
X016886Y003395D01*
X016878Y003346D01*
X016866Y003297D01*
X016850Y003249D01*
X016831Y003203D01*
X016808Y003159D01*
X016781Y003116D01*
X016751Y003076D01*
X016719Y003038D01*
X016683Y003003D01*
X016644Y002971D01*
X016603Y002942D01*
X016560Y002916D01*
X016515Y002894D01*
X016469Y002876D01*
X016421Y002861D01*
X016372Y002850D01*
X016323Y002843D01*
X016273Y002840D01*
X016222Y002841D01*
X016173Y002846D01*
X016123Y002855D01*
X016075Y002868D01*
X016028Y002884D01*
X015982Y002905D01*
X015938Y002929D01*
X015896Y002956D01*
X015856Y002986D01*
X015819Y003020D01*
X015785Y003057D01*
X015753Y003096D01*
X015725Y003137D01*
X015700Y003181D01*
X015679Y003226D01*
X015662Y003273D01*
X015648Y003321D01*
X015638Y003370D01*
X015632Y003420D01*
X015630Y003470D01*
X015505Y016970D02*
X015507Y017020D01*
X015513Y017070D01*
X015523Y017119D01*
X015537Y017167D01*
X015554Y017214D01*
X015575Y017259D01*
X015600Y017303D01*
X015628Y017344D01*
X015660Y017383D01*
X015694Y017420D01*
X015731Y017454D01*
X015771Y017484D01*
X015813Y017511D01*
X015857Y017535D01*
X015903Y017556D01*
X015950Y017572D01*
X015998Y017585D01*
X016048Y017594D01*
X016097Y017599D01*
X016148Y017600D01*
X016198Y017597D01*
X016247Y017590D01*
X016296Y017579D01*
X016344Y017564D01*
X016390Y017546D01*
X016435Y017524D01*
X016478Y017498D01*
X016519Y017469D01*
X016558Y017437D01*
X016594Y017402D01*
X016626Y017364D01*
X016656Y017324D01*
X016683Y017281D01*
X016706Y017237D01*
X016725Y017191D01*
X016741Y017143D01*
X016753Y017094D01*
X016761Y017045D01*
X016765Y016995D01*
X016765Y016945D01*
X016761Y016895D01*
X016753Y016846D01*
X016741Y016797D01*
X016725Y016749D01*
X016706Y016703D01*
X016683Y016659D01*
X016656Y016616D01*
X016626Y016576D01*
X016594Y016538D01*
X016558Y016503D01*
X016519Y016471D01*
X016478Y016442D01*
X016435Y016416D01*
X016390Y016394D01*
X016344Y016376D01*
X016296Y016361D01*
X016247Y016350D01*
X016198Y016343D01*
X016148Y016340D01*
X016097Y016341D01*
X016048Y016346D01*
X015998Y016355D01*
X015950Y016368D01*
X015903Y016384D01*
X015857Y016405D01*
X015813Y016429D01*
X015771Y016456D01*
X015731Y016486D01*
X015694Y016520D01*
X015660Y016557D01*
X015628Y016596D01*
X015600Y016637D01*
X015575Y016681D01*
X015554Y016726D01*
X015537Y016773D01*
X015523Y016821D01*
X015513Y016870D01*
X015507Y016920D01*
X015505Y016970D01*
X040130Y002595D02*
X040132Y002645D01*
X040138Y002695D01*
X040148Y002744D01*
X040162Y002792D01*
X040179Y002839D01*
X040200Y002884D01*
X040225Y002928D01*
X040253Y002969D01*
X040285Y003008D01*
X040319Y003045D01*
X040356Y003079D01*
X040396Y003109D01*
X040438Y003136D01*
X040482Y003160D01*
X040528Y003181D01*
X040575Y003197D01*
X040623Y003210D01*
X040673Y003219D01*
X040722Y003224D01*
X040773Y003225D01*
X040823Y003222D01*
X040872Y003215D01*
X040921Y003204D01*
X040969Y003189D01*
X041015Y003171D01*
X041060Y003149D01*
X041103Y003123D01*
X041144Y003094D01*
X041183Y003062D01*
X041219Y003027D01*
X041251Y002989D01*
X041281Y002949D01*
X041308Y002906D01*
X041331Y002862D01*
X041350Y002816D01*
X041366Y002768D01*
X041378Y002719D01*
X041386Y002670D01*
X041390Y002620D01*
X041390Y002570D01*
X041386Y002520D01*
X041378Y002471D01*
X041366Y002422D01*
X041350Y002374D01*
X041331Y002328D01*
X041308Y002284D01*
X041281Y002241D01*
X041251Y002201D01*
X041219Y002163D01*
X041183Y002128D01*
X041144Y002096D01*
X041103Y002067D01*
X041060Y002041D01*
X041015Y002019D01*
X040969Y002001D01*
X040921Y001986D01*
X040872Y001975D01*
X040823Y001968D01*
X040773Y001965D01*
X040722Y001966D01*
X040673Y001971D01*
X040623Y001980D01*
X040575Y001993D01*
X040528Y002009D01*
X040482Y002030D01*
X040438Y002054D01*
X040396Y002081D01*
X040356Y002111D01*
X040319Y002145D01*
X040285Y002182D01*
X040253Y002221D01*
X040225Y002262D01*
X040200Y002306D01*
X040179Y002351D01*
X040162Y002398D01*
X040148Y002446D01*
X040138Y002495D01*
X040132Y002545D01*
X040130Y002595D01*
D12*
X038810Y003470D02*
X038510Y003470D01*
X038660Y003470D02*
X038660Y003920D01*
X038510Y003770D01*
X038349Y003845D02*
X038274Y003920D01*
X038124Y003920D01*
X038049Y003845D01*
X038049Y003545D01*
X038124Y003470D01*
X038274Y003470D01*
X038349Y003545D01*
X040034Y004989D02*
X040034Y005214D01*
X040109Y005289D01*
X040259Y005289D01*
X040334Y005214D01*
X040334Y004989D01*
X040334Y005139D02*
X040485Y005289D01*
X040485Y005449D02*
X040184Y005749D01*
X040109Y005749D01*
X040034Y005674D01*
X040034Y005524D01*
X040109Y005449D01*
X040485Y005449D02*
X040485Y005749D01*
X040485Y005910D02*
X040485Y006210D01*
X040485Y006060D02*
X040034Y006060D01*
X040184Y005910D01*
X040034Y004989D02*
X040485Y004989D01*
X036933Y005595D02*
X036857Y005520D01*
X036632Y005520D01*
X036632Y005370D02*
X036632Y005820D01*
X036857Y005820D01*
X036933Y005745D01*
X036933Y005595D01*
X036472Y005670D02*
X036172Y005370D01*
X036472Y005370D01*
X036012Y005370D02*
X035711Y005370D01*
X036012Y005670D01*
X036012Y005745D01*
X035937Y005820D01*
X035787Y005820D01*
X035711Y005745D01*
X035551Y005745D02*
X035551Y005670D01*
X035476Y005595D01*
X035326Y005595D01*
X035251Y005670D01*
X035251Y005745D01*
X035326Y005820D01*
X035476Y005820D01*
X035551Y005745D01*
X035476Y005595D02*
X035551Y005520D01*
X035551Y005445D01*
X035476Y005370D01*
X035326Y005370D01*
X035251Y005445D01*
X035251Y005520D01*
X035326Y005595D01*
X035091Y005595D02*
X034791Y005595D01*
X035016Y005820D01*
X035016Y005370D01*
X034631Y005595D02*
X034555Y005520D01*
X034330Y005520D01*
X034330Y005370D02*
X034330Y005820D01*
X034555Y005820D01*
X034631Y005745D01*
X034631Y005595D01*
X034170Y005445D02*
X034095Y005370D01*
X033945Y005370D01*
X033870Y005445D01*
X033870Y005745D01*
X033945Y005820D01*
X034095Y005820D01*
X034170Y005745D01*
X033710Y005820D02*
X033710Y005370D01*
X033410Y005370D02*
X033410Y005820D01*
X033560Y005670D01*
X033710Y005820D01*
X036172Y005745D02*
X036247Y005820D01*
X036397Y005820D01*
X036472Y005745D01*
X036472Y005670D01*
X031855Y004106D02*
X031448Y004106D01*
X031247Y004106D02*
X030840Y004106D01*
X030840Y003495D01*
X031247Y003495D01*
X031044Y003800D02*
X030840Y003800D01*
X030640Y003495D02*
X030640Y004106D01*
X030233Y004106D02*
X030640Y003495D01*
X030233Y003495D02*
X030233Y004106D01*
X030032Y004004D02*
X030032Y003800D01*
X029930Y003699D01*
X029625Y003699D01*
X029828Y003699D02*
X030032Y003495D01*
X029625Y003495D02*
X029625Y004106D01*
X029930Y004106D01*
X030032Y004004D01*
X029930Y004485D02*
X029727Y004485D01*
X029625Y004587D01*
X029625Y004994D01*
X029727Y005096D01*
X029930Y005096D01*
X030032Y004994D01*
X030032Y004587D01*
X029930Y004485D01*
X029322Y004309D02*
X029221Y004207D01*
X029119Y004309D01*
X029221Y004411D01*
X029322Y004309D01*
X029221Y004106D02*
X029424Y003902D01*
X029424Y003800D01*
X029424Y003495D01*
X029424Y003800D02*
X029017Y003800D01*
X029017Y003902D02*
X029221Y004106D01*
X029017Y003902D02*
X029017Y003495D01*
X028817Y003495D02*
X028817Y004106D01*
X028817Y003800D02*
X028410Y003800D01*
X028410Y003495D02*
X028410Y004106D01*
X028511Y004485D02*
X028715Y004485D01*
X028817Y004587D01*
X029017Y004485D02*
X029017Y005096D01*
X029424Y005096D01*
X029221Y004790D02*
X029017Y004790D01*
X028817Y004994D02*
X028715Y005096D01*
X028511Y005096D01*
X028410Y004994D01*
X028410Y004587D01*
X028511Y004485D01*
X025985Y005895D02*
X025534Y005895D01*
X025759Y005670D01*
X025759Y005970D01*
X025609Y006130D02*
X025534Y006205D01*
X025534Y006356D01*
X025609Y006431D01*
X025909Y006130D01*
X025985Y006205D01*
X025985Y006356D01*
X025909Y006431D01*
X025609Y006431D01*
X025534Y006591D02*
X025759Y006591D01*
X025684Y006741D01*
X025684Y006816D01*
X025759Y006891D01*
X025909Y006891D01*
X025985Y006816D01*
X025985Y006666D01*
X025909Y006591D01*
X025534Y006591D02*
X025534Y006891D01*
X025609Y007051D02*
X025534Y007126D01*
X025534Y007276D01*
X025609Y007351D01*
X025684Y007351D01*
X025985Y007051D01*
X025985Y007351D01*
X025985Y007512D02*
X025534Y007512D01*
X025985Y007812D01*
X025534Y007812D01*
X025609Y006130D02*
X025909Y006130D01*
X022485Y004585D02*
X022485Y004285D01*
X022184Y004585D01*
X022109Y004585D01*
X022034Y004510D01*
X022034Y004360D01*
X022109Y004285D01*
X022034Y003974D02*
X022485Y003974D01*
X022485Y003824D02*
X022485Y004124D01*
X022184Y003824D02*
X022034Y003974D01*
X022109Y003664D02*
X022259Y003664D01*
X022334Y003589D01*
X022334Y003364D01*
X022334Y003514D02*
X022485Y003664D01*
X022485Y003364D02*
X022034Y003364D01*
X022034Y003589D01*
X022109Y003664D01*
X020485Y003574D02*
X020034Y003574D01*
X020034Y003799D01*
X020109Y003874D01*
X020259Y003874D01*
X020334Y003799D01*
X020334Y003574D01*
X020334Y003724D02*
X020485Y003874D01*
X020409Y004035D02*
X020334Y004035D01*
X020259Y004110D01*
X020259Y004260D01*
X020334Y004335D01*
X020409Y004335D01*
X020485Y004260D01*
X020485Y004110D01*
X020409Y004035D01*
X020259Y004110D02*
X020184Y004035D01*
X020109Y004035D01*
X020034Y004110D01*
X020034Y004260D01*
X020109Y004335D01*
X020184Y004335D01*
X020259Y004260D01*
X019485Y004080D02*
X019409Y004080D01*
X019109Y004381D01*
X019034Y004381D01*
X019034Y004080D01*
X019109Y003920D02*
X019259Y003920D01*
X019334Y003845D01*
X019334Y003620D01*
X019334Y003770D02*
X019485Y003920D01*
X019485Y003620D02*
X019034Y003620D01*
X019034Y003845D01*
X019109Y003920D01*
X014485Y003824D02*
X014184Y004124D01*
X014109Y004124D01*
X014034Y004049D01*
X014034Y003899D01*
X014109Y003824D01*
X014109Y003664D02*
X014034Y003589D01*
X014034Y003364D01*
X014485Y003364D01*
X014334Y003364D02*
X014334Y003589D01*
X014259Y003664D01*
X014109Y003664D01*
X014334Y003514D02*
X014485Y003664D01*
X014485Y003824D02*
X014485Y004124D01*
X014409Y004285D02*
X014109Y004585D01*
X014409Y004585D01*
X014485Y004510D01*
X014485Y004360D01*
X014409Y004285D01*
X014109Y004285D01*
X014034Y004360D01*
X014034Y004510D01*
X014109Y004585D01*
X013360Y004460D02*
X013360Y004160D01*
X013059Y004460D01*
X012984Y004460D01*
X012909Y004385D01*
X012909Y004235D01*
X012984Y004160D01*
X012984Y003999D02*
X012909Y003924D01*
X012909Y003774D01*
X012984Y003699D01*
X013284Y003699D01*
X013360Y003774D01*
X013360Y003924D01*
X013284Y003999D01*
X010485Y003949D02*
X010485Y004249D01*
X010485Y004099D02*
X010034Y004099D01*
X010184Y003949D01*
X010109Y003789D02*
X010259Y003789D01*
X010334Y003714D01*
X010334Y003489D01*
X010334Y003639D02*
X010485Y003789D01*
X010485Y003489D02*
X010034Y003489D01*
X010034Y003714D01*
X010109Y003789D01*
X009485Y003795D02*
X009334Y003645D01*
X009334Y003720D02*
X009334Y003495D01*
X009485Y003495D02*
X009034Y003495D01*
X009034Y003720D01*
X009109Y003795D01*
X009259Y003795D01*
X009334Y003720D01*
X009184Y003955D02*
X009034Y004106D01*
X009485Y004106D01*
X009485Y004256D02*
X009485Y003955D01*
X009485Y004416D02*
X009409Y004416D01*
X009109Y004716D01*
X009034Y004716D01*
X009034Y004416D01*
X008485Y004491D02*
X008485Y004641D01*
X008409Y004716D01*
X008334Y004716D01*
X008259Y004641D01*
X008259Y004491D01*
X008184Y004416D01*
X008109Y004416D01*
X008034Y004491D01*
X008034Y004641D01*
X008109Y004716D01*
X008184Y004716D01*
X008259Y004641D01*
X008259Y004491D02*
X008334Y004416D01*
X008409Y004416D01*
X008485Y004491D01*
X008485Y004256D02*
X008485Y003955D01*
X008485Y004106D02*
X008034Y004106D01*
X008184Y003955D01*
X008109Y003795D02*
X008259Y003795D01*
X008334Y003720D01*
X008334Y003495D01*
X008334Y003645D02*
X008485Y003795D01*
X008485Y003495D02*
X008034Y003495D01*
X008034Y003720D01*
X008109Y003795D01*
X007595Y003070D02*
X007370Y002845D01*
X007670Y002845D01*
X007595Y002620D02*
X007595Y003070D01*
X007210Y002995D02*
X007135Y003070D01*
X006985Y003070D01*
X006910Y002995D01*
X006910Y002695D01*
X006985Y002620D01*
X007135Y002620D01*
X007210Y002695D01*
X006670Y002695D02*
X006670Y002845D01*
X006595Y002920D01*
X006520Y002920D01*
X006370Y002845D01*
X006370Y003070D01*
X006670Y003070D01*
X006670Y002695D02*
X006595Y002620D01*
X006445Y002620D01*
X006370Y002695D01*
X006210Y002695D02*
X006135Y002620D01*
X005985Y002620D01*
X005910Y002695D01*
X005910Y002995D01*
X005985Y003070D01*
X006135Y003070D01*
X006210Y002995D01*
X005595Y001945D02*
X005445Y001945D01*
X005370Y001870D01*
X005210Y001870D02*
X005210Y001570D01*
X005135Y001495D01*
X004910Y001495D01*
X004910Y001945D01*
X005135Y001945D01*
X005210Y001870D01*
X005595Y001945D02*
X005670Y001870D01*
X005670Y001795D01*
X005370Y001495D01*
X005670Y001495D01*
X004545Y001570D02*
X004470Y001495D01*
X004320Y001495D01*
X004245Y001570D01*
X004085Y001570D02*
X004085Y001870D01*
X004010Y001945D01*
X003785Y001945D01*
X003785Y001495D01*
X004010Y001495D01*
X004085Y001570D01*
X004245Y001870D02*
X004320Y001945D01*
X004470Y001945D01*
X004545Y001870D01*
X004545Y001795D01*
X004470Y001720D01*
X004545Y001645D01*
X004545Y001570D01*
X004470Y001720D02*
X004395Y001720D01*
X010034Y004485D02*
X010109Y004410D01*
X010184Y004410D01*
X010259Y004485D01*
X010259Y004710D01*
X010409Y004710D02*
X010109Y004710D01*
X010034Y004635D01*
X010034Y004485D01*
X010409Y004410D02*
X010485Y004485D01*
X010485Y004635D01*
X010409Y004710D01*
X013534Y007495D02*
X013534Y007720D01*
X013609Y007795D01*
X013759Y007795D01*
X013834Y007720D01*
X013834Y007495D01*
X013834Y007645D02*
X013985Y007795D01*
X013985Y007955D02*
X013985Y008256D01*
X013985Y008106D02*
X013534Y008106D01*
X013684Y007955D01*
X013609Y008416D02*
X013534Y008491D01*
X013534Y008641D01*
X013609Y008716D01*
X013684Y008716D01*
X013759Y008641D01*
X013834Y008716D01*
X013909Y008716D01*
X013985Y008641D01*
X013985Y008491D01*
X013909Y008416D01*
X013759Y008566D02*
X013759Y008641D01*
X013534Y007495D02*
X013985Y007495D01*
X016676Y007870D02*
X016977Y007870D01*
X017137Y007870D02*
X017137Y008320D01*
X017287Y008170D01*
X017437Y008320D01*
X017437Y007870D01*
X017597Y007870D02*
X017897Y007870D01*
X017747Y007870D02*
X017747Y008320D01*
X017597Y008170D01*
X018058Y008245D02*
X018133Y008320D01*
X018283Y008320D01*
X018358Y008245D01*
X018358Y008170D01*
X018283Y008095D01*
X018358Y008020D01*
X018358Y007945D01*
X018283Y007870D01*
X018133Y007870D01*
X018058Y007945D01*
X018208Y008095D02*
X018283Y008095D01*
X018518Y007945D02*
X018518Y007870D01*
X018518Y007945D02*
X018818Y008245D01*
X018818Y008320D01*
X018518Y008320D01*
X018978Y008245D02*
X018978Y007945D01*
X019279Y008245D01*
X019279Y007945D01*
X019204Y007870D01*
X019053Y007870D01*
X018978Y007945D01*
X018978Y008245D02*
X019053Y008320D01*
X019204Y008320D01*
X019279Y008245D01*
X019439Y008245D02*
X019439Y007945D01*
X019739Y008245D01*
X019739Y007945D01*
X019664Y007870D01*
X019514Y007870D01*
X019439Y007945D01*
X019439Y008245D02*
X019514Y008320D01*
X019664Y008320D01*
X019739Y008245D01*
X019899Y008320D02*
X020199Y007870D01*
X020199Y008320D01*
X019899Y008320D02*
X019899Y007870D01*
X016676Y007870D02*
X016676Y008320D01*
X016485Y011495D02*
X016034Y011495D01*
X016034Y011720D01*
X016109Y011795D01*
X016259Y011795D01*
X016334Y011720D01*
X016334Y011495D01*
X016334Y011645D02*
X016485Y011795D01*
X016485Y011955D02*
X016485Y012256D01*
X016485Y012106D02*
X016034Y012106D01*
X016184Y011955D01*
X016184Y012416D02*
X016034Y012566D01*
X016485Y012566D01*
X016485Y012416D02*
X016485Y012716D01*
X014985Y012260D02*
X014985Y012110D01*
X014909Y012035D01*
X014985Y011874D02*
X014834Y011724D01*
X014834Y011799D02*
X014834Y011574D01*
X014985Y011574D02*
X014534Y011574D01*
X014534Y011799D01*
X014609Y011874D01*
X014759Y011874D01*
X014834Y011799D01*
X014609Y012035D02*
X014534Y012110D01*
X014534Y012260D01*
X014609Y012335D01*
X014684Y012335D01*
X014759Y012260D01*
X014834Y012335D01*
X014909Y012335D01*
X014985Y012260D01*
X014759Y012260D02*
X014759Y012185D01*
X013985Y012306D02*
X013534Y012306D01*
X013759Y012080D01*
X013759Y012381D01*
X013759Y011920D02*
X013609Y011920D01*
X013534Y011845D01*
X013534Y011620D01*
X013985Y011620D01*
X013834Y011620D02*
X013834Y011845D01*
X013759Y011920D01*
X013834Y011770D02*
X013985Y011920D01*
X012485Y011974D02*
X012034Y011974D01*
X012184Y011824D01*
X012109Y011664D02*
X012259Y011664D01*
X012334Y011589D01*
X012334Y011364D01*
X012334Y011514D02*
X012485Y011664D01*
X012485Y011824D02*
X012485Y012124D01*
X012409Y012285D02*
X012485Y012360D01*
X012485Y012510D01*
X012409Y012585D01*
X012259Y012585D01*
X012184Y012510D01*
X012184Y012435D01*
X012259Y012285D01*
X012034Y012285D01*
X012034Y012585D01*
X012109Y011664D02*
X012034Y011589D01*
X012034Y011364D01*
X012485Y011364D01*
X009485Y011364D02*
X009034Y011364D01*
X009034Y011589D01*
X009109Y011664D01*
X009259Y011664D01*
X009334Y011589D01*
X009334Y011364D01*
X009334Y011514D02*
X009485Y011664D01*
X009485Y011824D02*
X009485Y012124D01*
X009485Y011974D02*
X009034Y011974D01*
X009184Y011824D01*
X008485Y011699D02*
X008034Y011699D01*
X008034Y011924D01*
X008109Y011999D01*
X008259Y011999D01*
X008334Y011924D01*
X008334Y011699D01*
X008334Y011849D02*
X008485Y011999D01*
X008485Y012160D02*
X008485Y012460D01*
X008485Y012310D02*
X008034Y012310D01*
X008184Y012160D01*
X007485Y012235D02*
X007409Y012160D01*
X007485Y012235D02*
X007485Y012385D01*
X007409Y012460D01*
X007259Y012460D01*
X007184Y012385D01*
X007184Y012310D01*
X007259Y012160D01*
X007034Y012160D01*
X007034Y012460D01*
X007109Y011999D02*
X007034Y011924D01*
X007034Y011699D01*
X007485Y011699D01*
X007334Y011699D02*
X007334Y011924D01*
X007259Y011999D01*
X007109Y011999D01*
X007334Y011849D02*
X007485Y011999D01*
X006485Y011955D02*
X006485Y012256D01*
X006485Y012106D02*
X006034Y012106D01*
X006184Y011955D01*
X006109Y011795D02*
X006259Y011795D01*
X006334Y011720D01*
X006334Y011495D01*
X006334Y011645D02*
X006485Y011795D01*
X006485Y011495D02*
X006034Y011495D01*
X006034Y011720D01*
X006109Y011795D01*
X006259Y012416D02*
X006259Y012641D01*
X006334Y012716D01*
X006409Y012716D01*
X006485Y012641D01*
X006485Y012491D01*
X006409Y012416D01*
X006259Y012416D01*
X006109Y012566D01*
X006034Y012716D01*
X004999Y012495D02*
X004999Y012420D01*
X004924Y012345D01*
X004999Y012270D01*
X004999Y012195D01*
X004924Y012120D01*
X004774Y012120D01*
X004699Y012195D01*
X004539Y012195D02*
X004464Y012120D01*
X004314Y012120D01*
X004239Y012195D01*
X004239Y012495D01*
X004314Y012570D01*
X004464Y012570D01*
X004539Y012495D01*
X004699Y012495D02*
X004774Y012570D01*
X004924Y012570D01*
X004999Y012495D01*
X004924Y012345D02*
X004849Y012345D01*
X003760Y014545D02*
X003810Y015695D01*
X003910Y015795D01*
X007610Y015795D01*
X007710Y015695D01*
X007760Y014545D01*
X007430Y015555D02*
X007432Y015575D01*
X007438Y015593D01*
X007447Y015611D01*
X007459Y015626D01*
X007474Y015638D01*
X007492Y015647D01*
X007510Y015653D01*
X007530Y015655D01*
X007550Y015653D01*
X007568Y015647D01*
X007586Y015638D01*
X007601Y015626D01*
X007613Y015611D01*
X007622Y015593D01*
X007628Y015575D01*
X007630Y015555D01*
X007628Y015535D01*
X007622Y015517D01*
X007613Y015499D01*
X007601Y015484D01*
X007586Y015472D01*
X007568Y015463D01*
X007550Y015457D01*
X007530Y015455D01*
X007510Y015457D01*
X007492Y015463D01*
X007474Y015472D01*
X007459Y015484D01*
X007447Y015499D01*
X007438Y015517D01*
X007432Y015535D01*
X007430Y015555D01*
X010410Y014120D02*
X010410Y013820D01*
X010485Y013745D01*
X010635Y013745D01*
X010710Y013820D01*
X010870Y013820D02*
X010870Y013745D01*
X010870Y013820D02*
X011170Y014120D01*
X011170Y014195D01*
X010870Y014195D01*
X010710Y014120D02*
X010635Y014195D01*
X010485Y014195D01*
X010410Y014120D01*
X009485Y012510D02*
X009034Y012510D01*
X009259Y012285D01*
X009259Y012585D01*
X011534Y015812D02*
X011684Y015962D01*
X011534Y016112D01*
X011985Y016112D01*
X011909Y016272D02*
X011609Y016272D01*
X011534Y016347D01*
X011534Y016497D01*
X011609Y016573D01*
X011534Y016733D02*
X011534Y017033D01*
X011534Y016883D02*
X011985Y016883D01*
X011909Y017193D02*
X011759Y017193D01*
X011759Y017418D01*
X011834Y017493D01*
X011909Y017493D01*
X011985Y017418D01*
X011985Y017268D01*
X011909Y017193D01*
X011759Y017193D02*
X011609Y017343D01*
X011534Y017493D01*
X011609Y017653D02*
X011534Y017728D01*
X011534Y017879D01*
X011609Y017954D01*
X011684Y017954D01*
X011985Y017653D01*
X011985Y017954D01*
X011985Y018114D02*
X011534Y018114D01*
X011759Y018114D02*
X011759Y018414D01*
X011759Y018574D02*
X011759Y018874D01*
X011684Y019035D02*
X011534Y019185D01*
X011985Y019185D01*
X011985Y019035D02*
X011985Y019335D01*
X011674Y020370D02*
X011524Y020370D01*
X011449Y020445D01*
X011289Y020370D02*
X010989Y020370D01*
X011289Y020670D01*
X011289Y020745D01*
X011214Y020820D01*
X011064Y020820D01*
X010989Y020745D01*
X010829Y020745D02*
X010829Y020595D01*
X010754Y020520D01*
X010528Y020520D01*
X010528Y020370D02*
X010528Y020820D01*
X010754Y020820D01*
X010829Y020745D01*
X010678Y020520D02*
X010829Y020370D01*
X011449Y020745D02*
X011524Y020820D01*
X011674Y020820D01*
X011749Y020745D01*
X011749Y020670D01*
X011674Y020595D01*
X011749Y020520D01*
X011749Y020445D01*
X011674Y020370D01*
X011674Y020595D02*
X011599Y020595D01*
X008985Y019795D02*
X008985Y019495D01*
X008985Y019645D02*
X008534Y019645D01*
X008684Y019495D01*
X008609Y019335D02*
X008534Y019260D01*
X008534Y019035D01*
X008985Y019035D01*
X008985Y019260D01*
X008909Y019335D01*
X008609Y019335D01*
X006137Y020120D02*
X006137Y020570D01*
X005836Y020570D02*
X006137Y020120D01*
X005836Y020120D02*
X005836Y020570D01*
X005680Y020570D02*
X005530Y020570D01*
X005605Y020570D02*
X005605Y020120D01*
X005530Y020120D02*
X005680Y020120D01*
X005369Y020045D02*
X005069Y020045D01*
X004912Y020120D02*
X004762Y020120D01*
X004837Y020120D02*
X004837Y020570D01*
X004762Y020570D02*
X004912Y020570D01*
X004602Y020495D02*
X004602Y020195D01*
X004527Y020120D01*
X004302Y020120D01*
X004302Y020570D01*
X004527Y020570D01*
X004602Y020495D01*
X004145Y020570D02*
X003995Y020570D01*
X004070Y020570D02*
X004070Y020120D01*
X003995Y020120D02*
X004145Y020120D01*
X003835Y020120D02*
X003835Y020570D01*
X003685Y020420D01*
X003535Y020570D01*
X003535Y020120D01*
X004095Y024470D02*
X004245Y024620D01*
X004170Y024620D01*
X004170Y024695D01*
X004245Y024695D01*
X004245Y024620D01*
X004402Y024695D02*
X004477Y024620D01*
X004627Y024620D01*
X004702Y024695D01*
X004702Y024845D01*
X004627Y024920D01*
X004552Y024920D01*
X004402Y024845D01*
X004402Y025070D01*
X004702Y025070D01*
X004862Y024920D02*
X004937Y024920D01*
X005012Y024845D01*
X005087Y024920D01*
X005162Y024845D01*
X005162Y024620D01*
X005012Y024620D02*
X005012Y024845D01*
X004862Y024920D02*
X004862Y024620D01*
X005323Y024620D02*
X005323Y024920D01*
X005398Y024920D01*
X005473Y024845D01*
X005548Y024920D01*
X005623Y024845D01*
X005623Y024620D01*
X005473Y024620D02*
X005473Y024845D01*
X003935Y024770D02*
X003935Y024695D01*
X003860Y024620D01*
X003710Y024620D01*
X003635Y024695D01*
X003785Y024845D02*
X003860Y024845D01*
X003935Y024770D01*
X003860Y024845D02*
X003935Y024920D01*
X003935Y024995D01*
X003860Y025070D01*
X003710Y025070D01*
X003635Y024995D01*
X012764Y025220D02*
X013064Y025220D01*
X012914Y025220D02*
X012914Y025670D01*
X012764Y025520D01*
X013224Y025595D02*
X013224Y025295D01*
X013524Y025595D01*
X013524Y025295D01*
X013449Y025220D01*
X013299Y025220D01*
X013224Y025295D01*
X013224Y025595D02*
X013299Y025670D01*
X013449Y025670D01*
X013524Y025595D01*
X015824Y024670D02*
X015974Y024820D01*
X015974Y024370D01*
X015824Y024370D02*
X016124Y024370D01*
X016049Y023820D02*
X015899Y023820D01*
X015824Y023745D01*
X016049Y023820D02*
X016124Y023745D01*
X016124Y023670D01*
X015824Y023370D01*
X016124Y023370D01*
X011985Y018414D02*
X011534Y018414D01*
X011909Y016573D02*
X011985Y016497D01*
X011985Y016347D01*
X011909Y016272D01*
X011985Y015812D02*
X011534Y015812D01*
X014534Y016199D02*
X014534Y016424D01*
X014609Y016499D01*
X014759Y016499D01*
X014834Y016424D01*
X014834Y016199D01*
X014834Y016349D02*
X014985Y016499D01*
X014909Y016660D02*
X014985Y016735D01*
X014985Y016885D01*
X014909Y016960D01*
X014609Y016960D01*
X014534Y016885D01*
X014534Y016735D01*
X014609Y016660D01*
X014684Y016660D01*
X014759Y016735D01*
X014759Y016960D01*
X014985Y016199D02*
X014534Y016199D01*
X010676Y008320D02*
X010676Y007870D01*
X010376Y008320D01*
X010376Y007870D01*
X010216Y007945D02*
X010141Y007870D01*
X009991Y007870D01*
X009916Y007945D01*
X009756Y007945D02*
X009756Y008020D01*
X009680Y008095D01*
X009455Y008095D01*
X009455Y007945D01*
X009530Y007870D01*
X009680Y007870D01*
X009756Y007945D01*
X009916Y008170D02*
X009991Y008095D01*
X010216Y008095D01*
X010216Y007945D02*
X010216Y008245D01*
X010141Y008320D01*
X009991Y008320D01*
X009916Y008245D01*
X009916Y008170D01*
X009756Y008320D02*
X009605Y008245D01*
X009455Y008095D01*
X009295Y007945D02*
X009220Y007870D01*
X009070Y007870D01*
X008995Y007945D01*
X009295Y008245D01*
X009295Y007945D01*
X008995Y007945D02*
X008995Y008245D01*
X009070Y008320D01*
X009220Y008320D01*
X009295Y008245D01*
X008835Y008095D02*
X008535Y008095D01*
X008760Y008320D01*
X008760Y007870D01*
X004985Y007999D02*
X004834Y007849D01*
X004834Y007924D02*
X004834Y007699D01*
X004985Y007699D02*
X004534Y007699D01*
X004534Y007924D01*
X004609Y007999D01*
X004759Y007999D01*
X004834Y007924D01*
X004985Y008160D02*
X004684Y008460D01*
X004609Y008460D01*
X004534Y008385D01*
X004534Y008235D01*
X004609Y008160D01*
X004985Y008160D02*
X004985Y008460D01*
X027819Y012532D02*
X027821Y012630D01*
X027827Y012728D01*
X027837Y012826D01*
X027851Y012924D01*
X027868Y013020D01*
X027890Y013116D01*
X027915Y013211D01*
X027945Y013305D01*
X027978Y013398D01*
X028014Y013489D01*
X028055Y013578D01*
X028099Y013666D01*
X028146Y013752D01*
X028197Y013837D01*
X028251Y013919D01*
X028309Y013998D01*
X028369Y014076D01*
X028433Y014151D01*
X028500Y014223D01*
X028569Y014292D01*
X028641Y014359D01*
X028716Y014423D01*
X028794Y014483D01*
X028873Y014541D01*
X028955Y014595D01*
X029039Y014646D01*
X029126Y014693D01*
X029214Y014737D01*
X029303Y014778D01*
X029394Y014814D01*
X029487Y014847D01*
X029581Y014877D01*
X029676Y014902D01*
X029772Y014924D01*
X029868Y014941D01*
X029966Y014955D01*
X030064Y014965D01*
X030162Y014971D01*
X030260Y014973D01*
X030358Y014971D01*
X030456Y014965D01*
X030554Y014955D01*
X030652Y014941D01*
X030748Y014924D01*
X030844Y014902D01*
X030939Y014877D01*
X031033Y014847D01*
X031126Y014814D01*
X031217Y014778D01*
X031306Y014737D01*
X031394Y014693D01*
X031480Y014646D01*
X031565Y014595D01*
X031647Y014541D01*
X031726Y014483D01*
X031804Y014423D01*
X031879Y014359D01*
X031951Y014292D01*
X032020Y014223D01*
X032087Y014151D01*
X032151Y014076D01*
X032211Y013998D01*
X032269Y013919D01*
X032323Y013837D01*
X032374Y013753D01*
X032421Y013666D01*
X032465Y013578D01*
X032506Y013489D01*
X032542Y013398D01*
X032575Y013305D01*
X032605Y013211D01*
X032630Y013116D01*
X032652Y013020D01*
X032669Y012924D01*
X032683Y012826D01*
X032693Y012728D01*
X032699Y012630D01*
X032701Y012532D01*
X032699Y012434D01*
X032693Y012336D01*
X032683Y012238D01*
X032669Y012140D01*
X032652Y012044D01*
X032630Y011948D01*
X032605Y011853D01*
X032575Y011759D01*
X032542Y011666D01*
X032506Y011575D01*
X032465Y011486D01*
X032421Y011398D01*
X032374Y011312D01*
X032323Y011227D01*
X032269Y011145D01*
X032211Y011066D01*
X032151Y010988D01*
X032087Y010913D01*
X032020Y010841D01*
X031951Y010772D01*
X031879Y010705D01*
X031804Y010641D01*
X031726Y010581D01*
X031647Y010523D01*
X031565Y010469D01*
X031481Y010418D01*
X031394Y010371D01*
X031306Y010327D01*
X031217Y010286D01*
X031126Y010250D01*
X031033Y010217D01*
X030939Y010187D01*
X030844Y010162D01*
X030748Y010140D01*
X030652Y010123D01*
X030554Y010109D01*
X030456Y010099D01*
X030358Y010093D01*
X030260Y010091D01*
X030162Y010093D01*
X030064Y010099D01*
X029966Y010109D01*
X029868Y010123D01*
X029772Y010140D01*
X029676Y010162D01*
X029581Y010187D01*
X029487Y010217D01*
X029394Y010250D01*
X029303Y010286D01*
X029214Y010327D01*
X029126Y010371D01*
X029040Y010418D01*
X028955Y010469D01*
X028873Y010523D01*
X028794Y010581D01*
X028716Y010641D01*
X028641Y010705D01*
X028569Y010772D01*
X028500Y010841D01*
X028433Y010913D01*
X028369Y010988D01*
X028309Y011066D01*
X028251Y011145D01*
X028197Y011227D01*
X028146Y011311D01*
X028099Y011398D01*
X028055Y011486D01*
X028014Y011575D01*
X027978Y011666D01*
X027945Y011759D01*
X027915Y011853D01*
X027890Y011948D01*
X027868Y012044D01*
X027851Y012140D01*
X027837Y012238D01*
X027827Y012336D01*
X027821Y012434D01*
X027819Y012532D01*
X031734Y016660D02*
X032034Y016660D01*
X032110Y016735D01*
X032110Y016885D01*
X032034Y016960D01*
X032034Y017120D02*
X032110Y017195D01*
X032110Y017345D01*
X032034Y017420D01*
X031959Y017420D01*
X031884Y017345D01*
X031884Y017120D01*
X032034Y017120D01*
X031884Y017120D02*
X031734Y017270D01*
X031659Y017420D01*
X031734Y016960D02*
X031659Y016885D01*
X031659Y016735D01*
X031734Y016660D01*
X035534Y012885D02*
X035609Y012960D01*
X035759Y012960D01*
X035834Y012885D01*
X035834Y012660D01*
X035985Y012660D02*
X035534Y012660D01*
X035534Y012885D01*
X035609Y012499D02*
X035534Y012424D01*
X035534Y012274D01*
X035609Y012199D01*
X035609Y012039D02*
X035909Y011739D01*
X035985Y011739D01*
X035909Y011579D02*
X035609Y011579D01*
X035909Y011278D01*
X035985Y011353D01*
X035985Y011504D01*
X035909Y011579D01*
X035609Y011579D02*
X035534Y011504D01*
X035534Y011353D01*
X035609Y011278D01*
X035909Y011278D01*
X035985Y011118D02*
X035985Y010818D01*
X035534Y010818D01*
X035534Y010658D02*
X035534Y010358D01*
X035534Y010508D02*
X035985Y010508D01*
X036584Y009745D02*
X034935Y009745D01*
X034872Y009195D02*
X034714Y009195D01*
X035647Y009195D02*
X035872Y009195D01*
X036585Y009745D02*
X036620Y009697D01*
X036653Y009647D01*
X036684Y009595D01*
X036711Y009541D01*
X036735Y009486D01*
X036755Y009429D01*
X036773Y009372D01*
X036787Y009314D01*
X036798Y009255D01*
X036805Y009195D01*
X036647Y009195D01*
X035450Y008092D02*
X035390Y008112D01*
X035331Y008136D01*
X035274Y008164D01*
X035219Y008195D01*
X035165Y008230D01*
X035114Y008267D01*
X035065Y008308D01*
X035019Y008352D01*
X034975Y008398D01*
X034934Y008447D01*
X034896Y008498D01*
X034862Y008551D01*
X034830Y008607D01*
X034803Y008664D01*
X034778Y008723D01*
X034758Y008783D01*
X034740Y008844D01*
X034727Y008906D01*
X034718Y008969D01*
X034712Y009032D01*
X034710Y009096D01*
X034712Y009160D01*
X034718Y009223D01*
X034727Y009286D01*
X034741Y009348D01*
X034758Y009409D01*
X034779Y009469D01*
X034803Y009528D01*
X034831Y009585D01*
X034863Y009641D01*
X034898Y009694D01*
X034935Y009745D01*
X036805Y009195D02*
X036809Y009133D01*
X036810Y009070D01*
X036806Y009008D01*
X036799Y008946D01*
X036789Y008885D01*
X036774Y008824D01*
X036756Y008764D01*
X036735Y008705D01*
X036710Y008648D01*
X036682Y008593D01*
X036651Y008539D01*
X036616Y008487D01*
X036578Y008437D01*
X036538Y008390D01*
X036494Y008345D01*
X036449Y008302D01*
X036400Y008263D01*
X036350Y008226D01*
X036297Y008193D01*
X036243Y008162D01*
X036186Y008135D01*
X036129Y008112D01*
X036070Y008092D01*
X035534Y011739D02*
X035534Y012039D01*
X035609Y012039D01*
X035985Y012199D02*
X035684Y012499D01*
X035609Y012499D01*
X035985Y012499D02*
X035985Y012199D01*
X039153Y013870D02*
X039153Y014320D01*
X039379Y014320D01*
X039454Y014245D01*
X039454Y014095D01*
X039379Y014020D01*
X039153Y014020D01*
X039303Y014020D02*
X039454Y013870D01*
X039614Y013870D02*
X039914Y014170D01*
X039914Y014245D01*
X039839Y014320D01*
X039689Y014320D01*
X039614Y014245D01*
X040074Y014245D02*
X040149Y014320D01*
X040299Y014320D01*
X040374Y014245D01*
X040374Y014170D01*
X040074Y013870D01*
X040374Y013870D01*
X039914Y013870D02*
X039614Y013870D01*
X040246Y014970D02*
X040397Y015120D01*
X040321Y015120D01*
X040321Y015195D01*
X040397Y015195D01*
X040397Y015120D01*
X040553Y015195D02*
X040628Y015120D01*
X040779Y015120D01*
X040854Y015195D01*
X040854Y015345D01*
X040779Y015420D01*
X040703Y015420D01*
X040553Y015345D01*
X040553Y015570D01*
X040854Y015570D01*
X041014Y015420D02*
X041014Y015120D01*
X041164Y015120D02*
X041164Y015345D01*
X041239Y015420D01*
X041314Y015345D01*
X041314Y015120D01*
X041474Y015120D02*
X041474Y015420D01*
X041549Y015420D01*
X041624Y015345D01*
X041699Y015420D01*
X041774Y015345D01*
X041774Y015120D01*
X041624Y015120D02*
X041624Y015345D01*
X041164Y015345D02*
X041089Y015420D01*
X041014Y015420D01*
X040086Y015420D02*
X040011Y015345D01*
X040086Y015270D01*
X040086Y015195D01*
X040011Y015120D01*
X039861Y015120D01*
X039786Y015195D01*
X039936Y015345D02*
X040011Y015345D01*
X040086Y015420D02*
X040086Y015495D01*
X040011Y015570D01*
X039861Y015570D01*
X039786Y015495D01*
X040193Y020045D02*
X040493Y020045D01*
X040653Y020195D02*
X040728Y020120D01*
X040879Y020120D01*
X040954Y020195D01*
X040954Y020495D01*
X040879Y020570D01*
X040728Y020570D01*
X040653Y020495D01*
X040653Y020195D01*
X041114Y020195D02*
X041114Y020570D01*
X041414Y020570D02*
X041414Y020195D01*
X041339Y020120D01*
X041189Y020120D01*
X041114Y020195D01*
X041574Y020570D02*
X041874Y020570D01*
X041724Y020570D02*
X041724Y020120D01*
X041774Y021120D02*
X041774Y021345D01*
X041699Y021420D01*
X041624Y021345D01*
X041624Y021120D01*
X041474Y021120D02*
X041474Y021420D01*
X041549Y021420D01*
X041624Y021345D01*
X041314Y021345D02*
X041314Y021120D01*
X041164Y021120D02*
X041164Y021345D01*
X041239Y021420D01*
X041314Y021345D01*
X041164Y021345D02*
X041089Y021420D01*
X041014Y021420D01*
X041014Y021120D01*
X040854Y021195D02*
X040854Y021345D01*
X040779Y021420D01*
X040703Y021420D01*
X040553Y021345D01*
X040553Y021570D01*
X040854Y021570D01*
X040086Y021495D02*
X040086Y021420D01*
X040011Y021345D01*
X040086Y021270D01*
X040086Y021195D01*
X040011Y021120D01*
X039861Y021120D01*
X039786Y021195D01*
X039936Y021345D02*
X040011Y021345D01*
X040086Y021495D02*
X040011Y021570D01*
X039861Y021570D01*
X039786Y021495D01*
X040321Y021195D02*
X040321Y021120D01*
X040397Y021120D01*
X040397Y021195D01*
X040321Y021195D01*
X040397Y021120D02*
X040246Y020970D01*
X040553Y021195D02*
X040628Y021120D01*
X040779Y021120D01*
X040854Y021195D01*
X040036Y020570D02*
X039886Y020570D01*
X039961Y020570D02*
X039961Y020120D01*
X039886Y020120D02*
X040036Y020120D01*
X039726Y020195D02*
X039726Y020495D01*
X039651Y020570D01*
X039426Y020570D01*
X039426Y020120D01*
X039651Y020120D01*
X039726Y020195D01*
X039269Y020120D02*
X039119Y020120D01*
X039194Y020120D02*
X039194Y020570D01*
X039119Y020570D02*
X039269Y020570D01*
X038959Y020570D02*
X038959Y020120D01*
X038658Y020120D02*
X038658Y020570D01*
X038808Y020420D01*
X038959Y020570D01*
X034749Y021095D02*
X034449Y021095D01*
X034674Y021320D01*
X034674Y020870D01*
X034289Y020870D02*
X033989Y020870D01*
X034289Y021170D01*
X034289Y021245D01*
X034214Y021320D01*
X034064Y021320D01*
X033989Y021245D01*
X033829Y021245D02*
X033754Y021320D01*
X033528Y021320D01*
X033528Y020870D01*
X033528Y021020D02*
X033754Y021020D01*
X033829Y021095D01*
X033829Y021245D01*
X033678Y021020D02*
X033829Y020870D01*
X034824Y023370D02*
X035124Y023670D01*
X035124Y023745D01*
X035049Y023820D01*
X034899Y023820D01*
X034824Y023745D01*
X034824Y023370D02*
X035124Y023370D01*
X035124Y024370D02*
X034824Y024370D01*
X034974Y024370D02*
X034974Y024820D01*
X034824Y024670D01*
X032524Y025295D02*
X032449Y025220D01*
X032299Y025220D01*
X032224Y025295D01*
X032524Y025595D01*
X032524Y025295D01*
X032224Y025295D02*
X032224Y025595D01*
X032299Y025670D01*
X032449Y025670D01*
X032524Y025595D01*
X032064Y025220D02*
X031764Y025220D01*
X031914Y025220D02*
X031914Y025670D01*
X031764Y025520D01*
X031652Y004106D02*
X031652Y003495D01*
D13*
X031593Y002860D02*
X031496Y002860D01*
X031545Y002860D02*
X031545Y002618D01*
X031496Y002570D01*
X031448Y002570D01*
X031400Y002618D01*
X031400Y002380D02*
X031545Y002380D01*
X031593Y002332D01*
X031593Y002138D01*
X031545Y002090D01*
X031400Y002090D01*
X031400Y002380D01*
X031743Y002283D02*
X031839Y002283D01*
X031888Y002235D01*
X031888Y002090D01*
X031743Y002090D01*
X031694Y002138D01*
X031743Y002187D01*
X031888Y002187D01*
X031989Y002283D02*
X032086Y002090D01*
X032182Y002283D01*
X032283Y002283D02*
X032332Y002283D01*
X032332Y002090D01*
X032380Y002090D02*
X032283Y002090D01*
X032480Y002138D02*
X032480Y002235D01*
X032528Y002283D01*
X032673Y002283D01*
X032673Y002380D02*
X032673Y002090D01*
X032528Y002090D01*
X032480Y002138D01*
X032578Y001900D02*
X032578Y001610D01*
X032723Y001610D01*
X032772Y001658D01*
X032772Y001755D01*
X032723Y001803D01*
X032578Y001803D01*
X032477Y001755D02*
X032477Y001658D01*
X032429Y001610D01*
X032332Y001610D01*
X032283Y001658D01*
X032283Y001755D01*
X032332Y001803D01*
X032429Y001803D01*
X032477Y001755D01*
X032182Y001803D02*
X032037Y001803D01*
X031989Y001755D01*
X031989Y001658D01*
X032037Y001610D01*
X032182Y001610D01*
X031888Y001610D02*
X031888Y001755D01*
X031839Y001803D01*
X031743Y001803D01*
X031743Y001707D02*
X031888Y001707D01*
X031888Y001610D02*
X031743Y001610D01*
X031694Y001658D01*
X031743Y001707D01*
X031545Y001658D02*
X031545Y001900D01*
X031593Y001900D02*
X031496Y001900D01*
X031545Y001658D02*
X031496Y001610D01*
X031448Y001610D01*
X031400Y001658D01*
X032332Y002380D02*
X032332Y002429D01*
X032379Y002570D02*
X032428Y002618D01*
X032428Y002715D01*
X032379Y002763D01*
X032283Y002763D01*
X032234Y002715D01*
X032234Y002618D01*
X032283Y002570D01*
X032379Y002570D01*
X032529Y002570D02*
X032674Y002570D01*
X032723Y002618D01*
X032723Y002715D01*
X032674Y002763D01*
X032529Y002763D01*
X032529Y002860D02*
X032529Y002570D01*
X032134Y002570D02*
X031989Y002667D01*
X032134Y002763D01*
X031989Y002860D02*
X031989Y002570D01*
X031888Y002570D02*
X031743Y002570D01*
X031694Y002618D01*
X031743Y002667D01*
X031888Y002667D01*
X031888Y002715D02*
X031888Y002570D01*
X031888Y002715D02*
X031839Y002763D01*
X031743Y002763D01*
X033118Y002715D02*
X033263Y002715D01*
X033312Y002667D01*
X033312Y002618D01*
X033263Y002570D01*
X033118Y002570D01*
X033118Y002860D01*
X033263Y002860D01*
X033312Y002812D01*
X033312Y002763D01*
X033263Y002715D01*
X033413Y002618D02*
X033461Y002667D01*
X033606Y002667D01*
X033606Y002715D02*
X033606Y002570D01*
X033461Y002570D01*
X033413Y002618D01*
X033461Y002763D02*
X033558Y002763D01*
X033606Y002715D01*
X033708Y002667D02*
X033853Y002763D01*
X033708Y002667D02*
X033853Y002570D01*
X033708Y002570D02*
X033708Y002860D01*
X033659Y002283D02*
X033659Y002138D01*
X033707Y002090D01*
X033852Y002090D01*
X033852Y002283D01*
X033953Y002283D02*
X034050Y002283D01*
X034002Y002332D02*
X034002Y002138D01*
X034050Y002090D01*
X034150Y002090D02*
X034150Y002380D01*
X034198Y002283D02*
X034295Y002283D01*
X034343Y002235D01*
X034343Y002090D01*
X034444Y002090D02*
X034541Y002090D01*
X034493Y002090D02*
X034493Y002283D01*
X034444Y002283D01*
X034493Y002380D02*
X034493Y002429D01*
X034641Y002235D02*
X034689Y002283D01*
X034786Y002283D01*
X034834Y002235D01*
X034834Y002187D01*
X034641Y002187D01*
X034641Y002235D02*
X034641Y002138D01*
X034689Y002090D01*
X034786Y002090D01*
X034935Y002090D02*
X034935Y002283D01*
X034935Y002187D02*
X035032Y002283D01*
X035080Y002283D01*
X035130Y001900D02*
X035178Y001852D01*
X035178Y001755D01*
X035130Y001707D01*
X034984Y001707D01*
X034984Y001610D02*
X034984Y001900D01*
X035130Y001900D01*
X035081Y001707D02*
X035178Y001610D01*
X035279Y001658D02*
X035279Y001755D01*
X035327Y001803D01*
X035424Y001803D01*
X035473Y001755D01*
X035473Y001707D01*
X035279Y001707D01*
X035279Y001658D02*
X035327Y001610D01*
X035424Y001610D01*
X035574Y001610D02*
X035574Y001803D01*
X035622Y001803D01*
X035670Y001755D01*
X035719Y001803D01*
X035767Y001755D01*
X035767Y001610D01*
X035670Y001610D02*
X035670Y001755D01*
X035868Y001803D02*
X035917Y001803D01*
X035917Y001610D01*
X035965Y001610D02*
X035868Y001610D01*
X036065Y001610D02*
X036065Y001803D01*
X036210Y001803D01*
X036258Y001755D01*
X036258Y001610D01*
X035917Y001900D02*
X035917Y001949D01*
X034589Y001803D02*
X034541Y001803D01*
X034444Y001707D01*
X034444Y001803D02*
X034444Y001610D01*
X034343Y001707D02*
X034150Y001707D01*
X034150Y001755D02*
X034198Y001803D01*
X034295Y001803D01*
X034343Y001755D01*
X034343Y001707D01*
X034295Y001610D02*
X034198Y001610D01*
X034150Y001658D01*
X034150Y001755D01*
X034049Y001803D02*
X033904Y001707D01*
X034049Y001610D01*
X033904Y001610D02*
X033904Y001900D01*
X033804Y001803D02*
X033659Y001707D01*
X033804Y001610D01*
X033659Y001610D02*
X033659Y001900D01*
X033510Y001900D02*
X033510Y001949D01*
X033510Y001803D02*
X033510Y001610D01*
X033462Y001610D02*
X033559Y001610D01*
X033510Y001803D02*
X033462Y001803D01*
X033361Y001852D02*
X033313Y001900D01*
X033216Y001900D01*
X033167Y001852D01*
X033167Y001803D01*
X033216Y001755D01*
X033313Y001755D01*
X033361Y001707D01*
X033361Y001658D01*
X033313Y001610D01*
X033216Y001610D01*
X033167Y001658D01*
X033214Y002090D02*
X033263Y002138D01*
X033263Y002235D01*
X033166Y002235D01*
X033069Y002138D02*
X033118Y002090D01*
X033214Y002090D01*
X033069Y002138D02*
X033069Y002332D01*
X033118Y002380D01*
X033214Y002380D01*
X033263Y002332D01*
X033412Y002283D02*
X033509Y002283D01*
X033557Y002235D01*
X033557Y002090D01*
X033412Y002090D01*
X033364Y002138D01*
X033412Y002187D01*
X033557Y002187D01*
X034150Y002235D02*
X034198Y002283D01*
X025194Y012047D02*
X024791Y012047D01*
X024791Y011913D02*
X024791Y012182D01*
X025060Y012182D02*
X025194Y012047D01*
X018728Y025008D02*
X018728Y025277D01*
X018728Y025143D02*
X018325Y025143D01*
X018459Y025008D01*
D14*
X016860Y025445D02*
X014060Y025445D01*
X012460Y025445D02*
X012060Y025445D01*
X011460Y025445D02*
X009660Y025445D01*
X009660Y022745D01*
X016860Y022745D01*
X016860Y025445D01*
X028660Y025445D02*
X028660Y022745D01*
X035860Y022745D01*
X035860Y025445D01*
X033060Y025445D01*
X031460Y025445D02*
X031060Y025445D01*
X030460Y025445D02*
X028660Y025445D01*
X012570Y014423D02*
X012534Y014460D01*
X012460Y014460D01*
X012424Y014423D01*
X012424Y014277D01*
X012460Y014240D01*
X012534Y014240D01*
X012570Y014277D01*
X012349Y014240D02*
X012349Y014387D01*
X012276Y014460D01*
X012203Y014387D01*
X012203Y014240D01*
X012128Y014277D02*
X012128Y014423D01*
X012092Y014460D01*
X011982Y014460D01*
X011982Y014240D01*
X012092Y014240D01*
X012128Y014277D01*
X012203Y014350D02*
X012349Y014350D01*
X011907Y014350D02*
X011761Y014240D01*
X011686Y014350D02*
X011540Y014350D01*
X011465Y014350D02*
X011429Y014313D01*
X011319Y014313D01*
X011319Y014240D02*
X011319Y014460D01*
X011429Y014460D01*
X011465Y014423D01*
X011465Y014350D01*
X011244Y014460D02*
X011244Y014240D01*
X011098Y014240D02*
X011098Y014460D01*
X011171Y014387D01*
X011244Y014460D01*
X011023Y014387D02*
X011023Y014240D01*
X011023Y014350D02*
X010877Y014350D01*
X010877Y014387D02*
X010950Y014460D01*
X011023Y014387D01*
X010877Y014387D02*
X010877Y014240D01*
X011761Y014460D02*
X011907Y014350D01*
X015181Y004825D02*
X015145Y004788D01*
X015145Y004642D01*
X015181Y004605D01*
X015255Y004605D01*
X015291Y004642D01*
X015291Y004715D01*
X015218Y004715D01*
X015291Y004788D02*
X015255Y004825D01*
X015181Y004825D01*
X015366Y004825D02*
X015512Y004605D01*
X015512Y004825D01*
X015586Y004825D02*
X015697Y004825D01*
X015733Y004788D01*
X015733Y004642D01*
X015697Y004605D01*
X015586Y004605D01*
X015586Y004825D01*
X015366Y004825D02*
X015366Y004605D01*
X015807Y004715D02*
X015954Y004715D01*
X016028Y004605D02*
X016175Y004715D01*
X016028Y004825D01*
X016249Y004752D02*
X016323Y004825D01*
X016396Y004752D01*
X016396Y004605D01*
X016470Y004642D02*
X016507Y004605D01*
X016581Y004605D01*
X016617Y004642D01*
X016617Y004715D01*
X016544Y004715D01*
X016617Y004788D02*
X016581Y004825D01*
X016507Y004825D01*
X016470Y004788D01*
X016470Y004642D01*
X016396Y004715D02*
X016249Y004715D01*
X016249Y004752D02*
X016249Y004605D01*
X016691Y004605D02*
X016691Y004825D01*
X016838Y004605D01*
X016838Y004825D01*
X016912Y004825D02*
X017023Y004825D01*
X017059Y004788D01*
X017059Y004642D01*
X017023Y004605D01*
X016912Y004605D01*
X016912Y004825D01*
X032169Y009855D02*
X032316Y009855D01*
X032390Y009928D01*
X032316Y010002D01*
X032169Y010002D01*
X032206Y010076D02*
X032353Y010076D01*
X032390Y010113D01*
X032390Y010186D01*
X032353Y010223D01*
X032390Y010297D02*
X032243Y010297D01*
X032169Y010370D01*
X032243Y010444D01*
X032390Y010444D01*
X032279Y010444D02*
X032279Y010297D01*
X032206Y010223D02*
X032169Y010186D01*
X032169Y010113D01*
X032206Y010076D01*
X032529Y010076D02*
X032566Y010076D01*
X032639Y010149D01*
X032750Y010149D01*
X032639Y010149D02*
X032566Y010223D01*
X032529Y010223D01*
X032529Y010297D02*
X032529Y010407D01*
X032566Y010444D01*
X032639Y010444D01*
X032676Y010407D01*
X032676Y010297D01*
X032750Y010297D02*
X032529Y010297D01*
X032603Y010518D02*
X032529Y010591D01*
X032603Y010665D01*
X032750Y010665D01*
X032713Y010739D02*
X032750Y010776D01*
X032750Y010849D01*
X032713Y010886D01*
X032676Y010886D01*
X032639Y010849D01*
X032639Y010776D01*
X032603Y010739D01*
X032566Y010739D01*
X032529Y010776D01*
X032529Y010849D01*
X032566Y010886D01*
X032566Y010960D02*
X032603Y010960D01*
X032639Y010997D01*
X032639Y011070D01*
X032676Y011107D01*
X032713Y011107D01*
X032750Y011070D01*
X032750Y010997D01*
X032713Y010960D01*
X032566Y010960D02*
X032529Y010997D01*
X032529Y011070D01*
X032566Y011107D01*
X032639Y010665D02*
X032639Y010518D01*
X032603Y010518D02*
X032750Y010518D01*
X032713Y010002D02*
X032750Y009965D01*
X032750Y009855D01*
X032529Y009855D01*
X032529Y009965D01*
X032566Y010002D01*
X032603Y010002D01*
X032639Y009965D01*
X032639Y009855D01*
X032639Y009965D02*
X032676Y010002D01*
X032713Y010002D01*
D15*
X021797Y002010D02*
X021710Y001924D01*
X021710Y001490D01*
X021455Y001490D02*
X021195Y001490D01*
X021108Y001577D01*
X021108Y001750D01*
X021195Y001837D01*
X021455Y001837D01*
X021624Y001750D02*
X021797Y001750D01*
X021967Y001750D02*
X021967Y001577D01*
X022054Y001490D01*
X022227Y001490D01*
X022314Y001577D01*
X022314Y001750D01*
X022227Y001837D01*
X022054Y001837D01*
X021967Y001750D01*
X020939Y002010D02*
X020592Y001490D01*
X020424Y001577D02*
X020424Y001750D01*
X020337Y001837D01*
X020163Y001837D01*
X020077Y001750D01*
X020077Y001577D01*
X020163Y001490D01*
X020337Y001490D01*
X020424Y001577D01*
X019906Y001750D02*
X019733Y001750D01*
X019564Y001750D02*
X019564Y001490D01*
X019820Y001490D02*
X019820Y001924D01*
X019906Y002010D01*
X019564Y001750D02*
X019477Y001837D01*
X019217Y001837D01*
X019217Y001490D01*
X019047Y001490D02*
X018873Y001490D01*
X018960Y001490D02*
X018960Y001837D01*
X018873Y001837D01*
X018960Y002010D02*
X018960Y002097D01*
X018447Y001837D02*
X018187Y001837D01*
X018100Y001750D01*
X018187Y001663D01*
X018360Y001663D01*
X018447Y001577D01*
X018360Y001490D01*
X018100Y001490D01*
X017931Y001663D02*
X017931Y001750D01*
X017845Y001837D01*
X017671Y001837D01*
X017584Y001750D01*
X017584Y001577D01*
X017671Y001490D01*
X017845Y001490D01*
X017931Y001663D02*
X017584Y001663D01*
X017414Y001490D02*
X017241Y001490D01*
X017327Y001490D02*
X017327Y001837D01*
X017241Y001837D01*
X017071Y001837D02*
X016984Y001837D01*
X016811Y001663D01*
X016811Y001490D02*
X016811Y001837D01*
X016554Y001837D02*
X016554Y001490D01*
X016467Y001490D02*
X016641Y001490D01*
X016298Y001490D02*
X016038Y001490D01*
X015951Y001577D01*
X016038Y001663D01*
X016298Y001663D01*
X016298Y001750D02*
X016298Y001490D01*
X016298Y001750D02*
X016212Y001837D01*
X016038Y001837D01*
X015783Y001750D02*
X015783Y001490D01*
X015783Y001750D02*
X015696Y001837D01*
X015523Y001837D01*
X015436Y001750D01*
X015267Y001750D02*
X015267Y001490D01*
X015436Y001490D02*
X015436Y002010D01*
X015180Y001837D02*
X015267Y001750D01*
X015180Y001837D02*
X014920Y001837D01*
X014920Y001490D01*
X014752Y001577D02*
X014752Y001750D01*
X014665Y001837D01*
X014491Y001837D01*
X014405Y001750D01*
X014405Y001577D01*
X014491Y001490D01*
X014665Y001490D01*
X014752Y001577D01*
X014234Y001490D02*
X014061Y001490D01*
X014148Y001490D02*
X014148Y001837D01*
X014061Y001837D01*
X013892Y001837D02*
X013632Y001837D01*
X013545Y001750D01*
X013632Y001663D01*
X013805Y001663D01*
X013892Y001577D01*
X013805Y001490D01*
X013545Y001490D01*
X013203Y001490D02*
X013376Y001837D01*
X013030Y001837D02*
X013203Y001490D01*
X014148Y002010D02*
X014148Y002097D01*
X016467Y001837D02*
X016554Y001837D01*
X016554Y002010D02*
X016554Y002097D01*
X017327Y002097D02*
X017327Y002010D01*
X018616Y001577D02*
X018702Y001577D01*
X018702Y001490D01*
X018616Y001490D01*
X018616Y001577D01*
D16*
X018214Y011544D02*
X017305Y011544D01*
X017305Y025646D01*
X018214Y025646D01*
X018214Y011544D01*
X018260Y011595D02*
X018260Y025595D01*
X021260Y025595D01*
X021260Y025095D01*
X022260Y025095D01*
X022260Y025595D01*
X025260Y025595D01*
X025260Y011595D01*
X018260Y011595D01*
X025305Y011544D02*
X025305Y025646D01*
X026214Y025646D01*
X026214Y011544D01*
X025305Y011544D01*
X026800Y017635D02*
X027413Y018249D01*
X027413Y018402D01*
X027260Y018556D01*
X026953Y018556D01*
X026800Y018402D01*
X026800Y017635D02*
X027413Y017635D01*
X027720Y017788D02*
X028334Y018402D01*
X028334Y017788D01*
X028181Y017635D01*
X027874Y017635D01*
X027720Y017788D01*
X027720Y018402D01*
X027874Y018556D01*
X028181Y018556D01*
X028334Y018402D01*
X028641Y018249D02*
X028948Y018556D01*
X028948Y017635D01*
X028641Y017635D02*
X029255Y017635D01*
X029562Y018095D02*
X030176Y018095D01*
X030022Y017635D02*
X030022Y018556D01*
X029562Y018095D01*
X029715Y019135D02*
X030022Y019135D01*
X030176Y019288D01*
X030176Y019902D01*
X030022Y020056D01*
X029715Y020056D01*
X029562Y019902D01*
X029562Y019288D01*
X029715Y019135D01*
X029255Y019288D02*
X029101Y019135D01*
X028795Y019135D01*
X028641Y019288D01*
X028334Y019135D02*
X027720Y019135D01*
X027720Y020056D01*
X028334Y020056D01*
X028641Y019902D02*
X028641Y019749D01*
X028795Y019595D01*
X029101Y019595D01*
X029255Y019442D01*
X029255Y019288D01*
X029255Y019902D02*
X029101Y020056D01*
X028795Y020056D01*
X028641Y019902D01*
X028027Y019595D02*
X027720Y019595D01*
X027413Y019595D02*
X027413Y019902D01*
X027260Y020056D01*
X026800Y020056D01*
X026800Y019135D01*
X026800Y019442D02*
X027260Y019442D01*
X027413Y019595D01*
X027106Y019442D02*
X027413Y019135D01*
X030483Y019135D02*
X030483Y020056D01*
X031097Y019135D01*
X031097Y020056D01*
X031403Y019749D02*
X031710Y020056D01*
X032017Y019749D01*
X032017Y019135D01*
X031403Y019135D02*
X031403Y019749D01*
X031403Y019595D02*
X032017Y019595D01*
X032324Y020056D02*
X032938Y020056D01*
X032631Y020056D02*
X032631Y019135D01*
X033245Y019135D02*
X033859Y019135D01*
X033245Y019135D02*
X033245Y020056D01*
X033859Y020056D01*
X033552Y019595D02*
X033245Y019595D01*
X024847Y027090D02*
X024847Y027243D01*
X024694Y027396D01*
X024233Y027396D01*
X024233Y027090D01*
X024387Y026936D01*
X024694Y026936D01*
X024847Y027090D01*
X024540Y027703D02*
X024233Y027396D01*
X023927Y027090D02*
X023773Y026936D01*
X023466Y026936D01*
X023313Y027090D01*
X023927Y027703D01*
X023927Y027090D01*
X023313Y027090D02*
X023313Y027703D01*
X023466Y027857D01*
X023773Y027857D01*
X023927Y027703D01*
X024540Y027703D02*
X024847Y027857D01*
X023006Y027090D02*
X023006Y026936D01*
X022852Y026936D01*
X022852Y027090D01*
X023006Y027090D01*
X022545Y027090D02*
X022545Y027703D01*
X022392Y027857D01*
X022085Y027857D01*
X021932Y027703D01*
X021932Y027550D01*
X022085Y027396D01*
X022545Y027396D01*
X022545Y027090D02*
X022392Y026936D01*
X022085Y026936D01*
X021932Y027090D01*
X021625Y027090D02*
X021625Y027703D01*
X021471Y027857D01*
X021164Y027857D01*
X021011Y027703D01*
X021011Y027550D01*
X021164Y027396D01*
X021625Y027396D01*
X021625Y027090D02*
X021471Y026936D01*
X021164Y026936D01*
X021011Y027090D01*
X007795Y019788D02*
X007795Y019158D01*
X007795Y019788D02*
X002165Y019788D01*
X002165Y016402D01*
X005295Y016402D01*
X007165Y016402D02*
X007795Y016402D01*
X007795Y017032D01*
D17*
X003260Y025966D02*
X003259Y027361D01*
X003259Y026593D02*
X004283Y026696D01*
X004283Y026719D02*
X004283Y026468D01*
X003259Y026593D01*
X004283Y026491D01*
X004283Y026542D02*
X003259Y026593D01*
X004283Y026644D01*
X004283Y026719D02*
X003259Y026593D01*
X042259Y026597D01*
X041236Y026495D01*
X041236Y026471D02*
X042259Y026597D01*
X041236Y026699D01*
X041236Y026723D02*
X041236Y026471D01*
X041236Y026546D02*
X042259Y026597D01*
X041236Y026648D01*
X041236Y026723D02*
X042259Y026597D01*
X042260Y025970D02*
X042259Y027365D01*
D18*
X042060Y025395D02*
X040360Y025395D01*
X039510Y025395D02*
X036460Y025395D01*
X036460Y020795D01*
X037760Y020795D01*
X038510Y020795D02*
X042060Y020795D01*
X042060Y021895D01*
X042060Y024295D01*
X043260Y024295D01*
X043260Y021895D01*
X043460Y022095D01*
X043460Y024095D01*
X043260Y024295D01*
X042060Y024295D02*
X042060Y025395D01*
X042060Y021895D02*
X043260Y021895D01*
X042060Y019395D02*
X040360Y019395D01*
X039510Y019395D02*
X036460Y019395D01*
X036460Y014795D01*
X037760Y014795D01*
X038510Y014795D02*
X042060Y014795D01*
X042060Y015895D01*
X042060Y018295D01*
X043260Y018295D01*
X043260Y015895D01*
X043460Y016095D01*
X043460Y018095D01*
X043260Y018295D01*
X042060Y018295D02*
X042060Y019395D01*
X042060Y015895D02*
X043260Y015895D01*
X040910Y014545D02*
X040760Y014545D01*
X040710Y014495D01*
X038810Y014495D01*
X038760Y014545D01*
X038610Y014545D01*
X038593Y014543D01*
X038576Y014539D01*
X038560Y014532D01*
X038546Y014522D01*
X038533Y014509D01*
X038523Y014495D01*
X038516Y014479D01*
X038512Y014462D01*
X038510Y014445D01*
X038510Y013745D02*
X038512Y013728D01*
X038516Y013711D01*
X038523Y013695D01*
X038533Y013681D01*
X038546Y013668D01*
X038560Y013658D01*
X038576Y013651D01*
X038593Y013647D01*
X038610Y013645D01*
X038760Y013645D01*
X038810Y013695D01*
X040710Y013695D01*
X040760Y013645D01*
X040910Y013645D01*
X040927Y013647D01*
X040944Y013651D01*
X040960Y013658D01*
X040974Y013668D01*
X040987Y013681D01*
X040997Y013695D01*
X041004Y013711D01*
X041008Y013728D01*
X041010Y013745D01*
X041010Y014445D02*
X041008Y014462D01*
X041004Y014479D01*
X040997Y014495D01*
X040987Y014509D01*
X040974Y014522D01*
X040960Y014532D01*
X040944Y014539D01*
X040927Y014543D01*
X040910Y014545D01*
X040360Y012595D02*
X041560Y012595D01*
X041583Y012593D01*
X041606Y012588D01*
X041628Y012579D01*
X041648Y012566D01*
X041666Y012551D01*
X041681Y012533D01*
X041694Y012513D01*
X041703Y012491D01*
X041708Y012468D01*
X041710Y012445D01*
X041710Y008745D01*
X041708Y008722D01*
X041703Y008699D01*
X041694Y008677D01*
X041681Y008657D01*
X041666Y008639D01*
X041648Y008624D01*
X041628Y008611D01*
X041606Y008602D01*
X041583Y008597D01*
X041560Y008595D01*
X041310Y008595D01*
X040210Y008595D02*
X039310Y008595D01*
X038210Y008595D02*
X037960Y008595D01*
X037937Y008597D01*
X037914Y008602D01*
X037892Y008611D01*
X037872Y008624D01*
X037854Y008639D01*
X037839Y008657D01*
X037826Y008677D01*
X037817Y008699D01*
X037812Y008722D01*
X037810Y008745D01*
X037810Y012445D01*
X037812Y012468D01*
X037817Y012491D01*
X037826Y012513D01*
X037839Y012533D01*
X037854Y012551D01*
X037872Y012566D01*
X037892Y012579D01*
X037914Y012588D01*
X037937Y012593D01*
X037960Y012595D01*
X039160Y012595D01*
X039760Y011745D02*
X039760Y011545D01*
X039910Y011245D02*
X039910Y010745D01*
X040160Y010545D01*
X040160Y010445D01*
X039910Y010445D01*
X039910Y009945D01*
X039610Y009945D01*
X039610Y010445D01*
X039360Y010445D01*
X039360Y010545D01*
X039610Y010745D01*
X039610Y011245D01*
X039910Y011245D01*
X040460Y011295D02*
X040560Y011395D01*
X040710Y010595D02*
X040910Y010595D01*
X040360Y009995D02*
X040560Y009795D01*
X038610Y010595D02*
X038612Y010662D01*
X038618Y010730D01*
X038628Y010797D01*
X038642Y010863D01*
X038659Y010928D01*
X038681Y010992D01*
X038706Y011055D01*
X038735Y011116D01*
X038767Y011175D01*
X038803Y011232D01*
X038842Y011287D01*
X038884Y011340D01*
X038929Y011390D01*
X038977Y011437D01*
X039028Y011482D01*
X039081Y011523D01*
X039137Y011562D01*
X039195Y011597D01*
X039255Y011628D01*
X039316Y011656D01*
X039379Y011680D01*
X039443Y011701D01*
X039509Y011717D01*
X039575Y011730D01*
X039642Y011739D01*
X039709Y011744D01*
X039777Y011745D01*
X039844Y011742D01*
X039911Y011735D01*
X039978Y011724D01*
X040044Y011709D01*
X040109Y011691D01*
X040173Y011668D01*
X040235Y011642D01*
X040296Y011613D01*
X040354Y011579D01*
X040411Y011543D01*
X040466Y011503D01*
X040518Y011460D01*
X040567Y011414D01*
X040614Y011365D01*
X040658Y011314D01*
X040698Y011260D01*
X040736Y011204D01*
X040770Y011145D01*
X040800Y011085D01*
X040827Y011023D01*
X040851Y010960D01*
X040870Y010895D01*
X040886Y010830D01*
X040898Y010763D01*
X040906Y010696D01*
X040910Y010629D01*
X040910Y010561D01*
X040906Y010494D01*
X040898Y010427D01*
X040886Y010360D01*
X040870Y010295D01*
X040851Y010230D01*
X040827Y010167D01*
X040800Y010105D01*
X040770Y010045D01*
X040736Y009986D01*
X040698Y009930D01*
X040658Y009876D01*
X040614Y009825D01*
X040567Y009776D01*
X040518Y009730D01*
X040466Y009687D01*
X040411Y009647D01*
X040354Y009611D01*
X040296Y009577D01*
X040235Y009548D01*
X040173Y009522D01*
X040109Y009499D01*
X040044Y009481D01*
X039978Y009466D01*
X039911Y009455D01*
X039844Y009448D01*
X039777Y009445D01*
X039709Y009446D01*
X039642Y009451D01*
X039575Y009460D01*
X039509Y009473D01*
X039443Y009489D01*
X039379Y009510D01*
X039316Y009534D01*
X039255Y009562D01*
X039195Y009593D01*
X039137Y009628D01*
X039081Y009667D01*
X039028Y009708D01*
X038977Y009753D01*
X038929Y009800D01*
X038884Y009850D01*
X038842Y009903D01*
X038803Y009958D01*
X038767Y010015D01*
X038735Y010074D01*
X038706Y010135D01*
X038681Y010198D01*
X038659Y010262D01*
X038642Y010327D01*
X038628Y010393D01*
X038618Y010460D01*
X038612Y010528D01*
X038610Y010595D01*
X038810Y010595D01*
X039160Y009995D02*
X038960Y009795D01*
X038960Y010595D02*
X038962Y010651D01*
X038968Y010708D01*
X038978Y010763D01*
X038992Y010818D01*
X039009Y010872D01*
X039031Y010924D01*
X039056Y010974D01*
X039084Y011023D01*
X039116Y011070D01*
X039151Y011114D01*
X039189Y011156D01*
X039230Y011195D01*
X039274Y011230D01*
X039320Y011263D01*
X039368Y011292D01*
X039418Y011318D01*
X039470Y011341D01*
X039524Y011359D01*
X039578Y011374D01*
X039633Y011385D01*
X039689Y011392D01*
X039746Y011395D01*
X039802Y011394D01*
X039859Y011389D01*
X039914Y011380D01*
X039969Y011367D01*
X040023Y011350D01*
X040076Y011330D01*
X040127Y011306D01*
X040176Y011278D01*
X040223Y011247D01*
X040268Y011213D01*
X040311Y011175D01*
X040350Y011135D01*
X040387Y011092D01*
X040420Y011047D01*
X040450Y010999D01*
X040477Y010949D01*
X040500Y010898D01*
X040520Y010845D01*
X040536Y010791D01*
X040548Y010735D01*
X040556Y010680D01*
X040560Y010623D01*
X040560Y010567D01*
X040556Y010510D01*
X040548Y010455D01*
X040536Y010399D01*
X040520Y010345D01*
X040500Y010292D01*
X040477Y010241D01*
X040450Y010191D01*
X040420Y010143D01*
X040387Y010098D01*
X040350Y010055D01*
X040311Y010015D01*
X040268Y009977D01*
X040223Y009943D01*
X040176Y009912D01*
X040127Y009884D01*
X040076Y009860D01*
X040023Y009840D01*
X039969Y009823D01*
X039914Y009810D01*
X039859Y009801D01*
X039802Y009796D01*
X039746Y009795D01*
X039689Y009798D01*
X039633Y009805D01*
X039578Y009816D01*
X039524Y009831D01*
X039470Y009849D01*
X039418Y009872D01*
X039368Y009898D01*
X039320Y009927D01*
X039274Y009960D01*
X039230Y009995D01*
X039189Y010034D01*
X039151Y010076D01*
X039116Y010120D01*
X039084Y010167D01*
X039056Y010216D01*
X039031Y010266D01*
X039009Y010318D01*
X038992Y010372D01*
X038978Y010427D01*
X038968Y010482D01*
X038962Y010539D01*
X038960Y010595D01*
X039060Y011295D02*
X038960Y011395D01*
X036910Y010095D02*
X034610Y010095D01*
X034610Y014095D01*
X035360Y014095D01*
X035362Y014056D01*
X035368Y014017D01*
X035377Y013979D01*
X035390Y013942D01*
X035407Y013906D01*
X035427Y013873D01*
X035451Y013841D01*
X035477Y013812D01*
X035506Y013786D01*
X035538Y013762D01*
X035571Y013742D01*
X035607Y013725D01*
X035644Y013712D01*
X035682Y013703D01*
X035721Y013697D01*
X035760Y013695D01*
X035799Y013697D01*
X035838Y013703D01*
X035876Y013712D01*
X035913Y013725D01*
X035949Y013742D01*
X035982Y013762D01*
X036014Y013786D01*
X036043Y013812D01*
X036069Y013841D01*
X036093Y013873D01*
X036113Y013906D01*
X036130Y013942D01*
X036143Y013979D01*
X036152Y014017D01*
X036158Y014056D01*
X036160Y014095D01*
X036910Y014095D01*
X036910Y010095D01*
X033660Y010645D02*
X033660Y009545D01*
X033658Y009528D01*
X033654Y009511D01*
X033647Y009495D01*
X033637Y009481D01*
X033624Y009468D01*
X033610Y009458D01*
X033594Y009451D01*
X033577Y009447D01*
X033560Y009445D01*
X032960Y009445D01*
X032943Y009447D01*
X032926Y009451D01*
X032910Y009458D01*
X032896Y009468D01*
X032883Y009481D01*
X032873Y009495D01*
X032866Y009511D01*
X032862Y009528D01*
X032860Y009545D01*
X032860Y010645D01*
X032862Y010662D01*
X032866Y010679D01*
X032873Y010695D01*
X032883Y010709D01*
X032896Y010722D01*
X032910Y010732D01*
X032926Y010739D01*
X032943Y010743D01*
X032960Y010745D01*
X033560Y010745D01*
X033577Y010743D01*
X033594Y010739D01*
X033610Y010732D01*
X033624Y010722D01*
X033637Y010709D01*
X033647Y010695D01*
X033654Y010679D01*
X033658Y010662D01*
X033660Y010645D01*
X037910Y006945D02*
X037910Y004245D01*
X037912Y004228D01*
X037916Y004211D01*
X037923Y004195D01*
X037933Y004181D01*
X037946Y004168D01*
X037960Y004158D01*
X037976Y004151D01*
X037993Y004147D01*
X038010Y004145D01*
X039010Y004145D01*
X039027Y004147D01*
X039044Y004151D01*
X039060Y004158D01*
X039074Y004168D01*
X039087Y004181D01*
X039097Y004195D01*
X039104Y004211D01*
X039108Y004228D01*
X039110Y004245D01*
X039110Y006945D01*
X039108Y006962D01*
X039104Y006979D01*
X039097Y006995D01*
X039087Y007009D01*
X039074Y007022D01*
X039060Y007032D01*
X039044Y007039D01*
X039027Y007043D01*
X039010Y007045D01*
X038010Y007045D01*
X037993Y007043D01*
X037976Y007039D01*
X037960Y007032D01*
X037946Y007022D01*
X037933Y007009D01*
X037923Y006995D01*
X037916Y006979D01*
X037912Y006962D01*
X037910Y006945D01*
X037260Y006595D02*
X033260Y006595D01*
X033260Y004595D01*
X037260Y004595D01*
X037260Y005345D01*
X037230Y005347D01*
X037200Y005352D01*
X037171Y005361D01*
X037144Y005374D01*
X037118Y005389D01*
X037094Y005408D01*
X037073Y005429D01*
X037054Y005453D01*
X037039Y005479D01*
X037026Y005506D01*
X037017Y005535D01*
X037012Y005565D01*
X037010Y005595D01*
X037012Y005625D01*
X037017Y005655D01*
X037026Y005684D01*
X037039Y005711D01*
X037054Y005737D01*
X037073Y005761D01*
X037094Y005782D01*
X037118Y005801D01*
X037144Y005816D01*
X037171Y005829D01*
X037200Y005838D01*
X037230Y005843D01*
X037260Y005845D01*
X037260Y006595D01*
X038510Y006195D02*
X038510Y005715D01*
X038510Y005465D02*
X038510Y004995D01*
X039810Y004595D02*
X039810Y004445D01*
X039812Y004428D01*
X039816Y004411D01*
X039823Y004395D01*
X039833Y004381D01*
X039846Y004368D01*
X039860Y004358D01*
X039876Y004351D01*
X039893Y004347D01*
X039910Y004345D01*
X039810Y004595D02*
X039860Y004645D01*
X039860Y006545D01*
X039810Y006595D01*
X039810Y006745D01*
X039812Y006762D01*
X039816Y006779D01*
X039823Y006795D01*
X039833Y006809D01*
X039846Y006822D01*
X039860Y006832D01*
X039876Y006839D01*
X039893Y006843D01*
X039910Y006845D01*
X040610Y006845D02*
X040627Y006843D01*
X040644Y006839D01*
X040660Y006832D01*
X040674Y006822D01*
X040687Y006809D01*
X040697Y006795D01*
X040704Y006779D01*
X040708Y006762D01*
X040710Y006745D01*
X040710Y006595D01*
X040660Y006545D01*
X040660Y004645D01*
X040710Y004595D01*
X040710Y004445D01*
X040708Y004428D01*
X040704Y004411D01*
X040697Y004395D01*
X040687Y004381D01*
X040674Y004368D01*
X040660Y004358D01*
X040644Y004351D01*
X040627Y004347D01*
X040610Y004345D01*
X030055Y002355D02*
X030055Y002155D01*
X029835Y002115D01*
X029800Y002148D02*
X029499Y002148D01*
X029535Y002195D02*
X029485Y002445D01*
X029285Y002545D01*
X029085Y002545D01*
X028935Y002395D01*
X028935Y002095D01*
X029085Y001995D01*
X028935Y001745D01*
X028885Y001745D01*
X028735Y001645D01*
X028635Y001745D01*
X028735Y001895D01*
X028635Y002145D01*
X028435Y002195D01*
X028435Y002345D01*
X028635Y002345D01*
X028735Y002595D01*
X028585Y002795D01*
X028735Y002895D01*
X028885Y002745D01*
X029085Y002845D01*
X029135Y003045D01*
X029285Y003045D01*
X029335Y002845D01*
X029535Y002745D01*
X029735Y002895D01*
X029835Y002795D01*
X029735Y002595D01*
X029835Y002345D01*
X030035Y002345D01*
X030035Y002195D01*
X029785Y002145D01*
X029735Y001895D01*
X029835Y001745D01*
X029735Y001645D01*
X029585Y001745D01*
X029485Y001695D01*
X029385Y001995D01*
X029535Y002195D01*
X029532Y002207D02*
X030035Y002207D01*
X030035Y002265D02*
X029521Y002265D01*
X029509Y002324D02*
X030035Y002324D01*
X030055Y002355D02*
X029835Y002395D01*
X029820Y002382D02*
X029497Y002382D01*
X029485Y002441D02*
X029796Y002441D01*
X029773Y002499D02*
X029377Y002499D01*
X029345Y002015D02*
X029373Y002031D01*
X029400Y002050D01*
X029423Y002072D01*
X029444Y002097D01*
X029462Y002125D01*
X029477Y002154D01*
X029487Y002185D01*
X029495Y002216D01*
X029498Y002249D01*
X029497Y002281D01*
X029493Y002314D01*
X029484Y002345D01*
X029472Y002375D01*
X029457Y002404D01*
X029438Y002431D01*
X029416Y002455D01*
X029392Y002476D01*
X029365Y002495D01*
X029336Y002510D01*
X029305Y002521D01*
X029274Y002529D01*
X029241Y002533D01*
X029209Y002533D01*
X029176Y002529D01*
X029145Y002521D01*
X029114Y002510D01*
X029085Y002495D01*
X029058Y002476D01*
X029034Y002455D01*
X029012Y002431D01*
X028993Y002404D01*
X028978Y002375D01*
X028966Y002345D01*
X028957Y002314D01*
X028953Y002281D01*
X028952Y002249D01*
X028955Y002216D01*
X028963Y002185D01*
X028973Y002154D01*
X028988Y002125D01*
X029006Y002097D01*
X029027Y002072D01*
X029050Y002050D01*
X029077Y002031D01*
X029105Y002015D01*
X028955Y001675D01*
X028885Y001715D01*
X028705Y001595D01*
X028565Y001735D01*
X028685Y001915D01*
X028727Y001914D02*
X029036Y001914D01*
X029071Y001973D02*
X028704Y001973D01*
X028680Y002031D02*
X029031Y002031D01*
X028943Y002090D02*
X028657Y002090D01*
X028605Y002115D02*
X028385Y002155D01*
X028385Y002355D01*
X028615Y002395D01*
X028649Y002382D02*
X028935Y002382D01*
X028935Y002324D02*
X028435Y002324D01*
X028435Y002265D02*
X028935Y002265D01*
X028935Y002207D02*
X028435Y002207D01*
X028622Y002148D02*
X028935Y002148D01*
X028607Y002099D02*
X028622Y002052D01*
X028640Y002006D01*
X028662Y001962D01*
X028687Y001920D01*
X028708Y001856D02*
X029001Y001856D01*
X028966Y001797D02*
X028669Y001797D01*
X028641Y001739D02*
X028875Y001739D01*
X028787Y001680D02*
X028700Y001680D01*
X029412Y001914D02*
X029738Y001914D01*
X029755Y001915D02*
X029885Y001735D01*
X029745Y001595D01*
X029565Y001715D01*
X029485Y001675D01*
X029345Y002015D01*
X029392Y001973D02*
X029750Y001973D01*
X029762Y002031D02*
X029412Y002031D01*
X029455Y002090D02*
X029773Y002090D01*
X029761Y001856D02*
X029431Y001856D01*
X029451Y001797D02*
X029800Y001797D01*
X029828Y001739D02*
X029594Y001739D01*
X029572Y001739D02*
X029470Y001739D01*
X029682Y001680D02*
X029770Y001680D01*
X029837Y002395D02*
X029825Y002435D01*
X029810Y002474D01*
X029792Y002512D01*
X029772Y002548D01*
X029750Y002583D01*
X029745Y002585D02*
X029885Y002775D01*
X029745Y002915D01*
X029545Y002785D01*
X029597Y002792D02*
X029833Y002792D01*
X029804Y002733D02*
X028631Y002733D01*
X028675Y002675D02*
X029774Y002675D01*
X029745Y002616D02*
X028719Y002616D01*
X028695Y002585D02*
X028565Y002775D01*
X028705Y002915D01*
X028895Y002785D01*
X028838Y002792D02*
X028587Y002792D01*
X028667Y002850D02*
X028780Y002850D01*
X028978Y002792D02*
X029441Y002792D01*
X029365Y002855D02*
X029315Y003095D01*
X029125Y003095D01*
X029075Y002855D01*
X029086Y002850D02*
X029333Y002850D01*
X029319Y002909D02*
X029100Y002909D01*
X029115Y002967D02*
X029304Y002967D01*
X029289Y003026D02*
X029130Y003026D01*
X029675Y002850D02*
X029780Y002850D01*
X029750Y002558D02*
X028720Y002558D01*
X028696Y002499D02*
X029039Y002499D01*
X028980Y002441D02*
X028673Y002441D01*
X028897Y002781D02*
X028939Y002804D01*
X028982Y002823D01*
X029027Y002840D01*
X029073Y002852D01*
X029365Y002856D02*
X029411Y002844D01*
X029457Y002828D01*
X029501Y002808D01*
X029544Y002785D01*
X029834Y002116D02*
X029824Y002074D01*
X029811Y002033D01*
X029795Y001993D01*
X029776Y001954D01*
X029754Y001917D01*
X028613Y002397D02*
X028624Y002437D01*
X028638Y002476D01*
X028654Y002513D01*
X028673Y002550D01*
X028694Y002585D01*
X026910Y002595D02*
X026160Y002595D01*
X026158Y002634D01*
X026152Y002673D01*
X026143Y002711D01*
X026130Y002748D01*
X026113Y002784D01*
X026093Y002817D01*
X026069Y002849D01*
X026043Y002878D01*
X026014Y002904D01*
X025982Y002928D01*
X025949Y002948D01*
X025913Y002965D01*
X025876Y002978D01*
X025838Y002987D01*
X025799Y002993D01*
X025760Y002995D01*
X025721Y002993D01*
X025682Y002987D01*
X025644Y002978D01*
X025607Y002965D01*
X025571Y002948D01*
X025538Y002928D01*
X025506Y002904D01*
X025477Y002878D01*
X025451Y002849D01*
X025427Y002817D01*
X025407Y002784D01*
X025390Y002748D01*
X025377Y002711D01*
X025368Y002673D01*
X025362Y002634D01*
X025360Y002595D01*
X024610Y002595D01*
X024610Y010595D01*
X026910Y010595D01*
X026910Y002595D01*
X022710Y002945D02*
X022710Y003095D01*
X022660Y003145D01*
X022660Y005045D01*
X022710Y005095D01*
X022710Y005245D01*
X022708Y005262D01*
X022704Y005279D01*
X022697Y005295D01*
X022687Y005309D01*
X022674Y005322D01*
X022660Y005332D01*
X022644Y005339D01*
X022627Y005343D01*
X022610Y005345D01*
X021910Y005345D02*
X021893Y005343D01*
X021876Y005339D01*
X021860Y005332D01*
X021846Y005322D01*
X021833Y005309D01*
X021823Y005295D01*
X021816Y005279D01*
X021812Y005262D01*
X021810Y005245D01*
X021810Y005095D01*
X021860Y005045D01*
X021860Y003145D01*
X021810Y003095D01*
X021810Y002945D01*
X021812Y002928D01*
X021816Y002911D01*
X021823Y002895D01*
X021833Y002881D01*
X021846Y002868D01*
X021860Y002858D01*
X021876Y002851D01*
X021893Y002847D01*
X021910Y002845D01*
X022610Y002845D02*
X022627Y002847D01*
X022644Y002851D01*
X022660Y002858D01*
X022674Y002868D01*
X022687Y002881D01*
X022697Y002895D01*
X022704Y002911D01*
X022708Y002928D01*
X022710Y002945D01*
X020710Y002945D02*
X020710Y003095D01*
X020660Y003145D01*
X020660Y005045D01*
X020710Y005095D01*
X020710Y005245D01*
X020708Y005262D01*
X020704Y005279D01*
X020697Y005295D01*
X020687Y005309D01*
X020674Y005322D01*
X020660Y005332D01*
X020644Y005339D01*
X020627Y005343D01*
X020610Y005345D01*
X019910Y005345D02*
X019893Y005343D01*
X019876Y005339D01*
X019860Y005332D01*
X019846Y005322D01*
X019833Y005309D01*
X019823Y005295D01*
X019816Y005279D01*
X019812Y005262D01*
X019810Y005245D01*
X019810Y005095D01*
X019860Y005045D01*
X019860Y003145D01*
X019810Y003095D01*
X019810Y002945D01*
X019812Y002928D01*
X019816Y002911D01*
X019823Y002895D01*
X019833Y002881D01*
X019846Y002868D01*
X019860Y002858D01*
X019876Y002851D01*
X019893Y002847D01*
X019910Y002845D01*
X019710Y002945D02*
X019710Y003095D01*
X019660Y003145D01*
X019660Y005045D01*
X019710Y005095D01*
X019710Y005245D01*
X019708Y005262D01*
X019704Y005279D01*
X019697Y005295D01*
X019687Y005309D01*
X019674Y005322D01*
X019660Y005332D01*
X019644Y005339D01*
X019627Y005343D01*
X019610Y005345D01*
X018910Y005345D02*
X018893Y005343D01*
X018876Y005339D01*
X018860Y005332D01*
X018846Y005322D01*
X018833Y005309D01*
X018823Y005295D01*
X018816Y005279D01*
X018812Y005262D01*
X018810Y005245D01*
X018810Y005095D01*
X018860Y005045D01*
X018860Y003145D01*
X018810Y003095D01*
X018810Y002945D01*
X018812Y002928D01*
X018816Y002911D01*
X018823Y002895D01*
X018833Y002881D01*
X018846Y002868D01*
X018860Y002858D01*
X018876Y002851D01*
X018893Y002847D01*
X018910Y002845D01*
X019610Y002845D02*
X019627Y002847D01*
X019644Y002851D01*
X019660Y002858D01*
X019674Y002868D01*
X019687Y002881D01*
X019697Y002895D01*
X019704Y002911D01*
X019708Y002928D01*
X019710Y002945D01*
X020610Y002845D02*
X020627Y002847D01*
X020644Y002851D01*
X020660Y002858D01*
X020674Y002868D01*
X020687Y002881D01*
X020697Y002895D01*
X020704Y002911D01*
X020708Y002928D01*
X020710Y002945D01*
X016660Y005045D02*
X016660Y005645D01*
X016658Y005662D01*
X016654Y005679D01*
X016647Y005695D01*
X016637Y005709D01*
X016624Y005722D01*
X016610Y005732D01*
X016594Y005739D01*
X016577Y005743D01*
X016560Y005745D01*
X015460Y005745D01*
X015443Y005743D01*
X015426Y005739D01*
X015410Y005732D01*
X015396Y005722D01*
X015383Y005709D01*
X015373Y005695D01*
X015366Y005679D01*
X015362Y005662D01*
X015360Y005645D01*
X015360Y005045D01*
X015362Y005028D01*
X015366Y005011D01*
X015373Y004995D01*
X015383Y004981D01*
X015396Y004968D01*
X015410Y004958D01*
X015426Y004951D01*
X015443Y004947D01*
X015460Y004945D01*
X016560Y004945D01*
X016577Y004947D01*
X016594Y004951D01*
X016610Y004958D01*
X016624Y004968D01*
X016637Y004981D01*
X016647Y004995D01*
X016654Y005011D01*
X016658Y005028D01*
X016660Y005045D01*
X014710Y005095D02*
X014660Y005045D01*
X014660Y003145D01*
X014710Y003095D01*
X014710Y002945D01*
X014708Y002928D01*
X014704Y002911D01*
X014697Y002895D01*
X014687Y002881D01*
X014674Y002868D01*
X014660Y002858D01*
X014644Y002851D01*
X014627Y002847D01*
X014610Y002845D01*
X013910Y002845D02*
X013893Y002847D01*
X013876Y002851D01*
X013860Y002858D01*
X013846Y002868D01*
X013833Y002881D01*
X013823Y002895D01*
X013816Y002911D01*
X013812Y002928D01*
X013810Y002945D01*
X013810Y003095D01*
X013860Y003145D01*
X013860Y005045D01*
X013810Y005095D01*
X013810Y005245D01*
X013812Y005262D01*
X013816Y005279D01*
X013823Y005295D01*
X013833Y005309D01*
X013846Y005322D01*
X013860Y005332D01*
X013876Y005339D01*
X013893Y005343D01*
X013910Y005345D01*
X014610Y005345D02*
X014627Y005343D01*
X014644Y005339D01*
X014660Y005332D01*
X014674Y005322D01*
X014687Y005309D01*
X014697Y005295D01*
X014704Y005279D01*
X014708Y005262D01*
X014710Y005245D01*
X014710Y005095D01*
X012410Y005145D02*
X012110Y005145D01*
X012260Y005295D02*
X012260Y004995D01*
X010910Y004095D02*
X010912Y004168D01*
X010918Y004241D01*
X010928Y004313D01*
X010942Y004385D01*
X010959Y004456D01*
X010981Y004526D01*
X011006Y004595D01*
X011035Y004662D01*
X011067Y004727D01*
X011103Y004791D01*
X011143Y004853D01*
X011185Y004912D01*
X011231Y004969D01*
X011280Y005023D01*
X011332Y005075D01*
X011386Y005124D01*
X011443Y005170D01*
X011502Y005212D01*
X011564Y005252D01*
X011628Y005288D01*
X011693Y005320D01*
X011760Y005349D01*
X011829Y005374D01*
X011899Y005396D01*
X011970Y005413D01*
X012042Y005427D01*
X012114Y005437D01*
X012187Y005443D01*
X012260Y005445D01*
X012333Y005443D01*
X012406Y005437D01*
X012478Y005427D01*
X012550Y005413D01*
X012621Y005396D01*
X012691Y005374D01*
X012760Y005349D01*
X012827Y005320D01*
X012892Y005288D01*
X012956Y005252D01*
X013018Y005212D01*
X013077Y005170D01*
X013134Y005124D01*
X013188Y005075D01*
X013240Y005023D01*
X013289Y004969D01*
X013335Y004912D01*
X013377Y004853D01*
X013417Y004791D01*
X013453Y004727D01*
X013485Y004662D01*
X013514Y004595D01*
X013539Y004526D01*
X013561Y004456D01*
X013578Y004385D01*
X013592Y004313D01*
X013602Y004241D01*
X013608Y004168D01*
X013610Y004095D01*
X013608Y004022D01*
X013602Y003949D01*
X013592Y003877D01*
X013578Y003805D01*
X013561Y003734D01*
X013539Y003664D01*
X013514Y003595D01*
X013485Y003528D01*
X013453Y003463D01*
X013417Y003399D01*
X013377Y003337D01*
X013335Y003278D01*
X013289Y003221D01*
X013240Y003167D01*
X013188Y003115D01*
X013134Y003066D01*
X013077Y003020D01*
X013018Y002978D01*
X012956Y002938D01*
X012892Y002902D01*
X012827Y002870D01*
X012760Y002841D01*
X012691Y002816D01*
X012621Y002794D01*
X012550Y002777D01*
X012478Y002763D01*
X012406Y002753D01*
X012333Y002747D01*
X012260Y002745D01*
X012187Y002747D01*
X012114Y002753D01*
X012042Y002763D01*
X011970Y002777D01*
X011899Y002794D01*
X011829Y002816D01*
X011760Y002841D01*
X011693Y002870D01*
X011628Y002902D01*
X011564Y002938D01*
X011502Y002978D01*
X011443Y003020D01*
X011386Y003066D01*
X011332Y003115D01*
X011280Y003167D01*
X011231Y003221D01*
X011185Y003278D01*
X011143Y003337D01*
X011103Y003399D01*
X011067Y003463D01*
X011035Y003528D01*
X011006Y003595D01*
X010981Y003664D01*
X010959Y003734D01*
X010942Y003805D01*
X010928Y003877D01*
X010918Y003949D01*
X010912Y004022D01*
X010910Y004095D01*
X010660Y003145D02*
X010660Y005045D01*
X010710Y005095D01*
X010710Y005245D01*
X010708Y005262D01*
X010704Y005279D01*
X010697Y005295D01*
X010687Y005309D01*
X010674Y005322D01*
X010660Y005332D01*
X010644Y005339D01*
X010627Y005343D01*
X010610Y005345D01*
X009910Y005345D02*
X009893Y005343D01*
X009876Y005339D01*
X009860Y005332D01*
X009846Y005322D01*
X009833Y005309D01*
X009823Y005295D01*
X009816Y005279D01*
X009812Y005262D01*
X009810Y005245D01*
X009810Y005095D01*
X009860Y005045D01*
X009860Y003145D01*
X009810Y003095D01*
X009810Y002945D01*
X009812Y002928D01*
X009816Y002911D01*
X009823Y002895D01*
X009833Y002881D01*
X009846Y002868D01*
X009860Y002858D01*
X009876Y002851D01*
X009893Y002847D01*
X009910Y002845D01*
X009710Y002945D02*
X009710Y003095D01*
X009660Y003145D01*
X009660Y005045D01*
X009710Y005095D01*
X009710Y005245D01*
X009708Y005262D01*
X009704Y005279D01*
X009697Y005295D01*
X009687Y005309D01*
X009674Y005322D01*
X009660Y005332D01*
X009644Y005339D01*
X009627Y005343D01*
X009610Y005345D01*
X008910Y005345D02*
X008893Y005343D01*
X008876Y005339D01*
X008860Y005332D01*
X008846Y005322D01*
X008833Y005309D01*
X008823Y005295D01*
X008816Y005279D01*
X008812Y005262D01*
X008810Y005245D01*
X008810Y005095D01*
X008860Y005045D01*
X008860Y003145D01*
X008810Y003095D01*
X008810Y002945D01*
X008812Y002928D01*
X008816Y002911D01*
X008823Y002895D01*
X008833Y002881D01*
X008846Y002868D01*
X008860Y002858D01*
X008876Y002851D01*
X008893Y002847D01*
X008910Y002845D01*
X008710Y002945D02*
X008710Y003095D01*
X008660Y003145D01*
X008660Y005045D01*
X008710Y005095D01*
X008710Y005245D01*
X008708Y005262D01*
X008704Y005279D01*
X008697Y005295D01*
X008687Y005309D01*
X008674Y005322D01*
X008660Y005332D01*
X008644Y005339D01*
X008627Y005343D01*
X008610Y005345D01*
X007910Y005345D02*
X007893Y005343D01*
X007876Y005339D01*
X007860Y005332D01*
X007846Y005322D01*
X007833Y005309D01*
X007823Y005295D01*
X007816Y005279D01*
X007812Y005262D01*
X007810Y005245D01*
X007810Y005095D01*
X007860Y005045D01*
X007860Y003145D01*
X007810Y003095D01*
X007810Y002945D01*
X007812Y002928D01*
X007816Y002911D01*
X007823Y002895D01*
X007833Y002881D01*
X007846Y002868D01*
X007860Y002858D01*
X007876Y002851D01*
X007893Y002847D01*
X007910Y002845D01*
X007510Y003245D02*
X007010Y003245D01*
X006984Y003247D01*
X006958Y003252D01*
X006933Y003260D01*
X006910Y003272D01*
X006888Y003286D01*
X006869Y003304D01*
X006851Y003323D01*
X006837Y003345D01*
X006825Y003368D01*
X006817Y003393D01*
X006812Y003419D01*
X006810Y003445D01*
X006810Y004745D01*
X006710Y004745D02*
X006710Y003445D01*
X006708Y003419D01*
X006703Y003393D01*
X006695Y003368D01*
X006683Y003345D01*
X006669Y003323D01*
X006651Y003304D01*
X006632Y003286D01*
X006610Y003272D01*
X006587Y003260D01*
X006562Y003252D01*
X006536Y003247D01*
X006510Y003245D01*
X006010Y003245D01*
X005984Y003247D01*
X005958Y003252D01*
X005933Y003260D01*
X005910Y003272D01*
X005888Y003286D01*
X005869Y003304D01*
X005851Y003323D01*
X005837Y003345D01*
X005825Y003368D01*
X005817Y003393D01*
X005812Y003419D01*
X005810Y003445D01*
X005810Y004745D01*
X005812Y004771D01*
X005817Y004797D01*
X005825Y004822D01*
X005837Y004845D01*
X005851Y004867D01*
X005869Y004886D01*
X005888Y004904D01*
X005910Y004918D01*
X005933Y004930D01*
X005958Y004938D01*
X005984Y004943D01*
X006010Y004945D01*
X006510Y004945D01*
X006536Y004943D01*
X006562Y004938D01*
X006587Y004930D01*
X006610Y004918D01*
X006632Y004904D01*
X006651Y004886D01*
X006669Y004867D01*
X006683Y004845D01*
X006695Y004822D01*
X006703Y004797D01*
X006708Y004771D01*
X006710Y004745D01*
X006810Y004745D02*
X006812Y004771D01*
X006817Y004797D01*
X006825Y004822D01*
X006837Y004845D01*
X006851Y004867D01*
X006869Y004886D01*
X006888Y004904D01*
X006910Y004918D01*
X006933Y004930D01*
X006958Y004938D01*
X006984Y004943D01*
X007010Y004945D01*
X007510Y004945D01*
X007536Y004943D01*
X007562Y004938D01*
X007587Y004930D01*
X007610Y004918D01*
X007632Y004904D01*
X007651Y004886D01*
X007669Y004867D01*
X007683Y004845D01*
X007695Y004822D01*
X007703Y004797D01*
X007708Y004771D01*
X007710Y004745D01*
X007710Y003445D01*
X007708Y003419D01*
X007703Y003393D01*
X007695Y003368D01*
X007683Y003345D01*
X007669Y003323D01*
X007651Y003304D01*
X007632Y003286D01*
X007610Y003272D01*
X007587Y003260D01*
X007562Y003252D01*
X007536Y003247D01*
X007510Y003245D01*
X008610Y002845D02*
X008627Y002847D01*
X008644Y002851D01*
X008660Y002858D01*
X008674Y002868D01*
X008687Y002881D01*
X008697Y002895D01*
X008704Y002911D01*
X008708Y002928D01*
X008710Y002945D01*
X009610Y002845D02*
X009627Y002847D01*
X009644Y002851D01*
X009660Y002858D01*
X009674Y002868D01*
X009687Y002881D01*
X009697Y002895D01*
X009704Y002911D01*
X009708Y002928D01*
X009710Y002945D01*
X010610Y002845D02*
X010627Y002847D01*
X010644Y002851D01*
X010660Y002858D01*
X010674Y002868D01*
X010687Y002881D01*
X010697Y002895D01*
X010704Y002911D01*
X010708Y002928D01*
X010710Y002945D01*
X010710Y003095D01*
X010660Y003145D01*
X005660Y003295D02*
X005660Y004895D01*
X005658Y004912D01*
X005654Y004929D01*
X005647Y004945D01*
X005637Y004959D01*
X005624Y004972D01*
X005610Y004982D01*
X005594Y004989D01*
X005577Y004993D01*
X005560Y004995D01*
X004960Y004995D01*
X004943Y004993D01*
X004926Y004989D01*
X004910Y004982D01*
X004896Y004972D01*
X004883Y004959D01*
X004873Y004945D01*
X004866Y004929D01*
X004862Y004912D01*
X004860Y004895D01*
X004860Y003295D01*
X004862Y003278D01*
X004866Y003261D01*
X004873Y003245D01*
X004883Y003231D01*
X004896Y003218D01*
X004910Y003208D01*
X004926Y003201D01*
X004943Y003197D01*
X004960Y003195D01*
X005560Y003195D01*
X005577Y003197D01*
X005594Y003201D01*
X005610Y003208D01*
X005624Y003218D01*
X005637Y003231D01*
X005647Y003245D01*
X005654Y003261D01*
X005658Y003278D01*
X005660Y003295D01*
X005260Y003845D02*
X005260Y004095D01*
X005510Y004095D01*
X005260Y004095D02*
X005010Y004495D01*
X005510Y004495D01*
X005260Y004095D01*
X005010Y004095D01*
X005260Y004095D02*
X005260Y004695D01*
X004660Y004895D02*
X004660Y003295D01*
X004658Y003278D01*
X004654Y003261D01*
X004647Y003245D01*
X004637Y003231D01*
X004624Y003218D01*
X004610Y003208D01*
X004594Y003201D01*
X004577Y003197D01*
X004560Y003195D01*
X003960Y003195D01*
X003943Y003197D01*
X003926Y003201D01*
X003910Y003208D01*
X003896Y003218D01*
X003883Y003231D01*
X003873Y003245D01*
X003866Y003261D01*
X003862Y003278D01*
X003860Y003295D01*
X003860Y004895D01*
X003862Y004912D01*
X003866Y004929D01*
X003873Y004945D01*
X003883Y004959D01*
X003896Y004972D01*
X003910Y004982D01*
X003926Y004989D01*
X003943Y004993D01*
X003960Y004995D01*
X004560Y004995D01*
X004577Y004993D01*
X004594Y004989D01*
X004610Y004982D01*
X004624Y004972D01*
X004637Y004959D01*
X004647Y004945D01*
X004654Y004929D01*
X004658Y004912D01*
X004660Y004895D01*
X004260Y004345D02*
X004260Y004095D01*
X004010Y004095D01*
X004260Y004095D02*
X004510Y004095D01*
X004260Y004095D02*
X004010Y003695D01*
X004510Y003695D01*
X004260Y004095D01*
X004260Y003495D01*
X004310Y006945D02*
X004310Y007095D01*
X004360Y007145D01*
X004360Y009045D01*
X004310Y009095D01*
X004310Y009245D01*
X004312Y009262D01*
X004316Y009279D01*
X004323Y009295D01*
X004333Y009309D01*
X004346Y009322D01*
X004360Y009332D01*
X004376Y009339D01*
X004393Y009343D01*
X004410Y009345D01*
X005110Y009345D02*
X005127Y009343D01*
X005144Y009339D01*
X005160Y009332D01*
X005174Y009322D01*
X005187Y009309D01*
X005197Y009295D01*
X005204Y009279D01*
X005208Y009262D01*
X005210Y009245D01*
X005210Y009095D01*
X005160Y009045D01*
X005160Y007145D01*
X005210Y007095D01*
X005210Y006945D01*
X005208Y006928D01*
X005204Y006911D01*
X005197Y006895D01*
X005187Y006881D01*
X005174Y006868D01*
X005160Y006858D01*
X005144Y006851D01*
X005127Y006847D01*
X005110Y006845D01*
X004410Y006845D02*
X004393Y006847D01*
X004376Y006851D01*
X004360Y006858D01*
X004346Y006868D01*
X004333Y006881D01*
X004323Y006895D01*
X004316Y006911D01*
X004312Y006928D01*
X004310Y006945D01*
X005760Y006945D02*
X005760Y007695D01*
X005799Y007697D01*
X005838Y007703D01*
X005876Y007712D01*
X005913Y007725D01*
X005949Y007742D01*
X005982Y007762D01*
X006014Y007786D01*
X006043Y007812D01*
X006069Y007841D01*
X006093Y007873D01*
X006113Y007906D01*
X006130Y007942D01*
X006143Y007979D01*
X006152Y008017D01*
X006158Y008056D01*
X006160Y008095D01*
X006158Y008134D01*
X006152Y008173D01*
X006143Y008211D01*
X006130Y008248D01*
X006113Y008284D01*
X006093Y008317D01*
X006069Y008349D01*
X006043Y008378D01*
X006014Y008404D01*
X005982Y008428D01*
X005949Y008448D01*
X005913Y008465D01*
X005876Y008478D01*
X005838Y008487D01*
X005799Y008493D01*
X005760Y008495D01*
X005760Y009245D01*
X012760Y009245D01*
X012760Y006945D01*
X005760Y006945D01*
X005010Y010245D02*
X004510Y010245D01*
X004484Y010247D01*
X004458Y010252D01*
X004433Y010260D01*
X004410Y010272D01*
X004388Y010286D01*
X004369Y010304D01*
X004351Y010323D01*
X004337Y010345D01*
X004325Y010368D01*
X004317Y010393D01*
X004312Y010419D01*
X004310Y010445D01*
X004310Y011745D01*
X004312Y011771D01*
X004317Y011797D01*
X004325Y011822D01*
X004337Y011845D01*
X004351Y011867D01*
X004369Y011886D01*
X004388Y011904D01*
X004410Y011918D01*
X004433Y011930D01*
X004458Y011938D01*
X004484Y011943D01*
X004510Y011945D01*
X005010Y011945D01*
X005036Y011943D01*
X005062Y011938D01*
X005087Y011930D01*
X005110Y011918D01*
X005132Y011904D01*
X005151Y011886D01*
X005169Y011867D01*
X005183Y011845D01*
X005195Y011822D01*
X005203Y011797D01*
X005208Y011771D01*
X005210Y011745D01*
X005210Y010445D01*
X005208Y010419D01*
X005203Y010393D01*
X005195Y010368D01*
X005183Y010345D01*
X005169Y010323D01*
X005151Y010304D01*
X005132Y010286D01*
X005110Y010272D01*
X005087Y010260D01*
X005062Y010252D01*
X005036Y010247D01*
X005010Y010245D01*
X005810Y010945D02*
X005810Y011095D01*
X005860Y011145D01*
X005860Y013045D01*
X005810Y013095D01*
X005810Y013245D01*
X005812Y013262D01*
X005816Y013279D01*
X005823Y013295D01*
X005833Y013309D01*
X005846Y013322D01*
X005860Y013332D01*
X005876Y013339D01*
X005893Y013343D01*
X005910Y013345D01*
X006610Y013345D02*
X006627Y013343D01*
X006644Y013339D01*
X006660Y013332D01*
X006674Y013322D01*
X006687Y013309D01*
X006697Y013295D01*
X006704Y013279D01*
X006708Y013262D01*
X006710Y013245D01*
X006710Y013095D01*
X006660Y013045D01*
X006660Y011145D01*
X006710Y011095D01*
X006710Y010945D01*
X006810Y010945D02*
X006810Y011095D01*
X006860Y011145D01*
X006860Y013045D01*
X006810Y013095D01*
X006810Y013245D01*
X006812Y013262D01*
X006816Y013279D01*
X006823Y013295D01*
X006833Y013309D01*
X006846Y013322D01*
X006860Y013332D01*
X006876Y013339D01*
X006893Y013343D01*
X006910Y013345D01*
X007610Y013345D02*
X007627Y013343D01*
X007644Y013339D01*
X007660Y013332D01*
X007674Y013322D01*
X007687Y013309D01*
X007697Y013295D01*
X007704Y013279D01*
X007708Y013262D01*
X007710Y013245D01*
X007710Y013095D01*
X007660Y013045D01*
X007660Y011145D01*
X007710Y011095D01*
X007710Y010945D01*
X007810Y010945D02*
X007810Y011095D01*
X007860Y011145D01*
X007860Y013045D01*
X007810Y013095D01*
X007810Y013245D01*
X007812Y013262D01*
X007816Y013279D01*
X007823Y013295D01*
X007833Y013309D01*
X007846Y013322D01*
X007860Y013332D01*
X007876Y013339D01*
X007893Y013343D01*
X007910Y013345D01*
X008610Y013345D02*
X008627Y013343D01*
X008644Y013339D01*
X008660Y013332D01*
X008674Y013322D01*
X008687Y013309D01*
X008697Y013295D01*
X008704Y013279D01*
X008708Y013262D01*
X008710Y013245D01*
X008710Y013095D01*
X008660Y013045D01*
X008660Y011145D01*
X008710Y011095D01*
X008710Y010945D01*
X008810Y010945D02*
X008810Y011095D01*
X008860Y011145D01*
X008860Y013045D01*
X008810Y013095D01*
X008810Y013245D01*
X008812Y013262D01*
X008816Y013279D01*
X008823Y013295D01*
X008833Y013309D01*
X008846Y013322D01*
X008860Y013332D01*
X008876Y013339D01*
X008893Y013343D01*
X008910Y013345D01*
X009610Y013345D02*
X009627Y013343D01*
X009644Y013339D01*
X009660Y013332D01*
X009674Y013322D01*
X009687Y013309D01*
X009697Y013295D01*
X009704Y013279D01*
X009708Y013262D01*
X009710Y013245D01*
X009710Y013095D01*
X009660Y013045D01*
X009660Y011145D01*
X009710Y011095D01*
X009710Y010945D01*
X009708Y010928D01*
X009704Y010911D01*
X009697Y010895D01*
X009687Y010881D01*
X009674Y010868D01*
X009660Y010858D01*
X009644Y010851D01*
X009627Y010847D01*
X009610Y010845D01*
X008910Y010845D02*
X008893Y010847D01*
X008876Y010851D01*
X008860Y010858D01*
X008846Y010868D01*
X008833Y010881D01*
X008823Y010895D01*
X008816Y010911D01*
X008812Y010928D01*
X008810Y010945D01*
X008710Y010945D02*
X008708Y010928D01*
X008704Y010911D01*
X008697Y010895D01*
X008687Y010881D01*
X008674Y010868D01*
X008660Y010858D01*
X008644Y010851D01*
X008627Y010847D01*
X008610Y010845D01*
X007910Y010845D02*
X007893Y010847D01*
X007876Y010851D01*
X007860Y010858D01*
X007846Y010868D01*
X007833Y010881D01*
X007823Y010895D01*
X007816Y010911D01*
X007812Y010928D01*
X007810Y010945D01*
X007710Y010945D02*
X007708Y010928D01*
X007704Y010911D01*
X007697Y010895D01*
X007687Y010881D01*
X007674Y010868D01*
X007660Y010858D01*
X007644Y010851D01*
X007627Y010847D01*
X007610Y010845D01*
X006910Y010845D02*
X006893Y010847D01*
X006876Y010851D01*
X006860Y010858D01*
X006846Y010868D01*
X006833Y010881D01*
X006823Y010895D01*
X006816Y010911D01*
X006812Y010928D01*
X006810Y010945D01*
X006710Y010945D02*
X006708Y010928D01*
X006704Y010911D01*
X006697Y010895D01*
X006687Y010881D01*
X006674Y010868D01*
X006660Y010858D01*
X006644Y010851D01*
X006627Y010847D01*
X006610Y010845D01*
X005910Y010845D02*
X005893Y010847D01*
X005876Y010851D01*
X005860Y010858D01*
X005846Y010868D01*
X005833Y010881D01*
X005823Y010895D01*
X005816Y010911D01*
X005812Y010928D01*
X005810Y010945D01*
X010160Y010745D02*
X010160Y013445D01*
X010162Y013462D01*
X010166Y013479D01*
X010173Y013495D01*
X010183Y013509D01*
X010196Y013522D01*
X010210Y013532D01*
X010226Y013539D01*
X010243Y013543D01*
X010260Y013545D01*
X011260Y013545D01*
X011277Y013543D01*
X011294Y013539D01*
X011310Y013532D01*
X011324Y013522D01*
X011337Y013509D01*
X011347Y013495D01*
X011354Y013479D01*
X011358Y013462D01*
X011360Y013445D01*
X011360Y010745D01*
X011358Y010728D01*
X011354Y010711D01*
X011347Y010695D01*
X011337Y010681D01*
X011324Y010668D01*
X011310Y010658D01*
X011294Y010651D01*
X011277Y010647D01*
X011260Y010645D01*
X010260Y010645D01*
X010243Y010647D01*
X010226Y010651D01*
X010210Y010658D01*
X010196Y010668D01*
X010183Y010681D01*
X010173Y010695D01*
X010166Y010711D01*
X010162Y010728D01*
X010160Y010745D01*
X010760Y011495D02*
X010760Y011975D01*
X010760Y012225D02*
X010760Y012695D01*
X011810Y013095D02*
X011860Y013045D01*
X011860Y011145D01*
X011810Y011095D01*
X011810Y010945D01*
X011812Y010928D01*
X011816Y010911D01*
X011823Y010895D01*
X011833Y010881D01*
X011846Y010868D01*
X011860Y010858D01*
X011876Y010851D01*
X011893Y010847D01*
X011910Y010845D01*
X012610Y010845D02*
X012627Y010847D01*
X012644Y010851D01*
X012660Y010858D01*
X012674Y010868D01*
X012687Y010881D01*
X012697Y010895D01*
X012704Y010911D01*
X012708Y010928D01*
X012710Y010945D01*
X012710Y011095D01*
X012660Y011145D01*
X012660Y013045D01*
X012710Y013095D01*
X012710Y013245D01*
X012708Y013262D01*
X012704Y013279D01*
X012697Y013295D01*
X012687Y013309D01*
X012674Y013322D01*
X012660Y013332D01*
X012644Y013339D01*
X012627Y013343D01*
X012610Y013345D01*
X011910Y013345D02*
X011893Y013343D01*
X011876Y013339D01*
X011860Y013332D01*
X011846Y013322D01*
X011833Y013309D01*
X011823Y013295D01*
X011816Y013279D01*
X011812Y013262D01*
X011810Y013245D01*
X011810Y013095D01*
X013310Y013095D02*
X013310Y013245D01*
X013312Y013262D01*
X013316Y013279D01*
X013323Y013295D01*
X013333Y013309D01*
X013346Y013322D01*
X013360Y013332D01*
X013376Y013339D01*
X013393Y013343D01*
X013410Y013345D01*
X013310Y013095D02*
X013360Y013045D01*
X013360Y011145D01*
X013310Y011095D01*
X013310Y010945D01*
X013312Y010928D01*
X013316Y010911D01*
X013323Y010895D01*
X013333Y010881D01*
X013346Y010868D01*
X013360Y010858D01*
X013376Y010851D01*
X013393Y010847D01*
X013410Y010845D01*
X014110Y010845D02*
X014127Y010847D01*
X014144Y010851D01*
X014160Y010858D01*
X014174Y010868D01*
X014187Y010881D01*
X014197Y010895D01*
X014204Y010911D01*
X014208Y010928D01*
X014210Y010945D01*
X014210Y011095D01*
X014160Y011145D01*
X014160Y013045D01*
X014210Y013095D01*
X014210Y013245D01*
X014310Y013245D02*
X014310Y013095D01*
X014360Y013045D01*
X014360Y011145D01*
X014310Y011095D01*
X014310Y010945D01*
X014312Y010928D01*
X014316Y010911D01*
X014323Y010895D01*
X014333Y010881D01*
X014346Y010868D01*
X014360Y010858D01*
X014376Y010851D01*
X014393Y010847D01*
X014410Y010845D01*
X015110Y010845D02*
X015127Y010847D01*
X015144Y010851D01*
X015160Y010858D01*
X015174Y010868D01*
X015187Y010881D01*
X015197Y010895D01*
X015204Y010911D01*
X015208Y010928D01*
X015210Y010945D01*
X015210Y011095D01*
X015160Y011145D01*
X015160Y013045D01*
X015210Y013095D01*
X015210Y013245D01*
X015208Y013262D01*
X015204Y013279D01*
X015197Y013295D01*
X015187Y013309D01*
X015174Y013322D01*
X015160Y013332D01*
X015144Y013339D01*
X015127Y013343D01*
X015110Y013345D01*
X015810Y013245D02*
X015810Y013095D01*
X015860Y013045D01*
X015860Y011145D01*
X015810Y011095D01*
X015810Y010945D01*
X015812Y010928D01*
X015816Y010911D01*
X015823Y010895D01*
X015833Y010881D01*
X015846Y010868D01*
X015860Y010858D01*
X015876Y010851D01*
X015893Y010847D01*
X015910Y010845D01*
X016610Y010845D02*
X016627Y010847D01*
X016644Y010851D01*
X016660Y010858D01*
X016674Y010868D01*
X016687Y010881D01*
X016697Y010895D01*
X016704Y010911D01*
X016708Y010928D01*
X016710Y010945D01*
X016710Y011095D01*
X016660Y011145D01*
X016660Y013045D01*
X016710Y013095D01*
X016710Y013245D01*
X016708Y013262D01*
X016704Y013279D01*
X016697Y013295D01*
X016687Y013309D01*
X016674Y013322D01*
X016660Y013332D01*
X016644Y013339D01*
X016627Y013343D01*
X016610Y013345D01*
X015910Y013345D02*
X015893Y013343D01*
X015876Y013339D01*
X015860Y013332D01*
X015846Y013322D01*
X015833Y013309D01*
X015823Y013295D01*
X015816Y013279D01*
X015812Y013262D01*
X015810Y013245D01*
X014410Y013345D02*
X014393Y013343D01*
X014376Y013339D01*
X014360Y013332D01*
X014346Y013322D01*
X014333Y013309D01*
X014323Y013295D01*
X014316Y013279D01*
X014312Y013262D01*
X014310Y013245D01*
X014210Y013245D02*
X014208Y013262D01*
X014204Y013279D01*
X014197Y013295D01*
X014187Y013309D01*
X014174Y013322D01*
X014160Y013332D01*
X014144Y013339D01*
X014127Y013343D01*
X014110Y013345D01*
X012410Y014670D02*
X012410Y015270D01*
X012408Y015287D01*
X012404Y015304D01*
X012397Y015320D01*
X012387Y015334D01*
X012374Y015347D01*
X012360Y015357D01*
X012344Y015364D01*
X012327Y015368D01*
X012310Y015370D01*
X011210Y015370D01*
X011193Y015368D01*
X011176Y015364D01*
X011160Y015357D01*
X011146Y015347D01*
X011133Y015334D01*
X011123Y015320D01*
X011116Y015304D01*
X011112Y015287D01*
X011110Y015270D01*
X011110Y014670D01*
X011112Y014653D01*
X011116Y014636D01*
X011123Y014620D01*
X011133Y014606D01*
X011146Y014593D01*
X011160Y014583D01*
X011176Y014576D01*
X011193Y014572D01*
X011210Y014570D01*
X012310Y014570D01*
X012327Y014572D01*
X012344Y014576D01*
X012360Y014583D01*
X012374Y014593D01*
X012387Y014606D01*
X012397Y014620D01*
X012404Y014636D01*
X012408Y014653D01*
X012410Y014670D01*
X012160Y015595D02*
X012910Y015595D01*
X012910Y019595D01*
X010610Y019595D01*
X010610Y015595D01*
X011360Y015595D01*
X011362Y015634D01*
X011368Y015673D01*
X011377Y015711D01*
X011390Y015748D01*
X011407Y015784D01*
X011427Y015817D01*
X011451Y015849D01*
X011477Y015878D01*
X011506Y015904D01*
X011538Y015928D01*
X011571Y015948D01*
X011607Y015965D01*
X011644Y015978D01*
X011682Y015987D01*
X011721Y015993D01*
X011760Y015995D01*
X011799Y015993D01*
X011838Y015987D01*
X011876Y015978D01*
X011913Y015965D01*
X011949Y015948D01*
X011982Y015928D01*
X012014Y015904D01*
X012043Y015878D01*
X012069Y015849D01*
X012093Y015817D01*
X012113Y015784D01*
X012130Y015748D01*
X012143Y015711D01*
X012152Y015673D01*
X012158Y015634D01*
X012160Y015595D01*
X014310Y015595D02*
X014310Y015445D01*
X014312Y015428D01*
X014316Y015411D01*
X014323Y015395D01*
X014333Y015381D01*
X014346Y015368D01*
X014360Y015358D01*
X014376Y015351D01*
X014393Y015347D01*
X014410Y015345D01*
X014310Y015595D02*
X014360Y015645D01*
X014360Y017545D01*
X014310Y017595D01*
X014310Y017745D01*
X014312Y017762D01*
X014316Y017779D01*
X014323Y017795D01*
X014333Y017809D01*
X014346Y017822D01*
X014360Y017832D01*
X014376Y017839D01*
X014393Y017843D01*
X014410Y017845D01*
X015110Y017845D02*
X015127Y017843D01*
X015144Y017839D01*
X015160Y017832D01*
X015174Y017822D01*
X015187Y017809D01*
X015197Y017795D01*
X015204Y017779D01*
X015208Y017762D01*
X015210Y017745D01*
X015210Y017595D01*
X015160Y017545D01*
X015160Y015645D01*
X015210Y015595D01*
X015210Y015445D01*
X015208Y015428D01*
X015204Y015411D01*
X015197Y015395D01*
X015187Y015381D01*
X015174Y015368D01*
X015160Y015358D01*
X015144Y015351D01*
X015127Y015347D01*
X015110Y015345D01*
X009260Y015795D02*
X008260Y015795D01*
X008260Y017395D01*
X009260Y017395D01*
X009260Y015795D01*
X008760Y016345D02*
X008760Y016595D01*
X009010Y016595D01*
X008760Y016595D02*
X008510Y016995D01*
X009010Y016995D01*
X008760Y016595D01*
X008510Y016595D01*
X008760Y016595D02*
X008760Y017195D01*
X010110Y020145D02*
X010260Y020145D01*
X010310Y020195D01*
X012210Y020195D01*
X012260Y020145D01*
X012410Y020145D01*
X012427Y020147D01*
X012444Y020151D01*
X012460Y020158D01*
X012474Y020168D01*
X012487Y020181D01*
X012497Y020195D01*
X012504Y020211D01*
X012508Y020228D01*
X012510Y020245D01*
X012510Y020945D02*
X012508Y020962D01*
X012504Y020979D01*
X012497Y020995D01*
X012487Y021009D01*
X012474Y021022D01*
X012460Y021032D01*
X012444Y021039D01*
X012427Y021043D01*
X012410Y021045D01*
X012260Y021045D01*
X012210Y020995D01*
X010310Y020995D01*
X010260Y021045D01*
X010110Y021045D01*
X010093Y021043D01*
X010076Y021039D01*
X010060Y021032D01*
X010046Y021022D01*
X010033Y021009D01*
X010023Y020995D01*
X010016Y020979D01*
X010012Y020962D01*
X010010Y020945D01*
X010010Y020245D02*
X010012Y020228D01*
X010016Y020211D01*
X010023Y020195D01*
X010033Y020181D01*
X010046Y020168D01*
X010060Y020158D01*
X010076Y020151D01*
X010093Y020147D01*
X010110Y020145D01*
X009060Y020795D02*
X006010Y020795D01*
X005160Y020795D02*
X003460Y020795D01*
X003460Y021895D01*
X003460Y024295D01*
X003460Y025395D01*
X007010Y025395D01*
X007760Y025395D02*
X009060Y025395D01*
X009060Y020795D01*
X009260Y022345D02*
X009760Y022345D01*
X009760Y022245D01*
X010260Y022245D01*
X010260Y022345D01*
X013010Y022345D01*
X013010Y022245D01*
X013510Y022245D01*
X013510Y022345D01*
X016260Y022345D01*
X016260Y022245D01*
X016760Y022245D01*
X016760Y022345D01*
X017260Y022345D01*
X017260Y025845D01*
X015510Y025845D01*
X015510Y025795D01*
X015010Y025795D01*
X015010Y025845D01*
X014060Y025845D01*
X014060Y025445D01*
X014060Y025345D01*
X016760Y025345D01*
X016760Y022845D01*
X009760Y022845D01*
X009760Y025345D01*
X011460Y025345D01*
X012060Y025345D01*
X012460Y025345D01*
X012460Y025445D01*
X012460Y025845D01*
X014060Y025845D01*
X014060Y025345D02*
X014060Y025045D01*
X012460Y025045D01*
X012460Y025345D01*
X012260Y025645D02*
X012060Y025645D01*
X011460Y025645D01*
X011460Y025445D01*
X011460Y025345D01*
X011460Y025645D02*
X011260Y025645D01*
X011110Y025845D01*
X009260Y025845D01*
X009260Y022345D01*
X012060Y025345D02*
X012060Y025445D01*
X012060Y025645D01*
X012260Y025645D02*
X012410Y025845D01*
X012460Y025845D01*
X003460Y024295D02*
X002260Y024295D01*
X002260Y021895D01*
X002060Y022095D01*
X002060Y024095D01*
X002260Y024295D01*
X002260Y021895D02*
X003460Y021895D01*
X013310Y009245D02*
X013310Y009095D01*
X013360Y009045D01*
X013360Y007145D01*
X013310Y007095D01*
X013310Y006945D01*
X013312Y006928D01*
X013316Y006911D01*
X013323Y006895D01*
X013333Y006881D01*
X013346Y006868D01*
X013360Y006858D01*
X013376Y006851D01*
X013393Y006847D01*
X013410Y006845D01*
X014110Y006845D02*
X014127Y006847D01*
X014144Y006851D01*
X014160Y006858D01*
X014174Y006868D01*
X014187Y006881D01*
X014197Y006895D01*
X014204Y006911D01*
X014208Y006928D01*
X014210Y006945D01*
X014210Y007095D01*
X014160Y007145D01*
X014160Y009045D01*
X014210Y009095D01*
X014210Y009245D01*
X014208Y009262D01*
X014204Y009279D01*
X014197Y009295D01*
X014187Y009309D01*
X014174Y009322D01*
X014160Y009332D01*
X014144Y009339D01*
X014127Y009343D01*
X014110Y009345D01*
X014760Y009245D02*
X014760Y006945D01*
X022760Y006945D01*
X022760Y007695D01*
X022721Y007697D01*
X022682Y007703D01*
X022644Y007712D01*
X022607Y007725D01*
X022571Y007742D01*
X022538Y007762D01*
X022506Y007786D01*
X022477Y007812D01*
X022451Y007841D01*
X022427Y007873D01*
X022407Y007906D01*
X022390Y007942D01*
X022377Y007979D01*
X022368Y008017D01*
X022362Y008056D01*
X022360Y008095D01*
X022362Y008134D01*
X022368Y008173D01*
X022377Y008211D01*
X022390Y008248D01*
X022407Y008284D01*
X022427Y008317D01*
X022451Y008349D01*
X022477Y008378D01*
X022506Y008404D01*
X022538Y008428D01*
X022571Y008448D01*
X022607Y008465D01*
X022644Y008478D01*
X022682Y008487D01*
X022721Y008493D01*
X022760Y008495D01*
X022760Y009245D01*
X014760Y009245D01*
X013410Y009345D02*
X013393Y009343D01*
X013376Y009339D01*
X013360Y009332D01*
X013346Y009322D01*
X013333Y009309D01*
X013323Y009295D01*
X013316Y009279D01*
X013312Y009262D01*
X013310Y009245D01*
X026472Y020733D02*
X028047Y020733D01*
X028047Y025457D01*
X026472Y025457D01*
X026472Y020733D01*
X026787Y022150D02*
X027732Y022150D01*
X027732Y024040D01*
X026787Y024040D01*
X026787Y022150D01*
X028260Y022345D02*
X028760Y022345D01*
X028760Y022245D01*
X029260Y022245D01*
X029260Y022345D01*
X032010Y022345D01*
X032010Y022245D01*
X032510Y022245D01*
X032510Y022345D01*
X035260Y022345D01*
X035260Y022245D01*
X035760Y022245D01*
X035760Y022345D01*
X036260Y022345D01*
X036260Y025845D01*
X034510Y025845D01*
X034510Y025795D01*
X034010Y025795D01*
X034010Y025845D01*
X033060Y025845D01*
X033060Y025445D01*
X033060Y025345D01*
X035760Y025345D01*
X035760Y022845D01*
X028760Y022845D01*
X028760Y025345D01*
X030460Y025345D01*
X031060Y025345D01*
X031460Y025345D01*
X031460Y025445D01*
X031460Y025845D01*
X033060Y025845D01*
X033060Y025345D02*
X033060Y025045D01*
X031460Y025045D01*
X031460Y025345D01*
X031260Y025645D02*
X031060Y025645D01*
X030460Y025645D01*
X030460Y025445D01*
X030460Y025345D01*
X030460Y025645D02*
X030260Y025645D01*
X030110Y025845D01*
X028260Y025845D01*
X028260Y022345D01*
X031060Y025345D02*
X031060Y025445D01*
X031060Y025645D01*
X031260Y025645D02*
X031410Y025845D01*
X031460Y025845D01*
X033110Y021545D02*
X033260Y021545D01*
X033310Y021495D01*
X035210Y021495D01*
X035260Y021545D01*
X035410Y021545D01*
X035427Y021543D01*
X035444Y021539D01*
X035460Y021532D01*
X035474Y021522D01*
X035487Y021509D01*
X035497Y021495D01*
X035504Y021479D01*
X035508Y021462D01*
X035510Y021445D01*
X035510Y020745D02*
X035508Y020728D01*
X035504Y020711D01*
X035497Y020695D01*
X035487Y020681D01*
X035474Y020668D01*
X035460Y020658D01*
X035444Y020651D01*
X035427Y020647D01*
X035410Y020645D01*
X035260Y020645D01*
X035210Y020695D01*
X033310Y020695D01*
X033260Y020645D01*
X033110Y020645D01*
X033093Y020647D01*
X033076Y020651D01*
X033060Y020658D01*
X033046Y020668D01*
X033033Y020681D01*
X033023Y020695D01*
X033016Y020711D01*
X033012Y020728D01*
X033010Y020745D01*
X033010Y021445D02*
X033012Y021462D01*
X033016Y021479D01*
X033023Y021495D01*
X033033Y021509D01*
X033046Y021522D01*
X033060Y021532D01*
X033076Y021539D01*
X033093Y021543D01*
X033110Y021545D01*
X034472Y019457D02*
X036047Y019457D01*
X036047Y014733D01*
X034472Y014733D01*
X034472Y019457D01*
X034787Y018040D02*
X034787Y016150D01*
X035732Y016150D01*
X035732Y018040D01*
X034787Y018040D01*
X031410Y017095D02*
X031412Y017168D01*
X031418Y017241D01*
X031428Y017313D01*
X031442Y017385D01*
X031459Y017456D01*
X031481Y017526D01*
X031506Y017595D01*
X031535Y017662D01*
X031567Y017727D01*
X031603Y017791D01*
X031643Y017853D01*
X031685Y017912D01*
X031731Y017969D01*
X031780Y018023D01*
X031832Y018075D01*
X031886Y018124D01*
X031943Y018170D01*
X032002Y018212D01*
X032064Y018252D01*
X032128Y018288D01*
X032193Y018320D01*
X032260Y018349D01*
X032329Y018374D01*
X032399Y018396D01*
X032470Y018413D01*
X032542Y018427D01*
X032614Y018437D01*
X032687Y018443D01*
X032760Y018445D01*
X032833Y018443D01*
X032906Y018437D01*
X032978Y018427D01*
X033050Y018413D01*
X033121Y018396D01*
X033191Y018374D01*
X033260Y018349D01*
X033327Y018320D01*
X033392Y018288D01*
X033456Y018252D01*
X033518Y018212D01*
X033577Y018170D01*
X033634Y018124D01*
X033688Y018075D01*
X033740Y018023D01*
X033789Y017969D01*
X033835Y017912D01*
X033877Y017853D01*
X033917Y017791D01*
X033953Y017727D01*
X033985Y017662D01*
X034014Y017595D01*
X034039Y017526D01*
X034061Y017456D01*
X034078Y017385D01*
X034092Y017313D01*
X034102Y017241D01*
X034108Y017168D01*
X034110Y017095D01*
X034108Y017022D01*
X034102Y016949D01*
X034092Y016877D01*
X034078Y016805D01*
X034061Y016734D01*
X034039Y016664D01*
X034014Y016595D01*
X033985Y016528D01*
X033953Y016463D01*
X033917Y016399D01*
X033877Y016337D01*
X033835Y016278D01*
X033789Y016221D01*
X033740Y016167D01*
X033688Y016115D01*
X033634Y016066D01*
X033577Y016020D01*
X033518Y015978D01*
X033456Y015938D01*
X033392Y015902D01*
X033327Y015870D01*
X033260Y015841D01*
X033191Y015816D01*
X033121Y015794D01*
X033050Y015777D01*
X032978Y015763D01*
X032906Y015753D01*
X032833Y015747D01*
X032760Y015745D01*
X032687Y015747D01*
X032614Y015753D01*
X032542Y015763D01*
X032470Y015777D01*
X032399Y015794D01*
X032329Y015816D01*
X032260Y015841D01*
X032193Y015870D01*
X032128Y015902D01*
X032064Y015938D01*
X032002Y015978D01*
X031943Y016020D01*
X031886Y016066D01*
X031832Y016115D01*
X031780Y016167D01*
X031731Y016221D01*
X031685Y016278D01*
X031643Y016337D01*
X031603Y016399D01*
X031567Y016463D01*
X031535Y016528D01*
X031506Y016595D01*
X031481Y016664D01*
X031459Y016734D01*
X031442Y016805D01*
X031428Y016877D01*
X031418Y016949D01*
X031412Y017022D01*
X031410Y017095D01*
X032760Y016195D02*
X032760Y015895D01*
X032910Y016045D02*
X032610Y016045D01*
D19*
X038260Y005715D02*
X038510Y005715D01*
X038760Y005715D01*
X038760Y005465D02*
X038510Y005465D01*
X038260Y005465D01*
X011010Y011975D02*
X010760Y011975D01*
X010510Y011975D01*
X010510Y012225D02*
X010760Y012225D01*
X011010Y012225D01*
X005060Y011225D02*
X004460Y011225D01*
X004460Y010975D02*
X005060Y010975D01*
X005960Y004215D02*
X006560Y004215D01*
X006560Y003965D02*
X005960Y003965D01*
X006960Y003965D02*
X007560Y003965D01*
X007560Y004215D02*
X006960Y004215D01*
D20*
X005760Y014245D03*
D21*
X007485Y014495D03*
X004035Y014495D03*
D22*
X005260Y014495D03*
X006260Y014495D03*
D23*
X008760Y016045D03*
D24*
X008760Y015420D03*
X008760Y017770D03*
D25*
X004260Y004745D03*
X005260Y003445D03*
D26*
X005260Y003070D03*
X004260Y003070D03*
X004260Y005120D03*
X005260Y005120D03*
D27*
X026866Y023193D02*
X026866Y023981D01*
X027653Y023981D01*
X027653Y023193D01*
X026866Y023193D01*
X034866Y017981D02*
X034866Y017193D01*
X035653Y017193D01*
X035653Y017981D01*
X034866Y017981D01*
D28*
X038585Y009345D03*
X040935Y009345D03*
D29*
X041260Y010070D03*
X038260Y010070D03*
D30*
X031833Y021380D02*
X031622Y021380D01*
X031517Y021485D01*
X031517Y021905D01*
X031622Y022011D01*
X031833Y022011D01*
X031938Y021905D01*
X031938Y021695D02*
X031727Y021695D01*
X031938Y021695D02*
X031938Y021485D01*
X031833Y021380D01*
X031293Y021485D02*
X031293Y021905D01*
X031188Y022011D01*
X030978Y022011D01*
X030873Y021905D01*
X030873Y021485D01*
X030978Y021380D01*
X031188Y021380D01*
X031293Y021485D01*
X030649Y021380D02*
X030228Y021380D01*
X030228Y022011D01*
X030004Y021800D02*
X030004Y021380D01*
X030004Y021695D02*
X029584Y021695D01*
X029584Y021800D02*
X029794Y022011D01*
X030004Y021800D01*
X029584Y021800D02*
X029584Y021380D01*
X029359Y021380D02*
X029359Y022011D01*
X028939Y022011D02*
X029359Y021380D01*
X028939Y021380D02*
X028939Y022011D01*
X028715Y021800D02*
X028715Y021380D01*
X028715Y021695D02*
X028295Y021695D01*
X028295Y021800D02*
X028505Y022011D01*
X028715Y021800D01*
X028295Y021800D02*
X028295Y021380D01*
X013152Y021380D02*
X012732Y021380D01*
X012732Y022011D01*
X012508Y021800D02*
X012508Y021380D01*
X012508Y021695D02*
X012088Y021695D01*
X012088Y021800D02*
X012298Y022011D01*
X012508Y021800D01*
X012088Y021800D02*
X012088Y021380D01*
X011653Y021380D02*
X011653Y022011D01*
X011443Y022011D02*
X011863Y022011D01*
X011223Y022011D02*
X011013Y022011D01*
X011118Y022011D02*
X011118Y021380D01*
X011013Y021380D02*
X011223Y021380D01*
X010789Y021485D02*
X010789Y021695D01*
X010579Y021695D01*
X010789Y021485D02*
X010684Y021380D01*
X010474Y021380D01*
X010369Y021485D01*
X010369Y021905D01*
X010474Y022011D01*
X010684Y022011D01*
X010789Y021905D01*
X010149Y022011D02*
X009939Y022011D01*
X010044Y022011D02*
X010044Y021380D01*
X009939Y021380D02*
X010149Y021380D01*
X009715Y021485D02*
X009715Y021905D01*
X009610Y022011D01*
X009295Y022011D01*
X009295Y021380D01*
X009610Y021380D01*
X009715Y021485D01*
M02*
