G75*
%MOIN*%
%OFA0B0*%
%FSLAX24Y24*%
%IPPOS*%
%LPD*%
%AMOC8*
5,1,8,0,0,1.08239X$1,22.5*
%
%ADD10C,0.0160*%
%ADD11C,0.0000*%
%ADD12OC8,0.0885*%
%ADD13C,0.0885*%
%ADD14OC8,0.0630*%
%ADD15C,0.0630*%
%ADD16OC8,0.0480*%
%ADD17C,0.0570*%
%ADD18C,0.0787*%
%ADD19C,0.0600*%
%ADD20C,0.0660*%
%ADD21OC8,0.0591*%
%ADD22C,0.0480*%
%ADD23R,0.0480X0.0480*%
%ADD24C,0.0591*%
%ADD25C,0.0780*%
%ADD26R,0.1502X0.1502*%
%ADD27OC8,0.0540*%
%ADD28C,0.0500*%
%ADD29C,0.0240*%
%ADD30R,0.0356X0.0356*%
%ADD31C,0.0320*%
D10*
X003260Y001095D02*
X003260Y025966D01*
X042260Y025970D01*
X042260Y001095D01*
X003260Y001095D01*
X004260Y002595D02*
X005260Y002595D01*
X008260Y002595D01*
X008260Y003095D01*
X009260Y004095D01*
X009260Y005595D01*
X008260Y005595D02*
X009260Y006595D01*
X008260Y006595D02*
X007760Y006095D01*
X007760Y005095D01*
X007260Y004595D01*
X006760Y005095D02*
X007260Y005595D01*
X007260Y006595D01*
X007260Y007095D01*
X007510Y007345D01*
X012885Y007345D01*
X013760Y006595D01*
X014510Y007095D02*
X015510Y008095D01*
X019760Y008095D01*
X020260Y008595D01*
X028783Y008595D01*
X029760Y009595D02*
X030260Y009095D01*
X030260Y008595D01*
X029760Y009595D02*
X025260Y009595D01*
X024260Y010095D02*
X023760Y010095D01*
X022260Y011595D01*
X022260Y014595D01*
X019760Y017095D01*
X018760Y017095D01*
X017760Y017095D01*
X017260Y017095D02*
X011260Y023095D01*
X011260Y023595D01*
X011760Y023095D02*
X016760Y018095D01*
X017760Y018095D01*
X018760Y018095D01*
X017260Y017095D02*
X017260Y015595D01*
X017760Y015095D01*
X018760Y015095D01*
X018760Y016095D02*
X017760Y016095D01*
X018760Y016095D02*
X019760Y016095D01*
X021260Y014595D01*
X021260Y011595D01*
X023760Y009095D01*
X024260Y009095D01*
X024260Y008095D02*
X020760Y008095D01*
X020760Y007470D02*
X022885Y007470D01*
X023260Y007095D01*
X024260Y007095D01*
X022260Y006595D02*
X022260Y005595D01*
X020260Y005595D02*
X020260Y006595D01*
X020260Y007595D01*
X019760Y008095D01*
X020260Y008595D02*
X020260Y009595D01*
X019260Y009595D02*
X019260Y009095D01*
X018760Y008595D01*
X016260Y008595D01*
X015760Y009095D01*
X015760Y010095D01*
X015260Y010595D01*
X014760Y010595D01*
X014760Y011595D01*
X013760Y012595D01*
X013760Y013595D01*
X014260Y014095D02*
X014760Y013595D01*
X014260Y014095D02*
X009760Y014095D01*
X009260Y013595D01*
X009260Y012595D01*
X008260Y011595D01*
X008260Y010595D01*
X008260Y009595D01*
X007260Y009595D02*
X007260Y010595D01*
X007260Y011595D01*
X008260Y012595D01*
X008260Y013595D01*
X010760Y013095D02*
X010760Y012095D01*
X011260Y011595D01*
X011260Y009595D01*
X010760Y009095D02*
X010760Y011095D01*
X010260Y010595D01*
X009260Y010595D01*
X007260Y010595D02*
X006260Y010595D01*
X004760Y010595D01*
X004760Y009595D01*
X005260Y009095D01*
X005260Y005595D01*
X004260Y005595D01*
X004760Y006595D02*
X004260Y007095D01*
X004260Y011095D01*
X004760Y011595D01*
X004760Y015095D02*
X004760Y016095D01*
X004260Y016595D01*
X004260Y021595D01*
X005760Y023095D01*
X005760Y024595D01*
X006190Y025025D01*
X007380Y025025D01*
X007690Y025025D01*
X007760Y025095D01*
X014760Y025095D01*
X015260Y024595D01*
X016260Y025595D01*
X027760Y025595D01*
X028760Y024595D01*
X028760Y023595D01*
X028260Y023095D01*
X028760Y022595D01*
X028260Y023095D02*
X027260Y023095D01*
X027260Y024079D02*
X027260Y024595D01*
X026760Y025095D01*
X025760Y025095D01*
X024760Y025095D01*
X024760Y022095D02*
X025760Y022095D01*
X026260Y021595D01*
X029260Y021595D01*
X030260Y022595D01*
X030260Y023595D01*
X030760Y024095D02*
X030760Y022595D01*
X029260Y021095D01*
X025760Y021095D01*
X024760Y021095D01*
X024760Y020095D02*
X025760Y020095D01*
X028760Y020095D01*
X031260Y022595D01*
X031260Y023595D01*
X031760Y024095D02*
X031760Y022595D01*
X028260Y019095D01*
X025760Y019095D01*
X024760Y019095D01*
X024760Y018095D02*
X025760Y018095D01*
X027760Y018095D01*
X032260Y022595D01*
X032260Y023595D01*
X032760Y024095D02*
X032760Y022595D01*
X027260Y017095D01*
X025760Y017095D01*
X024760Y017095D01*
X024760Y016095D02*
X025760Y016095D01*
X026760Y016095D01*
X030760Y020095D01*
X032760Y020095D01*
X033260Y020595D01*
X033260Y023595D01*
X033760Y024095D02*
X033260Y024595D01*
X033760Y024095D02*
X033760Y020095D01*
X033260Y019595D01*
X031260Y019595D01*
X026760Y015095D01*
X025760Y015095D01*
X024760Y015095D01*
X024260Y014595D02*
X023010Y014595D01*
X022635Y014970D01*
X022760Y014095D02*
X024260Y012595D01*
X024760Y012095D02*
X025760Y012095D01*
X025760Y013095D02*
X024760Y013095D01*
X025760Y013095D02*
X026260Y013095D01*
X031760Y018595D01*
X034260Y018595D01*
X034760Y019095D01*
X034760Y024095D01*
X034260Y024595D01*
X034260Y023595D02*
X034260Y019595D01*
X033760Y019095D01*
X031760Y019095D01*
X026760Y014095D01*
X025760Y014095D01*
X024760Y014095D01*
X023260Y011595D02*
X024010Y010845D01*
X028510Y010845D01*
X029260Y010095D01*
X031736Y008595D02*
X031736Y006619D01*
X031760Y006595D01*
X029760Y004595D01*
X025760Y004595D01*
X025260Y004095D01*
X024260Y004095D01*
X020760Y004095D01*
X020260Y003595D02*
X019260Y004595D01*
X019260Y005595D01*
X019260Y006595D01*
X017260Y006595D02*
X017260Y003095D01*
X018260Y002095D01*
X023760Y002095D01*
X024260Y002595D01*
X024260Y003095D01*
X025260Y003595D02*
X025760Y004095D01*
X027260Y004095D01*
X028260Y004095D01*
X030260Y002095D01*
X035760Y002095D01*
X036760Y003095D01*
X036760Y004095D01*
X037760Y004095D02*
X037760Y004595D01*
X037260Y005095D01*
X035260Y005095D01*
X034760Y004595D01*
X034760Y004095D01*
X032760Y005595D02*
X032760Y007595D01*
X033260Y008095D01*
X033260Y009095D01*
X035260Y009095D02*
X035260Y010595D01*
X034260Y011595D01*
X034260Y012595D02*
X034260Y013595D01*
X032760Y015095D01*
X032760Y016595D01*
X032760Y017595D02*
X033260Y018095D01*
X035244Y018095D01*
X035260Y018079D01*
X035260Y017095D02*
X036260Y017095D01*
X037760Y017095D01*
X039690Y019025D01*
X039950Y019025D01*
X036260Y017095D02*
X038140Y015215D01*
X038140Y015165D01*
X038260Y015045D01*
X038260Y014095D01*
X039760Y012595D02*
X039760Y011595D01*
X036510Y008345D01*
X035760Y008345D01*
X036760Y007095D02*
X038010Y007095D01*
X038510Y006595D01*
X041260Y006595D01*
X040260Y007095D02*
X039760Y007595D01*
X039760Y008095D01*
X039260Y008595D01*
X038760Y008595D01*
X032760Y005595D02*
X031760Y004595D01*
X031010Y006845D02*
X029260Y005095D01*
X027260Y005095D01*
X025260Y003595D02*
X023260Y003595D01*
X022260Y002595D01*
X020260Y002595D02*
X020260Y003595D01*
X017260Y003095D02*
X016760Y002595D01*
X014260Y002595D01*
X014260Y001595D02*
X026260Y001595D01*
X027260Y002595D01*
X027260Y003095D01*
X031010Y006845D02*
X031010Y015220D01*
X022260Y010095D02*
X022260Y009595D01*
X022260Y010095D02*
X021760Y010595D01*
X016260Y010595D01*
X016760Y011095D02*
X020760Y011095D01*
X018760Y012095D02*
X017760Y012095D01*
X016760Y011095D02*
X015760Y012095D01*
X015260Y012095D01*
X013760Y010595D02*
X014510Y009845D01*
X014510Y009220D01*
X015510Y008095D01*
X014510Y007095D02*
X014510Y005845D01*
X014260Y005595D01*
X012260Y005595D01*
X011260Y004595D01*
X011260Y003595D01*
X010260Y002595D01*
X009260Y002595D01*
X007760Y003595D02*
X008260Y004095D01*
X008260Y005595D01*
X006760Y005095D02*
X006760Y004095D01*
X006260Y003595D01*
X007260Y003595D02*
X007760Y003595D01*
X006260Y004595D02*
X006260Y006595D01*
X010760Y009095D02*
X011010Y008845D01*
X013010Y008845D01*
X013760Y009595D01*
X013635Y008845D02*
X013260Y008470D01*
X011010Y008470D01*
X012260Y009595D02*
X012260Y010595D01*
X010760Y013095D02*
X011260Y013595D01*
X012260Y013595D01*
X017760Y013095D02*
X018760Y013095D01*
X018760Y014095D02*
X017760Y014095D01*
X014760Y018095D02*
X013260Y018095D01*
X013260Y019095D02*
X012760Y019095D01*
X009260Y022595D01*
X007000Y022595D01*
X005570Y021165D01*
X009760Y020595D02*
X010260Y020095D01*
X010260Y019095D01*
X013260Y023095D02*
X015260Y021095D01*
X017760Y021095D01*
X018760Y021095D01*
X018760Y022095D02*
X017760Y022095D01*
X016260Y022095D01*
X015760Y021595D01*
X015260Y021595D01*
X013760Y023095D01*
X013760Y024095D01*
X013260Y024595D01*
X012760Y024095D02*
X012760Y023095D01*
X015760Y020095D01*
X017760Y020095D01*
X018760Y020095D01*
X018760Y019095D02*
X017760Y019095D01*
X016260Y019095D01*
X012260Y023095D01*
X012260Y023595D01*
X012760Y024095D02*
X012260Y024595D01*
X011760Y024095D02*
X011760Y023095D01*
X011760Y024095D02*
X011260Y024595D01*
X013260Y023595D02*
X013260Y023095D01*
X014260Y023095D02*
X014260Y023595D01*
X014260Y023095D02*
X015260Y022095D01*
X015760Y022095D01*
X016760Y023095D01*
X017760Y023095D01*
X018760Y023095D01*
X018760Y024095D02*
X017760Y024095D01*
X017260Y024095D01*
X015760Y022595D01*
X015260Y022595D01*
X014760Y023095D01*
X014760Y024095D01*
X014260Y024595D01*
X030260Y024595D02*
X030760Y024095D01*
X031260Y024595D02*
X031760Y024095D01*
X032260Y024595D02*
X032760Y024095D01*
X035760Y021095D02*
X038260Y023595D01*
X038520Y023595D01*
X039950Y025025D01*
X040260Y004095D02*
X039760Y003595D01*
X038260Y003595D01*
X037760Y004095D01*
X014260Y001595D02*
X012260Y003595D01*
D11*
X015630Y003470D02*
X015632Y003520D01*
X015638Y003570D01*
X015648Y003619D01*
X015662Y003667D01*
X015679Y003714D01*
X015700Y003759D01*
X015725Y003803D01*
X015753Y003844D01*
X015785Y003883D01*
X015819Y003920D01*
X015856Y003954D01*
X015896Y003984D01*
X015938Y004011D01*
X015982Y004035D01*
X016028Y004056D01*
X016075Y004072D01*
X016123Y004085D01*
X016173Y004094D01*
X016222Y004099D01*
X016273Y004100D01*
X016323Y004097D01*
X016372Y004090D01*
X016421Y004079D01*
X016469Y004064D01*
X016515Y004046D01*
X016560Y004024D01*
X016603Y003998D01*
X016644Y003969D01*
X016683Y003937D01*
X016719Y003902D01*
X016751Y003864D01*
X016781Y003824D01*
X016808Y003781D01*
X016831Y003737D01*
X016850Y003691D01*
X016866Y003643D01*
X016878Y003594D01*
X016886Y003545D01*
X016890Y003495D01*
X016890Y003445D01*
X016886Y003395D01*
X016878Y003346D01*
X016866Y003297D01*
X016850Y003249D01*
X016831Y003203D01*
X016808Y003159D01*
X016781Y003116D01*
X016751Y003076D01*
X016719Y003038D01*
X016683Y003003D01*
X016644Y002971D01*
X016603Y002942D01*
X016560Y002916D01*
X016515Y002894D01*
X016469Y002876D01*
X016421Y002861D01*
X016372Y002850D01*
X016323Y002843D01*
X016273Y002840D01*
X016222Y002841D01*
X016173Y002846D01*
X016123Y002855D01*
X016075Y002868D01*
X016028Y002884D01*
X015982Y002905D01*
X015938Y002929D01*
X015896Y002956D01*
X015856Y002986D01*
X015819Y003020D01*
X015785Y003057D01*
X015753Y003096D01*
X015725Y003137D01*
X015700Y003181D01*
X015679Y003226D01*
X015662Y003273D01*
X015648Y003321D01*
X015638Y003370D01*
X015632Y003420D01*
X015630Y003470D01*
X015505Y016970D02*
X015507Y017020D01*
X015513Y017070D01*
X015523Y017119D01*
X015537Y017167D01*
X015554Y017214D01*
X015575Y017259D01*
X015600Y017303D01*
X015628Y017344D01*
X015660Y017383D01*
X015694Y017420D01*
X015731Y017454D01*
X015771Y017484D01*
X015813Y017511D01*
X015857Y017535D01*
X015903Y017556D01*
X015950Y017572D01*
X015998Y017585D01*
X016048Y017594D01*
X016097Y017599D01*
X016148Y017600D01*
X016198Y017597D01*
X016247Y017590D01*
X016296Y017579D01*
X016344Y017564D01*
X016390Y017546D01*
X016435Y017524D01*
X016478Y017498D01*
X016519Y017469D01*
X016558Y017437D01*
X016594Y017402D01*
X016626Y017364D01*
X016656Y017324D01*
X016683Y017281D01*
X016706Y017237D01*
X016725Y017191D01*
X016741Y017143D01*
X016753Y017094D01*
X016761Y017045D01*
X016765Y016995D01*
X016765Y016945D01*
X016761Y016895D01*
X016753Y016846D01*
X016741Y016797D01*
X016725Y016749D01*
X016706Y016703D01*
X016683Y016659D01*
X016656Y016616D01*
X016626Y016576D01*
X016594Y016538D01*
X016558Y016503D01*
X016519Y016471D01*
X016478Y016442D01*
X016435Y016416D01*
X016390Y016394D01*
X016344Y016376D01*
X016296Y016361D01*
X016247Y016350D01*
X016198Y016343D01*
X016148Y016340D01*
X016097Y016341D01*
X016048Y016346D01*
X015998Y016355D01*
X015950Y016368D01*
X015903Y016384D01*
X015857Y016405D01*
X015813Y016429D01*
X015771Y016456D01*
X015731Y016486D01*
X015694Y016520D01*
X015660Y016557D01*
X015628Y016596D01*
X015600Y016637D01*
X015575Y016681D01*
X015554Y016726D01*
X015537Y016773D01*
X015523Y016821D01*
X015513Y016870D01*
X015507Y016920D01*
X015505Y016970D01*
X040130Y002595D02*
X040132Y002645D01*
X040138Y002695D01*
X040148Y002744D01*
X040162Y002792D01*
X040179Y002839D01*
X040200Y002884D01*
X040225Y002928D01*
X040253Y002969D01*
X040285Y003008D01*
X040319Y003045D01*
X040356Y003079D01*
X040396Y003109D01*
X040438Y003136D01*
X040482Y003160D01*
X040528Y003181D01*
X040575Y003197D01*
X040623Y003210D01*
X040673Y003219D01*
X040722Y003224D01*
X040773Y003225D01*
X040823Y003222D01*
X040872Y003215D01*
X040921Y003204D01*
X040969Y003189D01*
X041015Y003171D01*
X041060Y003149D01*
X041103Y003123D01*
X041144Y003094D01*
X041183Y003062D01*
X041219Y003027D01*
X041251Y002989D01*
X041281Y002949D01*
X041308Y002906D01*
X041331Y002862D01*
X041350Y002816D01*
X041366Y002768D01*
X041378Y002719D01*
X041386Y002670D01*
X041390Y002620D01*
X041390Y002570D01*
X041386Y002520D01*
X041378Y002471D01*
X041366Y002422D01*
X041350Y002374D01*
X041331Y002328D01*
X041308Y002284D01*
X041281Y002241D01*
X041251Y002201D01*
X041219Y002163D01*
X041183Y002128D01*
X041144Y002096D01*
X041103Y002067D01*
X041060Y002041D01*
X041015Y002019D01*
X040969Y002001D01*
X040921Y001986D01*
X040872Y001975D01*
X040823Y001968D01*
X040773Y001965D01*
X040722Y001966D01*
X040673Y001971D01*
X040623Y001980D01*
X040575Y001993D01*
X040528Y002009D01*
X040482Y002030D01*
X040438Y002054D01*
X040396Y002081D01*
X040356Y002111D01*
X040319Y002145D01*
X040285Y002182D01*
X040253Y002221D01*
X040225Y002262D01*
X040200Y002306D01*
X040179Y002351D01*
X040162Y002398D01*
X040148Y002446D01*
X040138Y002495D01*
X040132Y002545D01*
X040130Y002595D01*
D12*
X041230Y017175D03*
X039950Y019025D03*
X037000Y018815D03*
X041230Y023175D03*
X039950Y025025D03*
X037000Y024815D03*
X008520Y021375D03*
X005570Y021165D03*
X004290Y023015D03*
D13*
X006830Y024035D03*
X007380Y025025D03*
X038140Y021165D03*
X038690Y022155D03*
X038690Y016155D03*
X038140Y015165D03*
D14*
X032760Y017595D03*
X012260Y003595D03*
D15*
X012260Y004595D03*
X032760Y016595D03*
D16*
X038260Y014095D03*
X041260Y014095D03*
X036260Y009095D03*
X035260Y009095D03*
X035760Y008345D03*
X038510Y006595D03*
X040260Y007095D03*
X038510Y004595D03*
X040260Y004095D03*
X022260Y002595D03*
X020260Y002595D03*
X019260Y002595D03*
X019260Y005595D03*
X020260Y005595D03*
X022260Y005595D03*
X016260Y010595D03*
X014760Y010595D03*
X013760Y010595D03*
X013760Y009595D03*
X012260Y010595D03*
X010760Y011095D03*
X009260Y010595D03*
X008260Y010595D03*
X007260Y010595D03*
X006260Y010595D03*
X004760Y010595D03*
X004760Y011595D03*
X004760Y009595D03*
X004760Y006595D03*
X006260Y004595D03*
X007260Y004595D03*
X008260Y005595D03*
X009260Y005595D03*
X010260Y005595D03*
X007260Y003595D03*
X006260Y003595D03*
X008260Y002595D03*
X009260Y002595D03*
X010260Y002595D03*
X014260Y002595D03*
X014260Y005595D03*
X013760Y006595D03*
X010760Y013095D03*
X012260Y013595D03*
X013760Y013595D03*
X014760Y013595D03*
X016260Y013595D03*
X014760Y015095D03*
X014760Y018095D03*
X012760Y020595D03*
X009760Y020595D03*
X009260Y013595D03*
X008260Y013595D03*
X007260Y013595D03*
X006260Y013595D03*
X032760Y021095D03*
X035760Y021095D03*
D17*
X024760Y021095D03*
X024760Y022095D03*
X024760Y023095D03*
X024760Y024095D03*
X024760Y025095D03*
X018760Y025095D03*
X018760Y024095D03*
X018760Y023095D03*
X018760Y022095D03*
X018760Y021095D03*
X018760Y020095D03*
X018760Y019095D03*
X018760Y018095D03*
X018760Y017095D03*
X018760Y016095D03*
X018760Y015095D03*
X018760Y014095D03*
X018760Y013095D03*
X018760Y012095D03*
X019760Y012095D03*
X020760Y012095D03*
X021760Y012095D03*
X022760Y012095D03*
X023760Y012095D03*
X024760Y012095D03*
X024760Y013095D03*
X024760Y014095D03*
X024760Y015095D03*
X024760Y016095D03*
X024760Y017095D03*
X024760Y018095D03*
X024760Y019095D03*
X024760Y020095D03*
D18*
X007480Y018489D02*
X007480Y017701D01*
X006653Y016205D02*
X005866Y016205D01*
X005078Y017701D02*
X005078Y018489D01*
D19*
X004760Y015395D02*
X004760Y014795D01*
X005760Y014795D02*
X005760Y015395D01*
X006760Y015395D02*
X006760Y014795D01*
D20*
X008760Y014595D03*
X008760Y018595D03*
D21*
X017760Y018095D03*
X017760Y017095D03*
X017760Y016095D03*
X017760Y015095D03*
X017760Y014095D03*
X017760Y013095D03*
X017760Y012095D03*
X025760Y012095D03*
X025760Y013095D03*
X025760Y014095D03*
X025760Y015095D03*
X025760Y016095D03*
X025760Y017095D03*
X025760Y018095D03*
X025760Y019095D03*
X025760Y020095D03*
X025760Y021095D03*
X025760Y022095D03*
X025760Y023095D03*
X025760Y024095D03*
X025760Y025095D03*
X017760Y025095D03*
X017760Y024095D03*
X017760Y023095D03*
X017760Y022095D03*
X017760Y021095D03*
X017760Y020095D03*
X017760Y019095D03*
D22*
X013740Y019095D02*
X013260Y019095D01*
X013260Y018095D02*
X013740Y018095D01*
X013740Y017095D02*
X013260Y017095D01*
X013260Y016095D02*
X013740Y016095D01*
X010260Y016095D02*
X009780Y016095D01*
X009780Y017095D02*
X010260Y017095D01*
X010260Y018095D02*
X009780Y018095D01*
X009780Y019095D02*
X010260Y019095D01*
X024020Y010095D02*
X024500Y010095D01*
X024500Y009095D02*
X024020Y009095D01*
X024020Y008095D02*
X024500Y008095D01*
X024500Y007095D02*
X024020Y007095D01*
X024020Y006095D02*
X024500Y006095D01*
X024500Y005095D02*
X024020Y005095D01*
X024020Y004095D02*
X024500Y004095D01*
X024500Y003095D02*
X024020Y003095D01*
X027020Y003095D02*
X027500Y003095D01*
X027500Y004095D02*
X027020Y004095D01*
X027020Y005095D02*
X027500Y005095D01*
X027500Y006095D02*
X027020Y006095D01*
X027020Y007095D02*
X027500Y007095D01*
X027500Y008095D02*
X027020Y008095D01*
X027020Y009095D02*
X027500Y009095D01*
X027500Y010095D02*
X027020Y010095D01*
X022260Y009835D02*
X022260Y009355D01*
X021260Y009355D02*
X021260Y009835D01*
X020260Y009835D02*
X020260Y009355D01*
X019260Y009355D02*
X019260Y009835D01*
X018260Y009835D02*
X018260Y009355D01*
X017260Y009355D02*
X017260Y009835D01*
X016260Y009835D02*
X016260Y009355D01*
X015260Y009355D02*
X015260Y009835D01*
X012260Y009835D02*
X012260Y009355D01*
X011260Y009355D02*
X011260Y009835D01*
X010260Y009835D02*
X010260Y009355D01*
X009260Y009355D02*
X009260Y009835D01*
X008260Y009835D02*
X008260Y009355D01*
X007260Y009355D02*
X007260Y009835D01*
X006260Y009835D02*
X006260Y009355D01*
X006260Y006835D02*
X006260Y006355D01*
X007260Y006355D02*
X007260Y006835D01*
X008260Y006835D02*
X008260Y006355D01*
X009260Y006355D02*
X009260Y006835D01*
X010260Y006835D02*
X010260Y006355D01*
X011260Y006355D02*
X011260Y006835D01*
X012260Y006835D02*
X012260Y006355D01*
X015260Y006355D02*
X015260Y006835D01*
X016260Y006835D02*
X016260Y006355D01*
X017260Y006355D02*
X017260Y006835D01*
X018260Y006835D02*
X018260Y006355D01*
X019260Y006355D02*
X019260Y006835D01*
X020260Y006835D02*
X020260Y006355D01*
X021260Y006355D02*
X021260Y006835D01*
X022260Y006835D02*
X022260Y006355D01*
X033760Y006855D02*
X033760Y007335D01*
X034760Y007335D02*
X034760Y006855D01*
X035760Y006855D02*
X035760Y007335D01*
X035760Y004335D02*
X035760Y003855D01*
X036760Y003855D02*
X036760Y004335D01*
X034760Y004335D02*
X034760Y003855D01*
X033760Y003855D02*
X033760Y004335D01*
X005260Y005355D02*
X005260Y005835D01*
X004260Y005835D02*
X004260Y005355D01*
X004260Y002835D02*
X004260Y002355D01*
X005260Y002355D02*
X005260Y002835D01*
D23*
X036760Y007095D03*
D24*
X031736Y008300D02*
X031736Y008890D01*
X030260Y008890D02*
X030260Y008300D01*
X028783Y008300D02*
X028783Y008890D01*
X034964Y016111D02*
X035555Y016111D01*
X035555Y017095D02*
X034964Y017095D01*
X034964Y018079D02*
X035555Y018079D01*
X027555Y022111D02*
X026964Y022111D01*
X026964Y023095D02*
X027555Y023095D01*
X027555Y024079D02*
X026964Y024079D01*
D25*
X039370Y012595D02*
X040150Y012595D01*
X040760Y008985D02*
X040760Y008205D01*
X038760Y008205D02*
X038760Y008985D01*
D26*
X032661Y012532D03*
X027858Y012532D03*
D27*
X030260Y023595D03*
X031260Y023595D03*
X032260Y023595D03*
X033260Y023595D03*
X034260Y023595D03*
X034260Y024595D03*
X033260Y024595D03*
X032260Y024595D03*
X031260Y024595D03*
X030260Y024595D03*
X015260Y024595D03*
X014260Y024595D03*
X013260Y024595D03*
X013260Y023595D03*
X014260Y023595D03*
X015260Y023595D03*
X012260Y023595D03*
X011260Y023595D03*
X011260Y024595D03*
X012260Y024595D03*
D28*
X034260Y013595D03*
X034260Y012595D03*
X034260Y011595D03*
X034260Y010595D03*
X037260Y010595D03*
X037260Y011595D03*
X037260Y012595D03*
X037260Y013595D03*
D29*
X037667Y013736D02*
X037992Y013736D01*
X038015Y013745D02*
X037965Y013724D01*
X037880Y013640D01*
X037647Y013407D01*
X037690Y013509D01*
X037690Y013681D01*
X037624Y013839D01*
X037503Y013960D01*
X037345Y014025D01*
X037174Y014025D01*
X037016Y013960D01*
X036895Y013839D01*
X036830Y013681D01*
X036830Y013509D01*
X036877Y013395D01*
X036700Y013395D01*
X036590Y013349D01*
X036505Y013265D01*
X035635Y012395D01*
X034642Y012395D01*
X034690Y012509D01*
X034690Y012681D01*
X034624Y012839D01*
X034520Y012943D01*
X034520Y013247D01*
X034624Y013351D01*
X034690Y013509D01*
X034690Y013681D01*
X034624Y013839D01*
X034503Y013960D01*
X034345Y014025D01*
X034197Y014025D01*
X033020Y015203D01*
X033020Y016167D01*
X033040Y016175D01*
X033179Y016315D01*
X033255Y016497D01*
X033255Y016693D01*
X033179Y016875D01*
X033040Y017015D01*
X032858Y017090D01*
X032661Y017090D01*
X032479Y017015D01*
X032340Y016875D01*
X032265Y016693D01*
X032265Y016497D01*
X032340Y016315D01*
X032479Y016175D01*
X032500Y016167D01*
X032500Y016029D01*
X032429Y016099D01*
X032118Y016411D01*
X032118Y016598D01*
X032012Y016703D01*
X031507Y016703D01*
X031401Y016598D01*
X031401Y016092D01*
X031507Y015987D01*
X031693Y015987D01*
X031960Y015721D01*
X031960Y015035D01*
X032005Y014925D01*
X033460Y013471D01*
X033460Y013463D01*
X031835Y013463D01*
X031730Y013358D01*
X031730Y011706D01*
X031835Y011601D01*
X033460Y011601D01*
X033460Y011035D01*
X033505Y010925D01*
X033830Y010601D01*
X033830Y010509D01*
X033895Y010351D01*
X033960Y010287D01*
X033960Y007707D01*
X033843Y007755D01*
X033676Y007755D01*
X033522Y007691D01*
X033403Y007573D01*
X033340Y007419D01*
X033340Y006771D01*
X033403Y006617D01*
X033522Y006499D01*
X033676Y006435D01*
X033843Y006435D01*
X033960Y006483D01*
X033960Y006219D01*
X032118Y004377D01*
X032118Y004585D01*
X032907Y005375D01*
X032980Y005448D01*
X033020Y005543D01*
X033020Y007487D01*
X033407Y007875D01*
X033480Y007948D01*
X033520Y008043D01*
X033520Y008744D01*
X033618Y008842D01*
X033618Y009348D01*
X033512Y009453D01*
X033007Y009453D01*
X032901Y009348D01*
X032901Y008842D01*
X033000Y008744D01*
X033000Y008203D01*
X032539Y007742D01*
X032500Y007647D01*
X032500Y005703D01*
X031750Y004953D01*
X031507Y004953D01*
X031401Y004848D01*
X031401Y004342D01*
X031507Y004237D01*
X031977Y004237D01*
X030693Y002953D01*
X030507Y002953D01*
X030401Y002848D01*
X030401Y002355D01*
X030367Y002355D01*
X028407Y004315D01*
X028360Y004335D01*
X029811Y004335D01*
X029907Y004375D01*
X029980Y004448D01*
X031980Y006448D01*
X032020Y006543D01*
X032020Y006647D01*
X031996Y006704D01*
X031996Y007893D01*
X032005Y007897D01*
X032139Y008031D01*
X032211Y008205D01*
X032211Y008985D01*
X032139Y009159D01*
X032005Y009293D01*
X031830Y009366D01*
X031641Y009366D01*
X031467Y009293D01*
X031333Y009159D01*
X031270Y009006D01*
X031270Y014869D01*
X031368Y014967D01*
X031368Y015473D01*
X031262Y015578D01*
X030757Y015578D01*
X030651Y015473D01*
X030651Y014967D01*
X030750Y014869D01*
X030750Y006953D01*
X029152Y005355D01*
X027833Y005355D01*
X027737Y005451D01*
X027583Y005515D01*
X026936Y005515D01*
X026782Y005451D01*
X026663Y005333D01*
X026600Y005179D01*
X026600Y005011D01*
X026663Y004857D01*
X026666Y004855D01*
X025708Y004855D01*
X025612Y004815D01*
X025152Y004355D01*
X024833Y004355D01*
X024737Y004451D01*
X024583Y004515D01*
X023936Y004515D01*
X023782Y004451D01*
X023686Y004355D01*
X021110Y004355D01*
X021012Y004453D01*
X020507Y004453D01*
X020401Y004348D01*
X020401Y003842D01*
X020507Y003737D01*
X021012Y003737D01*
X021110Y003835D01*
X023160Y003835D01*
X023112Y003815D01*
X023039Y003742D01*
X022312Y003015D01*
X022086Y003015D01*
X021840Y002769D01*
X021840Y002421D01*
X021906Y002355D01*
X020613Y002355D01*
X020680Y002421D01*
X020680Y002769D01*
X020520Y002929D01*
X020520Y003647D01*
X020480Y003742D01*
X019520Y004703D01*
X019520Y005261D01*
X019680Y005421D01*
X019680Y005769D01*
X019520Y005929D01*
X019520Y006021D01*
X019616Y006117D01*
X019680Y006271D01*
X019680Y006919D01*
X019616Y007073D01*
X019497Y007191D01*
X019343Y007255D01*
X019176Y007255D01*
X019022Y007191D01*
X018903Y007073D01*
X018840Y006919D01*
X018840Y006271D01*
X018903Y006117D01*
X019000Y006021D01*
X019000Y005929D01*
X018840Y005769D01*
X018840Y005421D01*
X019000Y005261D01*
X019000Y004543D01*
X019039Y004448D01*
X019112Y004375D01*
X020000Y003487D01*
X020000Y002929D01*
X019840Y002769D01*
X019840Y002421D01*
X019906Y002355D01*
X019613Y002355D01*
X019680Y002421D01*
X019680Y002769D01*
X019433Y003015D01*
X019086Y003015D01*
X018840Y002769D01*
X018840Y002421D01*
X018906Y002355D01*
X018367Y002355D01*
X017520Y003203D01*
X017520Y006021D01*
X017616Y006117D01*
X017680Y006271D01*
X017680Y006919D01*
X017616Y007073D01*
X017497Y007191D01*
X017343Y007255D01*
X017176Y007255D01*
X017022Y007191D01*
X016903Y007073D01*
X016840Y006919D01*
X016840Y006271D01*
X016903Y006117D01*
X017000Y006021D01*
X017000Y003904D01*
X016980Y003951D01*
X016741Y004191D01*
X016429Y004320D01*
X016090Y004320D01*
X015778Y004191D01*
X015539Y003951D01*
X015410Y003639D01*
X015410Y003301D01*
X015539Y002989D01*
X015673Y002855D01*
X014593Y002855D01*
X014433Y003015D01*
X014086Y003015D01*
X013840Y002769D01*
X013840Y002421D01*
X014086Y002175D01*
X014433Y002175D01*
X014593Y002335D01*
X016811Y002335D01*
X016907Y002375D01*
X017260Y002727D01*
X018039Y001948D01*
X018112Y001875D01*
X018160Y001855D01*
X014367Y001855D01*
X012755Y003468D01*
X012755Y003800D01*
X012465Y004090D01*
X012054Y004090D01*
X011765Y003800D01*
X011765Y003390D01*
X012054Y003100D01*
X012387Y003100D01*
X014039Y001448D01*
X014092Y001395D01*
X003560Y001395D01*
X003560Y025666D01*
X015964Y025667D01*
X015342Y025045D01*
X015177Y025045D01*
X014980Y025242D01*
X014907Y025315D01*
X014811Y025355D01*
X007917Y025355D01*
X007907Y025378D01*
X007732Y025553D01*
X007503Y025647D01*
X007256Y025647D01*
X007027Y025553D01*
X006852Y025378D01*
X006813Y025285D01*
X006138Y025285D01*
X006042Y025245D01*
X005539Y024742D01*
X005500Y024647D01*
X005500Y023203D01*
X004112Y021815D01*
X004039Y021742D01*
X004000Y021647D01*
X004000Y016543D01*
X004039Y016448D01*
X004500Y015987D01*
X004500Y015807D01*
X004488Y015802D01*
X004353Y015667D01*
X004280Y015490D01*
X004280Y014700D01*
X004353Y014523D01*
X004488Y014388D01*
X004664Y014315D01*
X004855Y014315D01*
X005031Y014388D01*
X005166Y014523D01*
X005240Y014700D01*
X005240Y015490D01*
X005166Y015667D01*
X005031Y015802D01*
X005020Y015807D01*
X005020Y016147D01*
X004980Y016242D01*
X004907Y016315D01*
X004520Y016703D01*
X004520Y017446D01*
X004554Y017380D01*
X004610Y017301D01*
X004679Y017233D01*
X004757Y017176D01*
X004843Y017133D01*
X004935Y017103D01*
X005030Y017088D01*
X005078Y017088D01*
X005078Y018095D01*
X005078Y019102D01*
X005030Y019102D01*
X004935Y019087D01*
X004843Y019057D01*
X004757Y019014D01*
X004679Y018957D01*
X004610Y018888D01*
X004554Y018810D01*
X004520Y018744D01*
X004520Y018744D01*
X004520Y021487D01*
X005980Y022948D01*
X006020Y023043D01*
X006020Y024487D01*
X006297Y024765D01*
X006813Y024765D01*
X006852Y024672D01*
X006867Y024657D01*
X006706Y024657D01*
X006477Y024563D01*
X006302Y024388D01*
X006207Y024159D01*
X006207Y023911D01*
X006302Y023682D01*
X006477Y023507D01*
X006706Y023413D01*
X006953Y023413D01*
X007182Y023507D01*
X007357Y023682D01*
X007452Y023911D01*
X007452Y024159D01*
X007357Y024388D01*
X007342Y024403D01*
X007503Y024403D01*
X007732Y024497D01*
X007907Y024672D01*
X007975Y024835D01*
X010863Y024835D01*
X010810Y024781D01*
X010810Y024409D01*
X011073Y024145D01*
X011342Y024145D01*
X011442Y024045D01*
X011073Y024045D01*
X010810Y023781D01*
X010810Y023409D01*
X011000Y023219D01*
X011000Y023043D01*
X011039Y022948D01*
X011112Y022875D01*
X016167Y017820D01*
X015965Y017820D01*
X015653Y017691D01*
X015414Y017451D01*
X015285Y017139D01*
X015285Y016895D01*
X014111Y016895D01*
X014160Y017011D01*
X014160Y017179D01*
X014096Y017333D01*
X013977Y017451D01*
X013823Y017515D01*
X013176Y017515D01*
X013022Y017451D01*
X012903Y017333D01*
X012840Y017179D01*
X012840Y017011D01*
X012888Y016895D01*
X012884Y016895D01*
X011514Y018265D01*
X011429Y018349D01*
X011319Y018395D01*
X010553Y018395D01*
X010497Y018451D01*
X010343Y018515D01*
X009696Y018515D01*
X009542Y018451D01*
X009423Y018333D01*
X009360Y018179D01*
X009360Y018011D01*
X009423Y017857D01*
X009542Y017739D01*
X009696Y017675D01*
X010343Y017675D01*
X010497Y017739D01*
X010553Y017795D01*
X011135Y017795D01*
X012590Y016341D01*
X012700Y016295D01*
X012888Y016295D01*
X012840Y016179D01*
X012840Y016011D01*
X012903Y015857D01*
X013022Y015739D01*
X013176Y015675D01*
X013823Y015675D01*
X013977Y015739D01*
X014096Y015857D01*
X014160Y016011D01*
X014160Y016179D01*
X014111Y016295D01*
X015135Y016295D01*
X017090Y014341D01*
X017200Y014295D01*
X017287Y014295D01*
X017284Y014292D01*
X017284Y013898D01*
X017563Y013620D01*
X017956Y013620D01*
X018172Y013835D01*
X018364Y013835D01*
X018365Y013832D01*
X018496Y013701D01*
X018667Y013630D01*
X018852Y013630D01*
X019023Y013701D01*
X019154Y013832D01*
X019225Y014003D01*
X019225Y014187D01*
X019180Y014295D01*
X019635Y014295D01*
X020460Y013471D01*
X020460Y012453D01*
X020365Y012358D01*
X020295Y012187D01*
X020295Y012003D01*
X020365Y011832D01*
X020496Y011701D01*
X020667Y011630D01*
X020852Y011630D01*
X021000Y011691D01*
X021000Y011543D01*
X021039Y011448D01*
X021112Y011375D01*
X021632Y010855D01*
X021118Y010855D01*
X021118Y011348D01*
X021012Y011453D01*
X020507Y011453D01*
X020409Y011355D01*
X016867Y011355D01*
X015907Y012315D01*
X015811Y012355D01*
X015610Y012355D01*
X015512Y012453D01*
X015007Y012453D01*
X014901Y012348D01*
X014901Y011842D01*
X015007Y011737D01*
X015512Y011737D01*
X015610Y011835D01*
X015652Y011835D01*
X016539Y010948D01*
X016612Y010875D01*
X016660Y010855D01*
X016593Y010855D01*
X016433Y011015D01*
X016086Y011015D01*
X015840Y010769D01*
X015840Y010421D01*
X016055Y010205D01*
X016022Y010191D01*
X016007Y010177D01*
X015980Y010242D01*
X015907Y010315D01*
X015480Y010742D01*
X015480Y010742D01*
X015407Y010815D01*
X015311Y010855D01*
X015093Y010855D01*
X015020Y010929D01*
X015020Y011647D01*
X014980Y011742D01*
X014020Y012703D01*
X014020Y013261D01*
X014180Y013421D01*
X014180Y013769D01*
X014113Y013835D01*
X014152Y013835D01*
X014340Y013647D01*
X014340Y013421D01*
X014586Y013175D01*
X014933Y013175D01*
X015180Y013421D01*
X015180Y013769D01*
X014933Y014015D01*
X014707Y014015D01*
X014407Y014315D01*
X014311Y014355D01*
X009708Y014355D01*
X009612Y014315D01*
X009539Y014242D01*
X009312Y014015D01*
X009086Y014015D01*
X008840Y013769D01*
X008840Y013421D01*
X009000Y013261D01*
X009000Y012703D01*
X008112Y011815D01*
X008039Y011742D01*
X008000Y011647D01*
X008000Y010929D01*
X007840Y010769D01*
X007840Y010421D01*
X008000Y010261D01*
X008000Y010169D01*
X007903Y010073D01*
X007840Y009919D01*
X007840Y009920D02*
X007679Y009920D01*
X007680Y009919D02*
X007616Y010073D01*
X007520Y010169D01*
X007520Y010261D01*
X007680Y010421D01*
X007680Y010769D01*
X007520Y010929D01*
X007520Y011487D01*
X008407Y012375D01*
X008480Y012448D01*
X008520Y012543D01*
X008520Y013261D01*
X008680Y013421D01*
X008680Y013769D01*
X008433Y014015D01*
X008086Y014015D01*
X007840Y013769D01*
X007840Y013421D01*
X008000Y013261D01*
X008000Y012703D01*
X007039Y011742D01*
X007000Y011647D01*
X007000Y010929D01*
X006926Y010855D01*
X006593Y010855D01*
X006433Y011015D01*
X006086Y011015D01*
X005926Y010855D01*
X005093Y010855D01*
X004933Y011015D01*
X004586Y011015D01*
X004520Y010949D01*
X004520Y010987D01*
X004707Y011175D01*
X004933Y011175D01*
X005180Y011421D01*
X005180Y011769D01*
X004933Y012015D01*
X004586Y012015D01*
X004340Y011769D01*
X004340Y011543D01*
X004112Y011315D01*
X004039Y011242D01*
X004000Y011147D01*
X004000Y007043D01*
X004039Y006948D01*
X004340Y006647D01*
X004340Y006421D01*
X004586Y006175D01*
X004933Y006175D01*
X005000Y006241D01*
X005000Y006169D01*
X004903Y006073D01*
X004840Y005919D01*
X004840Y005855D01*
X004680Y005855D01*
X004680Y005919D01*
X004616Y006073D01*
X004497Y006191D01*
X004343Y006255D01*
X004176Y006255D01*
X004022Y006191D01*
X003903Y006073D01*
X003840Y005919D01*
X003840Y005271D01*
X003903Y005117D01*
X004022Y004999D01*
X004176Y004935D01*
X004343Y004935D01*
X004497Y004999D01*
X004616Y005117D01*
X004680Y005271D01*
X004680Y005335D01*
X004840Y005335D01*
X004840Y005271D01*
X004903Y005117D01*
X005022Y004999D01*
X005176Y004935D01*
X005343Y004935D01*
X005497Y004999D01*
X005616Y005117D01*
X005680Y005271D01*
X005680Y005919D01*
X005616Y006073D01*
X005520Y006169D01*
X005520Y009147D01*
X005480Y009242D01*
X005180Y009543D01*
X005180Y009769D01*
X005020Y009929D01*
X005020Y010261D01*
X005093Y010335D01*
X005926Y010335D01*
X006055Y010205D01*
X006022Y010191D01*
X005903Y010073D01*
X005840Y009919D01*
X005840Y009920D02*
X005029Y009920D01*
X005020Y010158D02*
X005989Y010158D01*
X005840Y009919D02*
X005840Y009271D01*
X005903Y009117D01*
X006022Y008999D01*
X006176Y008935D01*
X006343Y008935D01*
X006497Y008999D01*
X006616Y009117D01*
X006680Y009271D01*
X006680Y009919D01*
X006616Y010073D01*
X006497Y010191D01*
X006464Y010205D01*
X006593Y010335D01*
X006926Y010335D01*
X007000Y010261D01*
X007000Y010169D01*
X006903Y010073D01*
X006840Y009919D01*
X006840Y009920D02*
X006679Y009920D01*
X006840Y009919D02*
X006840Y009271D01*
X006903Y009117D01*
X007022Y008999D01*
X007176Y008935D01*
X007343Y008935D01*
X007497Y008999D01*
X007616Y009117D01*
X007680Y009271D01*
X007680Y009919D01*
X007840Y009919D02*
X007840Y009271D01*
X007903Y009117D01*
X008022Y008999D01*
X008176Y008935D01*
X008343Y008935D01*
X008497Y008999D01*
X008616Y009117D01*
X008680Y009271D01*
X008680Y009919D01*
X008616Y010073D01*
X008520Y010169D01*
X008520Y010261D01*
X008680Y010421D01*
X008680Y010769D01*
X008520Y010929D01*
X008520Y011487D01*
X009480Y012448D01*
X009520Y012543D01*
X009520Y013261D01*
X009680Y013421D01*
X009680Y013647D01*
X009867Y013835D01*
X011160Y013835D01*
X011112Y013815D01*
X010812Y013515D01*
X010586Y013515D01*
X010340Y013269D01*
X010340Y012921D01*
X010500Y012761D01*
X010500Y012043D01*
X010539Y011948D01*
X010612Y011875D01*
X011000Y011487D01*
X011000Y011449D01*
X010933Y011515D01*
X010586Y011515D01*
X010340Y011269D01*
X010340Y011043D01*
X010152Y010855D01*
X009593Y010855D01*
X009433Y011015D01*
X009086Y011015D01*
X008840Y010769D01*
X008840Y010421D01*
X009055Y010205D01*
X009022Y010191D01*
X008903Y010073D01*
X008840Y009919D01*
X008840Y009920D02*
X008679Y009920D01*
X008840Y009919D02*
X008840Y009271D01*
X008903Y009117D01*
X009022Y008999D01*
X009176Y008935D01*
X009343Y008935D01*
X009497Y008999D01*
X009616Y009117D01*
X009680Y009271D01*
X009680Y009919D01*
X009616Y010073D01*
X009497Y010191D01*
X009464Y010205D01*
X009593Y010335D01*
X010311Y010335D01*
X010407Y010375D01*
X010480Y010448D01*
X010500Y010467D01*
X010500Y010189D01*
X010497Y010191D01*
X010343Y010255D01*
X010176Y010255D01*
X010022Y010191D01*
X009903Y010073D01*
X009840Y009919D01*
X009840Y009920D02*
X009679Y009920D01*
X009840Y009919D02*
X009840Y009271D01*
X009903Y009117D01*
X010022Y008999D01*
X010176Y008935D01*
X010343Y008935D01*
X010497Y008999D01*
X010512Y009013D01*
X010539Y008948D01*
X010612Y008875D01*
X010708Y008779D01*
X010651Y008723D01*
X010651Y008217D01*
X010757Y008112D01*
X011166Y008112D01*
X011151Y008098D01*
X011151Y007605D01*
X007458Y007605D01*
X007362Y007565D01*
X007112Y007315D01*
X007039Y007242D01*
X007015Y007185D01*
X006903Y007073D01*
X006840Y006919D01*
X006840Y006271D01*
X006903Y006117D01*
X007000Y006021D01*
X007000Y005703D01*
X006539Y005242D01*
X006520Y005195D01*
X006520Y006021D01*
X006616Y006117D01*
X006680Y006271D01*
X006680Y006919D01*
X006616Y007073D01*
X006497Y007191D01*
X006343Y007255D01*
X006176Y007255D01*
X006022Y007191D01*
X005903Y007073D01*
X005840Y006919D01*
X005840Y006271D01*
X005903Y006117D01*
X006000Y006021D01*
X006000Y004929D01*
X005840Y004769D01*
X005840Y004421D01*
X006086Y004175D01*
X006433Y004175D01*
X006500Y004241D01*
X006500Y004203D01*
X006312Y004015D01*
X006086Y004015D01*
X005840Y003769D01*
X005840Y003421D01*
X006086Y003175D01*
X006433Y003175D01*
X006680Y003421D01*
X006680Y003647D01*
X006907Y003875D01*
X006980Y003948D01*
X007020Y004043D01*
X007020Y004241D01*
X007086Y004175D01*
X007433Y004175D01*
X007680Y004421D01*
X007680Y004647D01*
X007907Y004875D01*
X007980Y004948D01*
X008000Y004995D01*
X008000Y004203D01*
X007652Y003855D01*
X007593Y003855D01*
X007433Y004015D01*
X007086Y004015D01*
X006840Y003769D01*
X006840Y003421D01*
X007086Y003175D01*
X007433Y003175D01*
X007593Y003335D01*
X007811Y003335D01*
X007907Y003375D01*
X008407Y003875D01*
X008480Y003948D01*
X008520Y004043D01*
X008520Y005261D01*
X008680Y005421D01*
X008680Y005647D01*
X009028Y005996D01*
X009055Y005985D01*
X008840Y005769D01*
X008840Y005421D01*
X009000Y005261D01*
X009000Y004203D01*
X008039Y003242D01*
X008000Y003147D01*
X008000Y002929D01*
X007926Y002855D01*
X005680Y002855D01*
X005680Y002919D01*
X005616Y003073D01*
X005497Y003191D01*
X005343Y003255D01*
X005176Y003255D01*
X005022Y003191D01*
X004903Y003073D01*
X004840Y002919D01*
X004840Y002855D01*
X004680Y002855D01*
X004680Y002919D01*
X004616Y003073D01*
X004497Y003191D01*
X004343Y003255D01*
X004176Y003255D01*
X004022Y003191D01*
X003903Y003073D01*
X003840Y002919D01*
X003840Y002271D01*
X003903Y002117D01*
X004022Y001999D01*
X004176Y001935D01*
X004343Y001935D01*
X004497Y001999D01*
X004616Y002117D01*
X004680Y002271D01*
X004680Y002335D01*
X004840Y002335D01*
X004840Y002271D01*
X004903Y002117D01*
X005022Y001999D01*
X005176Y001935D01*
X005343Y001935D01*
X005497Y001999D01*
X005616Y002117D01*
X005680Y002271D01*
X005680Y002335D01*
X007926Y002335D01*
X008086Y002175D01*
X008433Y002175D01*
X008680Y002421D01*
X008680Y002769D01*
X008520Y002929D01*
X008520Y002987D01*
X009407Y003875D01*
X009480Y003948D01*
X009520Y004043D01*
X009520Y005261D01*
X009680Y005421D01*
X009680Y005769D01*
X009464Y005985D01*
X009497Y005999D01*
X009616Y006117D01*
X009680Y006271D01*
X009680Y006919D01*
X009616Y007073D01*
X009603Y007085D01*
X009916Y007085D01*
X009903Y007073D01*
X009840Y006919D01*
X009840Y006271D01*
X009903Y006117D01*
X010022Y005999D01*
X010055Y005985D01*
X009840Y005769D01*
X009840Y005421D01*
X010086Y005175D01*
X010433Y005175D01*
X010680Y005421D01*
X010680Y005769D01*
X010464Y005985D01*
X010497Y005999D01*
X010616Y006117D01*
X010680Y006271D01*
X010680Y006919D01*
X010616Y007073D01*
X010603Y007085D01*
X010916Y007085D01*
X010903Y007073D01*
X010840Y006919D01*
X010840Y006271D01*
X010903Y006117D01*
X011022Y005999D01*
X011176Y005935D01*
X011343Y005935D01*
X011497Y005999D01*
X011616Y006117D01*
X011680Y006271D01*
X011680Y006919D01*
X011616Y007073D01*
X011603Y007085D01*
X011916Y007085D01*
X011903Y007073D01*
X011840Y006919D01*
X011840Y006271D01*
X011903Y006117D01*
X012022Y005999D01*
X012176Y005935D01*
X012343Y005935D01*
X012497Y005999D01*
X012616Y006117D01*
X012680Y006271D01*
X012680Y006919D01*
X012616Y007073D01*
X012603Y007085D01*
X012788Y007085D01*
X013340Y006613D01*
X013340Y006421D01*
X013586Y006175D01*
X013933Y006175D01*
X014180Y006421D01*
X014180Y006769D01*
X013933Y007015D01*
X013669Y007015D01*
X013061Y007536D01*
X013052Y007545D01*
X013569Y007545D01*
X013679Y007591D01*
X013764Y007675D01*
X014201Y008112D01*
X014637Y008112D01*
X014743Y008217D01*
X014743Y008566D01*
X015152Y008105D01*
X014289Y007242D01*
X014250Y007147D01*
X014250Y006015D01*
X014086Y006015D01*
X013926Y005855D01*
X012208Y005855D01*
X012112Y005815D01*
X012039Y005742D01*
X011039Y004742D01*
X011000Y004647D01*
X011000Y003703D01*
X010312Y003015D01*
X010086Y003015D01*
X009926Y002855D01*
X009593Y002855D01*
X009433Y003015D01*
X009086Y003015D01*
X008840Y002769D01*
X008840Y002421D01*
X009086Y002175D01*
X009433Y002175D01*
X009593Y002335D01*
X009926Y002335D01*
X010086Y002175D01*
X010433Y002175D01*
X010680Y002421D01*
X010680Y002647D01*
X011407Y003375D01*
X011480Y003448D01*
X011520Y003543D01*
X011520Y004487D01*
X011792Y004760D01*
X011765Y004693D01*
X011765Y004497D01*
X011840Y004315D01*
X011979Y004175D01*
X012161Y004100D01*
X012358Y004100D01*
X012540Y004175D01*
X012679Y004315D01*
X012755Y004497D01*
X012755Y004693D01*
X012679Y004875D01*
X012540Y005015D01*
X012358Y005090D01*
X012161Y005090D01*
X012095Y005063D01*
X012367Y005335D01*
X013926Y005335D01*
X014086Y005175D01*
X014433Y005175D01*
X014680Y005421D01*
X014680Y005647D01*
X014730Y005698D01*
X014770Y005793D01*
X014770Y006987D01*
X015617Y007835D01*
X019652Y007835D01*
X020000Y007487D01*
X020000Y007169D01*
X019903Y007073D01*
X019840Y006919D01*
X019840Y006271D01*
X019903Y006117D01*
X020000Y006021D01*
X020000Y005929D01*
X019840Y005769D01*
X019840Y005421D01*
X020086Y005175D01*
X020433Y005175D01*
X020680Y005421D01*
X020680Y005769D01*
X020520Y005929D01*
X020520Y006021D01*
X020616Y006117D01*
X020680Y006271D01*
X020680Y006919D01*
X020616Y007073D01*
X020577Y007112D01*
X020942Y007112D01*
X020903Y007073D01*
X020840Y006919D01*
X020840Y006271D01*
X020903Y006117D01*
X021022Y005999D01*
X021176Y005935D01*
X021343Y005935D01*
X021497Y005999D01*
X021616Y006117D01*
X021680Y006271D01*
X021680Y006919D01*
X021616Y007073D01*
X021497Y007191D01*
X021452Y007210D01*
X022067Y007210D01*
X022022Y007191D01*
X021903Y007073D01*
X021840Y006919D01*
X021840Y006271D01*
X021903Y006117D01*
X022000Y006021D01*
X022000Y005929D01*
X021840Y005769D01*
X021840Y005421D01*
X022086Y005175D01*
X022433Y005175D01*
X022680Y005421D01*
X022680Y005769D01*
X022520Y005929D01*
X022520Y006021D01*
X022616Y006117D01*
X022680Y006271D01*
X022680Y006919D01*
X022616Y007073D01*
X022497Y007191D01*
X022452Y007210D01*
X022777Y007210D01*
X023112Y006875D01*
X023208Y006835D01*
X023686Y006835D01*
X023782Y006739D01*
X023936Y006675D01*
X024583Y006675D01*
X024737Y006739D01*
X024856Y006857D01*
X024920Y007011D01*
X024920Y007179D01*
X024856Y007333D01*
X024737Y007451D01*
X024583Y007515D01*
X023936Y007515D01*
X023782Y007451D01*
X023686Y007355D01*
X023367Y007355D01*
X023105Y007617D01*
X023032Y007690D01*
X022936Y007730D01*
X021110Y007730D01*
X021058Y007783D01*
X021110Y007835D01*
X023686Y007835D01*
X023782Y007739D01*
X023936Y007675D01*
X024583Y007675D01*
X024737Y007739D01*
X024856Y007857D01*
X024920Y008011D01*
X024920Y008179D01*
X024856Y008333D01*
X024853Y008335D01*
X026626Y008335D01*
X026593Y008272D01*
X026571Y008203D01*
X026560Y008131D01*
X026560Y008095D01*
X026560Y008059D01*
X026571Y007987D01*
X026593Y007918D01*
X026626Y007854D01*
X026669Y007795D01*
X026720Y007744D01*
X026778Y007702D01*
X026843Y007669D01*
X026912Y007646D01*
X026983Y007635D01*
X027260Y007635D01*
X027536Y007635D01*
X027607Y007646D01*
X027676Y007669D01*
X027741Y007702D01*
X027799Y007744D01*
X027850Y007795D01*
X027893Y007854D01*
X027926Y007918D01*
X027948Y007987D01*
X027960Y008059D01*
X027960Y008095D01*
X027960Y008131D01*
X027948Y008203D01*
X027926Y008272D01*
X027893Y008335D01*
X028308Y008335D01*
X028308Y008205D01*
X028380Y008031D01*
X028514Y007897D01*
X028689Y007824D01*
X028878Y007824D01*
X029052Y007897D01*
X029186Y008031D01*
X029258Y008205D01*
X029258Y008985D01*
X029186Y009159D01*
X029052Y009293D01*
X028951Y009335D01*
X029652Y009335D01*
X029848Y009139D01*
X029784Y008985D01*
X029784Y008205D01*
X029857Y008031D01*
X029990Y007897D01*
X030165Y007824D01*
X030354Y007824D01*
X030529Y007897D01*
X030662Y008031D01*
X030735Y008205D01*
X030735Y008985D01*
X030662Y009159D01*
X030529Y009293D01*
X030358Y009364D01*
X029907Y009815D01*
X029811Y009855D01*
X029618Y009855D01*
X029618Y010348D01*
X029512Y010453D01*
X029269Y010453D01*
X028657Y011065D01*
X028561Y011105D01*
X024117Y011105D01*
X023618Y011605D01*
X023618Y011650D01*
X023667Y011630D01*
X023852Y011630D01*
X024023Y011701D01*
X024154Y011832D01*
X024225Y012003D01*
X024225Y012187D01*
X024204Y012237D01*
X024315Y012237D01*
X024295Y012187D01*
X024295Y012003D01*
X024365Y011832D01*
X024496Y011701D01*
X024667Y011630D01*
X024852Y011630D01*
X025023Y011701D01*
X025154Y011832D01*
X025155Y011835D01*
X025347Y011835D01*
X025563Y011620D01*
X025956Y011620D01*
X026235Y011898D01*
X026235Y012292D01*
X025956Y012570D01*
X025563Y012570D01*
X025347Y012355D01*
X025155Y012355D01*
X025154Y012358D01*
X025023Y012489D01*
X024852Y012560D01*
X024667Y012560D01*
X024618Y012540D01*
X024618Y012650D01*
X024667Y012630D01*
X024852Y012630D01*
X025023Y012701D01*
X025154Y012832D01*
X025155Y012835D01*
X025347Y012835D01*
X025563Y012620D01*
X025956Y012620D01*
X026172Y012835D01*
X026311Y012835D01*
X026407Y012875D01*
X031867Y018335D01*
X033160Y018335D01*
X033112Y018315D01*
X032887Y018090D01*
X032554Y018090D01*
X032265Y017800D01*
X032265Y017390D01*
X032554Y017100D01*
X032965Y017100D01*
X033255Y017390D01*
X033255Y017722D01*
X033367Y017835D01*
X034551Y017835D01*
X034561Y017810D01*
X034695Y017676D01*
X034870Y017604D01*
X035649Y017604D01*
X035824Y017676D01*
X035958Y017810D01*
X036030Y017985D01*
X036030Y018174D01*
X035958Y018348D01*
X035824Y018482D01*
X035649Y018555D01*
X034870Y018555D01*
X034695Y018482D01*
X034568Y018355D01*
X034360Y018355D01*
X034407Y018375D01*
X034480Y018448D01*
X034907Y018875D01*
X034980Y018948D01*
X035020Y019043D01*
X035020Y024147D01*
X034980Y024242D01*
X034710Y024513D01*
X034710Y024781D01*
X034446Y025045D01*
X034073Y025045D01*
X033810Y024781D01*
X033810Y024413D01*
X033710Y024513D01*
X033710Y024781D01*
X033446Y025045D01*
X033073Y025045D01*
X032810Y024781D01*
X032810Y024413D01*
X032710Y024513D01*
X032710Y024781D01*
X032446Y025045D01*
X032073Y025045D01*
X031810Y024781D01*
X031810Y024413D01*
X031710Y024513D01*
X031710Y024781D01*
X031446Y025045D01*
X031073Y025045D01*
X030810Y024781D01*
X030810Y024413D01*
X030710Y024513D01*
X030710Y024781D01*
X030446Y025045D01*
X030073Y025045D01*
X029810Y024781D01*
X029810Y024409D01*
X030073Y024145D01*
X030342Y024145D01*
X030442Y024045D01*
X030073Y024045D01*
X029810Y023781D01*
X029810Y023409D01*
X030000Y023219D01*
X030000Y022703D01*
X029152Y021855D01*
X027963Y021855D01*
X028030Y022016D01*
X028030Y022205D01*
X027958Y022380D01*
X027824Y022514D01*
X027649Y022586D01*
X026870Y022586D01*
X026695Y022514D01*
X026561Y022380D01*
X026489Y022205D01*
X026489Y022016D01*
X026556Y021855D01*
X026367Y021855D01*
X026235Y021987D01*
X026235Y022292D01*
X025956Y022570D01*
X025563Y022570D01*
X025347Y022355D01*
X025155Y022355D01*
X025154Y022358D01*
X025023Y022489D01*
X024852Y022560D01*
X024667Y022560D01*
X024496Y022489D01*
X024365Y022358D01*
X024295Y022187D01*
X024295Y022003D01*
X024365Y021832D01*
X024496Y021701D01*
X024667Y021630D01*
X024852Y021630D01*
X025023Y021701D01*
X025154Y021832D01*
X025155Y021835D01*
X025347Y021835D01*
X025563Y021620D01*
X025867Y021620D01*
X025917Y021570D01*
X025563Y021570D01*
X025347Y021355D01*
X025155Y021355D01*
X025154Y021358D01*
X025023Y021489D01*
X024852Y021560D01*
X024667Y021560D01*
X024496Y021489D01*
X024365Y021358D01*
X024295Y021187D01*
X024295Y021003D01*
X024365Y020832D01*
X024496Y020701D01*
X024667Y020630D01*
X024852Y020630D01*
X025023Y020701D01*
X025154Y020832D01*
X025155Y020835D01*
X025347Y020835D01*
X025563Y020620D01*
X025956Y020620D01*
X026172Y020835D01*
X029132Y020835D01*
X028652Y020355D01*
X026172Y020355D01*
X025956Y020570D01*
X025563Y020570D01*
X025347Y020355D01*
X025155Y020355D01*
X025154Y020358D01*
X025023Y020489D01*
X024852Y020560D01*
X024667Y020560D01*
X024496Y020489D01*
X024365Y020358D01*
X024295Y020187D01*
X024295Y020003D01*
X024365Y019832D01*
X024496Y019701D01*
X024667Y019630D01*
X024852Y019630D01*
X025023Y019701D01*
X025154Y019832D01*
X025155Y019835D01*
X025347Y019835D01*
X025563Y019620D01*
X025956Y019620D01*
X026172Y019835D01*
X028632Y019835D01*
X028152Y019355D01*
X026172Y019355D01*
X025956Y019570D01*
X025563Y019570D01*
X025347Y019355D01*
X025155Y019355D01*
X025154Y019358D01*
X025023Y019489D01*
X024852Y019560D01*
X024667Y019560D01*
X024496Y019489D01*
X024365Y019358D01*
X024295Y019187D01*
X024295Y019003D01*
X024365Y018832D01*
X024496Y018701D01*
X024667Y018630D01*
X024852Y018630D01*
X025023Y018701D01*
X025154Y018832D01*
X025155Y018835D01*
X025347Y018835D01*
X025563Y018620D01*
X025956Y018620D01*
X026172Y018835D01*
X028132Y018835D01*
X027652Y018355D01*
X026172Y018355D01*
X025956Y018570D01*
X025563Y018570D01*
X025347Y018355D01*
X025155Y018355D01*
X025154Y018358D01*
X025023Y018489D01*
X024852Y018560D01*
X024667Y018560D01*
X024496Y018489D01*
X024365Y018358D01*
X024295Y018187D01*
X024295Y018003D01*
X024365Y017832D01*
X024496Y017701D01*
X024667Y017630D01*
X024852Y017630D01*
X025023Y017701D01*
X025154Y017832D01*
X025155Y017835D01*
X025347Y017835D01*
X025563Y017620D01*
X025956Y017620D01*
X026172Y017835D01*
X027632Y017835D01*
X027152Y017355D01*
X026172Y017355D01*
X025956Y017570D01*
X025563Y017570D01*
X025347Y017355D01*
X025155Y017355D01*
X025154Y017358D01*
X025023Y017489D01*
X024852Y017560D01*
X024667Y017560D01*
X024496Y017489D01*
X024365Y017358D01*
X024295Y017187D01*
X024295Y017003D01*
X024365Y016832D01*
X024496Y016701D01*
X024667Y016630D01*
X024852Y016630D01*
X025023Y016701D01*
X025154Y016832D01*
X025155Y016835D01*
X025347Y016835D01*
X025563Y016620D01*
X025956Y016620D01*
X026172Y016835D01*
X027132Y016835D01*
X026652Y016355D01*
X026172Y016355D01*
X025956Y016570D01*
X025563Y016570D01*
X025347Y016355D01*
X025155Y016355D01*
X025154Y016358D01*
X025023Y016489D01*
X024852Y016560D01*
X024667Y016560D01*
X024496Y016489D01*
X024365Y016358D01*
X024295Y016187D01*
X024295Y016003D01*
X024365Y015832D01*
X024496Y015701D01*
X024667Y015630D01*
X024852Y015630D01*
X025023Y015701D01*
X025154Y015832D01*
X025155Y015835D01*
X025347Y015835D01*
X025563Y015620D01*
X025956Y015620D01*
X026172Y015835D01*
X026811Y015835D01*
X026907Y015875D01*
X026980Y015948D01*
X030867Y019835D01*
X031160Y019835D01*
X031112Y019815D01*
X031039Y019742D01*
X026652Y015355D01*
X026172Y015355D01*
X025956Y015570D01*
X025563Y015570D01*
X025347Y015355D01*
X025155Y015355D01*
X025154Y015358D01*
X025023Y015489D01*
X024852Y015560D01*
X024667Y015560D01*
X024496Y015489D01*
X024365Y015358D01*
X024295Y015187D01*
X024295Y015003D01*
X024315Y014953D01*
X024007Y014953D01*
X023909Y014855D01*
X023117Y014855D01*
X022993Y014980D01*
X022993Y015223D01*
X022887Y015328D01*
X022382Y015328D01*
X022276Y015223D01*
X022276Y014946D01*
X019907Y017315D01*
X019811Y017355D01*
X019155Y017355D01*
X019154Y017358D01*
X019023Y017489D01*
X018852Y017560D01*
X018667Y017560D01*
X018496Y017489D01*
X018365Y017358D01*
X018364Y017355D01*
X018172Y017355D01*
X017956Y017570D01*
X017563Y017570D01*
X017357Y017365D01*
X016887Y017835D01*
X017347Y017835D01*
X017563Y017620D01*
X017956Y017620D01*
X018172Y017835D01*
X018364Y017835D01*
X018365Y017832D01*
X018496Y017701D01*
X018667Y017630D01*
X018852Y017630D01*
X019023Y017701D01*
X019154Y017832D01*
X019225Y018003D01*
X019225Y018187D01*
X019154Y018358D01*
X019023Y018489D01*
X018852Y018560D01*
X018667Y018560D01*
X018496Y018489D01*
X018365Y018358D01*
X018364Y018355D01*
X018172Y018355D01*
X017956Y018570D01*
X017563Y018570D01*
X017347Y018355D01*
X016867Y018355D01*
X016387Y018835D01*
X017347Y018835D01*
X017563Y018620D01*
X017956Y018620D01*
X018172Y018835D01*
X018364Y018835D01*
X018365Y018832D01*
X018496Y018701D01*
X018667Y018630D01*
X018852Y018630D01*
X019023Y018701D01*
X019154Y018832D01*
X019225Y019003D01*
X019225Y019187D01*
X019154Y019358D01*
X019023Y019489D01*
X018852Y019560D01*
X018667Y019560D01*
X018496Y019489D01*
X018365Y019358D01*
X018364Y019355D01*
X018172Y019355D01*
X017956Y019570D01*
X017563Y019570D01*
X017347Y019355D01*
X016367Y019355D01*
X015887Y019835D01*
X017347Y019835D01*
X017563Y019620D01*
X017956Y019620D01*
X018172Y019835D01*
X018364Y019835D01*
X018365Y019832D01*
X018496Y019701D01*
X018667Y019630D01*
X018852Y019630D01*
X019023Y019701D01*
X019154Y019832D01*
X019225Y020003D01*
X019225Y020187D01*
X019154Y020358D01*
X019023Y020489D01*
X018852Y020560D01*
X018667Y020560D01*
X018496Y020489D01*
X018365Y020358D01*
X018364Y020355D01*
X018172Y020355D01*
X017956Y020570D01*
X017563Y020570D01*
X017347Y020355D01*
X015867Y020355D01*
X015387Y020835D01*
X017347Y020835D01*
X017563Y020620D01*
X017956Y020620D01*
X018172Y020835D01*
X018364Y020835D01*
X018365Y020832D01*
X018496Y020701D01*
X018667Y020630D01*
X018852Y020630D01*
X019023Y020701D01*
X019154Y020832D01*
X019225Y021003D01*
X019225Y021187D01*
X019154Y021358D01*
X019023Y021489D01*
X018852Y021560D01*
X018667Y021560D01*
X018496Y021489D01*
X018365Y021358D01*
X018364Y021355D01*
X018172Y021355D01*
X017956Y021570D01*
X017563Y021570D01*
X017347Y021355D01*
X015860Y021355D01*
X015907Y021375D01*
X016367Y021835D01*
X017347Y021835D01*
X017563Y021620D01*
X017956Y021620D01*
X018172Y021835D01*
X018364Y021835D01*
X018365Y021832D01*
X018496Y021701D01*
X018667Y021630D01*
X018852Y021630D01*
X019023Y021701D01*
X019154Y021832D01*
X019225Y022003D01*
X019225Y022187D01*
X019154Y022358D01*
X019023Y022489D01*
X018852Y022560D01*
X018667Y022560D01*
X018496Y022489D01*
X018365Y022358D01*
X018364Y022355D01*
X018172Y022355D01*
X017956Y022570D01*
X017563Y022570D01*
X017347Y022355D01*
X016387Y022355D01*
X016867Y022835D01*
X017347Y022835D01*
X017563Y022620D01*
X017956Y022620D01*
X018172Y022835D01*
X018364Y022835D01*
X018365Y022832D01*
X018496Y022701D01*
X018667Y022630D01*
X018852Y022630D01*
X019023Y022701D01*
X019154Y022832D01*
X019225Y023003D01*
X019225Y023187D01*
X019154Y023358D01*
X019023Y023489D01*
X018852Y023560D01*
X018667Y023560D01*
X018496Y023489D01*
X018365Y023358D01*
X018364Y023355D01*
X018172Y023355D01*
X017956Y023570D01*
X017563Y023570D01*
X017347Y023355D01*
X016887Y023355D01*
X017357Y023825D01*
X017563Y023620D01*
X017956Y023620D01*
X018172Y023835D01*
X018364Y023835D01*
X018365Y023832D01*
X018496Y023701D01*
X018667Y023630D01*
X018852Y023630D01*
X019023Y023701D01*
X019154Y023832D01*
X019225Y024003D01*
X019225Y024187D01*
X019154Y024358D01*
X019023Y024489D01*
X018852Y024560D01*
X018667Y024560D01*
X018496Y024489D01*
X018365Y024358D01*
X018364Y024355D01*
X018172Y024355D01*
X017956Y024570D01*
X017563Y024570D01*
X017347Y024355D01*
X017208Y024355D01*
X017112Y024315D01*
X017039Y024242D01*
X015652Y022855D01*
X015367Y022855D01*
X015117Y023105D01*
X015260Y023105D01*
X015462Y023105D01*
X015750Y023392D01*
X015750Y023595D01*
X015750Y023798D01*
X015462Y024085D01*
X015260Y024085D01*
X015260Y023595D01*
X015750Y023595D01*
X015260Y023595D01*
X015260Y023595D01*
X015260Y023595D01*
X015260Y023105D01*
X015260Y023595D01*
X015260Y023595D01*
X015260Y024085D01*
X015057Y024085D01*
X015020Y024048D01*
X015020Y024147D01*
X014983Y024235D01*
X015073Y024145D01*
X015446Y024145D01*
X015710Y024409D01*
X015710Y024677D01*
X016367Y025335D01*
X017271Y025335D01*
X017244Y025308D01*
X017244Y025095D01*
X017760Y025095D01*
X018255Y025095D01*
X018760Y025095D01*
X019265Y025095D01*
X019265Y025135D01*
X019252Y025213D01*
X019228Y025289D01*
X019204Y025335D01*
X024356Y025335D01*
X024295Y025187D01*
X024295Y025003D01*
X024365Y024832D01*
X024496Y024701D01*
X024667Y024630D01*
X024852Y024630D01*
X025023Y024701D01*
X025154Y024832D01*
X025155Y024835D01*
X025347Y024835D01*
X025563Y024620D01*
X025956Y024620D01*
X026172Y024835D01*
X026652Y024835D01*
X026932Y024555D01*
X026870Y024555D01*
X026695Y024482D01*
X026561Y024348D01*
X026489Y024174D01*
X026489Y023985D01*
X026561Y023810D01*
X026695Y023676D01*
X026870Y023604D01*
X027649Y023604D01*
X027824Y023676D01*
X027958Y023810D01*
X028030Y023985D01*
X028030Y024174D01*
X027958Y024348D01*
X027824Y024482D01*
X027649Y024555D01*
X027520Y024555D01*
X027520Y024647D01*
X027480Y024742D01*
X026980Y025242D01*
X026980Y025242D01*
X026907Y025315D01*
X026860Y025335D01*
X027652Y025335D01*
X028500Y024487D01*
X028500Y023703D01*
X028152Y023355D01*
X027962Y023355D01*
X027958Y023364D01*
X027824Y023498D01*
X027649Y023570D01*
X026870Y023570D01*
X026695Y023498D01*
X026561Y023364D01*
X026489Y023190D01*
X026489Y023000D01*
X026561Y022826D01*
X026695Y022692D01*
X026870Y022620D01*
X027649Y022620D01*
X027824Y022692D01*
X027958Y022826D01*
X027962Y022835D01*
X028152Y022835D01*
X028401Y022585D01*
X028401Y022342D01*
X028507Y022237D01*
X029012Y022237D01*
X029118Y022342D01*
X029118Y022848D01*
X029012Y022953D01*
X028769Y022953D01*
X028627Y023095D01*
X028980Y023448D01*
X029020Y023543D01*
X029020Y024647D01*
X028980Y024742D01*
X028907Y024815D01*
X028054Y025669D01*
X041960Y025670D01*
X041960Y001395D01*
X026427Y001395D01*
X026480Y001448D01*
X027480Y002448D01*
X027520Y002543D01*
X027520Y002675D01*
X027583Y002675D01*
X027737Y002739D01*
X027856Y002857D01*
X027920Y003011D01*
X027920Y003179D01*
X027856Y003333D01*
X027737Y003451D01*
X027583Y003515D01*
X026936Y003515D01*
X026782Y003451D01*
X026663Y003333D01*
X026600Y003179D01*
X026600Y003011D01*
X026663Y002857D01*
X026782Y002739D01*
X026936Y002675D01*
X026972Y002675D01*
X026152Y001855D01*
X023860Y001855D01*
X023907Y001875D01*
X024407Y002375D01*
X024480Y002448D01*
X024520Y002543D01*
X024520Y002675D01*
X024583Y002675D01*
X024737Y002739D01*
X024856Y002857D01*
X024920Y003011D01*
X024920Y003179D01*
X024856Y003333D01*
X024853Y003335D01*
X025311Y003335D01*
X025407Y003375D01*
X025867Y003835D01*
X026686Y003835D01*
X026782Y003739D01*
X026936Y003675D01*
X027583Y003675D01*
X027737Y003739D01*
X027833Y003835D01*
X028152Y003835D01*
X030039Y001948D01*
X030039Y001948D01*
X030112Y001875D01*
X030208Y001835D01*
X035811Y001835D01*
X035907Y001875D01*
X036907Y002875D01*
X036980Y002948D01*
X037020Y003043D01*
X037020Y003521D01*
X037116Y003617D01*
X037180Y003771D01*
X037180Y004419D01*
X037116Y004573D01*
X036997Y004691D01*
X036843Y004755D01*
X036676Y004755D01*
X036522Y004691D01*
X036403Y004573D01*
X036340Y004419D01*
X036340Y003771D01*
X036403Y003617D01*
X036500Y003521D01*
X036500Y003203D01*
X035652Y002355D01*
X031118Y002355D01*
X031118Y002529D01*
X034514Y005925D01*
X034560Y006035D01*
X034560Y006483D01*
X034676Y006435D01*
X034843Y006435D01*
X034997Y006499D01*
X035116Y006617D01*
X035180Y006771D01*
X035180Y007419D01*
X035116Y007573D01*
X034997Y007691D01*
X034843Y007755D01*
X034676Y007755D01*
X034560Y007707D01*
X034560Y010287D01*
X034624Y010351D01*
X034690Y010509D01*
X034690Y010681D01*
X034624Y010839D01*
X034503Y010960D01*
X034345Y011025D01*
X034254Y011025D01*
X034071Y011208D01*
X034174Y011165D01*
X034322Y011165D01*
X035000Y010487D01*
X035000Y009429D01*
X034840Y009269D01*
X034840Y008921D01*
X035086Y008675D01*
X035433Y008675D01*
X035680Y008921D01*
X035680Y009269D01*
X035520Y009429D01*
X035520Y010647D01*
X035480Y010742D01*
X034690Y011533D01*
X034690Y011681D01*
X034642Y011795D01*
X035819Y011795D01*
X035929Y011841D01*
X036872Y012783D01*
X036830Y012681D01*
X036830Y012509D01*
X036895Y012351D01*
X037016Y012230D01*
X037174Y012165D01*
X037345Y012165D01*
X037503Y012230D01*
X037624Y012351D01*
X037690Y012509D01*
X037690Y012681D01*
X037642Y012795D01*
X037819Y012795D01*
X037929Y012841D01*
X038259Y013170D01*
X039194Y013170D01*
X039304Y013216D01*
X039884Y013795D01*
X040960Y013795D01*
X040960Y011219D01*
X040590Y010849D01*
X040505Y010765D01*
X040460Y010655D01*
X040460Y009478D01*
X040437Y009468D01*
X040276Y009308D01*
X040190Y009098D01*
X040190Y008092D01*
X040276Y007882D01*
X040437Y007722D01*
X040646Y007635D01*
X040873Y007635D01*
X041082Y007722D01*
X041243Y007882D01*
X041330Y008092D01*
X041330Y009098D01*
X041243Y009308D01*
X041082Y009468D01*
X041060Y009478D01*
X041060Y010471D01*
X041514Y010925D01*
X041560Y011035D01*
X041560Y013801D01*
X041680Y013921D01*
X041680Y014269D01*
X041560Y014389D01*
X041560Y016625D01*
X041852Y016917D01*
X041852Y017433D01*
X041487Y017797D01*
X040972Y017797D01*
X040607Y017433D01*
X040607Y016917D01*
X040960Y016565D01*
X040960Y014395D01*
X039700Y014395D01*
X039590Y014349D01*
X039505Y014265D01*
X039010Y013770D01*
X038528Y013770D01*
X038680Y013921D01*
X038680Y014269D01*
X038520Y014429D01*
X038520Y014665D01*
X038667Y014812D01*
X038762Y015041D01*
X038762Y015289D01*
X038667Y015518D01*
X038652Y015533D01*
X038813Y015533D01*
X039042Y015627D01*
X039217Y015802D01*
X039312Y016031D01*
X039312Y016279D01*
X039217Y016508D01*
X039042Y016683D01*
X038813Y016777D01*
X038566Y016777D01*
X038337Y016683D01*
X038162Y016508D01*
X038067Y016279D01*
X038067Y016031D01*
X038162Y015802D01*
X038177Y015787D01*
X038016Y015787D01*
X037958Y015764D01*
X036887Y016835D01*
X037811Y016835D01*
X037907Y016875D01*
X037980Y016948D01*
X039563Y018531D01*
X039692Y018403D01*
X040207Y018403D01*
X040572Y018767D01*
X040572Y019283D01*
X040207Y019647D01*
X039692Y019647D01*
X039327Y019283D01*
X039327Y019030D01*
X037652Y017355D01*
X035962Y017355D01*
X035958Y017364D01*
X035824Y017498D01*
X035649Y017570D01*
X034870Y017570D01*
X034695Y017498D01*
X034561Y017364D01*
X034489Y017190D01*
X034489Y017000D01*
X034561Y016826D01*
X034695Y016692D01*
X034870Y016620D01*
X035649Y016620D01*
X035824Y016692D01*
X035958Y016826D01*
X035962Y016835D01*
X036152Y016835D01*
X037570Y015417D01*
X037517Y015289D01*
X037517Y015041D01*
X037612Y014812D01*
X037787Y014637D01*
X038000Y014549D01*
X038000Y014429D01*
X037840Y014269D01*
X037840Y013921D01*
X038015Y013745D01*
X037840Y013974D02*
X037468Y013974D01*
X037051Y013974D02*
X034468Y013974D01*
X034667Y013736D02*
X036852Y013736D01*
X036835Y013497D02*
X034684Y013497D01*
X034531Y013259D02*
X036499Y013259D01*
X036760Y013095D02*
X037760Y013095D01*
X038135Y013470D01*
X039135Y013470D01*
X039760Y014095D01*
X041260Y014095D01*
X041260Y011095D01*
X040760Y010595D01*
X040760Y008595D01*
X041330Y008489D02*
X041960Y008489D01*
X041960Y008727D02*
X041330Y008727D01*
X041330Y008966D02*
X041960Y008966D01*
X041960Y009204D02*
X041286Y009204D01*
X041108Y009443D02*
X041960Y009443D01*
X041960Y009681D02*
X041060Y009681D01*
X041060Y009920D02*
X041960Y009920D01*
X041960Y010158D02*
X041060Y010158D01*
X041060Y010397D02*
X041960Y010397D01*
X041960Y010635D02*
X041224Y010635D01*
X041462Y010874D02*
X041960Y010874D01*
X041960Y011112D02*
X041560Y011112D01*
X041560Y011351D02*
X041960Y011351D01*
X041960Y011589D02*
X041560Y011589D01*
X041560Y011828D02*
X041960Y011828D01*
X041960Y012066D02*
X041560Y012066D01*
X041560Y012305D02*
X041960Y012305D01*
X041960Y012543D02*
X041560Y012543D01*
X041560Y012782D02*
X041960Y012782D01*
X041960Y013020D02*
X041560Y013020D01*
X041560Y013259D02*
X041960Y013259D01*
X041960Y013497D02*
X041560Y013497D01*
X041560Y013736D02*
X041960Y013736D01*
X041960Y013974D02*
X041680Y013974D01*
X041680Y014213D02*
X041960Y014213D01*
X041960Y014451D02*
X041560Y014451D01*
X041560Y014690D02*
X041960Y014690D01*
X041960Y014928D02*
X041560Y014928D01*
X041560Y015167D02*
X041960Y015167D01*
X041960Y015405D02*
X041560Y015405D01*
X041560Y015644D02*
X041960Y015644D01*
X041960Y015882D02*
X041560Y015882D01*
X041560Y016121D02*
X041960Y016121D01*
X041960Y016359D02*
X041560Y016359D01*
X041560Y016598D02*
X041960Y016598D01*
X041960Y016836D02*
X041771Y016836D01*
X041852Y017075D02*
X041960Y017075D01*
X041960Y017313D02*
X041852Y017313D01*
X041960Y017552D02*
X041733Y017552D01*
X041960Y017790D02*
X041495Y017790D01*
X041960Y018029D02*
X039061Y018029D01*
X039299Y018267D02*
X041960Y018267D01*
X041960Y018506D02*
X040310Y018506D01*
X040549Y018744D02*
X041960Y018744D01*
X041960Y018983D02*
X040572Y018983D01*
X040572Y019221D02*
X041960Y019221D01*
X041960Y019460D02*
X040395Y019460D01*
X039504Y019460D02*
X035020Y019460D01*
X035020Y019698D02*
X041960Y019698D01*
X041960Y019937D02*
X035020Y019937D01*
X035020Y020175D02*
X041960Y020175D01*
X041960Y020414D02*
X035020Y020414D01*
X035020Y020652D02*
X037772Y020652D01*
X037787Y020637D02*
X038016Y020543D01*
X038263Y020543D01*
X038492Y020637D01*
X038667Y020812D01*
X038762Y021041D01*
X038762Y021289D01*
X038667Y021518D01*
X038652Y021533D01*
X038813Y021533D01*
X039042Y021627D01*
X039217Y021802D01*
X039312Y022031D01*
X039312Y022279D01*
X039217Y022508D01*
X039042Y022683D01*
X038813Y022777D01*
X038566Y022777D01*
X038337Y022683D01*
X038162Y022508D01*
X038067Y022279D01*
X038067Y022031D01*
X038162Y021802D01*
X038177Y021787D01*
X038016Y021787D01*
X037787Y021693D01*
X037612Y021518D01*
X037517Y021289D01*
X037517Y021041D01*
X037612Y020812D01*
X037787Y020637D01*
X037579Y020891D02*
X036149Y020891D01*
X036180Y020921D02*
X035933Y020675D01*
X035586Y020675D01*
X035340Y020921D01*
X035340Y021269D01*
X035586Y021515D01*
X035812Y021515D01*
X038039Y023742D01*
X038112Y023815D01*
X038208Y023855D01*
X038412Y023855D01*
X039327Y024770D01*
X039327Y025283D01*
X039692Y025647D01*
X040207Y025647D01*
X040572Y025283D01*
X040572Y024767D01*
X040207Y024403D01*
X039695Y024403D01*
X038667Y023375D01*
X038571Y023335D01*
X038367Y023335D01*
X036180Y021147D01*
X036180Y020921D01*
X036180Y021129D02*
X037517Y021129D01*
X037550Y021368D02*
X036400Y021368D01*
X036638Y021606D02*
X037700Y021606D01*
X038144Y021845D02*
X036877Y021845D01*
X037115Y022083D02*
X038067Y022083D01*
X038085Y022322D02*
X037354Y022322D01*
X037592Y022560D02*
X038214Y022560D01*
X037831Y022799D02*
X040669Y022799D01*
X040567Y022901D02*
X040955Y022513D01*
X041202Y022513D01*
X041202Y023147D01*
X041257Y023147D01*
X041257Y022513D01*
X041504Y022513D01*
X041892Y022901D01*
X041892Y023147D01*
X041257Y023147D01*
X041257Y023203D01*
X041202Y023203D01*
X041202Y023837D01*
X040955Y023837D01*
X040567Y023449D01*
X040567Y023203D01*
X041202Y023203D01*
X041202Y023147D01*
X040567Y023147D01*
X040567Y022901D01*
X040567Y023037D02*
X038069Y023037D01*
X038308Y023276D02*
X040567Y023276D01*
X040632Y023514D02*
X038806Y023514D01*
X039045Y023753D02*
X040870Y023753D01*
X041202Y023753D02*
X041257Y023753D01*
X041257Y023837D02*
X041504Y023837D01*
X041892Y023449D01*
X041892Y023203D01*
X041257Y023203D01*
X041257Y023837D01*
X041257Y023514D02*
X041202Y023514D01*
X041202Y023276D02*
X041257Y023276D01*
X041257Y023037D02*
X041202Y023037D01*
X041202Y022799D02*
X041257Y022799D01*
X041257Y022560D02*
X041202Y022560D01*
X040908Y022560D02*
X039165Y022560D01*
X039294Y022322D02*
X041960Y022322D01*
X041960Y022560D02*
X041551Y022560D01*
X041790Y022799D02*
X041960Y022799D01*
X041960Y023037D02*
X041892Y023037D01*
X041892Y023276D02*
X041960Y023276D01*
X041960Y023514D02*
X041827Y023514D01*
X041960Y023753D02*
X041589Y023753D01*
X041960Y023991D02*
X039283Y023991D01*
X039522Y024230D02*
X041960Y024230D01*
X041960Y024468D02*
X040273Y024468D01*
X040511Y024707D02*
X041960Y024707D01*
X041960Y024945D02*
X040572Y024945D01*
X040572Y025184D02*
X041960Y025184D01*
X041960Y025422D02*
X040433Y025422D01*
X039466Y025422D02*
X037273Y025422D01*
X037257Y025437D02*
X036742Y025437D01*
X036377Y025073D01*
X036377Y024557D01*
X036742Y024193D01*
X037257Y024193D01*
X037622Y024557D01*
X037622Y025073D01*
X037257Y025437D01*
X037511Y025184D02*
X039327Y025184D01*
X039327Y024945D02*
X037622Y024945D01*
X037622Y024707D02*
X039263Y024707D01*
X039025Y024468D02*
X037533Y024468D01*
X037294Y024230D02*
X038786Y024230D01*
X038548Y023991D02*
X035020Y023991D01*
X035020Y023753D02*
X038049Y023753D01*
X037811Y023514D02*
X035020Y023514D01*
X035020Y023276D02*
X037572Y023276D01*
X037334Y023037D02*
X035020Y023037D01*
X035020Y022799D02*
X037095Y022799D01*
X036857Y022560D02*
X035020Y022560D01*
X035020Y022322D02*
X036618Y022322D01*
X036380Y022083D02*
X035020Y022083D01*
X035020Y021845D02*
X036141Y021845D01*
X035903Y021606D02*
X035020Y021606D01*
X035020Y021368D02*
X035438Y021368D01*
X035340Y021129D02*
X035020Y021129D01*
X035020Y020891D02*
X035370Y020891D01*
X036742Y019437D02*
X036377Y019073D01*
X036377Y018557D01*
X036742Y018193D01*
X037257Y018193D01*
X037622Y018557D01*
X037622Y019073D01*
X037257Y019437D01*
X036742Y019437D01*
X036525Y019221D02*
X035020Y019221D01*
X034994Y018983D02*
X036377Y018983D01*
X036377Y018744D02*
X034776Y018744D01*
X034907Y018875D02*
X034907Y018875D01*
X034751Y018506D02*
X034538Y018506D01*
X034480Y018448D02*
X034480Y018448D01*
X034581Y017790D02*
X033322Y017790D01*
X033255Y017552D02*
X034824Y017552D01*
X034540Y017313D02*
X033178Y017313D01*
X032895Y017075D02*
X034489Y017075D01*
X034557Y016836D02*
X033195Y016836D01*
X033255Y016598D02*
X036389Y016598D01*
X036628Y016359D02*
X035966Y016359D01*
X035958Y016380D02*
X035824Y016514D01*
X035649Y016586D01*
X034870Y016586D01*
X034695Y016514D01*
X034561Y016380D01*
X034489Y016205D01*
X034489Y016016D01*
X034561Y015842D01*
X034695Y015708D01*
X034870Y015635D01*
X035649Y015635D01*
X035824Y015708D01*
X035958Y015842D01*
X036030Y016016D01*
X036030Y016205D01*
X035958Y016380D01*
X036030Y016121D02*
X036866Y016121D01*
X037105Y015882D02*
X035974Y015882D01*
X035669Y015644D02*
X037343Y015644D01*
X037565Y015405D02*
X033020Y015405D01*
X033020Y015644D02*
X034850Y015644D01*
X034545Y015882D02*
X033020Y015882D01*
X033020Y016121D02*
X034489Y016121D01*
X034553Y016359D02*
X033198Y016359D01*
X032500Y016121D02*
X032408Y016121D01*
X032321Y016359D02*
X032170Y016359D01*
X032118Y016598D02*
X032265Y016598D01*
X032324Y016836D02*
X030368Y016836D01*
X030130Y016598D02*
X031401Y016598D01*
X031401Y016359D02*
X029891Y016359D01*
X029653Y016121D02*
X031401Y016121D01*
X031760Y016345D02*
X032260Y015845D01*
X032260Y015095D01*
X033760Y013595D01*
X033760Y012345D01*
X034010Y012095D01*
X035760Y012095D01*
X036760Y013095D01*
X036870Y012782D02*
X036871Y012782D01*
X036830Y012543D02*
X036632Y012543D01*
X036393Y012305D02*
X036942Y012305D01*
X037016Y011960D02*
X036895Y011839D01*
X036830Y011681D01*
X036830Y011509D01*
X036895Y011351D01*
X037016Y011230D01*
X037174Y011165D01*
X037345Y011165D01*
X037503Y011230D01*
X037624Y011351D01*
X037690Y011509D01*
X037690Y011681D01*
X037624Y011839D01*
X037503Y011960D01*
X037345Y012025D01*
X037174Y012025D01*
X037016Y011960D01*
X036890Y011828D02*
X035898Y011828D01*
X036155Y012066D02*
X039157Y012066D01*
X039256Y012025D02*
X039500Y012025D01*
X039500Y011703D01*
X036402Y008605D01*
X036093Y008605D01*
X035933Y008765D01*
X035586Y008765D01*
X035340Y008519D01*
X035340Y008171D01*
X035586Y007925D01*
X035933Y007925D01*
X036093Y008085D01*
X036561Y008085D01*
X036657Y008125D01*
X036730Y008198D01*
X039980Y011448D01*
X040020Y011543D01*
X040020Y012025D01*
X040263Y012025D01*
X040472Y012112D01*
X040633Y012272D01*
X040720Y012482D01*
X040720Y012708D01*
X040633Y012918D01*
X040472Y013078D01*
X040263Y013165D01*
X039256Y013165D01*
X039047Y013078D01*
X038886Y012918D01*
X038800Y012708D01*
X038800Y012482D01*
X038886Y012272D01*
X039047Y012112D01*
X039256Y012025D01*
X039500Y011828D02*
X037629Y011828D01*
X037690Y011589D02*
X039386Y011589D01*
X039147Y011351D02*
X037623Y011351D01*
X037503Y010960D02*
X037345Y011025D01*
X037174Y011025D01*
X037016Y010960D01*
X036895Y010839D01*
X036830Y010681D01*
X036830Y010509D01*
X036895Y010351D01*
X037016Y010230D01*
X037174Y010165D01*
X037345Y010165D01*
X037503Y010230D01*
X037624Y010351D01*
X037690Y010509D01*
X037690Y010681D01*
X037624Y010839D01*
X037503Y010960D01*
X037589Y010874D02*
X038670Y010874D01*
X038909Y011112D02*
X035110Y011112D01*
X034872Y011351D02*
X036896Y011351D01*
X036830Y011589D02*
X034690Y011589D01*
X034375Y011112D02*
X034167Y011112D01*
X033760Y011095D02*
X034260Y010595D01*
X034260Y006095D01*
X030760Y002595D01*
X031118Y002526D02*
X035823Y002526D01*
X036061Y002765D02*
X031353Y002765D01*
X031592Y003003D02*
X036300Y003003D01*
X036500Y003242D02*
X031830Y003242D01*
X032069Y003480D02*
X033493Y003480D01*
X033518Y003462D02*
X033583Y003429D01*
X033652Y003406D01*
X033723Y003395D01*
X033760Y003395D01*
X033796Y003395D01*
X033867Y003406D01*
X033936Y003429D01*
X034001Y003462D01*
X034059Y003504D01*
X034110Y003555D01*
X034153Y003614D01*
X034186Y003678D01*
X034208Y003747D01*
X034220Y003819D01*
X034220Y004095D01*
X034220Y004371D01*
X034208Y004443D01*
X034186Y004512D01*
X034153Y004576D01*
X034110Y004635D01*
X034059Y004686D01*
X034001Y004728D01*
X033936Y004761D01*
X033867Y004784D01*
X033796Y004795D01*
X033760Y004795D01*
X033760Y004095D01*
X034220Y004095D01*
X033760Y004095D01*
X033760Y004095D01*
X033760Y004095D01*
X033760Y003395D01*
X033760Y004095D01*
X033760Y004095D01*
X033760Y004795D01*
X033723Y004795D01*
X033652Y004784D01*
X033583Y004761D01*
X033518Y004728D01*
X033460Y004686D01*
X033409Y004635D01*
X033366Y004576D01*
X033333Y004512D01*
X033311Y004443D01*
X033300Y004371D01*
X033300Y004095D01*
X033300Y003819D01*
X033311Y003747D01*
X033333Y003678D01*
X033366Y003614D01*
X033409Y003555D01*
X033460Y003504D01*
X033518Y003462D01*
X033760Y003480D02*
X033760Y003480D01*
X033760Y003719D02*
X033760Y003719D01*
X033760Y003957D02*
X033760Y003957D01*
X033760Y004095D02*
X033300Y004095D01*
X033760Y004095D01*
X033760Y004095D01*
X033760Y004196D02*
X033760Y004196D01*
X033760Y004434D02*
X033760Y004434D01*
X033760Y004673D02*
X033760Y004673D01*
X034073Y004673D02*
X034503Y004673D01*
X034515Y004685D02*
X034403Y004573D01*
X034340Y004419D01*
X034340Y003771D01*
X034403Y003617D01*
X034522Y003499D01*
X034676Y003435D01*
X034843Y003435D01*
X034997Y003499D01*
X035116Y003617D01*
X035180Y003771D01*
X035180Y004419D01*
X035116Y004573D01*
X035110Y004578D01*
X035367Y004835D01*
X037152Y004835D01*
X037500Y004487D01*
X037500Y004043D01*
X037539Y003948D01*
X037612Y003875D01*
X038112Y003375D01*
X038208Y003335D01*
X039811Y003335D01*
X039907Y003375D01*
X039980Y003448D01*
X040207Y003675D01*
X040433Y003675D01*
X040680Y003921D01*
X040680Y004269D01*
X040433Y004515D01*
X040086Y004515D01*
X039840Y004269D01*
X039840Y004043D01*
X039652Y003855D01*
X038367Y003855D01*
X038020Y004203D01*
X038020Y004647D01*
X037980Y004742D01*
X037480Y005242D01*
X037407Y005315D01*
X037311Y005355D01*
X035208Y005355D01*
X035112Y005315D01*
X034612Y004815D01*
X034539Y004742D01*
X034515Y004685D01*
X034708Y004911D02*
X033500Y004911D01*
X033446Y004673D02*
X033261Y004673D01*
X033309Y004434D02*
X033023Y004434D01*
X032784Y004196D02*
X033300Y004196D01*
X033300Y003957D02*
X032546Y003957D01*
X032307Y003719D02*
X033320Y003719D01*
X034026Y003480D02*
X034567Y003480D01*
X034361Y003719D02*
X034199Y003719D01*
X034220Y003957D02*
X034340Y003957D01*
X034340Y004196D02*
X034220Y004196D01*
X034210Y004434D02*
X034346Y004434D01*
X035173Y004434D02*
X035309Y004434D01*
X035311Y004443D02*
X035300Y004371D01*
X035300Y004095D01*
X035300Y003819D01*
X035311Y003747D01*
X035333Y003678D01*
X035366Y003614D01*
X035409Y003555D01*
X035460Y003504D01*
X035518Y003462D01*
X035583Y003429D01*
X035652Y003406D01*
X035723Y003395D01*
X035760Y003395D01*
X035796Y003395D01*
X035867Y003406D01*
X035936Y003429D01*
X036001Y003462D01*
X036059Y003504D01*
X036110Y003555D01*
X036153Y003614D01*
X036186Y003678D01*
X036208Y003747D01*
X036220Y003819D01*
X036220Y004095D01*
X036220Y004371D01*
X036208Y004443D01*
X036186Y004512D01*
X036153Y004576D01*
X036110Y004635D01*
X036059Y004686D01*
X036001Y004728D01*
X035936Y004761D01*
X035867Y004784D01*
X035796Y004795D01*
X035760Y004795D01*
X035760Y004095D01*
X036220Y004095D01*
X035760Y004095D01*
X035760Y004095D01*
X035760Y004095D01*
X035760Y003395D01*
X035760Y004095D01*
X035760Y004095D01*
X035760Y004795D01*
X035723Y004795D01*
X035652Y004784D01*
X035583Y004761D01*
X035518Y004728D01*
X035460Y004686D01*
X035409Y004635D01*
X035366Y004576D01*
X035333Y004512D01*
X035311Y004443D01*
X035300Y004196D02*
X035180Y004196D01*
X035300Y004095D02*
X035760Y004095D01*
X035300Y004095D01*
X035300Y003957D02*
X035180Y003957D01*
X035158Y003719D02*
X035320Y003719D01*
X035493Y003480D02*
X034952Y003480D01*
X035760Y003480D02*
X035760Y003480D01*
X035760Y003719D02*
X035760Y003719D01*
X035760Y003957D02*
X035760Y003957D01*
X035760Y004095D02*
X035760Y004095D01*
X035760Y004196D02*
X035760Y004196D01*
X035760Y004434D02*
X035760Y004434D01*
X035760Y004673D02*
X035760Y004673D01*
X036073Y004673D02*
X036503Y004673D01*
X036346Y004434D02*
X036210Y004434D01*
X036220Y004196D02*
X036340Y004196D01*
X036340Y003957D02*
X036220Y003957D01*
X036199Y003719D02*
X036361Y003719D01*
X036500Y003480D02*
X036026Y003480D01*
X037020Y003480D02*
X038007Y003480D01*
X037768Y003719D02*
X037158Y003719D01*
X037180Y003957D02*
X037535Y003957D01*
X037500Y004196D02*
X037180Y004196D01*
X037173Y004434D02*
X037500Y004434D01*
X037314Y004673D02*
X037016Y004673D01*
X037811Y004911D02*
X038175Y004911D01*
X038050Y004786D02*
X038050Y004595D01*
X038050Y004404D01*
X038319Y004135D01*
X038510Y004135D01*
X038700Y004135D01*
X038970Y004404D01*
X038970Y004595D01*
X038970Y004786D01*
X038700Y005055D01*
X038510Y005055D01*
X038510Y004595D01*
X038970Y004595D01*
X038510Y004595D01*
X038510Y004595D01*
X038510Y004595D01*
X038510Y004135D01*
X038510Y004595D01*
X038510Y004595D01*
X038510Y005055D01*
X038319Y005055D01*
X038050Y004786D01*
X038050Y004673D02*
X038009Y004673D01*
X038050Y004595D02*
X038510Y004595D01*
X038050Y004595D01*
X038050Y004434D02*
X038020Y004434D01*
X038027Y004196D02*
X038258Y004196D01*
X038265Y003957D02*
X039754Y003957D01*
X039840Y004196D02*
X038761Y004196D01*
X038510Y004196D02*
X038510Y004196D01*
X038510Y004434D02*
X038510Y004434D01*
X038510Y004595D02*
X038510Y004595D01*
X038510Y004673D02*
X038510Y004673D01*
X038510Y004911D02*
X038510Y004911D01*
X038844Y004911D02*
X041960Y004911D01*
X041960Y004673D02*
X038970Y004673D01*
X038970Y004434D02*
X040005Y004434D01*
X040514Y004434D02*
X041960Y004434D01*
X041960Y004196D02*
X040680Y004196D01*
X040680Y003957D02*
X041960Y003957D01*
X041960Y003719D02*
X040477Y003719D01*
X040590Y003445D02*
X040278Y003316D01*
X040039Y003076D01*
X039910Y002764D01*
X039910Y002426D01*
X040039Y002114D01*
X040278Y001874D01*
X040590Y001745D01*
X040929Y001745D01*
X041241Y001874D01*
X041480Y002114D01*
X041609Y002426D01*
X041609Y002764D01*
X041480Y003076D01*
X041241Y003316D01*
X040929Y003445D01*
X040590Y003445D01*
X040204Y003242D02*
X037020Y003242D01*
X037003Y003003D02*
X040009Y003003D01*
X039910Y002765D02*
X036797Y002765D01*
X036558Y002526D02*
X039910Y002526D01*
X039967Y002288D02*
X036320Y002288D01*
X036081Y002049D02*
X040104Y002049D01*
X040433Y001811D02*
X026843Y001811D01*
X027081Y002049D02*
X029938Y002049D01*
X029699Y002288D02*
X027320Y002288D01*
X027512Y002526D02*
X029461Y002526D01*
X029222Y002765D02*
X027763Y002765D01*
X027916Y003003D02*
X028984Y003003D01*
X028745Y003242D02*
X027893Y003242D01*
X027668Y003480D02*
X028507Y003480D01*
X028268Y003719D02*
X027688Y003719D01*
X026831Y003719D02*
X025751Y003719D01*
X025512Y003480D02*
X026851Y003480D01*
X026626Y003242D02*
X024893Y003242D01*
X024916Y003003D02*
X026603Y003003D01*
X026756Y002765D02*
X024763Y002765D01*
X024512Y002526D02*
X026823Y002526D01*
X026584Y002288D02*
X024320Y002288D01*
X024081Y002049D02*
X026346Y002049D01*
X026604Y001572D02*
X041960Y001572D01*
X041960Y001811D02*
X041087Y001811D01*
X041415Y002049D02*
X041960Y002049D01*
X041960Y002288D02*
X041552Y002288D01*
X041609Y002526D02*
X041960Y002526D01*
X041960Y002765D02*
X041609Y002765D01*
X041510Y003003D02*
X041960Y003003D01*
X041960Y003242D02*
X041315Y003242D01*
X041960Y003480D02*
X040012Y003480D01*
X041960Y005150D02*
X037573Y005150D01*
X038336Y006175D02*
X038683Y006175D01*
X038843Y006335D01*
X040909Y006335D01*
X041007Y006237D01*
X041512Y006237D01*
X041618Y006342D01*
X041618Y006848D01*
X041512Y006953D01*
X041007Y006953D01*
X040909Y006855D01*
X040613Y006855D01*
X040680Y006921D01*
X040680Y007269D01*
X040433Y007515D01*
X040207Y007515D01*
X040020Y007703D01*
X040020Y008147D01*
X039980Y008242D01*
X039907Y008315D01*
X039480Y008742D01*
X039480Y008742D01*
X039407Y008815D01*
X039330Y008847D01*
X039330Y009098D01*
X039243Y009308D01*
X039082Y009468D01*
X038873Y009555D01*
X038646Y009555D01*
X038437Y009468D01*
X038276Y009308D01*
X038190Y009098D01*
X038190Y008092D01*
X038276Y007882D01*
X038437Y007722D01*
X038646Y007635D01*
X038873Y007635D01*
X039082Y007722D01*
X039243Y007882D01*
X039330Y008092D01*
X039330Y008157D01*
X039500Y007987D01*
X039500Y007543D01*
X039539Y007448D01*
X039612Y007375D01*
X039840Y007147D01*
X039840Y006921D01*
X039906Y006855D01*
X038843Y006855D01*
X038683Y007015D01*
X038457Y007015D01*
X038230Y007242D01*
X038157Y007315D01*
X038061Y007355D01*
X037180Y007355D01*
X037180Y007410D01*
X037074Y007515D01*
X036445Y007515D01*
X036340Y007410D01*
X036340Y006780D01*
X036445Y006675D01*
X037074Y006675D01*
X037180Y006780D01*
X037180Y006835D01*
X037902Y006835D01*
X038090Y006647D01*
X038090Y006421D01*
X038336Y006175D01*
X038169Y006342D02*
X034560Y006342D01*
X034560Y006104D02*
X041960Y006104D01*
X041960Y006342D02*
X041617Y006342D01*
X041618Y006581D02*
X041960Y006581D01*
X041960Y006819D02*
X041618Y006819D01*
X041960Y007058D02*
X040680Y007058D01*
X040652Y007296D02*
X041960Y007296D01*
X041960Y007535D02*
X040188Y007535D01*
X040020Y007773D02*
X040385Y007773D01*
X040223Y008012D02*
X040020Y008012D01*
X039972Y008250D02*
X040190Y008250D01*
X040190Y008489D02*
X039734Y008489D01*
X039907Y008315D02*
X039907Y008315D01*
X040190Y008727D02*
X039495Y008727D01*
X039330Y008966D02*
X040190Y008966D01*
X040233Y009204D02*
X039286Y009204D01*
X039108Y009443D02*
X040411Y009443D01*
X040460Y009681D02*
X038213Y009681D01*
X038411Y009443D02*
X037975Y009443D01*
X037736Y009204D02*
X038233Y009204D01*
X038190Y008966D02*
X037498Y008966D01*
X037259Y008727D02*
X038190Y008727D01*
X038190Y008489D02*
X037021Y008489D01*
X036782Y008250D02*
X038190Y008250D01*
X038223Y008012D02*
X036020Y008012D01*
X035843Y007755D02*
X035676Y007755D01*
X035522Y007691D01*
X035403Y007573D01*
X035340Y007419D01*
X035340Y006771D01*
X035403Y006617D01*
X035522Y006499D01*
X035676Y006435D01*
X035843Y006435D01*
X035997Y006499D01*
X036116Y006617D01*
X036180Y006771D01*
X036180Y007419D01*
X036116Y007573D01*
X035997Y007691D01*
X035843Y007755D01*
X036131Y007535D02*
X039503Y007535D01*
X039500Y007773D02*
X039134Y007773D01*
X039296Y008012D02*
X039475Y008012D01*
X038385Y007773D02*
X034560Y007773D01*
X034560Y008012D02*
X035499Y008012D01*
X035340Y008250D02*
X034560Y008250D01*
X034560Y008489D02*
X035340Y008489D01*
X035485Y008727D02*
X035548Y008727D01*
X035680Y008966D02*
X035840Y008966D01*
X035840Y008921D02*
X036086Y008675D01*
X036433Y008675D01*
X036680Y008921D01*
X036680Y009269D01*
X036433Y009515D01*
X036086Y009515D01*
X035840Y009269D01*
X035840Y008921D01*
X035971Y008727D02*
X036034Y008727D01*
X036485Y008727D02*
X036524Y008727D01*
X036680Y008966D02*
X036762Y008966D01*
X036680Y009204D02*
X037001Y009204D01*
X037239Y009443D02*
X036506Y009443D01*
X036013Y009443D02*
X035520Y009443D01*
X035520Y009681D02*
X037478Y009681D01*
X037716Y009920D02*
X035520Y009920D01*
X035520Y010158D02*
X037955Y010158D01*
X038193Y010397D02*
X037643Y010397D01*
X037690Y010635D02*
X038432Y010635D01*
X038929Y010397D02*
X040460Y010397D01*
X040460Y010635D02*
X039167Y010635D01*
X039406Y010874D02*
X040614Y010874D01*
X040852Y011112D02*
X039644Y011112D01*
X039883Y011351D02*
X040960Y011351D01*
X040960Y011589D02*
X040020Y011589D01*
X040020Y011828D02*
X040960Y011828D01*
X040960Y012066D02*
X040362Y012066D01*
X040646Y012305D02*
X040960Y012305D01*
X040960Y012543D02*
X040720Y012543D01*
X040689Y012782D02*
X040960Y012782D01*
X040960Y013020D02*
X040531Y013020D01*
X040960Y013259D02*
X039347Y013259D01*
X039586Y013497D02*
X040960Y013497D01*
X040960Y013736D02*
X039824Y013736D01*
X039214Y013974D02*
X038680Y013974D01*
X038680Y014213D02*
X039453Y014213D01*
X038520Y014451D02*
X040960Y014451D01*
X040960Y014690D02*
X038544Y014690D01*
X038715Y014928D02*
X040960Y014928D01*
X040960Y015167D02*
X038762Y015167D01*
X038714Y015405D02*
X040960Y015405D01*
X040960Y015644D02*
X039058Y015644D01*
X039250Y015882D02*
X040960Y015882D01*
X040960Y016121D02*
X039312Y016121D01*
X039279Y016359D02*
X040960Y016359D01*
X040927Y016598D02*
X039127Y016598D01*
X038252Y016598D02*
X037125Y016598D01*
X037363Y016359D02*
X038100Y016359D01*
X038067Y016121D02*
X037602Y016121D01*
X037840Y015882D02*
X038129Y015882D01*
X037517Y015167D02*
X033056Y015167D01*
X033294Y014928D02*
X037564Y014928D01*
X037735Y014690D02*
X033533Y014690D01*
X033771Y014451D02*
X038000Y014451D01*
X037840Y014213D02*
X034010Y014213D01*
X033195Y013736D02*
X031270Y013736D01*
X031270Y013974D02*
X032956Y013974D01*
X032718Y014213D02*
X031270Y014213D01*
X031270Y014451D02*
X032479Y014451D01*
X032241Y014690D02*
X031270Y014690D01*
X031328Y014928D02*
X032004Y014928D01*
X031960Y015167D02*
X031368Y015167D01*
X031368Y015405D02*
X031960Y015405D01*
X031960Y015644D02*
X029176Y015644D01*
X029414Y015882D02*
X031798Y015882D01*
X030651Y015405D02*
X028937Y015405D01*
X028699Y015167D02*
X030651Y015167D01*
X030691Y014928D02*
X028460Y014928D01*
X028222Y014690D02*
X030750Y014690D01*
X030750Y014451D02*
X027983Y014451D01*
X027745Y014213D02*
X030750Y014213D01*
X030750Y013974D02*
X027506Y013974D01*
X027268Y013736D02*
X030750Y013736D01*
X030750Y013497D02*
X027029Y013497D01*
X027032Y013463D02*
X026927Y013358D01*
X026927Y011706D01*
X027032Y011601D01*
X028684Y011601D01*
X028789Y011706D01*
X028789Y013358D01*
X028684Y013463D01*
X027032Y013463D01*
X026927Y013259D02*
X026791Y013259D01*
X026927Y013020D02*
X026552Y013020D01*
X026927Y012782D02*
X026118Y012782D01*
X025984Y012543D02*
X026927Y012543D01*
X026927Y012305D02*
X026222Y012305D01*
X026235Y012066D02*
X026927Y012066D01*
X026927Y011828D02*
X026164Y011828D01*
X025355Y011828D02*
X025150Y011828D01*
X024369Y011828D02*
X024150Y011828D01*
X024225Y012066D02*
X024295Y012066D01*
X024618Y012543D02*
X024626Y012543D01*
X024893Y012543D02*
X025535Y012543D01*
X025401Y012782D02*
X025104Y012782D01*
X023872Y011351D02*
X030750Y011351D01*
X030750Y011589D02*
X023633Y011589D01*
X023250Y011237D02*
X023789Y010698D01*
X023862Y010625D01*
X023958Y010585D01*
X028402Y010585D01*
X028901Y010085D01*
X028901Y009855D01*
X027893Y009855D01*
X027926Y009918D01*
X027948Y009987D01*
X027960Y010059D01*
X027960Y010095D01*
X027960Y010131D01*
X027948Y010203D01*
X027926Y010272D01*
X027893Y010336D01*
X027850Y010395D01*
X027799Y010446D01*
X027741Y010488D01*
X027676Y010521D01*
X027607Y010544D01*
X027536Y010555D01*
X027260Y010555D01*
X027260Y010095D01*
X027960Y010095D01*
X027260Y010095D01*
X027260Y010095D01*
X027260Y010095D01*
X027260Y009855D01*
X027260Y009855D01*
X027260Y010095D01*
X027260Y010095D01*
X027260Y010555D01*
X026983Y010555D01*
X026912Y010544D01*
X026843Y010521D01*
X026778Y010488D01*
X026720Y010446D01*
X026669Y010395D01*
X026626Y010336D01*
X026593Y010272D01*
X026571Y010203D01*
X026560Y010131D01*
X026560Y010095D01*
X026560Y010059D01*
X026571Y009987D01*
X026593Y009918D01*
X026626Y009855D01*
X025610Y009855D01*
X025512Y009953D01*
X025007Y009953D01*
X024901Y009848D01*
X024901Y009342D01*
X025007Y009237D01*
X025512Y009237D01*
X025610Y009335D01*
X026626Y009335D01*
X026593Y009272D01*
X026571Y009203D01*
X026560Y009131D01*
X026560Y009095D01*
X026560Y009059D01*
X026571Y008987D01*
X026593Y008918D01*
X026626Y008855D01*
X024853Y008855D01*
X024856Y008857D01*
X024920Y009011D01*
X024920Y009179D01*
X024856Y009333D01*
X024737Y009451D01*
X024583Y009515D01*
X023936Y009515D01*
X023782Y009451D01*
X023776Y009446D01*
X021609Y011613D01*
X021641Y011602D01*
X021720Y011590D01*
X021760Y011590D01*
X021799Y011590D01*
X021878Y011602D01*
X021953Y011627D01*
X022000Y011651D01*
X022000Y011543D01*
X022039Y011448D01*
X023539Y009948D01*
X023612Y009875D01*
X023670Y009851D01*
X023782Y009739D01*
X023936Y009675D01*
X024583Y009675D01*
X024737Y009739D01*
X024856Y009857D01*
X024920Y010011D01*
X024920Y010179D01*
X024856Y010333D01*
X024737Y010451D01*
X024583Y010515D01*
X023936Y010515D01*
X023782Y010451D01*
X023776Y010446D01*
X022539Y011683D01*
X022667Y011630D01*
X022852Y011630D01*
X022901Y011650D01*
X022901Y011342D01*
X023007Y011237D01*
X023250Y011237D01*
X023375Y011112D02*
X023110Y011112D01*
X022901Y011351D02*
X022872Y011351D01*
X022901Y011589D02*
X022633Y011589D01*
X022375Y011112D02*
X022110Y011112D01*
X022136Y011351D02*
X021872Y011351D01*
X021760Y011590D02*
X021760Y012095D01*
X021760Y012095D01*
X021760Y012095D01*
X021760Y012600D01*
X021799Y012600D01*
X021878Y012588D01*
X021953Y012563D01*
X022000Y012539D01*
X022000Y014487D01*
X019652Y016835D01*
X019155Y016835D01*
X019154Y016832D01*
X019023Y016701D01*
X018852Y016630D01*
X018667Y016630D01*
X018496Y016701D01*
X018365Y016832D01*
X018364Y016835D01*
X018172Y016835D01*
X017956Y016620D01*
X017563Y016620D01*
X017520Y016663D01*
X017520Y016527D01*
X017563Y016570D01*
X017956Y016570D01*
X018172Y016355D01*
X018364Y016355D01*
X018365Y016358D01*
X018496Y016489D01*
X018667Y016560D01*
X018852Y016560D01*
X019023Y016489D01*
X019154Y016358D01*
X019155Y016355D01*
X019811Y016355D01*
X019907Y016315D01*
X019980Y016242D01*
X021480Y014742D01*
X021520Y014647D01*
X021520Y012539D01*
X021566Y012563D01*
X021641Y012588D01*
X021720Y012600D01*
X021760Y012600D01*
X021760Y012095D01*
X021760Y011590D01*
X021633Y011589D02*
X022000Y011589D01*
X021760Y011828D02*
X021760Y011828D01*
X021760Y012066D02*
X021760Y012066D01*
X021760Y012305D02*
X021760Y012305D01*
X021760Y012543D02*
X021760Y012543D01*
X021993Y012543D02*
X022000Y012543D01*
X022000Y012782D02*
X021520Y012782D01*
X021520Y013020D02*
X022000Y013020D01*
X022000Y013259D02*
X021520Y013259D01*
X021520Y013497D02*
X022000Y013497D01*
X022000Y013736D02*
X021520Y013736D01*
X021520Y013974D02*
X022000Y013974D01*
X022000Y014213D02*
X021520Y014213D01*
X021520Y014451D02*
X022000Y014451D01*
X021797Y014690D02*
X021502Y014690D01*
X021559Y014928D02*
X021294Y014928D01*
X021320Y015167D02*
X021056Y015167D01*
X021082Y015405D02*
X020817Y015405D01*
X020843Y015644D02*
X020579Y015644D01*
X020605Y015882D02*
X020340Y015882D01*
X020366Y016121D02*
X020102Y016121D01*
X020128Y016359D02*
X019153Y016359D01*
X019889Y016598D02*
X017520Y016598D01*
X018168Y016359D02*
X018366Y016359D01*
X018647Y017552D02*
X017975Y017552D01*
X018127Y017790D02*
X018407Y017790D01*
X018872Y017552D02*
X024647Y017552D01*
X024872Y017552D02*
X025544Y017552D01*
X025392Y017790D02*
X025112Y017790D01*
X024407Y017790D02*
X019112Y017790D01*
X019225Y018029D02*
X024295Y018029D01*
X024327Y018267D02*
X019192Y018267D01*
X018984Y018506D02*
X024535Y018506D01*
X024453Y018744D02*
X019066Y018744D01*
X019216Y018983D02*
X024303Y018983D01*
X024308Y019221D02*
X019211Y019221D01*
X019053Y019460D02*
X024466Y019460D01*
X024503Y019698D02*
X019016Y019698D01*
X019197Y019937D02*
X024322Y019937D01*
X024295Y020175D02*
X019225Y020175D01*
X019099Y020414D02*
X024420Y020414D01*
X024614Y020652D02*
X018905Y020652D01*
X018614Y020652D02*
X017989Y020652D01*
X018113Y020414D02*
X018420Y020414D01*
X019178Y020891D02*
X024341Y020891D01*
X024295Y021129D02*
X019225Y021129D01*
X019145Y021368D02*
X024374Y021368D01*
X024360Y021845D02*
X019159Y021845D01*
X019225Y022083D02*
X024295Y022083D01*
X024350Y022322D02*
X019169Y022322D01*
X019121Y022799D02*
X024398Y022799D01*
X024365Y022832D02*
X024496Y022701D01*
X024667Y022630D01*
X024852Y022630D01*
X025023Y022701D01*
X025117Y022795D01*
X025387Y022795D01*
X025563Y022620D01*
X025956Y022620D01*
X026235Y022898D01*
X026235Y023292D01*
X025956Y023570D01*
X025563Y023570D01*
X025387Y023395D01*
X025117Y023395D01*
X025023Y023489D01*
X024852Y023560D01*
X024667Y023560D01*
X024496Y023489D01*
X024365Y023358D01*
X024295Y023187D01*
X024295Y023003D01*
X024365Y022832D01*
X024295Y023037D02*
X019225Y023037D01*
X019188Y023276D02*
X024331Y023276D01*
X024556Y023514D02*
X018963Y023514D01*
X019075Y023753D02*
X024444Y023753D01*
X024496Y023701D02*
X024667Y023630D01*
X024852Y023630D01*
X025023Y023701D01*
X025117Y023795D01*
X025387Y023795D01*
X025563Y023620D01*
X025956Y023620D01*
X026235Y023898D01*
X026235Y024292D01*
X025956Y024570D01*
X025563Y024570D01*
X025387Y024395D01*
X025117Y024395D01*
X025023Y024489D01*
X024852Y024560D01*
X024667Y024560D01*
X024496Y024489D01*
X024365Y024358D01*
X024295Y024187D01*
X024295Y024003D01*
X024365Y023832D01*
X024496Y023701D01*
X024299Y023991D02*
X019220Y023991D01*
X019207Y024230D02*
X024312Y024230D01*
X024475Y024468D02*
X019044Y024468D01*
X018953Y024627D02*
X019024Y024663D01*
X019088Y024710D01*
X019145Y024766D01*
X019191Y024830D01*
X019228Y024901D01*
X019252Y024977D01*
X019265Y025055D01*
X019265Y025095D01*
X018760Y025095D01*
X018760Y025095D01*
X018760Y025335D01*
X018760Y025335D01*
X018760Y025095D01*
X018760Y025095D01*
X018760Y024590D01*
X018799Y024590D01*
X018878Y024602D01*
X018953Y024627D01*
X019084Y024707D02*
X024490Y024707D01*
X024318Y024945D02*
X019242Y024945D01*
X019257Y025184D02*
X024295Y025184D01*
X025029Y024707D02*
X025476Y024707D01*
X025460Y024468D02*
X025044Y024468D01*
X024760Y024095D02*
X025760Y024095D01*
X026059Y024468D02*
X026681Y024468D01*
X026780Y024707D02*
X026043Y024707D01*
X026235Y024230D02*
X026512Y024230D01*
X026489Y023991D02*
X026235Y023991D01*
X026089Y023753D02*
X026619Y023753D01*
X026734Y023514D02*
X026013Y023514D01*
X026235Y023276D02*
X026525Y023276D01*
X026489Y023037D02*
X026235Y023037D01*
X026135Y022799D02*
X026589Y022799D01*
X026807Y022560D02*
X025967Y022560D01*
X026205Y022322D02*
X026537Y022322D01*
X026489Y022083D02*
X026235Y022083D01*
X025881Y021606D02*
X016138Y021606D01*
X015890Y021368D02*
X017360Y021368D01*
X018159Y021368D02*
X018374Y021368D01*
X017530Y020652D02*
X015570Y020652D01*
X015809Y020414D02*
X017406Y020414D01*
X017484Y019698D02*
X016024Y019698D01*
X016263Y019460D02*
X017452Y019460D01*
X018067Y019460D02*
X018466Y019460D01*
X018503Y019698D02*
X018035Y019698D01*
X018081Y018744D02*
X018453Y018744D01*
X018535Y018506D02*
X018021Y018506D01*
X017498Y018506D02*
X016717Y018506D01*
X016478Y018744D02*
X017438Y018744D01*
X015958Y018029D02*
X015180Y018029D01*
X015180Y017921D02*
X015180Y018269D01*
X014933Y018515D01*
X014586Y018515D01*
X014426Y018355D01*
X014073Y018355D01*
X013977Y018451D01*
X013823Y018515D01*
X013176Y018515D01*
X013022Y018451D01*
X012903Y018333D01*
X012840Y018179D01*
X012840Y018011D01*
X012903Y017857D01*
X013022Y017739D01*
X013176Y017675D01*
X013823Y017675D01*
X013977Y017739D01*
X014073Y017835D01*
X014426Y017835D01*
X014586Y017675D01*
X014933Y017675D01*
X015180Y017921D01*
X015049Y017790D02*
X015893Y017790D01*
X015514Y017552D02*
X012227Y017552D01*
X011989Y017790D02*
X012971Y017790D01*
X012840Y018029D02*
X011750Y018029D01*
X011512Y018267D02*
X012876Y018267D01*
X013153Y018506D02*
X010366Y018506D01*
X010343Y018675D02*
X010497Y018739D01*
X010616Y018857D01*
X010680Y019011D01*
X010680Y019179D01*
X010616Y019333D01*
X010520Y019429D01*
X010520Y020147D01*
X010480Y020242D01*
X010407Y020315D01*
X010180Y020543D01*
X010180Y020769D01*
X009933Y021015D01*
X009586Y021015D01*
X009340Y020769D01*
X009340Y020421D01*
X009586Y020175D01*
X009812Y020175D01*
X010000Y019987D01*
X010000Y019515D01*
X009696Y019515D01*
X009542Y019451D01*
X009423Y019333D01*
X009360Y019179D01*
X009360Y019011D01*
X009423Y018857D01*
X009542Y018739D01*
X009696Y018675D01*
X010343Y018675D01*
X010503Y018744D02*
X013017Y018744D01*
X013022Y018739D02*
X013176Y018675D01*
X013823Y018675D01*
X013977Y018739D01*
X014096Y018857D01*
X014160Y019011D01*
X014160Y019179D01*
X014096Y019333D01*
X013977Y019451D01*
X013823Y019515D01*
X013176Y019515D01*
X013022Y019451D01*
X012926Y019355D01*
X012867Y019355D01*
X009407Y022815D01*
X009311Y022855D01*
X006948Y022855D01*
X006852Y022815D01*
X005824Y021787D01*
X005312Y021787D01*
X004947Y021423D01*
X004947Y020907D01*
X005312Y020543D01*
X005827Y020543D01*
X006192Y020907D01*
X006192Y021420D01*
X007107Y022335D01*
X009152Y022335D01*
X012539Y018948D01*
X012612Y018875D01*
X012708Y018835D01*
X012926Y018835D01*
X013022Y018739D01*
X012504Y018983D02*
X010668Y018983D01*
X010662Y019221D02*
X012266Y019221D01*
X012027Y019460D02*
X010520Y019460D01*
X010520Y019698D02*
X011789Y019698D01*
X011550Y019937D02*
X010520Y019937D01*
X010508Y020175D02*
X011312Y020175D01*
X011073Y020414D02*
X010309Y020414D01*
X010180Y020652D02*
X010835Y020652D01*
X010596Y020891D02*
X010058Y020891D01*
X010358Y021129D02*
X009142Y021129D01*
X009142Y021117D02*
X008777Y020753D01*
X008262Y020753D01*
X007897Y021117D01*
X007897Y021633D01*
X008262Y021997D01*
X008777Y021997D01*
X009142Y021633D01*
X009142Y021117D01*
X009142Y021368D02*
X010119Y021368D01*
X009881Y021606D02*
X009142Y021606D01*
X008930Y021845D02*
X009642Y021845D01*
X009404Y022083D02*
X006855Y022083D01*
X006617Y021845D02*
X008109Y021845D01*
X007897Y021606D02*
X006378Y021606D01*
X006192Y021368D02*
X007897Y021368D01*
X007897Y021129D02*
X006192Y021129D01*
X006175Y020891D02*
X008124Y020891D01*
X008915Y020891D02*
X009461Y020891D01*
X009340Y020652D02*
X005937Y020652D01*
X005202Y020652D02*
X004520Y020652D01*
X004520Y020414D02*
X009347Y020414D01*
X009586Y020175D02*
X004520Y020175D01*
X004520Y019937D02*
X010000Y019937D01*
X010000Y019698D02*
X004520Y019698D01*
X004520Y019460D02*
X009562Y019460D01*
X009377Y019221D02*
X004520Y019221D01*
X004520Y018983D02*
X004714Y018983D01*
X005078Y018983D02*
X005078Y018983D01*
X005078Y019102D02*
X005078Y018095D01*
X005078Y018095D01*
X005078Y018095D01*
X005078Y017088D01*
X005127Y017088D01*
X005222Y017103D01*
X005314Y017133D01*
X005400Y017176D01*
X005478Y017233D01*
X005547Y017301D01*
X005603Y017380D01*
X005647Y017466D01*
X005677Y017558D01*
X005692Y017653D01*
X005692Y018095D01*
X005078Y018095D01*
X005692Y018095D01*
X005692Y018537D01*
X005677Y018632D01*
X005647Y018724D01*
X005603Y018810D01*
X005547Y018888D01*
X005478Y018957D01*
X005400Y019014D01*
X005314Y019057D01*
X005222Y019087D01*
X005127Y019102D01*
X005078Y019102D01*
X005078Y018744D02*
X005078Y018744D01*
X005078Y018506D02*
X005078Y018506D01*
X005078Y018267D02*
X005078Y018267D01*
X005078Y018095D02*
X005078Y018095D01*
X005078Y018029D02*
X005078Y018029D01*
X005078Y017790D02*
X005078Y017790D01*
X005078Y017552D02*
X005078Y017552D01*
X005078Y017313D02*
X005078Y017313D01*
X004602Y017313D02*
X004520Y017313D01*
X004520Y017075D02*
X009360Y017075D01*
X009360Y017011D02*
X009423Y016857D01*
X009542Y016739D01*
X009696Y016675D01*
X010343Y016675D01*
X010497Y016739D01*
X010616Y016857D01*
X010680Y017011D01*
X010680Y017179D01*
X010616Y017333D01*
X010497Y017451D01*
X010343Y017515D01*
X009696Y017515D01*
X009542Y017451D01*
X009423Y017333D01*
X009360Y017179D01*
X009360Y017011D01*
X009445Y016836D02*
X004520Y016836D01*
X004625Y016598D02*
X005447Y016598D01*
X005379Y016530D02*
X005292Y016319D01*
X005292Y016091D01*
X005379Y015880D01*
X005448Y015812D01*
X005421Y015792D01*
X005363Y015734D01*
X005315Y015668D01*
X005278Y015595D01*
X005252Y015517D01*
X005240Y015436D01*
X005240Y015095D01*
X005240Y014754D01*
X005252Y014673D01*
X005278Y014595D01*
X005315Y014522D01*
X005363Y014456D01*
X005421Y014398D01*
X005487Y014350D01*
X005560Y014313D01*
X005638Y014288D01*
X005719Y014275D01*
X005760Y014275D01*
X005800Y014275D01*
X005881Y014288D01*
X005959Y014313D01*
X006032Y014350D01*
X006098Y014398D01*
X006156Y014456D01*
X006204Y014522D01*
X006241Y014595D01*
X006267Y014673D01*
X006280Y014754D01*
X006280Y015095D01*
X006280Y015436D01*
X006267Y015517D01*
X006241Y015595D01*
X006223Y015632D01*
X006338Y015632D01*
X006280Y015490D01*
X006280Y014700D01*
X006353Y014523D01*
X006488Y014388D01*
X006664Y014315D01*
X006855Y014315D01*
X007031Y014388D01*
X007166Y014523D01*
X007240Y014700D01*
X007240Y014755D01*
X008119Y014755D01*
X008250Y014624D01*
X008250Y014494D01*
X008327Y014306D01*
X008471Y014163D01*
X008658Y014085D01*
X008861Y014085D01*
X009048Y014163D01*
X009192Y014306D01*
X009270Y014494D01*
X009270Y014696D01*
X009192Y014884D01*
X009048Y015027D01*
X008861Y015105D01*
X008730Y015105D01*
X008548Y015288D01*
X008452Y015383D01*
X008327Y015435D01*
X007240Y015435D01*
X007240Y015490D01*
X007166Y015667D01*
X007046Y015787D01*
X007140Y015880D01*
X007227Y016091D01*
X007227Y016319D01*
X007140Y016530D01*
X006978Y016692D01*
X006767Y016779D01*
X005752Y016779D01*
X005541Y016692D01*
X005379Y016530D01*
X005309Y016359D02*
X004863Y016359D01*
X005020Y016121D02*
X005292Y016121D01*
X005379Y015882D02*
X005020Y015882D01*
X005176Y015644D02*
X005303Y015644D01*
X005240Y015405D02*
X005240Y015405D01*
X005240Y015167D02*
X005240Y015167D01*
X005240Y015095D02*
X005760Y015095D01*
X006280Y015095D01*
X005760Y015095D01*
X005760Y015095D01*
X005760Y014275D01*
X005760Y015095D01*
X005760Y015095D01*
X005240Y015095D01*
X005240Y014928D02*
X005240Y014928D01*
X005235Y014690D02*
X005250Y014690D01*
X005368Y014451D02*
X005094Y014451D01*
X004425Y014451D02*
X003560Y014451D01*
X003560Y014213D02*
X008421Y014213D01*
X008474Y013974D02*
X009045Y013974D01*
X009098Y014213D02*
X009509Y014213D01*
X009252Y014451D02*
X016979Y014451D01*
X017260Y014595D02*
X015260Y016595D01*
X012760Y016595D01*
X011260Y018095D01*
X010260Y018095D01*
X010549Y017790D02*
X011140Y017790D01*
X011379Y017552D02*
X008039Y017552D01*
X008054Y017587D02*
X007966Y017376D01*
X007805Y017215D01*
X007594Y017128D01*
X007366Y017128D01*
X007155Y017215D01*
X006994Y017376D01*
X006906Y017587D01*
X006906Y018603D01*
X006994Y018814D01*
X007155Y018975D01*
X007366Y019062D01*
X007594Y019062D01*
X007805Y018975D01*
X007966Y018814D01*
X008054Y018603D01*
X008054Y018435D01*
X008119Y018435D01*
X008250Y018566D01*
X008250Y018696D01*
X008327Y018884D01*
X008471Y019027D01*
X008658Y019105D01*
X008861Y019105D01*
X009048Y019027D01*
X009192Y018884D01*
X009270Y018696D01*
X009270Y018494D01*
X009192Y018306D01*
X009048Y018163D01*
X008861Y018085D01*
X008730Y018085D01*
X008452Y017807D01*
X008327Y017755D01*
X008054Y017755D01*
X008054Y017587D01*
X007903Y017313D02*
X009415Y017313D01*
X009491Y017790D02*
X008412Y017790D01*
X008674Y018029D02*
X009360Y018029D01*
X009396Y018267D02*
X009153Y018267D01*
X009270Y018506D02*
X009673Y018506D01*
X009537Y018744D02*
X009250Y018744D01*
X009371Y018983D02*
X009093Y018983D01*
X008426Y018983D02*
X007787Y018983D01*
X007995Y018744D02*
X008269Y018744D01*
X008189Y018506D02*
X008054Y018506D01*
X007173Y018983D02*
X005443Y018983D01*
X005637Y018744D02*
X006965Y018744D01*
X006906Y018506D02*
X005692Y018506D01*
X005692Y018267D02*
X006906Y018267D01*
X006906Y018029D02*
X005692Y018029D01*
X005692Y017790D02*
X006906Y017790D01*
X006921Y017552D02*
X005675Y017552D01*
X005555Y017313D02*
X007057Y017313D01*
X007072Y016598D02*
X012333Y016598D01*
X012094Y016836D02*
X010594Y016836D01*
X010680Y017075D02*
X011856Y017075D01*
X011617Y017313D02*
X010624Y017313D01*
X010343Y016515D02*
X009696Y016515D01*
X009542Y016451D01*
X009423Y016333D01*
X009360Y016179D01*
X009360Y016011D01*
X009423Y015857D01*
X009542Y015739D01*
X009696Y015675D01*
X010343Y015675D01*
X010497Y015739D01*
X010616Y015857D01*
X010680Y016011D01*
X010680Y016179D01*
X010616Y016333D01*
X010497Y016451D01*
X010343Y016515D01*
X010589Y016359D02*
X012571Y016359D01*
X012840Y016121D02*
X010680Y016121D01*
X010626Y015882D02*
X012893Y015882D01*
X014106Y015882D02*
X015548Y015882D01*
X015310Y016121D02*
X014160Y016121D01*
X014569Y015555D02*
X014300Y015286D01*
X014300Y015095D01*
X014300Y014904D01*
X014569Y014635D01*
X014760Y014635D01*
X014950Y014635D01*
X015220Y014904D01*
X015220Y015095D01*
X015220Y015286D01*
X014950Y015555D01*
X014760Y015555D01*
X014760Y015095D01*
X015220Y015095D01*
X014760Y015095D01*
X014760Y015095D01*
X014760Y015095D01*
X014760Y014635D01*
X014760Y015095D01*
X014760Y015095D01*
X014760Y015555D01*
X014569Y015555D01*
X014419Y015405D02*
X008400Y015405D01*
X008669Y015167D02*
X014300Y015167D01*
X014300Y015095D02*
X014760Y015095D01*
X014300Y015095D01*
X014300Y014928D02*
X009148Y014928D01*
X009270Y014690D02*
X014514Y014690D01*
X014760Y014690D02*
X014760Y014690D01*
X014760Y014928D02*
X014760Y014928D01*
X014760Y015095D02*
X014760Y015095D01*
X014760Y015167D02*
X014760Y015167D01*
X014760Y015405D02*
X014760Y015405D01*
X015100Y015405D02*
X016025Y015405D01*
X015787Y015644D02*
X007176Y015644D01*
X007140Y015882D02*
X009413Y015882D01*
X009360Y016121D02*
X007227Y016121D01*
X007210Y016359D02*
X009450Y016359D01*
X008184Y014690D02*
X007235Y014690D01*
X007094Y014451D02*
X008267Y014451D01*
X008045Y013974D02*
X007474Y013974D01*
X007433Y014015D02*
X007086Y014015D01*
X006840Y013769D01*
X006840Y013421D01*
X007086Y013175D01*
X007433Y013175D01*
X007680Y013421D01*
X007680Y013769D01*
X007433Y014015D01*
X007680Y013736D02*
X007840Y013736D01*
X007840Y013497D02*
X007680Y013497D01*
X007517Y013259D02*
X008000Y013259D01*
X008000Y013020D02*
X003560Y013020D01*
X003560Y012782D02*
X008000Y012782D01*
X007840Y012543D02*
X003560Y012543D01*
X003560Y012305D02*
X007601Y012305D01*
X007363Y012066D02*
X003560Y012066D01*
X003560Y011828D02*
X004398Y011828D01*
X004340Y011589D02*
X003560Y011589D01*
X003560Y011351D02*
X004147Y011351D01*
X004000Y011112D02*
X003560Y011112D01*
X003560Y010874D02*
X004000Y010874D01*
X004000Y010635D02*
X003560Y010635D01*
X003560Y010397D02*
X004000Y010397D01*
X004000Y010158D02*
X003560Y010158D01*
X003560Y009920D02*
X004000Y009920D01*
X004000Y009681D02*
X003560Y009681D01*
X003560Y009443D02*
X004000Y009443D01*
X004000Y009204D02*
X003560Y009204D01*
X003560Y008966D02*
X004000Y008966D01*
X004000Y008727D02*
X003560Y008727D01*
X003560Y008489D02*
X004000Y008489D01*
X004000Y008250D02*
X003560Y008250D01*
X003560Y008012D02*
X004000Y008012D01*
X004000Y007773D02*
X003560Y007773D01*
X003560Y007535D02*
X004000Y007535D01*
X004000Y007296D02*
X003560Y007296D01*
X003560Y007058D02*
X004000Y007058D01*
X004168Y006819D02*
X003560Y006819D01*
X003560Y006581D02*
X004340Y006581D01*
X004419Y006342D02*
X003560Y006342D01*
X003560Y006104D02*
X003934Y006104D01*
X003840Y005865D02*
X003560Y005865D01*
X003560Y005627D02*
X003840Y005627D01*
X003840Y005388D02*
X003560Y005388D01*
X003560Y005150D02*
X003890Y005150D01*
X003560Y004911D02*
X005982Y004911D01*
X006000Y005150D02*
X005629Y005150D01*
X005680Y005388D02*
X006000Y005388D01*
X006000Y005627D02*
X005680Y005627D01*
X005680Y005865D02*
X006000Y005865D01*
X005917Y006104D02*
X005585Y006104D01*
X005520Y006342D02*
X005840Y006342D01*
X005840Y006581D02*
X005520Y006581D01*
X005520Y006819D02*
X005840Y006819D01*
X005897Y007058D02*
X005520Y007058D01*
X005520Y007296D02*
X007093Y007296D01*
X006897Y007058D02*
X006622Y007058D01*
X006680Y006819D02*
X006840Y006819D01*
X006840Y006581D02*
X006680Y006581D01*
X006680Y006342D02*
X006840Y006342D01*
X006917Y006104D02*
X006602Y006104D01*
X006520Y005865D02*
X007000Y005865D01*
X006923Y005627D02*
X006520Y005627D01*
X006520Y005388D02*
X006685Y005388D01*
X005840Y004673D02*
X003560Y004673D01*
X003560Y004434D02*
X005840Y004434D01*
X006065Y004196D02*
X003560Y004196D01*
X003560Y003957D02*
X006028Y003957D01*
X005840Y003719D02*
X003560Y003719D01*
X003560Y003480D02*
X005840Y003480D01*
X006019Y003242D02*
X005376Y003242D01*
X005143Y003242D02*
X004376Y003242D01*
X004143Y003242D02*
X003560Y003242D01*
X003560Y003003D02*
X003874Y003003D01*
X003840Y002765D02*
X003560Y002765D01*
X003560Y002526D02*
X003840Y002526D01*
X003840Y002288D02*
X003560Y002288D01*
X003560Y002049D02*
X003972Y002049D01*
X003560Y001811D02*
X013676Y001811D01*
X013438Y002049D02*
X005547Y002049D01*
X005680Y002288D02*
X007973Y002288D01*
X008546Y002288D02*
X008973Y002288D01*
X008840Y002526D02*
X008680Y002526D01*
X008680Y002765D02*
X008840Y002765D01*
X009074Y003003D02*
X008535Y003003D01*
X008774Y003242D02*
X010538Y003242D01*
X010777Y003480D02*
X009012Y003480D01*
X009251Y003719D02*
X011000Y003719D01*
X011000Y003957D02*
X009484Y003957D01*
X009407Y003875D02*
X009407Y003875D01*
X009520Y004196D02*
X011000Y004196D01*
X011000Y004434D02*
X009520Y004434D01*
X009520Y004673D02*
X011010Y004673D01*
X011208Y004911D02*
X009520Y004911D01*
X009520Y005150D02*
X011446Y005150D01*
X011685Y005388D02*
X010646Y005388D01*
X010680Y005627D02*
X011923Y005627D01*
X012182Y005150D02*
X017000Y005150D01*
X017000Y005388D02*
X014646Y005388D01*
X014680Y005627D02*
X017000Y005627D01*
X017000Y005865D02*
X014770Y005865D01*
X014770Y006104D02*
X014917Y006104D01*
X014903Y006117D02*
X015022Y005999D01*
X015176Y005935D01*
X015343Y005935D01*
X015497Y005999D01*
X015616Y006117D01*
X015680Y006271D01*
X015680Y006919D01*
X015616Y007073D01*
X015497Y007191D01*
X015343Y007255D01*
X015176Y007255D01*
X015022Y007191D01*
X014903Y007073D01*
X014840Y006919D01*
X014840Y006271D01*
X014903Y006117D01*
X014840Y006342D02*
X014770Y006342D01*
X014770Y006581D02*
X014840Y006581D01*
X014840Y006819D02*
X014770Y006819D01*
X014840Y007058D02*
X014897Y007058D01*
X015078Y007296D02*
X020000Y007296D01*
X019952Y007535D02*
X015317Y007535D01*
X015555Y007773D02*
X019714Y007773D01*
X018616Y007073D02*
X018497Y007191D01*
X018343Y007255D01*
X018176Y007255D01*
X018022Y007191D01*
X017903Y007073D01*
X017840Y006919D01*
X017840Y006271D01*
X017903Y006117D01*
X018022Y005999D01*
X018176Y005935D01*
X018343Y005935D01*
X018497Y005999D01*
X018616Y006117D01*
X018680Y006271D01*
X018680Y006919D01*
X018616Y007073D01*
X018622Y007058D02*
X018897Y007058D01*
X018840Y006819D02*
X018680Y006819D01*
X018680Y006581D02*
X018840Y006581D01*
X018840Y006342D02*
X018680Y006342D01*
X018602Y006104D02*
X018917Y006104D01*
X018936Y005865D02*
X017520Y005865D01*
X017520Y005627D02*
X018840Y005627D01*
X018873Y005388D02*
X017520Y005388D01*
X017520Y005150D02*
X019000Y005150D01*
X019000Y004911D02*
X017520Y004911D01*
X017520Y004673D02*
X019000Y004673D01*
X019053Y004434D02*
X017520Y004434D01*
X017520Y004196D02*
X019291Y004196D01*
X019530Y003957D02*
X017520Y003957D01*
X017520Y003719D02*
X019768Y003719D01*
X020000Y003480D02*
X017520Y003480D01*
X017520Y003242D02*
X020000Y003242D01*
X020000Y003003D02*
X019445Y003003D01*
X019680Y002765D02*
X019840Y002765D01*
X019840Y002526D02*
X019680Y002526D01*
X019074Y003003D02*
X017719Y003003D01*
X017958Y002765D02*
X018840Y002765D01*
X018840Y002526D02*
X018196Y002526D01*
X017938Y002049D02*
X014173Y002049D01*
X013973Y002288D02*
X013935Y002288D01*
X013840Y002526D02*
X013696Y002526D01*
X013840Y002765D02*
X013458Y002765D01*
X013219Y003003D02*
X014074Y003003D01*
X014445Y003003D02*
X015533Y003003D01*
X015434Y003242D02*
X012981Y003242D01*
X012755Y003480D02*
X015410Y003480D01*
X015443Y003719D02*
X012755Y003719D01*
X012598Y003957D02*
X015545Y003957D01*
X015790Y004196D02*
X012560Y004196D01*
X012729Y004434D02*
X017000Y004434D01*
X017000Y004196D02*
X016729Y004196D01*
X016974Y003957D02*
X017000Y003957D01*
X017000Y004673D02*
X012755Y004673D01*
X012644Y004911D02*
X017000Y004911D01*
X016497Y005999D02*
X016343Y005935D01*
X016176Y005935D01*
X016022Y005999D01*
X015903Y006117D01*
X015840Y006271D01*
X015840Y006919D01*
X015903Y007073D01*
X016022Y007191D01*
X016176Y007255D01*
X016343Y007255D01*
X016497Y007191D01*
X016616Y007073D01*
X016680Y006919D01*
X016680Y006271D01*
X016616Y006117D01*
X016497Y005999D01*
X016602Y006104D02*
X016917Y006104D01*
X016840Y006342D02*
X016680Y006342D01*
X016680Y006581D02*
X016840Y006581D01*
X016840Y006819D02*
X016680Y006819D01*
X016622Y007058D02*
X016897Y007058D01*
X017622Y007058D02*
X017897Y007058D01*
X017840Y006819D02*
X017680Y006819D01*
X017680Y006581D02*
X017840Y006581D01*
X017840Y006342D02*
X017680Y006342D01*
X017602Y006104D02*
X017917Y006104D01*
X019583Y005865D02*
X019936Y005865D01*
X019917Y006104D02*
X019602Y006104D01*
X019680Y006342D02*
X019840Y006342D01*
X019840Y006581D02*
X019680Y006581D01*
X019680Y006819D02*
X019840Y006819D01*
X019897Y007058D02*
X019622Y007058D01*
X020622Y007058D02*
X020897Y007058D01*
X020840Y006819D02*
X020680Y006819D01*
X020680Y006581D02*
X020840Y006581D01*
X020840Y006342D02*
X020680Y006342D01*
X020602Y006104D02*
X020917Y006104D01*
X020583Y005865D02*
X021936Y005865D01*
X021917Y006104D02*
X021602Y006104D01*
X021680Y006342D02*
X021840Y006342D01*
X021840Y006581D02*
X021680Y006581D01*
X021680Y006819D02*
X021840Y006819D01*
X021897Y007058D02*
X021622Y007058D01*
X022622Y007058D02*
X022929Y007058D01*
X022680Y006819D02*
X023702Y006819D01*
X023782Y006451D02*
X023663Y006333D01*
X023600Y006179D01*
X023600Y006011D01*
X023663Y005857D01*
X023782Y005739D01*
X023936Y005675D01*
X024583Y005675D01*
X024737Y005739D01*
X024856Y005857D01*
X024920Y006011D01*
X024920Y006179D01*
X024856Y006333D01*
X024737Y006451D01*
X024583Y006515D01*
X023936Y006515D01*
X023782Y006451D01*
X023673Y006342D02*
X022680Y006342D01*
X022680Y006581D02*
X030377Y006581D01*
X030616Y006819D02*
X027817Y006819D01*
X027856Y006857D02*
X027920Y007011D01*
X027920Y007179D01*
X027856Y007333D01*
X027737Y007451D01*
X027583Y007515D01*
X026936Y007515D01*
X026782Y007451D01*
X026663Y007333D01*
X026600Y007179D01*
X026600Y007011D01*
X026663Y006857D01*
X026782Y006739D01*
X026936Y006675D01*
X027583Y006675D01*
X027737Y006739D01*
X027856Y006857D01*
X027920Y007058D02*
X030750Y007058D01*
X030750Y007296D02*
X027871Y007296D01*
X027828Y007773D02*
X030750Y007773D01*
X030750Y007535D02*
X023188Y007535D01*
X023748Y007773D02*
X021067Y007773D01*
X022602Y006104D02*
X023600Y006104D01*
X023660Y005865D02*
X022583Y005865D01*
X022680Y005627D02*
X029423Y005627D01*
X029662Y005865D02*
X027859Y005865D01*
X027856Y005857D02*
X027920Y006011D01*
X027920Y006179D01*
X027856Y006333D01*
X027737Y006451D01*
X027583Y006515D01*
X026936Y006515D01*
X026782Y006451D01*
X026663Y006333D01*
X026600Y006179D01*
X026600Y006011D01*
X026663Y005857D01*
X026782Y005739D01*
X026936Y005675D01*
X027583Y005675D01*
X027737Y005739D01*
X027856Y005857D01*
X027920Y006104D02*
X029900Y006104D01*
X030139Y006342D02*
X027846Y006342D01*
X027800Y005388D02*
X029185Y005388D01*
X030205Y004673D02*
X031401Y004673D01*
X031401Y004434D02*
X029966Y004434D01*
X030443Y004911D02*
X031465Y004911D01*
X031946Y005150D02*
X030682Y005150D01*
X030920Y005388D02*
X032185Y005388D01*
X032423Y005627D02*
X031159Y005627D01*
X031397Y005865D02*
X032500Y005865D01*
X032500Y006104D02*
X031636Y006104D01*
X031874Y006342D02*
X032500Y006342D01*
X032500Y006581D02*
X032020Y006581D01*
X031996Y006819D02*
X032500Y006819D01*
X032500Y007058D02*
X031996Y007058D01*
X031996Y007296D02*
X032500Y007296D01*
X032500Y007535D02*
X031996Y007535D01*
X031996Y007773D02*
X032570Y007773D01*
X032808Y008012D02*
X032120Y008012D01*
X032211Y008250D02*
X033000Y008250D01*
X033000Y008489D02*
X032211Y008489D01*
X032211Y008727D02*
X033000Y008727D01*
X032901Y008966D02*
X032211Y008966D01*
X032094Y009204D02*
X032901Y009204D01*
X032996Y009443D02*
X031270Y009443D01*
X031270Y009681D02*
X033960Y009681D01*
X033960Y009443D02*
X033523Y009443D01*
X033618Y009204D02*
X033960Y009204D01*
X033960Y008966D02*
X033618Y008966D01*
X033520Y008727D02*
X033960Y008727D01*
X033960Y008489D02*
X033520Y008489D01*
X033520Y008250D02*
X033960Y008250D01*
X033960Y008012D02*
X033506Y008012D01*
X033305Y007773D02*
X033960Y007773D01*
X033388Y007535D02*
X033067Y007535D01*
X033020Y007296D02*
X033340Y007296D01*
X033340Y007058D02*
X033020Y007058D01*
X033020Y006819D02*
X033340Y006819D01*
X033440Y006581D02*
X033020Y006581D01*
X033020Y006342D02*
X033960Y006342D01*
X033844Y006104D02*
X033020Y006104D01*
X033020Y005865D02*
X033605Y005865D01*
X033367Y005627D02*
X033020Y005627D01*
X032920Y005388D02*
X033128Y005388D01*
X032890Y005150D02*
X032682Y005150D01*
X032651Y004911D02*
X032443Y004911D01*
X032413Y004673D02*
X032205Y004673D01*
X032174Y004434D02*
X032118Y004434D01*
X031936Y004196D02*
X028527Y004196D01*
X028765Y003957D02*
X031697Y003957D01*
X031459Y003719D02*
X029004Y003719D01*
X029242Y003480D02*
X031220Y003480D01*
X030982Y003242D02*
X029481Y003242D01*
X029719Y003003D02*
X030743Y003003D01*
X030401Y002765D02*
X029958Y002765D01*
X030196Y002526D02*
X030401Y002526D01*
X026641Y004911D02*
X024878Y004911D01*
X024856Y004857D02*
X024920Y005011D01*
X024920Y005179D01*
X024856Y005333D01*
X024737Y005451D01*
X024583Y005515D01*
X023936Y005515D01*
X023782Y005451D01*
X023663Y005333D01*
X023600Y005179D01*
X023600Y005011D01*
X023663Y004857D01*
X023782Y004739D01*
X023936Y004675D01*
X024583Y004675D01*
X024737Y004739D01*
X024856Y004857D01*
X024920Y005150D02*
X026600Y005150D01*
X026719Y005388D02*
X024800Y005388D01*
X024859Y005865D02*
X026660Y005865D01*
X026600Y006104D02*
X024920Y006104D01*
X024846Y006342D02*
X026673Y006342D01*
X026702Y006819D02*
X024817Y006819D01*
X024920Y007058D02*
X026600Y007058D01*
X026648Y007296D02*
X024871Y007296D01*
X024771Y007773D02*
X026691Y007773D01*
X026567Y008012D02*
X024920Y008012D01*
X024890Y008250D02*
X026586Y008250D01*
X026560Y008095D02*
X027260Y008095D01*
X027960Y008095D01*
X027260Y008095D01*
X027260Y008095D01*
X027260Y007635D01*
X027260Y008095D01*
X027260Y008095D01*
X026560Y008095D01*
X027260Y008095D02*
X027260Y008095D01*
X027260Y008012D02*
X027260Y008012D01*
X027260Y007773D02*
X027260Y007773D01*
X027952Y008012D02*
X028399Y008012D01*
X028308Y008250D02*
X027933Y008250D01*
X027893Y008855D02*
X027926Y008918D01*
X027948Y008987D01*
X027960Y009059D01*
X027960Y009095D01*
X027960Y009131D01*
X027948Y009203D01*
X027926Y009272D01*
X027893Y009335D01*
X028615Y009335D01*
X028514Y009293D01*
X028380Y009159D01*
X028308Y008985D01*
X028308Y008855D01*
X027893Y008855D01*
X027941Y008966D02*
X028308Y008966D01*
X028425Y009204D02*
X027948Y009204D01*
X027960Y009095D02*
X027260Y009095D01*
X027260Y009095D01*
X027960Y009095D01*
X027260Y009095D02*
X026560Y009095D01*
X027260Y009095D01*
X027260Y009095D01*
X026578Y008966D02*
X024900Y008966D01*
X024909Y009204D02*
X026571Y009204D01*
X026593Y009920D02*
X025546Y009920D01*
X024973Y009920D02*
X024881Y009920D01*
X024901Y009681D02*
X024598Y009681D01*
X024746Y009443D02*
X024901Y009443D01*
X024920Y010158D02*
X026564Y010158D01*
X026560Y010095D02*
X027260Y010095D01*
X026560Y010095D01*
X026670Y010397D02*
X024792Y010397D01*
X023852Y010635D02*
X023587Y010635D01*
X023613Y010874D02*
X023349Y010874D01*
X024110Y011112D02*
X030750Y011112D01*
X030750Y010874D02*
X028849Y010874D01*
X029087Y010635D02*
X030750Y010635D01*
X030750Y010397D02*
X029569Y010397D01*
X029618Y010158D02*
X030750Y010158D01*
X030750Y009920D02*
X029618Y009920D01*
X030041Y009681D02*
X030750Y009681D01*
X030750Y009443D02*
X030280Y009443D01*
X030618Y009204D02*
X030750Y009204D01*
X030735Y008966D02*
X030750Y008966D01*
X030735Y008727D02*
X030750Y008727D01*
X030735Y008489D02*
X030750Y008489D01*
X030735Y008250D02*
X030750Y008250D01*
X030750Y008012D02*
X030643Y008012D01*
X029876Y008012D02*
X029167Y008012D01*
X029258Y008250D02*
X029784Y008250D01*
X029784Y008489D02*
X029258Y008489D01*
X029258Y008727D02*
X029784Y008727D01*
X029784Y008966D02*
X029258Y008966D01*
X029142Y009204D02*
X029783Y009204D01*
X028901Y009920D02*
X027926Y009920D01*
X027955Y010158D02*
X028829Y010158D01*
X028590Y010397D02*
X027849Y010397D01*
X027260Y010397D02*
X027260Y010397D01*
X027260Y010158D02*
X027260Y010158D01*
X027260Y010095D02*
X027260Y010095D01*
X027260Y009920D02*
X027260Y009920D01*
X028789Y011828D02*
X030750Y011828D01*
X030750Y012066D02*
X028789Y012066D01*
X028789Y012305D02*
X030750Y012305D01*
X030750Y012543D02*
X028789Y012543D01*
X028789Y012782D02*
X030750Y012782D01*
X030750Y013020D02*
X028789Y013020D01*
X028789Y013259D02*
X030750Y013259D01*
X031270Y013259D02*
X031730Y013259D01*
X031730Y013020D02*
X031270Y013020D01*
X031270Y012782D02*
X031730Y012782D01*
X031730Y012543D02*
X031270Y012543D01*
X031270Y012305D02*
X031730Y012305D01*
X031730Y012066D02*
X031270Y012066D01*
X031270Y011828D02*
X031730Y011828D01*
X031270Y011589D02*
X033460Y011589D01*
X033460Y011351D02*
X031270Y011351D01*
X031270Y011112D02*
X033460Y011112D01*
X033557Y010874D02*
X031270Y010874D01*
X031270Y010635D02*
X033795Y010635D01*
X033876Y010397D02*
X031270Y010397D01*
X031270Y010158D02*
X033960Y010158D01*
X033960Y009920D02*
X031270Y009920D01*
X031270Y009204D02*
X031377Y009204D01*
X033760Y011095D02*
X033760Y011845D01*
X034010Y012095D01*
X034690Y012543D02*
X035783Y012543D01*
X036022Y012782D02*
X034648Y012782D01*
X034520Y013020D02*
X036260Y013020D01*
X037648Y012782D02*
X038830Y012782D01*
X038800Y012543D02*
X037690Y012543D01*
X037577Y012305D02*
X038873Y012305D01*
X038988Y013020D02*
X038109Y013020D01*
X037737Y013497D02*
X037684Y013497D01*
X041260Y014095D02*
X041260Y017145D01*
X041230Y017175D01*
X040726Y017552D02*
X038584Y017552D01*
X038822Y017790D02*
X040964Y017790D01*
X040607Y017313D02*
X038345Y017313D01*
X038107Y017075D02*
X040607Y017075D01*
X040688Y016836D02*
X037814Y016836D01*
X037848Y017552D02*
X035695Y017552D01*
X035938Y017790D02*
X038087Y017790D01*
X038325Y018029D02*
X036030Y018029D01*
X035991Y018267D02*
X036667Y018267D01*
X036429Y018506D02*
X035768Y018506D01*
X037332Y018267D02*
X038564Y018267D01*
X038802Y018506D02*
X037570Y018506D01*
X037622Y018744D02*
X039041Y018744D01*
X039279Y018983D02*
X037622Y018983D01*
X037474Y019221D02*
X039327Y019221D01*
X039538Y018506D02*
X039589Y018506D01*
X038507Y020652D02*
X041960Y020652D01*
X041960Y020891D02*
X038700Y020891D01*
X038762Y021129D02*
X041960Y021129D01*
X041960Y021368D02*
X038729Y021368D01*
X038991Y021606D02*
X041960Y021606D01*
X041960Y021845D02*
X039235Y021845D01*
X039312Y022083D02*
X041960Y022083D01*
X036705Y024230D02*
X034985Y024230D01*
X034754Y024468D02*
X036466Y024468D01*
X036377Y024707D02*
X034710Y024707D01*
X034546Y024945D02*
X036377Y024945D01*
X036488Y025184D02*
X028539Y025184D01*
X028300Y025422D02*
X036726Y025422D01*
X033973Y024945D02*
X033546Y024945D01*
X033710Y024707D02*
X033810Y024707D01*
X033810Y024468D02*
X033754Y024468D01*
X032973Y024945D02*
X032546Y024945D01*
X032710Y024707D02*
X032810Y024707D01*
X032810Y024468D02*
X032754Y024468D01*
X031973Y024945D02*
X031546Y024945D01*
X031710Y024707D02*
X031810Y024707D01*
X031810Y024468D02*
X031754Y024468D01*
X030973Y024945D02*
X030546Y024945D01*
X030710Y024707D02*
X030810Y024707D01*
X030810Y024468D02*
X030754Y024468D01*
X029989Y024230D02*
X029020Y024230D01*
X029020Y024468D02*
X029810Y024468D01*
X029810Y024707D02*
X028995Y024707D01*
X028777Y024945D02*
X029973Y024945D01*
X030019Y023991D02*
X029020Y023991D01*
X029020Y023753D02*
X029810Y023753D01*
X029810Y023514D02*
X029007Y023514D01*
X028808Y023276D02*
X029943Y023276D01*
X030000Y023037D02*
X028685Y023037D01*
X029118Y022799D02*
X030000Y022799D01*
X029857Y022560D02*
X029118Y022560D01*
X029097Y022322D02*
X029618Y022322D01*
X029380Y022083D02*
X028030Y022083D01*
X027982Y022322D02*
X028422Y022322D01*
X028401Y022560D02*
X027712Y022560D01*
X027930Y022799D02*
X028188Y022799D01*
X028311Y023514D02*
X027785Y023514D01*
X027900Y023753D02*
X028500Y023753D01*
X028500Y023991D02*
X028030Y023991D01*
X028007Y024230D02*
X028500Y024230D01*
X028500Y024468D02*
X027838Y024468D01*
X027495Y024707D02*
X028280Y024707D01*
X028042Y024945D02*
X027277Y024945D01*
X027039Y025184D02*
X027803Y025184D01*
X028062Y025661D02*
X041960Y025661D01*
X030995Y019698D02*
X030730Y019698D01*
X030756Y019460D02*
X030492Y019460D01*
X030518Y019221D02*
X030253Y019221D01*
X030279Y018983D02*
X030015Y018983D01*
X030041Y018744D02*
X029776Y018744D01*
X029802Y018506D02*
X029538Y018506D01*
X029564Y018267D02*
X029299Y018267D01*
X029325Y018029D02*
X029061Y018029D01*
X029087Y017790D02*
X028822Y017790D01*
X028848Y017552D02*
X028584Y017552D01*
X028610Y017313D02*
X028345Y017313D01*
X028371Y017075D02*
X028107Y017075D01*
X028133Y016836D02*
X027868Y016836D01*
X027894Y016598D02*
X027630Y016598D01*
X027656Y016359D02*
X027391Y016359D01*
X027417Y016121D02*
X027153Y016121D01*
X027179Y015882D02*
X026914Y015882D01*
X026940Y015644D02*
X025980Y015644D01*
X026122Y015405D02*
X026702Y015405D01*
X025539Y015644D02*
X024885Y015644D01*
X024634Y015644D02*
X021579Y015644D01*
X021340Y015882D02*
X024344Y015882D01*
X024295Y016121D02*
X021102Y016121D01*
X020863Y016359D02*
X024366Y016359D01*
X024363Y016836D02*
X020386Y016836D01*
X020148Y017075D02*
X024295Y017075D01*
X024347Y017313D02*
X019909Y017313D01*
X020625Y016598D02*
X026894Y016598D01*
X026656Y016359D02*
X026168Y016359D01*
X025351Y016359D02*
X025153Y016359D01*
X025107Y015405D02*
X025397Y015405D01*
X024412Y015405D02*
X021817Y015405D01*
X022056Y015167D02*
X022276Y015167D01*
X022993Y015167D02*
X024295Y015167D01*
X023982Y014928D02*
X023044Y014928D01*
X020760Y013595D02*
X019760Y014595D01*
X017260Y014595D01*
X017284Y014213D02*
X014510Y014213D01*
X014974Y013974D02*
X016045Y013974D01*
X016086Y014015D02*
X015840Y013769D01*
X015840Y013421D01*
X016086Y013175D01*
X016433Y013175D01*
X016680Y013421D01*
X016680Y013769D01*
X016433Y014015D01*
X016086Y014015D01*
X015840Y013736D02*
X015180Y013736D01*
X015180Y013497D02*
X015840Y013497D01*
X016002Y013259D02*
X015017Y013259D01*
X014502Y013259D02*
X014020Y013259D01*
X014020Y013020D02*
X017284Y013020D01*
X017284Y012898D02*
X017563Y012620D01*
X017956Y012620D01*
X018172Y012835D01*
X018364Y012835D01*
X018365Y012832D01*
X018496Y012701D01*
X018667Y012630D01*
X018852Y012630D01*
X019023Y012701D01*
X019154Y012832D01*
X019225Y013003D01*
X019225Y013187D01*
X019154Y013358D01*
X019023Y013489D01*
X018852Y013560D01*
X018667Y013560D01*
X018496Y013489D01*
X018365Y013358D01*
X018364Y013355D01*
X018172Y013355D01*
X017956Y013570D01*
X017563Y013570D01*
X017284Y013292D01*
X017284Y012898D01*
X017401Y012782D02*
X014020Y012782D01*
X014179Y012543D02*
X017535Y012543D01*
X017563Y012570D02*
X017284Y012292D01*
X017284Y011898D01*
X017563Y011620D01*
X017956Y011620D01*
X018172Y011835D01*
X018364Y011835D01*
X018365Y011832D01*
X018496Y011701D01*
X018667Y011630D01*
X018852Y011630D01*
X019023Y011701D01*
X019154Y011832D01*
X019225Y012003D01*
X019225Y012187D01*
X019154Y012358D01*
X019023Y012489D01*
X018852Y012560D01*
X018667Y012560D01*
X018496Y012489D01*
X018365Y012358D01*
X018364Y012355D01*
X018172Y012355D01*
X017956Y012570D01*
X017563Y012570D01*
X017297Y012305D02*
X015918Y012305D01*
X016156Y012066D02*
X017284Y012066D01*
X017355Y011828D02*
X016395Y011828D01*
X016633Y011589D02*
X021000Y011589D01*
X021115Y011351D02*
X021136Y011351D01*
X021118Y011112D02*
X021375Y011112D01*
X021613Y010874D02*
X021118Y010874D01*
X022349Y010874D02*
X022613Y010874D01*
X022587Y010635D02*
X022852Y010635D01*
X022826Y010397D02*
X023090Y010397D01*
X023064Y010158D02*
X023329Y010158D01*
X023303Y009920D02*
X023567Y009920D01*
X023541Y009681D02*
X023921Y009681D01*
X020760Y012095D02*
X020760Y013595D01*
X020433Y013497D02*
X019004Y013497D01*
X019058Y013736D02*
X020195Y013736D01*
X019956Y013974D02*
X019213Y013974D01*
X019214Y014213D02*
X019718Y014213D01*
X018461Y013736D02*
X018072Y013736D01*
X018030Y013497D02*
X018515Y013497D01*
X019195Y013259D02*
X020460Y013259D01*
X020460Y013020D02*
X019225Y013020D01*
X019104Y012782D02*
X020460Y012782D01*
X020460Y012543D02*
X019893Y012543D01*
X019852Y012560D02*
X019667Y012560D01*
X019496Y012489D01*
X019365Y012358D01*
X019295Y012187D01*
X019295Y012003D01*
X019365Y011832D01*
X019496Y011701D01*
X019667Y011630D01*
X019852Y011630D01*
X020023Y011701D01*
X020154Y011832D01*
X020225Y012003D01*
X020225Y012187D01*
X020154Y012358D01*
X020023Y012489D01*
X019852Y012560D01*
X019626Y012543D02*
X018893Y012543D01*
X018626Y012543D02*
X017984Y012543D01*
X018118Y012782D02*
X018415Y012782D01*
X019176Y012305D02*
X019343Y012305D01*
X019295Y012066D02*
X019225Y012066D01*
X019150Y011828D02*
X019369Y011828D01*
X020150Y011828D02*
X020369Y011828D01*
X020295Y012066D02*
X020225Y012066D01*
X020176Y012305D02*
X020343Y012305D01*
X021520Y012543D02*
X021526Y012543D01*
X018369Y011828D02*
X018164Y011828D01*
X016615Y010874D02*
X016575Y010874D01*
X016375Y011112D02*
X015020Y011112D01*
X015020Y011351D02*
X016136Y011351D01*
X015898Y011589D02*
X015020Y011589D01*
X014916Y011828D02*
X014895Y011828D01*
X014901Y012066D02*
X014656Y012066D01*
X014418Y012305D02*
X014901Y012305D01*
X015603Y011828D02*
X015659Y011828D01*
X015944Y010874D02*
X015075Y010874D01*
X015587Y010635D02*
X015840Y010635D01*
X015826Y010397D02*
X015864Y010397D01*
X015907Y010315D02*
X015907Y010315D01*
X014812Y008489D02*
X014743Y008489D01*
X014743Y008250D02*
X015024Y008250D01*
X015058Y008012D02*
X014100Y008012D01*
X013862Y007773D02*
X014820Y007773D01*
X014581Y007535D02*
X013063Y007535D01*
X013341Y007296D02*
X014343Y007296D01*
X014250Y007058D02*
X013619Y007058D01*
X013340Y006581D02*
X012680Y006581D01*
X012680Y006819D02*
X013099Y006819D01*
X012820Y007058D02*
X012622Y007058D01*
X011897Y007058D02*
X011622Y007058D01*
X011680Y006819D02*
X011840Y006819D01*
X011840Y006581D02*
X011680Y006581D01*
X011680Y006342D02*
X011840Y006342D01*
X011917Y006104D02*
X011602Y006104D01*
X010917Y006104D02*
X010602Y006104D01*
X010583Y005865D02*
X013936Y005865D01*
X014250Y006104D02*
X012602Y006104D01*
X012680Y006342D02*
X013419Y006342D01*
X014100Y006342D02*
X014250Y006342D01*
X014250Y006581D02*
X014180Y006581D01*
X014129Y006819D02*
X014250Y006819D01*
X013510Y007845D02*
X011510Y007845D01*
X011151Y007773D02*
X005520Y007773D01*
X005520Y007535D02*
X007331Y007535D01*
X005520Y008012D02*
X011151Y008012D01*
X010651Y008250D02*
X005520Y008250D01*
X005520Y008489D02*
X010651Y008489D01*
X010656Y008727D02*
X005520Y008727D01*
X005520Y008966D02*
X006102Y008966D01*
X006417Y008966D02*
X007102Y008966D01*
X007417Y008966D02*
X008102Y008966D01*
X008417Y008966D02*
X009102Y008966D01*
X009417Y008966D02*
X010102Y008966D01*
X010417Y008966D02*
X010532Y008966D01*
X009867Y009204D02*
X009652Y009204D01*
X009680Y009443D02*
X009840Y009443D01*
X009840Y009681D02*
X009680Y009681D01*
X009530Y010158D02*
X009989Y010158D01*
X010429Y010397D02*
X010500Y010397D01*
X010170Y010874D02*
X009575Y010874D01*
X008944Y010874D02*
X008575Y010874D01*
X008520Y011112D02*
X010340Y011112D01*
X010421Y011351D02*
X008520Y011351D01*
X008621Y011589D02*
X010898Y011589D01*
X010659Y011828D02*
X008860Y011828D01*
X009098Y012066D02*
X010500Y012066D01*
X010500Y012305D02*
X009337Y012305D01*
X009519Y012543D02*
X010500Y012543D01*
X010479Y012782D02*
X009520Y012782D01*
X009520Y013020D02*
X010340Y013020D01*
X010340Y013259D02*
X009520Y013259D01*
X009680Y013497D02*
X010568Y013497D01*
X011032Y013736D02*
X009768Y013736D01*
X009000Y013259D02*
X008520Y013259D01*
X008520Y013020D02*
X009000Y013020D01*
X009000Y012782D02*
X008520Y012782D01*
X008519Y012543D02*
X008840Y012543D01*
X008601Y012305D02*
X008337Y012305D01*
X008363Y012066D02*
X008098Y012066D01*
X008124Y011828D02*
X007860Y011828D01*
X008000Y011589D02*
X007621Y011589D01*
X007520Y011351D02*
X008000Y011351D01*
X008000Y011112D02*
X007520Y011112D01*
X007575Y010874D02*
X007944Y010874D01*
X007840Y010635D02*
X007680Y010635D01*
X007655Y010397D02*
X007864Y010397D01*
X007989Y010158D02*
X007530Y010158D01*
X007680Y009681D02*
X007840Y009681D01*
X007840Y009443D02*
X007680Y009443D01*
X007652Y009204D02*
X007867Y009204D01*
X008652Y009204D02*
X008867Y009204D01*
X008840Y009443D02*
X008680Y009443D01*
X008680Y009681D02*
X008840Y009681D01*
X008989Y010158D02*
X008530Y010158D01*
X008655Y010397D02*
X008864Y010397D01*
X008840Y010635D02*
X008680Y010635D01*
X007000Y011112D02*
X004644Y011112D01*
X005075Y010874D02*
X005944Y010874D01*
X006575Y010874D02*
X006944Y010874D01*
X007000Y011351D02*
X005109Y011351D01*
X005180Y011589D02*
X007000Y011589D01*
X007124Y011828D02*
X005121Y011828D01*
X006086Y013175D02*
X006433Y013175D01*
X006680Y013421D01*
X006680Y013769D01*
X006433Y014015D01*
X006086Y014015D01*
X005840Y013769D01*
X005840Y013421D01*
X006086Y013175D01*
X006002Y013259D02*
X003560Y013259D01*
X003560Y013497D02*
X005840Y013497D01*
X005840Y013736D02*
X003560Y013736D01*
X003560Y013974D02*
X006045Y013974D01*
X006474Y013974D02*
X007045Y013974D01*
X006840Y013736D02*
X006680Y013736D01*
X006680Y013497D02*
X006840Y013497D01*
X007002Y013259D02*
X006517Y013259D01*
X006425Y014451D02*
X006151Y014451D01*
X006269Y014690D02*
X006284Y014690D01*
X006280Y014928D02*
X006280Y014928D01*
X006280Y015167D02*
X006280Y015167D01*
X006280Y015405D02*
X006280Y015405D01*
X005760Y015095D02*
X005760Y015095D01*
X005760Y014928D02*
X005760Y014928D01*
X005760Y014690D02*
X005760Y014690D01*
X005760Y014451D02*
X005760Y014451D01*
X004284Y014690D02*
X003560Y014690D01*
X003560Y014928D02*
X004280Y014928D01*
X004280Y015167D02*
X003560Y015167D01*
X003560Y015405D02*
X004280Y015405D01*
X004343Y015644D02*
X003560Y015644D01*
X003560Y015882D02*
X004500Y015882D01*
X004366Y016121D02*
X003560Y016121D01*
X003560Y016359D02*
X004128Y016359D01*
X004000Y016598D02*
X003560Y016598D01*
X003560Y016836D02*
X004000Y016836D01*
X004000Y017075D02*
X003560Y017075D01*
X003560Y017313D02*
X004000Y017313D01*
X004000Y017552D02*
X003560Y017552D01*
X003560Y017790D02*
X004000Y017790D01*
X004000Y018029D02*
X003560Y018029D01*
X003560Y018267D02*
X004000Y018267D01*
X004000Y018506D02*
X003560Y018506D01*
X003560Y018744D02*
X004000Y018744D01*
X004000Y018983D02*
X003560Y018983D01*
X003560Y019221D02*
X004000Y019221D01*
X004000Y019460D02*
X003560Y019460D01*
X003560Y019698D02*
X004000Y019698D01*
X004000Y019937D02*
X003560Y019937D01*
X003560Y020175D02*
X004000Y020175D01*
X004000Y020414D02*
X003560Y020414D01*
X003560Y020652D02*
X004000Y020652D01*
X004000Y020891D02*
X003560Y020891D01*
X003560Y021129D02*
X004000Y021129D01*
X004000Y021368D02*
X003560Y021368D01*
X003560Y021606D02*
X004000Y021606D01*
X004112Y021815D02*
X004112Y021815D01*
X004141Y021845D02*
X003560Y021845D01*
X003560Y022083D02*
X004380Y022083D01*
X004317Y022353D02*
X004564Y022353D01*
X004952Y022741D01*
X004952Y022987D01*
X004317Y022987D01*
X004317Y022353D01*
X004262Y022353D02*
X004262Y022987D01*
X004317Y022987D01*
X004317Y023043D01*
X004262Y023043D01*
X004262Y023677D01*
X004015Y023677D01*
X003627Y023289D01*
X003627Y023043D01*
X004262Y023043D01*
X004262Y022987D01*
X003627Y022987D01*
X003627Y022741D01*
X004015Y022353D01*
X004262Y022353D01*
X004262Y022560D02*
X004317Y022560D01*
X004317Y022799D02*
X004262Y022799D01*
X004262Y023037D02*
X003560Y023037D01*
X003560Y022799D02*
X003627Y022799D01*
X003560Y022560D02*
X003808Y022560D01*
X003560Y022322D02*
X004618Y022322D01*
X004771Y022560D02*
X004857Y022560D01*
X004952Y022799D02*
X005095Y022799D01*
X004952Y023043D02*
X004952Y023289D01*
X004564Y023677D01*
X004317Y023677D01*
X004317Y023043D01*
X004952Y023043D01*
X004952Y023276D02*
X005500Y023276D01*
X005500Y023514D02*
X004727Y023514D01*
X004317Y023514D02*
X004262Y023514D01*
X004262Y023276D02*
X004317Y023276D01*
X004317Y023037D02*
X005334Y023037D01*
X005831Y022799D02*
X006835Y022799D01*
X006597Y022560D02*
X005592Y022560D01*
X005354Y022322D02*
X006358Y022322D01*
X006120Y022083D02*
X005115Y022083D01*
X004877Y021845D02*
X005881Y021845D01*
X005130Y021606D02*
X004638Y021606D01*
X004520Y021368D02*
X004947Y021368D01*
X004947Y021129D02*
X004520Y021129D01*
X004520Y020891D02*
X004964Y020891D01*
X007094Y022322D02*
X009165Y022322D01*
X009662Y022560D02*
X011427Y022560D01*
X011665Y022322D02*
X009901Y022322D01*
X010139Y022083D02*
X011904Y022083D01*
X012142Y021845D02*
X010378Y021845D01*
X010616Y021606D02*
X012381Y021606D01*
X012619Y021368D02*
X010855Y021368D01*
X011093Y021129D02*
X012858Y021129D01*
X012933Y021015D02*
X012586Y021015D01*
X012340Y020769D01*
X012340Y020421D01*
X012586Y020175D01*
X012933Y020175D01*
X013180Y020421D01*
X013180Y020769D01*
X012933Y021015D01*
X013058Y020891D02*
X013096Y020891D01*
X013180Y020652D02*
X013335Y020652D01*
X013172Y020414D02*
X013573Y020414D01*
X013812Y020175D02*
X012934Y020175D01*
X012586Y020175D02*
X012047Y020175D01*
X011809Y020414D02*
X012347Y020414D01*
X012340Y020652D02*
X011570Y020652D01*
X011332Y020891D02*
X012461Y020891D01*
X012286Y019937D02*
X014050Y019937D01*
X014289Y019698D02*
X012524Y019698D01*
X012763Y019460D02*
X013042Y019460D01*
X013957Y019460D02*
X014527Y019460D01*
X014766Y019221D02*
X014142Y019221D01*
X014148Y018983D02*
X015004Y018983D01*
X015243Y018744D02*
X013983Y018744D01*
X013846Y018506D02*
X014576Y018506D01*
X014943Y018506D02*
X015481Y018506D01*
X015720Y018267D02*
X015180Y018267D01*
X014471Y017790D02*
X014029Y017790D01*
X014104Y017313D02*
X015357Y017313D01*
X015285Y017075D02*
X014160Y017075D01*
X012895Y017313D02*
X012466Y017313D01*
X012704Y017075D02*
X012840Y017075D01*
X015220Y015167D02*
X016264Y015167D01*
X016502Y014928D02*
X015220Y014928D01*
X015005Y014690D02*
X016741Y014690D01*
X016474Y013974D02*
X017284Y013974D01*
X017447Y013736D02*
X016680Y013736D01*
X016680Y013497D02*
X017489Y013497D01*
X017284Y013259D02*
X016517Y013259D01*
X014340Y013497D02*
X014180Y013497D01*
X014180Y013736D02*
X014251Y013736D01*
X008840Y013736D02*
X008680Y013736D01*
X008680Y013497D02*
X008840Y013497D01*
X006989Y010158D02*
X006530Y010158D01*
X006680Y009681D02*
X006840Y009681D01*
X006840Y009443D02*
X006680Y009443D01*
X006652Y009204D02*
X006867Y009204D01*
X005867Y009204D02*
X005496Y009204D01*
X005280Y009443D02*
X005840Y009443D01*
X005840Y009681D02*
X005180Y009681D01*
X009622Y007058D02*
X009897Y007058D01*
X009840Y006819D02*
X009680Y006819D01*
X009680Y006581D02*
X009840Y006581D01*
X009840Y006342D02*
X009680Y006342D01*
X009602Y006104D02*
X009917Y006104D01*
X009936Y005865D02*
X009583Y005865D01*
X009680Y005627D02*
X009840Y005627D01*
X009873Y005388D02*
X009646Y005388D01*
X009000Y005150D02*
X008520Y005150D01*
X008520Y004911D02*
X009000Y004911D01*
X009000Y004673D02*
X008520Y004673D01*
X008520Y004434D02*
X009000Y004434D01*
X008992Y004196D02*
X008520Y004196D01*
X008484Y003957D02*
X008754Y003957D01*
X008515Y003719D02*
X008251Y003719D01*
X008277Y003480D02*
X008012Y003480D01*
X008039Y003242D02*
X007500Y003242D01*
X008000Y003003D02*
X005645Y003003D01*
X004874Y003003D02*
X004645Y003003D01*
X004680Y002288D02*
X004840Y002288D01*
X004972Y002049D02*
X004547Y002049D01*
X003560Y001572D02*
X013915Y001572D01*
X014546Y002288D02*
X017699Y002288D01*
X017461Y002526D02*
X017058Y002526D01*
X019788Y004434D02*
X020488Y004434D01*
X020401Y004196D02*
X020027Y004196D01*
X020265Y003957D02*
X020401Y003957D01*
X020490Y003719D02*
X023015Y003719D01*
X023039Y003742D02*
X023039Y003742D01*
X022777Y003480D02*
X020520Y003480D01*
X020520Y003242D02*
X022538Y003242D01*
X022074Y003003D02*
X020520Y003003D01*
X020680Y002765D02*
X021840Y002765D01*
X021840Y002526D02*
X020680Y002526D01*
X021031Y004434D02*
X023765Y004434D01*
X023641Y004911D02*
X019520Y004911D01*
X019520Y005150D02*
X023600Y005150D01*
X023719Y005388D02*
X022646Y005388D01*
X021873Y005388D02*
X020646Y005388D01*
X020680Y005627D02*
X021840Y005627D01*
X019873Y005388D02*
X019646Y005388D01*
X019680Y005627D02*
X019840Y005627D01*
X019550Y004673D02*
X025469Y004673D01*
X025231Y004434D02*
X024754Y004434D01*
X015917Y006104D02*
X015602Y006104D01*
X015680Y006342D02*
X015840Y006342D01*
X015840Y006581D02*
X015680Y006581D01*
X015680Y006819D02*
X015840Y006819D01*
X015897Y007058D02*
X015622Y007058D01*
X014385Y008470D02*
X014135Y008470D01*
X013510Y007845D01*
X010897Y007058D02*
X010622Y007058D01*
X010680Y006819D02*
X010840Y006819D01*
X010840Y006581D02*
X010680Y006581D01*
X010680Y006342D02*
X010840Y006342D01*
X008936Y005865D02*
X008897Y005865D01*
X008840Y005627D02*
X008680Y005627D01*
X008646Y005388D02*
X008873Y005388D01*
X008000Y004911D02*
X007943Y004911D01*
X008000Y004673D02*
X007705Y004673D01*
X007680Y004434D02*
X008000Y004434D01*
X007992Y004196D02*
X007454Y004196D01*
X007491Y003957D02*
X007754Y003957D01*
X007065Y004196D02*
X007020Y004196D01*
X007028Y003957D02*
X006984Y003957D01*
X006840Y003719D02*
X006751Y003719D01*
X006680Y003480D02*
X006840Y003480D01*
X007019Y003242D02*
X006500Y003242D01*
X006492Y004196D02*
X006454Y004196D01*
X004890Y005150D02*
X004629Y005150D01*
X004680Y005865D02*
X004840Y005865D01*
X004934Y006104D02*
X004585Y006104D01*
X009445Y003003D02*
X010074Y003003D01*
X009973Y002288D02*
X009546Y002288D01*
X010546Y002288D02*
X013199Y002288D01*
X012961Y002526D02*
X010680Y002526D01*
X010797Y002765D02*
X012722Y002765D01*
X012484Y003003D02*
X011035Y003003D01*
X011274Y003242D02*
X011913Y003242D01*
X011765Y003480D02*
X011493Y003480D01*
X011520Y003719D02*
X011765Y003719D01*
X011921Y003957D02*
X011520Y003957D01*
X011520Y004196D02*
X011959Y004196D01*
X011790Y004434D02*
X011520Y004434D01*
X011705Y004673D02*
X011765Y004673D01*
X030607Y017075D02*
X032624Y017075D01*
X032341Y017313D02*
X030845Y017313D01*
X031084Y017552D02*
X032265Y017552D01*
X032265Y017790D02*
X031322Y017790D01*
X031561Y018029D02*
X032493Y018029D01*
X033064Y018267D02*
X031799Y018267D01*
X028495Y019698D02*
X026035Y019698D01*
X026067Y019460D02*
X028256Y019460D01*
X028041Y018744D02*
X026081Y018744D01*
X026021Y018506D02*
X027802Y018506D01*
X027587Y017790D02*
X026127Y017790D01*
X025975Y017552D02*
X027348Y017552D01*
X025498Y018506D02*
X024984Y018506D01*
X025066Y018744D02*
X025438Y018744D01*
X025452Y019460D02*
X025053Y019460D01*
X025016Y019698D02*
X025484Y019698D01*
X025406Y020414D02*
X025099Y020414D01*
X024905Y020652D02*
X025530Y020652D01*
X025989Y020652D02*
X028949Y020652D01*
X028710Y020414D02*
X026113Y020414D01*
X025360Y021368D02*
X025145Y021368D01*
X025552Y022560D02*
X017967Y022560D01*
X018135Y022799D02*
X018398Y022799D01*
X017552Y022560D02*
X016592Y022560D01*
X016831Y022799D02*
X017384Y022799D01*
X017506Y023514D02*
X017046Y023514D01*
X017285Y023753D02*
X017430Y023753D01*
X018013Y023514D02*
X018556Y023514D01*
X018444Y023753D02*
X018089Y023753D01*
X018059Y024468D02*
X018475Y024468D01*
X018566Y024627D02*
X018641Y024602D01*
X018720Y024590D01*
X018760Y024590D01*
X018760Y025095D01*
X018760Y025095D01*
X017760Y025095D01*
X017760Y025095D01*
X017760Y024580D01*
X017973Y024580D01*
X018275Y024882D01*
X018275Y024953D01*
X018292Y024901D01*
X018328Y024830D01*
X018374Y024766D01*
X018431Y024710D01*
X018495Y024663D01*
X018566Y024627D01*
X018435Y024707D02*
X018100Y024707D01*
X018275Y024945D02*
X018277Y024945D01*
X018760Y024945D02*
X018760Y024945D01*
X018760Y025095D02*
X018760Y025095D01*
X018760Y025184D02*
X018760Y025184D01*
X018760Y024707D02*
X018760Y024707D01*
X017760Y024707D02*
X017760Y024707D01*
X017760Y024580D02*
X017546Y024580D01*
X017244Y024882D01*
X017244Y025095D01*
X017760Y025095D01*
X017760Y025095D01*
X017760Y024580D01*
X017460Y024468D02*
X015710Y024468D01*
X015739Y024707D02*
X017419Y024707D01*
X017244Y024945D02*
X015977Y024945D01*
X016216Y025184D02*
X017244Y025184D01*
X017760Y025095D02*
X017760Y025095D01*
X017760Y024945D02*
X017760Y024945D01*
X017026Y024230D02*
X015530Y024230D01*
X015556Y023991D02*
X016788Y023991D01*
X016549Y023753D02*
X015750Y023753D01*
X015750Y023514D02*
X016311Y023514D01*
X016072Y023276D02*
X015633Y023276D01*
X015834Y023037D02*
X015185Y023037D01*
X015260Y023276D02*
X015260Y023276D01*
X015260Y023514D02*
X015260Y023514D01*
X015260Y023753D02*
X015260Y023753D01*
X015260Y023991D02*
X015260Y023991D01*
X014989Y024230D02*
X014985Y024230D01*
X015039Y025184D02*
X015480Y025184D01*
X015719Y025422D02*
X007863Y025422D01*
X007921Y024707D02*
X010810Y024707D01*
X010810Y024468D02*
X007662Y024468D01*
X007423Y024230D02*
X010989Y024230D01*
X011019Y023991D02*
X007452Y023991D01*
X007386Y023753D02*
X010810Y023753D01*
X010810Y023514D02*
X007189Y023514D01*
X006470Y023514D02*
X006020Y023514D01*
X006020Y023276D02*
X010943Y023276D01*
X011002Y023037D02*
X006017Y023037D01*
X006020Y023753D02*
X006273Y023753D01*
X006207Y023991D02*
X006020Y023991D01*
X006020Y024230D02*
X006236Y024230D01*
X006382Y024468D02*
X006020Y024468D01*
X006239Y024707D02*
X006838Y024707D01*
X006896Y025422D02*
X003560Y025422D01*
X003560Y025184D02*
X005980Y025184D01*
X005742Y024945D02*
X003560Y024945D01*
X003560Y024707D02*
X005524Y024707D01*
X005500Y024468D02*
X003560Y024468D01*
X003560Y024230D02*
X005500Y024230D01*
X005500Y023991D02*
X003560Y023991D01*
X003560Y023753D02*
X005500Y023753D01*
X003852Y023514D02*
X003560Y023514D01*
X003560Y023276D02*
X003627Y023276D01*
X003560Y025661D02*
X015957Y025661D01*
X011188Y022799D02*
X009424Y022799D01*
X016932Y017790D02*
X017392Y017790D01*
X017544Y017552D02*
X017171Y017552D01*
X024760Y023095D02*
X025760Y023095D01*
X025506Y023514D02*
X024963Y023514D01*
X025075Y023753D02*
X025430Y023753D01*
X031270Y013497D02*
X033433Y013497D01*
X034589Y010874D02*
X034613Y010874D01*
X034690Y010635D02*
X034852Y010635D01*
X035000Y010397D02*
X034643Y010397D01*
X034560Y010158D02*
X035000Y010158D01*
X035000Y009920D02*
X034560Y009920D01*
X034560Y009681D02*
X035000Y009681D01*
X035000Y009443D02*
X034560Y009443D01*
X034560Y009204D02*
X034840Y009204D01*
X034840Y008966D02*
X034560Y008966D01*
X034560Y008727D02*
X035034Y008727D01*
X035680Y009204D02*
X035840Y009204D01*
X035520Y010397D02*
X036876Y010397D01*
X036830Y010635D02*
X035520Y010635D01*
X035349Y010874D02*
X036930Y010874D01*
X038452Y009920D02*
X040460Y009920D01*
X040460Y010158D02*
X038690Y010158D01*
X041330Y008250D02*
X041960Y008250D01*
X041960Y008012D02*
X041296Y008012D01*
X041134Y007773D02*
X041960Y007773D01*
X039840Y007058D02*
X038415Y007058D01*
X038176Y007296D02*
X039691Y007296D01*
X038090Y006581D02*
X036079Y006581D01*
X036180Y006819D02*
X036340Y006819D01*
X036340Y007058D02*
X036180Y007058D01*
X036180Y007296D02*
X036340Y007296D01*
X037180Y006819D02*
X037918Y006819D01*
X035440Y006581D02*
X035079Y006581D01*
X035180Y006819D02*
X035340Y006819D01*
X035340Y007058D02*
X035180Y007058D01*
X035180Y007296D02*
X035340Y007296D01*
X035388Y007535D02*
X035131Y007535D01*
X034454Y005865D02*
X041960Y005865D01*
X041960Y005627D02*
X034215Y005627D01*
X033977Y005388D02*
X041960Y005388D01*
X035446Y004673D02*
X035205Y004673D01*
X034946Y005150D02*
X033738Y005150D01*
D30*
X031760Y004595D03*
X030760Y002595D03*
X020760Y004095D03*
X020760Y007470D03*
X020760Y008095D03*
X025260Y009595D03*
X023260Y011595D03*
X024260Y012595D03*
X022760Y014095D03*
X022635Y014970D03*
X024260Y014595D03*
X020760Y011095D03*
X015260Y012095D03*
X013635Y008845D03*
X014385Y008470D03*
X011510Y007845D03*
X011010Y008470D03*
X029260Y010095D03*
X033260Y009095D03*
X041260Y006595D03*
X031010Y015220D03*
X031760Y016345D03*
X028760Y022595D03*
D31*
X008760Y018595D02*
X008260Y018095D01*
X007480Y018095D01*
X006760Y015095D02*
X008260Y015095D01*
X008760Y014595D01*
M02*
