%
M48
M72
T01C0.0236
T02C0.0320
T03C0.0360
T04C0.0380
T05C0.0394
T06C0.0400
T07C0.0440
T08C0.0520
T09C0.0590
T10C0.1102
T11C0.1260
%
T01
X11510Y7845
X11010Y8470
X13635Y8845
X14385Y8470
X15260Y12095
X20760Y11095
X23260Y11595
X24260Y12595
X22760Y14095
X22635Y14970
X24260Y14595
X31010Y15220
X31760Y16345
X29260Y10095
X25260Y9595
X20760Y8095
X20760Y7470
X20760Y4095
X30760Y2595
X31760Y4595
X33260Y9095
X41260Y6595
X28760Y22595
T02
X4260Y2595
X5260Y2595
X6260Y3595
X7260Y3595
X8260Y2595
X9260Y2595
X10260Y2595
X12260Y3595
X12260Y4595
X10260Y5595
X9260Y5595
X8260Y5595
X7260Y4595
X6260Y4595
X5260Y5595
X4260Y5595
X4760Y6595
X6260Y6595
X7260Y6595
X8260Y6595
X9260Y6595
X10260Y6595
X11260Y6595
X12260Y6595
X13760Y6595
X15260Y6595
X16260Y6595
X17260Y6595
X18260Y6595
X19260Y6595
X20260Y6595
X21260Y6595
X22260Y6595
X22260Y5595
X20260Y5595
X19260Y5595
X19260Y2595
X20260Y2595
X22260Y2595
X24260Y3095
X24260Y4095
X24260Y5095
X24260Y6095
X24260Y7095
X24260Y8095
X24260Y9095
X24260Y10095
X22260Y9595
X21260Y9595
X20260Y9595
X19260Y9595
X18260Y9595
X17260Y9595
X16260Y9595
X15260Y9595
X13760Y9595
X13760Y10595
X14760Y10595
X16260Y10595
X12260Y10595
X10760Y11095
X9260Y10595
X8260Y10595
X7260Y10595
X6260Y10595
X6260Y9595
X7260Y9595
X8260Y9595
X9260Y9595
X10260Y9595
X11260Y9595
X12260Y9595
X10760Y13095
X12260Y13595
X13760Y13595
X14760Y13595
X16260Y13595
X14760Y15095
X13260Y16095
X13260Y17095
X13260Y18095
X14760Y18095
X13260Y19095
X12760Y20595
X10260Y19095
X10260Y18095
X10260Y17095
X10260Y16095
X9260Y13595
X8260Y13595
X7260Y13595
X6260Y13595
X4760Y11595
X4760Y10595
X4760Y9595
X14260Y5595
X14260Y2595
X27260Y3095
X27260Y4095
X27260Y5095
X27260Y6095
X27260Y7095
X27260Y8095
X27260Y9095
X27260Y10095
X33760Y7095
X34760Y7095
X35760Y7095
X36760Y7095
X35760Y8345
X36260Y9095
X35260Y9095
X34260Y10595
X34260Y11595
X34260Y12595
X34260Y13595
X37260Y13595
X38260Y14095
X37260Y12595
X37260Y11595
X37260Y10595
X40260Y7095
X38510Y6595
X38510Y4595
X40260Y4095
X36760Y4095
X35760Y4095
X34760Y4095
X33760Y4095
X41260Y14095
X32760Y16595
X32760Y17595
X32760Y21095
X35760Y21095
X9760Y20595
T03
X11260Y23595
X12260Y23595
X13260Y23595
X14260Y23595
X15260Y23595
X15260Y24595
X14260Y24595
X13260Y24595
X12260Y24595
X11260Y24595
X30260Y24595
X31260Y24595
X32260Y24595
X33260Y24595
X34260Y24595
X34260Y23595
X33260Y23595
X32260Y23595
X31260Y23595
X30260Y23595
T04
X24760Y23095
X24760Y22095
X24760Y21095
X24760Y20095
X24760Y19095
X24760Y18095
X24760Y17095
X24760Y16095
X24760Y15095
X24760Y14095
X24760Y13095
X24760Y12095
X23760Y12095
X22760Y12095
X21760Y12095
X20760Y12095
X19760Y12095
X18760Y12095
X18760Y13095
X18760Y14095
X18760Y15095
X18760Y16095
X18760Y17095
X18760Y18095
X18760Y19095
X18760Y20095
X18760Y21095
X18760Y22095
X18760Y23095
X18760Y24095
X18760Y25095
X24760Y25095
X24760Y24095
T05
X25760Y24095
X25760Y25095
X27260Y24079
X27260Y23095
X27260Y22111
X25760Y22095
X25760Y21095
X25760Y20095
X25760Y19095
X25760Y18095
X25760Y17095
X25760Y16095
X25760Y15095
X25760Y14095
X25760Y13095
X25760Y12095
X28783Y8595
X30260Y8595
X31736Y8595
X35260Y16111
X35260Y17095
X35260Y18079
X25760Y23095
X17760Y23095
X17760Y22095
X17760Y21095
X17760Y20095
X17760Y19095
X17760Y18095
X17760Y17095
X17760Y16095
X17760Y15095
X17760Y14095
X17760Y13095
X17760Y12095
X7480Y18095
X6260Y16205
X5078Y18095
X17760Y24095
X17760Y25095
T06
X6760Y15095
X5760Y15095
X4760Y15095
T07
X8760Y14595
X8760Y18595
T08
X38760Y8595
X40760Y8595
X39760Y12595
T09
X38140Y15165
X38690Y16155
X41230Y17175
X39950Y19025
X37000Y18815
X38140Y21165
X38690Y22155
X41230Y23175
X39950Y25025
X37000Y24815
X8520Y21375
X5570Y21165
X4290Y23015
X6830Y24035
X7380Y25025
T10
X27858Y12532
X32661Y12532
T11
X40760Y2595
X16260Y3470
X16135Y16970
M30
