%FSLAX33Y33*%
%MOMM*%
%ADD10C,0.2032*%
D10*
%LNbottom silkscreen_traces*%
%LNbottom silkscreen component 4c04787e1f5174be*%
G01*
X149815Y83363D02*
X144356Y97578D01*
X142384Y97578*
X136567Y83363*
X138614Y83363*
X140284Y87699*
X146341Y87699*
X147913Y83363*
X149815Y83363*
X145832Y89140D02*
X140832Y89140D01*
X142352Y93174*
X142671Y94036*
X142947Y94818*
X143178Y95519*
X143423Y96326*
X143615Y95449*
X143793Y94766*
X144000Y94086*
X144234Y93407*
X145832Y89140*
X134604Y83363D02*
X134604Y97578D01*
X132811Y97578*
X132811Y83363*
X134604Y83363*
X129340Y83363D02*
X129340Y97578D01*
X123044Y97578*
X122147Y97554*
X121366Y97482*
X120701Y97362*
X120152Y97195*
X119686Y96969*
X119270Y96670*
X118903Y96299*
X118585Y95854*
X118328Y95359*
X118144Y94839*
X118034Y94294*
X117997Y93723*
X118058Y92999*
X118240Y92337*
X118544Y91734*
X118969Y91189*
X119521Y90721*
X120208Y90346*
X121029Y90064*
X122133Y89847*
X121650Y89601*
X121344Y89424*
X121085Y89248*
X120870Y89075*
X120464Y88673*
X120067Y88223*
X119682Y87726*
X119307Y87180*
X116867Y83363*
X119129Y83363*
X121009Y86318*
X121406Y86925*
X121766Y87457*
X122091Y87914*
X122379Y88295*
X122642Y88613*
X122892Y88880*
X123129Y89097*
X123352Y89263*
X123570Y89391*
X123788Y89499*
X124009Y89585*
X124233Y89651*
X124425Y89681*
X124666Y89703*
X124957Y89716*
X125299Y89720*
X127547Y89720*
X127547Y83363*
X129340Y83363*
X127497Y91310D02*
X127497Y91310D01*
X123424Y91310*
X122810Y91327*
X122267Y91377*
X121795Y91461*
X121393Y91579*
X121049Y91733*
X120749Y91928*
X120492Y92163*
X120280Y92438*
X120113Y92740*
X119994Y93054*
X119923Y93382*
X119899Y93722*
X119945Y94207*
X120083Y94647*
X120314Y95042*
X120636Y95392*
X121058Y95678*
X121587Y95883*
X122223Y96006*
X122965Y96046*
X127497Y96046*
X127497Y91310*
X114604Y83363D02*
X114604Y97578D01*
X112811Y97578*
X112811Y83363*
X114604Y83363*
X109331Y83363D02*
X109331Y97578D01*
X99081Y97578*
X99081Y95990*
X107538Y95990*
X107538Y91503*
X99618Y91503*
X99618Y89925*
X107538Y89925*
X107538Y84951*
X98749Y84951*
X98749Y83363*
X109331Y83363*
X137305Y6572D02*
X135511Y6119D01*
X135850Y5077*
X136323Y4125*
X136913Y3311*
X137621Y2635*
X138430Y2104*
X139325Y1725*
X140306Y1497*
X141374Y1421*
X142471Y1479*
X143459Y1655*
X144339Y1947*
X145110Y2355*
X145786Y2874*
X146375Y3498*
X146879Y4227*
X147298Y5062*
X147627Y5967*
X147863Y6905*
X148004Y7876*
X148051Y8880*
X147998Y9957*
X147839Y10962*
X147573Y11896*
X147202Y12758*
X146733Y13534*
X146175Y14211*
X145528Y14788*
X144791Y15266*
X143989Y15641*
X143147Y15909*
X142265Y16070*
X141344Y16124*
X140320Y16056*
X139381Y15852*
X138529Y15514*
X137761Y15040*
X137091Y14443*
X136531Y13737*
X136080Y12919*
X135757Y12041*
X137523Y11625*
X137786Y12314*
X138122Y12943*
X138517Y13465*
X138969Y13881*
X139482Y14198*
X140055Y14424*
X140689Y14559*
X141383Y14604*
X142181Y14554*
X142912Y14405*
X143576Y14154*
X144171Y13804*
X144691Y13369*
X145127Y12866*
X145479Y12294*
X145747Y11655*
X145945Y10979*
X146087Y10293*
X146171Y9596*
X146200Y8889*
X146166Y8001*
X146066Y7171*
X145898Y6398*
X145664Y5682*
X145358Y5037*
X144976Y4478*
X144519Y4006*
X143988Y3621*
X143408Y3323*
X142805Y3110*
X142179Y2983*
X141529Y2940*
X140756Y2998*
X140043Y3172*
X139392Y3463*
X138801Y3870*
X138287Y4391*
X137864Y5024*
X137532Y5768*
X137305Y6572*
X132963Y1665D02*
X132963Y15880D01*
X123406Y15880*
X123406Y14292*
X131170Y14292*
X131170Y9757*
X124451Y9757*
X124451Y8169*
X131170Y8169*
X131170Y1665*
X132963Y1665*
X121420Y8586D02*
X121301Y10264D01*
X120945Y11747*
X120351Y13036*
X119520Y14133*
X118502Y15008*
X117345Y15633*
X116051Y16008*
X114615Y16133*
X113655Y16075*
X112744Y15898*
X111882Y15605*
X111068Y15193*
X110325Y14677*
X109677Y14069*
X109122Y13367*
X108660Y12573*
X108298Y11703*
X108038Y10777*
X107883Y9793*
X107831Y8753*
X107885Y7698*
X108049Y6701*
X108322Y5762*
X108704Y4879*
X109186Y4078*
X109758Y3381*
X110420Y2788*
X111174Y2298*
X111989Y1914*
X112836Y1640*
X113715Y1476*
X114626Y1421*
X115603Y1481*
X116526Y1663*
X117396Y1966*
X118212Y2390*
X118954Y2919*
X119600Y3535*
X120150Y4241*
X120605Y5035*
X120962Y5886*
X121217Y6762*
X121369Y7662*
X121420Y8586*
X119518Y8557D02*
X119518Y8557D01*
X119431Y7332*
X119170Y6244*
X118735Y5294*
X118127Y4480*
X117387Y3829*
X116558Y3363*
X115641Y3084*
X114635Y2991*
X113613Y3085*
X112686Y3367*
X111853Y3837*
X111115Y4495*
X110510Y5326*
X110078Y6314*
X109819Y7459*
X109733Y8762*
X109770Y9609*
X109881Y10399*
X110065Y11135*
X110324Y11814*
X110653Y12429*
X111051Y12971*
X111518Y13440*
X112052Y13836*
X112639Y14150*
X113260Y14374*
X113915Y14509*
X114606Y14553*
X115577Y14467*
X116477Y14208*
X117308Y13776*
X118068Y13172*
X118702Y12365*
X119156Y11327*
X119428Y10058*
X119518Y8557*
X99809Y1665D02*
X99809Y15880D01*
X94489Y15880*
X93713Y15853*
X93019Y15772*
X92407Y15637*
X91877Y15449*
X91415Y15206*
X91006Y14906*
X90650Y14547*
X90347Y14131*
X90105Y13680*
X89932Y13219*
X89828Y12749*
X89793Y12268*
X89824Y11823*
X89916Y11391*
X90069Y10973*
X90284Y10567*
X90560Y10187*
X90899Y9846*
X91301Y9542*
X91865Y9221*
X91153Y8961*
X90624Y8673*
X90169Y8320*
X89788Y7901*
X89487Y7429*
X89272Y6916*
X89143Y6361*
X89100Y5764*
X89126Y5276*
X89205Y4805*
X89336Y4352*
X89520Y3917*
X89742Y3514*
X89989Y3160*
X90259Y2857*
X90554Y2602*
X90882Y2385*
X91249Y2196*
X91656Y2035*
X92104Y1903*
X92597Y1799*
X93145Y1724*
X93746Y1680*
X94401Y1665*
X99809Y1665*
X97965Y9915D02*
X97965Y9915D01*
X94869Y9915*
X94284Y9925*
X93788Y9956*
X93381Y10008*
X93063Y10081*
X92724Y10206*
X92429Y10366*
X92179Y10562*
X91974Y10794*
X91814Y11059*
X91699Y11355*
X91631Y11684*
X91608Y12044*
X91629Y12389*
X91693Y12714*
X91800Y13017*
X91949Y13299*
X92139Y13548*
X92365Y13755*
X92627Y13919*
X92926Y14041*
X93300Y14128*
X93788Y14191*
X94389Y14228*
X95104Y14241*
X97965Y14241*
X97965Y9915*
X97965Y3303D02*
X97965Y3303D01*
X94401Y3304*
X93976Y3308*
X93619Y3321*
X93331Y3342*
X93112Y3372*
X92798Y3440*
X92511Y3528*
X92251Y3636*
X92018Y3762*
X91808Y3915*
X91617Y4098*
X91447Y4313*
X91295Y4558*
X91171Y4830*
X91083Y5121*
X91030Y5433*
X91012Y5764*
X91038Y6152*
X91115Y6513*
X91243Y6848*
X91422Y7156*
X91647Y7429*
X91912Y7659*
X92216Y7845*
X92560Y7986*
X92964Y8091*
X93447Y8166*
X94011Y8210*
X94655Y8225*
X97965Y8225*
X97965Y3303*
X86967Y8586D02*
X86848Y10264D01*
X86491Y11747*
X85897Y13036*
X85066Y14133*
X84048Y15008*
X82892Y15633*
X81597Y16008*
X80161Y16133*
X79202Y16075*
X78290Y15898*
X77428Y15605*
X76614Y15193*
X75871Y14677*
X75223Y14069*
X74668Y13367*
X74207Y12573*
X73844Y11703*
X73585Y10777*
X73429Y9793*
X73377Y8753*
X73432Y7698*
X73595Y6701*
X73868Y5762*
X74250Y4880*
X74732Y4078*
X75304Y3381*
X75966Y2788*
X76720Y2298*
X77536Y1914*
X78383Y1640*
X79261Y1476*
X80172Y1421*
X81149Y1481*
X82073Y1663*
X82942Y1966*
X83759Y2390*
X84500Y2919*
X85146Y3535*
X85697Y4241*
X86152Y5035*
X86508Y5886*
X86763Y6762*
X86916Y7662*
X86967Y8586*
X85064Y8557D02*
X85064Y8557D01*
X84977Y7332*
X84717Y6244*
X84282Y5294*
X83673Y4480*
X82933Y3829*
X82104Y3363*
X81187Y3084*
X80182Y2991*
X79160Y3085*
X78232Y3367*
X77399Y3837*
X76661Y4495*
X76057Y5326*
X75625Y6314*
X75366Y7459*
X75279Y8763*
X75316Y9609*
X75427Y10399*
X75612Y11135*
X75870Y11814*
X76200Y12429*
X76598Y12971*
X77064Y13440*
X77599Y13836*
X78185Y14150*
X78806Y14374*
X79462Y14509*
X80152Y14554*
X81123Y14467*
X82024Y14208*
X82854Y13776*
X83614Y13172*
X84249Y12365*
X84702Y11327*
X84974Y10058*
X85064Y8557*
X70833Y1665D02*
X70833Y15880D01*
X65953Y15880*
X65169Y15867*
X64485Y15829*
X63900Y15765*
X63415Y15676*
X62828Y15507*
X62286Y15282*
X61789Y15000*
X61337Y14661*
X60811Y14154*
X60356Y13581*
X59971Y12942*
X59657Y12236*
X59413Y11470*
X59239Y10650*
X59134Y9777*
X59099Y8850*
X59123Y8061*
X59194Y7319*
X59312Y6623*
X59478Y5974*
X59681Y5375*
X59910Y4830*
X60165Y4340*
X60447Y3904*
X60749Y3517*
X61065Y3174*
X61395Y2874*
X61738Y2618*
X62106Y2398*
X62510Y2207*
X62952Y2043*
X63430Y1908*
X63946Y1802*
X64499Y1726*
X65090Y1680*
X65719Y1665*
X70833Y1665*
X68990Y3304D02*
X68990Y3304D01*
X65933Y3304*
X65263Y3320*
X64670Y3369*
X64152Y3452*
X63711Y3567*
X63329Y3712*
X62988Y3885*
X62687Y4084*
X62427Y4309*
X62109Y4675*
X61828Y5099*
X61584Y5581*
X61377Y6121*
X61213Y6720*
X61095Y7379*
X61025Y8099*
X61001Y8880*
X61048Y9938*
X61186Y10866*
X61416Y11664*
X61739Y12332*
X62127Y12885*
X62555Y13339*
X63023Y13693*
X63531Y13948*
X63970Y14076*
X64524Y14168*
X65195Y14223*
X65982Y14241*
X68990Y14241*
X68990Y3304*
X52357Y1665D02*
X52357Y7694D01*
X57830Y15880*
X55648Y15880*
X52841Y11587*
X52457Y10982*
X52087Y10377*
X51731Y9772*
X51344Y9091*
X50960Y9745*
X50587Y10359*
X50180Y11009*
X49738Y11694*
X46980Y15880*
X44897Y15880*
X50564Y7694*
X50564Y1665*
X52357Y1665*
X43690Y6168D02*
X42000Y6315D01*
X41923Y5846*
X41795Y5376*
X41624Y4953*
X41409Y4579*
X41140Y4244*
X40806Y3944*
X40409Y3679*
X39947Y3447*
X39438Y3260*
X38899Y3125*
X38329Y3045*
X37730Y3018*
X37199Y3039*
X36700Y3100*
X36233Y3201*
X35797Y3344*
X35403Y3523*
X35062Y3732*
X34773Y3973*
X34539Y4245*
X34357Y4539*
X34228Y4846*
X34150Y5167*
X34124Y5501*
X34149Y5835*
X34224Y6148*
X34350Y6440*
X34525Y6709*
X34758Y6957*
X35055Y7183*
X35414Y7387*
X35836Y7570*
X36215Y7699*
X36766Y7858*
X37492Y8049*
X38391Y8270*
X39302Y8503*
X40065Y8729*
X40679Y8948*
X41143Y9159*
X41619Y9441*
X42028Y9754*
X42373Y10099*
X42652Y10474*
X42869Y10878*
X43023Y11304*
X43116Y11755*
X43147Y12229*
X43109Y12755*
X42996Y13263*
X42806Y13754*
X42541Y14228*
X42202Y14664*
X41794Y15045*
X41316Y15370*
X40766Y15639*
X40164Y15851*
X39529Y16003*
X38861Y16093*
X38159Y16124*
X37391Y16092*
X36671Y15996*
X35997Y15837*
X35371Y15615*
X34805Y15332*
X34308Y14989*
X33881Y14587*
X33524Y14125*
X33238Y13617*
X33027Y13076*
X32891Y12502*
X32834Y11944*
X34553Y11815*
X34662Y12411*
X34870Y12974*
X35167Y13455*
X35554Y13851*
X36036Y14160*
X36618Y14380*
X37300Y14512*
X38081Y14556*
X38888Y14516*
X39579Y14397*
X40156Y14197*
X40617Y13915*
X40969Y13577*
X41221Y13204*
X41373Y12796*
X41423Y12357*
X41387Y11978*
X41280Y11633*
X41100Y11323*
X40849Y11048*
X40456Y10791*
X39845Y10535*
X39017Y10277*
X37971Y10017*
X36907Y9764*
X36026Y9528*
X35327Y9309*
X34811Y9107*
X34232Y8802*
X33735Y8460*
X33320Y8081*
X32986Y7665*
X32730Y7213*
X32546Y6728*
X32436Y6209*
X32400Y5657*
X32440Y5101*
X32561Y4562*
X32763Y4039*
X33046Y3532*
X33404Y3060*
X33833Y2644*
X34333Y2284*
X34904Y1978*
X35530Y1734*
X36195Y1560*
X36899Y1456*
X37642Y1421*
X38570Y1456*
X39419Y1562*
X40188Y1737*
X40878Y1983*
X41493Y2299*
X42038Y2685*
X42512Y3141*
X42916Y3668*
X43242Y4250*
X43480Y4868*
X43631Y5523*
X43690Y6168*
X29671Y1665D02*
X29671Y15880D01*
X19421Y15880*
X19421Y14292*
X27878Y14292*
X27878Y9805*
X19958Y9806*
X19958Y8227*
X27878Y8227*
X27878Y3253*
X19089Y3253*
X19089Y1665*
X29671Y1665*
X5649Y3138D02*
X4951Y2681D01*
X4328Y2317*
X3730Y2014*
X3206Y1792*
X3723Y0567*
X4445Y0866*
X5211Y1263*
X5976Y1740*
X6766Y2318*
X7607Y1917*
X8459Y1642*
X9352Y1476*
X10287Y1421*
X11230Y1479*
X12127Y1654*
X12979Y1944*
X13787Y2351*
X14526Y2864*
X15176Y3470*
X15735Y4171*
X16204Y4967*
X16575Y5838*
X16841Y6762*
X17000Y7740*
X17053Y8772*
X17000Y9803*
X16839Y10785*
X16572Y11720*
X16199Y12607*
X15727Y13418*
X15166Y14126*
X14514Y14730*
X13773Y15232*
X12962Y15626*
X12105Y15908*
X11200Y16077*
X10248Y16134*
X9288Y16075*
X8377Y15900*
X7514Y15607*
X6700Y15198*
X5958Y14684*
X5309Y14077*
X4754Y13377*
X4293Y12583*
X3930Y11714*
X3671Y10791*
X3515Y9814*
X3463Y8782*
X3497Y7925*
X3597Y7112*
X3764Y6344*
X3997Y5622*
X4298Y4944*
X4666Y4312*
X5102Y3725*
X5649Y3138*
X9741Y5569D02*
X9741Y5569D01*
X8956Y5312*
X8244Y4998*
X7604Y4628*
X7035Y4202*
X6305Y5060*
X5783Y6109*
X5470Y7350*
X5366Y8782*
X5402Y9624*
X5513Y10411*
X5698Y11142*
X5956Y11819*
X6286Y12432*
X6684Y12973*
X7150Y13441*
X7685Y13836*
X8271Y14150*
X8892Y14374*
X9548Y14509*
X10239Y14554*
X11253Y14463*
X12177Y14191*
X13011Y13738*
X13754Y13103*
X14365Y12289*
X14802Y11296*
X15063Y10123*
X15151Y8772*
X15064Y7457*
X14805Y6304*
X14373Y5313*
X13769Y4485*
X13030Y3832*
X12195Y3365*
X11265Y3084*
X10239Y2991*
X9738Y3015*
X9252Y3086*
X8781Y3205*
X8325Y3372*
X8775Y3639*
X9238Y3865*
X9712Y4049*
X10200Y4192*
X9741Y5569*
X147719Y17903D02*
X147719Y32118D01*
X137469Y32118*
X137469Y30530*
X145926Y30530*
X145926Y26043*
X138006Y26043*
X138006Y24465*
X145926Y24465*
X145926Y19491*
X137137Y19491*
X137137Y17903*
X147719Y17903*
X135058Y22405D02*
X133369Y22553D01*
X133291Y22084*
X133163Y21614*
X132992Y21191*
X132777Y20816*
X132508Y20482*
X132175Y20182*
X131777Y19917*
X131315Y19685*
X130806Y19497*
X130267Y19363*
X129697Y19283*
X129098Y19256*
X128568Y19277*
X128069Y19338*
X127601Y19439*
X127165Y19582*
X126771Y19760*
X126430Y19970*
X126142Y20211*
X125907Y20483*
X125726Y20777*
X125596Y21084*
X125518Y21405*
X125492Y21739*
X125517Y22073*
X125592Y22386*
X125718Y22677*
X125894Y22947*
X126127Y23195*
X126423Y23421*
X126783Y23625*
X127204Y23808*
X127583Y23937*
X128134Y24096*
X128860Y24286*
X129759Y24508*
X130670Y24741*
X131433Y24967*
X132047Y25186*
X132512Y25397*
X132987Y25679*
X133396Y25992*
X133741Y26337*
X134021Y26712*
X134237Y27116*
X134392Y27542*
X134485Y27993*
X134516Y28467*
X134478Y28993*
X134364Y29501*
X134174Y29992*
X133909Y30465*
X133571Y30902*
X133163Y31283*
X132684Y31608*
X132135Y31877*
X131533Y32089*
X130897Y32240*
X130229Y32331*
X129527Y32362*
X128759Y32330*
X128039Y32234*
X127366Y32075*
X126740Y31853*
X126173Y31569*
X125676Y31227*
X125250Y30825*
X124892Y30363*
X124606Y29855*
X124395Y29314*
X124259Y28740*
X124202Y28182*
X125921Y28053*
X126031Y28649*
X126238Y29212*
X126535Y29693*
X126922Y30089*
X127404Y30398*
X127986Y30618*
X128668Y30750*
X129449Y30794*
X130256Y30754*
X130948Y30635*
X131525Y30435*
X131985Y30153*
X132337Y29815*
X132589Y29442*
X132741Y29034*
X132791Y28595*
X132756Y28215*
X132648Y27871*
X132468Y27561*
X132217Y27286*
X131824Y27029*
X131214Y26773*
X130386Y26515*
X129339Y26255*
X128276Y26002*
X127394Y25766*
X126695Y25547*
X126179Y25345*
X125600Y25040*
X125104Y24698*
X124688Y24319*
X124355Y23903*
X124098Y23451*
X123915Y22966*
X123805Y22447*
X123768Y21895*
X123808Y21339*
X123929Y20800*
X124131Y20277*
X124414Y19770*
X124772Y19298*
X125201Y18882*
X125701Y18521*
X126272Y18216*
X126899Y17972*
X127564Y17798*
X128267Y17694*
X129010Y17659*
X129938Y17694*
X130787Y17800*
X131556Y17975*
X132246Y18221*
X132862Y18537*
X133406Y18923*
X133880Y19379*
X134285Y19906*
X134610Y20488*
X134849Y21105*
X134999Y21760*
X135058Y22405*
X111446Y17903D02*
X116953Y32118D01*
X115012Y32118*
X111304Y21751*
X111088Y21136*
X110892Y20542*
X110713Y19966*
X110504Y19243*
X110283Y19995*
X110097Y20580*
X109897Y21165*
X109685Y21751*
X105830Y32118*
X104006Y32118*
X109572Y17903*
X111446Y17903*
X102821Y22405D02*
X101132Y22553D01*
X101055Y22084*
X100926Y21614*
X100755Y21191*
X100541Y20816*
X100272Y20482*
X99938Y20182*
X99540Y19917*
X99078Y19685*
X98570Y19497*
X98030Y19363*
X97461Y19283*
X96861Y19256*
X96331Y19277*
X95832Y19338*
X95364Y19439*
X94928Y19582*
X94534Y19761*
X94193Y19970*
X93905Y20211*
X93670Y20483*
X93489Y20777*
X93359Y21084*
X93281Y21405*
X93255Y21739*
X93280Y22073*
X93355Y22386*
X93481Y22677*
X93657Y22947*
X93890Y23195*
X94186Y23421*
X94546Y23625*
X94968Y23808*
X95346Y23937*
X95898Y24096*
X96623Y24286*
X97522Y24508*
X98434Y24741*
X99196Y24967*
X99810Y25186*
X100275Y25397*
X100750Y25679*
X101160Y25992*
X101504Y26337*
X101784Y26712*
X102000Y27116*
X102155Y27542*
X102248Y27993*
X102279Y28467*
X102241Y28993*
X102127Y29501*
X101938Y29992*
X101672Y30466*
X101334Y30902*
X100926Y31283*
X100447Y31608*
X99898Y31877*
X99296Y32089*
X98661Y32241*
X97992Y32331*
X97291Y32362*
X96523Y32330*
X95802Y32234*
X95129Y32075*
X94503Y31853*
X93936Y31570*
X93440Y31227*
X93013Y30825*
X92655Y30363*
X92370Y29855*
X92159Y29314*
X92022Y28740*
X91966Y28182*
X93684Y28053*
X93794Y28649*
X94001Y29212*
X94298Y29693*
X94685Y30089*
X95167Y30398*
X95750Y30618*
X96431Y30750*
X97212Y30794*
X98019Y30754*
X98711Y30635*
X99288Y30435*
X99749Y30153*
X100100Y29815*
X100352Y29442*
X100504Y29034*
X100555Y28595*
X100519Y28216*
X100411Y27871*
X100232Y27561*
X99980Y27286*
X99587Y27029*
X98977Y26773*
X98149Y26515*
X97102Y26255*
X96039Y26002*
X95158Y25766*
X94459Y25547*
X93943Y25345*
X93364Y25040*
X92867Y24698*
X92452Y24319*
X92118Y23903*
X91861Y23451*
X91678Y22966*
X91568Y22447*
X91531Y21895*
X91571Y21339*
X91692Y20800*
X91894Y20277*
X92177Y19770*
X92535Y19298*
X92964Y18882*
X93464Y18521*
X94035Y18216*
X94662Y17972*
X95327Y17798*
X96031Y17694*
X96773Y17659*
X97701Y17694*
X98550Y17800*
X99320Y17975*
X100010Y18221*
X100625Y18537*
X101169Y18923*
X101643Y19379*
X102048Y19906*
X102374Y20488*
X102612Y21105*
X102762Y21761*
X102821Y22405*
X88519Y17903D02*
X88519Y32118D01*
X86726Y32118*
X86726Y17903*
X88519Y17903*
X83861Y24824D02*
X83742Y26502D01*
X83385Y27985*
X82791Y29274*
X81960Y30371*
X80942Y31246*
X79786Y31871*
X78491Y32246*
X77055Y32371*
X76096Y32313*
X75184Y32136*
X74322Y31843*
X73508Y31431*
X72765Y30915*
X72117Y30307*
X71562Y29605*
X71101Y28811*
X70738Y27941*
X70479Y27015*
X70323Y26031*
X70271Y24991*
X70326Y23936*
X70489Y22939*
X70762Y22000*
X71144Y21118*
X71626Y20316*
X72198Y19620*
X72860Y19026*
X73614Y18536*
X74430Y18152*
X75277Y17878*
X76155Y17714*
X77066Y17659*
X78043Y17719*
X78967Y17901*
X79836Y18204*
X80653Y18628*
X81394Y19157*
X82040Y19773*
X82591Y20479*
X83046Y21273*
X83402Y22124*
X83657Y23000*
X83810Y23900*
X83861Y24824*
X81958Y24795D02*
X81958Y24795D01*
X81871Y23570*
X81611Y22482*
X81176Y21532*
X80567Y20718*
X79827Y20067*
X78998Y19601*
X78081Y19322*
X77076Y19229*
X76054Y19323*
X75126Y19605*
X74293Y20075*
X73555Y20733*
X72951Y21564*
X72519Y22552*
X72260Y23697*
X72173Y25001*
X72210Y25847*
X72321Y26637*
X72506Y27373*
X72764Y28052*
X73094Y28668*
X73492Y29209*
X73958Y29678*
X74493Y30074*
X75079Y30388*
X75700Y30612*
X76356Y30747*
X77046Y30792*
X78017Y30705*
X78918Y30446*
X79748Y30014*
X80508Y29410*
X81143Y28603*
X81596Y27565*
X81868Y26296*
X81958Y24795*
X67747Y17903D02*
X67747Y32118D01*
X65882Y32118*
X58284Y20761*
X58284Y32118*
X56569Y32118*
X56569Y17903*
X58435Y17903*
X66032Y29270*
X66032Y17903*
X67747Y17903*
X53225Y17903D02*
X53225Y32118D01*
X51432Y32118*
X51432Y26239*
X43889Y26239*
X43889Y32118*
X42096Y32118*
X42096Y17903*
X43889Y17903*
X43889Y24651*
X51432Y24651*
X51432Y17903*
X53225Y17903*
X40390Y17903D02*
X34931Y32118D01*
X32959Y32118*
X27141Y17903*
X29188Y17903*
X30858Y22239*
X36915Y22239*
X38487Y17903*
X40390Y17903*
X36406Y23680D02*
X31406Y23680D01*
X32926Y27714*
X33245Y28576*
X33521Y29358*
X33752Y30059*
X33997Y30866*
X34189Y29989*
X34367Y29306*
X34574Y28626*
X34808Y27947*
X36406Y23680*
X25178Y17903D02*
X25178Y32118D01*
X23385Y32118*
X23385Y17903*
X25178Y17903*
X19914Y17903D02*
X19914Y32118D01*
X13618Y32118*
X12721Y32094*
X11940Y32022*
X11275Y31902*
X10726Y31735*
X10261Y31509*
X9845Y31211*
X9478Y30839*
X9159Y30394*
X8902Y29899*
X8718Y29379*
X8608Y28834*
X8571Y28263*
X8632Y27539*
X8814Y26877*
X9118Y26274*
X9543Y25729*
X10095Y25261*
X10782Y24886*
X11603Y24604*
X12707Y24387*
X12224Y24141*
X11919Y23964*
X11659Y23788*
X11444Y23615*
X11038Y23213*
X10642Y22764*
X10256Y22266*
X9881Y21721*
X7441Y17903*
X9703Y17903*
X11583Y20858*
X11980Y21466*
X12341Y21997*
X12665Y22454*
X12953Y22835*
X13216Y23153*
X13466Y23421*
X13703Y23637*
X13926Y23803*
X14144Y23931*
X14363Y24039*
X14584Y24125*
X14808Y24191*
X14999Y24222*
X15240Y24243*
X15531Y24256*
X15873Y24260*
X18122Y24260*
X18122Y17903*
X19914Y17903*
X18071Y25850D02*
X18071Y25850D01*
X13998Y25850*
X13384Y25867*
X12841Y25917*
X12369Y26001*
X11967Y26119*
X11623Y26273*
X11323Y26468*
X11066Y26703*
X10854Y26978*
X10687Y27280*
X10568Y27595*
X10497Y27922*
X10473Y28262*
X10519Y28748*
X10657Y29188*
X10888Y29582*
X11210Y29932*
X11632Y30218*
X12161Y30423*
X12797Y30546*
X13540Y30587*
X18071Y30587*
X18071Y25850*
X5178Y17903D02*
X5178Y32118D01*
X3385Y32118*
X3385Y17903*
X5178Y17903*
X147328Y34141D02*
X147328Y48356D01*
X142009Y48356*
X141232Y48329*
X140538Y48248*
X139926Y48113*
X139397Y47925*
X138934Y47682*
X138526Y47381*
X138170Y47023*
X137867Y46607*
X137624Y46156*
X137451Y45695*
X137347Y45225*
X137313Y44744*
X137343Y44299*
X137435Y43867*
X137589Y43448*
X137803Y43043*
X138080Y42663*
X138418Y42322*
X138821Y42018*
X139384Y41697*
X138673Y41437*
X138143Y41149*
X137688Y40796*
X137307Y40377*
X137007Y39905*
X136792Y39392*
X136663Y38837*
X136619Y38240*
X136646Y37752*
X136724Y37281*
X136855Y36828*
X137039Y36392*
X137261Y35990*
X137508Y35636*
X137779Y35333*
X138074Y35078*
X138401Y34861*
X138769Y34672*
X139176Y34511*
X139623Y34379*
X140117Y34275*
X140664Y34200*
X141266Y34156*
X141921Y34141*
X147328Y34141*
X145485Y42391D02*
X145485Y42391D01*
X142389Y42391*
X141804Y42401*
X141307Y42432*
X140900Y42484*
X140582Y42557*
X140243Y42682*
X139949Y42842*
X139699Y43038*
X139493Y43270*
X139333Y43535*
X139219Y43831*
X139150Y44160*
X139127Y44520*
X139149Y44865*
X139213Y45190*
X139319Y45493*
X139469Y45775*
X139658Y46024*
X139884Y46231*
X140146Y46395*
X140446Y46517*
X140820Y46604*
X141307Y46667*
X141909Y46704*
X142623Y46717*
X145485Y46717*
X145485Y42391*
X145485Y35779D02*
X145485Y35779D01*
X141920Y35779*
X141495Y35784*
X141139Y35797*
X140851Y35818*
X140631Y35848*
X140317Y35916*
X140030Y36004*
X139770Y36111*
X139537Y36238*
X139327Y36391*
X139137Y36574*
X138966Y36789*
X138815Y37034*
X138691Y37306*
X138602Y37597*
X138549Y37909*
X138531Y38240*
X138557Y38628*
X138634Y38989*
X138762Y39323*
X138942Y39632*
X139167Y39905*
X139431Y40135*
X139735Y40320*
X140079Y40462*
X140483Y40567*
X140967Y40642*
X141530Y40686*
X142174Y40701*
X145485Y40701*
X145485Y35779*
X134486Y41062D02*
X134367Y42740D01*
X134010Y44223*
X133417Y45512*
X132586Y46609*
X131567Y47484*
X130411Y48109*
X129116Y48484*
X127681Y48609*
X126721Y48551*
X125810Y48374*
X124947Y48081*
X124133Y47669*
X123391Y47153*
X122742Y46545*
X122187Y45843*
X121726Y45049*
X121363Y44179*
X121104Y43253*
X120948Y42269*
X120896Y41229*
X120951Y40174*
X121115Y39177*
X121388Y38238*
X121770Y37355*
X122251Y36554*
X122823Y35857*
X123486Y35264*
X124239Y34774*
X125055Y34390*
X125902Y34116*
X126781Y33952*
X127691Y33897*
X128669Y33957*
X129592Y34139*
X130462Y34442*
X131278Y34866*
X132020Y35395*
X132666Y36011*
X133216Y36717*
X133671Y37511*
X134028Y38362*
X134282Y39238*
X134435Y40138*
X134486Y41062*
X132584Y41033D02*
X132584Y41033D01*
X132497Y39808*
X132236Y38720*
X131801Y37770*
X131192Y36956*
X130452Y36305*
X129624Y35839*
X128707Y35560*
X127701Y35467*
X126679Y35561*
X125752Y35843*
X124919Y36313*
X124181Y36971*
X123576Y37802*
X123144Y38790*
X122885Y39935*
X122799Y41238*
X122836Y42085*
X122946Y42875*
X123131Y43611*
X123390Y44290*
X123719Y44905*
X124117Y45447*
X124583Y45916*
X125118Y46312*
X125704Y46626*
X126325Y46850*
X126981Y46985*
X127672Y47029*
X128643Y46943*
X129543Y46684*
X130373Y46252*
X131134Y45648*
X131768Y44841*
X132221Y43803*
X132493Y42534*
X132584Y41033*
X118353Y34141D02*
X118353Y48356D01*
X113472Y48356*
X112688Y48343*
X112004Y48305*
X111419Y48241*
X110935Y48152*
X110347Y47983*
X109805Y47758*
X109309Y47476*
X108857Y47137*
X108331Y46630*
X107875Y46057*
X107491Y45418*
X107177Y44712*
X106933Y43945*
X106758Y43126*
X106654Y42253*
X106619Y41326*
X106642Y40537*
X106713Y39795*
X106832Y39099*
X106997Y38450*
X107200Y37851*
X107429Y37306*
X107685Y36816*
X107967Y36380*
X108269Y35993*
X108585Y35650*
X108914Y35350*
X109257Y35094*
X109625Y34874*
X110030Y34683*
X110471Y34519*
X110950Y34384*
X111466Y34277*
X112019Y34202*
X112609Y34156*
X113238Y34141*
X118353Y34141*
X116509Y35779D02*
X116509Y35779D01*
X113453Y35779*
X112783Y35796*
X112189Y35845*
X111672Y35928*
X111231Y36043*
X110848Y36188*
X110507Y36361*
X110206Y36560*
X109947Y36785*
X109628Y37151*
X109347Y37575*
X109103Y38057*
X108897Y38597*
X108732Y39196*
X108615Y39855*
X108544Y40575*
X108521Y41356*
X108567Y42414*
X108705Y43342*
X108936Y44140*
X109258Y44808*
X109647Y45361*
X110075Y45815*
X110543Y46169*
X111050Y46424*
X111489Y46552*
X112044Y46644*
X112715Y46699*
X113501Y46717*
X116509Y46717*
X116509Y35779*
X99876Y34141D02*
X99876Y40170D01*
X105349Y48356*
X103167Y48356*
X100360Y44063*
X99977Y43458*
X99607Y42853*
X99250Y42248*
X98863Y41566*
X98480Y42221*
X98106Y42835*
X97699Y43485*
X97257Y44170*
X94499Y48356*
X92417Y48356*
X98083Y40170*
X98083Y34141*
X99876Y34141*
X91209Y38643D02*
X89520Y38791D01*
X89443Y38322*
X89314Y37852*
X89143Y37429*
X88929Y37054*
X88660Y36720*
X88326Y36420*
X87928Y36155*
X87466Y35923*
X86958Y35735*
X86418Y35601*
X85849Y35521*
X85249Y35494*
X84719Y35515*
X84220Y35576*
X83752Y35677*
X83316Y35820*
X82923Y35999*
X82581Y36208*
X82293Y36449*
X82058Y36721*
X81877Y37015*
X81747Y37322*
X81669Y37643*
X81643Y37977*
X81668Y38311*
X81744Y38624*
X81869Y38915*
X82045Y39185*
X82278Y39433*
X82574Y39659*
X82934Y39863*
X83356Y40046*
X83734Y40175*
X84286Y40334*
X85011Y40524*
X85910Y40746*
X86822Y40979*
X87584Y41205*
X88198Y41424*
X88663Y41635*
X89138Y41917*
X89548Y42230*
X89892Y42575*
X90172Y42950*
X90388Y43354*
X90543Y43780*
X90636Y44231*
X90667Y44705*
X90629Y45231*
X90515Y45739*
X90326Y46230*
X90060Y46704*
X89722Y47140*
X89314Y47521*
X88835Y47846*
X88286Y48115*
X87684Y48327*
X87049Y48479*
X86380Y48569*
X85679Y48600*
X84911Y48568*
X84190Y48472*
X83517Y48313*
X82891Y48091*
X82324Y47808*
X81828Y47465*
X81401Y47063*
X81043Y46601*
X80758Y46093*
X80547Y45552*
X80410Y44978*
X80354Y44420*
X82072Y44291*
X82182Y44887*
X82389Y45450*
X82686Y45931*
X83073Y46327*
X83555Y46636*
X84138Y46856*
X84819Y46988*
X85600Y47032*
X86407Y46992*
X87099Y46873*
X87676Y46673*
X88137Y46391*
X88488Y46053*
X88740Y45680*
X88892Y45272*
X88943Y44833*
X88907Y44454*
X88799Y44109*
X88620Y43799*
X88368Y43524*
X87975Y43267*
X87365Y43011*
X86537Y42753*
X85490Y42493*
X84427Y42240*
X83546Y42004*
X82847Y41785*
X82331Y41583*
X81752Y41278*
X81255Y40936*
X80840Y40557*
X80506Y40141*
X80249Y39689*
X80066Y39204*
X79956Y38685*
X79919Y38133*
X79959Y37577*
X80080Y37038*
X80282Y36515*
X80565Y36008*
X80923Y35536*
X81352Y35120*
X81852Y34759*
X82424Y34454*
X83050Y34210*
X83715Y34036*
X84419Y33932*
X85161Y33897*
X86089Y33932*
X86938Y34038*
X87708Y34213*
X88398Y34459*
X89013Y34775*
X89557Y35161*
X90032Y35617*
X90436Y36144*
X90762Y36726*
X91000Y37343*
X91150Y37999*
X91209Y38643*
X77190Y34141D02*
X77190Y48356D01*
X66940Y48356*
X66940Y46768*
X75397Y46768*
X75397Y42281*
X67477Y42281*
X67477Y40703*
X75397Y40703*
X75397Y35729*
X66608Y35729*
X66608Y34141*
X77190Y34141*
X53168Y35614D02*
X52470Y35157D01*
X51847Y34793*
X51249Y34490*
X50725Y34268*
X51242Y33043*
X51965Y33342*
X52730Y33739*
X53496Y34216*
X54286Y34794*
X55127Y34393*
X55979Y34117*
X56872Y33952*
X57807Y33897*
X58750Y33955*
X59647Y34130*
X60499Y34420*
X61306Y34827*
X62046Y35339*
X62695Y35946*
X63254Y36647*
X63723Y37443*
X64095Y38314*
X64360Y39238*
X64519Y40216*
X64572Y41248*
X64519Y42279*
X64359Y43261*
X64092Y44196*
X63718Y45083*
X63247Y45894*
X62685Y46602*
X62034Y47206*
X61292Y47708*
X60482Y48102*
X59624Y48384*
X58720Y48553*
X57768Y48610*
X56807Y48551*
X55896Y48376*
X55034Y48083*
X54220Y47674*
X53477Y47160*
X52829Y46553*
X52274Y45853*
X51812Y45059*
X51450Y44190*
X51190Y43267*
X51035Y42290*
X50983Y41258*
X51016Y40401*
X51116Y39588*
X51283Y38820*
X51517Y38098*
X51817Y37420*
X52185Y36788*
X52621Y36201*
X53168Y35614*
X57260Y38045D02*
X57260Y38045D01*
X56476Y37788*
X55763Y37474*
X55123Y37104*
X54555Y36678*
X53824Y37536*
X53302Y38585*
X52989Y39826*
X52885Y41258*
X52922Y42100*
X53033Y42886*
X53217Y43618*
X53476Y44295*
X53805Y44908*
X54203Y45449*
X54670Y45917*
X55204Y46312*
X55791Y46626*
X56412Y46850*
X57067Y46985*
X57758Y47030*
X58772Y46939*
X59697Y46667*
X60530Y46214*
X61274Y45579*
X61885Y44765*
X62321Y43771*
X62583Y42599*
X62670Y41248*
X62584Y39933*
X62325Y38780*
X61893Y37789*
X61288Y36961*
X60550Y36308*
X59715Y35841*
X58784Y35560*
X57758Y35467*
X57258Y35491*
X56772Y35562*
X56301Y35681*
X55844Y35848*
X56294Y36115*
X56757Y36341*
X57232Y36525*
X57719Y36668*
X57260Y38045*
X32576Y39048D02*
X30782Y38595D01*
X31121Y37553*
X31594Y36601*
X32184Y35787*
X32892Y35112*
X33701Y34580*
X34596Y34201*
X35577Y33973*
X36645Y33897*
X37742Y33955*
X38730Y34131*
X39610Y34423*
X40382Y34831*
X41057Y35350*
X41646Y35974*
X42151Y36703*
X42569Y37538*
X42899Y38443*
X43134Y39381*
X43275Y40352*
X43322Y41356*
X43269Y42433*
X43110Y43438*
X42844Y44372*
X42473Y45234*
X42005Y46010*
X41447Y46687*
X40799Y47264*
X40062Y47742*
X39260Y48117*
X38418Y48385*
X37537Y48546*
X36615Y48600*
X35591Y48532*
X34652Y48328*
X33800Y47990*
X33032Y47516*
X32362Y46919*
X31802Y46213*
X31351Y45395*
X31028Y44517*
X32794Y44101*
X33057Y44791*
X33394Y45419*
X33788Y45941*
X34241Y46357*
X34753Y46674*
X35326Y46900*
X35960Y47035*
X36654Y47080*
X37452Y47031*
X38183Y46881*
X38847Y46631*
X39442Y46280*
X39962Y45846*
X40398Y45342*
X40750Y44770*
X41019Y44132*
X41217Y43455*
X41358Y42769*
X41442Y42072*
X41471Y41366*
X41437Y40477*
X41337Y39647*
X41170Y38874*
X40935Y38158*
X40629Y37514*
X40247Y36955*
X39790Y36482*
X39259Y36097*
X38679Y35799*
X38077Y35586*
X37450Y35459*
X36800Y35416*
X36027Y35474*
X35314Y35648*
X34663Y35939*
X34073Y36346*
X33559Y36867*
X33135Y37501*
X32803Y38245*
X32576Y39048*
X28234Y34141D02*
X28234Y48356D01*
X18678Y48356*
X18678Y46768*
X26441Y46768*
X26441Y42233*
X19722Y42233*
X19722Y40645*
X26441Y40645*
X26441Y34141*
X28234Y34141*
X16692Y41062D02*
X16572Y42740D01*
X16216Y44224*
X15622Y45513*
X14791Y46609*
X13773Y47484*
X12617Y48109*
X11322Y48484*
X9886Y48610*
X8927Y48551*
X8015Y48374*
X7153Y48081*
X6339Y47669*
X5596Y47153*
X4948Y46545*
X4393Y45843*
X3932Y45049*
X3569Y44179*
X3309Y43253*
X3154Y42269*
X3102Y41229*
X3157Y40174*
X3320Y39177*
X3593Y38238*
X3975Y37356*
X4457Y36555*
X5029Y35858*
X5691Y35264*
X6445Y34774*
X7260Y34390*
X8108Y34116*
X8986Y33952*
X9897Y33897*
X10874Y33958*
X11797Y34139*
X12667Y34442*
X13483Y34866*
X14225Y35395*
X14871Y36012*
X15421Y36717*
X15876Y37511*
X16233Y38362*
X16488Y39238*
X16641Y40138*
X16692Y41062*
X14789Y41034D02*
X14789Y41034D01*
X14702Y39808*
X14441Y38720*
X14007Y37770*
X13398Y36956*
X12658Y36305*
X11829Y35839*
X10912Y35560*
X9906Y35467*
X8884Y35561*
X7957Y35843*
X7124Y36313*
X6386Y36971*
X5781Y37802*
X5350Y38790*
X5091Y39935*
X5004Y41239*
X5041Y42085*
X5152Y42876*
X5336Y43611*
X5595Y44290*
X5925Y44906*
X6323Y45448*
X6789Y45916*
X7324Y46312*
X7910Y46626*
X8531Y46850*
X9187Y46985*
X9877Y47030*
X10848Y46943*
X11749Y46684*
X12579Y46252*
X13339Y45648*
X13974Y44841*
X14427Y43803*
X14699Y42534*
X14789Y41034*
X144952Y50125D02*
X150460Y64340D01*
X148519Y64340*
X144810Y53973*
X144595Y53358*
X144398Y52764*
X144220Y52188*
X144011Y51465*
X143789Y52217*
X143604Y52802*
X143404Y53387*
X143191Y53973*
X139337Y64340*
X137513Y64340*
X143079Y50125*
X144952Y50125*
X136328Y54627D02*
X134639Y54775D01*
X134561Y54306*
X134433Y53836*
X134262Y53413*
X134048Y53038*
X133778Y52704*
X133445Y52404*
X133047Y52139*
X132585Y51907*
X132076Y51719*
X131537Y51585*
X130968Y51505*
X130368Y51478*
X129838Y51499*
X129339Y51560*
X128871Y51661*
X128435Y51804*
X128041Y51983*
X127700Y52192*
X127412Y52433*
X127177Y52705*
X126996Y52999*
X126866Y53306*
X126788Y53627*
X126762Y53961*
X126787Y54295*
X126862Y54608*
X126988Y54899*
X127164Y55169*
X127397Y55417*
X127693Y55643*
X128053Y55847*
X128474Y56030*
X128853Y56159*
X129405Y56318*
X130130Y56508*
X131029Y56730*
X131941Y56963*
X132703Y57189*
X133317Y57408*
X133782Y57619*
X134257Y57901*
X134666Y58214*
X135011Y58559*
X135291Y58934*
X135507Y59338*
X135662Y59764*
X135755Y60215*
X135786Y60689*
X135748Y61215*
X135634Y61723*
X135444Y62214*
X135179Y62687*
X134841Y63124*
X134433Y63505*
X133954Y63830*
X133405Y64099*
X132803Y64311*
X132168Y64463*
X131499Y64553*
X130797Y64584*
X130029Y64552*
X129309Y64456*
X128636Y64297*
X128010Y64075*
X127443Y63791*
X126946Y63449*
X126520Y63047*
X126162Y62585*
X125876Y62077*
X125665Y61536*
X125529Y60962*
X125472Y60404*
X127191Y60275*
X127301Y60871*
X127508Y61434*
X127805Y61915*
X128192Y62311*
X128674Y62620*
X129256Y62840*
X129938Y62972*
X130719Y63016*
X131526Y62976*
X132218Y62857*
X132795Y62657*
X133255Y62375*
X133607Y62037*
X133859Y61664*
X134011Y61256*
X134061Y60817*
X134026Y60437*
X133918Y60093*
X133738Y59783*
X133487Y59508*
X133094Y59251*
X132484Y58995*
X131656Y58737*
X130609Y58477*
X129546Y58224*
X128664Y57988*
X127966Y57769*
X127449Y57567*
X126871Y57262*
X126374Y56920*
X125959Y56541*
X125625Y56125*
X125368Y55673*
X125185Y55188*
X125075Y54669*
X125038Y54117*
X125078Y53561*
X125199Y53022*
X125401Y52499*
X125684Y51992*
X126042Y51520*
X126471Y51104*
X126971Y50743*
X127542Y50438*
X128169Y50194*
X128834Y50020*
X129537Y49916*
X130280Y49881*
X131208Y49916*
X132057Y50022*
X132826Y50197*
X133516Y50443*
X134132Y50759*
X134676Y51145*
X135150Y51601*
X135555Y52128*
X135880Y52710*
X136119Y53327*
X136269Y53983*
X136328Y54627*
X122026Y50125D02*
X122026Y64340D01*
X120233Y64340*
X120233Y50125*
X122026Y50125*
X117367Y57046D02*
X117248Y58724D01*
X116892Y60207*
X116298Y61496*
X115467Y62593*
X114449Y63468*
X113293Y64093*
X111998Y64468*
X110562Y64593*
X109603Y64535*
X108691Y64358*
X107829Y64065*
X107015Y63653*
X106272Y63137*
X105624Y62529*
X105069Y61827*
X104608Y61033*
X104245Y60163*
X103985Y59237*
X103830Y58253*
X103778Y57213*
X103833Y56158*
X103996Y55161*
X104269Y54222*
X104651Y53340*
X105133Y52538*
X105705Y51841*
X106367Y51248*
X107121Y50758*
X107936Y50374*
X108783Y50100*
X109662Y49936*
X110573Y49881*
X111550Y49941*
X112473Y50123*
X113343Y50426*
X114159Y50850*
X114901Y51379*
X115547Y51995*
X116097Y52701*
X116552Y53495*
X116909Y54346*
X117164Y55222*
X117317Y56122*
X117367Y57046*
X115465Y57017D02*
X115465Y57017D01*
X115378Y55792*
X115117Y54704*
X114682Y53754*
X114074Y52940*
X113334Y52289*
X112505Y51823*
X111588Y51544*
X110582Y51451*
X109560Y51545*
X108633Y51827*
X107800Y52297*
X107062Y52955*
X106457Y53786*
X106026Y54774*
X105766Y55919*
X105680Y57222*
X105717Y58069*
X105828Y58859*
X106012Y59595*
X106271Y60274*
X106601Y60889*
X106998Y61431*
X107465Y61900*
X107999Y62296*
X108586Y62610*
X109207Y62834*
X109863Y62969*
X110553Y63014*
X111524Y62927*
X112424Y62668*
X113255Y62236*
X114015Y61632*
X114650Y60825*
X115103Y59787*
X115375Y58518*
X115465Y57017*
X101254Y50125D02*
X101254Y64340D01*
X99388Y64340*
X91791Y52983*
X91791Y64340*
X90076Y64340*
X90076Y50125*
X91942Y50125*
X99539Y61491*
X99539Y50125*
X101254Y50125*
X86732Y50125D02*
X86732Y64340D01*
X84939Y64340*
X84939Y58461*
X77396Y58461*
X77396Y64340*
X75603Y64340*
X75603Y50125*
X77396Y50125*
X77396Y56873*
X84939Y56873*
X84939Y50125*
X86732Y50125*
X73896Y50125D02*
X68437Y64340D01*
X66465Y64340*
X60648Y50125*
X62695Y50125*
X64365Y54461*
X70422Y54461*
X71994Y50125*
X73896Y50125*
X69913Y55902D02*
X64913Y55902D01*
X66433Y59936*
X66752Y60798*
X67028Y61580*
X67259Y62281*
X67504Y63088*
X67696Y62211*
X67874Y61528*
X68081Y60848*
X68315Y60169*
X69913Y55902*
X58685Y50125D02*
X58685Y64340D01*
X56892Y64340*
X56892Y50125*
X58685Y50125*
X53421Y50125D02*
X53421Y64340D01*
X47125Y64340*
X46228Y64316*
X45447Y64244*
X44782Y64124*
X44233Y63957*
X43767Y63731*
X43351Y63433*
X42984Y63061*
X42666Y62616*
X42409Y62121*
X42225Y61601*
X42115Y61056*
X42078Y60485*
X42139Y59761*
X42321Y59099*
X42625Y58496*
X43050Y57951*
X43602Y57483*
X44289Y57108*
X45110Y56826*
X46214Y56609*
X45731Y56363*
X45425Y56186*
X45166Y56010*
X44951Y55837*
X44545Y55435*
X44148Y54986*
X43763Y54488*
X43388Y53943*
X40948Y50125*
X43210Y50125*
X45090Y53080*
X45487Y53687*
X45847Y54219*
X46172Y54676*
X46460Y55057*
X46723Y55375*
X46973Y55642*
X47210Y55859*
X47433Y56025*
X47651Y56153*
X47869Y56261*
X48090Y56347*
X48314Y56413*
X48506Y56444*
X48747Y56465*
X49038Y56478*
X49380Y56482*
X51628Y56482*
X51628Y50125*
X53421Y50125*
X51578Y58072D02*
X51578Y58072D01*
X47505Y58072*
X46891Y58089*
X46348Y58139*
X45876Y58223*
X45474Y58341*
X45130Y58495*
X44830Y58690*
X44573Y58925*
X44361Y59200*
X44194Y59502*
X44075Y59817*
X44004Y60144*
X43980Y60484*
X44026Y60970*
X44164Y61410*
X44395Y61804*
X44717Y62154*
X45139Y62440*
X45668Y62645*
X46304Y62768*
X47046Y62809*
X51578Y62809*
X51578Y58072*
X38685Y50125D02*
X38685Y64340D01*
X36892Y64340*
X36892Y50125*
X38685Y50125*
X33412Y50125D02*
X33412Y64340D01*
X23162Y64340*
X23162Y62752*
X31619Y62752*
X31619Y58266*
X23699Y58266*
X23699Y56687*
X31619Y56687*
X31619Y51713*
X22830Y51713*
X22830Y50125*
X33412Y50125*
X20751Y54628D02*
X19061Y54775D01*
X18984Y54306*
X18856Y53836*
X18685Y53413*
X18470Y53039*
X18201Y52705*
X17867Y52405*
X17469Y52139*
X17008Y51907*
X16499Y51720*
X15960Y51586*
X15390Y51505*
X14790Y51478*
X14260Y51499*
X13761Y51560*
X13294Y51661*
X12858Y51804*
X12464Y51983*
X12122Y52192*
X11834Y52433*
X11600Y52705*
X11418Y52999*
X11288Y53306*
X11210Y53627*
X11185Y53961*
X11210Y54295*
X11285Y54608*
X11410Y54900*
X11586Y55169*
X11819Y55417*
X12116Y55643*
X12475Y55847*
X12897Y56030*
X13275Y56159*
X13827Y56318*
X14552Y56509*
X15452Y56730*
X16363Y56963*
X17125Y57189*
X17739Y57408*
X18204Y57619*
X18679Y57901*
X19089Y58214*
X19433Y58559*
X19713Y58934*
X19930Y59338*
X20084Y59765*
X20177Y60215*
X20208Y60689*
X20170Y61215*
X20056Y61723*
X19867Y62214*
X19601Y62688*
X19263Y63124*
X18855Y63505*
X18377Y63830*
X17827Y64099*
X17225Y64311*
X16590Y64463*
X15922Y64554*
X15220Y64584*
X14452Y64552*
X13731Y64457*
X13058Y64298*
X12432Y64075*
X11865Y63792*
X11369Y63449*
X10942Y63047*
X10585Y62585*
X10299Y62077*
X10088Y61536*
X9951Y60962*
X9895Y60404*
X11614Y60275*
X11723Y60871*
X11931Y61434*
X12228Y61915*
X12614Y62311*
X13096Y62620*
X13679Y62841*
X14361Y62972*
X15142Y63016*
X15948Y62976*
X16640Y62857*
X17217Y62657*
X17678Y62375*
X18030Y62037*
X18282Y61664*
X18433Y61256*
X18484Y60817*
X18448Y60438*
X18340Y60093*
X18161Y59783*
X17909Y59508*
X17516Y59251*
X16906Y58995*
X16078Y58737*
X15032Y58477*
X13968Y58224*
X13087Y57988*
X12388Y57769*
X11872Y57567*
X11293Y57262*
X10796Y56920*
X10381Y56541*
X10047Y56125*
X9791Y55673*
X9607Y55188*
X9497Y54670*
X9460Y54117*
X9501Y53562*
X9622Y53022*
X9823Y52499*
X10106Y51992*
X10465Y51520*
X10893Y51104*
X11393Y50744*
X11965Y50438*
X12591Y50194*
X13256Y50020*
X13960Y49916*
X14702Y49881*
X15630Y49916*
X16479Y50022*
X17249Y50197*
X17939Y50443*
X18554Y50759*
X19098Y51145*
X19573Y51601*
X19977Y52129*
X20303Y52710*
X20541Y53328*
X20692Y53983*
X20751Y54628*
X147758Y66617D02*
X147758Y80832D01*
X142878Y80832*
X142094Y80819*
X141409Y80780*
X140825Y80717*
X140340Y80628*
X139753Y80459*
X139211Y80234*
X138714Y79952*
X138262Y79613*
X137736Y79106*
X137281Y78533*
X136896Y77893*
X136582Y77188*
X136338Y76421*
X136164Y75602*
X136059Y74729*
X136024Y73802*
X136048Y73013*
X136119Y72271*
X136237Y71575*
X136403Y70926*
X136605Y70327*
X136835Y69782*
X137090Y69292*
X137372Y68856*
X137674Y68469*
X137990Y68125*
X138320Y67826*
X138663Y67570*
X139031Y67350*
X139435Y67158*
X139877Y66995*
X140355Y66860*
X140871Y66753*
X141424Y66678*
X142015Y66632*
X142644Y66617*
X147758Y66617*
X145914Y68255D02*
X145914Y68255D01*
X142858Y68255*
X142188Y68272*
X141594Y68321*
X141077Y68404*
X140636Y68519*
X140254Y68664*
X139912Y68836*
X139612Y69035*
X139352Y69261*
X139034Y69627*
X138753Y70051*
X138509Y70533*
X138302Y71073*
X138138Y71672*
X138020Y72331*
X137950Y73051*
X137926Y73832*
X137972Y74890*
X138111Y75818*
X138341Y76616*
X138664Y77284*
X139052Y77837*
X139480Y78291*
X139948Y78645*
X140456Y78900*
X140894Y79028*
X141449Y79120*
X142120Y79175*
X142907Y79193*
X145915Y79193*
X145914Y68255*
X129281Y66617D02*
X129282Y72646D01*
X134755Y80832*
X132573Y80832*
X129766Y76538*
X129382Y75934*
X129012Y75329*
X128655Y74724*
X128269Y74042*
X127885Y74697*
X127512Y75311*
X127104Y75961*
X126663Y76646*
X123905Y80832*
X121822Y80832*
X127489Y72646*
X127489Y66617*
X129281Y66617*
X120615Y71119D02*
X118925Y71267D01*
X118848Y70798*
X118720Y70328*
X118549Y69905*
X118334Y69530*
X118065Y69196*
X117731Y68896*
X117333Y68631*
X116872Y68399*
X116363Y68211*
X115824Y68077*
X115254Y67997*
X114654Y67970*
X114124Y67991*
X113625Y68052*
X113158Y68153*
X112722Y68296*
X112328Y68474*
X111987Y68684*
X111698Y68925*
X111464Y69197*
X111282Y69491*
X111152Y69798*
X111075Y70119*
X111049Y70453*
X111074Y70787*
X111149Y71100*
X111274Y71391*
X111450Y71661*
X111683Y71909*
X111980Y72135*
X112339Y72339*
X112761Y72522*
X113139Y72651*
X113691Y72810*
X114417Y73000*
X115316Y73222*
X116227Y73455*
X116990Y73681*
X117603Y73900*
X118068Y74111*
X118543Y74393*
X118953Y74706*
X119297Y75051*
X119577Y75426*
X119794Y75830*
X119948Y76256*
X120041Y76707*
X120072Y77181*
X120034Y77707*
X119920Y78215*
X119731Y78706*
X119465Y79179*
X119127Y79616*
X118719Y79997*
X118241Y80322*
X117691Y80591*
X117089Y80803*
X116454Y80954*
X115786Y81045*
X115084Y81076*
X114316Y81044*
X113595Y80948*
X112922Y80789*
X112296Y80567*
X111729Y80283*
X111233Y79941*
X110806Y79539*
X110449Y79077*
X110163Y78569*
X109952Y78028*
X109816Y77454*
X109759Y76896*
X111478Y76767*
X111587Y77363*
X111795Y77926*
X112092Y78407*
X112478Y78803*
X112960Y79112*
X113543Y79332*
X114225Y79464*
X115006Y79507*
X115812Y79468*
X116504Y79349*
X117081Y79149*
X117542Y78867*
X117894Y78529*
X118146Y78156*
X118297Y77748*
X118348Y77309*
X118312Y76929*
X118204Y76585*
X118025Y76275*
X117773Y76000*
X117381Y75743*
X116770Y75487*
X115942Y75229*
X114896Y74969*
X113832Y74716*
X112951Y74480*
X112252Y74261*
X111736Y74059*
X111157Y73754*
X110660Y73412*
X110245Y73033*
X109911Y72617*
X109655Y72165*
X109471Y71680*
X109361Y71161*
X109324Y70609*
X109365Y70053*
X109486Y69514*
X109688Y68991*
X109970Y68484*
X110329Y68012*
X110758Y67596*
X111257Y67235*
X111829Y66930*
X112455Y66686*
X113120Y66512*
X113824Y66408*
X114567Y66373*
X115495Y66408*
X116343Y66514*
X117113Y66689*
X117803Y66935*
X118418Y67251*
X118963Y67637*
X119437Y68093*
X119841Y68620*
X120167Y69201*
X120405Y69819*
X120556Y70474*
X120615Y71119*
X106595Y66617D02*
X106595Y80832D01*
X96345Y80832*
X96345Y79244*
X104802Y79244*
X104802Y74757*
X96882Y74757*
X96882Y73179*
X104802Y73179*
X104802Y68205*
X96013Y68205*
X96013Y66617*
X106595Y66617*
X82574Y68090D02*
X81876Y67632D01*
X81253Y67268*
X80655Y66965*
X80130Y66744*
X80648Y65519*
X81370Y65817*
X82136Y66215*
X82901Y66692*
X83691Y67269*
X84532Y66869*
X85384Y66593*
X86277Y66428*
X87212Y66373*
X88155Y66431*
X89052Y66605*
X89904Y66896*
X90712Y67303*
X91451Y67815*
X92100Y68422*
X92659Y69123*
X93129Y69919*
X93500Y70790*
X93765Y71714*
X93925Y72692*
X93978Y73724*
X93924Y74755*
X93764Y75737*
X93497Y76672*
X93124Y77559*
X92652Y78370*
X92091Y79078*
X91439Y79682*
X90698Y80184*
X89887Y80578*
X89029Y80860*
X88125Y81029*
X87173Y81085*
X86213Y81027*
X85301Y80852*
X84439Y80559*
X83625Y80150*
X82882Y79636*
X82234Y79029*
X81679Y78329*
X81218Y77535*
X80855Y76666*
X80596Y75743*
X80440Y74766*
X80388Y73734*
X80421Y72877*
X80522Y72064*
X80688Y71296*
X80922Y70573*
X81222Y69896*
X81591Y69264*
X82027Y68677*
X82574Y68090*
X86665Y70521D02*
X86665Y70521D01*
X85881Y70264*
X85169Y69950*
X84528Y69580*
X83960Y69154*
X83230Y70011*
X82708Y71061*
X82395Y72302*
X82290Y73734*
X82327Y74576*
X82438Y75362*
X82623Y76094*
X82881Y76771*
X83211Y77384*
X83609Y77925*
X84075Y78393*
X84610Y78788*
X85196Y79102*
X85817Y79326*
X86473Y79461*
X87163Y79506*
X88178Y79415*
X89102Y79143*
X89936Y78690*
X90679Y78055*
X91290Y77241*
X91726Y76247*
X91988Y75075*
X92076Y73724*
X91989Y72409*
X91730Y71256*
X91298Y70265*
X90694Y69437*
X89955Y68783*
X89120Y68317*
X88190Y68036*
X87163Y67943*
X86663Y67967*
X86177Y68038*
X85706Y68157*
X85249Y68324*
X85700Y68591*
X86162Y68817*
X86637Y69001*
X87124Y69144*
X86665Y70521*
M02*