%FSLAX33Y33*%
%MOMM*%
%ADD10C,0.2032*%
%ADD11C,12.8X12.*%
%ADD12C,0.15*%
%ADD13C,1.*%
%ADD14C,0.254*%
%ADD15C,3.4*%
%ADD16C,6.3X6.1*%
%ADD17C,0.5*%
%ADD18C,0.1*%
%ADD19C,0.5*%
%ADD20C,12.8X12.*%
%ADD21C,10.0076X9.4996*%
%ADD22C,6.3X6.1*%
%ADD23C,6.95X6.65*%
%ADD24C,6.3X6.1*%
D10*
%LNpour fill*%
G36*
G01*
X15037Y32183D02*
X30683Y32183D01*
X30683Y31183D01*
X31547Y31183D01*
X31547Y32183D01*
X36667Y32183D01*
X36667Y32837D01*
X36667Y32987D01*
X36517Y32987D01*
X36517Y35593D01*
X36667Y35593D01*
X36667Y35743D01*
X42073Y35743D01*
X42073Y35593D01*
X42223Y35593D01*
X42223Y32987D01*
X42073Y32987D01*
X42073Y32837D01*
X36667Y32837D01*
X36667Y32183D01*
X47193Y32183D01*
X47193Y31183D01*
X48057Y31183D01*
X48057Y32183D01*
X53177Y32183D01*
X53177Y32837D01*
X53177Y32987D01*
X53027Y32987D01*
X53027Y35593D01*
X53177Y35593D01*
X53177Y35743D01*
X58583Y35743D01*
X58583Y35593D01*
X58733Y35593D01*
X58733Y32987D01*
X58583Y32987D01*
X58583Y32837D01*
X53177Y32837D01*
X53177Y32183D01*
X63703Y32183D01*
X63703Y31183D01*
X64567Y31183D01*
X64567Y32183D01*
X69687Y32183D01*
X69687Y32837D01*
X69687Y32987D01*
X69537Y32987D01*
X69537Y35593D01*
X69687Y35593D01*
X69687Y35743D01*
X75093Y35743D01*
X75093Y35593D01*
X75243Y35593D01*
X75243Y32987D01*
X75093Y32987D01*
X75093Y32837D01*
X69687Y32837D01*
X69687Y32183D01*
X80213Y32183D01*
X80213Y31183D01*
X81077Y31183D01*
X81077Y32183D01*
X86197Y32183D01*
X86197Y32837D01*
X86197Y32987D01*
X86047Y32987D01*
X86047Y35593D01*
X86197Y35593D01*
X86197Y35743D01*
X91603Y35743D01*
X91603Y35593D01*
X91753Y35593D01*
X91753Y32987D01*
X91603Y32987D01*
X91603Y32837D01*
X86197Y32837D01*
X86197Y32183D01*
X96723Y32183D01*
X96723Y31183D01*
X97587Y31183D01*
X97587Y32183D01*
X102707Y32183D01*
X102707Y32837D01*
X102707Y32987D01*
X102557Y32987D01*
X102557Y35593D01*
X102707Y35593D01*
X102707Y35743D01*
X108113Y35743D01*
X108113Y35593D01*
X108263Y35593D01*
X108263Y32987D01*
X108113Y32987D01*
X108113Y32837D01*
X102707Y32837D01*
X102707Y32183D01*
X113233Y32183D01*
X113233Y31183D01*
X114097Y31183D01*
X114097Y32183D01*
X119217Y32183D01*
X119217Y32837D01*
X119217Y32987D01*
X119067Y32987D01*
X119067Y35593D01*
X119217Y35593D01*
X119217Y35743D01*
X124623Y35743D01*
X124623Y35593D01*
X124773Y35593D01*
X124773Y32987D01*
X124623Y32987D01*
X124623Y32837D01*
X119217Y32837D01*
X119217Y32183D01*
X129743Y32183D01*
X129743Y31183D01*
X130607Y31183D01*
X130607Y32183D01*
X135727Y32183D01*
X135727Y32837D01*
X135727Y32987D01*
X135577Y32987D01*
X135577Y35593D01*
X135727Y35593D01*
X135727Y35743D01*
X141133Y35743D01*
X141133Y35593D01*
X141283Y35593D01*
X141283Y32987D01*
X141133Y32987D01*
X141133Y32837D01*
X135727Y32837D01*
X135727Y32183D01*
X146253Y32183D01*
X146253Y31183D01*
X146685Y31183D01*
X146685Y44450D01*
X133320Y44450D01*
X133320Y43909D01*
X143540Y43909D01*
X143562Y43904D01*
X143585Y43904D01*
X143606Y43894D01*
X143628Y43888D01*
X143646Y43874D01*
X143667Y43864D01*
X143681Y43846D01*
X143699Y43832D01*
X143709Y43811D01*
X143723Y43794D01*
X143728Y43771D01*
X143738Y43751D01*
X143738Y43728D01*
X143743Y43705D01*
X143743Y40115D01*
X143738Y40092D01*
X143738Y40069D01*
X143728Y40049D01*
X143718Y40005D01*
X143728Y39961D01*
X143738Y39941D01*
X143738Y39918D01*
X143743Y39895D01*
X143743Y36305D01*
X143738Y36282D01*
X143738Y36259D01*
X143728Y36239D01*
X143723Y36216D01*
X143709Y36199D01*
X143699Y36178D01*
X143681Y36164D01*
X143667Y36146D01*
X143646Y36136D01*
X143628Y36122D01*
X143606Y36116D01*
X143585Y36106D01*
X143562Y36106D01*
X143540Y36101D01*
X133320Y36101D01*
X133298Y36106D01*
X133275Y36106D01*
X133254Y36116D01*
X133232Y36122D01*
X133214Y36136D01*
X133193Y36146D01*
X133179Y36164D01*
X133161Y36178D01*
X133151Y36199D01*
X133137Y36216D01*
X133132Y36239D01*
X133122Y36259D01*
X133122Y36282D01*
X133117Y36305D01*
X133117Y39895D01*
X133122Y39918D01*
X133122Y39941D01*
X133132Y39961D01*
X133142Y40005D01*
X133132Y40049D01*
X133122Y40069D01*
X133122Y40092D01*
X133117Y40115D01*
X133117Y43705D01*
X133122Y43728D01*
X133122Y43751D01*
X133132Y43771D01*
X133137Y43794D01*
X133151Y43811D01*
X133161Y43832D01*
X133179Y43846D01*
X133193Y43864D01*
X133214Y43874D01*
X133232Y43888D01*
X133254Y43894D01*
X133275Y43904D01*
X133298Y43904D01*
X133320Y43909D01*
X133320Y44450D01*
X131331Y44450D01*
X131271Y44208D01*
X131106Y44021D01*
X130873Y43933D01*
X130625Y43963D01*
X130420Y44105D01*
X130304Y44325D01*
X130304Y44450D01*
X116810Y44450D01*
X116810Y43909D01*
X127030Y43909D01*
X127052Y43904D01*
X127075Y43904D01*
X127096Y43894D01*
X127118Y43888D01*
X127136Y43874D01*
X127157Y43864D01*
X127171Y43846D01*
X127189Y43832D01*
X127199Y43811D01*
X127213Y43794D01*
X127218Y43771D01*
X127228Y43751D01*
X127228Y43728D01*
X127233Y43705D01*
X127233Y40115D01*
X127228Y40092D01*
X127228Y40069D01*
X127218Y40049D01*
X127208Y40005D01*
X127218Y39961D01*
X127228Y39941D01*
X127228Y39918D01*
X127233Y39895D01*
X127233Y36305D01*
X127228Y36282D01*
X127228Y36259D01*
X127218Y36239D01*
X127213Y36216D01*
X127199Y36199D01*
X127189Y36178D01*
X127171Y36164D01*
X127157Y36146D01*
X127136Y36136D01*
X127118Y36122D01*
X127096Y36116D01*
X127075Y36106D01*
X127052Y36106D01*
X127030Y36101D01*
X116810Y36101D01*
X116788Y36106D01*
X116765Y36106D01*
X116744Y36116D01*
X116722Y36122D01*
X116704Y36136D01*
X116683Y36146D01*
X116669Y36164D01*
X116651Y36178D01*
X116641Y36199D01*
X116627Y36216D01*
X116622Y36239D01*
X116612Y36259D01*
X116612Y36282D01*
X116607Y36305D01*
X116607Y39895D01*
X116612Y39918D01*
X116612Y39941D01*
X116622Y39961D01*
X116632Y40005D01*
X116622Y40049D01*
X116612Y40069D01*
X116612Y40092D01*
X116607Y40115D01*
X116607Y43705D01*
X116612Y43728D01*
X116612Y43751D01*
X116622Y43771D01*
X116627Y43794D01*
X116641Y43811D01*
X116651Y43832D01*
X116669Y43846D01*
X116683Y43864D01*
X116704Y43874D01*
X116722Y43888D01*
X116744Y43894D01*
X116765Y43904D01*
X116788Y43904D01*
X116810Y43909D01*
X116810Y44450D01*
X114821Y44450D01*
X114761Y44208D01*
X114596Y44021D01*
X114363Y43933D01*
X114115Y43963D01*
X113910Y44105D01*
X113794Y44325D01*
X113794Y44450D01*
X100300Y44450D01*
X100300Y43909D01*
X110520Y43909D01*
X110542Y43904D01*
X110565Y43904D01*
X110586Y43894D01*
X110608Y43888D01*
X110626Y43874D01*
X110647Y43864D01*
X110661Y43846D01*
X110679Y43832D01*
X110689Y43811D01*
X110703Y43794D01*
X110708Y43771D01*
X110718Y43751D01*
X110718Y43728D01*
X110723Y43705D01*
X110723Y40115D01*
X110718Y40092D01*
X110718Y40069D01*
X110708Y40049D01*
X110698Y40005D01*
X110708Y39961D01*
X110718Y39941D01*
X110718Y39918D01*
X110723Y39895D01*
X110723Y36305D01*
X110718Y36282D01*
X110718Y36259D01*
X110708Y36239D01*
X110703Y36216D01*
X110689Y36199D01*
X110679Y36178D01*
X110661Y36164D01*
X110647Y36146D01*
X110626Y36136D01*
X110608Y36122D01*
X110586Y36116D01*
X110565Y36106D01*
X110542Y36106D01*
X110520Y36101D01*
X100300Y36101D01*
X100278Y36106D01*
X100255Y36106D01*
X100234Y36116D01*
X100212Y36122D01*
X100194Y36136D01*
X100173Y36146D01*
X100159Y36164D01*
X100141Y36178D01*
X100131Y36199D01*
X100117Y36216D01*
X100112Y36239D01*
X100102Y36259D01*
X100102Y36282D01*
X100097Y36305D01*
X100097Y39895D01*
X100102Y39918D01*
X100102Y39941D01*
X100112Y39961D01*
X100122Y40005D01*
X100112Y40049D01*
X100102Y40069D01*
X100102Y40092D01*
X100097Y40115D01*
X100097Y43705D01*
X100102Y43728D01*
X100102Y43751D01*
X100112Y43771D01*
X100117Y43794D01*
X100131Y43811D01*
X100141Y43832D01*
X100159Y43846D01*
X100173Y43864D01*
X100194Y43874D01*
X100212Y43888D01*
X100234Y43894D01*
X100255Y43904D01*
X100278Y43904D01*
X100300Y43909D01*
X100300Y44450D01*
X98311Y44450D01*
X98251Y44208D01*
X98086Y44021D01*
X97853Y43933D01*
X97605Y43963D01*
X97400Y44105D01*
X97284Y44325D01*
X97284Y44450D01*
X83790Y44450D01*
X83790Y43909D01*
X94010Y43909D01*
X94032Y43904D01*
X94055Y43904D01*
X94076Y43894D01*
X94098Y43888D01*
X94116Y43874D01*
X94137Y43864D01*
X94151Y43846D01*
X94169Y43832D01*
X94179Y43811D01*
X94193Y43794D01*
X94198Y43771D01*
X94208Y43751D01*
X94208Y43728D01*
X94213Y43705D01*
X94213Y40115D01*
X94208Y40092D01*
X94208Y40069D01*
X94198Y40049D01*
X94188Y40005D01*
X94198Y39961D01*
X94208Y39941D01*
X94208Y39918D01*
X94213Y39895D01*
X94213Y36305D01*
X94208Y36282D01*
X94208Y36259D01*
X94198Y36239D01*
X94193Y36216D01*
X94179Y36199D01*
X94169Y36178D01*
X94151Y36164D01*
X94137Y36146D01*
X94116Y36136D01*
X94098Y36122D01*
X94076Y36116D01*
X94055Y36106D01*
X94032Y36106D01*
X94010Y36101D01*
X83790Y36101D01*
X83768Y36106D01*
X83745Y36106D01*
X83724Y36116D01*
X83702Y36122D01*
X83684Y36136D01*
X83663Y36146D01*
X83649Y36164D01*
X83631Y36178D01*
X83621Y36199D01*
X83607Y36216D01*
X83602Y36239D01*
X83592Y36259D01*
X83592Y36282D01*
X83587Y36305D01*
X83587Y39895D01*
X83592Y39918D01*
X83592Y39941D01*
X83602Y39961D01*
X83612Y40005D01*
X83602Y40049D01*
X83592Y40069D01*
X83592Y40092D01*
X83587Y40115D01*
X83587Y43705D01*
X83592Y43728D01*
X83592Y43751D01*
X83602Y43771D01*
X83607Y43794D01*
X83621Y43811D01*
X83631Y43832D01*
X83649Y43846D01*
X83663Y43864D01*
X83684Y43874D01*
X83702Y43888D01*
X83724Y43894D01*
X83745Y43904D01*
X83768Y43904D01*
X83790Y43909D01*
X83790Y44450D01*
X81801Y44450D01*
X81741Y44208D01*
X81576Y44021D01*
X81343Y43933D01*
X81095Y43963D01*
X80890Y44105D01*
X80774Y44325D01*
X80774Y44450D01*
X67280Y44450D01*
X67280Y43909D01*
X77500Y43909D01*
X77522Y43904D01*
X77545Y43904D01*
X77566Y43894D01*
X77588Y43888D01*
X77606Y43874D01*
X77627Y43864D01*
X77641Y43846D01*
X77659Y43832D01*
X77669Y43811D01*
X77683Y43794D01*
X77688Y43771D01*
X77698Y43751D01*
X77698Y43728D01*
X77703Y43705D01*
X77703Y40115D01*
X77698Y40092D01*
X77698Y40069D01*
X77688Y40049D01*
X77678Y40005D01*
X77688Y39961D01*
X77698Y39941D01*
X77698Y39918D01*
X77703Y39895D01*
X77703Y36305D01*
X77698Y36282D01*
X77698Y36259D01*
X77688Y36239D01*
X77683Y36216D01*
X77669Y36199D01*
X77659Y36178D01*
X77641Y36164D01*
X77627Y36146D01*
X77606Y36136D01*
X77588Y36122D01*
X77566Y36116D01*
X77545Y36106D01*
X77522Y36106D01*
X77500Y36101D01*
X67280Y36101D01*
X67258Y36106D01*
X67235Y36106D01*
X67214Y36116D01*
X67192Y36122D01*
X67174Y36136D01*
X67153Y36146D01*
X67139Y36164D01*
X67121Y36178D01*
X67111Y36199D01*
X67097Y36216D01*
X67092Y36239D01*
X67082Y36259D01*
X67082Y36282D01*
X67077Y36305D01*
X67077Y39895D01*
X67082Y39918D01*
X67082Y39941D01*
X67092Y39961D01*
X67102Y40005D01*
X67092Y40049D01*
X67082Y40069D01*
X67082Y40092D01*
X67077Y40115D01*
X67077Y43705D01*
X67082Y43728D01*
X67082Y43751D01*
X67092Y43771D01*
X67097Y43794D01*
X67111Y43811D01*
X67121Y43832D01*
X67139Y43846D01*
X67153Y43864D01*
X67174Y43874D01*
X67192Y43888D01*
X67214Y43894D01*
X67235Y43904D01*
X67258Y43904D01*
X67280Y43909D01*
X67280Y44450D01*
X65291Y44450D01*
X65231Y44208D01*
X65066Y44021D01*
X64833Y43933D01*
X64585Y43963D01*
X64380Y44105D01*
X64264Y44325D01*
X64264Y44450D01*
X50770Y44450D01*
X50770Y43909D01*
X60990Y43909D01*
X61012Y43904D01*
X61035Y43904D01*
X61056Y43894D01*
X61078Y43888D01*
X61096Y43874D01*
X61117Y43864D01*
X61131Y43846D01*
X61149Y43832D01*
X61159Y43811D01*
X61173Y43794D01*
X61178Y43771D01*
X61188Y43751D01*
X61188Y43728D01*
X61193Y43705D01*
X61193Y40115D01*
X61188Y40092D01*
X61188Y40069D01*
X61178Y40049D01*
X61168Y40005D01*
X61178Y39961D01*
X61188Y39941D01*
X61188Y39918D01*
X61193Y39895D01*
X61193Y36305D01*
X61188Y36282D01*
X61188Y36259D01*
X61178Y36239D01*
X61173Y36216D01*
X61159Y36199D01*
X61149Y36178D01*
X61131Y36164D01*
X61117Y36146D01*
X61096Y36136D01*
X61078Y36122D01*
X61056Y36116D01*
X61035Y36106D01*
X61012Y36106D01*
X60990Y36101D01*
X50770Y36101D01*
X50748Y36106D01*
X50725Y36106D01*
X50704Y36116D01*
X50682Y36122D01*
X50664Y36136D01*
X50643Y36146D01*
X50629Y36164D01*
X50611Y36178D01*
X50601Y36199D01*
X50587Y36216D01*
X50582Y36239D01*
X50572Y36259D01*
X50572Y36282D01*
X50567Y36305D01*
X50567Y39895D01*
X50572Y39918D01*
X50572Y39941D01*
X50582Y39961D01*
X50592Y40005D01*
X50582Y40049D01*
X50572Y40069D01*
X50572Y40092D01*
X50567Y40115D01*
X50567Y43705D01*
X50572Y43728D01*
X50572Y43751D01*
X50582Y43771D01*
X50587Y43794D01*
X50601Y43811D01*
X50611Y43832D01*
X50629Y43846D01*
X50643Y43864D01*
X50664Y43874D01*
X50682Y43888D01*
X50704Y43894D01*
X50725Y43904D01*
X50748Y43904D01*
X50770Y43909D01*
X50770Y44450D01*
X48781Y44450D01*
X48721Y44208D01*
X48556Y44021D01*
X48323Y43933D01*
X48075Y43963D01*
X47870Y44105D01*
X47754Y44325D01*
X47754Y44450D01*
X34260Y44450D01*
X34260Y43909D01*
X44480Y43909D01*
X44502Y43904D01*
X44525Y43904D01*
X44546Y43894D01*
X44568Y43888D01*
X44586Y43874D01*
X44607Y43864D01*
X44621Y43846D01*
X44639Y43832D01*
X44649Y43811D01*
X44663Y43794D01*
X44668Y43771D01*
X44678Y43751D01*
X44678Y43728D01*
X44683Y43705D01*
X44683Y40115D01*
X44678Y40092D01*
X44678Y40069D01*
X44668Y40049D01*
X44658Y40005D01*
X44668Y39961D01*
X44678Y39941D01*
X44678Y39918D01*
X44683Y39895D01*
X44683Y36305D01*
X44678Y36282D01*
X44678Y36259D01*
X44668Y36239D01*
X44663Y36216D01*
X44649Y36199D01*
X44639Y36178D01*
X44621Y36164D01*
X44607Y36146D01*
X44586Y36136D01*
X44568Y36122D01*
X44546Y36116D01*
X44525Y36106D01*
X44502Y36106D01*
X44480Y36101D01*
X34260Y36101D01*
X34238Y36106D01*
X34215Y36106D01*
X34194Y36116D01*
X34172Y36122D01*
X34154Y36136D01*
X34133Y36146D01*
X34119Y36164D01*
X34101Y36178D01*
X34091Y36199D01*
X34077Y36216D01*
X34072Y36239D01*
X34062Y36259D01*
X34062Y36282D01*
X34057Y36305D01*
X34057Y39895D01*
X34062Y39918D01*
X34062Y39941D01*
X34072Y39961D01*
X34082Y40005D01*
X34072Y40049D01*
X34062Y40069D01*
X34062Y40092D01*
X34057Y40115D01*
X34057Y43705D01*
X34062Y43728D01*
X34062Y43751D01*
X34072Y43771D01*
X34077Y43794D01*
X34091Y43811D01*
X34101Y43832D01*
X34119Y43846D01*
X34133Y43864D01*
X34154Y43874D01*
X34172Y43888D01*
X34194Y43894D01*
X34215Y43904D01*
X34238Y43904D01*
X34260Y43909D01*
X34260Y44450D01*
X32271Y44450D01*
X32211Y44208D01*
X32046Y44021D01*
X31813Y43933D01*
X31565Y43963D01*
X31360Y44105D01*
X31244Y44325D01*
X31244Y44450D01*
X17750Y44450D01*
X17750Y43909D01*
X27970Y43909D01*
X27992Y43904D01*
X28015Y43904D01*
X28036Y43894D01*
X28058Y43888D01*
X28076Y43874D01*
X28097Y43864D01*
X28111Y43846D01*
X28129Y43832D01*
X28139Y43811D01*
X28153Y43794D01*
X28158Y43771D01*
X28168Y43751D01*
X28168Y43728D01*
X28173Y43705D01*
X28173Y40115D01*
X28168Y40092D01*
X28168Y40069D01*
X28158Y40049D01*
X28148Y40005D01*
X28158Y39961D01*
X28168Y39941D01*
X28168Y39918D01*
X28173Y39895D01*
X28173Y36305D01*
X28168Y36282D01*
X28168Y36259D01*
X28158Y36239D01*
X28153Y36216D01*
X28139Y36199D01*
X28129Y36178D01*
X28111Y36164D01*
X28097Y36146D01*
X28076Y36136D01*
X28058Y36122D01*
X28036Y36116D01*
X28015Y36106D01*
X27992Y36106D01*
X27970Y36101D01*
X20157Y36101D01*
X20157Y35743D01*
X25563Y35743D01*
X25563Y35593D01*
X25713Y35593D01*
X25713Y32987D01*
X25563Y32987D01*
X25563Y32837D01*
X20157Y32837D01*
X20157Y32987D01*
X20007Y32987D01*
X20007Y35593D01*
X20157Y35593D01*
X20157Y35743D01*
X20157Y36101D01*
X17750Y36101D01*
X17728Y36106D01*
X17705Y36106D01*
X17684Y36116D01*
X17662Y36122D01*
X17644Y36136D01*
X17623Y36146D01*
X17609Y36164D01*
X17591Y36178D01*
X17581Y36199D01*
X17567Y36216D01*
X17562Y36239D01*
X17552Y36259D01*
X17552Y36282D01*
X17547Y36305D01*
X17547Y39895D01*
X17552Y39918D01*
X17552Y39941D01*
X17562Y39961D01*
X17572Y40005D01*
X17562Y40049D01*
X17552Y40069D01*
X17552Y40092D01*
X17547Y40115D01*
X17547Y43705D01*
X17552Y43728D01*
X17552Y43751D01*
X17562Y43771D01*
X17567Y43794D01*
X17581Y43811D01*
X17591Y43832D01*
X17609Y43846D01*
X17623Y43864D01*
X17644Y43874D01*
X17662Y43888D01*
X17684Y43894D01*
X17705Y43904D01*
X17728Y43904D01*
X17750Y43909D01*
X17750Y44450D01*
X15761Y44450D01*
X15701Y44208D01*
X15536Y44021D01*
X15303Y43933D01*
X15055Y43963D01*
X14850Y44105D01*
X14734Y44325D01*
X14734Y44450D01*
X14605Y44450D01*
X14605Y31183D01*
X15037Y31183D01*
X143337Y43502D02*
X133523Y43502D01*
X133523Y41736D01*
X133913Y41736D01*
X133913Y42084D01*
X134075Y42393D01*
X134362Y42591D01*
X134708Y42633D01*
X135034Y42509D01*
X135265Y42248D01*
X135348Y41910D01*
X135265Y41572D01*
X135034Y41311D01*
X134708Y41187D01*
X134362Y41229D01*
X134075Y41427D01*
X133913Y41736D01*
X133523Y41736D01*
X133523Y40318D01*
X143337Y40318D01*
X143337Y41910D01*
X142968Y41910D01*
X142885Y41572D01*
X142654Y41311D01*
X142328Y41187D01*
X141982Y41229D01*
X141695Y41427D01*
X141533Y41736D01*
X141533Y42084D01*
X141695Y42393D01*
X141982Y42591D01*
X142328Y42633D01*
X142654Y42509D01*
X142885Y42248D01*
X142968Y41910D01*
X143337Y41910D01*
X126827Y43502D02*
X117013Y43502D01*
X117013Y41736D01*
X117403Y41736D01*
X117403Y42084D01*
X117565Y42393D01*
X117852Y42591D01*
X118198Y42633D01*
X118524Y42509D01*
X118755Y42248D01*
X118838Y41910D01*
X118755Y41572D01*
X118524Y41311D01*
X118198Y41187D01*
X117852Y41229D01*
X117565Y41427D01*
X117403Y41736D01*
X117013Y41736D01*
X117013Y40318D01*
X126827Y40318D01*
X126827Y41910D01*
X126458Y41910D01*
X126375Y41572D01*
X126144Y41311D01*
X125818Y41187D01*
X125472Y41229D01*
X125185Y41427D01*
X125023Y41736D01*
X125023Y42084D01*
X125185Y42393D01*
X125472Y42591D01*
X125818Y42633D01*
X126144Y42509D01*
X126375Y42248D01*
X126458Y41910D01*
X126827Y41910D01*
X110317Y43502D02*
X100503Y43502D01*
X100503Y41736D01*
X100893Y41736D01*
X100893Y42084D01*
X101055Y42393D01*
X101342Y42591D01*
X101688Y42633D01*
X102014Y42509D01*
X102245Y42248D01*
X102328Y41910D01*
X102245Y41572D01*
X102014Y41311D01*
X101688Y41187D01*
X101342Y41229D01*
X101055Y41427D01*
X100893Y41736D01*
X100503Y41736D01*
X100503Y40318D01*
X110317Y40318D01*
X110317Y41910D01*
X109948Y41910D01*
X109865Y41572D01*
X109634Y41311D01*
X109308Y41187D01*
X108962Y41229D01*
X108675Y41427D01*
X108513Y41736D01*
X108513Y42084D01*
X108675Y42393D01*
X108962Y42591D01*
X109308Y42633D01*
X109634Y42509D01*
X109865Y42248D01*
X109948Y41910D01*
X110317Y41910D01*
X77297Y43502D02*
X67483Y43502D01*
X67483Y41736D01*
X67873Y41736D01*
X67873Y42084D01*
X68035Y42393D01*
X68322Y42591D01*
X68668Y42633D01*
X68994Y42509D01*
X69225Y42248D01*
X69308Y41910D01*
X69225Y41572D01*
X68994Y41311D01*
X68668Y41187D01*
X68322Y41229D01*
X68035Y41427D01*
X67873Y41736D01*
X67483Y41736D01*
X67483Y40318D01*
X77297Y40318D01*
X77297Y41910D01*
X76928Y41910D01*
X76845Y41572D01*
X76614Y41311D01*
X76288Y41187D01*
X75942Y41229D01*
X75655Y41427D01*
X75493Y41736D01*
X75493Y42084D01*
X75655Y42393D01*
X75942Y42591D01*
X76288Y42633D01*
X76614Y42509D01*
X76845Y42248D01*
X76928Y41910D01*
X77297Y41910D01*
X44277Y43502D02*
X34463Y43502D01*
X34463Y41736D01*
X34853Y41736D01*
X34853Y42084D01*
X35015Y42393D01*
X35302Y42591D01*
X35648Y42633D01*
X35974Y42509D01*
X36205Y42248D01*
X36288Y41910D01*
X36205Y41572D01*
X35974Y41311D01*
X35648Y41187D01*
X35302Y41229D01*
X35015Y41427D01*
X34853Y41736D01*
X34463Y41736D01*
X34463Y40318D01*
X44277Y40318D01*
X44277Y41910D01*
X43908Y41910D01*
X43825Y41572D01*
X43594Y41311D01*
X43268Y41187D01*
X42922Y41229D01*
X42635Y41427D01*
X42473Y41736D01*
X42473Y42084D01*
X42635Y42393D01*
X42922Y42591D01*
X43268Y42633D01*
X43594Y42509D01*
X43825Y42248D01*
X43908Y41910D01*
X44277Y41910D01*
X27767Y43502D02*
X17953Y43502D01*
X17953Y41736D01*
X18343Y41736D01*
X18343Y42084D01*
X18505Y42393D01*
X18792Y42591D01*
X19138Y42633D01*
X19464Y42509D01*
X19695Y42248D01*
X19778Y41910D01*
X19695Y41572D01*
X19464Y41311D01*
X19138Y41187D01*
X18792Y41229D01*
X18505Y41427D01*
X18343Y41736D01*
X17953Y41736D01*
X17953Y40318D01*
X27767Y40318D01*
X27767Y41910D01*
X27398Y41910D01*
X27315Y41572D01*
X27084Y41311D01*
X26758Y41187D01*
X26412Y41229D01*
X26125Y41427D01*
X25963Y41736D01*
X25963Y42084D01*
X26125Y42393D01*
X26412Y42591D01*
X26758Y42633D01*
X27084Y42509D01*
X27315Y42248D01*
X27398Y41910D01*
X27767Y41910D01*
X60787Y43502D02*
X50973Y43502D01*
X50973Y41736D01*
X51363Y41736D01*
X51363Y42084D01*
X51525Y42393D01*
X51812Y42591D01*
X52158Y42633D01*
X52484Y42509D01*
X52715Y42248D01*
X52798Y41910D01*
X52715Y41572D01*
X52484Y41311D01*
X52158Y41187D01*
X51812Y41229D01*
X51525Y41427D01*
X51363Y41736D01*
X50973Y41736D01*
X50973Y40318D01*
X60787Y40318D01*
X60787Y41910D01*
X60418Y41910D01*
X60335Y41572D01*
X60104Y41311D01*
X59778Y41187D01*
X59432Y41229D01*
X59145Y41427D01*
X58983Y41736D01*
X58983Y42084D01*
X59145Y42393D01*
X59432Y42591D01*
X59778Y42633D01*
X60104Y42509D01*
X60335Y42248D01*
X60418Y41910D01*
X60787Y41910D01*
X93807Y43502D02*
X83993Y43502D01*
X83993Y41736D01*
X84383Y41736D01*
X84383Y42084D01*
X84545Y42393D01*
X84832Y42591D01*
X85178Y42633D01*
X85504Y42509D01*
X85735Y42248D01*
X85818Y41910D01*
X85735Y41572D01*
X85504Y41311D01*
X85178Y41187D01*
X84832Y41229D01*
X84545Y41427D01*
X84383Y41736D01*
X83993Y41736D01*
X83993Y40318D01*
X93807Y40318D01*
X93807Y41910D01*
X93438Y41910D01*
X93355Y41572D01*
X93124Y41311D01*
X92798Y41187D01*
X92452Y41229D01*
X92165Y41427D01*
X92003Y41736D01*
X92003Y42084D01*
X92165Y42393D01*
X92452Y42591D01*
X92798Y42633D01*
X93124Y42509D01*
X93355Y42248D01*
X93438Y41910D01*
X93807Y41910D01*
X93807Y39692D02*
X83993Y39692D01*
X83993Y37926D01*
X84383Y37926D01*
X84383Y38274D01*
X84545Y38583D01*
X84832Y38781D01*
X85178Y38823D01*
X85504Y38699D01*
X85735Y38438D01*
X85818Y38100D01*
X85735Y37762D01*
X85504Y37501D01*
X85178Y37377D01*
X84832Y37419D01*
X84545Y37617D01*
X84383Y37926D01*
X83993Y37926D01*
X83993Y36508D01*
X93807Y36508D01*
X93807Y38100D01*
X93438Y38100D01*
X93355Y37762D01*
X93124Y37501D01*
X92798Y37377D01*
X92452Y37419D01*
X92165Y37617D01*
X92003Y37926D01*
X92003Y38274D01*
X92165Y38583D01*
X92452Y38781D01*
X92798Y38823D01*
X93124Y38699D01*
X93355Y38438D01*
X93438Y38100D01*
X93807Y38100D01*
X60787Y39692D02*
X50973Y39692D01*
X50973Y37926D01*
X51363Y37926D01*
X51363Y38274D01*
X51525Y38583D01*
X51812Y38781D01*
X52158Y38823D01*
X52484Y38699D01*
X52715Y38438D01*
X52798Y38100D01*
X52715Y37762D01*
X52484Y37501D01*
X52158Y37377D01*
X51812Y37419D01*
X51525Y37617D01*
X51363Y37926D01*
X50973Y37926D01*
X50973Y36508D01*
X60787Y36508D01*
X60787Y38100D01*
X60418Y38100D01*
X60335Y37762D01*
X60104Y37501D01*
X59778Y37377D01*
X59432Y37419D01*
X59145Y37617D01*
X58983Y37926D01*
X58983Y38274D01*
X59145Y38583D01*
X59432Y38781D01*
X59778Y38823D01*
X60104Y38699D01*
X60335Y38438D01*
X60418Y38100D01*
X60787Y38100D01*
X27767Y39692D02*
X17953Y39692D01*
X17953Y37926D01*
X18343Y37926D01*
X18343Y38274D01*
X18505Y38583D01*
X18792Y38781D01*
X19138Y38823D01*
X19464Y38699D01*
X19695Y38438D01*
X19778Y38100D01*
X19695Y37762D01*
X19464Y37501D01*
X19138Y37377D01*
X18792Y37419D01*
X18505Y37617D01*
X18343Y37926D01*
X17953Y37926D01*
X17953Y36508D01*
X27767Y36508D01*
X27767Y38100D01*
X27398Y38100D01*
X27315Y37762D01*
X27084Y37501D01*
X26758Y37377D01*
X26412Y37419D01*
X26125Y37617D01*
X25963Y37926D01*
X25963Y38274D01*
X26125Y38583D01*
X26412Y38781D01*
X26758Y38823D01*
X27084Y38699D01*
X27315Y38438D01*
X27398Y38100D01*
X27767Y38100D01*
X44277Y39692D02*
X34463Y39692D01*
X34463Y37926D01*
X34853Y37926D01*
X34853Y38274D01*
X35015Y38583D01*
X35302Y38781D01*
X35648Y38823D01*
X35974Y38699D01*
X36205Y38438D01*
X36288Y38100D01*
X36205Y37762D01*
X35974Y37501D01*
X35648Y37377D01*
X35302Y37419D01*
X35015Y37617D01*
X34853Y37926D01*
X34463Y37926D01*
X34463Y36508D01*
X44277Y36508D01*
X44277Y38100D01*
X43908Y38100D01*
X43825Y37762D01*
X43594Y37501D01*
X43268Y37377D01*
X42922Y37419D01*
X42635Y37617D01*
X42473Y37926D01*
X42473Y38274D01*
X42635Y38583D01*
X42922Y38781D01*
X43268Y38823D01*
X43594Y38699D01*
X43825Y38438D01*
X43908Y38100D01*
X44277Y38100D01*
X77297Y39692D02*
X67483Y39692D01*
X67483Y37926D01*
X67873Y37926D01*
X67873Y38274D01*
X68035Y38583D01*
X68322Y38781D01*
X68668Y38823D01*
X68994Y38699D01*
X69225Y38438D01*
X69308Y38100D01*
X69225Y37762D01*
X68994Y37501D01*
X68668Y37377D01*
X68322Y37419D01*
X68035Y37617D01*
X67873Y37926D01*
X67483Y37926D01*
X67483Y36508D01*
X77297Y36508D01*
X77297Y38100D01*
X76928Y38100D01*
X76845Y37762D01*
X76614Y37501D01*
X76288Y37377D01*
X75942Y37419D01*
X75655Y37617D01*
X75493Y37926D01*
X75493Y38274D01*
X75655Y38583D01*
X75942Y38781D01*
X76288Y38823D01*
X76614Y38699D01*
X76845Y38438D01*
X76928Y38100D01*
X77297Y38100D01*
X110317Y39692D02*
X100503Y39692D01*
X100503Y37926D01*
X100893Y37926D01*
X100893Y38274D01*
X101055Y38583D01*
X101342Y38781D01*
X101688Y38823D01*
X102014Y38699D01*
X102245Y38438D01*
X102328Y38100D01*
X102245Y37762D01*
X102014Y37501D01*
X101688Y37377D01*
X101342Y37419D01*
X101055Y37617D01*
X100893Y37926D01*
X100503Y37926D01*
X100503Y36508D01*
X110317Y36508D01*
X110317Y38100D01*
X109948Y38100D01*
X109865Y37762D01*
X109634Y37501D01*
X109308Y37377D01*
X108962Y37419D01*
X108675Y37617D01*
X108513Y37926D01*
X108513Y38274D01*
X108675Y38583D01*
X108962Y38781D01*
X109308Y38823D01*
X109634Y38699D01*
X109865Y38438D01*
X109948Y38100D01*
X110317Y38100D01*
X126827Y39692D02*
X117013Y39692D01*
X117013Y37926D01*
X117403Y37926D01*
X117403Y38274D01*
X117565Y38583D01*
X117852Y38781D01*
X118198Y38823D01*
X118524Y38699D01*
X118755Y38438D01*
X118838Y38100D01*
X118755Y37762D01*
X118524Y37501D01*
X118198Y37377D01*
X117852Y37419D01*
X117565Y37617D01*
X117403Y37926D01*
X117013Y37926D01*
X117013Y36508D01*
X126827Y36508D01*
X126827Y38100D01*
X126458Y38100D01*
X126375Y37762D01*
X126144Y37501D01*
X125818Y37377D01*
X125472Y37419D01*
X125185Y37617D01*
X125023Y37926D01*
X125023Y38274D01*
X125185Y38583D01*
X125472Y38781D01*
X125818Y38823D01*
X126144Y38699D01*
X126375Y38438D01*
X126458Y38100D01*
X126827Y38100D01*
X143337Y39692D02*
X133523Y39692D01*
X133523Y37926D01*
X133913Y37926D01*
X133913Y38274D01*
X134075Y38583D01*
X134362Y38781D01*
X134708Y38823D01*
X135034Y38699D01*
X135265Y38438D01*
X135348Y38100D01*
X135265Y37762D01*
X135034Y37501D01*
X134708Y37377D01*
X134362Y37419D01*
X134075Y37617D01*
X133913Y37926D01*
X133523Y37926D01*
X133523Y36508D01*
X143337Y36508D01*
X143337Y38100D01*
X142968Y38100D01*
X142885Y37762D01*
X142654Y37501D01*
X142328Y37377D01*
X141982Y37419D01*
X141695Y37617D01*
X141533Y37926D01*
X141533Y38274D01*
X141695Y38583D01*
X141982Y38781D01*
X142328Y38823D01*
X142654Y38699D01*
X142885Y38438D01*
X142968Y38100D01*
X143337Y38100D01*
X140983Y35443D02*
X135877Y35443D01*
X135877Y33137D01*
X137233Y33137D01*
X137233Y33691D01*
X136946Y33726D01*
X136708Y33890D01*
X136574Y34146D01*
X136574Y34434D01*
X136708Y34690D01*
X136946Y34854D01*
X137233Y34889D01*
X137503Y34786D01*
X137694Y34570D01*
X137763Y34290D01*
X137694Y34010D01*
X137503Y33794D01*
X137233Y33691D01*
X137233Y33137D01*
X139767Y33137D01*
X139767Y33741D01*
X139504Y33773D01*
X139286Y33923D01*
X139163Y34158D01*
X139163Y34422D01*
X139286Y34657D01*
X139504Y34807D01*
X139767Y34839D01*
X140014Y34745D01*
X140190Y34547D01*
X140253Y34290D01*
X140190Y34033D01*
X140014Y33835D01*
X139767Y33741D01*
X139767Y33137D01*
X140983Y33137D01*
X124473Y35443D02*
X119367Y35443D01*
X119367Y33137D01*
X120723Y33137D01*
X120723Y33691D01*
X120436Y33726D01*
X120198Y33890D01*
X120064Y34146D01*
X120064Y34434D01*
X120198Y34690D01*
X120436Y34854D01*
X120723Y34889D01*
X120993Y34786D01*
X121184Y34570D01*
X121253Y34290D01*
X121184Y34010D01*
X120993Y33794D01*
X120723Y33691D01*
X120723Y33137D01*
X123257Y33137D01*
X123257Y33741D01*
X122994Y33773D01*
X122776Y33923D01*
X122653Y34158D01*
X122653Y34422D01*
X122776Y34657D01*
X122994Y34807D01*
X123257Y34839D01*
X123504Y34745D01*
X123680Y34547D01*
X123743Y34290D01*
X123680Y34033D01*
X123504Y33835D01*
X123257Y33741D01*
X123257Y33137D01*
X124473Y33137D01*
X107963Y35443D02*
X102857Y35443D01*
X102857Y33137D01*
X104213Y33137D01*
X104213Y33691D01*
X103926Y33726D01*
X103688Y33890D01*
X103554Y34146D01*
X103554Y34434D01*
X103688Y34690D01*
X103926Y34854D01*
X104213Y34889D01*
X104483Y34786D01*
X104674Y34570D01*
X104743Y34290D01*
X104674Y34010D01*
X104483Y33794D01*
X104213Y33691D01*
X104213Y33137D01*
X106747Y33137D01*
X106747Y33741D01*
X106484Y33773D01*
X106266Y33923D01*
X106143Y34158D01*
X106143Y34422D01*
X106266Y34657D01*
X106484Y34807D01*
X106747Y34839D01*
X106994Y34745D01*
X107170Y34547D01*
X107233Y34290D01*
X107170Y34033D01*
X106994Y33835D01*
X106747Y33741D01*
X106747Y33137D01*
X107963Y33137D01*
X74943Y35443D02*
X69837Y35443D01*
X69837Y33137D01*
X71193Y33137D01*
X71193Y33691D01*
X70906Y33726D01*
X70668Y33890D01*
X70534Y34146D01*
X70534Y34434D01*
X70668Y34690D01*
X70906Y34854D01*
X71193Y34889D01*
X71463Y34786D01*
X71654Y34570D01*
X71723Y34290D01*
X71654Y34010D01*
X71463Y33794D01*
X71193Y33691D01*
X71193Y33137D01*
X73727Y33137D01*
X73727Y33741D01*
X73464Y33773D01*
X73246Y33923D01*
X73123Y34158D01*
X73123Y34422D01*
X73246Y34657D01*
X73464Y34807D01*
X73727Y34839D01*
X73974Y34745D01*
X74150Y34547D01*
X74213Y34290D01*
X74150Y34033D01*
X73974Y33835D01*
X73727Y33741D01*
X73727Y33137D01*
X74943Y33137D01*
X41923Y35443D02*
X36817Y35443D01*
X36817Y33137D01*
X38173Y33137D01*
X38173Y33691D01*
X37886Y33726D01*
X37648Y33890D01*
X37514Y34146D01*
X37514Y34434D01*
X37648Y34690D01*
X37886Y34854D01*
X38173Y34889D01*
X38443Y34786D01*
X38634Y34570D01*
X38703Y34290D01*
X38634Y34010D01*
X38443Y33794D01*
X38173Y33691D01*
X38173Y33137D01*
X40707Y33137D01*
X40707Y33741D01*
X40444Y33773D01*
X40226Y33923D01*
X40103Y34158D01*
X40103Y34422D01*
X40226Y34657D01*
X40444Y34807D01*
X40707Y34839D01*
X40954Y34745D01*
X41130Y34547D01*
X41193Y34290D01*
X41130Y34033D01*
X40954Y33835D01*
X40707Y33741D01*
X40707Y33137D01*
X41923Y33137D01*
X25413Y35443D02*
X20307Y35443D01*
X20307Y33137D01*
X21663Y33137D01*
X21663Y33691D01*
X21376Y33726D01*
X21138Y33890D01*
X21004Y34146D01*
X21004Y34434D01*
X21138Y34690D01*
X21376Y34854D01*
X21663Y34889D01*
X21933Y34786D01*
X22124Y34570D01*
X22193Y34290D01*
X22124Y34010D01*
X21933Y33794D01*
X21663Y33691D01*
X21663Y33137D01*
X24197Y33137D01*
X24197Y33741D01*
X23934Y33773D01*
X23716Y33923D01*
X23593Y34158D01*
X23593Y34422D01*
X23716Y34657D01*
X23934Y34807D01*
X24197Y34839D01*
X24444Y34745D01*
X24620Y34547D01*
X24683Y34290D01*
X24620Y34033D01*
X24444Y33835D01*
X24197Y33741D01*
X24197Y33137D01*
X25413Y33137D01*
X58433Y35443D02*
X53327Y35443D01*
X53327Y33137D01*
X54683Y33137D01*
X54683Y33691D01*
X54396Y33726D01*
X54158Y33890D01*
X54024Y34146D01*
X54024Y34434D01*
X54158Y34690D01*
X54396Y34854D01*
X54683Y34889D01*
X54953Y34786D01*
X55144Y34570D01*
X55213Y34290D01*
X55144Y34010D01*
X54953Y33794D01*
X54683Y33691D01*
X54683Y33137D01*
X57217Y33137D01*
X57217Y33741D01*
X56954Y33773D01*
X56736Y33923D01*
X56613Y34158D01*
X56613Y34422D01*
X56736Y34657D01*
X56954Y34807D01*
X57217Y34839D01*
X57464Y34745D01*
X57640Y34547D01*
X57703Y34290D01*
X57640Y34033D01*
X57464Y33835D01*
X57217Y33741D01*
X57217Y33137D01*
X58433Y33137D01*
X91453Y35443D02*
X86347Y35443D01*
X86347Y33137D01*
X87703Y33137D01*
X87703Y33691D01*
X87416Y33726D01*
X87178Y33890D01*
X87044Y34146D01*
X87044Y34434D01*
X87178Y34690D01*
X87416Y34854D01*
X87703Y34889D01*
X87973Y34786D01*
X88164Y34570D01*
X88233Y34290D01*
X88164Y34010D01*
X87973Y33794D01*
X87703Y33691D01*
X87703Y33137D01*
X90237Y33137D01*
X90237Y33741D01*
X89974Y33773D01*
X89756Y33923D01*
X89633Y34158D01*
X89633Y34422D01*
X89756Y34657D01*
X89974Y34807D01*
X90237Y34839D01*
X90484Y34745D01*
X90660Y34547D01*
X90723Y34290D01*
X90660Y34033D01*
X90484Y33835D01*
X90237Y33741D01*
X90237Y33137D01*
X91453Y33137D01*
G37*
%LNtop silkscreen_traces*%
%LNtop silkscreen component fb107dcccfdb0926*%
X29431Y59162D02*
X29431Y60492D01*
X29920Y60492*
X29986Y60491*
X30043Y60489*
X30091Y60484*
X30129Y60479*
X30176Y60469*
X30217Y60456*
X30254Y60440*
X30286Y60420*
X30314Y60397*
X30340Y60370*
X30363Y60338*
X30384Y60302*
X30401Y60262*
X30413Y60220*
X30420Y60175*
X30422Y60129*
X30416Y60050*
X30396Y59978*
X30364Y59913*
X30320Y59855*
X30261Y59808*
X30179Y59773*
X30071Y59751*
X29936Y59744*
X29519Y59744*
X29519Y59162*
X29431Y59162*
X29570Y59862D02*
X29570Y59862D01*
X29940Y59862*
X30025Y59866*
X30097Y59879*
X30155Y59900*
X30201Y59930*
X30234Y59968*
X30258Y60013*
X30273Y60064*
X30278Y60123*
X30275Y60166*
X30266Y60206*
X30252Y60243*
X30232Y60277*
X30208Y60306*
X30180Y60330*
X30148Y60348*
X30113Y60361*
X30084Y60367*
X30045Y60371*
X29995Y60373*
X29936Y60374*
X29570Y60374*
X29570Y59862*
X30708Y59808D02*
X30719Y59969D01*
X30753Y60109*
X30808Y60230*
X30885Y60331*
X30980Y60413*
X31087Y60470*
X31207Y60505*
X31343Y60517*
X31433Y60512*
X31518Y60495*
X31598Y60468*
X31674Y60430*
X31742Y60382*
X31802Y60325*
X31854Y60261*
X31897Y60187*
X31931Y60105*
X31955Y60018*
X31970Y59924*
X31975Y59825*
X31970Y59724*
X31954Y59630*
X31929Y59541*
X31893Y59458*
X31848Y59384*
X31795Y59319*
X31734Y59265*
X31664Y59219*
X31588Y59184*
X31509Y59158*
X31427Y59143*
X31341Y59137*
X31249Y59143*
X31163Y59160*
X31082Y59188*
X31007Y59228*
X30938Y59277*
X30878Y59334*
X30827Y59399*
X30784Y59473*
X30751Y59553*
X30727Y59636*
X30712Y59721*
X30708Y59808*
X30852Y59805D02*
X30852Y59805D01*
X30861Y59683*
X30887Y59574*
X30930Y59479*
X30991Y59398*
X31065Y59332*
X31148Y59286*
X31240Y59258*
X31340Y59249*
X31442Y59258*
X31535Y59286*
X31619Y59333*
X31692Y59399*
X31753Y59482*
X31796Y59581*
X31822Y59696*
X31831Y59826*
X31827Y59910*
X31816Y59990*
X31797Y60063*
X31771Y60131*
X31738Y60193*
X31699Y60247*
X31652Y60294*
X31599Y60333*
X31540Y60365*
X31478Y60387*
X31412Y60400*
X31343Y60405*
X31246Y60396*
X31156Y60370*
X31073Y60327*
X30997Y60267*
X30934Y60186*
X30888Y60082*
X30861Y59955*
X30852Y59805*
X32685Y59162D02*
X32685Y60424D01*
X32213Y60424*
X32213Y60492*
X33247Y60492*
X33247Y60424*
X32773Y60424*
X32773Y59162*
X32685Y59162*
X34032Y59162D02*
X33957Y59162D01*
X33957Y60344*
X33840Y60240*
X33803Y60212*
X33761Y60183*
X33714Y60154*
X33666Y60126*
X33620Y60103*
X33577Y60083*
X33606Y60094*
X33606Y60158*
X33651Y60181*
X33721Y60223*
X33786Y60269*
X33847Y60319*
X33901Y60371*
X33947Y60422*
X33985Y60474*
X33999Y60498*
X34032Y60498*
X34032Y59162*
D11*
X31750Y59850D03*
%LNtop silkscreen component 1f20f5d5898abb2f*%
D12*
X94010Y36305D02*
X83790Y36305D01*
X94010Y36305D02*
X94010Y39895D01*
X83790Y39895*
X83790Y36305*
%LNtop silkscreen component 97cbeba4f3948cad*%
D13*
X130810Y1980D02*
X130810Y30980D01*
X146050Y30980*
X146050Y1980*
X130810Y1980*
%LNtop silkscreen component 27b49cb97a04ef49*%
D12*
X77500Y36305D02*
X67280Y36305D01*
X77500Y36305D02*
X77500Y39895D01*
X67280Y39895*
X67280Y36305*
%LNtop silkscreen component f535bb90dd72d157*%
D13*
X15240Y1980D02*
X15240Y30980D01*
X30480Y30980*
X30480Y1980*
X15240Y1980*
%LNtop silkscreen component a620bbc60874f67c*%
D12*
X130285Y60930D02*
X130285Y71150D01*
X130285Y60930D02*
X133875Y60930D01*
X133875Y71150*
X130285Y71150*
D10*
X131404Y67765D02*
X132734Y67765D01*
X132734Y67181*
X132731Y67094*
X132724Y67019*
X132713Y66957*
X132698Y66908*
X132679Y66868*
X132654Y66833*
X132622Y66802*
X132583Y66774*
X132539Y66751*
X132493Y66735*
X132445Y66725*
X132394Y66722*
X132330Y66727*
X132272Y66743*
X132220Y66770*
X132172Y66806*
X132132Y66855*
X132098Y66916*
X132072Y66991*
X132026Y67228*
X131942Y67063*
X131925Y67035*
X131910Y67012*
X131895Y66994*
X131858Y66956*
X131815Y66918*
X131767Y66881*
X131714Y66845*
X131404Y66647*
X131404Y66764*
X131678Y66939*
X131739Y66979*
X131793Y67015*
X131840Y67049*
X131879Y67078*
X131913Y67106*
X131942Y67133*
X131967Y67160*
X131986Y67186*
X132001Y67212*
X132013Y67237*
X132023Y67263*
X132031Y67290*
X132035Y67313*
X132038Y67340*
X132039Y67371*
X132039Y67406*
X132039Y67677*
X131404Y67677*
X131404Y67765*
X132153Y67626D02*
X132153Y67626D01*
X132153Y67219*
X132154Y67157*
X132159Y67103*
X132168Y67056*
X132179Y67016*
X132195Y66981*
X132214Y66951*
X132238Y66926*
X132265Y66904*
X132296Y66888*
X132327Y66876*
X132360Y66869*
X132394Y66866*
X132442Y66871*
X132486Y66885*
X132526Y66908*
X132561Y66940*
X132589Y66982*
X132610Y67035*
X132622Y67099*
X132626Y67173*
X132626Y67626*
X132153Y67626*
X131471Y65572D02*
X131404Y65572D01*
X131404Y66416*
X131381Y66417*
X131407Y66413*
X131432Y66408*
X131457Y66400*
X131501Y66381*
X131544Y66357*
X131588Y66328*
X131632Y66293*
X131679Y66251*
X131729Y66199*
X131784Y66139*
X131843Y66069*
X131935Y65961*
X132017Y65871*
X132090Y65799*
X132155Y65745*
X132216Y65706*
X132276Y65677*
X132336Y65659*
X132397Y65653*
X132457Y65659*
X132513Y65676*
X132564Y65704*
X132610Y65744*
X132648Y65792*
X132675Y65847*
X132691Y65908*
X132696Y65974*
X132690Y66043*
X132674Y66106*
X132645Y66163*
X132605Y66213*
X132554Y66253*
X132495Y66282*
X132430Y66299*
X132414Y66300*
X132421Y66376*
X132459Y66369*
X132533Y66344*
X132595Y66308*
X132646Y66261*
X132686Y66204*
X132715Y66137*
X132733Y66059*
X132739Y65970*
X132733Y65880*
X132714Y65802*
X132682Y65736*
X132639Y65679*
X132586Y65633*
X132528Y65601*
X132464Y65581*
X132392Y65574*
X132355Y65576*
X132318Y65582*
X132281Y65592*
X132244Y65605*
X132206Y65624*
X132167Y65648*
X132126Y65678*
X132083Y65713*
X132035Y65759*
X131977Y65818*
X131911Y65892*
X131836Y65979*
X131775Y66051*
X131724Y66110*
X131683Y66155*
X131652Y66186*
X131626Y66209*
X131601Y66231*
X131575Y66250*
X131471Y66318*
X131471Y65572*
X132059Y65282D02*
X132177Y65279D01*
X132281Y65270*
X132373Y65254*
X132451Y65233*
X132519Y65206*
X132577Y65173*
X132626Y65136*
X132667Y65094*
X132698Y65046*
X132721Y64993*
X132735Y64933*
X132739Y64866*
X132737Y64816*
X132729Y64770*
X132716Y64727*
X132699Y64688*
X132677Y64652*
X132650Y64619*
X132619Y64590*
X132582Y64563*
X132540Y64539*
X132494Y64517*
X132442Y64498*
X132385Y64481*
X132321Y64468*
X132245Y64458*
X132158Y64452*
X132059Y64450*
X131942Y64453*
X131838Y64463*
X131746Y64478*
X131668Y64499*
X131601Y64526*
X131543Y64558*
X131493Y64596*
X131453Y64638*
X131421Y64685*
X131398Y64738*
X131384Y64799*
X131379Y64866*
X131388Y64954*
X131412Y65030*
X131452Y65095*
X131508Y65151*
X131602Y65207*
X131724Y65248*
X131877Y65274*
X132059Y65282*
X132059Y65152D02*
X132059Y65152D01*
X131897Y65147*
X131765Y65132*
X131663Y65106*
X131590Y65070*
X131539Y65026*
X131502Y64978*
X131480Y64924*
X131473Y64866*
X131480Y64808*
X131502Y64755*
X131539Y64706*
X131590Y64663*
X131663Y64627*
X131766Y64601*
X131898Y64585*
X132059Y64580*
X132221Y64585*
X132353Y64601*
X132456Y64627*
X132529Y64663*
X132579Y64706*
X132616Y64755*
X132638Y64809*
X132645Y64868*
X132638Y64926*
X132619Y64977*
X132587Y65022*
X132542Y65062*
X132463Y65101*
X132356Y65130*
X132221Y65147*
X132059Y65152*
%LNtop silkscreen component ea2c1d543afd550c*%
D12*
X2510Y43705D02*
X12730Y43705D01*
X2510Y43705D02*
X2510Y40115D01*
X12730Y40115*
X12730Y43705*
D10*
X6782Y41081D02*
X6782Y42411D01*
X7365Y42411*
X7453Y42409*
X7527Y42402*
X7589Y42391*
X7638Y42376*
X7678Y42357*
X7713Y42331*
X7745Y42300*
X7772Y42261*
X7795Y42217*
X7811Y42171*
X7821Y42123*
X7824Y42072*
X7819Y42007*
X7803Y41949*
X7777Y41897*
X7740Y41850*
X7692Y41809*
X7631Y41776*
X7555Y41750*
X7318Y41703*
X7483Y41619*
X7511Y41603*
X7534Y41587*
X7552Y41573*
X7590Y41535*
X7628Y41492*
X7665Y41445*
X7701Y41392*
X7900Y41081*
X7782Y41081*
X7608Y41356*
X7567Y41417*
X7531Y41471*
X7498Y41518*
X7468Y41557*
X7440Y41591*
X7413Y41620*
X7386Y41644*
X7360Y41664*
X7335Y41679*
X7310Y41691*
X7284Y41701*
X7257Y41709*
X7233Y41713*
X7206Y41715*
X7176Y41716*
X7140Y41717*
X6870Y41717*
X6870Y41081*
X6782Y41081*
X6920Y41830D02*
X6920Y41830D01*
X7328Y41830*
X7389Y41832*
X7443Y41837*
X7491Y41845*
X7531Y41857*
X7565Y41873*
X7595Y41892*
X7621Y41915*
X7642Y41943*
X7659Y41973*
X7671Y42005*
X7678Y42037*
X7680Y42071*
X7676Y42120*
X7662Y42164*
X7639Y42203*
X7606Y42238*
X7564Y42267*
X7511Y42287*
X7448Y42300*
X7373Y42304*
X6920Y42304*
X6920Y41830*
X8188Y41316D02*
X8257Y41322D01*
X8261Y41307*
X8282Y41252*
X8309Y41205*
X8344Y41166*
X8385Y41137*
X8431Y41116*
X8480Y41104*
X8533Y41100*
X8579Y41102*
X8623Y41111*
X8664Y41124*
X8702Y41144*
X8736Y41168*
X8767Y41195*
X8795Y41226*
X8819Y41260*
X8840Y41298*
X8859Y41341*
X8876Y41389*
X8891Y41442*
X8903Y41498*
X8911Y41554*
X8917Y41612*
X8918Y41669*
X8918Y41676*
X8918Y41685*
X8918Y41695*
X8912Y41854*
X8799Y41697*
X8769Y41665*
X8736Y41637*
X8697Y41612*
X8657Y41592*
X8615Y41578*
X8571Y41570*
X8526Y41567*
X8449Y41574*
X8381Y41595*
X8318Y41630*
X8261Y41680*
X8214Y41741*
X8180Y41812*
X8159Y41892*
X8152Y41984*
X8159Y42080*
X8181Y42163*
X8217Y42236*
X8266Y42300*
X8327Y42351*
X8394Y42387*
X8468Y42409*
X8552Y42417*
X8612Y42413*
X8670Y42400*
X8726Y42379*
X8779Y42350*
X8827Y42313*
X8869Y42269*
X8905Y42218*
X8935Y42159*
X8959Y42088*
X8977Y42000*
X8988Y41896*
X8992Y41775*
X8988Y41648*
X8977Y41536*
X8959Y41439*
X8935Y41356*
X8904Y41286*
X8867Y41225*
X8825Y41174*
X8776Y41132*
X8722Y41099*
X8663Y41076*
X8599Y41062*
X8530Y41057*
X8457Y41062*
X8394Y41078*
X8338Y41103*
X8289Y41138*
X8248Y41182*
X8216Y41234*
X8192Y41296*
X8188Y41316*
X8847Y41993D02*
X8847Y41993D01*
X8842Y42065*
X8827Y42129*
X8802Y42185*
X8767Y42234*
X8724Y42272*
X8678Y42300*
X8627Y42317*
X8573Y42322*
X8516Y42316*
X8463Y42298*
X8414Y42269*
X8369Y42227*
X8331Y42175*
X8303Y42117*
X8287Y42051*
X8282Y41979*
X8287Y41913*
X8302Y41855*
X8328Y41802*
X8364Y41756*
X8408Y41719*
X8456Y41692*
X8510Y41676*
X8568Y41671*
X8626Y41676*
X8679Y41692*
X8726Y41719*
X8769Y41756*
X8803Y41803*
X8827Y41858*
X8842Y41922*
X8847Y41993*
%LNtop silkscreen component b43df3c15a639c76*%
D12*
X27970Y40115D02*
X17750Y40115D01*
X27970Y40115D02*
X27970Y43705D01*
X17750Y43705*
X17750Y40115*
%LNtop silkscreen component de895496bb2fd0e6*%
X110520Y36305D02*
X100300Y36305D01*
X110520Y36305D02*
X110520Y39895D01*
X100300Y39895*
X100300Y36305*
%LNtop silkscreen component 470e91fafd046a91*%
D13*
X48260Y1980D02*
X48260Y30980D01*
X63500Y30980*
X63500Y1980*
X48260Y1980*
%LNtop silkscreen component 82f976b0e811269b*%
D12*
X134095Y60930D02*
X134095Y71150D01*
X134095Y60930D02*
X137685Y60930D01*
X137685Y71150*
X134095Y71150*
D10*
X135239Y67765D02*
X136569Y67765D01*
X136569Y67181*
X136567Y67094*
X136560Y67019*
X136549Y66957*
X136534Y66908*
X136514Y66868*
X136489Y66833*
X136457Y66802*
X136418Y66774*
X136375Y66751*
X136329Y66735*
X136280Y66725*
X136230Y66722*
X136165Y66727*
X136107Y66743*
X136055Y66770*
X136008Y66806*
X135967Y66855*
X135934Y66916*
X135908Y66991*
X135861Y67228*
X135777Y67063*
X135761Y67035*
X135745Y67012*
X135730Y66994*
X135693Y66956*
X135650Y66918*
X135603Y66881*
X135550Y66845*
X135239Y66647*
X135239Y66764*
X135514Y66939*
X135575Y66979*
X135629Y67015*
X135675Y67049*
X135715Y67078*
X135748Y67106*
X135778Y67133*
X135802Y67160*
X135821Y67186*
X135836Y67212*
X135849Y67237*
X135859Y67263*
X135867Y67290*
X135871Y67313*
X135873Y67340*
X135874Y67371*
X135875Y67406*
X135875Y67677*
X135239Y67677*
X135239Y67765*
X135988Y67626D02*
X135988Y67626D01*
X135988Y67219*
X135990Y67157*
X135995Y67103*
X136003Y67056*
X136015Y67016*
X136030Y66981*
X136050Y66951*
X136073Y66926*
X136101Y66904*
X136131Y66888*
X136162Y66876*
X136195Y66869*
X136229Y66866*
X136278Y66871*
X136322Y66885*
X136361Y66908*
X136396Y66940*
X136425Y66982*
X136445Y67035*
X136458Y67099*
X136462Y67173*
X136462Y67626*
X135988Y67626*
X135239Y65834D02*
X135239Y65908D01*
X136421Y65908*
X136317Y66026*
X136289Y66062*
X136260Y66104*
X136231Y66151*
X136204Y66200*
X136180Y66246*
X136160Y66288*
X136172Y66260*
X136235Y66260*
X136258Y66214*
X136300Y66145*
X136346Y66079*
X136396Y66019*
X136448Y65965*
X136499Y65919*
X136551Y65881*
X136575Y65867*
X136575Y65834*
X135239Y65834*
X135474Y65246D02*
X135480Y65177D01*
X135464Y65173*
X135410Y65152*
X135363Y65125*
X135324Y65090*
X135294Y65049*
X135274Y65003*
X135261Y64954*
X135257Y64901*
X135260Y64855*
X135268Y64811*
X135282Y64770*
X135302Y64732*
X135325Y64698*
X135353Y64667*
X135383Y64639*
X135417Y64615*
X135456Y64594*
X135499Y64575*
X135547Y64558*
X135600Y64543*
X135656Y64531*
X135712Y64523*
X135769Y64517*
X135826Y64516*
X135834Y64516*
X135843Y64516*
X135853Y64516*
X136012Y64522*
X135854Y64636*
X135823Y64665*
X135795Y64698*
X135770Y64737*
X135750Y64777*
X135736Y64820*
X135727Y64863*
X135725Y64908*
X135732Y64985*
X135753Y65053*
X135788Y65116*
X135838Y65173*
X135899Y65220*
X135969Y65254*
X136050Y65275*
X136142Y65282*
X136237Y65275*
X136321Y65253*
X136394Y65217*
X136458Y65168*
X136509Y65107*
X136545Y65040*
X136567Y64966*
X136575Y64882*
X136571Y64822*
X136558Y64764*
X136537Y64708*
X136508Y64655*
X136471Y64607*
X136427Y64565*
X136375Y64529*
X136316Y64499*
X136246Y64475*
X136158Y64457*
X136054Y64446*
X135933Y64442*
X135806Y64446*
X135694Y64457*
X135596Y64475*
X135514Y64499*
X135443Y64530*
X135383Y64567*
X135332Y64609*
X135290Y64658*
X135257Y64713*
X135234Y64771*
X135220Y64835*
X135215Y64904*
X135220Y64977*
X135235Y65040*
X135261Y65096*
X135295Y65145*
X135339Y65186*
X135392Y65218*
X135454Y65242*
X135474Y65246*
X136151Y64587D02*
X136151Y64587D01*
X136223Y64592*
X136287Y64607*
X136343Y64632*
X136391Y64667*
X136430Y64710*
X136458Y64756*
X136475Y64807*
X136480Y64861*
X136474Y64918*
X136456Y64971*
X136426Y65020*
X136384Y65065*
X136333Y65103*
X136275Y65131*
X136209Y65147*
X136136Y65152*
X136071Y65147*
X136013Y65132*
X135960Y65106*
X135914Y65070*
X135877Y65026*
X135850Y64978*
X135834Y64924*
X135829Y64866*
X135834Y64808*
X135850Y64755*
X135877Y64708*
X135914Y64666*
X135961Y64631*
X136016Y64607*
X136080Y64592*
X136151Y64587*
%LNtop silkscreen component 34e823c397d52473*%
D12*
X124420Y35390D02*
X124420Y33190D01*
X119420Y33190*
X119420Y35390*
X124420Y35390*
%LNtop silkscreen component 9af73c40574899a7*%
X60990Y36305D02*
X50770Y36305D01*
X60990Y36305D02*
X60990Y39895D01*
X50770Y39895*
X50770Y36305*
%LNtop silkscreen component f836791b44df51a1*%
X58380Y35390D02*
X58380Y33190D01*
X53380Y33190*
X53380Y35390*
X58380Y35390*
%LNtop silkscreen component b4f3b804e5a01ba0*%
D14*
X75767Y78740D02*
X80010Y82983D01*
X82131Y80861*
X77889Y76619*
X75767Y78740*
X75880Y74610D02*
X84140Y82870D01*
X94039Y72970*
X85780Y64711*
X75880Y74610*
D10*
X74445Y73093D02*
X75386Y74034D01*
X75526Y73894*
X75065Y72970*
X75034Y72908*
X75006Y72854*
X74983Y72809*
X74889Y72630*
X75073Y72725*
X75122Y72750*
X75180Y72779*
X75247Y72812*
X76161Y73258*
X76280Y73139*
X75340Y72199*
X75282Y72256*
X76307Y73280*
X74927Y72612*
X74857Y72681*
X75546Y74079*
X74503Y73036*
X74445Y73093*
X75650Y71888D02*
X76591Y72828D01*
X76653Y72766*
X75713Y71826*
X75650Y71888*
X76021Y71518D02*
X76961Y72458D01*
X77273Y72146*
X77327Y72090*
X77371Y72041*
X77406Y71997*
X77432Y71960*
X77459Y71911*
X77480Y71862*
X77493Y71812*
X77501Y71762*
X77502Y71695*
X77494Y71628*
X77478Y71561*
X77452Y71494*
X77417Y71427*
X77374Y71360*
X77322Y71294*
X77261Y71228*
X77206Y71176*
X77151Y71131*
X77096Y71092*
X77042Y71060*
X76988Y71033*
X76937Y71012*
X76888Y70997*
X76841Y70987*
X76796Y70981*
X76753Y70980*
X76713Y70982*
X76675Y70987*
X76638Y70996*
X76600Y71010*
X76561Y71028*
X76520Y71051*
X76479Y71078*
X76437Y71110*
X76394Y71147*
X76349Y71189*
X76021Y71518*
X76202Y71503D02*
X76202Y71503D01*
X76418Y71287*
X76467Y71241*
X76512Y71203*
X76555Y71172*
X76594Y71149*
X76631Y71132*
X76668Y71120*
X76703Y71113*
X76737Y71110*
X76786Y71114*
X76835Y71124*
X76887Y71141*
X76940Y71164*
X76994Y71195*
X77049Y71233*
X77104Y71279*
X77161Y71333*
X77233Y71411*
X77289Y71486*
X77329Y71559*
X77353Y71629*
X77365Y71696*
X77367Y71758*
X77359Y71816*
X77341Y71870*
X77319Y71910*
X77286Y71956*
X77243Y72007*
X77188Y72064*
X76975Y72277*
X76202Y71503*
X77065Y70474D02*
X78005Y71414D01*
X78067Y71352*
X77127Y70412*
X77065Y70474*
X77850Y69688D02*
X78791Y70628D01*
X78853Y70566*
X77913Y69626*
X77850Y69688*
X78219Y69319D02*
X79160Y70260D01*
X79242Y70177*
X78952Y68713*
X79829Y69591*
X79885Y69534*
X78945Y68594*
X78863Y68676*
X79154Y70141*
X78276Y69263*
X78219Y69319*
%LNtop silkscreen component 02b106f82a4a95db*%
D12*
X140930Y35390D02*
X140930Y33190D01*
X135930Y33190*
X135930Y35390*
X140930Y35390*
%LNtop silkscreen component c91da9575c6a0be3*%
D10*
X4590Y13901D02*
X4671Y13908D01*
X4672Y13901*
X4686Y13849*
X4706Y13801*
X4731Y13758*
X4762Y13719*
X4801Y13684*
X4845Y13654*
X4896Y13629*
X4952Y13608*
X5011Y13594*
X5072Y13585*
X5136Y13582*
X5193Y13584*
X5247Y13591*
X5298Y13602*
X5346Y13618*
X5391Y13638*
X5430Y13662*
X5464Y13691*
X5492Y13723*
X5514Y13759*
X5530Y13796*
X5540Y13835*
X5543Y13876*
X5540Y13917*
X5530Y13955*
X5515Y13992*
X5493Y14025*
X5464Y14056*
X5429Y14082*
X5388Y14106*
X5342Y14126*
X5302Y14139*
X5245Y14156*
X5171Y14175*
X5081Y14197*
X4991Y14220*
X4917Y14242*
X4859Y14263*
X4816Y14283*
X4773Y14308*
X4737Y14336*
X4707Y14366*
X4683Y14398*
X4664Y14432*
X4651Y14469*
X4643Y14508*
X4640Y14549*
X4644Y14595*
X4654Y14639*
X4670Y14682*
X4694Y14723*
X4723Y14761*
X4759Y14795*
X4801Y14823*
X4850Y14848*
X4906Y14867*
X4965Y14881*
X5027Y14890*
X5093Y14893*
X5166Y14890*
X5234Y14881*
X5297Y14866*
X5354Y14845*
X5406Y14820*
X5450Y14789*
X5487Y14754*
X5519Y14713*
X5544Y14668*
X5563Y14620*
X5575Y14569*
X5576Y14562*
X5492Y14556*
X5487Y14579*
X5464Y14644*
X5429Y14700*
X5383Y14747*
X5326Y14783*
X5260Y14808*
X5185Y14823*
X5101Y14827*
X5016Y14823*
X4940Y14810*
X4874Y14787*
X4820Y14754*
X4777Y14713*
X4746Y14667*
X4727Y14616*
X4721Y14562*
X4726Y14515*
X4739Y14471*
X4762Y14431*
X4795Y14396*
X4842Y14365*
X4909Y14336*
X4995Y14310*
X5101Y14283*
X5207Y14258*
X5294Y14235*
X5361Y14214*
X5409Y14195*
X5462Y14167*
X5507Y14136*
X5544Y14103*
X5573Y14067*
X5595Y14028*
X5611Y13986*
X5620Y13941*
X5624Y13892*
X5620Y13843*
X5609Y13796*
X5592Y13749*
X5566Y13704*
X5535Y13662*
X5497Y13626*
X5452Y13593*
X5400Y13565*
X5342Y13543*
X5281Y13527*
X5215Y13517*
X5145Y13514*
X5056Y13517*
X4975Y13527*
X4903Y13544*
X4840Y13566*
X4784Y13595*
X4735Y13630*
X4692Y13671*
X4656Y13718*
X4627Y13770*
X4605Y13826*
X4591Y13885*
X4590Y13901*
X6735Y13606D02*
X6735Y13538D01*
X5891Y13538*
X5891Y13515*
X5894Y13541*
X5899Y13566*
X5908Y13591*
X5927Y13635*
X5951Y13679*
X5980Y13723*
X6015Y13767*
X6057Y13813*
X6108Y13864*
X6168Y13919*
X6239Y13978*
X6347Y14069*
X6437Y14152*
X6508Y14225*
X6562Y14290*
X6601Y14350*
X6630Y14410*
X6648Y14471*
X6654Y14531*
X6649Y14591*
X6632Y14648*
X6603Y14699*
X6564Y14745*
X6515Y14782*
X6460Y14809*
X6399Y14825*
X6334Y14830*
X6265Y14825*
X6201Y14808*
X6144Y14780*
X6094Y14739*
X6054Y14689*
X6025Y14630*
X6008Y14564*
X6007Y14548*
X5932Y14556*
X5938Y14593*
X5963Y14668*
X5999Y14730*
X6046Y14781*
X6103Y14821*
X6170Y14850*
X6248Y14868*
X6337Y14874*
X6427Y14867*
X6505Y14848*
X6572Y14817*
X6629Y14773*
X6675Y14721*
X6707Y14663*
X6726Y14599*
X6733Y14526*
X6731Y14490*
X6725Y14453*
X6716Y14415*
X6702Y14378*
X6684Y14341*
X6660Y14301*
X6630Y14260*
X6594Y14217*
X6548Y14169*
X6489Y14112*
X6415Y14046*
X6328Y13970*
X6256Y13909*
X6197Y13858*
X6153Y13818*
X6121Y13787*
X6098Y13761*
X6077Y13735*
X6058Y13709*
X5990Y13606*
X6735Y13606*
D15*
X7620Y16510D03*
D16*
X7620Y16510D03*
%LNtop silkscreen component 9f6d21584f488dcd*%
D12*
X143540Y36305D02*
X133320Y36305D01*
X143540Y36305D02*
X143540Y39895D01*
X133320Y39895*
X133320Y36305*
%LNtop silkscreen component 97a26aaf76f6e1cc*%
X106650Y98215D02*
X124490Y98215D01*
X106650Y98215D02*
X106650Y61805D01*
X124490Y61805*
X124490Y98215*
D10*
X114654Y79829D02*
X114654Y81159D01*
X114742Y81159*
X114742Y79829*
X114654Y79829*
X116184Y80219D02*
X116273Y80196D01*
X116255Y80142*
X116211Y80053*
X116156Y79978*
X116092Y79916*
X116018Y79868*
X115936Y79833*
X115845Y79812*
X115744Y79804*
X115640Y79810*
X115548Y79827*
X115466Y79853*
X115396Y79891*
X115334Y79938*
X115280Y79995*
X115234Y80063*
X115195Y80141*
X115163Y80227*
X115141Y80316*
X115127Y80409*
X115123Y80504*
X115128Y80608*
X115143Y80703*
X115168Y80791*
X115203Y80871*
X115246Y80944*
X115298Y81006*
X115357Y81059*
X115425Y81103*
X115500Y81138*
X115579Y81163*
X115661Y81178*
X115748Y81183*
X115844Y81177*
X115931Y81158*
X116009Y81127*
X116079Y81084*
X116140Y81029*
X116191Y80965*
X116233Y80889*
X116246Y80853*
X116158Y80833*
X116145Y80867*
X116109Y80936*
X116065Y80994*
X116013Y81041*
X115955Y81077*
X115890Y81103*
X115820Y81118*
X115744Y81123*
X115658Y81117*
X115578Y81101*
X115505Y81073*
X115439Y81034*
X115381Y80986*
X115333Y80930*
X115294Y80867*
X115264Y80797*
X115243Y80726*
X115228Y80653*
X115220Y80580*
X115217Y80506*
X115220Y80413*
X115231Y80326*
X115248Y80244*
X115273Y80168*
X115307Y80098*
X115349Y80035*
X115400Y79983*
X115459Y79940*
X115523Y79907*
X115590Y79883*
X115658Y79869*
X115730Y79865*
X115814Y79871*
X115893Y79890*
X115966Y79923*
X116032Y79968*
X116089Y80027*
X116136Y80097*
X116172Y80178*
X116184Y80219*
X117111Y79829D02*
X117037Y79829D01*
X117037Y81011*
X116920Y80907*
X116883Y80879*
X116841Y80850*
X116794Y80821*
X116745Y80793*
X116700Y80770*
X116657Y80750*
X116685Y80761*
X116685Y80825*
X116731Y80848*
X116801Y80890*
X116866Y80936*
X116926Y80986*
X116980Y81038*
X117026Y81089*
X117064Y81141*
X117078Y81165*
X117111Y81165*
X117111Y79829*
D17*
X107950Y98298D03*
%LNtop silkscreen component 106714d2bc1b7527*%
D12*
X44480Y40115D02*
X34260Y40115D01*
X44480Y40115D02*
X44480Y43705D01*
X34260Y43705*
X34260Y40115*
%LNtop silkscreen component 34c941316c1a9527*%
X107910Y35390D02*
X107910Y33190D01*
X102910Y33190*
X102910Y35390*
X107910Y35390*
%LNtop silkscreen component 9ed433e74971deb4*%
D18*
X133310Y92660D02*
X133310Y80060D01*
X128310Y80060*
X128310Y92660*
X133310Y92660*
D19*
X131810Y82660D03*
%LNtop silkscreen component cf9d0f0b436303b1*%
D12*
X127030Y36305D02*
X116810Y36305D01*
X127030Y36305D02*
X127030Y39895D01*
X116810Y39895*
X116810Y36305*
%LNtop silkscreen component 58c9e35b802cae0f*%
X77500Y40115D02*
X67280Y40115D01*
X77500Y40115D02*
X77500Y43705D01*
X67280Y43705*
X67280Y40115*
%LNtop silkscreen component 36da97aa6b26bacf*%
X25360Y35390D02*
X25360Y33190D01*
X20360Y33190*
X20360Y35390*
X25360Y35390*
%LNtop silkscreen component 62e86ca77f7b5a9a*%
X143540Y40115D02*
X133320Y40115D01*
X143540Y40115D02*
X143540Y43705D01*
X133320Y43705*
X133320Y40115*
%LNtop silkscreen component 497d46b69fa9bdd2*%
X44480Y36305D02*
X34260Y36305D01*
X44480Y36305D02*
X44480Y39895D01*
X34260Y39895*
X34260Y36305*
%LNtop silkscreen component 718ced2e03940ba8*%
D10*
X57346Y59162D02*
X57346Y60492D01*
X57835Y60492*
X57901Y60491*
X57958Y60489*
X58006Y60484*
X58044Y60479*
X58091Y60469*
X58132Y60456*
X58169Y60440*
X58201Y60420*
X58229Y60397*
X58255Y60370*
X58278Y60338*
X58299Y60302*
X58316Y60262*
X58328Y60220*
X58335Y60175*
X58337Y60129*
X58331Y60050*
X58311Y59978*
X58279Y59913*
X58235Y59855*
X58176Y59808*
X58094Y59773*
X57986Y59751*
X57851Y59744*
X57434Y59744*
X57434Y59162*
X57346Y59162*
X57485Y59862D02*
X57485Y59862D01*
X57855Y59862*
X57940Y59866*
X58012Y59879*
X58070Y59900*
X58116Y59930*
X58149Y59968*
X58173Y60013*
X58188Y60064*
X58193Y60123*
X58190Y60166*
X58181Y60206*
X58167Y60243*
X58147Y60277*
X58123Y60306*
X58095Y60330*
X58063Y60348*
X58028Y60361*
X57999Y60367*
X57960Y60371*
X57910Y60373*
X57851Y60374*
X57485Y60374*
X57485Y59862*
X58623Y59808D02*
X58634Y59969D01*
X58668Y60109*
X58723Y60230*
X58800Y60331*
X58895Y60413*
X59002Y60470*
X59122Y60505*
X59258Y60517*
X59348Y60512*
X59433Y60495*
X59513Y60468*
X59589Y60430*
X59657Y60382*
X59717Y60325*
X59769Y60261*
X59812Y60187*
X59846Y60105*
X59870Y60018*
X59885Y59924*
X59890Y59825*
X59885Y59724*
X59869Y59630*
X59844Y59541*
X59808Y59458*
X59763Y59384*
X59710Y59319*
X59649Y59265*
X59579Y59219*
X59503Y59184*
X59424Y59158*
X59342Y59143*
X59256Y59137*
X59164Y59143*
X59078Y59160*
X58997Y59188*
X58922Y59228*
X58853Y59277*
X58793Y59334*
X58742Y59399*
X58699Y59473*
X58666Y59553*
X58642Y59636*
X58627Y59721*
X58623Y59808*
X58767Y59805D02*
X58767Y59805D01*
X58776Y59683*
X58802Y59574*
X58845Y59479*
X58906Y59398*
X58980Y59332*
X59063Y59286*
X59155Y59258*
X59255Y59249*
X59357Y59258*
X59450Y59286*
X59534Y59333*
X59607Y59399*
X59668Y59482*
X59711Y59581*
X59737Y59696*
X59746Y59826*
X59742Y59910*
X59731Y59990*
X59712Y60063*
X59686Y60131*
X59653Y60193*
X59614Y60247*
X59567Y60294*
X59514Y60333*
X59455Y60365*
X59393Y60387*
X59327Y60400*
X59258Y60405*
X59161Y60396*
X59071Y60370*
X58988Y60327*
X58912Y60267*
X58849Y60186*
X58803Y60082*
X58776Y59955*
X58767Y59805*
X60600Y59162D02*
X60600Y60424D01*
X60128Y60424*
X60128Y60492*
X61162Y60492*
X61162Y60424*
X60688Y60424*
X60688Y59162*
X60600Y59162*
X62208Y59229D02*
X62208Y59162D01*
X61365Y59162*
X61364Y59139*
X61367Y59165*
X61373Y59190*
X61381Y59215*
X61400Y59259*
X61424Y59303*
X61453Y59347*
X61488Y59391*
X61530Y59437*
X61581Y59488*
X61642Y59542*
X61712Y59601*
X61820Y59693*
X61910Y59775*
X61982Y59849*
X62036Y59913*
X62075Y59974*
X62104Y60034*
X62122Y60095*
X62128Y60155*
X62122Y60215*
X62105Y60271*
X62076Y60322*
X62037Y60368*
X61989Y60406*
X61934Y60433*
X61873Y60449*
X61807Y60454*
X61738Y60449*
X61675Y60432*
X61618Y60403*
X61568Y60363*
X61527Y60312*
X61499Y60254*
X61482Y60188*
X61480Y60172*
X61405Y60179*
X61411Y60217*
X61437Y60291*
X61473Y60353*
X61519Y60404*
X61577Y60444*
X61644Y60474*
X61722Y60491*
X61811Y60498*
X61901Y60491*
X61978Y60472*
X62045Y60441*
X62102Y60397*
X62148Y60344*
X62180Y60286*
X62200Y60222*
X62206Y60150*
X62204Y60113*
X62199Y60076*
X62189Y60039*
X62175Y60002*
X62157Y59964*
X62133Y59925*
X62103Y59884*
X62067Y59841*
X62022Y59793*
X61962Y59736*
X61889Y59669*
X61801Y59594*
X61729Y59533*
X61671Y59482*
X61626Y59441*
X61595Y59410*
X61571Y59385*
X61550Y59359*
X61531Y59333*
X61463Y59229*
X62208Y59229*
D20*
X59690Y59850D03*
%LNtop silkscreen component c4b1df07a66167ef*%
D12*
X60990Y40115D02*
X50770Y40115D01*
X60990Y40115D02*
X60990Y43705D01*
X50770Y43705*
X50770Y40115*
%LNtop silkscreen component c566558ad0bcfb55*%
X74890Y35390D02*
X74890Y33190D01*
X69890Y33190*
X69890Y35390*
X74890Y35390*
%LNtop silkscreen component 4820d467dc877488*%
X91400Y35390D02*
X91400Y33190D01*
X86400Y33190*
X86400Y35390*
X91400Y35390*
%LNtop silkscreen component da1d1d7cd5a7c606*%
X87192Y64331D02*
X94419Y71558D01*
X87192Y64331D02*
X89731Y61792D01*
X96958Y69019*
X94419Y71558*
D10*
X91268Y64995D02*
X90327Y65936D01*
X90740Y66348*
X90803Y66408*
X90861Y66456*
X90913Y66492*
X90958Y66516*
X91000Y66531*
X91043Y66538*
X91087Y66537*
X91135Y66530*
X91182Y66515*
X91226Y66494*
X91267Y66466*
X91305Y66433*
X91347Y66383*
X91376Y66331*
X91395Y66276*
X91402Y66216*
X91397Y66153*
X91377Y66087*
X91342Y66015*
X91207Y65814*
X91384Y65871*
X91415Y65880*
X91442Y65885*
X91465Y65887*
X91519Y65888*
X91576Y65884*
X91635Y65877*
X91698Y65865*
X92059Y65786*
X91975Y65703*
X91658Y65773*
X91586Y65788*
X91522Y65800*
X91466Y65810*
X91417Y65817*
X91373Y65821*
X91334Y65822*
X91297Y65821*
X91265Y65816*
X91237Y65809*
X91210Y65799*
X91185Y65788*
X91160Y65775*
X91141Y65761*
X91120Y65744*
X91097Y65723*
X91072Y65698*
X90880Y65507*
X91330Y65057*
X91268Y64995*
X90836Y65623D02*
X90836Y65623D01*
X91124Y65911*
X91167Y65955*
X91201Y65997*
X91229Y66037*
X91249Y66073*
X91262Y66109*
X91270Y66144*
X91271Y66178*
X91267Y66213*
X91257Y66246*
X91243Y66277*
X91225Y66305*
X91203Y66330*
X91165Y66362*
X91125Y66383*
X91080Y66395*
X91033Y66396*
X90983Y66387*
X90931Y66364*
X90877Y66328*
X90822Y66278*
X90501Y65958*
X90836Y65623*
X92771Y66593D02*
X92818Y66545D01*
X92221Y65949*
X92237Y65932*
X92221Y65953*
X92207Y65974*
X92195Y65998*
X92178Y66042*
X92164Y66090*
X92153Y66142*
X92147Y66198*
X92144Y66260*
X92144Y66332*
X92148Y66414*
X92156Y66505*
X92168Y66646*
X92173Y66768*
X92172Y66871*
X92164Y66954*
X92150Y67025*
X92127Y67088*
X92097Y67143*
X92059Y67190*
X92012Y67229*
X91961Y67257*
X91904Y67273*
X91844Y67277*
X91783Y67270*
X91725Y67250*
X91671Y67218*
X91621Y67175*
X91576Y67123*
X91543Y67066*
X91523Y67005*
X91516Y66941*
X91523Y66877*
X91544Y66815*
X91579Y66757*
X91589Y66745*
X91530Y66697*
X91508Y66728*
X91474Y66798*
X91455Y66868*
X91453Y66937*
X91464Y67005*
X91491Y67073*
X91534Y67141*
X91592Y67209*
X91661Y67268*
X91729Y67309*
X91799Y67334*
X91870Y67344*
X91939Y67339*
X92003Y67320*
X92062Y67289*
X92118Y67243*
X92142Y67215*
X92165Y67185*
X92184Y67152*
X92201Y67116*
X92214Y67076*
X92225Y67032*
X92233Y66981*
X92238Y66926*
X92240Y66860*
X92238Y66777*
X92233Y66678*
X92225Y66563*
X92217Y66469*
X92212Y66391*
X92209Y66331*
X92208Y66287*
X92210Y66252*
X92213Y66219*
X92218Y66187*
X92244Y66066*
X92771Y66593*
X93557Y67379D02*
X93605Y67332D01*
X93008Y66735*
X93024Y66719*
X93008Y66739*
X92994Y66761*
X92982Y66784*
X92964Y66829*
X92950Y66877*
X92940Y66928*
X92933Y66984*
X92930Y67047*
X92931Y67119*
X92935Y67200*
X92943Y67292*
X92954Y67433*
X92960Y67555*
X92959Y67657*
X92951Y67741*
X92936Y67811*
X92914Y67874*
X92884Y67930*
X92845Y67977*
X92799Y68015*
X92747Y68043*
X92691Y68059*
X92631Y68064*
X92570Y68056*
X92512Y68036*
X92457Y68004*
X92407Y67962*
X92362Y67909*
X92329Y67852*
X92309Y67792*
X92302Y67728*
X92309Y67664*
X92331Y67602*
X92365Y67544*
X92376Y67531*
X92317Y67483*
X92295Y67514*
X92260Y67585*
X92242Y67654*
X92239Y67723*
X92251Y67792*
X92278Y67860*
X92320Y67928*
X92379Y67995*
X92447Y68054*
X92516Y68096*
X92585Y68121*
X92656Y68130*
X92726Y68125*
X92790Y68107*
X92849Y68075*
X92904Y68029*
X92929Y68002*
X92951Y67971*
X92971Y67938*
X92987Y67903*
X93001Y67863*
X93012Y67818*
X93020Y67768*
X93025Y67712*
X93026Y67646*
X93025Y67563*
X93020Y67465*
X93011Y67350*
X93004Y67255*
X92998Y67178*
X92995Y67117*
X92995Y67074*
X92997Y67039*
X93000Y67006*
X93005Y66974*
X93030Y66852*
X93557Y67379*
%LNtop silkscreen component 60ae0478fb4407c3*%
X144998Y53904D02*
X144998Y55234D01*
X145581Y55234*
X145669Y55231*
X145744Y55225*
X145806Y55213*
X145854Y55199*
X145894Y55179*
X145929Y55154*
X145961Y55122*
X145989Y55083*
X146012Y55039*
X146028Y54993*
X146038Y54945*
X146041Y54895*
X146035Y54830*
X146019Y54772*
X145993Y54720*
X145956Y54673*
X145908Y54632*
X145847Y54598*
X145772Y54572*
X145534Y54526*
X145699Y54442*
X145728Y54425*
X145751Y54410*
X145769Y54395*
X145807Y54358*
X145844Y54315*
X145881Y54267*
X145918Y54215*
X146116Y53904*
X145999Y53904*
X145824Y54178*
X145784Y54240*
X145747Y54294*
X145714Y54340*
X145684Y54380*
X145657Y54413*
X145629Y54442*
X145603Y54467*
X145576Y54486*
X145551Y54501*
X145526Y54514*
X145500Y54524*
X145473Y54532*
X145449Y54535*
X145423Y54538*
X145392Y54539*
X145357Y54540*
X145086Y54540*
X145086Y53904*
X144998Y53904*
X145137Y54653D02*
X145137Y54653D01*
X145544Y54653*
X145605Y54654*
X145660Y54660*
X145707Y54668*
X145747Y54680*
X145781Y54695*
X145811Y54715*
X145837Y54738*
X145858Y54766*
X145875Y54796*
X145887Y54827*
X145894Y54860*
X145896Y54894*
X145892Y54943*
X145878Y54987*
X145855Y55026*
X145823Y55061*
X145781Y55090*
X145728Y55110*
X145664Y55122*
X145590Y55126*
X145137Y55126*
X145137Y54653*
X147190Y53971D02*
X147190Y53904D01*
X146347Y53904*
X146346Y53881*
X146349Y53907*
X146355Y53932*
X146363Y53957*
X146382Y54001*
X146406Y54045*
X146435Y54089*
X146470Y54133*
X146512Y54179*
X146563Y54230*
X146624Y54284*
X146694Y54343*
X146802Y54435*
X146892Y54517*
X146964Y54591*
X147018Y54655*
X147057Y54716*
X147086Y54776*
X147104Y54837*
X147110Y54897*
X147104Y54957*
X147087Y55013*
X147058Y55064*
X147019Y55110*
X146971Y55148*
X146916Y55175*
X146855Y55191*
X146789Y55196*
X146720Y55191*
X146657Y55174*
X146600Y55145*
X146550Y55105*
X146509Y55054*
X146481Y54996*
X146464Y54930*
X146462Y54914*
X146387Y54921*
X146393Y54959*
X146419Y55033*
X146455Y55095*
X146501Y55146*
X146559Y55186*
X146626Y55216*
X146704Y55233*
X146793Y55240*
X146883Y55233*
X146960Y55214*
X147027Y55183*
X147084Y55139*
X147130Y55086*
X147162Y55028*
X147182Y54964*
X147188Y54892*
X147186Y54855*
X147181Y54818*
X147171Y54781*
X147157Y54744*
X147139Y54706*
X147115Y54667*
X147085Y54626*
X147049Y54583*
X147004Y54535*
X146944Y54478*
X146871Y54411*
X146783Y54336*
X146711Y54275*
X146653Y54224*
X146608Y54183*
X146577Y54152*
X146553Y54127*
X146532Y54101*
X146513Y54075*
X146445Y53971*
X147190Y53971*
X148041Y53904D02*
X147967Y53904D01*
X147967Y55086*
X147849Y54982*
X147813Y54954*
X147771Y54925*
X147724Y54896*
X147675Y54868*
X147629Y54845*
X147587Y54825*
X147615Y54836*
X147615Y54900*
X147661Y54923*
X147730Y54965*
X147796Y55011*
X147856Y55061*
X147910Y55113*
X147956Y55164*
X147994Y55216*
X148008Y55240*
X148041Y55240*
X148041Y53904*
D21*
X146050Y54610D03*
%LNtop silkscreen component a8833ba25e49bac5*%
D14*
X84657Y87630D02*
X88900Y91873D01*
X91021Y89751*
X86779Y85509*
X84657Y87630*
X84770Y83500D02*
X93030Y91760D01*
X102929Y81860*
X94670Y73601*
X84770Y83500*
D10*
X93749Y92143D02*
X94690Y93084D01*
X94830Y92944*
X94369Y92020*
X94337Y91958*
X94310Y91904*
X94287Y91859*
X94193Y91680*
X94377Y91775*
X94426Y91800*
X94484Y91829*
X94551Y91862*
X95465Y92308*
X95584Y92189*
X94643Y91249*
X94586Y91306*
X95611Y92331*
X94231Y91662*
X94161Y91731*
X94850Y93129*
X93807Y92086*
X93749Y92143*
X94954Y90938D02*
X95895Y91879D01*
X95957Y91817*
X95016Y90876*
X94954Y90938*
X95324Y90568D02*
X96265Y91509D01*
X96577Y91196*
X96631Y91141*
X96675Y91091*
X96710Y91047*
X96736Y91010*
X96763Y90961*
X96784Y90912*
X96797Y90862*
X96805Y90812*
X96806Y90745*
X96798Y90678*
X96781Y90611*
X96756Y90544*
X96721Y90477*
X96678Y90410*
X96626Y90344*
X96565Y90279*
X96510Y90227*
X96455Y90181*
X96400Y90142*
X96346Y90110*
X96292Y90083*
X96240Y90063*
X96192Y90047*
X96145Y90037*
X96100Y90032*
X96057Y90030*
X96017Y90032*
X95979Y90037*
X95942Y90047*
X95904Y90060*
X95864Y90078*
X95824Y90101*
X95783Y90128*
X95741Y90160*
X95698Y90197*
X95653Y90239*
X95324Y90568*
X95506Y90554D02*
X95506Y90554D01*
X95722Y90337*
X95771Y90291*
X95816Y90253*
X95858Y90222*
X95898Y90199*
X95935Y90182*
X95971Y90170*
X96007Y90163*
X96041Y90161*
X96089Y90164*
X96139Y90174*
X96191Y90191*
X96243Y90215*
X96297Y90245*
X96352Y90284*
X96408Y90329*
X96465Y90383*
X96537Y90461*
X96593Y90536*
X96633Y90609*
X96657Y90679*
X96669Y90746*
X96671Y90808*
X96663Y90866*
X96645Y90920*
X96623Y90960*
X96590Y91006*
X96546Y91057*
X96492Y91114*
X96279Y91327*
X95506Y90554*
X96368Y89524D02*
X97309Y90464D01*
X97371Y90402*
X96431Y89462*
X96368Y89524*
X97548Y89258D02*
X97670Y89364D01*
X97793Y89440*
X97917Y89486*
X98043Y89503*
X98168Y89494*
X98284Y89459*
X98394Y89398*
X98498Y89311*
X98558Y89243*
X98606Y89172*
X98644Y89096*
X98670Y89015*
X98685Y88932*
X98688Y88850*
X98678Y88768*
X98656Y88685*
X98623Y88604*
X98578Y88524*
X98523Y88448*
X98456Y88374*
X98381Y88307*
X98303Y88251*
X98222Y88207*
X98139Y88173*
X98054Y88152*
X97971Y88144*
X97889Y88149*
X97808Y88166*
X97729Y88194*
X97655Y88232*
X97586Y88280*
X97522Y88336*
X97461Y88405*
X97412Y88478*
X97375Y88555*
X97349Y88637*
X97335Y88720*
X97333Y88803*
X97343Y88885*
X97365Y88968*
X97398Y89048*
X97440Y89123*
X97490Y89194*
X97548Y89258*
X97648Y89155D02*
X97648Y89155D01*
X97567Y89062*
X97509Y88966*
X97473Y88868*
X97458Y88768*
X97464Y88669*
X97490Y88578*
X97535Y88493*
X97600Y88416*
X97679Y88350*
X97764Y88304*
X97856Y88279*
X97955Y88273*
X98056Y88289*
X98157Y88328*
X98256Y88391*
X98354Y88477*
X98412Y88540*
X98460Y88603*
X98499Y88668*
X98528Y88735*
X98549Y88802*
X98559Y88868*
X98559Y88934*
X98549Y89000*
X98530Y89064*
X98502Y89123*
X98465Y89179*
X98419Y89231*
X98345Y89294*
X98263Y89339*
X98173Y89367*
X98077Y89378*
X97975Y89366*
X97869Y89325*
X97760Y89254*
X97648Y89155*
X99836Y87937D02*
X99898Y87875D01*
X99350Y87327*
X99277Y87258*
X99209Y87203*
X99146Y87160*
X99088Y87129*
X99032Y87110*
X98975Y87100*
X98914Y87100*
X98850Y87110*
X98784Y87132*
X98718Y87166*
X98650Y87215*
X98581Y87277*
X98519Y87344*
X98471Y87410*
X98434Y87475*
X98410Y87537*
X98397Y87598*
X98395Y87658*
X98403Y87716*
X98421Y87775*
X98452Y87836*
X98496Y87903*
X98554Y87974*
X98626Y88051*
X99174Y88599*
X99236Y88537*
X98687Y87988*
X98626Y87924*
X98575Y87863*
X98536Y87807*
X98507Y87754*
X98489Y87702*
X98481Y87649*
X98482Y87594*
X98493Y87540*
X98512Y87486*
X98540Y87435*
X98575Y87385*
X98618Y87337*
X98696Y87269*
X98774Y87218*
X98853Y87188*
X98934Y87179*
X99017Y87195*
X99103Y87237*
X99193Y87302*
X99287Y87388*
X99836Y87937*
X99510Y86382D02*
X100403Y87275D01*
X100070Y87608*
X100117Y87656*
X100848Y86925*
X100800Y86878*
X100465Y87213*
X99573Y86320*
X99510Y86382*
%LNtop silkscreen component 920632581e92b0fd*%
D12*
X41870Y35390D02*
X41870Y33190D01*
X36870Y33190*
X36870Y35390*
X41870Y35390*
%LNtop silkscreen component 8d5ab273b1829623*%
D13*
X81280Y1980D02*
X81280Y30980D01*
X96520Y30980*
X96520Y1980*
X81280Y1980*
%LNtop silkscreen component 01f9c429d97c1052*%
X64770Y1980D02*
X64770Y30980D01*
X80010Y30980*
X80010Y1980*
X64770Y1980*
%LNtop silkscreen component fba815822519b424*%
X31750Y1980D02*
X31750Y30980D01*
X46990Y30980*
X46990Y1980*
X31750Y1980*
%LNtop silkscreen component 3612e22fcedd26d8*%
D12*
X127030Y40115D02*
X116810Y40115D01*
X127030Y40115D02*
X127030Y43705D01*
X116810Y43705*
X116810Y40115*
%LNtop silkscreen component 3919fc649fdcade3*%
X145645Y80225D02*
X148995Y80225D01*
X145645Y80225D02*
X145645Y72175D01*
X148995Y72175*
X148995Y80225*
%LNtop silkscreen component 6889c37fa128180d*%
D14*
X139240Y102060D02*
X145240Y102060D01*
X145240Y99060*
X139240Y99060*
X139240Y102060*
X136400Y99060D02*
X148080Y99060D01*
X148080Y85060*
X136400Y85060*
X136400Y99060*
D10*
X135204Y88336D02*
X133874Y88847D01*
X133874Y88982*
X135204Y89526*
X135204Y89421*
X134771Y89254*
X134771Y88585*
X135204Y88428*
X135204Y88336*
X134718Y88602D02*
X134718Y89234D01*
X134253Y89059*
X134167Y89027*
X134090Y89000*
X134021Y88977*
X133772Y88902*
X134031Y88845*
X134097Y88828*
X134164Y88808*
X134230Y88785*
X134718Y88602*
X133874Y90744D02*
X133874Y90831D01*
X134650Y90831*
X134750Y90828*
X134837Y90820*
X134912Y90805*
X134975Y90786*
X135028Y90760*
X135075Y90726*
X135118Y90683*
X135156Y90631*
X135187Y90569*
X135210Y90498*
X135224Y90416*
X135229Y90323*
X135224Y90232*
X135212Y90150*
X135192Y90079*
X135165Y90018*
X135131Y89965*
X135091Y89922*
X135044Y89886*
X134990Y89858*
X134925Y89836*
X134846Y89820*
X134755Y89810*
X134650Y89807*
X133874Y89807*
X133874Y89895*
X134650Y89895*
X134739Y89897*
X134818Y89904*
X134886Y89916*
X134943Y89933*
X134992Y89957*
X135036Y89989*
X135074Y90028*
X135105Y90074*
X135129Y90126*
X135146Y90182*
X135156Y90242*
X135159Y90306*
X135153Y90410*
X135133Y90501*
X135099Y90579*
X135049Y90642*
X134978Y90689*
X134888Y90720*
X134779Y90738*
X134651Y90744*
X133874Y90744*
X135204Y91248D02*
X133874Y91248D01*
X133874Y91690*
X133875Y91768*
X133879Y91834*
X133885Y91889*
X133893Y91934*
X133909Y91988*
X133929Y92037*
X133955Y92082*
X133985Y92123*
X134032Y92171*
X134084Y92213*
X134143Y92248*
X134209Y92278*
X134281Y92301*
X134359Y92317*
X134442Y92327*
X134532Y92330*
X134607Y92328*
X134678Y92321*
X134745Y92310*
X134806Y92294*
X134863Y92275*
X134914Y92254*
X134959Y92230*
X134999Y92204*
X135035Y92176*
X135067Y92147*
X135094Y92117*
X135117Y92087*
X135136Y92054*
X135154Y92017*
X135169Y91977*
X135181Y91932*
X135191Y91884*
X135198Y91831*
X135203Y91775*
X135204Y91714*
X135204Y91248*
X135086Y91387D02*
X135086Y91387D01*
X135086Y91693*
X135084Y91760*
X135079Y91819*
X135071Y91871*
X135060Y91915*
X135045Y91953*
X135028Y91987*
X135008Y92017*
X134985Y92043*
X134949Y92075*
X134906Y92103*
X134858Y92128*
X134804Y92148*
X134744Y92165*
X134678Y92177*
X134606Y92184*
X134528Y92186*
X134423Y92181*
X134330Y92168*
X134250Y92144*
X134183Y92112*
X134128Y92073*
X134083Y92031*
X134047Y91984*
X134022Y91933*
X134009Y91889*
X134000Y91834*
X133994Y91767*
X133992Y91688*
X133992Y91387*
X135086Y91387*
X135204Y92725D02*
X133874Y92725D01*
X133874Y92813*
X135204Y92813*
X135204Y92725*
X134558Y93191D02*
X134397Y93202D01*
X134257Y93236*
X134136Y93292*
X134035Y93369*
X133953Y93463*
X133896Y93570*
X133861Y93691*
X133849Y93826*
X133854Y93916*
X133871Y94001*
X133898Y94081*
X133936Y94157*
X133984Y94226*
X134041Y94286*
X134105Y94337*
X134179Y94380*
X134261Y94414*
X134348Y94439*
X134442Y94453*
X134541Y94458*
X134642Y94453*
X134736Y94438*
X134825Y94412*
X134908Y94376*
X134982Y94331*
X135047Y94278*
X135101Y94217*
X135147Y94147*
X135182Y94071*
X135208Y93992*
X135223Y93910*
X135229Y93825*
X135223Y93733*
X135206Y93647*
X135178Y93566*
X135138Y93490*
X135089Y93421*
X135032Y93361*
X134967Y93310*
X134893Y93268*
X134813Y93234*
X134730Y93210*
X134645Y93196*
X134558Y93191*
X134561Y93335D02*
X134561Y93335D01*
X134683Y93344*
X134792Y93370*
X134887Y93414*
X134968Y93475*
X135034Y93549*
X135080Y93631*
X135108Y93723*
X135117Y93824*
X135108Y93926*
X135080Y94019*
X135033Y94102*
X134967Y94176*
X134884Y94236*
X134785Y94279*
X134670Y94305*
X134540Y94314*
X134456Y94310*
X134376Y94299*
X134303Y94281*
X134235Y94255*
X134173Y94222*
X134119Y94182*
X134072Y94135*
X134033Y94082*
X134001Y94023*
X133979Y93961*
X133966Y93896*
X133961Y93827*
X133970Y93729*
X133996Y93639*
X134039Y93556*
X134099Y93480*
X134180Y93417*
X134284Y93372*
X134411Y93344*
X134561Y93335*
%LNtop silkscreen component 42f967a1b082bbaa*%
D12*
X10120Y39200D02*
X10120Y37000D01*
X5120Y37000*
X5120Y39200*
X10120Y39200*
%LNtop silkscreen component 843ae13b30258408*%
X27970Y36305D02*
X17750Y36305D01*
X27970Y36305D02*
X27970Y39895D01*
X17750Y39895*
X17750Y36305*
%LNtop silkscreen component abea25ac2a452092*%
D10*
X4590Y5011D02*
X4671Y5018D01*
X4672Y5011*
X4686Y4959*
X4706Y4911*
X4731Y4868*
X4762Y4829*
X4801Y4794*
X4845Y4764*
X4896Y4739*
X4952Y4718*
X5011Y4704*
X5072Y4695*
X5136Y4692*
X5193Y4694*
X5247Y4701*
X5298Y4712*
X5346Y4728*
X5391Y4748*
X5430Y4772*
X5464Y4801*
X5492Y4833*
X5514Y4869*
X5530Y4906*
X5540Y4945*
X5543Y4986*
X5540Y5027*
X5530Y5065*
X5515Y5102*
X5493Y5135*
X5464Y5166*
X5429Y5192*
X5388Y5216*
X5342Y5236*
X5302Y5249*
X5245Y5266*
X5171Y5285*
X5081Y5307*
X4991Y5330*
X4917Y5352*
X4859Y5373*
X4816Y5393*
X4773Y5418*
X4737Y5446*
X4707Y5476*
X4683Y5508*
X4664Y5542*
X4651Y5579*
X4643Y5618*
X4640Y5659*
X4644Y5705*
X4654Y5749*
X4670Y5792*
X4694Y5833*
X4723Y5871*
X4759Y5905*
X4801Y5933*
X4850Y5958*
X4906Y5977*
X4965Y5991*
X5027Y6000*
X5093Y6003*
X5166Y6000*
X5234Y5991*
X5297Y5976*
X5354Y5955*
X5406Y5930*
X5450Y5899*
X5487Y5864*
X5519Y5823*
X5544Y5778*
X5563Y5730*
X5575Y5679*
X5576Y5672*
X5492Y5666*
X5487Y5689*
X5464Y5754*
X5429Y5810*
X5383Y5857*
X5326Y5893*
X5260Y5918*
X5185Y5933*
X5101Y5937*
X5016Y5933*
X4940Y5920*
X4874Y5897*
X4820Y5864*
X4777Y5823*
X4746Y5777*
X4727Y5726*
X4721Y5672*
X4726Y5625*
X4739Y5581*
X4762Y5541*
X4795Y5506*
X4842Y5475*
X4909Y5446*
X4995Y5420*
X5101Y5393*
X5207Y5368*
X5294Y5345*
X5361Y5324*
X5409Y5305*
X5462Y5277*
X5507Y5246*
X5544Y5213*
X5573Y5177*
X5595Y5138*
X5611Y5096*
X5620Y5051*
X5624Y5002*
X5620Y4953*
X5609Y4906*
X5592Y4859*
X5566Y4814*
X5535Y4772*
X5497Y4736*
X5452Y4703*
X5400Y4675*
X5342Y4653*
X5281Y4637*
X5215Y4627*
X5145Y4624*
X5056Y4627*
X4975Y4637*
X4903Y4654*
X4840Y4676*
X4784Y4705*
X4735Y4740*
X4692Y4781*
X4656Y4828*
X4627Y4880*
X4605Y4936*
X4591Y4995*
X4590Y5011*
X6473Y4648D02*
X6399Y4648D01*
X6399Y5830*
X6282Y5726*
X6245Y5698*
X6203Y5669*
X6156Y5640*
X6107Y5613*
X6062Y5589*
X6019Y5569*
X6048Y5581*
X6048Y5644*
X6093Y5668*
X6163Y5710*
X6228Y5756*
X6288Y5806*
X6342Y5857*
X6388Y5909*
X6426Y5960*
X6440Y5984*
X6473Y5984*
X6473Y4648*
D15*
X7620Y7620D03*
D22*
X7620Y7620D03*
%LNtop silkscreen component 71f6df73bb3e5241*%
D12*
X110520Y40115D02*
X100300Y40115D01*
X110520Y40115D02*
X110520Y43705D01*
X100300Y43705*
X100300Y40115*
%LNtop silkscreen component bd4e2dec967c8ba0*%
D13*
X97790Y1980D02*
X97790Y30980D01*
X113030Y30980*
X113030Y1980*
X97790Y1980*
%LNtop silkscreen component a23c2c192278a3d0*%
X114300Y1980D02*
X114300Y30980D01*
X129540Y30980*
X129540Y1980*
X114300Y1980*
%LNtop silkscreen component 3cea8e4304858dd9*%
D10*
X140482Y74148D02*
X140875Y74148D01*
X140875Y74538*
X140937Y74538*
X140937Y74148*
X141327Y74148*
X141327Y74084*
X140937Y74084*
X140937Y73694*
X140875Y73694*
X140875Y74084*
X140482Y74084*
X140482Y74148*
X141195Y76305D02*
X141172Y76216D01*
X141118Y76234*
X141029Y76278*
X140954Y76332*
X140892Y76397*
X140844Y76471*
X140809Y76553*
X140788Y76644*
X140780Y76744*
X140786Y76848*
X140803Y76941*
X140829Y77022*
X140867Y77093*
X140914Y77154*
X140971Y77208*
X141039Y77255*
X141117Y77294*
X141203Y77326*
X141292Y77348*
X141385Y77361*
X141480Y77366*
X141584Y77361*
X141679Y77346*
X141767Y77321*
X141847Y77286*
X141920Y77242*
X141982Y77191*
X142035Y77132*
X142079Y77063*
X142114Y76989*
X142139Y76910*
X142154Y76828*
X142159Y76741*
X142153Y76645*
X142134Y76558*
X142103Y76480*
X142060Y76410*
X142005Y76349*
X141941Y76298*
X141865Y76256*
X141829Y76243*
X141809Y76330*
X141843Y76343*
X141912Y76380*
X141970Y76424*
X142017Y76476*
X142053Y76534*
X142079Y76599*
X142094Y76669*
X142099Y76745*
X142093Y76831*
X142077Y76910*
X142049Y76984*
X142010Y77050*
X141962Y77108*
X141906Y77156*
X141843Y77195*
X141773Y77224*
X141702Y77245*
X141629Y77260*
X141556Y77269*
X141482Y77272*
X141389Y77269*
X141302Y77258*
X141220Y77241*
X141144Y77215*
X141074Y77182*
X141011Y77140*
X140959Y77089*
X140916Y77029*
X140883Y76966*
X140859Y76899*
X140845Y76831*
X140841Y76759*
X140847Y76675*
X140866Y76596*
X140899Y76523*
X140944Y76457*
X141003Y76400*
X141073Y76353*
X141154Y76317*
X141195Y76305*
X140872Y75116D02*
X140805Y75116D01*
X140805Y75960*
X140782Y75960*
X140808Y75957*
X140833Y75952*
X140858Y75943*
X140902Y75924*
X140946Y75900*
X140990Y75871*
X141034Y75836*
X141080Y75794*
X141131Y75743*
X141185Y75683*
X141244Y75612*
X141336Y75504*
X141418Y75414*
X141492Y75343*
X141556Y75289*
X141617Y75250*
X141677Y75221*
X141738Y75203*
X141798Y75197*
X141858Y75202*
X141914Y75219*
X141965Y75248*
X142011Y75287*
X142049Y75336*
X142076Y75391*
X142092Y75452*
X142097Y75517*
X142092Y75586*
X142075Y75650*
X142046Y75707*
X142006Y75757*
X141955Y75797*
X141897Y75826*
X141831Y75843*
X141815Y75844*
X141822Y75919*
X141860Y75913*
X141934Y75888*
X141996Y75852*
X142047Y75805*
X142087Y75748*
X142117Y75681*
X142134Y75603*
X142141Y75514*
X142134Y75424*
X142115Y75346*
X142084Y75279*
X142040Y75222*
X141987Y75176*
X141929Y75144*
X141865Y75125*
X141793Y75118*
X141756Y75120*
X141719Y75126*
X141682Y75135*
X141645Y75149*
X141607Y75167*
X141568Y75191*
X141527Y75221*
X141484Y75257*
X141436Y75303*
X141379Y75362*
X141312Y75436*
X141237Y75523*
X141176Y75595*
X141125Y75654*
X141084Y75698*
X141053Y75730*
X141028Y75753*
X141002Y75774*
X140976Y75793*
X140872Y75861*
X140872Y75116*
D23*
X139700Y76200D03*
%LNtop silkscreen component c985985d9b0f206f*%
D12*
X94010Y40115D02*
X83790Y40115D01*
X94010Y40115D02*
X94010Y43705D01*
X83790Y43705*
X83790Y40115*
%LNtop silkscreen component 6f85b1a43342d1af*%
D10*
X4590Y22791D02*
X4671Y22798D01*
X4672Y22791*
X4686Y22739*
X4706Y22691*
X4731Y22648*
X4762Y22609*
X4801Y22574*
X4845Y22544*
X4896Y22519*
X4952Y22498*
X5011Y22484*
X5072Y22475*
X5136Y22472*
X5193Y22474*
X5247Y22481*
X5298Y22492*
X5346Y22508*
X5391Y22528*
X5430Y22552*
X5464Y22581*
X5492Y22613*
X5514Y22649*
X5530Y22686*
X5540Y22725*
X5543Y22766*
X5540Y22807*
X5530Y22845*
X5515Y22882*
X5493Y22915*
X5464Y22946*
X5429Y22972*
X5388Y22996*
X5342Y23016*
X5302Y23029*
X5245Y23046*
X5171Y23065*
X5081Y23087*
X4991Y23110*
X4917Y23132*
X4859Y23153*
X4816Y23173*
X4773Y23198*
X4737Y23226*
X4707Y23256*
X4683Y23288*
X4664Y23322*
X4651Y23359*
X4643Y23398*
X4640Y23439*
X4644Y23485*
X4654Y23529*
X4670Y23572*
X4694Y23613*
X4723Y23651*
X4759Y23685*
X4801Y23713*
X4850Y23738*
X4906Y23757*
X4965Y23771*
X5027Y23780*
X5093Y23783*
X5166Y23780*
X5234Y23771*
X5297Y23756*
X5354Y23735*
X5406Y23710*
X5450Y23679*
X5487Y23644*
X5519Y23603*
X5544Y23558*
X5563Y23510*
X5575Y23459*
X5576Y23452*
X5492Y23446*
X5487Y23469*
X5464Y23534*
X5429Y23590*
X5383Y23637*
X5326Y23673*
X5260Y23698*
X5185Y23713*
X5101Y23717*
X5016Y23713*
X4940Y23700*
X4874Y23677*
X4820Y23644*
X4777Y23603*
X4746Y23557*
X4727Y23506*
X4721Y23452*
X4726Y23405*
X4739Y23361*
X4762Y23321*
X4795Y23286*
X4842Y23255*
X4909Y23226*
X4995Y23200*
X5101Y23173*
X5207Y23148*
X5294Y23125*
X5361Y23104*
X5409Y23085*
X5462Y23057*
X5507Y23026*
X5544Y22993*
X5573Y22957*
X5595Y22918*
X5611Y22876*
X5620Y22831*
X5624Y22782*
X5620Y22733*
X5609Y22686*
X5592Y22639*
X5566Y22594*
X5535Y22552*
X5497Y22516*
X5452Y22483*
X5400Y22455*
X5342Y22433*
X5281Y22417*
X5215Y22407*
X5145Y22404*
X5056Y22407*
X4975Y22417*
X4903Y22434*
X4840Y22456*
X4784Y22485*
X4735Y22520*
X4692Y22561*
X4656Y22608*
X4627Y22660*
X4605Y22716*
X4591Y22775*
X4590Y22791*
X5922Y22712D02*
X6001Y22722D01*
X6008Y22694*
X6034Y22628*
X6067Y22572*
X6107Y22526*
X6154Y22491*
X6205Y22466*
X6260Y22451*
X6319Y22447*
X6388Y22453*
X6453Y22472*
X6512Y22504*
X6565Y22548*
X6608Y22601*
X6640Y22661*
X6659Y22726*
X6665Y22796*
X6659Y22863*
X6642Y22926*
X6612Y22982*
X6571Y23032*
X6521Y23073*
X6464Y23103*
X6401Y23120*
X6335Y23126*
X6303Y23124*
X6270Y23120*
X6235Y23113*
X6269Y23122*
X6273Y23154*
X6233Y23158*
X6242Y23157*
X6250Y23157*
X6259Y23157*
X6319Y23161*
X6378Y23173*
X6435Y23194*
X6489Y23224*
X6537Y23265*
X6573Y23318*
X6594Y23379*
X6601Y23446*
X6596Y23502*
X6580Y23554*
X6555Y23602*
X6520Y23644*
X6476Y23678*
X6427Y23702*
X6373Y23717*
X6315Y23721*
X6257Y23717*
X6203Y23702*
X6153Y23677*
X6109Y23643*
X6071Y23599*
X6042Y23547*
X6020Y23487*
X6017Y23471*
X5943Y23484*
X5950Y23511*
X5978Y23577*
X6015Y23632*
X6060Y23679*
X6113Y23716*
X6172Y23742*
X6238Y23758*
X6312Y23764*
X6363Y23761*
X6412Y23753*
X6459Y23739*
X6504Y23719*
X6545Y23695*
X6580Y23668*
X6610Y23636*
X6634Y23601*
X6654Y23563*
X6668Y23524*
X6676Y23484*
X6679Y23443*
X6677Y23405*
X6669Y23369*
X6656Y23334*
X6638Y23302*
X6615Y23272*
X6586Y23245*
X6552Y23221*
X6402Y23140*
X6574Y23087*
X6619Y23064*
X6657Y23036*
X6690Y23000*
X6715Y22959*
X6734Y22912*
X6746Y22860*
X6750Y22801*
X6742Y22720*
X6719Y22647*
X6682Y22581*
X6629Y22519*
X6564Y22469*
X6491Y22432*
X6409Y22410*
X6318Y22403*
X6236Y22409*
X6163Y22428*
X6098Y22459*
X6039Y22502*
X5990Y22555*
X5953Y22616*
X5928Y22684*
X5922Y22712*
D15*
X7620Y25400D03*
D24*
X7620Y25400D03*
%LNtop silkscreen component d521cece24698383*%
D12*
X138298Y60980D02*
X148722Y60980D01*
X138298Y71100D02*
X138298Y60980D01*
X138298Y71100D02*
X148722Y71100D01*
D10*
X142246Y65630D02*
X142246Y66960D01*
X142334Y66960*
X142334Y65630*
X142246Y65630*
X143776Y66020D02*
X143865Y65998D01*
X143847Y65943*
X143803Y65854*
X143748Y65779*
X143684Y65718*
X143610Y65669*
X143528Y65634*
X143437Y65613*
X143336Y65606*
X143232Y65612*
X143140Y65628*
X143058Y65655*
X142988Y65692*
X142926Y65740*
X142872Y65797*
X142826Y65864*
X142787Y65942*
X142755Y66028*
X142733Y66117*
X142719Y66210*
X142715Y66306*
X142720Y66409*
X142735Y66504*
X142760Y66592*
X142795Y66673*
X142838Y66745*
X142890Y66807*
X142949Y66860*
X143017Y66905*
X143092Y66940*
X143171Y66965*
X143253Y66980*
X143340Y66985*
X143436Y66978*
X143523Y66959*
X143601Y66928*
X143671Y66885*
X143732Y66831*
X143783Y66766*
X143825Y66691*
X143838Y66655*
X143750Y66634*
X143737Y66669*
X143701Y66737*
X143657Y66795*
X143605Y66843*
X143547Y66879*
X143482Y66904*
X143412Y66919*
X143336Y66924*
X143250Y66919*
X143170Y66903*
X143097Y66875*
X143031Y66836*
X142973Y66788*
X142925Y66732*
X142886Y66669*
X142856Y66599*
X142835Y66527*
X142820Y66455*
X142812Y66381*
X142809Y66307*
X142812Y66215*
X142823Y66128*
X142840Y66046*
X142865Y65969*
X142899Y65899*
X142941Y65837*
X142992Y65784*
X143051Y65741*
X143115Y65708*
X143182Y65685*
X143250Y65671*
X143322Y65666*
X143406Y65673*
X143485Y65692*
X143558Y65724*
X143624Y65770*
X143681Y65828*
X143728Y65898*
X143764Y65979*
X143776Y66020*
X144965Y65698D02*
X144965Y65630D01*
X144121Y65630*
X144121Y65608*
X144124Y65633*
X144129Y65659*
X144137Y65684*
X144156Y65727*
X144180Y65771*
X144210Y65815*
X144244Y65859*
X144287Y65906*
X144338Y65956*
X144398Y66011*
X144468Y66070*
X144576Y66161*
X144666Y66244*
X144738Y66317*
X144792Y66382*
X144831Y66442*
X144860Y66503*
X144878Y66563*
X144884Y66623*
X144878Y66683*
X144861Y66740*
X144833Y66791*
X144794Y66837*
X144745Y66874*
X144690Y66901*
X144629Y66917*
X144564Y66922*
X144495Y66917*
X144431Y66900*
X144374Y66872*
X144324Y66831*
X144284Y66781*
X144255Y66722*
X144238Y66657*
X144237Y66640*
X144162Y66648*
X144168Y66686*
X144193Y66760*
X144229Y66822*
X144276Y66873*
X144333Y66913*
X144400Y66942*
X144478Y66960*
X144567Y66966*
X144657Y66960*
X144735Y66940*
X144802Y66909*
X144859Y66866*
X144904Y66813*
X144937Y66755*
X144956Y66691*
X144963Y66618*
X144961Y66582*
X144955Y66545*
X144945Y66508*
X144932Y66471*
X144913Y66433*
X144889Y66394*
X144860Y66352*
X144824Y66310*
X144778Y66261*
X144719Y66204*
X144645Y66138*
X144558Y66062*
X144486Y66001*
X144427Y65950*
X144382Y65910*
X144351Y65879*
X144328Y65853*
X144307Y65827*
X144287Y65801*
X144220Y65698*
X144965Y65698*
D12*
X148722Y60980D02*
X148722Y71100D01*
D17*
X139573Y71183D03*
%LNtext*%
D10*
X20390Y62106D02*
X17934Y68447D01*
X18747Y68447*
X20409Y63800*
X20506Y63524*
X20594Y63257*
X20674Y62998*
X20795Y62581*
X20921Y63011*
X21005Y63274*
X21094Y63537*
X21190Y63800*
X22918Y68447*
X23678Y68447*
X21195Y62106*
X20390Y62106*
X24283Y64079D02*
X24989Y64140D01*
X25020Y63953*
X25078Y63739*
X25157Y63545*
X25255Y63373*
X25379Y63219*
X25533Y63082*
X25715Y62960*
X25925Y62854*
X26157Y62769*
X26403Y62708*
X26662Y62671*
X26934Y62659*
X27175Y62668*
X27402Y62696*
X27615Y62742*
X27814Y62807*
X27994Y62889*
X28151Y62985*
X28284Y63097*
X28393Y63222*
X28477Y63358*
X28537Y63501*
X28573Y63649*
X28585Y63804*
X28573Y63959*
X28538Y64104*
X28480Y64240*
X28398Y64365*
X28290Y64480*
X28153Y64584*
X27989Y64678*
X27796Y64761*
X27624Y64820*
X27375Y64892*
X27048Y64978*
X26644Y65077*
X26234Y65182*
X25892Y65283*
X25618Y65381*
X25411Y65475*
X25200Y65600*
X25018Y65739*
X24866Y65891*
X24743Y66057*
X24647Y66235*
X24579Y66423*
X24538Y66622*
X24524Y66832*
X24541Y67064*
X24591Y67289*
X24675Y67506*
X24793Y67716*
X24942Y67909*
X25123Y68077*
X25335Y68221*
X25579Y68341*
X25847Y68435*
X26130Y68502*
X26428Y68543*
X26741Y68556*
X27084Y68542*
X27406Y68500*
X27706Y68429*
X27985Y68330*
X28236Y68204*
X28456Y68052*
X28645Y67874*
X28804Y67669*
X28930Y67444*
X29024Y67204*
X29084Y66950*
X29107Y66729*
X28387Y66675*
X28342Y66921*
X28246Y67179*
X28110Y67401*
X27931Y67583*
X27709Y67726*
X27442Y67827*
X27131Y67887*
X26776Y67907*
X26410Y67889*
X26095Y67834*
X25830Y67743*
X25618Y67613*
X25455Y67456*
X25338Y67283*
X25268Y67094*
X25244Y66889*
X25261Y66713*
X25311Y66552*
X25395Y66407*
X25513Y66279*
X25694Y66160*
X25973Y66043*
X26347Y65926*
X26819Y65809*
X27298Y65695*
X27693Y65589*
X28006Y65491*
X28236Y65401*
X28494Y65266*
X28714Y65114*
X28898Y64946*
X29046Y64762*
X29159Y64563*
X29240Y64348*
X29289Y64119*
X29305Y63874*
X29287Y63628*
X29233Y63390*
X29144Y63158*
X29019Y62933*
X28860Y62724*
X28670Y62540*
X28448Y62380*
X28194Y62244*
X27915Y62136*
X27619Y62058*
X27305Y62012*
X26974Y61996*
X26559Y62012*
X26179Y62059*
X25836Y62137*
X25529Y62247*
X25255Y62387*
X25014Y62558*
X24803Y62761*
X24624Y62995*
X24479Y63253*
X24373Y63527*
X24306Y63818*
X24283Y64079*
X30716Y62106D02*
X30716Y68447D01*
X31467Y68447*
X31467Y62106*
X30716Y62106*
X32813Y65192D02*
X32866Y65943D01*
X33025Y66606*
X33290Y67181*
X33660Y67669*
X34114Y68059*
X34629Y68337*
X35206Y68505*
X35847Y68561*
X36275Y68534*
X36682Y68456*
X37066Y68325*
X37429Y68142*
X37760Y67912*
X38049Y67641*
X38296Y67328*
X38501Y66974*
X38663Y66586*
X38779Y66172*
X38849Y65733*
X38872Y65267*
X38847Y64796*
X38774Y64350*
X38652Y63931*
X38482Y63537*
X38267Y63180*
X38013Y62870*
X37718Y62606*
X37382Y62387*
X37018Y62216*
X36640Y62094*
X36248Y62021*
X35842Y61996*
X35406Y62023*
X34994Y62104*
X34607Y62239*
X34243Y62428*
X33912Y62664*
X33624Y62938*
X33379Y63253*
X33176Y63607*
X33017Y63987*
X32903Y64378*
X32835Y64780*
X32813Y65192*
X33641Y65180D02*
X33641Y65180D01*
X33680Y64628*
X33797Y64139*
X33993Y63711*
X34267Y63345*
X34600Y63052*
X34973Y62842*
X35385Y62717*
X35838Y62675*
X36298Y62717*
X36715Y62844*
X37090Y63055*
X37422Y63351*
X37694Y63725*
X37888Y64170*
X38005Y64685*
X38044Y65272*
X38027Y65653*
X37977Y66008*
X37894Y66339*
X37778Y66645*
X37630Y66922*
X37451Y67166*
X37241Y67377*
X37000Y67555*
X36736Y67696*
X36457Y67797*
X36162Y67858*
X35851Y67878*
X35414Y67839*
X35009Y67722*
X34635Y67528*
X34293Y67256*
X34008Y66893*
X33804Y66426*
X33681Y65855*
X33641Y65180*
X40064Y62106D02*
X40064Y68447D01*
X40860Y68447*
X44322Y63272*
X44322Y68447*
X45038Y68447*
X45038Y62106*
X44241Y62106*
X40779Y67285*
X40779Y62106*
X40064Y62106*
X46598Y62106D02*
X46598Y68447D01*
X47349Y68447*
X47349Y65801*
X50800Y65801*
X50800Y68447*
X51550Y68447*
X51550Y62106*
X50800Y62106*
X50800Y65142*
X47349Y65142*
X47349Y62106*
X46598Y62106*
X52387Y62106D02*
X54822Y68447D01*
X55672Y68447*
X58267Y62106*
X57406Y62106*
X56655Y64057*
X53890Y64057*
X53183Y62106*
X52387Y62106*
X54099Y64650D02*
X56430Y64650D01*
X55731Y66502*
X55588Y66890*
X55464Y67242*
X55360Y67556*
X55219Y68022*
X55110Y67523*
X55030Y67217*
X54937Y66912*
X54832Y66607*
X54099Y64650*
X59220Y62106D02*
X59220Y68447D01*
X59971Y68447*
X59971Y62106*
X59220Y62106*
X61588Y62106D02*
X61588Y68447D01*
X64393Y68447*
X64796Y68436*
X65145Y68404*
X65442Y68350*
X65685Y68276*
X65890Y68177*
X66074Y68045*
X66236Y67881*
X66376Y67684*
X66490Y67465*
X66572Y67235*
X66621Y66993*
X66637Y66740*
X66610Y66419*
X66529Y66126*
X66395Y65860*
X66207Y65619*
X65963Y65412*
X65659Y65246*
X65293Y65120*
X64719Y65008*
X65008Y64860*
X65144Y64782*
X65259Y64704*
X65353Y64627*
X65534Y64448*
X65712Y64247*
X65884Y64025*
X66052Y63780*
X67122Y62106*
X66171Y62106*
X65333Y63423*
X65154Y63697*
X64992Y63936*
X64845Y64142*
X64715Y64315*
X64596Y64459*
X64482Y64581*
X64373Y64680*
X64270Y64756*
X64170Y64815*
X64070Y64865*
X63968Y64904*
X63865Y64935*
X63776Y64949*
X63666Y64959*
X63533Y64965*
X63379Y64967*
X62339Y64967*
X62339Y62106*
X61588Y62106*
X62390Y65654D02*
X62390Y65654D01*
X64222Y65654*
X64499Y65662*
X64743Y65684*
X64956Y65722*
X65137Y65775*
X65291Y65844*
X65427Y65932*
X65542Y66038*
X65638Y66162*
X65713Y66298*
X65766Y66439*
X65798Y66586*
X65809Y66740*
X65788Y66958*
X65726Y67156*
X65622Y67334*
X65477Y67491*
X65287Y67620*
X65049Y67712*
X64763Y67767*
X64429Y67785*
X62390Y67785*
X62390Y65654*
X68220Y62106D02*
X68220Y68447D01*
X68971Y68447*
X68971Y62106*
X68220Y62106*
X70593Y62106D02*
X70593Y68447D01*
X75149Y68447*
X75149Y67788*
X71344Y67788*
X71344Y65713*
X74908Y65713*
X74908Y65059*
X71344Y65059*
X71344Y62764*
X75299Y62764*
X75299Y62106*
X70593Y62106*
X76293Y64079D02*
X76999Y64140D01*
X77030Y63953*
X77088Y63739*
X77167Y63545*
X77265Y63373*
X77389Y63219*
X77543Y63082*
X77725Y62960*
X77935Y62854*
X78167Y62769*
X78413Y62708*
X78672Y62671*
X78944Y62659*
X79185Y62668*
X79412Y62696*
X79625Y62742*
X79824Y62807*
X80004Y62889*
X80161Y62985*
X80294Y63097*
X80403Y63222*
X80487Y63358*
X80547Y63501*
X80583Y63649*
X80595Y63804*
X80583Y63959*
X80548Y64104*
X80490Y64240*
X80408Y64365*
X80300Y64480*
X80163Y64584*
X79999Y64678*
X79806Y64761*
X79634Y64820*
X79385Y64892*
X79058Y64978*
X78653Y65077*
X78244Y65182*
X77902Y65283*
X77628Y65381*
X77421Y65475*
X77210Y65600*
X77028Y65739*
X76876Y65891*
X76753Y66057*
X76657Y66235*
X76589Y66423*
X76548Y66622*
X76534Y66832*
X76551Y67064*
X76601Y67289*
X76685Y67506*
X76803Y67716*
X76952Y67909*
X77133Y68077*
X77344Y68221*
X77589Y68341*
X77856Y68435*
X78140Y68502*
X78438Y68543*
X78751Y68556*
X79094Y68542*
X79416Y68500*
X79716Y68429*
X79994Y68330*
X80246Y68204*
X80466Y68052*
X80655Y67874*
X80813Y67669*
X80940Y67444*
X81034Y67204*
X81094Y66950*
X81117Y66729*
X80397Y66675*
X80352Y66921*
X80256Y67179*
X80120Y67401*
X79941Y67583*
X79719Y67726*
X79452Y67827*
X79141Y67887*
X78786Y67907*
X78420Y67889*
X78105Y67834*
X77840Y67743*
X77628Y67613*
X77465Y67456*
X77348Y67283*
X77278Y67094*
X77254Y66889*
X77271Y66713*
X77321Y66552*
X77405Y66407*
X77522Y66279*
X77704Y66160*
X77983Y66043*
X78357Y65926*
X78829Y65809*
X79307Y65695*
X79703Y65589*
X80016Y65491*
X80246Y65401*
X80504Y65266*
X80724Y65114*
X80908Y64946*
X81055Y64762*
X81169Y64563*
X81250Y64348*
X81299Y64119*
X81315Y63874*
X81297Y63628*
X81243Y63390*
X81154Y63158*
X81029Y62933*
X80870Y62724*
X80680Y62540*
X80458Y62380*
X80204Y62244*
X79925Y62136*
X79629Y62058*
X79315Y62012*
X78984Y61996*
X78568Y62012*
X78189Y62059*
X77846Y62137*
X77539Y62247*
X77265Y62387*
X77023Y62558*
X76813Y62761*
X76634Y62995*
X76489Y63253*
X76383Y63527*
X76316Y63818*
X76293Y64079*
X17419Y50488D02*
X19166Y50047D01*
X18835Y49031*
X18375Y48103*
X17799Y47310*
X17109Y46652*
X16320Y46134*
X15448Y45764*
X14492Y45542*
X13451Y45468*
X12382Y45525*
X11418Y45696*
X10561Y45981*
X9809Y46379*
X9150Y46884*
X8576Y47493*
X8084Y48203*
X7676Y49017*
X7355Y49899*
X7126Y50814*
X6988Y51760*
X6942Y52739*
X6994Y53789*
X7149Y54769*
X7408Y55679*
X7770Y56520*
X8226Y57276*
X8770Y57936*
X9401Y58498*
X10120Y58964*
X10902Y59330*
X11723Y59591*
X12582Y59748*
X13480Y59801*
X14479Y59734*
X15393Y59536*
X16224Y59206*
X16973Y58744*
X17626Y58163*
X18172Y57474*
X18612Y56677*
X18926Y55822*
X17206Y55417*
X16951Y56088*
X16622Y56701*
X16237Y57211*
X15796Y57617*
X15297Y57926*
X14737Y58146*
X14119Y58278*
X13442Y58322*
X12664Y58273*
X11951Y58127*
X11304Y57883*
X10723Y57541*
X10216Y57117*
X9791Y56627*
X9447Y56069*
X9186Y55446*
X8993Y54786*
X8855Y54117*
X8772Y53438*
X8745Y52749*
X8777Y51883*
X8875Y51073*
X9038Y50319*
X9267Y49621*
X9566Y48992*
X9938Y48447*
X10383Y47986*
X10902Y47611*
X11467Y47320*
X12055Y47113*
X12666Y46988*
X13299Y46947*
X14053Y47003*
X14749Y47173*
X15384Y47457*
X15960Y47853*
X16461Y48362*
X16874Y48980*
X17198Y49705*
X17419Y50488*
X21653Y45706D02*
X21653Y59563D01*
X30968Y59563*
X30968Y58017*
X23398Y58017*
X23398Y53593*
X29949Y53593*
X29949Y52047*
X23398Y52047*
X23398Y45706*
X21653Y45706*
X32907Y52453D02*
X33023Y54089D01*
X33371Y55535*
X33950Y56791*
X34759Y57860*
X35752Y58713*
X36879Y59322*
X38141Y59688*
X39541Y59810*
X40476Y59753*
X41365Y59581*
X42205Y59295*
X42999Y58894*
X43723Y58391*
X44355Y57797*
X44896Y57114*
X45345Y56339*
X45699Y55492*
X45952Y54588*
X46104Y53630*
X46154Y52615*
X46101Y51587*
X45941Y50615*
X45675Y49699*
X45303Y48839*
X44833Y48058*
X44276Y47379*
X43630Y46801*
X42895Y46323*
X42100Y45949*
X41275Y45682*
X40418Y45521*
X39531Y45468*
X38578Y45527*
X37678Y45704*
X36830Y45999*
X36034Y46413*
X35311Y46928*
X34681Y47529*
X34145Y48217*
X33701Y48991*
X33354Y49821*
X33106Y50675*
X32957Y51552*
X32907Y52453*
X34760Y52425D02*
X34760Y52425D01*
X34845Y51230*
X35099Y50169*
X35523Y49243*
X36117Y48450*
X36839Y47814*
X37646Y47361*
X38541Y47088*
X39521Y46998*
X40517Y47089*
X41422Y47364*
X42234Y47822*
X42954Y48464*
X43543Y49274*
X43964Y50237*
X44217Y51354*
X44301Y52625*
X44265Y53450*
X44157Y54221*
X43977Y54938*
X43725Y55600*
X43403Y56200*
X43015Y56728*
X42561Y57186*
X42039Y57571*
X41468Y57877*
X40862Y58096*
X40223Y58227*
X39550Y58271*
X38603Y58187*
X37725Y57934*
X36915Y57513*
X36174Y56924*
X35556Y56137*
X35114Y55125*
X34849Y53888*
X34760Y52425*
X53978Y45706D02*
X53978Y59563D01*
X59163Y59563*
X59921Y59536*
X60597Y59457*
X61193Y59326*
X61710Y59143*
X62160Y58906*
X62559Y58613*
X62905Y58264*
X63201Y57858*
X63437Y57419*
X63606Y56970*
X63707Y56511*
X63741Y56043*
X63711Y55609*
X63621Y55188*
X63472Y54780*
X63263Y54385*
X62993Y54015*
X62663Y53682*
X62271Y53386*
X61719Y53072*
X62415Y52817*
X62932Y52537*
X63375Y52193*
X63746Y51784*
X64039Y51324*
X64249Y50824*
X64375Y50283*
X64417Y49701*
X64391Y49225*
X64314Y48767*
X64187Y48325*
X64008Y47900*
X63791Y47508*
X63551Y47164*
X63287Y46867*
X62999Y46619*
X62680Y46408*
X62322Y46224*
X61925Y46067*
X61489Y45938*
X61008Y45836*
X60474Y45764*
X59888Y45720*
X59249Y45706*
X53978Y45706*
X55774Y53748D02*
X55774Y53748D01*
X58793Y53748*
X59363Y53758*
X59847Y53789*
X60244Y53839*
X60554Y53910*
X60885Y54032*
X61172Y54189*
X61416Y54380*
X61616Y54605*
X61772Y54863*
X61884Y55153*
X61951Y55473*
X61973Y55824*
X61952Y56161*
X61890Y56477*
X61786Y56773*
X61640Y57047*
X61455Y57291*
X61235Y57493*
X60979Y57653*
X60688Y57771*
X60323Y57856*
X59847Y57917*
X59261Y57954*
X58564Y57966*
X55774Y57966*
X55774Y53748*
X55774Y47302D02*
X55774Y47302D01*
X59250Y47302*
X59664Y47306*
X60012Y47319*
X60292Y47340*
X60507Y47369*
X60813Y47436*
X61092Y47521*
X61346Y47626*
X61573Y47750*
X61778Y47898*
X61963Y48077*
X62130Y48286*
X62278Y48526*
X62398Y48790*
X62485Y49074*
X62537Y49378*
X62554Y49702*
X62529Y50079*
X62454Y50431*
X62329Y50758*
X62154Y51058*
X61935Y51325*
X61677Y51549*
X61380Y51730*
X61045Y51868*
X60651Y51970*
X60179Y52043*
X59630Y52086*
X59002Y52101*
X55774Y52101*
X55774Y47302*
X66499Y52453D02*
X66615Y54089D01*
X66963Y55535*
X67542Y56791*
X68352Y57860*
X69345Y58713*
X70472Y59322*
X71734Y59688*
X73133Y59810*
X74069Y59753*
X74957Y59581*
X75798Y59295*
X76591Y58894*
X77315Y58391*
X77947Y57797*
X78488Y57114*
X78938Y56339*
X79291Y55492*
X79544Y54588*
X79696Y53630*
X79747Y52615*
X79693Y51587*
X79534Y50615*
X79268Y49699*
X78895Y48839*
X78426Y48058*
X77868Y47379*
X77223Y46801*
X76488Y46323*
X75693Y45949*
X74867Y45682*
X74011Y45521*
X73123Y45468*
X72170Y45527*
X71270Y45704*
X70422Y45999*
X69627Y46413*
X68903Y46928*
X68274Y47529*
X67737Y48217*
X67294Y48991*
X66946Y49821*
X66698Y50675*
X66549Y51552*
X66499Y52453*
X68353Y52425D02*
X68353Y52425D01*
X68437Y51230*
X68692Y50169*
X69116Y49243*
X69709Y48450*
X70431Y47814*
X71239Y47361*
X72133Y47088*
X73113Y46998*
X74110Y47089*
X75014Y47364*
X75826Y47822*
X76546Y48464*
X77135Y49274*
X77556Y50237*
X77809Y51354*
X77893Y52625*
X77857Y53450*
X77749Y54221*
X77569Y54938*
X77317Y55600*
X76996Y56200*
X76608Y56728*
X76153Y57186*
X75632Y57571*
X75060Y57877*
X74455Y58096*
X73815Y58227*
X73142Y58271*
X72196Y58187*
X71317Y57934*
X70508Y57513*
X69767Y56924*
X69148Y56137*
X68706Y55125*
X68441Y53888*
X68353Y52425*
X82229Y45706D02*
X82229Y59563D01*
X86986Y59563*
X87751Y59550*
X88418Y59513*
X88988Y59451*
X89460Y59364*
X90033Y59199*
X90561Y58980*
X91045Y58705*
X91486Y58375*
X91999Y57881*
X92442Y57322*
X92817Y56699*
X93123Y56011*
X93361Y55264*
X93531Y54465*
X93633Y53614*
X93668Y52710*
X93644Y51941*
X93575Y51217*
X93460Y50539*
X93298Y49906*
X93101Y49322*
X92877Y48791*
X92628Y48314*
X92353Y47889*
X92059Y47511*
X91751Y47176*
X91430Y46884*
X91095Y46635*
X90737Y46421*
X90342Y46234*
X89912Y46074*
X89445Y45942*
X88943Y45839*
X88404Y45765*
X87828Y45721*
X87215Y45706*
X82229Y45706*
X84026Y47302D02*
X84026Y47302D01*
X87006Y47302*
X87659Y47318*
X88238Y47366*
X88742Y47447*
X89172Y47559*
X89545Y47701*
X89878Y47869*
X90171Y48063*
X90424Y48283*
X90734Y48640*
X91008Y49053*
X91246Y49523*
X91448Y50049*
X91608Y50633*
X91722Y51276*
X91791Y51978*
X91814Y52739*
X91769Y53771*
X91634Y54675*
X91410Y55453*
X91095Y56105*
X90716Y56644*
X90299Y57087*
X89843Y57432*
X89348Y57681*
X88920Y57806*
X88379Y57895*
X87725Y57948*
X86958Y57966*
X84026Y57966*
X84026Y47302*
X100244Y45706D02*
X100244Y51583D01*
X94909Y59563*
X97033Y59563*
X99770Y55377*
X100143Y54788*
X100504Y54198*
X100852Y53609*
X101230Y52942*
X101605Y53582*
X101969Y54181*
X102366Y54814*
X102797Y55482*
X105486Y59563*
X107513Y59563*
X101990Y51584*
X101990Y45706*
X100244Y45706*
X108694Y50093D02*
X110339Y50237D01*
X110414Y49781*
X110539Y49322*
X110706Y48910*
X110915Y48545*
X111178Y48219*
X111504Y47926*
X111891Y47667*
X112342Y47441*
X112838Y47258*
X113364Y47127*
X113919Y47049*
X114504Y47023*
X115021Y47043*
X115508Y47102*
X115964Y47201*
X116389Y47340*
X116773Y47515*
X117106Y47719*
X117387Y47954*
X117616Y48219*
X117793Y48506*
X117920Y48806*
X117996Y49119*
X118021Y49444*
X117997Y49771*
X117923Y50076*
X117801Y50360*
X117629Y50623*
X117402Y50865*
X117113Y51085*
X116762Y51285*
X116351Y51463*
X115982Y51589*
X115444Y51744*
X114736Y51930*
X113860Y52146*
X112971Y52373*
X112228Y52593*
X111629Y52807*
X111176Y53013*
X110713Y53287*
X110314Y53593*
X109978Y53928*
X109706Y54295*
X109495Y54688*
X109344Y55103*
X109253Y55542*
X109223Y56005*
X109260Y56517*
X109371Y57012*
X109556Y57491*
X109815Y57952*
X110144Y58378*
X110542Y58749*
X111008Y59066*
X111544Y59329*
X112130Y59535*
X112750Y59683*
X113401Y59771*
X114085Y59801*
X114834Y59770*
X115536Y59677*
X116193Y59522*
X116803Y59305*
X117355Y59028*
X117839Y58694*
X118255Y58302*
X118604Y57852*
X118882Y57357*
X119088Y56830*
X119221Y56271*
X119276Y55728*
X117602Y55602*
X117496Y56183*
X117294Y56732*
X117004Y57200*
X116627Y57587*
X116156Y57889*
X115588Y58103*
X114923Y58232*
X114162Y58274*
X113375Y58236*
X112700Y58119*
X112137Y57924*
X111688Y57650*
X111345Y57319*
X111099Y56955*
X110951Y56558*
X110902Y56129*
X110937Y55759*
X111042Y55423*
X111217Y55120*
X111462Y54852*
X111846Y54601*
X112441Y54352*
X113248Y54100*
X114268Y53846*
X115306Y53600*
X116165Y53370*
X116846Y53156*
X117349Y52959*
X117913Y52662*
X118398Y52329*
X118802Y51959*
X119128Y51554*
X119378Y51113*
X119556Y50641*
X119664Y50135*
X119700Y49597*
X119660Y49055*
X119542Y48530*
X119346Y48020*
X119070Y47525*
X118721Y47066*
X118303Y46660*
X117815Y46309*
X117258Y46011*
X116648Y45773*
X116000Y45604*
X115314Y45502*
X114590Y45468*
X113685Y45502*
X112858Y45605*
X112107Y45776*
X111435Y46016*
X110835Y46324*
X110304Y46700*
X109842Y47145*
X109448Y47659*
X109131Y48225*
X108898Y48827*
X108751Y49466*
X108694Y50093*
X122363Y45706D02*
X122363Y59563D01*
X132354Y59563*
X132354Y58017*
X124109Y58017*
X124109Y53640*
X131830Y53640*
X131830Y52104*
X124109Y52104*
X124109Y47251*
X132678Y47251*
X132678Y45706*
X122363Y45706*
X145781Y47140D02*
X146463Y46694D01*
X147070Y46339*
X147653Y46043*
X148163Y45828*
X147660Y44636*
X146957Y44926*
X146210Y45314*
X145464Y45779*
X144693Y46342*
X143873Y45952*
X143043Y45683*
X142172Y45522*
X141260Y45468*
X140341Y45525*
X139467Y45695*
X138636Y45978*
X137849Y46375*
X137128Y46874*
X136495Y47465*
X135950Y48149*
X135493Y48925*
X135131Y49773*
X134872Y50674*
X134717Y51628*
X134665Y52634*
X134717Y53639*
X134873Y54596*
X135134Y55508*
X135498Y56373*
X135957Y57163*
X136505Y57853*
X137140Y58442*
X137863Y58931*
X138653Y59316*
X139489Y59590*
X140371Y59755*
X141298Y59810*
X142235Y59753*
X143123Y59582*
X143964Y59297*
X144757Y58898*
X145481Y58397*
X146113Y57806*
X146654Y57123*
X147104Y56349*
X147457Y55502*
X147710Y54603*
X147862Y53650*
X147913Y52643*
X147880Y51808*
X147782Y51016*
X147620Y50267*
X147392Y49563*
X147099Y48902*
X146740Y48286*
X146315Y47714*
X145781Y47140*
X141793Y49511D02*
X141793Y49511D01*
X142558Y49260*
X143253Y48954*
X143877Y48594*
X144431Y48178*
X145143Y49014*
X145652Y50037*
X145957Y51247*
X146059Y52644*
X146023Y53464*
X145915Y54231*
X145735Y54945*
X145483Y55605*
X145162Y56203*
X144774Y56730*
X144319Y57186*
X143798Y57571*
X143226Y57877*
X142621Y58096*
X141981Y58227*
X141308Y58271*
X140319Y58183*
X139418Y57917*
X138605Y57476*
X137880Y56857*
X137284Y56063*
X136859Y55094*
X136604Y53951*
X136519Y52634*
X136603Y51352*
X136855Y50228*
X137276Y49262*
X137866Y48454*
X138586Y47817*
X139400Y47362*
X140307Y47089*
X141308Y46998*
X141796Y47021*
X142270Y47090*
X142729Y47206*
X143174Y47369*
X142735Y47630*
X142284Y47850*
X141821Y48029*
X141346Y48169*
X141793Y49511*
M02*