%FSLAX33Y33*%
%MOMM*%
%AMRect-W4000000-H4000000-RO1.000*
21,1,4.,4.,0.,0.,180*%
%AMRect-W1000000-H1000000-RO1.000*
21,1,1.,1.,0.,0.,180*%
%AMRect-W2032000-H2032000-RO0.250*
21,1,2.032,2.032,0.,0.,315*%
%AMRect-W1400000-H1400000-RO1.000*
21,1,1.4,1.4,0.,0.,180*%
%AMRect-W2032000-H2032000-RO0.500*
21,1,2.032,2.032,0.,0.,270*%
%AMRect-W1000000-H1000000-RO0.500*
21,1,1.,1.,0.,0.,270*%
%ADD10C,1.0668*%
%ADD11C,3.*%
%ADD12C,1.8*%
%ADD13Rect-W4000000-H4000000-RO1.000*%
%ADD14C,1.6*%
%ADD15R,14.24X28.*%
%ADD16C,1.6*%
%ADD17C,1.6*%
%ADD18C,1.2*%
%ADD19Rect-W1000000-H1000000-RO1.000*%
%ADD20C,2.286*%
%ADD21Rect-W2032000-H2032000-RO0.250*%
%ADD22C,1.5*%
%ADD23C,1.45*%
%ADD24C,1.4*%
%ADD25Rect-W1400000-H1400000-RO1.000*%
%ADD26C,1.6*%
%ADD27C,1.0668*%
%ADD28C,1.45*%
%ADD29C,2.286*%
%ADD30Rect-W2032000-H2032000-RO0.500*%
%ADD31C,1.2*%
%ADD32Rect-W1000000-H1000000-RO0.500*%
%ADD33C,1.4*%
D10*
%LNtop solder mask_traces*%
G01*
X81280Y59690D03*
D11*
X130810Y95885D03*
D10*
X99695Y58420D03*
X102235Y60960D03*
X111760Y72390D03*
X142240Y46990D03*
X48260Y44450D03*
X101600Y91440D03*
X26670Y45720D03*
X103505Y62230D03*
X130810Y44450D03*
X64770Y44450D03*
X95885Y57785D03*
X92710Y45720D03*
X31750Y44450D03*
X15240Y44450D03*
X81280Y44450D03*
X147320Y44450D03*
X59690Y45720D03*
X100965Y59690D03*
D11*
X13970Y55880D03*
D10*
X13970Y48260D03*
X43180Y45720D03*
D11*
X76200Y63500D03*
D10*
X83820Y57150D03*
X114300Y44450D03*
X88265Y57150D03*
X97790Y44450D03*
X76200Y45720D03*
X94615Y59055D03*
X125730Y45720D03*
X81280Y57150D03*
D11*
X101092Y95504D03*
D10*
X109220Y45720D03*
%LNtop solder mask component fb107dcccfdb0926*%
D12*
X35500Y69850D03*
X28000Y69850D03*
X31750Y69850D03*
D13*
X26550Y59850D03*
X36950Y59850D03*
%LNtop solder mask component 1f20f5d5898abb2f*%
D14*
X92710Y38100D03*
X85090Y38100D03*
%LNtop solder mask component 97cbeba4f3948cad*%
D15*
X138430Y16480D03*
%LNtop solder mask component 27b49cb97a04ef49*%
D14*
X76200Y38100D03*
X68580Y38100D03*
%LNtop solder mask component f535bb90dd72d157*%
D15*
X22860Y16480D03*
%LNtop solder mask component a620bbc60874f67c*%
D16*
X132080Y62230D03*
X132080Y69850D03*
%LNtop solder mask component ea2c1d543afd550c*%
D17*
X3810Y41910D03*
X11430Y41910D03*
%LNtop solder mask component b43df3c15a639c76*%
D14*
X26670Y41910D03*
X19050Y41910D03*
%LNtop solder mask component de895496bb2fd0e6*%
X109220Y38100D03*
X101600Y38100D03*
%LNtop solder mask component 470e91fafd046a91*%
D15*
X55880Y16480D03*
%LNtop solder mask component 82f976b0e811269b*%
D16*
X135890Y62230D03*
X135890Y69850D03*
%LNtop solder mask component 34e823c397d52473*%
D18*
X120650Y34290D03*
D19*
X123190Y34290D03*
%LNtop solder mask component 9af73c40574899a7*%
D14*
X59690Y38100D03*
X52070Y38100D03*
%LNtop solder mask component f836791b44df51a1*%
D18*
X54610Y34290D03*
D19*
X57150Y34290D03*
%LNtop solder mask component b4f3b804e5a01ba0*%
D20*
X81032Y70785D03*
X86354Y66218D03*
X87742Y74384D03*
X90508Y75174D03*
D21*
X81349Y77114D03*
%LNtop solder mask component 02b106f82a4a95db*%
D18*
X137160Y34290D03*
D19*
X139700Y34290D03*
%LNtop solder mask component c91da9575c6a0be3*%
D22*
X10120Y16510D03*
X5120Y16510D03*
%LNtop solder mask component 9f6d21584f488dcd*%
D14*
X142240Y38100D03*
X134620Y38100D03*
%LNtop solder mask component 97a26aaf76f6e1cc*%
D23*
X120650Y93980D03*
X120650Y88900D03*
X120650Y86360D03*
X120650Y83820D03*
X120650Y63500D03*
X118110Y63500D03*
X115570Y63500D03*
X113030Y63500D03*
X110490Y63500D03*
X107950Y96520D03*
X107950Y93980D03*
X107950Y91440D03*
X107950Y88900D03*
X107950Y86360D03*
X107950Y83820D03*
X107950Y81280D03*
X107950Y78740D03*
X107950Y76200D03*
X107950Y73660D03*
X107950Y71120D03*
X107950Y68580D03*
X107950Y66040D03*
X107950Y63500D03*
X123190Y63500D03*
X123190Y66040D03*
X123190Y68580D03*
X123190Y71120D03*
X123190Y73660D03*
X123190Y76200D03*
X123190Y78740D03*
X123190Y81280D03*
X123190Y83820D03*
X123190Y86360D03*
X123190Y88900D03*
X123190Y91440D03*
X123190Y93980D03*
X123190Y96520D03*
%LNtop solder mask component 106714d2bc1b7527*%
D14*
X43180Y41910D03*
X35560Y41910D03*
%LNtop solder mask component 34c941316c1a9527*%
D18*
X104140Y34290D03*
D19*
X106680Y34290D03*
%LNtop solder mask component 9ed433e74971deb4*%
D24*
X130810Y86360D03*
X130810Y88860D03*
D25*
X130810Y83860D03*
%LNtop solder mask component cf9d0f0b436303b1*%
D14*
X125730Y38100D03*
X118110Y38100D03*
%LNtop solder mask component 58c9e35b802cae0f*%
X76200Y41910D03*
X68580Y41910D03*
%LNtop solder mask component 36da97aa6b26bacf*%
D18*
X21590Y34290D03*
D19*
X24130Y34290D03*
%LNtop solder mask component 62e86ca77f7b5a9a*%
D14*
X142240Y41910D03*
X134620Y41910D03*
%LNtop solder mask component 497d46b69fa9bdd2*%
X43180Y38100D03*
X35560Y38100D03*
%LNtop solder mask component 718ced2e03940ba8*%
D12*
X63440Y69850D03*
X55940Y69850D03*
X59690Y69850D03*
D13*
X54490Y59850D03*
X64890Y59850D03*
%LNtop solder mask component c4b1df07a66167ef*%
D14*
X59690Y41910D03*
X52070Y41910D03*
%LNtop solder mask component c566558ad0bcfb55*%
D18*
X71120Y34290D03*
D19*
X73660Y34290D03*
%LNtop solder mask component 4820d467dc877488*%
D18*
X87630Y34290D03*
D19*
X90170Y34290D03*
%LNtop solder mask component da1d1d7cd5a7c606*%
D26*
X89381Y63981D03*
X94769Y69369D03*
%LNtop solder mask component 60ae0478fb4407c3*%
D27*
X143510Y52070D03*
X143510Y57150D03*
X143510Y54610D03*
%LNtop solder mask component a8833ba25e49bac5*%
D20*
X89922Y79675D03*
X95244Y75108D03*
X96632Y83274D03*
X99398Y84064D03*
D21*
X90239Y86004D03*
%LNtop solder mask component 920632581e92b0fd*%
D18*
X38100Y34290D03*
D19*
X40640Y34290D03*
%LNtop solder mask component 8d5ab273b1829623*%
D15*
X88900Y16480D03*
%LNtop solder mask component 01f9c429d97c1052*%
X72390Y16480D03*
%LNtop solder mask component fba815822519b424*%
X39370Y16480D03*
%LNtop solder mask component 3612e22fcedd26d8*%
D14*
X125730Y41910D03*
X118110Y41910D03*
%LNtop solder mask component 3919fc649fdcade3*%
D28*
X147320Y78700D03*
X147320Y73700D03*
%LNtop solder mask component 6889c37fa128180d*%
D29*
X137338Y92713D03*
X137871Y85720D03*
X144628Y90512D03*
X147142Y89115D03*
D30*
X142037Y96964D03*
%LNtop solder mask component 42f967a1b082bbaa*%
D18*
X6350Y38100D03*
D19*
X8890Y38100D03*
%LNtop solder mask component 843ae13b30258408*%
D14*
X26670Y38100D03*
X19050Y38100D03*
%LNtop solder mask component abea25ac2a452092*%
D22*
X10120Y7620D03*
X5120Y7620D03*
%LNtop solder mask component 71f6df73bb3e5241*%
D14*
X109220Y41910D03*
X101600Y41910D03*
%LNtop solder mask component bd4e2dec967c8ba0*%
D15*
X105410Y16480D03*
%LNtop solder mask component a23c2c192278a3d0*%
X121920Y16480D03*
%LNtop solder mask component 3cea8e4304858dd9*%
D31*
X139700Y74950D03*
D32*
X139700Y77450D03*
%LNtop solder mask component c985985d9b0f206f*%
D14*
X92710Y41910D03*
X85090Y41910D03*
%LNtop solder mask component 6f85b1a43342d1af*%
D22*
X10120Y25400D03*
X5120Y25400D03*
%LNtop solder mask component d521cece24698383*%
D33*
X147320Y67310D03*
X139700Y62230D03*
X147320Y64770D03*
X139700Y64770D03*
X147320Y62230D03*
X139700Y67310D03*
X139700Y69850D03*
X147320Y69850D03*
M02*