G75*
G70*
%OFA0B0*%
%FSLAX24Y24*%
%IPPOS*%
%LPD*%
%AMOC8*
5,1,8,0,0,1.08239X$1,22.5*
%
%ADD10C,0.0520*%
%ADD11OC8,0.0600*%
%ADD12OC8,0.0520*%
%ADD13C,0.0440*%
%ADD14C,0.0660*%
%ADD15OC8,0.0630*%
%ADD16C,0.0630*%
%ADD17C,0.0600*%
%ADD18OC8,0.1900*%
%ADD19OC8,0.0850*%
%ADD20R,0.0594X0.0594*%
%ADD21R,0.1266X0.1266*%
%ADD22OC8,0.0885*%
%ADD23C,0.0885*%
%ADD24C,0.0740*%
%ADD25C,0.0104*%
%ADD26OC8,0.0660*%
%ADD27R,0.0700X0.0700*%
%ADD28C,0.0700*%
%ADD29C,0.0240*%
%ADD30C,0.0100*%
%ADD31OC8,0.0400*%
%ADD32C,0.0160*%
%ADD33C,0.0120*%
%ADD34C,0.0436*%
%ADD35OC8,0.0475*%
%ADD36C,0.0600*%
D10*
X028333Y018699D02*
X028853Y018699D01*
X028853Y019699D02*
X028333Y019699D01*
X028333Y020699D02*
X028853Y020699D01*
X028853Y021699D02*
X028333Y021699D01*
X028333Y022699D02*
X028853Y022699D01*
X028853Y023699D02*
X028333Y023699D01*
X028333Y024699D02*
X028853Y024699D01*
X028853Y025699D02*
X028333Y025699D01*
X031333Y025699D02*
X031853Y025699D01*
X031853Y024699D02*
X031333Y024699D01*
X031333Y023699D02*
X031853Y023699D01*
X031853Y022699D02*
X031333Y022699D01*
X031333Y021699D02*
X031853Y021699D01*
X031853Y020699D02*
X031333Y020699D01*
X031333Y019699D02*
X031853Y019699D01*
X031853Y018699D02*
X031333Y018699D01*
X033314Y018687D02*
X033834Y018687D01*
X033834Y019687D02*
X033314Y019687D01*
X033314Y020687D02*
X033834Y020687D01*
X033834Y021687D02*
X033314Y021687D01*
X033314Y022687D02*
X033834Y022687D01*
X033834Y023687D02*
X033314Y023687D01*
X033314Y024687D02*
X033834Y024687D01*
X033834Y025687D02*
X033314Y025687D01*
X036314Y025687D02*
X036834Y025687D01*
X036834Y024687D02*
X036314Y024687D01*
X036314Y023687D02*
X036834Y023687D01*
X036834Y022687D02*
X036314Y022687D01*
X036314Y021687D02*
X036834Y021687D01*
X036834Y020687D02*
X036314Y020687D01*
X036314Y019687D02*
X036834Y019687D01*
X036834Y018687D02*
X036314Y018687D01*
X044626Y020011D02*
X044626Y020531D01*
X045626Y020531D02*
X045626Y020011D01*
X046626Y020011D02*
X046626Y020531D01*
X047626Y020531D02*
X047626Y020011D01*
X047626Y023011D02*
X047626Y023531D01*
X046626Y023531D02*
X046626Y023011D01*
X045626Y023011D02*
X045626Y023531D01*
X044626Y023531D02*
X044626Y023011D01*
X049103Y025847D02*
X049103Y026367D01*
X050103Y026367D02*
X050103Y025847D01*
X051103Y025847D02*
X051103Y026367D01*
X052103Y026367D02*
X052103Y025847D01*
X052103Y028847D02*
X052103Y029367D01*
X051103Y029367D02*
X051103Y028847D01*
X050103Y028847D02*
X050103Y029367D01*
X049103Y029367D02*
X049103Y028847D01*
X039444Y039603D02*
X039444Y040123D01*
X038444Y040123D02*
X038444Y039603D01*
X037444Y039603D02*
X037444Y040123D01*
X036444Y040123D02*
X036444Y039603D01*
X035444Y039603D02*
X035444Y040123D01*
X034444Y040123D02*
X034444Y039603D01*
X033444Y039603D02*
X033444Y040123D01*
X032444Y040123D02*
X032444Y039603D01*
X031444Y039603D02*
X031444Y040123D01*
X030444Y040123D02*
X030444Y039603D01*
X029444Y039603D02*
X029444Y040123D01*
X028444Y040123D02*
X028444Y039603D01*
X027444Y039603D02*
X027444Y040123D01*
X026444Y040123D02*
X026444Y039603D01*
X026444Y042603D02*
X026444Y043123D01*
X027444Y043123D02*
X027444Y042603D01*
X028444Y042603D02*
X028444Y043123D01*
X029444Y043123D02*
X029444Y042603D01*
X030444Y042603D02*
X030444Y043123D01*
X031444Y043123D02*
X031444Y042603D01*
X032444Y042603D02*
X032444Y043123D01*
X033444Y043123D02*
X033444Y042603D01*
X034444Y042603D02*
X034444Y043123D01*
X035444Y043123D02*
X035444Y042603D01*
X036444Y042603D02*
X036444Y043123D01*
X037444Y043123D02*
X037444Y042603D01*
X038444Y042603D02*
X038444Y043123D01*
X039444Y043123D02*
X039444Y042603D01*
D11*
X024018Y042051D03*
X024018Y041051D03*
X023018Y041051D03*
X023018Y042051D03*
X023018Y040051D03*
X024018Y040051D03*
X007784Y053907D03*
X007626Y052647D03*
X007518Y051348D03*
D12*
X013024Y048127D03*
X013024Y046127D03*
X016100Y044668D03*
X017245Y044640D03*
X019444Y044549D03*
X019444Y043549D03*
X017245Y040640D03*
X016100Y040668D03*
X008695Y038813D03*
X008695Y034813D03*
X011184Y034011D03*
X015184Y034011D03*
X015596Y032507D03*
X015596Y028507D03*
X016846Y028533D03*
X020846Y028533D03*
X022589Y025696D03*
X022589Y024707D03*
X022589Y023718D03*
X022589Y022729D03*
X022589Y021740D03*
X022589Y020751D03*
X022589Y019762D03*
X022589Y018673D03*
X022162Y016654D03*
X022162Y015654D03*
X024987Y015652D03*
X024987Y014652D03*
X027583Y015673D03*
X027583Y016673D03*
X026589Y018673D03*
X026589Y019762D03*
X026589Y020751D03*
X026589Y021740D03*
X026589Y022729D03*
X026589Y023718D03*
X026589Y024707D03*
X026589Y025696D03*
X036003Y016654D03*
X036003Y015654D03*
X038738Y015668D03*
X038738Y014668D03*
X041374Y015673D03*
X041374Y016673D03*
X042578Y018632D03*
X042578Y019621D03*
X042578Y020610D03*
X042578Y021599D03*
X042578Y022588D03*
X042578Y023577D03*
X042578Y024566D03*
X042578Y025655D03*
X038578Y025655D03*
X038578Y024566D03*
X038578Y023577D03*
X038578Y022588D03*
X038578Y021599D03*
X038578Y020610D03*
X038578Y019621D03*
X038578Y018632D03*
X033181Y015663D03*
X033181Y014663D03*
X030345Y014652D03*
X030345Y015652D03*
X019269Y015666D03*
X019269Y014666D03*
X016333Y014555D03*
X016333Y015555D03*
X013150Y015678D03*
X013150Y016678D03*
X010063Y015680D03*
X010063Y014680D03*
X007780Y015426D03*
X008891Y017752D03*
X008891Y021752D03*
X007629Y021721D03*
X003629Y021721D03*
X003660Y022880D03*
X003660Y026880D03*
X003201Y028946D03*
X003201Y032946D03*
X003780Y015426D03*
X027587Y045139D03*
X027587Y047139D03*
X033596Y047128D03*
X035009Y047122D03*
X036329Y047135D03*
X036329Y045135D03*
X035009Y045122D03*
X033596Y045128D03*
X041763Y043430D03*
X042973Y043430D03*
X044147Y043408D03*
X044147Y039408D03*
X042973Y039430D03*
X041763Y039430D03*
X042438Y031083D03*
X044438Y031083D03*
X045513Y031044D03*
X049513Y031044D03*
X050627Y031044D03*
X052009Y032422D03*
X052627Y031044D03*
X053737Y031044D03*
X055737Y031044D03*
X056009Y032422D03*
X054131Y034365D03*
X056246Y034831D03*
X056246Y035831D03*
X056268Y037204D03*
X056268Y038204D03*
X054131Y038365D03*
X054189Y024050D03*
X053217Y024076D03*
X052225Y024050D03*
X051081Y023134D03*
X049979Y023118D03*
X048878Y023113D03*
X048878Y021113D03*
X049979Y021118D03*
X051081Y021134D03*
X052225Y020050D03*
X053217Y020076D03*
X054189Y020050D03*
X055390Y021163D03*
X056833Y019242D03*
X056833Y015242D03*
X052586Y015568D03*
X052586Y014568D03*
X049714Y014668D03*
X049714Y015668D03*
X046881Y015644D03*
X046881Y016644D03*
X044088Y015668D03*
X044088Y014668D03*
X055390Y023163D03*
D13*
X031574Y045876D02*
X031574Y046316D01*
X029574Y046316D02*
X029574Y045876D01*
D14*
X007285Y045662D03*
X007285Y049662D03*
D15*
X010109Y046660D03*
X010111Y044331D03*
D16*
X010111Y042931D03*
X010109Y048060D03*
D17*
X000843Y001226D02*
X000843Y000626D01*
X001843Y000626D02*
X001843Y001226D01*
X002843Y001226D02*
X002843Y000626D01*
X040535Y031263D02*
X041135Y031263D01*
X041135Y032263D02*
X040535Y032263D01*
X040586Y035458D02*
X040586Y036058D01*
X039586Y036058D02*
X039586Y035458D01*
X038586Y035458D02*
X038586Y036058D01*
X037586Y036058D02*
X037586Y035458D01*
X036586Y035458D02*
X036586Y036058D01*
X035586Y036058D02*
X035586Y035458D01*
X034586Y035458D02*
X034586Y036058D01*
X033586Y036058D02*
X033586Y035458D01*
X032586Y035458D02*
X032586Y036058D01*
X031586Y036058D02*
X031586Y035458D01*
X030586Y035458D02*
X030586Y036058D01*
X029586Y036058D02*
X029586Y035458D01*
X028586Y035458D02*
X028586Y036058D01*
X027586Y036058D02*
X027586Y035458D01*
X026586Y035458D02*
X026586Y036058D01*
X025586Y036058D02*
X025586Y035458D01*
X021006Y045854D02*
X020406Y045854D01*
X020406Y047634D02*
X021006Y047634D01*
X018446Y047634D02*
X017846Y047634D01*
X017846Y045854D02*
X018446Y045854D01*
X009172Y051429D02*
X008577Y051502D01*
X008699Y052495D02*
X009294Y052422D01*
X009416Y053414D02*
X008821Y053487D01*
X003146Y045760D02*
X002546Y045760D01*
X002546Y044760D02*
X003146Y044760D01*
X003146Y043760D02*
X002546Y043760D01*
X005775Y042540D02*
X006375Y042540D01*
X006375Y041540D02*
X005775Y041540D01*
X005775Y040540D02*
X006375Y040540D01*
X010502Y037581D02*
X010502Y036981D01*
X011502Y036981D02*
X011502Y037581D01*
X031644Y050154D02*
X031717Y050749D01*
X032709Y050627D02*
X032636Y050032D01*
X033629Y049910D02*
X033702Y050505D01*
X034694Y050383D02*
X034621Y049788D01*
X035614Y049666D02*
X035687Y050262D01*
X036679Y050140D02*
X036606Y049544D01*
X057213Y032272D02*
X057813Y032272D01*
X057813Y031272D02*
X057213Y031272D01*
X059417Y031256D02*
X060017Y031256D01*
X060017Y030256D02*
X059417Y030256D01*
X059417Y029256D02*
X060017Y029256D01*
X060017Y028256D02*
X059417Y028256D01*
X059417Y032256D02*
X060017Y032256D01*
X059699Y033784D02*
X059099Y033784D01*
X059099Y034784D02*
X059699Y034784D01*
X059699Y035784D02*
X059099Y035784D01*
X059099Y036737D02*
X059699Y036737D01*
X059699Y037737D02*
X059099Y037737D01*
X059099Y038737D02*
X059699Y038737D01*
X054765Y017348D02*
X054765Y016748D01*
X053765Y016748D02*
X053765Y017348D01*
D18*
X005548Y049782D03*
X004368Y047812D03*
X003188Y049782D03*
D19*
X009914Y038524D03*
X032528Y037775D03*
X056903Y026516D03*
X057099Y020453D03*
X056361Y003536D03*
X042211Y003436D03*
X037719Y003436D03*
X023552Y003486D03*
X004934Y009708D03*
X002834Y011608D03*
D20*
X056334Y041783D03*
X056334Y042767D03*
X056334Y043751D03*
X062043Y043751D03*
X062043Y041783D03*
D21*
X059287Y040365D03*
X059287Y045169D03*
D22*
X061098Y026682D03*
X062378Y024832D03*
X058148Y026472D03*
X058126Y019147D03*
X061076Y019357D03*
X062356Y017507D03*
X007355Y035093D03*
X004405Y034883D03*
X003125Y036733D03*
D23*
X005665Y037753D03*
X006215Y038743D03*
X059288Y022822D03*
X059838Y023812D03*
X059816Y016487D03*
X059266Y015497D03*
D24*
X021801Y033979D03*
X019801Y034979D03*
X021801Y035979D03*
D25*
X021343Y013730D02*
X021291Y013782D01*
X021443Y013864D01*
X021607Y013816D01*
X021689Y013664D01*
X021641Y013500D01*
X021489Y013418D01*
X021325Y013466D01*
X021243Y013618D01*
X021291Y013782D01*
X021357Y013728D01*
X021453Y013780D01*
X021553Y013750D01*
X021605Y013654D01*
X021575Y013554D01*
X021479Y013502D01*
X021379Y013532D01*
X021327Y013628D01*
X021357Y013728D01*
X021423Y013675D01*
X021461Y013696D01*
X021500Y013684D01*
X021521Y013646D01*
X021509Y013607D01*
X021471Y013586D01*
X021432Y013598D01*
X021411Y013636D01*
X021423Y013675D01*
X022417Y012631D02*
X022365Y012683D01*
X022517Y012765D01*
X022681Y012717D01*
X022763Y012565D01*
X022715Y012401D01*
X022563Y012319D01*
X022399Y012367D01*
X022317Y012519D01*
X022365Y012683D01*
X022431Y012629D01*
X022527Y012681D01*
X022627Y012651D01*
X022679Y012555D01*
X022649Y012455D01*
X022553Y012403D01*
X022453Y012433D01*
X022401Y012529D01*
X022431Y012629D01*
X022497Y012576D01*
X022535Y012597D01*
X022574Y012585D01*
X022595Y012547D01*
X022583Y012508D01*
X022545Y012487D01*
X022506Y012499D01*
X022485Y012537D01*
X022497Y012576D01*
X024185Y013723D02*
X024133Y013775D01*
X024285Y013857D01*
X024449Y013809D01*
X024531Y013657D01*
X024483Y013493D01*
X024331Y013411D01*
X024167Y013459D01*
X024085Y013611D01*
X024133Y013775D01*
X024199Y013721D01*
X024295Y013773D01*
X024395Y013743D01*
X024447Y013647D01*
X024417Y013547D01*
X024321Y013495D01*
X024221Y013525D01*
X024169Y013621D01*
X024199Y013721D01*
X024265Y013668D01*
X024303Y013689D01*
X024342Y013677D01*
X024363Y013639D01*
X024351Y013600D01*
X024313Y013579D01*
X024274Y013591D01*
X024253Y013629D01*
X024265Y013668D01*
X025179Y012594D02*
X025127Y012646D01*
X025279Y012728D01*
X025443Y012680D01*
X025525Y012528D01*
X025477Y012364D01*
X025325Y012282D01*
X025161Y012330D01*
X025079Y012482D01*
X025127Y012646D01*
X025193Y012592D01*
X025289Y012644D01*
X025389Y012614D01*
X025441Y012518D01*
X025411Y012418D01*
X025315Y012366D01*
X025215Y012396D01*
X025163Y012492D01*
X025193Y012592D01*
X025259Y012539D01*
X025297Y012560D01*
X025336Y012548D01*
X025357Y012510D01*
X025345Y012471D01*
X025307Y012450D01*
X025268Y012462D01*
X025247Y012500D01*
X025259Y012539D01*
X026924Y013695D02*
X026872Y013747D01*
X027024Y013829D01*
X027188Y013781D01*
X027270Y013629D01*
X027222Y013465D01*
X027070Y013383D01*
X026906Y013431D01*
X026824Y013583D01*
X026872Y013747D01*
X026938Y013693D01*
X027034Y013745D01*
X027134Y013715D01*
X027186Y013619D01*
X027156Y013519D01*
X027060Y013467D01*
X026960Y013497D01*
X026908Y013593D01*
X026938Y013693D01*
X027004Y013640D01*
X027042Y013661D01*
X027081Y013649D01*
X027102Y013611D01*
X027090Y013572D01*
X027052Y013551D01*
X027013Y013563D01*
X026992Y013601D01*
X027004Y013640D01*
X028020Y012587D02*
X027968Y012639D01*
X028120Y012721D01*
X028284Y012673D01*
X028366Y012521D01*
X028318Y012357D01*
X028166Y012275D01*
X028002Y012323D01*
X027920Y012475D01*
X027968Y012639D01*
X028034Y012585D01*
X028130Y012637D01*
X028230Y012607D01*
X028282Y012511D01*
X028252Y012411D01*
X028156Y012359D01*
X028056Y012389D01*
X028004Y012485D01*
X028034Y012585D01*
X028100Y012532D01*
X028138Y012553D01*
X028177Y012541D01*
X028198Y012503D01*
X028186Y012464D01*
X028148Y012443D01*
X028109Y012455D01*
X028088Y012493D01*
X028100Y012532D01*
X029691Y013654D02*
X029639Y013706D01*
X029791Y013788D01*
X029955Y013740D01*
X030037Y013588D01*
X029989Y013424D01*
X029837Y013342D01*
X029673Y013390D01*
X029591Y013542D01*
X029639Y013706D01*
X029705Y013652D01*
X029801Y013704D01*
X029901Y013674D01*
X029953Y013578D01*
X029923Y013478D01*
X029827Y013426D01*
X029727Y013456D01*
X029675Y013552D01*
X029705Y013652D01*
X029771Y013599D01*
X029809Y013620D01*
X029848Y013608D01*
X029869Y013570D01*
X029857Y013531D01*
X029819Y013510D01*
X029780Y013522D01*
X029759Y013560D01*
X029771Y013599D01*
X030760Y012559D02*
X030708Y012611D01*
X030860Y012693D01*
X031024Y012645D01*
X031106Y012493D01*
X031058Y012329D01*
X030906Y012247D01*
X030742Y012295D01*
X030660Y012447D01*
X030708Y012611D01*
X030774Y012557D01*
X030870Y012609D01*
X030970Y012579D01*
X031022Y012483D01*
X030992Y012383D01*
X030896Y012331D01*
X030796Y012361D01*
X030744Y012457D01*
X030774Y012557D01*
X030840Y012504D01*
X030878Y012525D01*
X030917Y012513D01*
X030938Y012475D01*
X030926Y012436D01*
X030888Y012415D01*
X030849Y012427D01*
X030828Y012465D01*
X030840Y012504D01*
X032444Y013626D02*
X032392Y013678D01*
X032544Y013760D01*
X032708Y013712D01*
X032790Y013560D01*
X032742Y013396D01*
X032590Y013314D01*
X032426Y013362D01*
X032344Y013514D01*
X032392Y013678D01*
X032458Y013624D01*
X032554Y013676D01*
X032654Y013646D01*
X032706Y013550D01*
X032676Y013450D01*
X032580Y013398D01*
X032480Y013428D01*
X032428Y013524D01*
X032458Y013624D01*
X032524Y013571D01*
X032562Y013592D01*
X032601Y013580D01*
X032622Y013542D01*
X032610Y013503D01*
X032572Y013482D01*
X032533Y013494D01*
X032512Y013532D01*
X032524Y013571D01*
X033526Y012518D02*
X033474Y012570D01*
X033626Y012652D01*
X033790Y012604D01*
X033872Y012452D01*
X033824Y012288D01*
X033672Y012206D01*
X033508Y012254D01*
X033426Y012406D01*
X033474Y012570D01*
X033540Y012516D01*
X033636Y012568D01*
X033736Y012538D01*
X033788Y012442D01*
X033758Y012342D01*
X033662Y012290D01*
X033562Y012320D01*
X033510Y012416D01*
X033540Y012516D01*
X033606Y012463D01*
X033644Y012484D01*
X033683Y012472D01*
X033704Y012434D01*
X033692Y012395D01*
X033654Y012374D01*
X033615Y012386D01*
X033594Y012424D01*
X033606Y012463D01*
X035136Y013686D02*
X035084Y013738D01*
X035236Y013820D01*
X035400Y013772D01*
X035482Y013620D01*
X035434Y013456D01*
X035282Y013374D01*
X035118Y013422D01*
X035036Y013574D01*
X035084Y013738D01*
X035150Y013684D01*
X035246Y013736D01*
X035346Y013706D01*
X035398Y013610D01*
X035368Y013510D01*
X035272Y013458D01*
X035172Y013488D01*
X035120Y013584D01*
X035150Y013684D01*
X035216Y013631D01*
X035254Y013652D01*
X035293Y013640D01*
X035314Y013602D01*
X035302Y013563D01*
X035264Y013542D01*
X035225Y013554D01*
X035204Y013592D01*
X035216Y013631D01*
X036280Y012490D02*
X036228Y012542D01*
X036380Y012624D01*
X036544Y012576D01*
X036626Y012424D01*
X036578Y012260D01*
X036426Y012178D01*
X036262Y012226D01*
X036180Y012378D01*
X036228Y012542D01*
X036294Y012488D01*
X036390Y012540D01*
X036490Y012510D01*
X036542Y012414D01*
X036512Y012314D01*
X036416Y012262D01*
X036316Y012292D01*
X036264Y012388D01*
X036294Y012488D01*
X036360Y012435D01*
X036398Y012456D01*
X036437Y012444D01*
X036458Y012406D01*
X036446Y012367D01*
X036408Y012346D01*
X036369Y012358D01*
X036348Y012396D01*
X036360Y012435D01*
X037920Y013670D02*
X037868Y013722D01*
X038020Y013804D01*
X038184Y013756D01*
X038266Y013604D01*
X038218Y013440D01*
X038066Y013358D01*
X037902Y013406D01*
X037820Y013558D01*
X037868Y013722D01*
X037934Y013668D01*
X038030Y013720D01*
X038130Y013690D01*
X038182Y013594D01*
X038152Y013494D01*
X038056Y013442D01*
X037956Y013472D01*
X037904Y013568D01*
X037934Y013668D01*
X038000Y013615D01*
X038038Y013636D01*
X038077Y013624D01*
X038098Y013586D01*
X038086Y013547D01*
X038048Y013526D01*
X038009Y013538D01*
X037988Y013576D01*
X038000Y013615D01*
X038971Y012550D02*
X038919Y012602D01*
X039071Y012684D01*
X039235Y012636D01*
X039317Y012484D01*
X039269Y012320D01*
X039117Y012238D01*
X038953Y012286D01*
X038871Y012438D01*
X038919Y012602D01*
X038985Y012548D01*
X039081Y012600D01*
X039181Y012570D01*
X039233Y012474D01*
X039203Y012374D01*
X039107Y012322D01*
X039007Y012352D01*
X038955Y012448D01*
X038985Y012548D01*
X039051Y012495D01*
X039089Y012516D01*
X039128Y012504D01*
X039149Y012466D01*
X039137Y012427D01*
X039099Y012406D01*
X039060Y012418D01*
X039039Y012456D01*
X039051Y012495D01*
X040685Y013714D02*
X040633Y013766D01*
X040785Y013848D01*
X040949Y013800D01*
X041031Y013648D01*
X040983Y013484D01*
X040831Y013402D01*
X040667Y013450D01*
X040585Y013602D01*
X040633Y013766D01*
X040699Y013712D01*
X040795Y013764D01*
X040895Y013734D01*
X040947Y013638D01*
X040917Y013538D01*
X040821Y013486D01*
X040721Y013516D01*
X040669Y013612D01*
X040699Y013712D01*
X040765Y013659D01*
X040803Y013680D01*
X040842Y013668D01*
X040863Y013630D01*
X040851Y013591D01*
X040813Y013570D01*
X040774Y013582D01*
X040753Y013620D01*
X040765Y013659D01*
X041755Y012534D02*
X041703Y012586D01*
X041855Y012668D01*
X042019Y012620D01*
X042101Y012468D01*
X042053Y012304D01*
X041901Y012222D01*
X041737Y012270D01*
X041655Y012422D01*
X041703Y012586D01*
X041769Y012532D01*
X041865Y012584D01*
X041965Y012554D01*
X042017Y012458D01*
X041987Y012358D01*
X041891Y012306D01*
X041791Y012336D01*
X041739Y012432D01*
X041769Y012532D01*
X041835Y012479D01*
X041873Y012500D01*
X041912Y012488D01*
X041933Y012450D01*
X041921Y012411D01*
X041883Y012390D01*
X041844Y012402D01*
X041823Y012440D01*
X041835Y012479D01*
X043414Y013637D02*
X043362Y013689D01*
X043514Y013771D01*
X043678Y013723D01*
X043760Y013571D01*
X043712Y013407D01*
X043560Y013325D01*
X043396Y013373D01*
X043314Y013525D01*
X043362Y013689D01*
X043428Y013635D01*
X043524Y013687D01*
X043624Y013657D01*
X043676Y013561D01*
X043646Y013461D01*
X043550Y013409D01*
X043450Y013439D01*
X043398Y013535D01*
X043428Y013635D01*
X043494Y013582D01*
X043532Y013603D01*
X043571Y013591D01*
X043592Y013553D01*
X043580Y013514D01*
X043542Y013493D01*
X043503Y013505D01*
X043482Y013543D01*
X043494Y013582D01*
X044520Y012578D02*
X044468Y012630D01*
X044620Y012712D01*
X044784Y012664D01*
X044866Y012512D01*
X044818Y012348D01*
X044666Y012266D01*
X044502Y012314D01*
X044420Y012466D01*
X044468Y012630D01*
X044534Y012576D01*
X044630Y012628D01*
X044730Y012598D01*
X044782Y012502D01*
X044752Y012402D01*
X044656Y012350D01*
X044556Y012380D01*
X044504Y012476D01*
X044534Y012576D01*
X044600Y012523D01*
X044638Y012544D01*
X044677Y012532D01*
X044698Y012494D01*
X044686Y012455D01*
X044648Y012434D01*
X044609Y012446D01*
X044588Y012484D01*
X044600Y012523D01*
X046103Y013658D02*
X046051Y013710D01*
X046203Y013792D01*
X046367Y013744D01*
X046449Y013592D01*
X046401Y013428D01*
X046249Y013346D01*
X046085Y013394D01*
X046003Y013546D01*
X046051Y013710D01*
X046117Y013656D01*
X046213Y013708D01*
X046313Y013678D01*
X046365Y013582D01*
X046335Y013482D01*
X046239Y013430D01*
X046139Y013460D01*
X046087Y013556D01*
X046117Y013656D01*
X046183Y013603D01*
X046221Y013624D01*
X046260Y013612D01*
X046281Y013574D01*
X046269Y013535D01*
X046231Y013514D01*
X046192Y013526D01*
X046171Y013564D01*
X046183Y013603D01*
X047249Y012501D02*
X047197Y012553D01*
X047349Y012635D01*
X047513Y012587D01*
X047595Y012435D01*
X047547Y012271D01*
X047395Y012189D01*
X047231Y012237D01*
X047149Y012389D01*
X047197Y012553D01*
X047263Y012499D01*
X047359Y012551D01*
X047459Y012521D01*
X047511Y012425D01*
X047481Y012325D01*
X047385Y012273D01*
X047285Y012303D01*
X047233Y012399D01*
X047263Y012499D01*
X047329Y012446D01*
X047367Y012467D01*
X047406Y012455D01*
X047427Y012417D01*
X047415Y012378D01*
X047377Y012357D01*
X047338Y012369D01*
X047317Y012407D01*
X047329Y012446D01*
X048832Y013739D02*
X048780Y013791D01*
X048932Y013873D01*
X049096Y013825D01*
X049178Y013673D01*
X049130Y013509D01*
X048978Y013427D01*
X048814Y013475D01*
X048732Y013627D01*
X048780Y013791D01*
X048846Y013737D01*
X048942Y013789D01*
X049042Y013759D01*
X049094Y013663D01*
X049064Y013563D01*
X048968Y013511D01*
X048868Y013541D01*
X048816Y013637D01*
X048846Y013737D01*
X048912Y013684D01*
X048950Y013705D01*
X048989Y013693D01*
X049010Y013655D01*
X048998Y013616D01*
X048960Y013595D01*
X048921Y013607D01*
X048900Y013645D01*
X048912Y013684D01*
X049938Y012522D02*
X049886Y012574D01*
X050038Y012656D01*
X050202Y012608D01*
X050284Y012456D01*
X050236Y012292D01*
X050084Y012210D01*
X049920Y012258D01*
X049838Y012410D01*
X049886Y012574D01*
X049952Y012520D01*
X050048Y012572D01*
X050148Y012542D01*
X050200Y012446D01*
X050170Y012346D01*
X050074Y012294D01*
X049974Y012324D01*
X049922Y012420D01*
X049952Y012520D01*
X050018Y012467D01*
X050056Y012488D01*
X050095Y012476D01*
X050116Y012438D01*
X050104Y012399D01*
X050066Y012378D01*
X050027Y012390D01*
X050006Y012428D01*
X050018Y012467D01*
X051581Y013781D02*
X051529Y013833D01*
X051681Y013915D01*
X051845Y013867D01*
X051927Y013715D01*
X051879Y013551D01*
X051727Y013469D01*
X051563Y013517D01*
X051481Y013669D01*
X051529Y013833D01*
X051595Y013779D01*
X051691Y013831D01*
X051791Y013801D01*
X051843Y013705D01*
X051813Y013605D01*
X051717Y013553D01*
X051617Y013583D01*
X051565Y013679D01*
X051595Y013779D01*
X051661Y013726D01*
X051699Y013747D01*
X051738Y013735D01*
X051759Y013697D01*
X051747Y013658D01*
X051709Y013637D01*
X051670Y013649D01*
X051649Y013687D01*
X051661Y013726D01*
X052668Y012603D02*
X052616Y012655D01*
X052768Y012737D01*
X052932Y012689D01*
X053014Y012537D01*
X052966Y012373D01*
X052814Y012291D01*
X052650Y012339D01*
X052568Y012491D01*
X052616Y012655D01*
X052682Y012601D01*
X052778Y012653D01*
X052878Y012623D01*
X052930Y012527D01*
X052900Y012427D01*
X052804Y012375D01*
X052704Y012405D01*
X052652Y012501D01*
X052682Y012601D01*
X052748Y012548D01*
X052786Y012569D01*
X052825Y012557D01*
X052846Y012519D01*
X052834Y012480D01*
X052796Y012459D01*
X052757Y012471D01*
X052736Y012509D01*
X052748Y012548D01*
X054314Y013811D02*
X054262Y013863D01*
X054414Y013945D01*
X054578Y013897D01*
X054660Y013745D01*
X054612Y013581D01*
X054460Y013499D01*
X054296Y013547D01*
X054214Y013699D01*
X054262Y013863D01*
X054328Y013809D01*
X054424Y013861D01*
X054524Y013831D01*
X054576Y013735D01*
X054546Y013635D01*
X054450Y013583D01*
X054350Y013613D01*
X054298Y013709D01*
X054328Y013809D01*
X054394Y013756D01*
X054432Y013777D01*
X054471Y013765D01*
X054492Y013727D01*
X054480Y013688D01*
X054442Y013667D01*
X054403Y013679D01*
X054382Y013717D01*
X054394Y013756D01*
X055416Y012645D02*
X055364Y012697D01*
X055516Y012779D01*
X055680Y012731D01*
X055762Y012579D01*
X055714Y012415D01*
X055562Y012333D01*
X055398Y012381D01*
X055316Y012533D01*
X055364Y012697D01*
X055430Y012643D01*
X055526Y012695D01*
X055626Y012665D01*
X055678Y012569D01*
X055648Y012469D01*
X055552Y012417D01*
X055452Y012447D01*
X055400Y012543D01*
X055430Y012643D01*
X055496Y012590D01*
X055534Y012611D01*
X055573Y012599D01*
X055594Y012561D01*
X055582Y012522D01*
X055544Y012501D01*
X055505Y012513D01*
X055484Y012551D01*
X055496Y012590D01*
X057029Y013851D02*
X056977Y013903D01*
X057129Y013985D01*
X057293Y013937D01*
X057375Y013785D01*
X057327Y013621D01*
X057175Y013539D01*
X057011Y013587D01*
X056929Y013739D01*
X056977Y013903D01*
X057043Y013849D01*
X057139Y013901D01*
X057239Y013871D01*
X057291Y013775D01*
X057261Y013675D01*
X057165Y013623D01*
X057065Y013653D01*
X057013Y013749D01*
X057043Y013849D01*
X057109Y013796D01*
X057147Y013817D01*
X057186Y013805D01*
X057207Y013767D01*
X057195Y013728D01*
X057157Y013707D01*
X057118Y013719D01*
X057097Y013757D01*
X057109Y013796D01*
X058149Y012675D02*
X058097Y012727D01*
X058249Y012809D01*
X058413Y012761D01*
X058495Y012609D01*
X058447Y012445D01*
X058295Y012363D01*
X058131Y012411D01*
X058049Y012563D01*
X058097Y012727D01*
X058163Y012673D01*
X058259Y012725D01*
X058359Y012695D01*
X058411Y012599D01*
X058381Y012499D01*
X058285Y012447D01*
X058185Y012477D01*
X058133Y012573D01*
X058163Y012673D01*
X058229Y012620D01*
X058267Y012641D01*
X058306Y012629D01*
X058327Y012591D01*
X058315Y012552D01*
X058277Y012531D01*
X058238Y012543D01*
X058217Y012581D01*
X058229Y012620D01*
X059762Y013908D02*
X059710Y013960D01*
X059862Y014042D01*
X060026Y013994D01*
X060108Y013842D01*
X060060Y013678D01*
X059908Y013596D01*
X059744Y013644D01*
X059662Y013796D01*
X059710Y013960D01*
X059776Y013906D01*
X059872Y013958D01*
X059972Y013928D01*
X060024Y013832D01*
X059994Y013732D01*
X059898Y013680D01*
X059798Y013710D01*
X059746Y013806D01*
X059776Y013906D01*
X059842Y013853D01*
X059880Y013874D01*
X059919Y013862D01*
X059940Y013824D01*
X059928Y013785D01*
X059890Y013764D01*
X059851Y013776D01*
X059830Y013814D01*
X059842Y013853D01*
X060865Y012715D02*
X060813Y012767D01*
X060965Y012849D01*
X061129Y012801D01*
X061211Y012649D01*
X061163Y012485D01*
X061011Y012403D01*
X060847Y012451D01*
X060765Y012603D01*
X060813Y012767D01*
X060879Y012713D01*
X060975Y012765D01*
X061075Y012735D01*
X061127Y012639D01*
X061097Y012539D01*
X061001Y012487D01*
X060901Y012517D01*
X060849Y012613D01*
X060879Y012713D01*
X060945Y012660D01*
X060983Y012681D01*
X061022Y012669D01*
X061043Y012631D01*
X061031Y012592D01*
X060993Y012571D01*
X060954Y012583D01*
X060933Y012621D01*
X060945Y012660D01*
X063597Y012772D02*
X063545Y012824D01*
X063697Y012906D01*
X063861Y012858D01*
X063943Y012706D01*
X063895Y012542D01*
X063743Y012460D01*
X063579Y012508D01*
X063497Y012660D01*
X063545Y012824D01*
X063611Y012770D01*
X063707Y012822D01*
X063807Y012792D01*
X063859Y012696D01*
X063829Y012596D01*
X063733Y012544D01*
X063633Y012574D01*
X063581Y012670D01*
X063611Y012770D01*
X063677Y012717D01*
X063715Y012738D01*
X063754Y012726D01*
X063775Y012688D01*
X063763Y012649D01*
X063725Y012628D01*
X063686Y012640D01*
X063665Y012678D01*
X063677Y012717D01*
X019632Y012650D02*
X019580Y012702D01*
X019731Y012785D01*
X019895Y012737D01*
X019978Y012586D01*
X019930Y012422D01*
X019779Y012339D01*
X019615Y012387D01*
X019532Y012538D01*
X019580Y012702D01*
X019646Y012649D01*
X019741Y012701D01*
X019842Y012671D01*
X019894Y012576D01*
X019864Y012475D01*
X019769Y012423D01*
X019668Y012453D01*
X019616Y012548D01*
X019646Y012649D01*
X019711Y012596D01*
X019750Y012617D01*
X019789Y012606D01*
X019810Y012567D01*
X019799Y012528D01*
X019760Y012507D01*
X019721Y012518D01*
X019700Y012557D01*
X019711Y012596D01*
X018582Y013768D02*
X018530Y013820D01*
X018682Y013902D01*
X018846Y013854D01*
X018928Y013702D01*
X018880Y013538D01*
X018728Y013456D01*
X018564Y013504D01*
X018482Y013656D01*
X018530Y013820D01*
X018596Y013766D01*
X018692Y013818D01*
X018792Y013788D01*
X018844Y013692D01*
X018814Y013592D01*
X018718Y013540D01*
X018618Y013570D01*
X018566Y013666D01*
X018596Y013766D01*
X018662Y013713D01*
X018700Y013734D01*
X018739Y013722D01*
X018760Y013684D01*
X018748Y013645D01*
X018710Y013624D01*
X018671Y013636D01*
X018650Y013674D01*
X018662Y013713D01*
X016675Y012554D02*
X016623Y012606D01*
X016776Y012685D01*
X016939Y012632D01*
X017018Y012479D01*
X016965Y012316D01*
X016812Y012237D01*
X016649Y012290D01*
X016570Y012443D01*
X016623Y012606D01*
X016687Y012551D01*
X016784Y012600D01*
X016884Y012568D01*
X016933Y012471D01*
X016901Y012371D01*
X016804Y012322D01*
X016704Y012354D01*
X016655Y012451D01*
X016687Y012551D01*
X016751Y012496D01*
X016790Y012516D01*
X016829Y012504D01*
X016849Y012465D01*
X016837Y012426D01*
X016798Y012406D01*
X016759Y012418D01*
X016739Y012457D01*
X016751Y012496D01*
X015793Y013772D02*
X015741Y013824D01*
X015892Y013907D01*
X016056Y013859D01*
X016139Y013708D01*
X016091Y013544D01*
X015940Y013461D01*
X015776Y013509D01*
X015693Y013660D01*
X015741Y013824D01*
X015807Y013771D01*
X015902Y013823D01*
X016003Y013793D01*
X016055Y013698D01*
X016025Y013597D01*
X015930Y013545D01*
X015829Y013575D01*
X015777Y013670D01*
X015807Y013771D01*
X015872Y013718D01*
X015911Y013739D01*
X015950Y013728D01*
X015971Y013689D01*
X015960Y013650D01*
X015921Y013629D01*
X015882Y013640D01*
X015861Y013679D01*
X015872Y013718D01*
X013568Y012532D02*
X013516Y012584D01*
X013669Y012664D01*
X013832Y012612D01*
X013912Y012459D01*
X013860Y012296D01*
X013707Y012216D01*
X013544Y012268D01*
X013464Y012421D01*
X013516Y012584D01*
X013581Y012529D01*
X013677Y012579D01*
X013777Y012547D01*
X013827Y012451D01*
X013795Y012351D01*
X013699Y012301D01*
X013599Y012333D01*
X013549Y012429D01*
X013581Y012529D01*
X013645Y012475D01*
X013684Y012495D01*
X013723Y012483D01*
X013743Y012444D01*
X013731Y012405D01*
X013692Y012385D01*
X013653Y012397D01*
X013633Y012436D01*
X013645Y012475D01*
X012867Y013777D02*
X012815Y013829D01*
X012968Y013908D01*
X013131Y013855D01*
X013210Y013702D01*
X013157Y013539D01*
X013004Y013460D01*
X012841Y013513D01*
X012762Y013666D01*
X012815Y013829D01*
X012879Y013774D01*
X012976Y013823D01*
X013076Y013791D01*
X013125Y013694D01*
X013093Y013594D01*
X012996Y013545D01*
X012896Y013577D01*
X012847Y013674D01*
X012879Y013774D01*
X012943Y013719D01*
X012982Y013739D01*
X013021Y013727D01*
X013041Y013688D01*
X013029Y013649D01*
X012990Y013629D01*
X012951Y013641D01*
X012931Y013680D01*
X012943Y013719D01*
X009755Y013741D02*
X009703Y013793D01*
X009856Y013873D01*
X010019Y013821D01*
X010099Y013668D01*
X010047Y013505D01*
X009894Y013425D01*
X009731Y013477D01*
X009651Y013630D01*
X009703Y013793D01*
X009768Y013738D01*
X009864Y013788D01*
X009964Y013756D01*
X010014Y013660D01*
X009982Y013560D01*
X009886Y013510D01*
X009786Y013542D01*
X009736Y013638D01*
X009768Y013738D01*
X009832Y013684D01*
X009871Y013704D01*
X009910Y013692D01*
X009930Y013653D01*
X009918Y013614D01*
X009879Y013594D01*
X009840Y013606D01*
X009820Y013645D01*
X009832Y013684D01*
D26*
X011244Y018959D03*
X013244Y018959D03*
X013244Y020959D03*
X011244Y020959D03*
X011244Y024077D03*
X013244Y024077D03*
X013244Y026077D03*
X011244Y026077D03*
X008322Y026077D03*
X006322Y026077D03*
X006322Y024077D03*
X008322Y024077D03*
X011244Y029195D03*
X013244Y029195D03*
X013244Y031195D03*
X011244Y031195D03*
X007456Y031864D03*
X005456Y031864D03*
X005456Y029864D03*
X007456Y029864D03*
X016362Y026077D03*
X018362Y026077D03*
X018362Y024077D03*
X016362Y024077D03*
D27*
X046529Y028075D03*
X054072Y026162D03*
X055009Y028682D03*
D28*
X054009Y028682D03*
X055072Y026162D03*
X046529Y029075D03*
D29*
X049084Y024658D02*
X049084Y023158D01*
X048878Y023113D01*
X049084Y023158D02*
X047584Y023158D01*
X047626Y023271D01*
X049084Y024658D02*
X052584Y024658D01*
X053084Y024158D01*
X053217Y024076D01*
X049084Y021158D02*
X048878Y021113D01*
X049084Y021158D02*
X046584Y021158D01*
X046584Y020658D01*
X046626Y020271D01*
X046584Y020158D01*
X046584Y019158D01*
X047584Y018158D01*
X047584Y016158D01*
X047084Y015658D01*
X046881Y015644D01*
X049584Y014658D02*
X049714Y014668D01*
X049584Y014658D02*
X052584Y014658D01*
X052586Y014568D01*
X056833Y015242D02*
X057084Y015158D01*
X059084Y017158D01*
X062084Y017158D01*
X062356Y017507D01*
X062584Y017658D01*
X063084Y018158D01*
X063084Y042658D01*
X056584Y042658D01*
X056334Y042767D01*
X040586Y035758D02*
X040584Y035658D01*
X040584Y032158D01*
X040835Y032263D01*
X036574Y025687D02*
X036084Y025658D01*
X035084Y024658D01*
X035084Y023158D01*
X033584Y021658D01*
X033574Y021687D01*
X033084Y021658D01*
X032084Y022658D01*
X031593Y022699D01*
X031593Y019699D02*
X032084Y019658D01*
X033084Y018658D01*
X033574Y018687D01*
X031084Y016658D02*
X031084Y014658D01*
X030584Y014658D01*
X030345Y014652D01*
X031084Y014658D02*
X033084Y014658D01*
X033181Y014663D01*
X031084Y016658D02*
X029584Y018158D01*
X029584Y017658D01*
X027584Y015658D01*
X027583Y015673D01*
X029584Y018158D02*
X029084Y018658D01*
X028593Y018699D01*
X019269Y014666D02*
X019084Y014658D01*
X016584Y014658D01*
X016333Y014555D01*
X012277Y018445D02*
X012277Y030228D01*
X013244Y031195D01*
X014556Y032507D01*
X015596Y032507D01*
X015584Y032658D01*
X020084Y037158D01*
X020084Y037658D01*
X021584Y036158D01*
X021801Y035979D01*
X022084Y036658D02*
X022584Y036158D01*
X022584Y034658D01*
X022084Y034158D01*
X021801Y033979D01*
X022084Y036658D02*
X022084Y041158D01*
X023084Y042158D01*
X023018Y042051D01*
X023084Y042158D02*
X020084Y045158D01*
X020584Y045658D01*
X020706Y045854D01*
X020084Y045158D02*
X019584Y044658D01*
X019444Y044549D01*
X019584Y044658D02*
X018584Y045658D01*
X018146Y045854D01*
X013131Y046158D02*
X013024Y046127D01*
X013131Y046158D02*
X010084Y046158D01*
X010084Y046658D01*
X010109Y046660D01*
X010084Y046158D02*
X010084Y044158D01*
X010111Y044331D01*
X009584Y043658D02*
X010084Y043158D01*
X010111Y042931D01*
X010084Y042658D01*
X010084Y040658D01*
X010084Y040126D01*
X011489Y038721D01*
X011489Y037294D01*
X011502Y037281D01*
X010084Y040658D02*
X016084Y040658D01*
X016100Y040668D01*
X016084Y040658D02*
X017084Y040658D01*
X017245Y040640D01*
X017084Y040658D02*
X020084Y037658D01*
X025584Y037158D02*
X026584Y036158D01*
X026586Y035758D01*
X025586Y035758D02*
X025584Y035658D01*
X025584Y031658D01*
X031584Y031658D01*
X031584Y033658D01*
X029584Y035658D01*
X029586Y035758D01*
X025584Y037158D02*
X025584Y041158D01*
X030584Y041158D01*
X031584Y040158D01*
X031444Y039863D01*
X032584Y041158D02*
X032584Y042658D01*
X032444Y042863D01*
X032584Y043158D01*
X033584Y044158D01*
X033584Y045158D01*
X033596Y045128D01*
X034084Y046158D02*
X034084Y049658D01*
X033584Y050158D01*
X033665Y050208D01*
X031680Y050451D02*
X031584Y050158D01*
X027584Y046158D01*
X027584Y045158D01*
X027587Y045139D01*
X032584Y041158D02*
X033584Y040158D01*
X033444Y039863D01*
X033444Y042863D02*
X033584Y043158D01*
X034084Y043658D01*
X034084Y046158D01*
X035084Y047158D01*
X035009Y047122D01*
X013131Y048158D02*
X013024Y048127D01*
X013064Y048167D01*
X013064Y050138D01*
X010084Y053119D01*
X010084Y053158D01*
X009584Y053658D01*
X009118Y053451D01*
X008584Y052658D02*
X008997Y052458D01*
X008584Y052658D02*
X007584Y052658D01*
X007626Y052647D01*
X007584Y052658D02*
X003584Y052658D01*
X003584Y050158D01*
X003188Y049782D01*
X003584Y049658D01*
X003584Y048658D01*
X004084Y048158D01*
X004368Y047812D01*
X005584Y049658D02*
X005548Y049782D01*
X005584Y049658D02*
X007084Y049658D01*
X007285Y049662D01*
X009084Y051158D02*
X008875Y051466D01*
X009084Y051158D02*
X009584Y050658D01*
X009584Y043658D01*
X010109Y048060D02*
X010084Y048158D01*
X013131Y048158D01*
X003125Y036733D02*
X003084Y036658D01*
X003084Y033158D01*
X003201Y032946D01*
X010899Y018052D02*
X011883Y018052D01*
X012277Y018445D01*
X010899Y018052D02*
X009127Y016280D01*
X003221Y016280D01*
X002828Y015886D01*
X002828Y015099D01*
X044584Y020158D02*
X044626Y020271D01*
X044584Y020158D02*
X045584Y019158D01*
X046584Y019158D01*
D30*
X047084Y021658D02*
X049584Y021658D01*
X049584Y018658D01*
X052584Y015658D01*
X052586Y015568D01*
X054437Y013722D02*
X054584Y013658D01*
X054584Y013008D01*
X057084Y013658D02*
X057152Y013762D01*
X057084Y013658D02*
X058084Y012658D01*
X058272Y012586D01*
X057084Y019158D02*
X056833Y019242D01*
X057084Y019158D02*
X057084Y020158D01*
X057099Y020453D01*
X055584Y021158D02*
X055390Y021163D01*
X055584Y021158D02*
X054084Y021158D01*
X054084Y020158D01*
X054189Y020050D01*
X054084Y020158D02*
X053084Y020158D01*
X053217Y020076D01*
X051084Y022158D02*
X051084Y023158D01*
X051081Y023134D01*
X051084Y023158D02*
X052084Y024158D01*
X052225Y024050D01*
X051084Y022158D02*
X050084Y021158D01*
X049979Y021118D01*
X047084Y021658D02*
X046084Y022658D01*
X046084Y023658D01*
X045084Y024658D01*
X045084Y025658D01*
X042584Y025658D01*
X042578Y025655D01*
X042584Y024158D02*
X042084Y024158D01*
X042084Y023158D01*
X042584Y022658D01*
X042578Y022588D01*
X042578Y023577D02*
X042584Y023658D01*
X043584Y022658D01*
X043584Y014158D01*
X044584Y014158D01*
X047084Y016658D01*
X046881Y016644D01*
X044088Y015668D02*
X044084Y015658D01*
X044084Y022658D01*
X042584Y024158D01*
X044584Y023658D02*
X044626Y023271D01*
X044584Y023658D02*
X044584Y025158D01*
X045584Y024658D02*
X046584Y023658D01*
X046626Y023271D01*
X045584Y024658D02*
X045584Y029158D01*
X041084Y033658D01*
X043084Y034658D02*
X043084Y039658D01*
X042973Y039430D01*
X043084Y039658D02*
X043084Y041158D01*
X039084Y041158D01*
X037584Y042658D01*
X037444Y042863D01*
X037084Y043658D02*
X037084Y045158D01*
X038084Y046158D01*
X051084Y046158D01*
X052084Y045158D01*
X056084Y045158D01*
X056084Y043658D01*
X056334Y043751D01*
X055084Y041158D02*
X055084Y038158D01*
X046584Y029658D01*
X046584Y029158D01*
X046529Y029075D01*
X047084Y028658D02*
X046584Y028158D01*
X046529Y028075D01*
X047084Y028658D02*
X049084Y028658D01*
X049103Y029107D01*
X050084Y029158D02*
X050103Y029107D01*
X050084Y029158D02*
X050584Y029658D01*
X050584Y031158D01*
X050627Y031044D01*
X049584Y031158D02*
X049513Y031044D01*
X049584Y031158D02*
X052084Y033658D01*
X058584Y033658D01*
X058584Y034158D01*
X059084Y034658D01*
X059399Y034784D01*
X059084Y035658D02*
X059399Y035784D01*
X059084Y035658D02*
X058584Y036158D01*
X058584Y038658D01*
X056084Y038658D01*
X049084Y031658D01*
X049084Y030658D01*
X049584Y030158D01*
X049584Y026658D01*
X049084Y026158D01*
X049103Y026107D01*
X052084Y028658D02*
X052103Y029107D01*
X052084Y028658D02*
X053584Y028658D01*
X053584Y031158D01*
X053737Y031044D01*
X055584Y031158D02*
X055737Y031044D01*
X055584Y031158D02*
X056084Y031658D01*
X056084Y032658D01*
X056009Y032422D01*
X057513Y031272D02*
X057584Y031158D01*
X058584Y030158D01*
X058584Y027158D01*
X059584Y026158D01*
X059584Y024158D01*
X059838Y023812D01*
X060584Y023658D02*
X059584Y022658D01*
X059288Y022822D01*
X059084Y023158D01*
X057084Y025158D01*
X057084Y026158D01*
X056903Y026516D01*
X056584Y026658D01*
X056584Y027158D01*
X055084Y028658D01*
X055009Y028682D01*
X054084Y028658D02*
X054009Y028682D01*
X054084Y028658D02*
X053584Y028658D01*
X051084Y034658D02*
X043084Y034658D01*
X040584Y036658D02*
X040584Y040658D01*
X037584Y040658D01*
X035584Y042658D01*
X035444Y042863D01*
X036444Y042863D02*
X036584Y043158D01*
X037084Y043658D01*
X037584Y045158D02*
X039584Y043158D01*
X039444Y042863D01*
X039444Y039863D02*
X039584Y039658D01*
X040084Y039158D01*
X040084Y020158D01*
X041584Y020658D02*
X042584Y021658D01*
X042578Y021599D01*
X042584Y020658D02*
X042578Y020610D01*
X042584Y020658D02*
X042084Y020158D01*
X042084Y016158D01*
X041084Y016158D01*
X040584Y015658D01*
X038584Y015658D01*
X038738Y015668D01*
X038584Y015158D02*
X042584Y015158D01*
X042584Y018658D01*
X042578Y018632D01*
X043084Y019158D02*
X042584Y019658D01*
X042578Y019621D01*
X043084Y019158D02*
X043084Y014158D01*
X038584Y014158D01*
X036084Y016658D01*
X036003Y016654D01*
X035584Y018158D02*
X038084Y018158D01*
X038084Y015658D01*
X038584Y015158D01*
X040808Y013625D02*
X041084Y013658D01*
X041084Y012958D01*
X041374Y016673D02*
X041584Y016658D01*
X041584Y020658D01*
X038084Y024658D02*
X038084Y025158D01*
X038584Y025658D01*
X038578Y025655D01*
X038084Y024658D02*
X036584Y024658D01*
X036574Y024687D01*
X034584Y023158D02*
X034584Y034658D01*
X035084Y035158D01*
X035084Y039158D01*
X035584Y039658D01*
X035444Y039863D01*
X036444Y039863D02*
X036584Y039658D01*
X035584Y038658D01*
X035584Y038158D01*
X036084Y038158D02*
X036084Y034658D01*
X036586Y035758D02*
X036584Y036158D01*
X039084Y038658D01*
X039584Y038158D02*
X037584Y036158D01*
X037586Y035758D01*
X036084Y038158D02*
X037584Y039658D01*
X037444Y039863D01*
X032584Y039658D02*
X032584Y038158D01*
X032528Y037775D01*
X032084Y037158D02*
X030584Y038658D01*
X030584Y039658D01*
X030444Y039863D01*
X029584Y039658D02*
X029444Y039863D01*
X029584Y039658D02*
X029584Y038658D01*
X031584Y036658D01*
X032084Y037158D02*
X032084Y032658D01*
X034084Y030658D01*
X031084Y032158D02*
X029084Y034158D01*
X029084Y039158D01*
X028584Y039658D01*
X028444Y039863D01*
X028084Y039158D02*
X028084Y034658D01*
X027084Y034658D02*
X027084Y039158D01*
X026584Y039658D01*
X026444Y039863D01*
X027444Y039863D02*
X027584Y039658D01*
X028084Y039158D01*
X030584Y041658D02*
X029584Y042658D01*
X029444Y042863D01*
X028584Y043158D02*
X028444Y042863D01*
X028584Y043158D02*
X029584Y044158D01*
X030084Y043658D02*
X030084Y045158D01*
X029584Y045658D01*
X029574Y046096D01*
X031574Y046096D02*
X031584Y045658D01*
X031584Y043158D01*
X031444Y042863D01*
X030584Y043158D02*
X030444Y042863D01*
X030584Y043158D02*
X030084Y043658D01*
X027584Y043158D02*
X027444Y042863D01*
X027584Y043158D02*
X024584Y046158D01*
X023584Y046158D01*
X023584Y038158D01*
X025084Y041158D02*
X025084Y031158D01*
X031084Y025158D01*
X032584Y025158D01*
X032584Y024158D01*
X033084Y023658D01*
X033574Y023687D01*
X033084Y023158D02*
X034584Y023158D01*
X033084Y023158D02*
X032584Y023658D01*
X032084Y023658D01*
X031593Y023699D01*
X030584Y024658D02*
X030584Y022658D01*
X031584Y021658D01*
X031593Y021699D01*
X030584Y024658D02*
X024584Y030658D01*
X024584Y042658D01*
X026584Y042658D01*
X026444Y042863D01*
X026084Y042158D02*
X025084Y041158D01*
X024018Y042051D02*
X024084Y042158D01*
X024084Y045658D01*
X020706Y047634D02*
X020584Y047658D01*
X018584Y047658D01*
X018146Y047634D01*
X018084Y047658D01*
X017084Y046658D01*
X017084Y045658D01*
X016084Y044658D01*
X016100Y044668D01*
X009914Y038524D02*
X009584Y038658D01*
X008584Y038658D01*
X008695Y038813D01*
X008584Y038658D02*
X008084Y038658D01*
X004584Y035158D01*
X004405Y034883D01*
X007584Y034158D02*
X007584Y032158D01*
X007456Y031864D01*
X005456Y029864D02*
X005584Y029658D01*
X005584Y029158D01*
X011084Y029158D01*
X011244Y029195D01*
X013084Y026158D02*
X013244Y026077D01*
X013084Y026158D02*
X015584Y028658D01*
X015596Y028507D01*
X015584Y028658D02*
X017084Y028658D01*
X016846Y028533D01*
X018362Y026077D02*
X018584Y026158D01*
X021084Y028658D01*
X020846Y028533D01*
X022589Y023718D02*
X022584Y023658D01*
X019084Y020158D01*
X019084Y018158D01*
X016584Y015658D01*
X016333Y015555D01*
X019084Y015658D02*
X019269Y015666D01*
X019084Y015658D02*
X019584Y016158D01*
X019584Y019658D01*
X022584Y022658D01*
X022589Y022729D01*
X022589Y021740D02*
X022584Y021658D01*
X022084Y021158D01*
X022084Y016658D01*
X022162Y016654D01*
X023084Y017658D02*
X023084Y020158D01*
X022584Y020658D01*
X022589Y020751D01*
X023084Y017658D02*
X025084Y015658D01*
X024987Y015652D01*
X021584Y013658D02*
X021584Y012958D01*
X021466Y013641D02*
X021584Y013658D01*
X011244Y018959D02*
X011084Y019158D01*
X010584Y019158D01*
X010584Y023658D01*
X011084Y024158D01*
X011244Y024077D01*
X009084Y025658D02*
X009084Y021658D01*
X008891Y021752D01*
X010584Y019158D02*
X006584Y019158D01*
X006584Y024158D01*
X006322Y024077D01*
X006084Y024158D01*
X005584Y024658D01*
X005584Y029158D01*
X008322Y026077D02*
X008584Y026158D01*
X009084Y025658D01*
X011184Y034011D02*
X011084Y034158D01*
X007584Y034158D01*
X006075Y040540D02*
X005584Y040658D01*
X003584Y042658D01*
X003584Y045158D01*
X003084Y045658D01*
X002846Y045760D01*
X032444Y039863D02*
X032584Y039658D01*
X036329Y047135D02*
X036584Y047158D01*
X036584Y049658D01*
X036643Y049842D01*
X055084Y041158D02*
X060084Y041158D01*
X060584Y040658D01*
X060584Y038658D01*
X059584Y037658D01*
X059399Y037737D01*
X059084Y038658D02*
X058584Y038658D01*
X059084Y038658D02*
X059399Y038737D01*
X056268Y037204D02*
X056084Y037158D01*
X056084Y035658D01*
X056246Y035831D01*
X061098Y026682D02*
X061084Y026658D01*
X060584Y026158D01*
X060584Y023658D01*
X045584Y031158D02*
X045513Y031044D01*
X045584Y031158D02*
X044584Y031158D01*
X044438Y031083D01*
X035584Y018158D02*
X033084Y015658D01*
X033181Y015663D01*
X035084Y013658D02*
X035259Y013597D01*
X035084Y013658D02*
X035084Y013158D01*
X035184Y013008D01*
D31*
X040084Y020158D03*
X044584Y025158D03*
X041084Y033658D03*
X040584Y036658D03*
X039584Y038158D03*
X039084Y038658D03*
X035584Y038158D03*
X036084Y034658D03*
X034084Y030658D03*
X031084Y032158D03*
X028084Y034658D03*
X027084Y034658D03*
X023584Y038158D03*
X026084Y042158D03*
X029584Y044158D03*
X030584Y041658D03*
X031584Y036658D03*
X037584Y045158D03*
X024084Y045658D03*
X051084Y034658D03*
D32*
X051450Y027107D02*
X051056Y026713D01*
X051056Y026060D01*
X051103Y026107D01*
X051056Y026060D02*
X051056Y025926D01*
X051450Y027107D02*
X055780Y027107D01*
X009118Y053451D02*
X008240Y053451D01*
X007784Y053907D01*
D33*
X004405Y034883D02*
X004405Y018054D01*
X002434Y016674D01*
X003584Y014158D02*
X007184Y014158D01*
X007684Y013658D01*
X003884Y009858D01*
X002187Y011376D01*
X002187Y011761D01*
X002249Y011823D01*
X002249Y011668D01*
X002773Y011668D01*
X002773Y011548D01*
X002249Y011548D01*
X002249Y011366D01*
X002591Y011023D01*
X002774Y011023D01*
X002774Y011548D01*
X002894Y011548D01*
X002894Y011668D01*
X003419Y011668D01*
X003419Y011850D01*
X003076Y012193D01*
X002894Y012193D01*
X002894Y011668D01*
X002774Y011668D01*
X002774Y012193D01*
X002619Y012193D01*
X004084Y013658D01*
X003584Y014158D01*
X003640Y014102D02*
X007240Y014102D01*
X007358Y013983D02*
X003758Y013983D01*
X003877Y013865D02*
X007477Y013865D01*
X007596Y013746D02*
X003996Y013746D01*
X004053Y013627D02*
X007653Y013627D01*
X007535Y013509D02*
X003935Y013509D01*
X003816Y013390D02*
X007416Y013390D01*
X007298Y013272D02*
X003698Y013272D01*
X003579Y013153D02*
X007179Y013153D01*
X007060Y013035D02*
X003460Y013035D01*
X003342Y012916D02*
X006942Y012916D01*
X006823Y012798D02*
X003223Y012798D01*
X003105Y012679D02*
X006705Y012679D01*
X006586Y012561D02*
X002986Y012561D01*
X002868Y012442D02*
X006468Y012442D01*
X006349Y012324D02*
X002749Y012324D01*
X002631Y012205D02*
X006231Y012205D01*
X006112Y012086D02*
X003182Y012086D01*
X003301Y011968D02*
X005994Y011968D01*
X005875Y011849D02*
X003419Y011849D01*
X003419Y011731D02*
X005756Y011731D01*
X005638Y011612D02*
X002894Y011612D01*
X002894Y011548D02*
X003419Y011548D01*
X003419Y011366D01*
X003076Y011023D01*
X002894Y011023D01*
X002894Y011548D01*
X002894Y011494D02*
X002774Y011494D01*
X002773Y011612D02*
X002187Y011612D01*
X002187Y011494D02*
X002249Y011494D01*
X002249Y011375D02*
X002188Y011375D01*
X002320Y011257D02*
X002358Y011257D01*
X002453Y011138D02*
X002476Y011138D01*
X002585Y011020D02*
X005045Y011020D01*
X005164Y011138D02*
X003191Y011138D01*
X003310Y011257D02*
X005282Y011257D01*
X005401Y011375D02*
X003419Y011375D01*
X003419Y011494D02*
X005519Y011494D01*
X005732Y011257D02*
X008334Y011257D01*
X008334Y011375D02*
X005851Y011375D01*
X005969Y011494D02*
X008334Y011494D01*
X008334Y011612D02*
X006088Y011612D01*
X006206Y011731D02*
X008334Y011731D01*
X008334Y011849D02*
X006325Y011849D01*
X006444Y011968D02*
X008334Y011968D01*
X008334Y012086D02*
X006562Y012086D01*
X006681Y012205D02*
X008334Y012205D01*
X008334Y012324D02*
X006799Y012324D01*
X006918Y012442D02*
X008334Y012442D01*
X008334Y012561D02*
X007036Y012561D01*
X007155Y012679D02*
X008334Y012679D01*
X008334Y012798D02*
X007273Y012798D01*
X007392Y012916D02*
X008334Y012916D01*
X008334Y013035D02*
X007510Y013035D01*
X007629Y013153D02*
X008238Y013153D01*
X008334Y013058D02*
X008334Y008708D01*
X007484Y007858D01*
X006234Y007858D01*
X004758Y009123D01*
X008334Y009123D01*
X008334Y009241D02*
X005294Y009241D01*
X005176Y009123D02*
X005519Y009466D01*
X005519Y009648D01*
X004994Y009648D01*
X004994Y009768D01*
X005519Y009768D01*
X005519Y009950D01*
X005176Y010293D01*
X004994Y010293D01*
X004994Y009768D01*
X004874Y009768D01*
X004874Y010293D01*
X004769Y010293D01*
X007934Y013458D01*
X008334Y013058D01*
X008120Y013272D02*
X007748Y013272D01*
X007866Y013390D02*
X008001Y013390D01*
X008296Y013746D02*
X009466Y013746D01*
X009469Y013757D02*
X009422Y013610D01*
X009583Y013301D01*
X009729Y013255D01*
X009850Y013636D01*
X009469Y013757D01*
X009504Y013746D02*
X009636Y013746D01*
X009481Y013795D02*
X009862Y013674D01*
X009850Y013636D01*
X009888Y013624D01*
X009767Y013243D01*
X009914Y013196D01*
X010223Y013356D01*
X010270Y013503D01*
X009889Y013624D01*
X009901Y013662D01*
X010282Y013541D01*
X010328Y013688D01*
X010168Y013997D01*
X010021Y014043D01*
X009901Y013662D01*
X009862Y013674D01*
X009983Y014055D01*
X009837Y014102D01*
X009528Y013942D01*
X009481Y013795D01*
X009503Y013865D02*
X008177Y013865D01*
X008058Y013983D02*
X009607Y013983D01*
X009836Y014102D02*
X007940Y014102D01*
X007884Y014158D02*
X010634Y014158D01*
X010634Y008608D01*
X011534Y007708D01*
X012784Y007708D01*
X012784Y002658D01*
X009934Y002658D01*
X008784Y003808D01*
X008784Y013258D01*
X007884Y014158D01*
X008414Y013627D02*
X009428Y013627D01*
X009475Y013509D02*
X008533Y013509D01*
X008651Y013390D02*
X009536Y013390D01*
X009676Y013272D02*
X008770Y013272D01*
X008784Y013153D02*
X010634Y013153D01*
X010634Y013035D02*
X008784Y013035D01*
X008784Y012916D02*
X010634Y012916D01*
X010634Y012798D02*
X008784Y012798D01*
X008784Y012679D02*
X010634Y012679D01*
X010634Y012561D02*
X008784Y012561D01*
X008784Y012442D02*
X010634Y012442D01*
X010634Y012324D02*
X008784Y012324D01*
X008784Y012205D02*
X010634Y012205D01*
X010634Y012086D02*
X008784Y012086D01*
X008784Y011968D02*
X010634Y011968D01*
X010634Y011849D02*
X008784Y011849D01*
X008784Y011731D02*
X010634Y011731D01*
X010634Y011612D02*
X008784Y011612D01*
X008784Y011494D02*
X010634Y011494D01*
X010634Y011375D02*
X008784Y011375D01*
X008784Y011257D02*
X010634Y011257D01*
X010634Y011138D02*
X008784Y011138D01*
X008784Y011020D02*
X010634Y011020D01*
X010634Y010901D02*
X008784Y010901D01*
X008784Y010782D02*
X010634Y010782D01*
X010634Y010664D02*
X008784Y010664D01*
X008784Y010545D02*
X010634Y010545D01*
X010634Y010427D02*
X008784Y010427D01*
X008784Y010308D02*
X010634Y010308D01*
X010634Y010190D02*
X008784Y010190D01*
X008784Y010071D02*
X010634Y010071D01*
X010634Y009953D02*
X008784Y009953D01*
X008784Y009834D02*
X010634Y009834D01*
X010634Y009716D02*
X008784Y009716D01*
X008784Y009597D02*
X010634Y009597D01*
X010634Y009478D02*
X008784Y009478D01*
X008784Y009360D02*
X010634Y009360D01*
X010634Y009241D02*
X008784Y009241D01*
X008784Y009123D02*
X010634Y009123D01*
X010634Y009004D02*
X008784Y009004D01*
X008784Y008886D02*
X010634Y008886D01*
X010634Y008767D02*
X008784Y008767D01*
X008784Y008649D02*
X010634Y008649D01*
X010711Y008530D02*
X008784Y008530D01*
X008784Y008412D02*
X010830Y008412D01*
X010949Y008293D02*
X008784Y008293D01*
X008784Y008174D02*
X011067Y008174D01*
X011186Y008056D02*
X008784Y008056D01*
X008784Y007937D02*
X011304Y007937D01*
X011423Y007819D02*
X008784Y007819D01*
X008784Y007700D02*
X012784Y007700D01*
X012784Y007582D02*
X008784Y007582D01*
X008784Y007463D02*
X012784Y007463D01*
X012784Y007345D02*
X008784Y007345D01*
X008784Y007226D02*
X012784Y007226D01*
X012784Y007108D02*
X008784Y007108D01*
X008784Y006989D02*
X012784Y006989D01*
X012784Y006871D02*
X008784Y006871D01*
X008784Y006752D02*
X012784Y006752D01*
X012784Y006633D02*
X008784Y006633D01*
X008784Y006515D02*
X012784Y006515D01*
X012784Y006396D02*
X008784Y006396D01*
X008784Y006278D02*
X012784Y006278D01*
X012784Y006159D02*
X008784Y006159D01*
X008784Y006041D02*
X012784Y006041D01*
X012784Y005922D02*
X008784Y005922D01*
X008784Y005804D02*
X012784Y005804D01*
X012784Y005685D02*
X008784Y005685D01*
X008784Y005567D02*
X012784Y005567D01*
X012784Y005448D02*
X008784Y005448D01*
X008784Y005329D02*
X012784Y005329D01*
X012784Y005211D02*
X008784Y005211D01*
X008784Y005092D02*
X012784Y005092D01*
X012784Y004974D02*
X008784Y004974D01*
X008784Y004855D02*
X012784Y004855D01*
X012784Y004737D02*
X008784Y004737D01*
X008784Y004618D02*
X012784Y004618D01*
X012784Y004500D02*
X008784Y004500D01*
X008784Y004381D02*
X012784Y004381D01*
X012784Y004263D02*
X008784Y004263D01*
X008784Y004144D02*
X012784Y004144D01*
X012784Y004025D02*
X008784Y004025D01*
X008784Y003907D02*
X012784Y003907D01*
X012784Y003788D02*
X008803Y003788D01*
X008922Y003670D02*
X012784Y003670D01*
X012784Y003551D02*
X009040Y003551D01*
X009159Y003433D02*
X012784Y003433D01*
X012784Y003314D02*
X009277Y003314D01*
X009396Y003196D02*
X012784Y003196D01*
X012784Y003077D02*
X009514Y003077D01*
X009633Y002959D02*
X012784Y002959D01*
X012784Y002840D02*
X009752Y002840D01*
X009870Y002721D02*
X012784Y002721D01*
X013084Y002721D02*
X017634Y002721D01*
X017634Y002658D02*
X013084Y002658D01*
X013084Y007708D01*
X014434Y007708D01*
X015334Y008608D01*
X015334Y014158D01*
X016165Y014158D01*
X016168Y014155D01*
X016499Y014155D01*
X016502Y014158D01*
X017634Y014158D01*
X017634Y002658D01*
X017634Y002840D02*
X013084Y002840D01*
X013084Y002959D02*
X017634Y002959D01*
X017634Y003077D02*
X013084Y003077D01*
X013084Y003196D02*
X017634Y003196D01*
X017634Y003314D02*
X013084Y003314D01*
X013084Y003433D02*
X017634Y003433D01*
X017634Y003551D02*
X013084Y003551D01*
X013084Y003670D02*
X017634Y003670D01*
X017634Y003788D02*
X013084Y003788D01*
X013084Y003907D02*
X017634Y003907D01*
X017634Y004025D02*
X013084Y004025D01*
X013084Y004144D02*
X017634Y004144D01*
X017634Y004263D02*
X013084Y004263D01*
X013084Y004381D02*
X017634Y004381D01*
X017634Y004500D02*
X013084Y004500D01*
X013084Y004618D02*
X017634Y004618D01*
X017634Y004737D02*
X013084Y004737D01*
X013084Y004855D02*
X017634Y004855D01*
X017634Y004974D02*
X013084Y004974D01*
X013084Y005092D02*
X017634Y005092D01*
X017634Y005211D02*
X013084Y005211D01*
X013084Y005329D02*
X017634Y005329D01*
X017634Y005448D02*
X013084Y005448D01*
X013084Y005567D02*
X017634Y005567D01*
X017634Y005685D02*
X013084Y005685D01*
X013084Y005804D02*
X017634Y005804D01*
X017634Y005922D02*
X013084Y005922D01*
X013084Y006041D02*
X017634Y006041D01*
X017634Y006159D02*
X013084Y006159D01*
X013084Y006278D02*
X017634Y006278D01*
X017634Y006396D02*
X013084Y006396D01*
X013084Y006515D02*
X017634Y006515D01*
X017634Y006633D02*
X013084Y006633D01*
X013084Y006752D02*
X017634Y006752D01*
X017634Y006871D02*
X013084Y006871D01*
X013084Y006989D02*
X017634Y006989D01*
X017634Y007108D02*
X013084Y007108D01*
X013084Y007226D02*
X017634Y007226D01*
X017634Y007345D02*
X013084Y007345D01*
X013084Y007463D02*
X017634Y007463D01*
X017634Y007582D02*
X013084Y007582D01*
X013084Y007700D02*
X017634Y007700D01*
X017634Y007819D02*
X014545Y007819D01*
X014663Y007937D02*
X017634Y007937D01*
X017634Y008056D02*
X014782Y008056D01*
X014900Y008174D02*
X017634Y008174D01*
X017634Y008293D02*
X015019Y008293D01*
X015137Y008412D02*
X017634Y008412D01*
X017634Y008530D02*
X015256Y008530D01*
X015334Y008649D02*
X017634Y008649D01*
X017634Y008767D02*
X015334Y008767D01*
X015334Y008886D02*
X017634Y008886D01*
X017634Y009004D02*
X015334Y009004D01*
X015334Y009123D02*
X017634Y009123D01*
X017634Y009241D02*
X015334Y009241D01*
X015334Y009360D02*
X017634Y009360D01*
X017634Y009478D02*
X015334Y009478D01*
X015334Y009597D02*
X017634Y009597D01*
X017634Y009716D02*
X015334Y009716D01*
X015334Y009834D02*
X017634Y009834D01*
X017634Y009953D02*
X015334Y009953D01*
X015334Y010071D02*
X017634Y010071D01*
X017634Y010190D02*
X015334Y010190D01*
X015334Y010308D02*
X017634Y010308D01*
X017634Y010427D02*
X015334Y010427D01*
X015334Y010545D02*
X017634Y010545D01*
X017634Y010664D02*
X015334Y010664D01*
X015334Y010782D02*
X017634Y010782D01*
X017634Y010901D02*
X015334Y010901D01*
X015334Y011020D02*
X017634Y011020D01*
X017634Y011138D02*
X015334Y011138D01*
X015334Y011257D02*
X017634Y011257D01*
X017634Y011375D02*
X015334Y011375D01*
X015334Y011494D02*
X017634Y011494D01*
X017634Y011612D02*
X015334Y011612D01*
X015334Y011731D02*
X017634Y011731D01*
X017634Y011849D02*
X015334Y011849D01*
X015334Y011968D02*
X017634Y011968D01*
X017634Y012086D02*
X016984Y012086D01*
X016831Y012008D02*
X017141Y012167D01*
X017188Y012313D01*
X016807Y012436D01*
X016807Y012435D02*
X016685Y012055D01*
X016831Y012008D01*
X016695Y012086D02*
X016653Y012086D01*
X016647Y012067D02*
X016500Y012114D01*
X016341Y012424D01*
X016388Y012570D01*
X016769Y012448D01*
X016781Y012486D01*
X016400Y012608D01*
X016448Y012755D01*
X016757Y012914D01*
X016904Y012867D01*
X016781Y012486D01*
X016819Y012474D01*
X016942Y012855D01*
X017088Y012807D01*
X017247Y012498D01*
X017200Y012351D01*
X016820Y012474D01*
X016807Y012436D01*
X016807Y012435D02*
X016769Y012448D01*
X016647Y012067D01*
X016586Y012086D02*
X015334Y012086D01*
X015334Y012205D02*
X016454Y012205D01*
X016393Y012324D02*
X015334Y012324D01*
X015334Y012442D02*
X016347Y012442D01*
X016385Y012561D02*
X015334Y012561D01*
X015334Y012679D02*
X016423Y012679D01*
X016418Y012561D02*
X016549Y012561D01*
X016531Y012798D02*
X015334Y012798D01*
X015334Y012916D02*
X017634Y012916D01*
X017634Y012798D02*
X017093Y012798D01*
X017154Y012679D02*
X017634Y012679D01*
X017634Y012561D02*
X017215Y012561D01*
X017229Y012442D02*
X017634Y012442D01*
X017634Y012324D02*
X017156Y012324D01*
X017153Y012205D02*
X017634Y012205D01*
X017934Y012205D02*
X019478Y012205D01*
X019470Y012207D02*
X019618Y012164D01*
X019730Y012548D01*
X019346Y012660D01*
X019303Y012512D01*
X019470Y012207D01*
X019407Y012324D02*
X017934Y012324D01*
X017934Y012442D02*
X019342Y012442D01*
X019317Y012561D02*
X017934Y012561D01*
X017934Y012679D02*
X019424Y012679D01*
X019358Y012699D02*
X019741Y012586D01*
X019730Y012548D01*
X019769Y012536D01*
X019769Y012537D02*
X019780Y012575D01*
X020164Y012463D01*
X020207Y012611D01*
X020040Y012916D01*
X019892Y012959D01*
X019780Y012575D01*
X019742Y012587D01*
X019854Y012970D01*
X019706Y013013D01*
X019401Y012846D01*
X019358Y012699D01*
X019387Y012798D02*
X017934Y012798D01*
X017934Y012916D02*
X019529Y012916D01*
X019803Y012798D02*
X019845Y012798D01*
X019838Y012916D02*
X019880Y012916D01*
X020038Y012916D02*
X020284Y012916D01*
X020284Y012798D02*
X020105Y012798D01*
X020169Y012679D02*
X020284Y012679D01*
X020284Y012561D02*
X020192Y012561D01*
X020153Y012424D02*
X019769Y012537D01*
X019769Y012536D02*
X019656Y012153D01*
X019804Y012110D01*
X020109Y012277D01*
X020153Y012424D01*
X020092Y012442D02*
X020284Y012442D01*
X020284Y012324D02*
X020123Y012324D01*
X019978Y012205D02*
X020284Y012205D01*
X020284Y012086D02*
X017934Y012086D01*
X017934Y011968D02*
X020284Y011968D01*
X020284Y011849D02*
X017934Y011849D01*
X017934Y011731D02*
X020284Y011731D01*
X020284Y011612D02*
X017934Y011612D01*
X017934Y011494D02*
X020284Y011494D01*
X020284Y011375D02*
X017934Y011375D01*
X017934Y011257D02*
X020284Y011257D01*
X020284Y011138D02*
X017934Y011138D01*
X017934Y011020D02*
X020284Y011020D01*
X020284Y010901D02*
X017934Y010901D01*
X017934Y010782D02*
X020284Y010782D01*
X020284Y010664D02*
X017934Y010664D01*
X017934Y010545D02*
X020284Y010545D01*
X020284Y010427D02*
X017934Y010427D01*
X017934Y010308D02*
X020284Y010308D01*
X020284Y010190D02*
X017934Y010190D01*
X017934Y010071D02*
X020284Y010071D01*
X020284Y009953D02*
X017934Y009953D01*
X017934Y009834D02*
X020284Y009834D01*
X020284Y009716D02*
X017934Y009716D01*
X017934Y009597D02*
X020284Y009597D01*
X020284Y009478D02*
X017934Y009478D01*
X017934Y009360D02*
X020284Y009360D01*
X020284Y009241D02*
X017934Y009241D01*
X017934Y009123D02*
X020284Y009123D01*
X020284Y009004D02*
X017934Y009004D01*
X017934Y008886D02*
X020284Y008886D01*
X020284Y008767D02*
X017934Y008767D01*
X017934Y008649D02*
X020284Y008649D01*
X020284Y008558D02*
X021234Y007708D01*
X022534Y007708D01*
X022534Y002658D01*
X017934Y002658D01*
X017934Y014158D01*
X020284Y014158D01*
X020284Y008558D01*
X020315Y008530D02*
X017934Y008530D01*
X017934Y008412D02*
X020447Y008412D01*
X020580Y008293D02*
X017934Y008293D01*
X017934Y008174D02*
X020712Y008174D01*
X020845Y008056D02*
X017934Y008056D01*
X017934Y007937D02*
X020977Y007937D01*
X021110Y007819D02*
X017934Y007819D01*
X017934Y007700D02*
X022534Y007700D01*
X022534Y007582D02*
X017934Y007582D01*
X017934Y007463D02*
X022534Y007463D01*
X022534Y007345D02*
X017934Y007345D01*
X017934Y007226D02*
X022534Y007226D01*
X022534Y007108D02*
X017934Y007108D01*
X017934Y006989D02*
X022534Y006989D01*
X022534Y006871D02*
X017934Y006871D01*
X017934Y006752D02*
X022534Y006752D01*
X022534Y006633D02*
X017934Y006633D01*
X017934Y006515D02*
X022534Y006515D01*
X022534Y006396D02*
X017934Y006396D01*
X017934Y006278D02*
X022534Y006278D01*
X022534Y006159D02*
X017934Y006159D01*
X017934Y006041D02*
X022534Y006041D01*
X022534Y005922D02*
X017934Y005922D01*
X017934Y005804D02*
X022534Y005804D01*
X022534Y005685D02*
X017934Y005685D01*
X017934Y005567D02*
X022534Y005567D01*
X022534Y005448D02*
X017934Y005448D01*
X017934Y005329D02*
X022534Y005329D01*
X022534Y005211D02*
X017934Y005211D01*
X017934Y005092D02*
X022534Y005092D01*
X022534Y004974D02*
X017934Y004974D01*
X017934Y004855D02*
X022534Y004855D01*
X022534Y004737D02*
X017934Y004737D01*
X017934Y004618D02*
X022534Y004618D01*
X022534Y004500D02*
X017934Y004500D01*
X017934Y004381D02*
X022534Y004381D01*
X022534Y004263D02*
X017934Y004263D01*
X017934Y004144D02*
X022534Y004144D01*
X022534Y004025D02*
X017934Y004025D01*
X017934Y003907D02*
X022534Y003907D01*
X022534Y003788D02*
X017934Y003788D01*
X017934Y003670D02*
X022534Y003670D01*
X022534Y003551D02*
X017934Y003551D01*
X017934Y003433D02*
X022534Y003433D01*
X022534Y003314D02*
X017934Y003314D01*
X017934Y003196D02*
X022534Y003196D01*
X022534Y003077D02*
X017934Y003077D01*
X017934Y002959D02*
X022534Y002959D01*
X022534Y002840D02*
X017934Y002840D01*
X017934Y002721D02*
X022534Y002721D01*
X022834Y002721D02*
X027034Y002721D01*
X027034Y002658D02*
X022834Y002658D01*
X022834Y007708D01*
X024184Y007708D01*
X024984Y008458D01*
X025834Y007708D01*
X027034Y007708D01*
X027034Y002658D01*
X027034Y002840D02*
X022834Y002840D01*
X022834Y002959D02*
X023252Y002959D01*
X023309Y002901D02*
X023492Y002901D01*
X023492Y003426D01*
X023612Y003426D01*
X023612Y003546D01*
X024137Y003546D01*
X024137Y003728D01*
X023794Y004071D01*
X023612Y004071D01*
X023612Y003546D01*
X023492Y003546D01*
X023492Y004071D01*
X023309Y004071D01*
X022967Y003728D01*
X022967Y003546D01*
X023491Y003546D01*
X023491Y003426D01*
X022967Y003426D01*
X022967Y003244D01*
X023309Y002901D01*
X023492Y002959D02*
X023612Y002959D01*
X023612Y002901D02*
X023794Y002901D01*
X024137Y003244D01*
X024137Y003426D01*
X023612Y003426D01*
X023612Y002901D01*
X023612Y003077D02*
X023492Y003077D01*
X023492Y003196D02*
X023612Y003196D01*
X023612Y003314D02*
X023492Y003314D01*
X023491Y003433D02*
X022834Y003433D01*
X022834Y003551D02*
X022967Y003551D01*
X022967Y003670D02*
X022834Y003670D01*
X022834Y003788D02*
X023027Y003788D01*
X023145Y003907D02*
X022834Y003907D01*
X022834Y004025D02*
X023264Y004025D01*
X023492Y004025D02*
X023612Y004025D01*
X023612Y003907D02*
X023492Y003907D01*
X023492Y003788D02*
X023612Y003788D01*
X023612Y003670D02*
X023492Y003670D01*
X023492Y003551D02*
X023612Y003551D01*
X023612Y003433D02*
X027034Y003433D01*
X027034Y003551D02*
X024137Y003551D01*
X024137Y003670D02*
X027034Y003670D01*
X027034Y003788D02*
X024076Y003788D01*
X023958Y003907D02*
X027034Y003907D01*
X027034Y004025D02*
X023839Y004025D01*
X022834Y004144D02*
X027034Y004144D01*
X027034Y004263D02*
X022834Y004263D01*
X022834Y004381D02*
X027034Y004381D01*
X027034Y004500D02*
X022834Y004500D01*
X022834Y004618D02*
X027034Y004618D01*
X027034Y004737D02*
X022834Y004737D01*
X022834Y004855D02*
X027034Y004855D01*
X027034Y004974D02*
X022834Y004974D01*
X022834Y005092D02*
X027034Y005092D01*
X027034Y005211D02*
X022834Y005211D01*
X022834Y005329D02*
X027034Y005329D01*
X027034Y005448D02*
X022834Y005448D01*
X022834Y005567D02*
X027034Y005567D01*
X027034Y005685D02*
X022834Y005685D01*
X022834Y005804D02*
X027034Y005804D01*
X027034Y005922D02*
X022834Y005922D01*
X022834Y006041D02*
X027034Y006041D01*
X027034Y006159D02*
X022834Y006159D01*
X022834Y006278D02*
X027034Y006278D01*
X027034Y006396D02*
X022834Y006396D01*
X022834Y006515D02*
X027034Y006515D01*
X027034Y006633D02*
X022834Y006633D01*
X022834Y006752D02*
X027034Y006752D01*
X027034Y006871D02*
X022834Y006871D01*
X022834Y006989D02*
X027034Y006989D01*
X027034Y007108D02*
X022834Y007108D01*
X022834Y007226D02*
X027034Y007226D01*
X027034Y007345D02*
X022834Y007345D01*
X022834Y007463D02*
X027034Y007463D01*
X027034Y007582D02*
X022834Y007582D01*
X022834Y007700D02*
X027034Y007700D01*
X027384Y007700D02*
X031834Y007700D01*
X031834Y007582D02*
X027384Y007582D01*
X027384Y007463D02*
X031834Y007463D01*
X031834Y007345D02*
X027384Y007345D01*
X027384Y007226D02*
X031834Y007226D01*
X031834Y007108D02*
X027384Y007108D01*
X027384Y006989D02*
X031834Y006989D01*
X031834Y006871D02*
X027384Y006871D01*
X027384Y006752D02*
X031834Y006752D01*
X031834Y006633D02*
X027384Y006633D01*
X027384Y006515D02*
X031834Y006515D01*
X031834Y006396D02*
X027384Y006396D01*
X027384Y006278D02*
X031834Y006278D01*
X031834Y006159D02*
X027384Y006159D01*
X027384Y006041D02*
X031834Y006041D01*
X031834Y005922D02*
X027384Y005922D01*
X027384Y005804D02*
X031834Y005804D01*
X031834Y005685D02*
X027384Y005685D01*
X027384Y005567D02*
X031834Y005567D01*
X031834Y005448D02*
X027384Y005448D01*
X027384Y005329D02*
X031834Y005329D01*
X031834Y005211D02*
X027384Y005211D01*
X027384Y005092D02*
X031834Y005092D01*
X031834Y004974D02*
X027384Y004974D01*
X027384Y004855D02*
X031834Y004855D01*
X031834Y004737D02*
X027384Y004737D01*
X027384Y004618D02*
X031834Y004618D01*
X031834Y004500D02*
X027384Y004500D01*
X027384Y004381D02*
X031834Y004381D01*
X031834Y004263D02*
X027384Y004263D01*
X027384Y004144D02*
X031834Y004144D01*
X031834Y004025D02*
X027384Y004025D01*
X027384Y003907D02*
X031834Y003907D01*
X031834Y003788D02*
X027384Y003788D01*
X027384Y003670D02*
X031834Y003670D01*
X031834Y003551D02*
X027384Y003551D01*
X027384Y003433D02*
X031834Y003433D01*
X031834Y003314D02*
X027384Y003314D01*
X027384Y003196D02*
X031834Y003196D01*
X031834Y003077D02*
X027384Y003077D01*
X027384Y002959D02*
X031834Y002959D01*
X031834Y002840D02*
X027384Y002840D01*
X027384Y002721D02*
X031834Y002721D01*
X031834Y002608D02*
X027384Y002658D01*
X027384Y007708D01*
X028784Y007708D01*
X029634Y008558D01*
X029634Y013181D01*
X029676Y013168D01*
X029789Y013551D01*
X029828Y013540D01*
X029839Y013579D01*
X029801Y013590D01*
X029914Y013973D01*
X029767Y014017D01*
X029634Y013945D01*
X029634Y014108D01*
X031834Y014058D01*
X031834Y002608D01*
X032234Y002658D02*
X032234Y013271D01*
X032281Y013183D01*
X032429Y013140D01*
X032542Y013523D01*
X032581Y013511D01*
X032467Y013128D01*
X032615Y013084D01*
X032921Y013251D01*
X032964Y013398D01*
X032581Y013512D01*
X032592Y013550D01*
X032554Y013562D01*
X032667Y013945D01*
X032520Y013989D01*
X032234Y013833D01*
X032234Y014108D01*
X034484Y014108D01*
X034484Y008608D01*
X035384Y007758D01*
X036734Y007758D01*
X036734Y002658D01*
X032234Y002658D01*
X032234Y002721D02*
X036734Y002721D01*
X036734Y002840D02*
X032234Y002840D01*
X032234Y002959D02*
X036734Y002959D01*
X036734Y003077D02*
X032234Y003077D01*
X032234Y003196D02*
X036734Y003196D01*
X036734Y003314D02*
X032234Y003314D01*
X032234Y003433D02*
X036734Y003433D01*
X036734Y003551D02*
X032234Y003551D01*
X032234Y003670D02*
X036734Y003670D01*
X036734Y003788D02*
X032234Y003788D01*
X032234Y003907D02*
X036734Y003907D01*
X036734Y004025D02*
X032234Y004025D01*
X032234Y004144D02*
X036734Y004144D01*
X036734Y004263D02*
X032234Y004263D01*
X032234Y004381D02*
X036734Y004381D01*
X036734Y004500D02*
X032234Y004500D01*
X032234Y004618D02*
X036734Y004618D01*
X036734Y004737D02*
X032234Y004737D01*
X032234Y004855D02*
X036734Y004855D01*
X036734Y004974D02*
X032234Y004974D01*
X032234Y005092D02*
X036734Y005092D01*
X036734Y005211D02*
X032234Y005211D01*
X032234Y005329D02*
X036734Y005329D01*
X036734Y005448D02*
X032234Y005448D01*
X032234Y005567D02*
X036734Y005567D01*
X036734Y005685D02*
X032234Y005685D01*
X032234Y005804D02*
X036734Y005804D01*
X036734Y005922D02*
X032234Y005922D01*
X032234Y006041D02*
X036734Y006041D01*
X036734Y006159D02*
X032234Y006159D01*
X032234Y006278D02*
X036734Y006278D01*
X036734Y006396D02*
X032234Y006396D01*
X032234Y006515D02*
X036734Y006515D01*
X036734Y006633D02*
X032234Y006633D01*
X032234Y006752D02*
X036734Y006752D01*
X036734Y006871D02*
X032234Y006871D01*
X032234Y006989D02*
X036734Y006989D01*
X036734Y007108D02*
X032234Y007108D01*
X032234Y007226D02*
X036734Y007226D01*
X036734Y007345D02*
X032234Y007345D01*
X032234Y007463D02*
X036734Y007463D01*
X036734Y007582D02*
X032234Y007582D01*
X032234Y007700D02*
X036734Y007700D01*
X037084Y007700D02*
X041184Y007700D01*
X041184Y007758D02*
X041184Y002658D01*
X037084Y002658D01*
X037084Y007758D01*
X038384Y007758D01*
X039184Y008508D01*
X039934Y007758D01*
X041184Y007758D01*
X041184Y007582D02*
X037084Y007582D01*
X037084Y007463D02*
X041184Y007463D01*
X041184Y007345D02*
X037084Y007345D01*
X037084Y007226D02*
X041184Y007226D01*
X041184Y007108D02*
X037084Y007108D01*
X037084Y006989D02*
X041184Y006989D01*
X041184Y006871D02*
X037084Y006871D01*
X037084Y006752D02*
X041184Y006752D01*
X041184Y006633D02*
X037084Y006633D01*
X037084Y006515D02*
X041184Y006515D01*
X041184Y006396D02*
X037084Y006396D01*
X037084Y006278D02*
X041184Y006278D01*
X041184Y006159D02*
X037084Y006159D01*
X037084Y006041D02*
X041184Y006041D01*
X041184Y005922D02*
X037084Y005922D01*
X037084Y005804D02*
X041184Y005804D01*
X041184Y005685D02*
X037084Y005685D01*
X037084Y005567D02*
X041184Y005567D01*
X041184Y005448D02*
X037084Y005448D01*
X037084Y005329D02*
X041184Y005329D01*
X041184Y005211D02*
X037084Y005211D01*
X037084Y005092D02*
X041184Y005092D01*
X041184Y004974D02*
X037084Y004974D01*
X037084Y004855D02*
X041184Y004855D01*
X041184Y004737D02*
X037084Y004737D01*
X037084Y004618D02*
X041184Y004618D01*
X041184Y004500D02*
X037084Y004500D01*
X037084Y004381D02*
X041184Y004381D01*
X041184Y004263D02*
X037084Y004263D01*
X037084Y004144D02*
X041184Y004144D01*
X041184Y004025D02*
X037084Y004025D01*
X037084Y003907D02*
X037363Y003907D01*
X037477Y004021D02*
X037134Y003678D01*
X037134Y003496D01*
X037659Y003496D01*
X037659Y004021D01*
X037477Y004021D01*
X037659Y003907D02*
X037779Y003907D01*
X037779Y004021D02*
X037779Y003496D01*
X037659Y003496D01*
X037659Y003376D01*
X037134Y003376D01*
X037134Y003194D01*
X037477Y002851D01*
X037659Y002851D01*
X037659Y003376D01*
X037779Y003376D01*
X037779Y003496D01*
X038304Y003496D01*
X038304Y003678D01*
X037961Y004021D01*
X037779Y004021D01*
X037779Y003788D02*
X037659Y003788D01*
X037659Y003670D02*
X037779Y003670D01*
X037779Y003551D02*
X037659Y003551D01*
X037659Y003433D02*
X037084Y003433D01*
X037084Y003551D02*
X037134Y003551D01*
X037134Y003670D02*
X037084Y003670D01*
X037084Y003788D02*
X037244Y003788D01*
X037134Y003314D02*
X037084Y003314D01*
X037084Y003196D02*
X037134Y003196D01*
X037084Y003077D02*
X037250Y003077D01*
X037369Y002959D02*
X037084Y002959D01*
X037084Y002840D02*
X041184Y002840D01*
X041184Y002721D02*
X037084Y002721D01*
X037659Y002959D02*
X037779Y002959D01*
X037779Y002851D02*
X037961Y002851D01*
X038304Y003194D01*
X038304Y003376D01*
X037779Y003376D01*
X037779Y002851D01*
X037779Y003077D02*
X037659Y003077D01*
X037659Y003196D02*
X037779Y003196D01*
X037779Y003314D02*
X037659Y003314D01*
X037779Y003433D02*
X041184Y003433D01*
X041184Y003551D02*
X038304Y003551D01*
X038304Y003670D02*
X041184Y003670D01*
X041184Y003788D02*
X038194Y003788D01*
X038075Y003907D02*
X041184Y003907D01*
X041584Y003907D02*
X041855Y003907D01*
X041969Y004021D02*
X041626Y003678D01*
X041626Y003496D01*
X042151Y003496D01*
X042151Y003376D01*
X041626Y003376D01*
X041626Y003194D01*
X041969Y002851D01*
X042151Y002851D01*
X042151Y003376D01*
X042271Y003376D01*
X042271Y002851D01*
X042454Y002851D01*
X042796Y003194D01*
X042796Y003376D01*
X042272Y003376D01*
X042272Y003496D01*
X042796Y003496D01*
X042796Y003678D01*
X042454Y004021D01*
X042271Y004021D01*
X042271Y003496D01*
X042151Y003496D01*
X042151Y004021D01*
X041969Y004021D01*
X042151Y003907D02*
X042271Y003907D01*
X042271Y003788D02*
X042151Y003788D01*
X042151Y003670D02*
X042271Y003670D01*
X042271Y003551D02*
X042151Y003551D01*
X042151Y003433D02*
X041584Y003433D01*
X041584Y003551D02*
X041626Y003551D01*
X041626Y003670D02*
X041584Y003670D01*
X041584Y003788D02*
X041737Y003788D01*
X041584Y004025D02*
X045734Y004025D01*
X045734Y003907D02*
X042568Y003907D01*
X042686Y003788D02*
X045734Y003788D01*
X045734Y003670D02*
X042796Y003670D01*
X042796Y003551D02*
X045734Y003551D01*
X045734Y003433D02*
X042272Y003433D01*
X042271Y003314D02*
X042151Y003314D01*
X042151Y003196D02*
X042271Y003196D01*
X042271Y003077D02*
X042151Y003077D01*
X042151Y002959D02*
X042271Y002959D01*
X042561Y002959D02*
X045734Y002959D01*
X045734Y003077D02*
X042680Y003077D01*
X042796Y003196D02*
X045734Y003196D01*
X045734Y003314D02*
X042796Y003314D01*
X041861Y002959D02*
X041584Y002959D01*
X041584Y003077D02*
X041743Y003077D01*
X041626Y003196D02*
X041584Y003196D01*
X041584Y003314D02*
X041626Y003314D01*
X041184Y003314D02*
X038304Y003314D01*
X038304Y003196D02*
X041184Y003196D01*
X041184Y003077D02*
X038187Y003077D01*
X038069Y002959D02*
X041184Y002959D01*
X041584Y002840D02*
X045734Y002840D01*
X045734Y002721D02*
X041584Y002721D01*
X041584Y002658D02*
X041584Y007758D01*
X042984Y007758D01*
X043734Y008508D01*
X044484Y007758D01*
X045734Y007758D01*
X045734Y002658D01*
X041584Y002658D01*
X041584Y004144D02*
X045734Y004144D01*
X045734Y004263D02*
X041584Y004263D01*
X041584Y004381D02*
X045734Y004381D01*
X045734Y004500D02*
X041584Y004500D01*
X041584Y004618D02*
X045734Y004618D01*
X045734Y004737D02*
X041584Y004737D01*
X041584Y004855D02*
X045734Y004855D01*
X045734Y004974D02*
X041584Y004974D01*
X041584Y005092D02*
X045734Y005092D01*
X045734Y005211D02*
X041584Y005211D01*
X041584Y005329D02*
X045734Y005329D01*
X045734Y005448D02*
X041584Y005448D01*
X041584Y005567D02*
X045734Y005567D01*
X045734Y005685D02*
X041584Y005685D01*
X041584Y005804D02*
X045734Y005804D01*
X045734Y005922D02*
X041584Y005922D01*
X041584Y006041D02*
X045734Y006041D01*
X045734Y006159D02*
X041584Y006159D01*
X041584Y006278D02*
X045734Y006278D01*
X045734Y006396D02*
X041584Y006396D01*
X041584Y006515D02*
X045734Y006515D01*
X045734Y006633D02*
X041584Y006633D01*
X041584Y006752D02*
X045734Y006752D01*
X045734Y006871D02*
X041584Y006871D01*
X041584Y006989D02*
X045734Y006989D01*
X045734Y007108D02*
X041584Y007108D01*
X041584Y007226D02*
X045734Y007226D01*
X045734Y007345D02*
X041584Y007345D01*
X041584Y007463D02*
X045734Y007463D01*
X045734Y007582D02*
X041584Y007582D01*
X041584Y007700D02*
X045734Y007700D01*
X046134Y007700D02*
X050634Y007700D01*
X050634Y007582D02*
X046134Y007582D01*
X046134Y007463D02*
X050634Y007463D01*
X050634Y007345D02*
X046134Y007345D01*
X046134Y007226D02*
X050634Y007226D01*
X050634Y007108D02*
X046134Y007108D01*
X046134Y006989D02*
X050634Y006989D01*
X050634Y006871D02*
X046134Y006871D01*
X046134Y006752D02*
X050634Y006752D01*
X050634Y006633D02*
X046134Y006633D01*
X046134Y006515D02*
X050634Y006515D01*
X050634Y006396D02*
X046134Y006396D01*
X046134Y006278D02*
X050634Y006278D01*
X050634Y006159D02*
X046134Y006159D01*
X046134Y006041D02*
X050634Y006041D01*
X050634Y005922D02*
X046134Y005922D01*
X046134Y005804D02*
X050634Y005804D01*
X050634Y005685D02*
X046134Y005685D01*
X046134Y005567D02*
X050634Y005567D01*
X050634Y005448D02*
X046134Y005448D01*
X046134Y005329D02*
X050634Y005329D01*
X050634Y005211D02*
X046134Y005211D01*
X046134Y005092D02*
X050634Y005092D01*
X050634Y004974D02*
X046134Y004974D01*
X046134Y004855D02*
X050634Y004855D01*
X050634Y004737D02*
X046134Y004737D01*
X046134Y004618D02*
X050634Y004618D01*
X050634Y004500D02*
X046134Y004500D01*
X046134Y004381D02*
X050634Y004381D01*
X050634Y004263D02*
X046134Y004263D01*
X046134Y004144D02*
X050634Y004144D01*
X050634Y004025D02*
X046134Y004025D01*
X046134Y003907D02*
X050634Y003907D01*
X050634Y003788D02*
X046134Y003788D01*
X046134Y003670D02*
X050634Y003670D01*
X050634Y003551D02*
X046134Y003551D01*
X046134Y003433D02*
X050634Y003433D01*
X050634Y003314D02*
X046134Y003314D01*
X046134Y003196D02*
X050634Y003196D01*
X050634Y003077D02*
X046134Y003077D01*
X046134Y002959D02*
X050634Y002959D01*
X050634Y002840D02*
X046134Y002840D01*
X046134Y002721D02*
X050634Y002721D01*
X050634Y002658D02*
X046134Y002658D01*
X046134Y007758D01*
X047484Y007758D01*
X048434Y008658D01*
X048434Y014108D01*
X050634Y014108D01*
X050634Y002658D01*
X051034Y002658D02*
X051034Y014108D01*
X051589Y014108D01*
X051351Y013978D01*
X051307Y013831D01*
X051690Y013717D01*
X051679Y013679D01*
X051296Y013792D01*
X051252Y013645D01*
X051418Y013339D01*
X051565Y013295D01*
X051679Y013679D01*
X051717Y013667D01*
X051604Y013284D01*
X051751Y013240D01*
X052057Y013406D01*
X052101Y013554D01*
X051718Y013667D01*
X051729Y013706D01*
X051690Y013717D01*
X051804Y014101D01*
X051779Y014108D01*
X053184Y014108D01*
X053184Y012670D01*
X053077Y012867D01*
X052929Y012911D01*
X052816Y012528D01*
X052777Y012539D01*
X052891Y012922D01*
X052743Y012966D01*
X052437Y012800D01*
X052394Y012652D01*
X052777Y012539D01*
X052766Y012500D01*
X052804Y012489D01*
X052691Y012105D01*
X052838Y012062D01*
X053144Y012228D01*
X053184Y012362D01*
X053184Y008608D01*
X054034Y007758D01*
X055384Y007758D01*
X055384Y002658D01*
X051034Y002658D01*
X051034Y002721D02*
X055384Y002721D01*
X055384Y002840D02*
X051034Y002840D01*
X051034Y002959D02*
X055384Y002959D01*
X055384Y003077D02*
X051034Y003077D01*
X051034Y003196D02*
X055384Y003196D01*
X055384Y003314D02*
X051034Y003314D01*
X051034Y003433D02*
X055384Y003433D01*
X055384Y003551D02*
X051034Y003551D01*
X051034Y003670D02*
X055384Y003670D01*
X055384Y003788D02*
X051034Y003788D01*
X051034Y003907D02*
X055384Y003907D01*
X055384Y004025D02*
X051034Y004025D01*
X051034Y004144D02*
X055384Y004144D01*
X055384Y004263D02*
X051034Y004263D01*
X051034Y004381D02*
X055384Y004381D01*
X055384Y004500D02*
X051034Y004500D01*
X051034Y004618D02*
X055384Y004618D01*
X055384Y004737D02*
X051034Y004737D01*
X051034Y004855D02*
X055384Y004855D01*
X055384Y004974D02*
X051034Y004974D01*
X051034Y005092D02*
X055384Y005092D01*
X055384Y005211D02*
X051034Y005211D01*
X051034Y005329D02*
X055384Y005329D01*
X055384Y005448D02*
X051034Y005448D01*
X051034Y005567D02*
X055384Y005567D01*
X055384Y005685D02*
X051034Y005685D01*
X051034Y005804D02*
X055384Y005804D01*
X055384Y005922D02*
X051034Y005922D01*
X051034Y006041D02*
X055384Y006041D01*
X055384Y006159D02*
X051034Y006159D01*
X051034Y006278D02*
X055384Y006278D01*
X055384Y006396D02*
X051034Y006396D01*
X051034Y006515D02*
X055384Y006515D01*
X055384Y006633D02*
X051034Y006633D01*
X051034Y006752D02*
X055384Y006752D01*
X055384Y006871D02*
X051034Y006871D01*
X051034Y006989D02*
X055384Y006989D01*
X055384Y007108D02*
X051034Y007108D01*
X051034Y007226D02*
X055384Y007226D01*
X055384Y007345D02*
X051034Y007345D01*
X051034Y007463D02*
X055384Y007463D01*
X055384Y007582D02*
X051034Y007582D01*
X051034Y007700D02*
X055384Y007700D01*
X055734Y007700D02*
X059884Y007700D01*
X059884Y007758D02*
X059884Y002658D01*
X055734Y002658D01*
X055734Y007758D01*
X057034Y007758D01*
X057834Y008558D01*
X058634Y007758D01*
X059884Y007758D01*
X059884Y007582D02*
X055734Y007582D01*
X055734Y007463D02*
X059884Y007463D01*
X059884Y007345D02*
X055734Y007345D01*
X055734Y007226D02*
X059884Y007226D01*
X059884Y007108D02*
X055734Y007108D01*
X055734Y006989D02*
X059884Y006989D01*
X059884Y006871D02*
X055734Y006871D01*
X055734Y006752D02*
X059884Y006752D01*
X059884Y006633D02*
X055734Y006633D01*
X055734Y006515D02*
X059884Y006515D01*
X059884Y006396D02*
X055734Y006396D01*
X055734Y006278D02*
X059884Y006278D01*
X059884Y006159D02*
X055734Y006159D01*
X055734Y006041D02*
X059884Y006041D01*
X059884Y005922D02*
X055734Y005922D01*
X055734Y005804D02*
X059884Y005804D01*
X059884Y005685D02*
X055734Y005685D01*
X055734Y005567D02*
X059884Y005567D01*
X059884Y005448D02*
X055734Y005448D01*
X055734Y005329D02*
X059884Y005329D01*
X059884Y005211D02*
X055734Y005211D01*
X055734Y005092D02*
X059884Y005092D01*
X059884Y004974D02*
X055734Y004974D01*
X055734Y004855D02*
X059884Y004855D01*
X059884Y004737D02*
X055734Y004737D01*
X055734Y004618D02*
X059884Y004618D01*
X059884Y004500D02*
X055734Y004500D01*
X055734Y004381D02*
X059884Y004381D01*
X059884Y004263D02*
X055734Y004263D01*
X055734Y004144D02*
X059884Y004144D01*
X059884Y004025D02*
X056699Y004025D01*
X056604Y004121D02*
X056421Y004121D01*
X056421Y003596D01*
X056301Y003596D01*
X056301Y003476D01*
X055776Y003476D01*
X055776Y003294D01*
X056119Y002951D01*
X056301Y002951D01*
X056301Y003476D01*
X056421Y003476D01*
X056421Y002951D01*
X056604Y002951D01*
X056946Y003294D01*
X056946Y003476D01*
X056421Y003476D01*
X056421Y003596D01*
X056946Y003596D01*
X056946Y003778D01*
X056604Y004121D01*
X056421Y004025D02*
X056301Y004025D01*
X056301Y004121D02*
X056119Y004121D01*
X055776Y003778D01*
X055776Y003596D01*
X056301Y003596D01*
X056301Y004121D01*
X056301Y003907D02*
X056421Y003907D01*
X056421Y003788D02*
X056301Y003788D01*
X056301Y003670D02*
X056421Y003670D01*
X056421Y003551D02*
X059884Y003551D01*
X059884Y003433D02*
X056946Y003433D01*
X056946Y003314D02*
X059884Y003314D01*
X059884Y003196D02*
X056848Y003196D01*
X056730Y003077D02*
X059884Y003077D01*
X059884Y002959D02*
X056611Y002959D01*
X056421Y002959D02*
X056301Y002959D01*
X056301Y003077D02*
X056421Y003077D01*
X056421Y003196D02*
X056301Y003196D01*
X056301Y003314D02*
X056421Y003314D01*
X056421Y003433D02*
X056301Y003433D01*
X056301Y003551D02*
X055734Y003551D01*
X055734Y003433D02*
X055776Y003433D01*
X055776Y003314D02*
X055734Y003314D01*
X055734Y003196D02*
X055874Y003196D01*
X055993Y003077D02*
X055734Y003077D01*
X055734Y002959D02*
X056111Y002959D01*
X055734Y002840D02*
X059884Y002840D01*
X059884Y002721D02*
X055734Y002721D01*
X055734Y003670D02*
X055776Y003670D01*
X055787Y003788D02*
X055734Y003788D01*
X055734Y003907D02*
X055905Y003907D01*
X056024Y004025D02*
X055734Y004025D01*
X056817Y003907D02*
X059884Y003907D01*
X059884Y003788D02*
X056936Y003788D01*
X056946Y003670D02*
X059884Y003670D01*
X060284Y003670D02*
X063884Y003670D01*
X063884Y003788D02*
X060284Y003788D01*
X060284Y003907D02*
X063884Y003907D01*
X063884Y004025D02*
X060284Y004025D01*
X060284Y004144D02*
X063884Y004144D01*
X063884Y004263D02*
X060284Y004263D01*
X060284Y004381D02*
X063884Y004381D01*
X063884Y004500D02*
X060284Y004500D01*
X060284Y004618D02*
X063884Y004618D01*
X063884Y004737D02*
X060284Y004737D01*
X060284Y004855D02*
X063884Y004855D01*
X063884Y004974D02*
X060284Y004974D01*
X060284Y005092D02*
X063884Y005092D01*
X063884Y005211D02*
X060284Y005211D01*
X060284Y005329D02*
X063884Y005329D01*
X063884Y005448D02*
X060284Y005448D01*
X060284Y005567D02*
X063884Y005567D01*
X063884Y005685D02*
X060284Y005685D01*
X060284Y005804D02*
X063884Y005804D01*
X063884Y005922D02*
X060284Y005922D01*
X060284Y006041D02*
X063884Y006041D01*
X063884Y006159D02*
X060284Y006159D01*
X060284Y006278D02*
X063884Y006278D01*
X063884Y006396D02*
X060284Y006396D01*
X060284Y006515D02*
X063884Y006515D01*
X063884Y006633D02*
X060284Y006633D01*
X060284Y006752D02*
X063884Y006752D01*
X063884Y006871D02*
X060284Y006871D01*
X060284Y006989D02*
X063884Y006989D01*
X063884Y007108D02*
X060284Y007108D01*
X060284Y007226D02*
X063884Y007226D01*
X063884Y007345D02*
X060284Y007345D01*
X060284Y007463D02*
X063884Y007463D01*
X063884Y007582D02*
X060284Y007582D01*
X060284Y007700D02*
X063884Y007700D01*
X063884Y007819D02*
X061698Y007819D01*
X061634Y007758D02*
X062534Y008608D01*
X062534Y014108D01*
X064084Y014108D01*
X064084Y012894D01*
X064006Y013036D01*
X063859Y013080D01*
X063745Y012696D01*
X063707Y012708D01*
X063820Y013091D01*
X063673Y013135D01*
X063367Y012969D01*
X063323Y012821D01*
X063707Y012708D01*
X063695Y012669D01*
X063312Y012783D01*
X063268Y012635D01*
X063434Y012330D01*
X063582Y012286D01*
X063695Y012669D01*
X063734Y012658D01*
X063620Y012274D01*
X063768Y012231D01*
X064074Y012397D01*
X064084Y012431D01*
X064084Y011908D01*
X063884Y011558D01*
X063884Y002658D01*
X060284Y002658D01*
X060284Y007758D01*
X061634Y007758D01*
X061824Y007937D02*
X063884Y007937D01*
X063884Y008056D02*
X061949Y008056D01*
X062075Y008174D02*
X063884Y008174D01*
X063884Y008293D02*
X062200Y008293D01*
X062326Y008412D02*
X063884Y008412D01*
X063884Y008530D02*
X062451Y008530D01*
X062534Y008649D02*
X063884Y008649D01*
X063884Y008767D02*
X062534Y008767D01*
X062534Y008886D02*
X063884Y008886D01*
X063884Y009004D02*
X062534Y009004D01*
X062534Y009123D02*
X063884Y009123D01*
X063884Y009241D02*
X062534Y009241D01*
X062534Y009360D02*
X063884Y009360D01*
X063884Y009478D02*
X062534Y009478D01*
X062534Y009597D02*
X063884Y009597D01*
X063884Y009716D02*
X062534Y009716D01*
X062534Y009834D02*
X063884Y009834D01*
X063884Y009953D02*
X062534Y009953D01*
X062534Y010071D02*
X063884Y010071D01*
X063884Y010190D02*
X062534Y010190D01*
X062534Y010308D02*
X063884Y010308D01*
X063884Y010427D02*
X062534Y010427D01*
X062534Y010545D02*
X063884Y010545D01*
X063884Y010664D02*
X062534Y010664D01*
X062534Y010782D02*
X063884Y010782D01*
X063884Y010901D02*
X062534Y010901D01*
X062534Y011020D02*
X063884Y011020D01*
X063884Y011138D02*
X062534Y011138D01*
X062534Y011257D02*
X063884Y011257D01*
X063884Y011375D02*
X062534Y011375D01*
X062534Y011494D02*
X063884Y011494D01*
X063915Y011612D02*
X062534Y011612D01*
X062534Y011731D02*
X063982Y011731D01*
X064050Y011849D02*
X062534Y011849D01*
X062534Y011968D02*
X064084Y011968D01*
X064084Y012086D02*
X062534Y012086D01*
X062534Y012205D02*
X064084Y012205D01*
X064084Y012324D02*
X063939Y012324D01*
X063670Y012442D02*
X063628Y012442D01*
X063635Y012324D02*
X063593Y012324D01*
X063455Y012324D02*
X062534Y012324D01*
X062534Y012442D02*
X063373Y012442D01*
X063309Y012561D02*
X062534Y012561D01*
X062534Y012679D02*
X063281Y012679D01*
X063403Y012798D02*
X062534Y012798D01*
X062534Y012916D02*
X063351Y012916D01*
X063488Y013035D02*
X062534Y013035D01*
X062534Y013153D02*
X064084Y013153D01*
X064084Y013035D02*
X064007Y013035D01*
X064071Y012916D02*
X064084Y012916D01*
X063845Y013035D02*
X063804Y013035D01*
X063810Y012916D02*
X063768Y012916D01*
X063775Y012798D02*
X063733Y012798D01*
X063698Y012679D02*
X063662Y012679D01*
X063663Y012561D02*
X063705Y012561D01*
X064084Y013272D02*
X062534Y013272D01*
X062534Y013390D02*
X064084Y013390D01*
X064084Y013509D02*
X062534Y013509D01*
X062534Y013627D02*
X064084Y013627D01*
X064084Y013746D02*
X062534Y013746D01*
X062534Y013865D02*
X064084Y013865D01*
X064084Y013983D02*
X062534Y013983D01*
X062534Y014102D02*
X064084Y014102D01*
X062184Y014102D02*
X060209Y014102D01*
X060206Y014108D02*
X062184Y014108D01*
X062184Y008708D01*
X061534Y008108D01*
X058834Y008108D01*
X058034Y008808D01*
X058034Y012058D01*
X058584Y011808D01*
X058884Y012308D01*
X058884Y014108D01*
X059537Y014108D01*
X059532Y014105D01*
X059488Y013957D01*
X059871Y013844D01*
X059860Y013805D01*
X059898Y013794D01*
X059785Y013410D01*
X059932Y013367D01*
X060238Y013533D01*
X060282Y013680D01*
X059899Y013794D01*
X059910Y013832D01*
X060293Y013719D01*
X060337Y013866D01*
X060206Y014108D01*
X060274Y013983D02*
X062184Y013983D01*
X062184Y013865D02*
X060336Y013865D01*
X060301Y013746D02*
X062184Y013746D01*
X062184Y013627D02*
X060266Y013627D01*
X060201Y013746D02*
X060060Y013746D01*
X059884Y013746D02*
X059842Y013746D01*
X059860Y013805D02*
X059746Y013422D01*
X059599Y013466D01*
X059433Y013771D01*
X059477Y013919D01*
X059860Y013805D01*
X059801Y013865D02*
X059660Y013865D01*
X059461Y013865D02*
X058884Y013865D01*
X058884Y013983D02*
X059496Y013983D01*
X059531Y014102D02*
X058884Y014102D01*
X058884Y013746D02*
X059447Y013746D01*
X059511Y013627D02*
X058884Y013627D01*
X058884Y013509D02*
X059575Y013509D01*
X059772Y013509D02*
X059814Y013509D01*
X059807Y013627D02*
X059849Y013627D01*
X059853Y013390D02*
X058884Y013390D01*
X058884Y013272D02*
X062184Y013272D01*
X062184Y013390D02*
X059976Y013390D01*
X060194Y013509D02*
X062184Y013509D01*
X062184Y013153D02*
X058884Y013153D01*
X058884Y013035D02*
X060861Y013035D01*
X060940Y013078D02*
X060634Y012912D01*
X060591Y012764D01*
X060974Y012651D01*
X061088Y013034D01*
X060940Y013078D01*
X061086Y013035D02*
X062184Y013035D01*
X062184Y012916D02*
X061308Y012916D01*
X061274Y012979D02*
X061440Y012673D01*
X061396Y012526D01*
X061013Y012639D01*
X061001Y012601D01*
X061384Y012487D01*
X061341Y012340D01*
X061035Y012174D01*
X060887Y012217D01*
X061001Y012601D01*
X060963Y012612D01*
X060849Y012229D01*
X060701Y012273D01*
X060535Y012578D01*
X060579Y012726D01*
X060962Y012612D01*
X060974Y012651D01*
X061012Y012640D01*
X061126Y013023D01*
X061274Y012979D01*
X061094Y012916D02*
X061053Y012916D01*
X061059Y012798D02*
X061017Y012798D01*
X061024Y012679D02*
X060982Y012679D01*
X060878Y012679D02*
X060737Y012679D01*
X060565Y012679D02*
X058884Y012679D01*
X058884Y012561D02*
X060545Y012561D01*
X060609Y012442D02*
X058884Y012442D01*
X058884Y012324D02*
X060674Y012324D01*
X060877Y012324D02*
X060919Y012324D01*
X060912Y012442D02*
X060954Y012442D01*
X060947Y012561D02*
X060989Y012561D01*
X061137Y012561D02*
X061278Y012561D01*
X061406Y012561D02*
X062184Y012561D01*
X062184Y012679D02*
X061436Y012679D01*
X061372Y012798D02*
X062184Y012798D01*
X062184Y012442D02*
X061371Y012442D01*
X061311Y012324D02*
X062184Y012324D01*
X062184Y012205D02*
X061092Y012205D01*
X060930Y012205D02*
X058822Y012205D01*
X058751Y012086D02*
X062184Y012086D01*
X062184Y011968D02*
X058680Y011968D01*
X058608Y011849D02*
X062184Y011849D01*
X062184Y011731D02*
X058034Y011731D01*
X058034Y011849D02*
X058493Y011849D01*
X058232Y011968D02*
X058034Y011968D01*
X057684Y011968D02*
X053534Y011968D01*
X053534Y012086D02*
X057684Y012086D01*
X057684Y012158D02*
X057684Y008858D01*
X056934Y008158D01*
X054134Y008158D01*
X053534Y008758D01*
X053534Y013208D01*
X053884Y013008D01*
X055484Y013008D01*
X055488Y013006D01*
X055186Y012842D01*
X055142Y012695D01*
X055526Y012581D01*
X055514Y012543D01*
X055131Y012656D01*
X055087Y012509D01*
X055253Y012203D01*
X055401Y012159D01*
X055514Y012543D01*
X055553Y012531D01*
X055564Y012570D01*
X055948Y012456D01*
X055991Y012604D01*
X055848Y012867D01*
X057684Y012158D01*
X057562Y012205D02*
X055772Y012205D01*
X055892Y012270D02*
X055587Y012104D01*
X055439Y012148D01*
X055553Y012531D01*
X055936Y012418D01*
X055892Y012270D01*
X055908Y012324D02*
X057255Y012324D01*
X056948Y012442D02*
X055854Y012442D01*
X055978Y012561D02*
X056641Y012561D01*
X056335Y012679D02*
X055950Y012679D01*
X055886Y012798D02*
X056028Y012798D01*
X055595Y012561D02*
X055562Y012561D01*
X055519Y012561D02*
X055454Y012561D01*
X055484Y012442D02*
X055526Y012442D01*
X055491Y012324D02*
X055449Y012324D01*
X055456Y012205D02*
X055414Y012205D01*
X055252Y012205D02*
X053534Y012205D01*
X053534Y012324D02*
X055188Y012324D01*
X055123Y012442D02*
X053534Y012442D01*
X053534Y012561D02*
X055102Y012561D01*
X055195Y012679D02*
X053534Y012679D01*
X053534Y012798D02*
X055173Y012798D01*
X055322Y012916D02*
X053534Y012916D01*
X053534Y013035D02*
X053837Y013035D01*
X053629Y013153D02*
X053534Y013153D01*
X053184Y013153D02*
X051034Y013153D01*
X051034Y013035D02*
X053184Y013035D01*
X053184Y012916D02*
X052889Y012916D01*
X052896Y012798D02*
X052854Y012798D01*
X052860Y012679D02*
X052819Y012679D01*
X052825Y012561D02*
X052784Y012561D01*
X052766Y012500D02*
X052382Y012614D01*
X052339Y012466D01*
X052505Y012161D01*
X052652Y012117D01*
X052766Y012500D01*
X052748Y012442D02*
X052790Y012442D01*
X052755Y012324D02*
X052713Y012324D01*
X052720Y012205D02*
X052678Y012205D01*
X052755Y012086D02*
X051034Y012086D01*
X051034Y011968D02*
X053184Y011968D01*
X053184Y012086D02*
X052883Y012086D01*
X053102Y012205D02*
X053184Y012205D01*
X053172Y012324D02*
X053184Y012324D01*
X053179Y012679D02*
X053184Y012679D01*
X053184Y012798D02*
X053114Y012798D01*
X052703Y012561D02*
X052562Y012561D01*
X052366Y012561D02*
X051034Y012561D01*
X051034Y012679D02*
X052402Y012679D01*
X052437Y012798D02*
X051034Y012798D01*
X051034Y012916D02*
X052652Y012916D01*
X052352Y012442D02*
X051034Y012442D01*
X051034Y012324D02*
X052416Y012324D01*
X052480Y012205D02*
X051034Y012205D01*
X051034Y011849D02*
X053184Y011849D01*
X053184Y011731D02*
X051034Y011731D01*
X051034Y011612D02*
X053184Y011612D01*
X053184Y011494D02*
X051034Y011494D01*
X051034Y011375D02*
X053184Y011375D01*
X053184Y011257D02*
X051034Y011257D01*
X051034Y011138D02*
X053184Y011138D01*
X053184Y011020D02*
X051034Y011020D01*
X051034Y010901D02*
X053184Y010901D01*
X053184Y010782D02*
X051034Y010782D01*
X051034Y010664D02*
X053184Y010664D01*
X053184Y010545D02*
X051034Y010545D01*
X051034Y010427D02*
X053184Y010427D01*
X053184Y010308D02*
X051034Y010308D01*
X051034Y010190D02*
X053184Y010190D01*
X053184Y010071D02*
X051034Y010071D01*
X051034Y009953D02*
X053184Y009953D01*
X053184Y009834D02*
X051034Y009834D01*
X051034Y009716D02*
X053184Y009716D01*
X053184Y009597D02*
X051034Y009597D01*
X051034Y009478D02*
X053184Y009478D01*
X053184Y009360D02*
X051034Y009360D01*
X051034Y009241D02*
X053184Y009241D01*
X053184Y009123D02*
X051034Y009123D01*
X051034Y009004D02*
X053184Y009004D01*
X053184Y008886D02*
X051034Y008886D01*
X051034Y008767D02*
X053184Y008767D01*
X053184Y008649D02*
X051034Y008649D01*
X051034Y008530D02*
X053261Y008530D01*
X053380Y008412D02*
X051034Y008412D01*
X051034Y008293D02*
X053499Y008293D01*
X053617Y008174D02*
X051034Y008174D01*
X051034Y008056D02*
X053736Y008056D01*
X053854Y007937D02*
X051034Y007937D01*
X051034Y007819D02*
X053973Y007819D01*
X054117Y008174D02*
X056951Y008174D01*
X057078Y008293D02*
X053999Y008293D01*
X053880Y008412D02*
X057205Y008412D01*
X057332Y008530D02*
X053761Y008530D01*
X053643Y008649D02*
X057459Y008649D01*
X057586Y008767D02*
X053534Y008767D01*
X053534Y008886D02*
X057684Y008886D01*
X057684Y009004D02*
X053534Y009004D01*
X053534Y009123D02*
X057684Y009123D01*
X057684Y009241D02*
X053534Y009241D01*
X053534Y009360D02*
X057684Y009360D01*
X057684Y009478D02*
X053534Y009478D01*
X053534Y009597D02*
X057684Y009597D01*
X057684Y009716D02*
X053534Y009716D01*
X053534Y009834D02*
X057684Y009834D01*
X057684Y009953D02*
X053534Y009953D01*
X053534Y010071D02*
X057684Y010071D01*
X057684Y010190D02*
X053534Y010190D01*
X053534Y010308D02*
X057684Y010308D01*
X057684Y010427D02*
X053534Y010427D01*
X053534Y010545D02*
X057684Y010545D01*
X057684Y010664D02*
X053534Y010664D01*
X053534Y010782D02*
X057684Y010782D01*
X057684Y010901D02*
X053534Y010901D01*
X053534Y011020D02*
X057684Y011020D01*
X057684Y011138D02*
X053534Y011138D01*
X053534Y011257D02*
X057684Y011257D01*
X057684Y011375D02*
X053534Y011375D01*
X053534Y011494D02*
X057684Y011494D01*
X057684Y011612D02*
X053534Y011612D01*
X053534Y011731D02*
X057684Y011731D01*
X057684Y011849D02*
X053534Y011849D01*
X053184Y013272D02*
X051809Y013272D01*
X051645Y013272D02*
X051034Y013272D01*
X051034Y013390D02*
X051390Y013390D01*
X051326Y013509D02*
X051034Y013509D01*
X051034Y013627D02*
X051261Y013627D01*
X051282Y013746D02*
X051034Y013746D01*
X051034Y013865D02*
X051317Y013865D01*
X051359Y013983D02*
X051034Y013983D01*
X051034Y014102D02*
X051578Y014102D01*
X051801Y014102D02*
X053184Y014102D01*
X053184Y013983D02*
X052024Y013983D01*
X051990Y014046D02*
X052156Y013740D01*
X052112Y013592D01*
X051729Y013706D01*
X051842Y014089D01*
X051990Y014046D01*
X051811Y013983D02*
X051769Y013983D01*
X051776Y013865D02*
X051734Y013865D01*
X051741Y013746D02*
X051699Y013746D01*
X051593Y013746D02*
X051452Y013746D01*
X051664Y013627D02*
X051706Y013627D01*
X051670Y013509D02*
X051629Y013509D01*
X051635Y013390D02*
X051594Y013390D01*
X051852Y013627D02*
X051993Y013627D01*
X052123Y013627D02*
X053184Y013627D01*
X053184Y013509D02*
X052088Y013509D01*
X052028Y013390D02*
X053184Y013390D01*
X053184Y013746D02*
X052153Y013746D01*
X052088Y013865D02*
X053184Y013865D01*
X050634Y013865D02*
X049317Y013865D01*
X049252Y013983D02*
X050634Y013983D01*
X050634Y014102D02*
X048909Y014102D01*
X048908Y014102D02*
X048602Y013936D01*
X048558Y013788D01*
X048942Y013675D01*
X049055Y014058D01*
X048908Y014102D01*
X048907Y014102D02*
X048434Y014102D01*
X048434Y013983D02*
X048689Y013983D01*
X048581Y013865D02*
X048434Y013865D01*
X048434Y013746D02*
X048546Y013746D01*
X048547Y013750D02*
X048503Y013602D01*
X048669Y013297D01*
X048817Y013253D01*
X048930Y013636D01*
X048969Y013625D01*
X048980Y013663D01*
X049364Y013550D01*
X049407Y013697D01*
X049241Y014003D01*
X049094Y014047D01*
X048980Y013664D01*
X048942Y013675D01*
X048930Y013636D01*
X048547Y013750D01*
X048560Y013746D02*
X048701Y013746D01*
X048511Y013627D02*
X048434Y013627D01*
X048434Y013509D02*
X048554Y013509D01*
X048618Y013390D02*
X048434Y013390D01*
X048434Y013272D02*
X048753Y013272D01*
X048822Y013272D02*
X048864Y013272D01*
X048855Y013241D02*
X049003Y013198D01*
X049309Y013364D01*
X049352Y013511D01*
X048969Y013625D01*
X048855Y013241D01*
X048858Y013390D02*
X048899Y013390D01*
X048893Y013509D02*
X048934Y013509D01*
X048928Y013627D02*
X048960Y013627D01*
X048970Y013627D02*
X049101Y013627D01*
X049005Y013746D02*
X048963Y013746D01*
X048998Y013865D02*
X049040Y013865D01*
X049033Y013983D02*
X049075Y013983D01*
X049381Y013746D02*
X050634Y013746D01*
X050634Y013627D02*
X049387Y013627D01*
X049351Y013509D02*
X050634Y013509D01*
X050634Y013390D02*
X049316Y013390D01*
X049139Y013272D02*
X050634Y013272D01*
X050634Y013153D02*
X048434Y013153D01*
X048434Y013035D02*
X050634Y013035D01*
X050634Y012916D02*
X048434Y012916D01*
X048434Y012798D02*
X049853Y012798D01*
X049708Y012719D02*
X049664Y012572D01*
X050048Y012458D01*
X050036Y012420D01*
X049653Y012533D01*
X049609Y012386D01*
X049775Y012080D01*
X049923Y012036D01*
X050036Y012420D01*
X050075Y012408D01*
X049961Y012025D01*
X050109Y011981D01*
X050415Y012147D01*
X050458Y012295D01*
X050075Y012408D01*
X050086Y012447D01*
X050048Y012458D01*
X050161Y012842D01*
X050014Y012885D01*
X049708Y012719D01*
X049696Y012679D02*
X048434Y012679D01*
X048434Y012561D02*
X049702Y012561D01*
X049626Y012442D02*
X048434Y012442D01*
X048434Y012324D02*
X049643Y012324D01*
X049707Y012205D02*
X048434Y012205D01*
X048434Y012086D02*
X049772Y012086D01*
X049938Y012086D02*
X049980Y012086D01*
X049973Y012205D02*
X050015Y012205D01*
X050008Y012324D02*
X050050Y012324D01*
X050043Y012442D02*
X049961Y012442D01*
X050085Y012442D02*
X050102Y012442D01*
X050086Y012447D02*
X050470Y012333D01*
X050513Y012481D01*
X050347Y012786D01*
X050200Y012830D01*
X050086Y012447D01*
X050078Y012561D02*
X050120Y012561D01*
X050113Y012679D02*
X050155Y012679D01*
X050148Y012798D02*
X050190Y012798D01*
X050310Y012798D02*
X050634Y012798D01*
X050634Y012679D02*
X050406Y012679D01*
X050470Y012561D02*
X050634Y012561D01*
X050634Y012442D02*
X050502Y012442D01*
X050634Y012324D02*
X050361Y012324D01*
X050432Y012205D02*
X050634Y012205D01*
X050634Y012086D02*
X050303Y012086D01*
X050634Y011968D02*
X048434Y011968D01*
X048434Y011849D02*
X050634Y011849D01*
X050634Y011731D02*
X048434Y011731D01*
X048434Y011612D02*
X050634Y011612D01*
X050634Y011494D02*
X048434Y011494D01*
X048434Y011375D02*
X050634Y011375D01*
X050634Y011257D02*
X048434Y011257D01*
X048434Y011138D02*
X050634Y011138D01*
X050634Y011020D02*
X048434Y011020D01*
X048434Y010901D02*
X050634Y010901D01*
X050634Y010782D02*
X048434Y010782D01*
X048434Y010664D02*
X050634Y010664D01*
X050634Y010545D02*
X048434Y010545D01*
X048434Y010427D02*
X050634Y010427D01*
X050634Y010308D02*
X048434Y010308D01*
X048434Y010190D02*
X050634Y010190D01*
X050634Y010071D02*
X048434Y010071D01*
X048434Y009953D02*
X050634Y009953D01*
X050634Y009834D02*
X048434Y009834D01*
X048434Y009716D02*
X050634Y009716D01*
X050634Y009597D02*
X048434Y009597D01*
X048434Y009478D02*
X050634Y009478D01*
X050634Y009360D02*
X048434Y009360D01*
X048434Y009241D02*
X050634Y009241D01*
X050634Y009123D02*
X048434Y009123D01*
X048434Y009004D02*
X050634Y009004D01*
X050634Y008886D02*
X048434Y008886D01*
X048434Y008767D02*
X050634Y008767D01*
X050634Y008649D02*
X048424Y008649D01*
X048299Y008530D02*
X050634Y008530D01*
X050634Y008412D02*
X048174Y008412D01*
X048048Y008293D02*
X050634Y008293D01*
X050634Y008174D02*
X047923Y008174D01*
X047798Y008056D02*
X050634Y008056D01*
X050634Y007937D02*
X047673Y007937D01*
X047548Y007819D02*
X050634Y007819D01*
X048084Y008858D02*
X047284Y008108D01*
X044634Y008108D01*
X043934Y008808D01*
X043934Y012158D01*
X044784Y011808D01*
X045384Y012408D01*
X045384Y014108D01*
X048084Y014108D01*
X048084Y008858D01*
X048084Y008886D02*
X043934Y008886D01*
X043934Y009004D02*
X048084Y009004D01*
X048084Y009123D02*
X043934Y009123D01*
X043934Y009241D02*
X048084Y009241D01*
X048084Y009360D02*
X043934Y009360D01*
X043934Y009478D02*
X048084Y009478D01*
X048084Y009597D02*
X043934Y009597D01*
X043934Y009716D02*
X048084Y009716D01*
X048084Y009834D02*
X043934Y009834D01*
X043934Y009953D02*
X048084Y009953D01*
X048084Y010071D02*
X043934Y010071D01*
X043934Y010190D02*
X048084Y010190D01*
X048084Y010308D02*
X043934Y010308D01*
X043934Y010427D02*
X048084Y010427D01*
X048084Y010545D02*
X043934Y010545D01*
X043934Y010664D02*
X048084Y010664D01*
X048084Y010782D02*
X043934Y010782D01*
X043934Y010901D02*
X048084Y010901D01*
X048084Y011020D02*
X043934Y011020D01*
X043934Y011138D02*
X048084Y011138D01*
X048084Y011257D02*
X043934Y011257D01*
X043934Y011375D02*
X048084Y011375D01*
X048084Y011494D02*
X043934Y011494D01*
X043934Y011612D02*
X048084Y011612D01*
X048084Y011731D02*
X043934Y011731D01*
X043934Y011849D02*
X044683Y011849D01*
X044825Y011849D02*
X048084Y011849D01*
X048084Y011968D02*
X047434Y011968D01*
X047420Y011960D02*
X047725Y012126D01*
X047769Y012273D01*
X047386Y012387D01*
X047397Y012425D01*
X047780Y012312D01*
X047824Y012459D01*
X047658Y012765D01*
X047511Y012809D01*
X047397Y012426D01*
X047359Y012437D01*
X047472Y012820D01*
X047325Y012864D01*
X047019Y012698D01*
X046975Y012550D01*
X047358Y012437D01*
X047347Y012398D01*
X047386Y012387D01*
X047272Y012004D01*
X047420Y011960D01*
X047392Y011968D02*
X044944Y011968D01*
X045062Y012086D02*
X047071Y012086D01*
X047086Y012059D02*
X047234Y012015D01*
X047347Y012398D01*
X046964Y012512D01*
X046920Y012364D01*
X047086Y012059D01*
X047007Y012205D02*
X045181Y012205D01*
X045299Y012324D02*
X046942Y012324D01*
X046943Y012442D02*
X045384Y012442D01*
X045384Y012561D02*
X046978Y012561D01*
X047013Y012679D02*
X045384Y012679D01*
X045384Y012798D02*
X047203Y012798D01*
X047430Y012679D02*
X047472Y012679D01*
X047465Y012798D02*
X047507Y012798D01*
X047548Y012798D02*
X048084Y012798D01*
X048084Y012916D02*
X045384Y012916D01*
X045384Y013035D02*
X048084Y013035D01*
X048084Y013153D02*
X046340Y013153D01*
X046274Y013117D02*
X046579Y013283D01*
X046623Y013431D01*
X046240Y013544D01*
X046251Y013583D01*
X046213Y013594D01*
X046326Y013978D01*
X046179Y014021D01*
X045873Y013855D01*
X045829Y013708D01*
X046212Y013594D01*
X046201Y013556D01*
X045818Y013669D01*
X045774Y013522D01*
X045940Y013216D01*
X046088Y013172D01*
X046201Y013556D01*
X046240Y013544D01*
X046126Y013161D01*
X046274Y013117D01*
X046152Y013153D02*
X045384Y013153D01*
X045384Y013272D02*
X045910Y013272D01*
X045845Y013390D02*
X045384Y013390D01*
X045384Y013509D02*
X045781Y013509D01*
X045805Y013627D02*
X045384Y013627D01*
X045384Y013746D02*
X045840Y013746D01*
X045890Y013865D02*
X045384Y013865D01*
X045384Y013983D02*
X046108Y013983D01*
X046308Y013983D02*
X048084Y013983D01*
X048084Y013865D02*
X046544Y013865D01*
X046512Y013923D02*
X046365Y013966D01*
X046251Y013583D01*
X046634Y013469D01*
X046678Y013617D01*
X046512Y013923D01*
X046334Y013865D02*
X046293Y013865D01*
X046299Y013746D02*
X046258Y013746D01*
X046264Y013627D02*
X046222Y013627D01*
X046229Y013509D02*
X046187Y013509D01*
X046194Y013390D02*
X046152Y013390D01*
X046159Y013272D02*
X046117Y013272D01*
X046359Y013509D02*
X046500Y013509D01*
X046646Y013509D02*
X048084Y013509D01*
X048084Y013627D02*
X046672Y013627D01*
X046608Y013746D02*
X048084Y013746D01*
X048084Y013390D02*
X046611Y013390D01*
X046558Y013272D02*
X048084Y013272D01*
X048084Y012679D02*
X047705Y012679D01*
X047769Y012561D02*
X048084Y012561D01*
X048084Y012442D02*
X047819Y012442D01*
X047784Y012324D02*
X048084Y012324D01*
X048084Y012205D02*
X047749Y012205D01*
X047741Y012324D02*
X047600Y012324D01*
X047402Y012442D02*
X047360Y012442D01*
X047341Y012442D02*
X047200Y012442D01*
X047325Y012324D02*
X047367Y012324D01*
X047332Y012205D02*
X047290Y012205D01*
X047297Y012086D02*
X047255Y012086D01*
X047653Y012086D02*
X048084Y012086D01*
X047437Y012561D02*
X047395Y012561D01*
X046100Y013627D02*
X045959Y013627D01*
X045384Y014102D02*
X048084Y014102D01*
X044395Y011968D02*
X043934Y011968D01*
X043934Y012086D02*
X044107Y012086D01*
X043534Y012086D02*
X042097Y012086D01*
X042231Y012159D02*
X041925Y011993D01*
X041778Y012037D01*
X041891Y012420D01*
X041853Y012431D01*
X041739Y012048D01*
X041592Y012092D01*
X041426Y012398D01*
X041469Y012545D01*
X041853Y012432D01*
X041864Y012470D01*
X041481Y012584D01*
X041525Y012731D01*
X041830Y012897D01*
X041978Y012854D01*
X041864Y012470D01*
X041903Y012459D01*
X042016Y012842D01*
X042164Y012798D01*
X042223Y012798D01*
X042164Y012798D02*
X042330Y012493D01*
X042286Y012345D01*
X041903Y012459D01*
X041892Y012420D01*
X042275Y012307D01*
X042231Y012159D01*
X042245Y012205D02*
X043534Y012205D01*
X043534Y012258D02*
X043534Y008808D01*
X042834Y008108D01*
X040084Y008108D01*
X039384Y008758D01*
X039384Y011808D01*
X040034Y012408D01*
X040034Y013158D01*
X040584Y012958D01*
X041834Y012958D01*
X043534Y012258D01*
X043374Y012324D02*
X042218Y012324D01*
X042315Y012442D02*
X043087Y012442D01*
X042799Y012561D02*
X042293Y012561D01*
X042229Y012679D02*
X042511Y012679D01*
X042003Y012798D02*
X041961Y012798D01*
X041968Y012679D02*
X041926Y012679D01*
X041933Y012561D02*
X041891Y012561D01*
X041898Y012442D02*
X041959Y012442D01*
X041856Y012442D02*
X041818Y012442D01*
X041821Y012324D02*
X041863Y012324D01*
X041828Y012205D02*
X041786Y012205D01*
X041792Y012086D02*
X041751Y012086D01*
X041610Y012086D02*
X039685Y012086D01*
X039557Y011968D02*
X043534Y011968D01*
X043534Y011849D02*
X039428Y011849D01*
X039384Y011731D02*
X043534Y011731D01*
X043534Y011612D02*
X039384Y011612D01*
X039384Y011494D02*
X043534Y011494D01*
X043534Y011375D02*
X039384Y011375D01*
X039384Y011257D02*
X043534Y011257D01*
X043534Y011138D02*
X039384Y011138D01*
X039384Y011020D02*
X043534Y011020D01*
X043534Y010901D02*
X039384Y010901D01*
X039384Y010782D02*
X043534Y010782D01*
X043534Y010664D02*
X039384Y010664D01*
X039384Y010545D02*
X043534Y010545D01*
X043534Y010427D02*
X039384Y010427D01*
X039384Y010308D02*
X043534Y010308D01*
X043534Y010190D02*
X039384Y010190D01*
X039384Y010071D02*
X043534Y010071D01*
X043534Y009953D02*
X039384Y009953D01*
X039384Y009834D02*
X043534Y009834D01*
X043534Y009716D02*
X039384Y009716D01*
X039384Y009597D02*
X043534Y009597D01*
X043534Y009478D02*
X039384Y009478D01*
X039384Y009360D02*
X043534Y009360D01*
X043534Y009241D02*
X039384Y009241D01*
X039384Y009123D02*
X043534Y009123D01*
X043534Y009004D02*
X039384Y009004D01*
X039384Y008886D02*
X043534Y008886D01*
X043493Y008767D02*
X039384Y008767D01*
X039501Y008649D02*
X043374Y008649D01*
X043256Y008530D02*
X039629Y008530D01*
X039757Y008412D02*
X043137Y008412D01*
X043019Y008293D02*
X039884Y008293D01*
X040012Y008174D02*
X042900Y008174D01*
X043163Y007937D02*
X044304Y007937D01*
X044423Y007819D02*
X043045Y007819D01*
X043282Y008056D02*
X044186Y008056D01*
X044067Y008174D02*
X043400Y008174D01*
X043519Y008293D02*
X043949Y008293D01*
X043830Y008412D02*
X043637Y008412D01*
X043974Y008767D02*
X047987Y008767D01*
X047860Y008649D02*
X044093Y008649D01*
X044211Y008530D02*
X047734Y008530D01*
X047608Y008412D02*
X044330Y008412D01*
X044449Y008293D02*
X047481Y008293D01*
X047355Y008174D02*
X044567Y008174D01*
X039873Y007819D02*
X038449Y007819D01*
X038575Y007937D02*
X039754Y007937D01*
X039636Y008056D02*
X038701Y008056D01*
X038828Y008174D02*
X039517Y008174D01*
X039399Y008293D02*
X038954Y008293D01*
X039081Y008412D02*
X039280Y008412D01*
X038934Y008758D02*
X038234Y008108D01*
X035584Y008108D01*
X034834Y008758D01*
X034834Y013158D01*
X035184Y013008D01*
X036434Y013008D01*
X038934Y011958D01*
X038934Y008758D01*
X038934Y008767D02*
X034834Y008767D01*
X034834Y008886D02*
X038934Y008886D01*
X038934Y009004D02*
X034834Y009004D01*
X034834Y009123D02*
X038934Y009123D01*
X038934Y009241D02*
X034834Y009241D01*
X034834Y009360D02*
X038934Y009360D01*
X038934Y009478D02*
X034834Y009478D01*
X034834Y009597D02*
X038934Y009597D01*
X038934Y009716D02*
X034834Y009716D01*
X034834Y009834D02*
X038934Y009834D01*
X038934Y009953D02*
X034834Y009953D01*
X034834Y010071D02*
X038934Y010071D01*
X038934Y010190D02*
X034834Y010190D01*
X034834Y010308D02*
X038934Y010308D01*
X038934Y010427D02*
X034834Y010427D01*
X034834Y010545D02*
X038934Y010545D01*
X038934Y010664D02*
X034834Y010664D01*
X034834Y010782D02*
X038934Y010782D01*
X038934Y010901D02*
X034834Y010901D01*
X034834Y011020D02*
X038934Y011020D01*
X038934Y011138D02*
X034834Y011138D01*
X034834Y011257D02*
X038934Y011257D01*
X038934Y011375D02*
X034834Y011375D01*
X034834Y011494D02*
X038934Y011494D01*
X038934Y011612D02*
X034834Y011612D01*
X034834Y011731D02*
X038934Y011731D01*
X038934Y011849D02*
X034834Y011849D01*
X034834Y011968D02*
X036385Y011968D01*
X036450Y011948D02*
X036756Y012114D01*
X036800Y012262D01*
X036416Y012376D01*
X036416Y012375D02*
X036303Y011992D01*
X036450Y011948D01*
X036486Y011968D02*
X038910Y011968D01*
X038628Y012086D02*
X036704Y012086D01*
X036783Y012205D02*
X038345Y012205D01*
X038063Y012324D02*
X036818Y012324D01*
X036811Y012300D02*
X036855Y012448D01*
X036689Y012754D01*
X036541Y012797D01*
X036428Y012414D01*
X036811Y012300D01*
X036733Y012324D02*
X036592Y012324D01*
X036416Y012376D02*
X036428Y012414D01*
X036389Y012426D01*
X036503Y012809D01*
X036355Y012853D01*
X036049Y012687D01*
X036006Y012539D01*
X036389Y012425D01*
X036378Y012387D01*
X036416Y012375D01*
X036378Y012387D02*
X036264Y012004D01*
X036117Y012047D01*
X035951Y012353D01*
X035994Y012501D01*
X036378Y012387D01*
X036394Y012442D02*
X036436Y012442D01*
X036333Y012442D02*
X036192Y012442D01*
X036359Y012324D02*
X036401Y012324D01*
X036366Y012205D02*
X036324Y012205D01*
X036331Y012086D02*
X036289Y012086D01*
X036095Y012086D02*
X034834Y012086D01*
X034834Y012205D02*
X036031Y012205D01*
X035967Y012324D02*
X034834Y012324D01*
X034834Y012442D02*
X035977Y012442D01*
X036012Y012561D02*
X034834Y012561D01*
X034834Y012679D02*
X036047Y012679D01*
X036254Y012798D02*
X034834Y012798D01*
X034834Y012916D02*
X036652Y012916D01*
X036499Y012798D02*
X036934Y012798D01*
X036729Y012679D02*
X037216Y012679D01*
X037499Y012561D02*
X036794Y012561D01*
X036853Y012442D02*
X037781Y012442D01*
X036506Y012679D02*
X036464Y012679D01*
X036471Y012561D02*
X036429Y012561D01*
X035121Y013035D02*
X034834Y013035D01*
X034834Y013153D02*
X034844Y013153D01*
X034484Y013153D02*
X032742Y013153D01*
X032927Y013272D02*
X034484Y013272D01*
X034484Y013390D02*
X032962Y013390D01*
X032976Y013436D02*
X033019Y013584D01*
X032853Y013890D01*
X032706Y013934D01*
X032592Y013550D01*
X032976Y013436D01*
X032997Y013509D02*
X034484Y013509D01*
X034484Y013627D02*
X032996Y013627D01*
X032931Y013746D02*
X034484Y013746D01*
X034484Y013865D02*
X032867Y013865D01*
X032685Y013865D02*
X032644Y013865D01*
X032650Y013746D02*
X032608Y013746D01*
X032615Y013627D02*
X032573Y013627D01*
X032580Y013509D02*
X032538Y013509D01*
X032590Y013509D02*
X032731Y013509D01*
X032545Y013390D02*
X032503Y013390D01*
X032510Y013272D02*
X032468Y013272D01*
X032475Y013153D02*
X032433Y013153D01*
X032382Y013153D02*
X032234Y013153D01*
X032234Y013035D02*
X034484Y013035D01*
X034484Y012916D02*
X032234Y012916D01*
X032234Y012798D02*
X033448Y012798D01*
X033296Y012715D02*
X033252Y012568D01*
X033636Y012454D01*
X033624Y012416D01*
X033241Y012529D01*
X033197Y012382D01*
X033363Y012076D01*
X033511Y012032D01*
X033625Y012415D01*
X033663Y012404D01*
X033549Y012021D01*
X033697Y011977D01*
X034003Y012143D01*
X034046Y012291D01*
X033663Y012404D01*
X033675Y012443D01*
X033674Y012443D02*
X033636Y012454D01*
X033750Y012837D01*
X033602Y012881D01*
X033296Y012715D01*
X033286Y012679D02*
X032234Y012679D01*
X032234Y012561D02*
X033276Y012561D01*
X033215Y012442D02*
X032234Y012442D01*
X032234Y012324D02*
X033229Y012324D01*
X033293Y012205D02*
X032234Y012205D01*
X032234Y012086D02*
X033358Y012086D01*
X033527Y012086D02*
X033569Y012086D01*
X033562Y012205D02*
X033604Y012205D01*
X033597Y012324D02*
X033639Y012324D01*
X033632Y012442D02*
X033535Y012442D01*
X033674Y012442D02*
X033676Y012442D01*
X033675Y012443D02*
X034058Y012329D01*
X034102Y012477D01*
X033936Y012782D01*
X033788Y012826D01*
X033674Y012443D01*
X033667Y012561D02*
X033709Y012561D01*
X033703Y012679D02*
X033744Y012679D01*
X033738Y012798D02*
X033780Y012798D01*
X033884Y012798D02*
X034484Y012798D01*
X034484Y012679D02*
X033992Y012679D01*
X034056Y012561D02*
X034484Y012561D01*
X034484Y012442D02*
X034091Y012442D01*
X033935Y012324D02*
X034484Y012324D01*
X034484Y012205D02*
X034021Y012205D01*
X033898Y012086D02*
X034484Y012086D01*
X034484Y011968D02*
X032234Y011968D01*
X032234Y011849D02*
X034484Y011849D01*
X034484Y011731D02*
X032234Y011731D01*
X032234Y011612D02*
X034484Y011612D01*
X034484Y011494D02*
X032234Y011494D01*
X032234Y011375D02*
X034484Y011375D01*
X034484Y011257D02*
X032234Y011257D01*
X032234Y011138D02*
X034484Y011138D01*
X034484Y011020D02*
X032234Y011020D01*
X032234Y010901D02*
X034484Y010901D01*
X034484Y010782D02*
X032234Y010782D01*
X032234Y010664D02*
X034484Y010664D01*
X034484Y010545D02*
X032234Y010545D01*
X032234Y010427D02*
X034484Y010427D01*
X034484Y010308D02*
X032234Y010308D01*
X032234Y010190D02*
X034484Y010190D01*
X034484Y010071D02*
X032234Y010071D01*
X032234Y009953D02*
X034484Y009953D01*
X034484Y009834D02*
X032234Y009834D01*
X032234Y009716D02*
X034484Y009716D01*
X034484Y009597D02*
X032234Y009597D01*
X032234Y009478D02*
X034484Y009478D01*
X034484Y009360D02*
X032234Y009360D01*
X032234Y009241D02*
X034484Y009241D01*
X034484Y009123D02*
X032234Y009123D01*
X032234Y009004D02*
X034484Y009004D01*
X034484Y008886D02*
X032234Y008886D01*
X032234Y008767D02*
X034484Y008767D01*
X034484Y008649D02*
X032234Y008649D01*
X032234Y008530D02*
X034566Y008530D01*
X034692Y008412D02*
X032234Y008412D01*
X032234Y008293D02*
X034817Y008293D01*
X034943Y008174D02*
X032234Y008174D01*
X032234Y008056D02*
X035068Y008056D01*
X035194Y007937D02*
X032234Y007937D01*
X032234Y007819D02*
X035319Y007819D01*
X035507Y008174D02*
X038305Y008174D01*
X038433Y008293D02*
X035370Y008293D01*
X035233Y008412D02*
X038561Y008412D01*
X038688Y008530D02*
X035097Y008530D01*
X034960Y008649D02*
X038816Y008649D01*
X039814Y012205D02*
X041530Y012205D01*
X041466Y012324D02*
X039942Y012324D01*
X040034Y012442D02*
X041439Y012442D01*
X041559Y012561D02*
X040034Y012561D01*
X040034Y012679D02*
X041509Y012679D01*
X041647Y012798D02*
X040034Y012798D01*
X040034Y012916D02*
X041935Y012916D01*
X040372Y013035D02*
X040034Y013035D01*
X040034Y013153D02*
X040046Y013153D01*
X034484Y013983D02*
X032538Y013983D01*
X032510Y013983D02*
X032234Y013983D01*
X032234Y013865D02*
X032291Y013865D01*
X032234Y014102D02*
X034484Y014102D01*
X031834Y013983D02*
X029882Y013983D01*
X029953Y013962D02*
X029839Y013579D01*
X030222Y013465D01*
X030266Y013613D01*
X030100Y013918D01*
X029953Y013962D01*
X029924Y013865D02*
X029882Y013865D01*
X029889Y013746D02*
X029847Y013746D01*
X029854Y013627D02*
X029812Y013627D01*
X029828Y013540D02*
X030211Y013427D01*
X030167Y013279D01*
X029862Y013113D01*
X029714Y013157D01*
X029828Y013540D01*
X029818Y013509D02*
X029777Y013509D01*
X029783Y013390D02*
X029741Y013390D01*
X029748Y013272D02*
X029706Y013272D01*
X029726Y013153D02*
X029634Y013153D01*
X029634Y013035D02*
X031834Y013035D01*
X031834Y013153D02*
X029936Y013153D01*
X030154Y013272D02*
X031834Y013272D01*
X031834Y013390D02*
X030200Y013390D01*
X030235Y013509D02*
X031834Y013509D01*
X031834Y013627D02*
X030258Y013627D01*
X030194Y013746D02*
X031834Y013746D01*
X031834Y013865D02*
X030129Y013865D01*
X029911Y014102D02*
X029634Y014102D01*
X029634Y013983D02*
X029704Y013983D01*
X029284Y013983D02*
X027254Y013983D01*
X027186Y014003D02*
X027333Y013960D01*
X027499Y013654D01*
X027456Y013506D01*
X027072Y013620D01*
X027034Y013631D01*
X027022Y013593D01*
X026639Y013706D01*
X026595Y013559D01*
X026761Y013253D01*
X026909Y013209D01*
X027022Y013593D01*
X027061Y013581D01*
X027072Y013620D01*
X027186Y014003D01*
X027180Y013983D02*
X027138Y013983D01*
X027147Y014015D02*
X027000Y014058D01*
X026694Y013892D01*
X026650Y013745D01*
X027034Y013631D01*
X027147Y014015D01*
X027145Y013865D02*
X027103Y013865D01*
X027110Y013746D02*
X027068Y013746D01*
X027074Y013627D02*
X027047Y013627D01*
X027033Y013627D02*
X026905Y013627D01*
X026998Y013509D02*
X027039Y013509D01*
X027061Y013581D02*
X026947Y013198D01*
X027095Y013154D01*
X027401Y013320D01*
X027444Y013468D01*
X027061Y013581D01*
X027004Y013390D02*
X026962Y013390D01*
X026969Y013272D02*
X026927Y013272D01*
X026751Y013272D02*
X025984Y013272D01*
X025984Y013390D02*
X026687Y013390D01*
X026622Y013509D02*
X025984Y013509D01*
X025984Y013627D02*
X026616Y013627D01*
X026651Y013746D02*
X025984Y013746D01*
X025984Y013865D02*
X026686Y013865D01*
X026861Y013983D02*
X025984Y013983D01*
X025984Y014102D02*
X029284Y014102D01*
X029284Y014108D02*
X029284Y008758D01*
X028584Y008108D01*
X025984Y008108D01*
X025234Y008708D01*
X025234Y012058D01*
X025634Y011908D01*
X025984Y012208D01*
X025984Y014108D01*
X029284Y014108D01*
X029284Y013865D02*
X027385Y013865D01*
X027449Y013746D02*
X029284Y013746D01*
X029284Y013627D02*
X027492Y013627D01*
X027456Y013509D02*
X029284Y013509D01*
X029284Y013390D02*
X027421Y013390D01*
X027446Y013509D02*
X027305Y013509D01*
X027311Y013272D02*
X029284Y013272D01*
X029284Y013153D02*
X025984Y013153D01*
X025984Y013035D02*
X029284Y013035D01*
X029284Y012916D02*
X028211Y012916D01*
X028243Y012907D02*
X028096Y012950D01*
X027790Y012784D01*
X027746Y012637D01*
X028130Y012523D01*
X028118Y012485D01*
X027735Y012598D01*
X027691Y012451D01*
X027857Y012145D01*
X028005Y012101D01*
X028118Y012485D01*
X028157Y012473D01*
X028168Y012512D01*
X028130Y012523D01*
X028243Y012907D01*
X028282Y012895D02*
X028168Y012512D01*
X028552Y012398D01*
X028595Y012546D01*
X028429Y012852D01*
X028282Y012895D01*
X028253Y012798D02*
X028211Y012798D01*
X028218Y012679D02*
X028176Y012679D01*
X028183Y012561D02*
X028141Y012561D01*
X028157Y012473D02*
X028540Y012360D01*
X028496Y012212D01*
X028191Y012046D01*
X028043Y012090D01*
X028157Y012473D01*
X028147Y012442D02*
X028106Y012442D01*
X028112Y012324D02*
X028071Y012324D01*
X028077Y012205D02*
X028035Y012205D01*
X028055Y012086D02*
X025842Y012086D01*
X025704Y011968D02*
X029284Y011968D01*
X029284Y012086D02*
X028265Y012086D01*
X028483Y012205D02*
X029284Y012205D01*
X029284Y012324D02*
X028529Y012324D01*
X028565Y012442D02*
X029284Y012442D01*
X029284Y012561D02*
X028587Y012561D01*
X028523Y012679D02*
X029284Y012679D01*
X029284Y012798D02*
X028459Y012798D01*
X028404Y012442D02*
X028263Y012442D01*
X028003Y012561D02*
X027862Y012561D01*
X027724Y012561D02*
X025984Y012561D01*
X025984Y012679D02*
X027759Y012679D01*
X027815Y012798D02*
X025984Y012798D01*
X025984Y012916D02*
X028033Y012916D01*
X027696Y012442D02*
X025984Y012442D01*
X025984Y012324D02*
X027760Y012324D01*
X027825Y012205D02*
X025980Y012205D01*
X025474Y011968D02*
X025234Y011968D01*
X025234Y011849D02*
X029284Y011849D01*
X029284Y011731D02*
X025234Y011731D01*
X025234Y011612D02*
X029284Y011612D01*
X029284Y011494D02*
X025234Y011494D01*
X025234Y011375D02*
X029284Y011375D01*
X029284Y011257D02*
X025234Y011257D01*
X025234Y011138D02*
X029284Y011138D01*
X029284Y011020D02*
X025234Y011020D01*
X025234Y010901D02*
X029284Y010901D01*
X029284Y010782D02*
X025234Y010782D01*
X025234Y010664D02*
X029284Y010664D01*
X029284Y010545D02*
X025234Y010545D01*
X025234Y010427D02*
X029284Y010427D01*
X029284Y010308D02*
X025234Y010308D01*
X025234Y010190D02*
X029284Y010190D01*
X029284Y010071D02*
X025234Y010071D01*
X025234Y009953D02*
X029284Y009953D01*
X029284Y009834D02*
X025234Y009834D01*
X025234Y009716D02*
X029284Y009716D01*
X029284Y009597D02*
X025234Y009597D01*
X025234Y009478D02*
X029284Y009478D01*
X029284Y009360D02*
X025234Y009360D01*
X025234Y009241D02*
X029284Y009241D01*
X029284Y009123D02*
X025234Y009123D01*
X025234Y009004D02*
X029284Y009004D01*
X029284Y008886D02*
X025234Y008886D01*
X025234Y008767D02*
X029284Y008767D01*
X029166Y008649D02*
X025308Y008649D01*
X025456Y008530D02*
X029038Y008530D01*
X028911Y008412D02*
X025604Y008412D01*
X025752Y008293D02*
X028783Y008293D01*
X028655Y008174D02*
X025900Y008174D01*
X025574Y007937D02*
X024428Y007937D01*
X024302Y007819D02*
X025708Y007819D01*
X025439Y008056D02*
X024555Y008056D01*
X024681Y008174D02*
X025305Y008174D01*
X025171Y008293D02*
X024808Y008293D01*
X024934Y008412D02*
X025036Y008412D01*
X024784Y008758D02*
X024034Y008108D01*
X021334Y008108D01*
X020634Y008758D01*
X020634Y013208D01*
X020984Y012958D01*
X022425Y012958D01*
X022187Y012829D01*
X022143Y012681D01*
X022526Y012567D01*
X022515Y012529D01*
X022553Y012517D01*
X022440Y012134D01*
X022587Y012090D01*
X022893Y012256D01*
X022937Y012404D01*
X022554Y012517D01*
X022565Y012556D01*
X022948Y012442D01*
X022992Y012590D01*
X022826Y012896D01*
X022678Y012939D01*
X022565Y012556D01*
X022526Y012568D01*
X022640Y012951D01*
X022616Y012958D01*
X022734Y012958D01*
X024784Y012208D01*
X024784Y008758D01*
X024784Y008767D02*
X020634Y008767D01*
X020634Y008886D02*
X024784Y008886D01*
X024784Y009004D02*
X020634Y009004D01*
X020634Y009123D02*
X024784Y009123D01*
X024784Y009241D02*
X020634Y009241D01*
X020634Y009360D02*
X024784Y009360D01*
X024784Y009478D02*
X020634Y009478D01*
X020634Y009597D02*
X024784Y009597D01*
X024784Y009716D02*
X020634Y009716D01*
X020634Y009834D02*
X024784Y009834D01*
X024784Y009953D02*
X020634Y009953D01*
X020634Y010071D02*
X024784Y010071D01*
X024784Y010190D02*
X020634Y010190D01*
X020634Y010308D02*
X024784Y010308D01*
X024784Y010427D02*
X020634Y010427D01*
X020634Y010545D02*
X024784Y010545D01*
X024784Y010664D02*
X020634Y010664D01*
X020634Y010782D02*
X024784Y010782D01*
X024784Y010901D02*
X020634Y010901D01*
X020634Y011020D02*
X024784Y011020D01*
X024784Y011138D02*
X020634Y011138D01*
X020634Y011257D02*
X024784Y011257D01*
X024784Y011375D02*
X020634Y011375D01*
X020634Y011494D02*
X024784Y011494D01*
X024784Y011612D02*
X020634Y011612D01*
X020634Y011731D02*
X024784Y011731D01*
X024784Y011849D02*
X020634Y011849D01*
X020634Y011968D02*
X024784Y011968D01*
X024784Y012086D02*
X020634Y012086D01*
X020634Y012205D02*
X022245Y012205D01*
X022254Y012189D02*
X022401Y012145D01*
X022515Y012529D01*
X022131Y012643D01*
X022088Y012495D01*
X022254Y012189D01*
X022181Y012324D02*
X020634Y012324D01*
X020634Y012442D02*
X022116Y012442D01*
X022107Y012561D02*
X020634Y012561D01*
X020634Y012679D02*
X022149Y012679D01*
X022177Y012798D02*
X020634Y012798D01*
X020634Y012916D02*
X022348Y012916D01*
X022594Y012798D02*
X022636Y012798D01*
X022630Y012916D02*
X022671Y012916D01*
X022757Y012916D02*
X022848Y012916D01*
X022879Y012798D02*
X023172Y012798D01*
X022944Y012679D02*
X023496Y012679D01*
X023820Y012561D02*
X022983Y012561D01*
X022808Y012442D02*
X024144Y012442D01*
X024468Y012324D02*
X022913Y012324D01*
X022798Y012205D02*
X024784Y012205D01*
X022601Y012679D02*
X022559Y012679D01*
X022550Y012561D02*
X022566Y012561D01*
X022524Y012561D02*
X022408Y012561D01*
X022489Y012442D02*
X022531Y012442D01*
X022496Y012324D02*
X022454Y012324D01*
X022461Y012205D02*
X022419Y012205D01*
X020876Y013035D02*
X020634Y013035D01*
X020634Y013153D02*
X020710Y013153D01*
X020284Y013153D02*
X017934Y013153D01*
X017934Y013035D02*
X020284Y013035D01*
X020284Y013272D02*
X018836Y013272D01*
X018752Y013226D02*
X019058Y013392D01*
X019101Y013540D01*
X018718Y013654D01*
X018730Y013692D01*
X019113Y013578D01*
X019157Y013726D01*
X018991Y014032D01*
X018843Y014075D01*
X018729Y013692D01*
X018691Y013704D01*
X018805Y014087D01*
X018657Y014131D01*
X018351Y013965D01*
X018308Y013817D01*
X018691Y013703D01*
X018679Y013665D01*
X018296Y013779D01*
X018252Y013631D01*
X018418Y013325D01*
X018566Y013281D01*
X018680Y013665D01*
X018718Y013653D01*
X018604Y013270D01*
X018752Y013226D01*
X018605Y013272D02*
X017934Y013272D01*
X017934Y013390D02*
X018383Y013390D01*
X018319Y013509D02*
X017934Y013509D01*
X017934Y013627D02*
X018254Y013627D01*
X018287Y013746D02*
X017934Y013746D01*
X017934Y013865D02*
X018322Y013865D01*
X018386Y013983D02*
X017934Y013983D01*
X017934Y014102D02*
X018604Y014102D01*
X018755Y014102D02*
X020284Y014102D01*
X020284Y013983D02*
X019017Y013983D01*
X019081Y013865D02*
X020284Y013865D01*
X020284Y013746D02*
X019146Y013746D01*
X019127Y013627D02*
X020284Y013627D01*
X020284Y013509D02*
X019092Y013509D01*
X019054Y013390D02*
X020284Y013390D01*
X019810Y012679D02*
X019769Y012679D01*
X019776Y012561D02*
X019829Y012561D01*
X019734Y012561D02*
X019687Y012561D01*
X019699Y012442D02*
X019741Y012442D01*
X019706Y012324D02*
X019665Y012324D01*
X019672Y012205D02*
X019630Y012205D01*
X018640Y013390D02*
X018598Y013390D01*
X018633Y013509D02*
X018675Y013509D01*
X018669Y013627D02*
X018710Y013627D01*
X018806Y013627D02*
X018947Y013627D01*
X018745Y013746D02*
X018704Y013746D01*
X018739Y013865D02*
X018781Y013865D01*
X018774Y013983D02*
X018816Y013983D01*
X018547Y013746D02*
X018406Y013746D01*
X017634Y013746D02*
X016361Y013746D01*
X016368Y013733D02*
X016201Y014038D01*
X016053Y014082D01*
X015941Y013698D01*
X015902Y013709D01*
X015891Y013671D01*
X015507Y013783D01*
X015464Y013635D01*
X015631Y013330D01*
X015779Y013287D01*
X015891Y013670D01*
X015929Y013659D01*
X015817Y013275D01*
X015965Y013232D01*
X016270Y013399D01*
X016313Y013547D01*
X015930Y013659D01*
X015941Y013698D01*
X016325Y013585D01*
X016368Y013733D01*
X016337Y013627D02*
X017634Y013627D01*
X017634Y013509D02*
X016302Y013509D01*
X016254Y013390D02*
X017634Y013390D01*
X017634Y013272D02*
X016037Y013272D01*
X015829Y013272D02*
X015334Y013272D01*
X015334Y013390D02*
X015598Y013390D01*
X015533Y013509D02*
X015334Y013509D01*
X015334Y013627D02*
X015468Y013627D01*
X015496Y013746D02*
X015334Y013746D01*
X015334Y013865D02*
X015531Y013865D01*
X015518Y013821D02*
X015902Y013709D01*
X016014Y014093D01*
X015867Y014136D01*
X015562Y013969D01*
X015518Y013821D01*
X015633Y013746D02*
X015776Y013746D01*
X015913Y013746D02*
X015955Y013746D01*
X015948Y013865D02*
X015989Y013865D01*
X015982Y013983D02*
X016024Y013983D01*
X015984Y014102D02*
X017634Y014102D01*
X017634Y013983D02*
X016231Y013983D01*
X016296Y013865D02*
X017634Y013865D01*
X017634Y013153D02*
X015334Y013153D01*
X015334Y013035D02*
X017634Y013035D01*
X016923Y012798D02*
X016881Y012798D01*
X016885Y012679D02*
X016843Y012679D01*
X016847Y012561D02*
X016805Y012561D01*
X016809Y012442D02*
X016918Y012442D01*
X016786Y012442D02*
X016767Y012442D01*
X016771Y012324D02*
X016729Y012324D01*
X016733Y012205D02*
X016691Y012205D01*
X015851Y013390D02*
X015809Y013390D01*
X015844Y013509D02*
X015885Y013509D01*
X015878Y013627D02*
X015920Y013627D01*
X016038Y013627D02*
X016181Y013627D01*
X015804Y014102D02*
X015334Y014102D01*
X015334Y013983D02*
X015587Y013983D01*
X014984Y013983D02*
X013304Y013983D01*
X013280Y014030D02*
X013133Y014077D01*
X013011Y013697D01*
X012973Y013709D01*
X013095Y014090D01*
X012948Y014137D01*
X012639Y013978D01*
X012592Y013831D01*
X012973Y013709D01*
X012960Y013671D01*
X012580Y013793D01*
X012533Y013646D01*
X012692Y013337D01*
X012838Y013290D01*
X012960Y013670D01*
X012999Y013658D01*
X013011Y013696D01*
X013392Y013574D01*
X013439Y013721D01*
X013280Y014030D01*
X013103Y013983D02*
X013061Y013983D01*
X013065Y013865D02*
X013023Y013865D01*
X013027Y013746D02*
X012985Y013746D01*
X012999Y013658D02*
X013379Y013536D01*
X013332Y013390D01*
X013023Y013231D01*
X012876Y013278D01*
X012999Y013658D01*
X012989Y013627D02*
X012947Y013627D01*
X012951Y013509D02*
X012909Y013509D01*
X012913Y013390D02*
X012871Y013390D01*
X012894Y013272D02*
X010984Y013272D01*
X010984Y013390D02*
X012664Y013390D01*
X012603Y013509D02*
X010984Y013509D01*
X010984Y013627D02*
X012542Y013627D01*
X012565Y013746D02*
X010984Y013746D01*
X010984Y013865D02*
X012603Y013865D01*
X012650Y013983D02*
X010984Y013983D01*
X010984Y014102D02*
X012880Y014102D01*
X013057Y014102D02*
X014984Y014102D01*
X014984Y014208D02*
X010984Y014208D01*
X010984Y008808D01*
X011734Y008058D01*
X014234Y008058D01*
X014984Y008858D01*
X014984Y014208D01*
X014984Y013865D02*
X013365Y013865D01*
X013426Y013746D02*
X014984Y013746D01*
X014984Y013627D02*
X013409Y013627D01*
X013371Y013509D02*
X014984Y013509D01*
X014984Y013390D02*
X013333Y013390D01*
X013103Y013272D02*
X014984Y013272D01*
X014984Y013153D02*
X010984Y013153D01*
X010984Y013035D02*
X014984Y013035D01*
X014984Y012916D02*
X010984Y012916D01*
X010984Y012798D02*
X013466Y012798D01*
X013340Y012732D02*
X013294Y012586D01*
X013675Y012465D01*
X013796Y012846D01*
X013649Y012893D01*
X013340Y012732D01*
X013324Y012679D02*
X010984Y012679D01*
X010984Y012561D02*
X013373Y012561D01*
X013282Y012547D02*
X013235Y012401D01*
X013395Y012092D01*
X013542Y012045D01*
X013663Y012426D01*
X013701Y012414D01*
X013580Y012033D01*
X013727Y011987D01*
X014036Y012147D01*
X014082Y012294D01*
X013701Y012414D01*
X013714Y012453D01*
X014095Y012332D01*
X014141Y012478D01*
X013981Y012787D01*
X013834Y012834D01*
X013713Y012453D01*
X013675Y012465D01*
X013663Y012427D01*
X013282Y012547D01*
X013248Y012442D02*
X010984Y012442D01*
X010984Y012324D02*
X013275Y012324D01*
X013337Y012205D02*
X010984Y012205D01*
X010984Y012086D02*
X013413Y012086D01*
X013555Y012086D02*
X013597Y012086D01*
X013593Y012205D02*
X013635Y012205D01*
X013630Y012324D02*
X013672Y012324D01*
X013668Y012442D02*
X013614Y012442D01*
X013710Y012442D02*
X013747Y012442D01*
X013748Y012561D02*
X013705Y012561D01*
X013743Y012679D02*
X013785Y012679D01*
X013781Y012798D02*
X013823Y012798D01*
X013948Y012798D02*
X014984Y012798D01*
X014984Y012679D02*
X014037Y012679D01*
X014099Y012561D02*
X014984Y012561D01*
X014984Y012442D02*
X014129Y012442D01*
X013988Y012324D02*
X014984Y012324D01*
X014984Y012205D02*
X014054Y012205D01*
X013919Y012086D02*
X014984Y012086D01*
X014984Y011968D02*
X010984Y011968D01*
X010984Y011849D02*
X014984Y011849D01*
X014984Y011731D02*
X010984Y011731D01*
X010984Y011612D02*
X014984Y011612D01*
X014984Y011494D02*
X010984Y011494D01*
X010984Y011375D02*
X014984Y011375D01*
X014984Y011257D02*
X010984Y011257D01*
X010984Y011138D02*
X014984Y011138D01*
X014984Y011020D02*
X010984Y011020D01*
X010984Y010901D02*
X014984Y010901D01*
X014984Y010782D02*
X010984Y010782D01*
X010984Y010664D02*
X014984Y010664D01*
X014984Y010545D02*
X010984Y010545D01*
X010984Y010427D02*
X014984Y010427D01*
X014984Y010308D02*
X010984Y010308D01*
X010984Y010190D02*
X014984Y010190D01*
X014984Y010071D02*
X010984Y010071D01*
X010984Y009953D02*
X014984Y009953D01*
X014984Y009834D02*
X010984Y009834D01*
X010984Y009716D02*
X014984Y009716D01*
X014984Y009597D02*
X010984Y009597D01*
X010984Y009478D02*
X014984Y009478D01*
X014984Y009360D02*
X010984Y009360D01*
X010984Y009241D02*
X014984Y009241D01*
X014984Y009123D02*
X010984Y009123D01*
X010984Y009004D02*
X014984Y009004D01*
X014984Y008886D02*
X010984Y008886D01*
X011024Y008767D02*
X014899Y008767D01*
X014787Y008649D02*
X011143Y008649D01*
X011261Y008530D02*
X014676Y008530D01*
X014565Y008412D02*
X011380Y008412D01*
X011499Y008293D02*
X014454Y008293D01*
X014343Y008174D02*
X011617Y008174D01*
X008334Y008767D02*
X005173Y008767D01*
X005311Y008649D02*
X008274Y008649D01*
X008156Y008530D02*
X005449Y008530D01*
X005588Y008412D02*
X008037Y008412D01*
X007919Y008293D02*
X005726Y008293D01*
X005864Y008174D02*
X007800Y008174D01*
X007682Y008056D02*
X006003Y008056D01*
X006141Y007937D02*
X007563Y007937D01*
X008334Y008886D02*
X005034Y008886D01*
X004896Y009004D02*
X008334Y009004D01*
X008334Y009360D02*
X005413Y009360D01*
X005519Y009478D02*
X008334Y009478D01*
X008334Y009597D02*
X005519Y009597D01*
X005519Y009834D02*
X008334Y009834D01*
X008334Y009716D02*
X004994Y009716D01*
X004994Y009648D02*
X004994Y009123D01*
X005176Y009123D01*
X004994Y009241D02*
X004874Y009241D01*
X004874Y009123D02*
X004874Y009648D01*
X004994Y009648D01*
X004994Y009597D02*
X004874Y009597D01*
X004873Y009648D02*
X004349Y009648D01*
X004349Y009474D01*
X004134Y009658D01*
X004349Y009873D01*
X004349Y009768D01*
X004873Y009768D01*
X004873Y009648D01*
X004873Y009716D02*
X004191Y009716D01*
X004205Y009597D02*
X004349Y009597D01*
X004343Y009478D02*
X004349Y009478D01*
X004349Y009834D02*
X004310Y009834D01*
X004097Y010071D02*
X003645Y010071D01*
X003513Y010190D02*
X004215Y010190D01*
X004334Y010308D02*
X003380Y010308D01*
X003248Y010427D02*
X004452Y010427D01*
X004571Y010545D02*
X003115Y010545D01*
X002983Y010664D02*
X004690Y010664D01*
X004808Y010782D02*
X002850Y010782D01*
X002718Y010901D02*
X004927Y010901D01*
X005140Y010664D02*
X008334Y010664D01*
X008334Y010782D02*
X005258Y010782D01*
X005377Y010901D02*
X008334Y010901D01*
X008334Y011020D02*
X005495Y011020D01*
X005614Y011138D02*
X008334Y011138D01*
X008334Y010545D02*
X005021Y010545D01*
X004902Y010427D02*
X008334Y010427D01*
X008334Y010308D02*
X004784Y010308D01*
X004874Y010190D02*
X004994Y010190D01*
X004994Y010071D02*
X004874Y010071D01*
X004874Y009953D02*
X004994Y009953D01*
X004994Y009834D02*
X004874Y009834D01*
X004874Y009478D02*
X004994Y009478D01*
X004994Y009360D02*
X004874Y009360D01*
X004874Y009123D02*
X004758Y009123D01*
X005516Y009953D02*
X008334Y009953D01*
X008334Y010071D02*
X005398Y010071D01*
X005279Y010190D02*
X008334Y010190D01*
X009735Y013272D02*
X009777Y013272D01*
X009772Y013390D02*
X009814Y013390D01*
X009810Y013509D02*
X009852Y013509D01*
X009847Y013627D02*
X009877Y013627D01*
X009890Y013627D02*
X010010Y013627D01*
X009927Y013746D02*
X009885Y013746D01*
X009923Y013865D02*
X009965Y013865D01*
X009960Y013983D02*
X010002Y013983D01*
X010175Y013983D02*
X010634Y013983D01*
X010634Y013865D02*
X010237Y013865D01*
X010298Y013746D02*
X010634Y013746D01*
X010634Y013627D02*
X010309Y013627D01*
X010251Y013509D02*
X010634Y013509D01*
X010634Y013390D02*
X010234Y013390D01*
X010060Y013272D02*
X010634Y013272D01*
X010634Y014102D02*
X009838Y014102D01*
X012726Y013746D02*
X012857Y013746D01*
X013095Y013627D02*
X013226Y013627D01*
X020751Y008649D02*
X024658Y008649D01*
X024521Y008530D02*
X020879Y008530D01*
X021007Y008412D02*
X024384Y008412D01*
X024247Y008293D02*
X021134Y008293D01*
X021262Y008174D02*
X024110Y008174D01*
X028895Y007819D02*
X031834Y007819D01*
X031834Y007937D02*
X029013Y007937D01*
X029132Y008056D02*
X031834Y008056D01*
X031834Y008174D02*
X029250Y008174D01*
X029369Y008293D02*
X031834Y008293D01*
X031834Y008412D02*
X029487Y008412D01*
X029606Y008530D02*
X031834Y008530D01*
X031834Y008649D02*
X029634Y008649D01*
X029634Y008767D02*
X031834Y008767D01*
X031834Y008886D02*
X029634Y008886D01*
X029634Y009004D02*
X031834Y009004D01*
X031834Y009123D02*
X029634Y009123D01*
X029634Y009241D02*
X031834Y009241D01*
X031834Y009360D02*
X029634Y009360D01*
X029634Y009478D02*
X031834Y009478D01*
X031834Y009597D02*
X029634Y009597D01*
X029634Y009716D02*
X031834Y009716D01*
X031834Y009834D02*
X029634Y009834D01*
X029634Y009953D02*
X031834Y009953D01*
X031834Y010071D02*
X029634Y010071D01*
X029634Y010190D02*
X031834Y010190D01*
X031834Y010308D02*
X029634Y010308D01*
X029634Y010427D02*
X031834Y010427D01*
X031834Y010545D02*
X029634Y010545D01*
X029634Y010664D02*
X031834Y010664D01*
X031834Y010782D02*
X029634Y010782D01*
X029634Y010901D02*
X031834Y010901D01*
X031834Y011020D02*
X029634Y011020D01*
X029634Y011138D02*
X031834Y011138D01*
X031834Y011257D02*
X029634Y011257D01*
X029634Y011375D02*
X031834Y011375D01*
X031834Y011494D02*
X029634Y011494D01*
X029634Y011612D02*
X031834Y011612D01*
X031834Y011731D02*
X029634Y011731D01*
X029634Y011849D02*
X031834Y011849D01*
X031834Y011968D02*
X029634Y011968D01*
X029634Y012086D02*
X030700Y012086D01*
X030744Y012073D02*
X030597Y012117D01*
X030431Y012423D01*
X030474Y012570D01*
X030858Y012457D01*
X030869Y012495D01*
X030486Y012609D01*
X030529Y012756D01*
X030835Y012922D01*
X030983Y012879D01*
X030869Y012495D01*
X030908Y012484D01*
X031021Y012867D01*
X031169Y012824D01*
X031335Y012518D01*
X031291Y012370D01*
X030908Y012484D01*
X030896Y012445D01*
X030783Y012062D01*
X030930Y012018D01*
X031236Y012184D01*
X031280Y012332D01*
X030896Y012445D01*
X030858Y012457D01*
X030744Y012073D01*
X030748Y012086D02*
X030790Y012086D01*
X030783Y012205D02*
X030825Y012205D01*
X030818Y012324D02*
X030860Y012324D01*
X030853Y012442D02*
X030895Y012442D01*
X030907Y012442D02*
X031048Y012442D01*
X030930Y012561D02*
X030888Y012561D01*
X030924Y012679D02*
X030965Y012679D01*
X030959Y012798D02*
X031001Y012798D01*
X031183Y012798D02*
X031834Y012798D01*
X031834Y012916D02*
X030856Y012916D01*
X030824Y012916D02*
X029634Y012916D01*
X029634Y012798D02*
X030606Y012798D01*
X030507Y012679D02*
X029634Y012679D01*
X029634Y012561D02*
X030471Y012561D01*
X030507Y012561D02*
X030648Y012561D01*
X030436Y012442D02*
X029634Y012442D01*
X029634Y012324D02*
X030484Y012324D01*
X030549Y012205D02*
X029634Y012205D01*
X031056Y012086D02*
X031834Y012086D01*
X031834Y012205D02*
X031242Y012205D01*
X031277Y012324D02*
X031834Y012324D01*
X031834Y012442D02*
X031312Y012442D01*
X031311Y012561D02*
X031834Y012561D01*
X031834Y012679D02*
X031247Y012679D01*
X030074Y013509D02*
X029933Y013509D01*
X027034Y003314D02*
X024137Y003314D01*
X024089Y003196D02*
X027034Y003196D01*
X027034Y003077D02*
X023970Y003077D01*
X023852Y002959D02*
X027034Y002959D01*
X023133Y003077D02*
X022834Y003077D01*
X022834Y003196D02*
X023014Y003196D01*
X022967Y003314D02*
X022834Y003314D01*
X003978Y009953D02*
X003778Y009953D01*
X002894Y011138D02*
X002774Y011138D01*
X002774Y011257D02*
X002894Y011257D01*
X002894Y011375D02*
X002774Y011375D01*
X002774Y011731D02*
X002894Y011731D01*
X002894Y011849D02*
X002774Y011849D01*
X002774Y011968D02*
X002894Y011968D01*
X002894Y012086D02*
X002774Y012086D01*
X002249Y011731D02*
X002187Y011731D01*
X041410Y034587D02*
X041763Y034940D01*
X041763Y039430D01*
X057054Y021687D02*
X053765Y018398D01*
X053765Y017048D01*
X058884Y012916D02*
X060642Y012916D01*
X060600Y012798D02*
X058884Y012798D01*
X058034Y011612D02*
X062184Y011612D01*
X062184Y011494D02*
X058034Y011494D01*
X058034Y011375D02*
X062184Y011375D01*
X062184Y011257D02*
X058034Y011257D01*
X058034Y011138D02*
X062184Y011138D01*
X062184Y011020D02*
X058034Y011020D01*
X058034Y010901D02*
X062184Y010901D01*
X062184Y010782D02*
X058034Y010782D01*
X058034Y010664D02*
X062184Y010664D01*
X062184Y010545D02*
X058034Y010545D01*
X058034Y010427D02*
X062184Y010427D01*
X062184Y010308D02*
X058034Y010308D01*
X058034Y010190D02*
X062184Y010190D01*
X062184Y010071D02*
X058034Y010071D01*
X058034Y009953D02*
X062184Y009953D01*
X062184Y009834D02*
X058034Y009834D01*
X058034Y009716D02*
X062184Y009716D01*
X062184Y009597D02*
X058034Y009597D01*
X058034Y009478D02*
X062184Y009478D01*
X062184Y009360D02*
X058034Y009360D01*
X058034Y009241D02*
X062184Y009241D01*
X062184Y009123D02*
X058034Y009123D01*
X058034Y009004D02*
X062184Y009004D01*
X062184Y008886D02*
X058034Y008886D01*
X058080Y008767D02*
X062184Y008767D01*
X062119Y008649D02*
X058216Y008649D01*
X058351Y008530D02*
X061991Y008530D01*
X061863Y008412D02*
X058487Y008412D01*
X058622Y008293D02*
X061734Y008293D01*
X061606Y008174D02*
X058758Y008174D01*
X058454Y007937D02*
X057213Y007937D01*
X057095Y007819D02*
X058573Y007819D01*
X058336Y008056D02*
X057332Y008056D01*
X057450Y008174D02*
X058217Y008174D01*
X058099Y008293D02*
X057569Y008293D01*
X057687Y008412D02*
X057980Y008412D01*
X057861Y008530D02*
X057806Y008530D01*
X060284Y003551D02*
X063884Y003551D01*
X063884Y003433D02*
X060284Y003433D01*
X060284Y003314D02*
X063884Y003314D01*
X063884Y003196D02*
X060284Y003196D01*
X060284Y003077D02*
X063884Y003077D01*
X063884Y002959D02*
X060284Y002959D01*
X060284Y002840D02*
X063884Y002840D01*
X063884Y002721D02*
X060284Y002721D01*
D34*
X002434Y016674D03*
D35*
X002828Y015099D03*
X041410Y034587D03*
X055780Y027107D03*
X057054Y021687D03*
D36*
X051121Y038397D03*
X050121Y038397D03*
X050121Y039397D03*
X050121Y040397D03*
X051121Y040397D03*
X051121Y039397D03*
X052696Y039578D03*
X052696Y040578D03*
X052696Y041578D03*
X052696Y042578D03*
X052696Y043554D03*
X052696Y044554D03*
X054271Y043948D03*
X054271Y042971D03*
X054271Y041971D03*
X054271Y040971D03*
X054271Y039971D03*
X051121Y041397D03*
X050121Y041397D03*
X050121Y042373D03*
X051121Y042373D03*
X051121Y043373D03*
X050121Y043373D03*
X050121Y044373D03*
X050121Y045373D03*
X051121Y044373D03*
X049121Y044373D03*
X048121Y044373D03*
X048121Y045373D03*
X049121Y045373D03*
X047121Y045373D03*
X047121Y044373D03*
X046121Y044373D03*
X046121Y043373D03*
X047121Y043373D03*
X048121Y043373D03*
X048121Y042373D03*
X048121Y041397D03*
X049121Y041397D03*
X049121Y040397D03*
X048121Y040397D03*
X048121Y039397D03*
X049121Y039397D03*
X048121Y038397D03*
X047121Y039397D03*
X047121Y040397D03*
X046121Y040397D03*
X046121Y039397D03*
X046121Y038397D03*
X046121Y041397D03*
X047121Y041397D03*
X046121Y042373D03*
M02*
