%
M48
M72
T01C0.0240
T02C0.0276
T03C0.0315
T04C0.0320
T05C0.0394
T06C0.0400
T07C0.0440
T08C0.0520
T09C0.0590
T10C0.0866
T11C0.1260
T12C0.1300
%
T01
X34084Y30658
X31084Y32158
X28084Y34658
X27084Y34658
X23584Y38158
X26084Y42158
X29584Y44158
X29574Y46096
X31574Y46096
X30584Y41658
X35584Y38158
X39084Y38658
X39584Y38158
X40584Y36658
X41084Y33658
X36084Y34658
X31584Y36658
X37584Y45158
X24084Y45658
X44584Y25158
X40084Y20158
X51084Y34658
T02
X2434Y16674
T03
X2828Y15099
X41410Y34587
X55780Y27107
X57054Y21687
T04
X55390Y21163
X54189Y20050
X53217Y20076
X52225Y20050
X51081Y21134
X49979Y21118
X48878Y21113
X47626Y20271
X46626Y20271
X45626Y20271
X44626Y20271
X42578Y20610
X42578Y21599
X42578Y22588
X42578Y23577
X42578Y24566
X42578Y25655
X44626Y23271
X45626Y23271
X46626Y23271
X47626Y23271
X48878Y23113
X49979Y23118
X51081Y23134
X52225Y24050
X53217Y24076
X54189Y24050
X55390Y23163
X55072Y26162
X54072Y26162
X52103Y26107
X51103Y26107
X50103Y26107
X49103Y26107
X46529Y28075
X46529Y29075
X45513Y31044
X44438Y31083
X42438Y31083
X38578Y25655
X38578Y24566
X38578Y23577
X38578Y22588
X38578Y21599
X38578Y20610
X38578Y19621
X38578Y18632
X36574Y18687
X36574Y19687
X36574Y20687
X36574Y21687
X36574Y22687
X36574Y23687
X36574Y24687
X36574Y25687
X33574Y25687
X33574Y24687
X33574Y23687
X33574Y22687
X33574Y21687
X33574Y20687
X33574Y19687
X33574Y18687
X31593Y18699
X31593Y19699
X31593Y20699
X31593Y21699
X31593Y22699
X31593Y23699
X31593Y24699
X31593Y25699
X28593Y25699
X28593Y24699
X28593Y23699
X28593Y22699
X28593Y21699
X28593Y20699
X28593Y19699
X28593Y18699
X26589Y18673
X26589Y19762
X26589Y20751
X26589Y21740
X26589Y22729
X26589Y23718
X26589Y24707
X26589Y25696
X22589Y25696
X22589Y24707
X22589Y23718
X22589Y22729
X22589Y21740
X22589Y20751
X22589Y19762
X22589Y18673
X22162Y16654
X22162Y15654
X21466Y13641
X22540Y12542
X24308Y13634
X24987Y14652
X24987Y15652
X27047Y13606
X28143Y12498
X29814Y13565
X30345Y14652
X30345Y15652
X27583Y15673
X27583Y16673
X25302Y12505
X30883Y12470
X32567Y13537
X33181Y14663
X33181Y15663
X35259Y13597
X36403Y12401
X38043Y13581
X38738Y14668
X38738Y15668
X40808Y13625
X41878Y12445
X43537Y13548
X44088Y14668
X44088Y15668
X41374Y15673
X41374Y16673
X42578Y18632
X42578Y19621
X46881Y16644
X46881Y15644
X46226Y13569
X47372Y12412
X48955Y13650
X49714Y14668
X49714Y15668
X51704Y13692
X52586Y14568
X52586Y15568
X54437Y13722
X55539Y12556
X57152Y13762
X58272Y12586
X59885Y13819
X60988Y12626
X63720Y12683
X56833Y15242
X52791Y12514
X50061Y12433
X44643Y12489
X39094Y12461
X36003Y15654
X36003Y16654
X33649Y12429
X19755Y12562
X18705Y13679
X19269Y14666
X19269Y15666
X16333Y15555
X16333Y14555
X15916Y13684
X16794Y12461
X13688Y12440
X12986Y13684
X13150Y15678
X13150Y16678
X10063Y15680
X10063Y14680
X9875Y13649
X7780Y15426
X8891Y17752
X8891Y21752
X7629Y21721
X3629Y21721
X3660Y22880
X3660Y26880
X3201Y28946
X3201Y32946
X8695Y34813
X11184Y34011
X15184Y34011
X15596Y32507
X15596Y28507
X16846Y28533
X20846Y28533
X8695Y38813
X10111Y42931
X10111Y44331
X10109Y46660
X10109Y48060
X13024Y48127
X13024Y46127
X16100Y44668
X17245Y44640
X19444Y44549
X19444Y43549
X17245Y40640
X16100Y40668
X26444Y39863
X27444Y39863
X28444Y39863
X29444Y39863
X30444Y39863
X31444Y39863
X32444Y39863
X33444Y39863
X34444Y39863
X35444Y39863
X36444Y39863
X37444Y39863
X38444Y39863
X39444Y39863
X41763Y39430
X42973Y39430
X44147Y39408
X44147Y43408
X42973Y43430
X41763Y43430
X39444Y42863
X38444Y42863
X37444Y42863
X36444Y42863
X35444Y42863
X34444Y42863
X33444Y42863
X32444Y42863
X31444Y42863
X30444Y42863
X29444Y42863
X28444Y42863
X27444Y42863
X26444Y42863
X27587Y45139
X27587Y47139
X33596Y47128
X35009Y47122
X36329Y47135
X36329Y45135
X35009Y45122
X33596Y45128
X49513Y31044
X50627Y31044
X52009Y32422
X52627Y31044
X53737Y31044
X55737Y31044
X56009Y32422
X54131Y34365
X56246Y34831
X56246Y35831
X56268Y37204
X56268Y38204
X54131Y38365
X52103Y29107
X51103Y29107
X50103Y29107
X49103Y29107
X54009Y28682
X55009Y28682
X56833Y19242
X3780Y15426
T05
X21801Y33979
X19801Y34979
X21801Y35979
X56334Y41783
X56334Y42767
X56334Y43751
X62043Y43751
X62043Y41783
T06
X843Y926
X1843Y926
X2843Y926
X40835Y31263
X40835Y32263
X40586Y35758
X39586Y35758
X38586Y35758
X37586Y35758
X36586Y35758
X35586Y35758
X34586Y35758
X33586Y35758
X32586Y35758
X31586Y35758
X30586Y35758
X29586Y35758
X28586Y35758
X27586Y35758
X26586Y35758
X25586Y35758
X24018Y40051
X23018Y40051
X23018Y41051
X23018Y42051
X24018Y42051
X24018Y41051
X20706Y45854
X20706Y47634
X18146Y47634
X18146Y45854
X8875Y51466
X8997Y52458
X9118Y53451
X7784Y53907
X7626Y52647
X7518Y51348
X2846Y45760
X2846Y44760
X2846Y43760
X6075Y42540
X6075Y41540
X6075Y40540
X10502Y37281
X11502Y37281
X31680Y50451
X32673Y50329
X33665Y50208
X34658Y50086
X35650Y49964
X36643Y49842
X46121Y44373
X47121Y44373
X47121Y45373
X48121Y45373
X48121Y44373
X49121Y44373
X49121Y45373
X50121Y45373
X50121Y44373
X51121Y44373
X51121Y43373
X50121Y43373
X50121Y42373
X51121Y42373
X51121Y41397
X50121Y41397
X49121Y41397
X48121Y41397
X48121Y42373
X48121Y43373
X47121Y43373
X46121Y43373
X46121Y42373
X46121Y41397
X47121Y41397
X47121Y40397
X46121Y40397
X46121Y39397
X47121Y39397
X48121Y39397
X48121Y40397
X49121Y40397
X49121Y39397
X50121Y39397
X50121Y40397
X51121Y40397
X51121Y39397
X51121Y38397
X50121Y38397
X48121Y38397
X46121Y38397
X52696Y39578
X52696Y40578
X52696Y41578
X52696Y42578
X52696Y43554
X52696Y44554
X54271Y43948
X54271Y42971
X54271Y41971
X54271Y40971
X54271Y39971
X59399Y38737
X59399Y37737
X59399Y36737
X59399Y35784
X59399Y34784
X59399Y33784
X59717Y32256
X59717Y31256
X59717Y30256
X59717Y29256
X59717Y28256
X57513Y31272
X57513Y32272
X54765Y17048
X53765Y17048
X32528Y37775
T07
X18362Y26077
X16362Y26077
X16362Y24077
X18362Y24077
X13244Y24077
X11244Y24077
X11244Y26077
X13244Y26077
X13244Y29195
X11244Y29195
X11244Y31195
X13244Y31195
X7456Y31864
X5456Y31864
X5456Y29864
X7456Y29864
X8322Y26077
X6322Y26077
X6322Y24077
X8322Y24077
X11244Y20959
X13244Y20959
X13244Y18959
X11244Y18959
X7285Y45662
X7285Y49662
T08
X9914Y38524
X2834Y11608
X4934Y9708
X23552Y3486
X37719Y3436
X42211Y3436
X56361Y3536
X57099Y20453
X56903Y26516
T09
X58148Y26472
X61098Y26682
X62378Y24832
X59838Y23812
X59288Y22822
X58126Y19147
X61076Y19357
X62356Y17507
X59816Y16487
X59266Y15497
X7355Y35093
X4405Y34883
X3125Y36733
X5665Y37753
X6215Y38743
T10
X59287Y40365
X59287Y45169
T11
X61292Y46595
X29599Y50729
X10505Y35571
X20741Y19036
X55190Y15296
X4009Y53878
T12
X3188Y49782
X4368Y47812
X5548Y49782
X14853Y51739
M30
