G75*
G70*
%OFA0B0*%
%FSLAX24Y24*%
%IPPOS*%
%LPD*%
%AMOC8*
5,1,8,0,0,1.08239X$1,22.5*
%
%ADD10C,0.0520*%
%ADD11OC8,0.0600*%
%ADD12OC8,0.0520*%
%ADD13C,0.0440*%
%ADD14C,0.0660*%
%ADD15OC8,0.0630*%
%ADD16C,0.0630*%
%ADD17C,0.0600*%
%ADD18OC8,0.1900*%
%ADD19OC8,0.0850*%
%ADD20R,0.0594X0.0594*%
%ADD21R,0.1266X0.1266*%
%ADD22OC8,0.0885*%
%ADD23C,0.0885*%
%ADD24C,0.0740*%
%ADD25C,0.0104*%
%ADD26OC8,0.0660*%
%ADD27R,0.0700X0.0700*%
%ADD28C,0.0700*%
%ADD29C,0.0240*%
%ADD30C,0.0160*%
%ADD31C,0.0100*%
%ADD32OC8,0.0400*%
%ADD33C,0.0120*%
%ADD34C,0.0436*%
%ADD35OC8,0.0475*%
%ADD36C,0.0600*%
D10*
X028333Y018699D02*
X028853Y018699D01*
X028853Y019699D02*
X028333Y019699D01*
X028333Y020699D02*
X028853Y020699D01*
X028853Y021699D02*
X028333Y021699D01*
X028333Y022699D02*
X028853Y022699D01*
X028853Y023699D02*
X028333Y023699D01*
X028333Y024699D02*
X028853Y024699D01*
X028853Y025699D02*
X028333Y025699D01*
X031333Y025699D02*
X031853Y025699D01*
X031853Y024699D02*
X031333Y024699D01*
X031333Y023699D02*
X031853Y023699D01*
X031853Y022699D02*
X031333Y022699D01*
X031333Y021699D02*
X031853Y021699D01*
X031853Y020699D02*
X031333Y020699D01*
X031333Y019699D02*
X031853Y019699D01*
X031853Y018699D02*
X031333Y018699D01*
X033314Y018687D02*
X033834Y018687D01*
X033834Y019687D02*
X033314Y019687D01*
X033314Y020687D02*
X033834Y020687D01*
X033834Y021687D02*
X033314Y021687D01*
X033314Y022687D02*
X033834Y022687D01*
X033834Y023687D02*
X033314Y023687D01*
X033314Y024687D02*
X033834Y024687D01*
X033834Y025687D02*
X033314Y025687D01*
X036314Y025687D02*
X036834Y025687D01*
X036834Y024687D02*
X036314Y024687D01*
X036314Y023687D02*
X036834Y023687D01*
X036834Y022687D02*
X036314Y022687D01*
X036314Y021687D02*
X036834Y021687D01*
X036834Y020687D02*
X036314Y020687D01*
X036314Y019687D02*
X036834Y019687D01*
X036834Y018687D02*
X036314Y018687D01*
X044626Y020011D02*
X044626Y020531D01*
X045626Y020531D02*
X045626Y020011D01*
X046626Y020011D02*
X046626Y020531D01*
X047626Y020531D02*
X047626Y020011D01*
X047626Y023011D02*
X047626Y023531D01*
X046626Y023531D02*
X046626Y023011D01*
X045626Y023011D02*
X045626Y023531D01*
X044626Y023531D02*
X044626Y023011D01*
X049103Y025847D02*
X049103Y026367D01*
X050103Y026367D02*
X050103Y025847D01*
X051103Y025847D02*
X051103Y026367D01*
X052103Y026367D02*
X052103Y025847D01*
X052103Y028847D02*
X052103Y029367D01*
X051103Y029367D02*
X051103Y028847D01*
X050103Y028847D02*
X050103Y029367D01*
X049103Y029367D02*
X049103Y028847D01*
X039444Y039603D02*
X039444Y040123D01*
X038444Y040123D02*
X038444Y039603D01*
X037444Y039603D02*
X037444Y040123D01*
X036444Y040123D02*
X036444Y039603D01*
X035444Y039603D02*
X035444Y040123D01*
X034444Y040123D02*
X034444Y039603D01*
X033444Y039603D02*
X033444Y040123D01*
X032444Y040123D02*
X032444Y039603D01*
X031444Y039603D02*
X031444Y040123D01*
X030444Y040123D02*
X030444Y039603D01*
X029444Y039603D02*
X029444Y040123D01*
X028444Y040123D02*
X028444Y039603D01*
X027444Y039603D02*
X027444Y040123D01*
X026444Y040123D02*
X026444Y039603D01*
X026444Y042603D02*
X026444Y043123D01*
X027444Y043123D02*
X027444Y042603D01*
X028444Y042603D02*
X028444Y043123D01*
X029444Y043123D02*
X029444Y042603D01*
X030444Y042603D02*
X030444Y043123D01*
X031444Y043123D02*
X031444Y042603D01*
X032444Y042603D02*
X032444Y043123D01*
X033444Y043123D02*
X033444Y042603D01*
X034444Y042603D02*
X034444Y043123D01*
X035444Y043123D02*
X035444Y042603D01*
X036444Y042603D02*
X036444Y043123D01*
X037444Y043123D02*
X037444Y042603D01*
X038444Y042603D02*
X038444Y043123D01*
X039444Y043123D02*
X039444Y042603D01*
D11*
X024018Y042051D03*
X024018Y041051D03*
X023018Y041051D03*
X023018Y042051D03*
X023018Y040051D03*
X024018Y040051D03*
X007784Y053907D03*
X007626Y052647D03*
X007518Y051348D03*
D12*
X013024Y048127D03*
X013024Y046127D03*
X016100Y044668D03*
X017245Y044640D03*
X019444Y044549D03*
X019444Y043549D03*
X017245Y040640D03*
X016100Y040668D03*
X008695Y038813D03*
X008695Y034813D03*
X011184Y034011D03*
X015184Y034011D03*
X015596Y032507D03*
X015596Y028507D03*
X016846Y028533D03*
X020846Y028533D03*
X022589Y025696D03*
X022589Y024707D03*
X022589Y023718D03*
X022589Y022729D03*
X022589Y021740D03*
X022589Y020751D03*
X022589Y019762D03*
X022589Y018673D03*
X022162Y016654D03*
X022162Y015654D03*
X024987Y015652D03*
X024987Y014652D03*
X027583Y015673D03*
X027583Y016673D03*
X026589Y018673D03*
X026589Y019762D03*
X026589Y020751D03*
X026589Y021740D03*
X026589Y022729D03*
X026589Y023718D03*
X026589Y024707D03*
X026589Y025696D03*
X036003Y016654D03*
X036003Y015654D03*
X038738Y015668D03*
X038738Y014668D03*
X041374Y015673D03*
X041374Y016673D03*
X042578Y018632D03*
X042578Y019621D03*
X042578Y020610D03*
X042578Y021599D03*
X042578Y022588D03*
X042578Y023577D03*
X042578Y024566D03*
X042578Y025655D03*
X038578Y025655D03*
X038578Y024566D03*
X038578Y023577D03*
X038578Y022588D03*
X038578Y021599D03*
X038578Y020610D03*
X038578Y019621D03*
X038578Y018632D03*
X033181Y015663D03*
X033181Y014663D03*
X030345Y014652D03*
X030345Y015652D03*
X019269Y015666D03*
X019269Y014666D03*
X016333Y014555D03*
X016333Y015555D03*
X013150Y015678D03*
X013150Y016678D03*
X010063Y015680D03*
X010063Y014680D03*
X007780Y015426D03*
X008891Y017752D03*
X008891Y021752D03*
X007629Y021721D03*
X003629Y021721D03*
X003660Y022880D03*
X003660Y026880D03*
X003201Y028946D03*
X003201Y032946D03*
X003780Y015426D03*
X027587Y045139D03*
X027587Y047139D03*
X033596Y047128D03*
X035009Y047122D03*
X036329Y047135D03*
X036329Y045135D03*
X035009Y045122D03*
X033596Y045128D03*
X041763Y043430D03*
X042973Y043430D03*
X044147Y043408D03*
X044147Y039408D03*
X042973Y039430D03*
X041763Y039430D03*
X042438Y031083D03*
X044438Y031083D03*
X045513Y031044D03*
X049513Y031044D03*
X050627Y031044D03*
X052009Y032422D03*
X052627Y031044D03*
X053737Y031044D03*
X055737Y031044D03*
X056009Y032422D03*
X054131Y034365D03*
X056246Y034831D03*
X056246Y035831D03*
X056268Y037204D03*
X056268Y038204D03*
X054131Y038365D03*
X054189Y024050D03*
X053217Y024076D03*
X052225Y024050D03*
X051081Y023134D03*
X049979Y023118D03*
X048878Y023113D03*
X048878Y021113D03*
X049979Y021118D03*
X051081Y021134D03*
X052225Y020050D03*
X053217Y020076D03*
X054189Y020050D03*
X055390Y021163D03*
X056833Y019242D03*
X056833Y015242D03*
X052586Y015568D03*
X052586Y014568D03*
X049714Y014668D03*
X049714Y015668D03*
X046881Y015644D03*
X046881Y016644D03*
X044088Y015668D03*
X044088Y014668D03*
X055390Y023163D03*
D13*
X031574Y045876D02*
X031574Y046316D01*
X029574Y046316D02*
X029574Y045876D01*
D14*
X007285Y045662D03*
X007285Y049662D03*
D15*
X010109Y046660D03*
X010111Y044331D03*
D16*
X010111Y042931D03*
X010109Y048060D03*
D17*
X000843Y001226D02*
X000843Y000626D01*
X001843Y000626D02*
X001843Y001226D01*
X002843Y001226D02*
X002843Y000626D01*
X040535Y031263D02*
X041135Y031263D01*
X041135Y032263D02*
X040535Y032263D01*
X040586Y035458D02*
X040586Y036058D01*
X039586Y036058D02*
X039586Y035458D01*
X038586Y035458D02*
X038586Y036058D01*
X037586Y036058D02*
X037586Y035458D01*
X036586Y035458D02*
X036586Y036058D01*
X035586Y036058D02*
X035586Y035458D01*
X034586Y035458D02*
X034586Y036058D01*
X033586Y036058D02*
X033586Y035458D01*
X032586Y035458D02*
X032586Y036058D01*
X031586Y036058D02*
X031586Y035458D01*
X030586Y035458D02*
X030586Y036058D01*
X029586Y036058D02*
X029586Y035458D01*
X028586Y035458D02*
X028586Y036058D01*
X027586Y036058D02*
X027586Y035458D01*
X026586Y035458D02*
X026586Y036058D01*
X025586Y036058D02*
X025586Y035458D01*
X021006Y045854D02*
X020406Y045854D01*
X020406Y047634D02*
X021006Y047634D01*
X018446Y047634D02*
X017846Y047634D01*
X017846Y045854D02*
X018446Y045854D01*
X009172Y051429D02*
X008577Y051502D01*
X008699Y052495D02*
X009294Y052422D01*
X009416Y053414D02*
X008821Y053487D01*
X003146Y045760D02*
X002546Y045760D01*
X002546Y044760D02*
X003146Y044760D01*
X003146Y043760D02*
X002546Y043760D01*
X005775Y042540D02*
X006375Y042540D01*
X006375Y041540D02*
X005775Y041540D01*
X005775Y040540D02*
X006375Y040540D01*
X010502Y037581D02*
X010502Y036981D01*
X011502Y036981D02*
X011502Y037581D01*
X031644Y050154D02*
X031717Y050749D01*
X032709Y050627D02*
X032636Y050032D01*
X033629Y049910D02*
X033702Y050505D01*
X034694Y050383D02*
X034621Y049788D01*
X035614Y049666D02*
X035687Y050262D01*
X036679Y050140D02*
X036606Y049544D01*
X057213Y032272D02*
X057813Y032272D01*
X057813Y031272D02*
X057213Y031272D01*
X059417Y031256D02*
X060017Y031256D01*
X060017Y030256D02*
X059417Y030256D01*
X059417Y029256D02*
X060017Y029256D01*
X060017Y028256D02*
X059417Y028256D01*
X059417Y032256D02*
X060017Y032256D01*
X059699Y033784D02*
X059099Y033784D01*
X059099Y034784D02*
X059699Y034784D01*
X059699Y035784D02*
X059099Y035784D01*
X059099Y036737D02*
X059699Y036737D01*
X059699Y037737D02*
X059099Y037737D01*
X059099Y038737D02*
X059699Y038737D01*
X054765Y017348D02*
X054765Y016748D01*
X053765Y016748D02*
X053765Y017348D01*
D18*
X005548Y049782D03*
X004368Y047812D03*
X003188Y049782D03*
D19*
X009914Y038524D03*
X032528Y037775D03*
X056903Y026516D03*
X057099Y020453D03*
X056361Y003536D03*
X042211Y003436D03*
X037719Y003436D03*
X023552Y003486D03*
X004934Y009708D03*
X002834Y011608D03*
D20*
X056334Y041783D03*
X056334Y042767D03*
X056334Y043751D03*
X062043Y043751D03*
X062043Y041783D03*
D21*
X059287Y040365D03*
X059287Y045169D03*
D22*
X061098Y026682D03*
X062378Y024832D03*
X058148Y026472D03*
X058126Y019147D03*
X061076Y019357D03*
X062356Y017507D03*
X007355Y035093D03*
X004405Y034883D03*
X003125Y036733D03*
D23*
X005665Y037753D03*
X006215Y038743D03*
X059288Y022822D03*
X059838Y023812D03*
X059816Y016487D03*
X059266Y015497D03*
D24*
X021801Y033979D03*
X019801Y034979D03*
X021801Y035979D03*
D25*
X021343Y013730D02*
X021291Y013782D01*
X021443Y013864D01*
X021607Y013816D01*
X021689Y013664D01*
X021641Y013500D01*
X021489Y013418D01*
X021325Y013466D01*
X021243Y013618D01*
X021291Y013782D01*
X021357Y013728D01*
X021453Y013780D01*
X021553Y013750D01*
X021605Y013654D01*
X021575Y013554D01*
X021479Y013502D01*
X021379Y013532D01*
X021327Y013628D01*
X021357Y013728D01*
X021423Y013675D01*
X021461Y013696D01*
X021500Y013684D01*
X021521Y013646D01*
X021509Y013607D01*
X021471Y013586D01*
X021432Y013598D01*
X021411Y013636D01*
X021423Y013675D01*
X022417Y012631D02*
X022365Y012683D01*
X022517Y012765D01*
X022681Y012717D01*
X022763Y012565D01*
X022715Y012401D01*
X022563Y012319D01*
X022399Y012367D01*
X022317Y012519D01*
X022365Y012683D01*
X022431Y012629D01*
X022527Y012681D01*
X022627Y012651D01*
X022679Y012555D01*
X022649Y012455D01*
X022553Y012403D01*
X022453Y012433D01*
X022401Y012529D01*
X022431Y012629D01*
X022497Y012576D01*
X022535Y012597D01*
X022574Y012585D01*
X022595Y012547D01*
X022583Y012508D01*
X022545Y012487D01*
X022506Y012499D01*
X022485Y012537D01*
X022497Y012576D01*
X024185Y013723D02*
X024133Y013775D01*
X024285Y013857D01*
X024449Y013809D01*
X024531Y013657D01*
X024483Y013493D01*
X024331Y013411D01*
X024167Y013459D01*
X024085Y013611D01*
X024133Y013775D01*
X024199Y013721D01*
X024295Y013773D01*
X024395Y013743D01*
X024447Y013647D01*
X024417Y013547D01*
X024321Y013495D01*
X024221Y013525D01*
X024169Y013621D01*
X024199Y013721D01*
X024265Y013668D01*
X024303Y013689D01*
X024342Y013677D01*
X024363Y013639D01*
X024351Y013600D01*
X024313Y013579D01*
X024274Y013591D01*
X024253Y013629D01*
X024265Y013668D01*
X025179Y012594D02*
X025127Y012646D01*
X025279Y012728D01*
X025443Y012680D01*
X025525Y012528D01*
X025477Y012364D01*
X025325Y012282D01*
X025161Y012330D01*
X025079Y012482D01*
X025127Y012646D01*
X025193Y012592D01*
X025289Y012644D01*
X025389Y012614D01*
X025441Y012518D01*
X025411Y012418D01*
X025315Y012366D01*
X025215Y012396D01*
X025163Y012492D01*
X025193Y012592D01*
X025259Y012539D01*
X025297Y012560D01*
X025336Y012548D01*
X025357Y012510D01*
X025345Y012471D01*
X025307Y012450D01*
X025268Y012462D01*
X025247Y012500D01*
X025259Y012539D01*
X026924Y013695D02*
X026872Y013747D01*
X027024Y013829D01*
X027188Y013781D01*
X027270Y013629D01*
X027222Y013465D01*
X027070Y013383D01*
X026906Y013431D01*
X026824Y013583D01*
X026872Y013747D01*
X026938Y013693D01*
X027034Y013745D01*
X027134Y013715D01*
X027186Y013619D01*
X027156Y013519D01*
X027060Y013467D01*
X026960Y013497D01*
X026908Y013593D01*
X026938Y013693D01*
X027004Y013640D01*
X027042Y013661D01*
X027081Y013649D01*
X027102Y013611D01*
X027090Y013572D01*
X027052Y013551D01*
X027013Y013563D01*
X026992Y013601D01*
X027004Y013640D01*
X028020Y012587D02*
X027968Y012639D01*
X028120Y012721D01*
X028284Y012673D01*
X028366Y012521D01*
X028318Y012357D01*
X028166Y012275D01*
X028002Y012323D01*
X027920Y012475D01*
X027968Y012639D01*
X028034Y012585D01*
X028130Y012637D01*
X028230Y012607D01*
X028282Y012511D01*
X028252Y012411D01*
X028156Y012359D01*
X028056Y012389D01*
X028004Y012485D01*
X028034Y012585D01*
X028100Y012532D01*
X028138Y012553D01*
X028177Y012541D01*
X028198Y012503D01*
X028186Y012464D01*
X028148Y012443D01*
X028109Y012455D01*
X028088Y012493D01*
X028100Y012532D01*
X029691Y013654D02*
X029639Y013706D01*
X029791Y013788D01*
X029955Y013740D01*
X030037Y013588D01*
X029989Y013424D01*
X029837Y013342D01*
X029673Y013390D01*
X029591Y013542D01*
X029639Y013706D01*
X029705Y013652D01*
X029801Y013704D01*
X029901Y013674D01*
X029953Y013578D01*
X029923Y013478D01*
X029827Y013426D01*
X029727Y013456D01*
X029675Y013552D01*
X029705Y013652D01*
X029771Y013599D01*
X029809Y013620D01*
X029848Y013608D01*
X029869Y013570D01*
X029857Y013531D01*
X029819Y013510D01*
X029780Y013522D01*
X029759Y013560D01*
X029771Y013599D01*
X030760Y012559D02*
X030708Y012611D01*
X030860Y012693D01*
X031024Y012645D01*
X031106Y012493D01*
X031058Y012329D01*
X030906Y012247D01*
X030742Y012295D01*
X030660Y012447D01*
X030708Y012611D01*
X030774Y012557D01*
X030870Y012609D01*
X030970Y012579D01*
X031022Y012483D01*
X030992Y012383D01*
X030896Y012331D01*
X030796Y012361D01*
X030744Y012457D01*
X030774Y012557D01*
X030840Y012504D01*
X030878Y012525D01*
X030917Y012513D01*
X030938Y012475D01*
X030926Y012436D01*
X030888Y012415D01*
X030849Y012427D01*
X030828Y012465D01*
X030840Y012504D01*
X032444Y013626D02*
X032392Y013678D01*
X032544Y013760D01*
X032708Y013712D01*
X032790Y013560D01*
X032742Y013396D01*
X032590Y013314D01*
X032426Y013362D01*
X032344Y013514D01*
X032392Y013678D01*
X032458Y013624D01*
X032554Y013676D01*
X032654Y013646D01*
X032706Y013550D01*
X032676Y013450D01*
X032580Y013398D01*
X032480Y013428D01*
X032428Y013524D01*
X032458Y013624D01*
X032524Y013571D01*
X032562Y013592D01*
X032601Y013580D01*
X032622Y013542D01*
X032610Y013503D01*
X032572Y013482D01*
X032533Y013494D01*
X032512Y013532D01*
X032524Y013571D01*
X033526Y012518D02*
X033474Y012570D01*
X033626Y012652D01*
X033790Y012604D01*
X033872Y012452D01*
X033824Y012288D01*
X033672Y012206D01*
X033508Y012254D01*
X033426Y012406D01*
X033474Y012570D01*
X033540Y012516D01*
X033636Y012568D01*
X033736Y012538D01*
X033788Y012442D01*
X033758Y012342D01*
X033662Y012290D01*
X033562Y012320D01*
X033510Y012416D01*
X033540Y012516D01*
X033606Y012463D01*
X033644Y012484D01*
X033683Y012472D01*
X033704Y012434D01*
X033692Y012395D01*
X033654Y012374D01*
X033615Y012386D01*
X033594Y012424D01*
X033606Y012463D01*
X035136Y013686D02*
X035084Y013738D01*
X035236Y013820D01*
X035400Y013772D01*
X035482Y013620D01*
X035434Y013456D01*
X035282Y013374D01*
X035118Y013422D01*
X035036Y013574D01*
X035084Y013738D01*
X035150Y013684D01*
X035246Y013736D01*
X035346Y013706D01*
X035398Y013610D01*
X035368Y013510D01*
X035272Y013458D01*
X035172Y013488D01*
X035120Y013584D01*
X035150Y013684D01*
X035216Y013631D01*
X035254Y013652D01*
X035293Y013640D01*
X035314Y013602D01*
X035302Y013563D01*
X035264Y013542D01*
X035225Y013554D01*
X035204Y013592D01*
X035216Y013631D01*
X036280Y012490D02*
X036228Y012542D01*
X036380Y012624D01*
X036544Y012576D01*
X036626Y012424D01*
X036578Y012260D01*
X036426Y012178D01*
X036262Y012226D01*
X036180Y012378D01*
X036228Y012542D01*
X036294Y012488D01*
X036390Y012540D01*
X036490Y012510D01*
X036542Y012414D01*
X036512Y012314D01*
X036416Y012262D01*
X036316Y012292D01*
X036264Y012388D01*
X036294Y012488D01*
X036360Y012435D01*
X036398Y012456D01*
X036437Y012444D01*
X036458Y012406D01*
X036446Y012367D01*
X036408Y012346D01*
X036369Y012358D01*
X036348Y012396D01*
X036360Y012435D01*
X037920Y013670D02*
X037868Y013722D01*
X038020Y013804D01*
X038184Y013756D01*
X038266Y013604D01*
X038218Y013440D01*
X038066Y013358D01*
X037902Y013406D01*
X037820Y013558D01*
X037868Y013722D01*
X037934Y013668D01*
X038030Y013720D01*
X038130Y013690D01*
X038182Y013594D01*
X038152Y013494D01*
X038056Y013442D01*
X037956Y013472D01*
X037904Y013568D01*
X037934Y013668D01*
X038000Y013615D01*
X038038Y013636D01*
X038077Y013624D01*
X038098Y013586D01*
X038086Y013547D01*
X038048Y013526D01*
X038009Y013538D01*
X037988Y013576D01*
X038000Y013615D01*
X038971Y012550D02*
X038919Y012602D01*
X039071Y012684D01*
X039235Y012636D01*
X039317Y012484D01*
X039269Y012320D01*
X039117Y012238D01*
X038953Y012286D01*
X038871Y012438D01*
X038919Y012602D01*
X038985Y012548D01*
X039081Y012600D01*
X039181Y012570D01*
X039233Y012474D01*
X039203Y012374D01*
X039107Y012322D01*
X039007Y012352D01*
X038955Y012448D01*
X038985Y012548D01*
X039051Y012495D01*
X039089Y012516D01*
X039128Y012504D01*
X039149Y012466D01*
X039137Y012427D01*
X039099Y012406D01*
X039060Y012418D01*
X039039Y012456D01*
X039051Y012495D01*
X040685Y013714D02*
X040633Y013766D01*
X040785Y013848D01*
X040949Y013800D01*
X041031Y013648D01*
X040983Y013484D01*
X040831Y013402D01*
X040667Y013450D01*
X040585Y013602D01*
X040633Y013766D01*
X040699Y013712D01*
X040795Y013764D01*
X040895Y013734D01*
X040947Y013638D01*
X040917Y013538D01*
X040821Y013486D01*
X040721Y013516D01*
X040669Y013612D01*
X040699Y013712D01*
X040765Y013659D01*
X040803Y013680D01*
X040842Y013668D01*
X040863Y013630D01*
X040851Y013591D01*
X040813Y013570D01*
X040774Y013582D01*
X040753Y013620D01*
X040765Y013659D01*
X041755Y012534D02*
X041703Y012586D01*
X041855Y012668D01*
X042019Y012620D01*
X042101Y012468D01*
X042053Y012304D01*
X041901Y012222D01*
X041737Y012270D01*
X041655Y012422D01*
X041703Y012586D01*
X041769Y012532D01*
X041865Y012584D01*
X041965Y012554D01*
X042017Y012458D01*
X041987Y012358D01*
X041891Y012306D01*
X041791Y012336D01*
X041739Y012432D01*
X041769Y012532D01*
X041835Y012479D01*
X041873Y012500D01*
X041912Y012488D01*
X041933Y012450D01*
X041921Y012411D01*
X041883Y012390D01*
X041844Y012402D01*
X041823Y012440D01*
X041835Y012479D01*
X043414Y013637D02*
X043362Y013689D01*
X043514Y013771D01*
X043678Y013723D01*
X043760Y013571D01*
X043712Y013407D01*
X043560Y013325D01*
X043396Y013373D01*
X043314Y013525D01*
X043362Y013689D01*
X043428Y013635D01*
X043524Y013687D01*
X043624Y013657D01*
X043676Y013561D01*
X043646Y013461D01*
X043550Y013409D01*
X043450Y013439D01*
X043398Y013535D01*
X043428Y013635D01*
X043494Y013582D01*
X043532Y013603D01*
X043571Y013591D01*
X043592Y013553D01*
X043580Y013514D01*
X043542Y013493D01*
X043503Y013505D01*
X043482Y013543D01*
X043494Y013582D01*
X044520Y012578D02*
X044468Y012630D01*
X044620Y012712D01*
X044784Y012664D01*
X044866Y012512D01*
X044818Y012348D01*
X044666Y012266D01*
X044502Y012314D01*
X044420Y012466D01*
X044468Y012630D01*
X044534Y012576D01*
X044630Y012628D01*
X044730Y012598D01*
X044782Y012502D01*
X044752Y012402D01*
X044656Y012350D01*
X044556Y012380D01*
X044504Y012476D01*
X044534Y012576D01*
X044600Y012523D01*
X044638Y012544D01*
X044677Y012532D01*
X044698Y012494D01*
X044686Y012455D01*
X044648Y012434D01*
X044609Y012446D01*
X044588Y012484D01*
X044600Y012523D01*
X046103Y013658D02*
X046051Y013710D01*
X046203Y013792D01*
X046367Y013744D01*
X046449Y013592D01*
X046401Y013428D01*
X046249Y013346D01*
X046085Y013394D01*
X046003Y013546D01*
X046051Y013710D01*
X046117Y013656D01*
X046213Y013708D01*
X046313Y013678D01*
X046365Y013582D01*
X046335Y013482D01*
X046239Y013430D01*
X046139Y013460D01*
X046087Y013556D01*
X046117Y013656D01*
X046183Y013603D01*
X046221Y013624D01*
X046260Y013612D01*
X046281Y013574D01*
X046269Y013535D01*
X046231Y013514D01*
X046192Y013526D01*
X046171Y013564D01*
X046183Y013603D01*
X047249Y012501D02*
X047197Y012553D01*
X047349Y012635D01*
X047513Y012587D01*
X047595Y012435D01*
X047547Y012271D01*
X047395Y012189D01*
X047231Y012237D01*
X047149Y012389D01*
X047197Y012553D01*
X047263Y012499D01*
X047359Y012551D01*
X047459Y012521D01*
X047511Y012425D01*
X047481Y012325D01*
X047385Y012273D01*
X047285Y012303D01*
X047233Y012399D01*
X047263Y012499D01*
X047329Y012446D01*
X047367Y012467D01*
X047406Y012455D01*
X047427Y012417D01*
X047415Y012378D01*
X047377Y012357D01*
X047338Y012369D01*
X047317Y012407D01*
X047329Y012446D01*
X048832Y013739D02*
X048780Y013791D01*
X048932Y013873D01*
X049096Y013825D01*
X049178Y013673D01*
X049130Y013509D01*
X048978Y013427D01*
X048814Y013475D01*
X048732Y013627D01*
X048780Y013791D01*
X048846Y013737D01*
X048942Y013789D01*
X049042Y013759D01*
X049094Y013663D01*
X049064Y013563D01*
X048968Y013511D01*
X048868Y013541D01*
X048816Y013637D01*
X048846Y013737D01*
X048912Y013684D01*
X048950Y013705D01*
X048989Y013693D01*
X049010Y013655D01*
X048998Y013616D01*
X048960Y013595D01*
X048921Y013607D01*
X048900Y013645D01*
X048912Y013684D01*
X049938Y012522D02*
X049886Y012574D01*
X050038Y012656D01*
X050202Y012608D01*
X050284Y012456D01*
X050236Y012292D01*
X050084Y012210D01*
X049920Y012258D01*
X049838Y012410D01*
X049886Y012574D01*
X049952Y012520D01*
X050048Y012572D01*
X050148Y012542D01*
X050200Y012446D01*
X050170Y012346D01*
X050074Y012294D01*
X049974Y012324D01*
X049922Y012420D01*
X049952Y012520D01*
X050018Y012467D01*
X050056Y012488D01*
X050095Y012476D01*
X050116Y012438D01*
X050104Y012399D01*
X050066Y012378D01*
X050027Y012390D01*
X050006Y012428D01*
X050018Y012467D01*
X051581Y013781D02*
X051529Y013833D01*
X051681Y013915D01*
X051845Y013867D01*
X051927Y013715D01*
X051879Y013551D01*
X051727Y013469D01*
X051563Y013517D01*
X051481Y013669D01*
X051529Y013833D01*
X051595Y013779D01*
X051691Y013831D01*
X051791Y013801D01*
X051843Y013705D01*
X051813Y013605D01*
X051717Y013553D01*
X051617Y013583D01*
X051565Y013679D01*
X051595Y013779D01*
X051661Y013726D01*
X051699Y013747D01*
X051738Y013735D01*
X051759Y013697D01*
X051747Y013658D01*
X051709Y013637D01*
X051670Y013649D01*
X051649Y013687D01*
X051661Y013726D01*
X052668Y012603D02*
X052616Y012655D01*
X052768Y012737D01*
X052932Y012689D01*
X053014Y012537D01*
X052966Y012373D01*
X052814Y012291D01*
X052650Y012339D01*
X052568Y012491D01*
X052616Y012655D01*
X052682Y012601D01*
X052778Y012653D01*
X052878Y012623D01*
X052930Y012527D01*
X052900Y012427D01*
X052804Y012375D01*
X052704Y012405D01*
X052652Y012501D01*
X052682Y012601D01*
X052748Y012548D01*
X052786Y012569D01*
X052825Y012557D01*
X052846Y012519D01*
X052834Y012480D01*
X052796Y012459D01*
X052757Y012471D01*
X052736Y012509D01*
X052748Y012548D01*
X054314Y013811D02*
X054262Y013863D01*
X054414Y013945D01*
X054578Y013897D01*
X054660Y013745D01*
X054612Y013581D01*
X054460Y013499D01*
X054296Y013547D01*
X054214Y013699D01*
X054262Y013863D01*
X054328Y013809D01*
X054424Y013861D01*
X054524Y013831D01*
X054576Y013735D01*
X054546Y013635D01*
X054450Y013583D01*
X054350Y013613D01*
X054298Y013709D01*
X054328Y013809D01*
X054394Y013756D01*
X054432Y013777D01*
X054471Y013765D01*
X054492Y013727D01*
X054480Y013688D01*
X054442Y013667D01*
X054403Y013679D01*
X054382Y013717D01*
X054394Y013756D01*
X055416Y012645D02*
X055364Y012697D01*
X055516Y012779D01*
X055680Y012731D01*
X055762Y012579D01*
X055714Y012415D01*
X055562Y012333D01*
X055398Y012381D01*
X055316Y012533D01*
X055364Y012697D01*
X055430Y012643D01*
X055526Y012695D01*
X055626Y012665D01*
X055678Y012569D01*
X055648Y012469D01*
X055552Y012417D01*
X055452Y012447D01*
X055400Y012543D01*
X055430Y012643D01*
X055496Y012590D01*
X055534Y012611D01*
X055573Y012599D01*
X055594Y012561D01*
X055582Y012522D01*
X055544Y012501D01*
X055505Y012513D01*
X055484Y012551D01*
X055496Y012590D01*
X057029Y013851D02*
X056977Y013903D01*
X057129Y013985D01*
X057293Y013937D01*
X057375Y013785D01*
X057327Y013621D01*
X057175Y013539D01*
X057011Y013587D01*
X056929Y013739D01*
X056977Y013903D01*
X057043Y013849D01*
X057139Y013901D01*
X057239Y013871D01*
X057291Y013775D01*
X057261Y013675D01*
X057165Y013623D01*
X057065Y013653D01*
X057013Y013749D01*
X057043Y013849D01*
X057109Y013796D01*
X057147Y013817D01*
X057186Y013805D01*
X057207Y013767D01*
X057195Y013728D01*
X057157Y013707D01*
X057118Y013719D01*
X057097Y013757D01*
X057109Y013796D01*
X058149Y012675D02*
X058097Y012727D01*
X058249Y012809D01*
X058413Y012761D01*
X058495Y012609D01*
X058447Y012445D01*
X058295Y012363D01*
X058131Y012411D01*
X058049Y012563D01*
X058097Y012727D01*
X058163Y012673D01*
X058259Y012725D01*
X058359Y012695D01*
X058411Y012599D01*
X058381Y012499D01*
X058285Y012447D01*
X058185Y012477D01*
X058133Y012573D01*
X058163Y012673D01*
X058229Y012620D01*
X058267Y012641D01*
X058306Y012629D01*
X058327Y012591D01*
X058315Y012552D01*
X058277Y012531D01*
X058238Y012543D01*
X058217Y012581D01*
X058229Y012620D01*
X059762Y013908D02*
X059710Y013960D01*
X059862Y014042D01*
X060026Y013994D01*
X060108Y013842D01*
X060060Y013678D01*
X059908Y013596D01*
X059744Y013644D01*
X059662Y013796D01*
X059710Y013960D01*
X059776Y013906D01*
X059872Y013958D01*
X059972Y013928D01*
X060024Y013832D01*
X059994Y013732D01*
X059898Y013680D01*
X059798Y013710D01*
X059746Y013806D01*
X059776Y013906D01*
X059842Y013853D01*
X059880Y013874D01*
X059919Y013862D01*
X059940Y013824D01*
X059928Y013785D01*
X059890Y013764D01*
X059851Y013776D01*
X059830Y013814D01*
X059842Y013853D01*
X060865Y012715D02*
X060813Y012767D01*
X060965Y012849D01*
X061129Y012801D01*
X061211Y012649D01*
X061163Y012485D01*
X061011Y012403D01*
X060847Y012451D01*
X060765Y012603D01*
X060813Y012767D01*
X060879Y012713D01*
X060975Y012765D01*
X061075Y012735D01*
X061127Y012639D01*
X061097Y012539D01*
X061001Y012487D01*
X060901Y012517D01*
X060849Y012613D01*
X060879Y012713D01*
X060945Y012660D01*
X060983Y012681D01*
X061022Y012669D01*
X061043Y012631D01*
X061031Y012592D01*
X060993Y012571D01*
X060954Y012583D01*
X060933Y012621D01*
X060945Y012660D01*
X063597Y012772D02*
X063545Y012824D01*
X063697Y012906D01*
X063861Y012858D01*
X063943Y012706D01*
X063895Y012542D01*
X063743Y012460D01*
X063579Y012508D01*
X063497Y012660D01*
X063545Y012824D01*
X063611Y012770D01*
X063707Y012822D01*
X063807Y012792D01*
X063859Y012696D01*
X063829Y012596D01*
X063733Y012544D01*
X063633Y012574D01*
X063581Y012670D01*
X063611Y012770D01*
X063677Y012717D01*
X063715Y012738D01*
X063754Y012726D01*
X063775Y012688D01*
X063763Y012649D01*
X063725Y012628D01*
X063686Y012640D01*
X063665Y012678D01*
X063677Y012717D01*
X019632Y012650D02*
X019580Y012702D01*
X019731Y012785D01*
X019895Y012737D01*
X019978Y012586D01*
X019930Y012422D01*
X019779Y012339D01*
X019615Y012387D01*
X019532Y012538D01*
X019580Y012702D01*
X019646Y012649D01*
X019741Y012701D01*
X019842Y012671D01*
X019894Y012576D01*
X019864Y012475D01*
X019769Y012423D01*
X019668Y012453D01*
X019616Y012548D01*
X019646Y012649D01*
X019711Y012596D01*
X019750Y012617D01*
X019789Y012606D01*
X019810Y012567D01*
X019799Y012528D01*
X019760Y012507D01*
X019721Y012518D01*
X019700Y012557D01*
X019711Y012596D01*
X018582Y013768D02*
X018530Y013820D01*
X018682Y013902D01*
X018846Y013854D01*
X018928Y013702D01*
X018880Y013538D01*
X018728Y013456D01*
X018564Y013504D01*
X018482Y013656D01*
X018530Y013820D01*
X018596Y013766D01*
X018692Y013818D01*
X018792Y013788D01*
X018844Y013692D01*
X018814Y013592D01*
X018718Y013540D01*
X018618Y013570D01*
X018566Y013666D01*
X018596Y013766D01*
X018662Y013713D01*
X018700Y013734D01*
X018739Y013722D01*
X018760Y013684D01*
X018748Y013645D01*
X018710Y013624D01*
X018671Y013636D01*
X018650Y013674D01*
X018662Y013713D01*
X016675Y012554D02*
X016623Y012606D01*
X016776Y012685D01*
X016939Y012632D01*
X017018Y012479D01*
X016965Y012316D01*
X016812Y012237D01*
X016649Y012290D01*
X016570Y012443D01*
X016623Y012606D01*
X016687Y012551D01*
X016784Y012600D01*
X016884Y012568D01*
X016933Y012471D01*
X016901Y012371D01*
X016804Y012322D01*
X016704Y012354D01*
X016655Y012451D01*
X016687Y012551D01*
X016751Y012496D01*
X016790Y012516D01*
X016829Y012504D01*
X016849Y012465D01*
X016837Y012426D01*
X016798Y012406D01*
X016759Y012418D01*
X016739Y012457D01*
X016751Y012496D01*
X015793Y013772D02*
X015741Y013824D01*
X015892Y013907D01*
X016056Y013859D01*
X016139Y013708D01*
X016091Y013544D01*
X015940Y013461D01*
X015776Y013509D01*
X015693Y013660D01*
X015741Y013824D01*
X015807Y013771D01*
X015902Y013823D01*
X016003Y013793D01*
X016055Y013698D01*
X016025Y013597D01*
X015930Y013545D01*
X015829Y013575D01*
X015777Y013670D01*
X015807Y013771D01*
X015872Y013718D01*
X015911Y013739D01*
X015950Y013728D01*
X015971Y013689D01*
X015960Y013650D01*
X015921Y013629D01*
X015882Y013640D01*
X015861Y013679D01*
X015872Y013718D01*
X013568Y012532D02*
X013516Y012584D01*
X013669Y012664D01*
X013832Y012612D01*
X013912Y012459D01*
X013860Y012296D01*
X013707Y012216D01*
X013544Y012268D01*
X013464Y012421D01*
X013516Y012584D01*
X013581Y012529D01*
X013677Y012579D01*
X013777Y012547D01*
X013827Y012451D01*
X013795Y012351D01*
X013699Y012301D01*
X013599Y012333D01*
X013549Y012429D01*
X013581Y012529D01*
X013645Y012475D01*
X013684Y012495D01*
X013723Y012483D01*
X013743Y012444D01*
X013731Y012405D01*
X013692Y012385D01*
X013653Y012397D01*
X013633Y012436D01*
X013645Y012475D01*
X012867Y013777D02*
X012815Y013829D01*
X012968Y013908D01*
X013131Y013855D01*
X013210Y013702D01*
X013157Y013539D01*
X013004Y013460D01*
X012841Y013513D01*
X012762Y013666D01*
X012815Y013829D01*
X012879Y013774D01*
X012976Y013823D01*
X013076Y013791D01*
X013125Y013694D01*
X013093Y013594D01*
X012996Y013545D01*
X012896Y013577D01*
X012847Y013674D01*
X012879Y013774D01*
X012943Y013719D01*
X012982Y013739D01*
X013021Y013727D01*
X013041Y013688D01*
X013029Y013649D01*
X012990Y013629D01*
X012951Y013641D01*
X012931Y013680D01*
X012943Y013719D01*
X009755Y013741D02*
X009703Y013793D01*
X009856Y013873D01*
X010019Y013821D01*
X010099Y013668D01*
X010047Y013505D01*
X009894Y013425D01*
X009731Y013477D01*
X009651Y013630D01*
X009703Y013793D01*
X009768Y013738D01*
X009864Y013788D01*
X009964Y013756D01*
X010014Y013660D01*
X009982Y013560D01*
X009886Y013510D01*
X009786Y013542D01*
X009736Y013638D01*
X009768Y013738D01*
X009832Y013684D01*
X009871Y013704D01*
X009910Y013692D01*
X009930Y013653D01*
X009918Y013614D01*
X009879Y013594D01*
X009840Y013606D01*
X009820Y013645D01*
X009832Y013684D01*
D26*
X011244Y018959D03*
X013244Y018959D03*
X013244Y020959D03*
X011244Y020959D03*
X011244Y024077D03*
X013244Y024077D03*
X013244Y026077D03*
X011244Y026077D03*
X008322Y026077D03*
X006322Y026077D03*
X006322Y024077D03*
X008322Y024077D03*
X011244Y029195D03*
X013244Y029195D03*
X013244Y031195D03*
X011244Y031195D03*
X007456Y031864D03*
X005456Y031864D03*
X005456Y029864D03*
X007456Y029864D03*
X016362Y026077D03*
X018362Y026077D03*
X018362Y024077D03*
X016362Y024077D03*
D27*
X046529Y028075D03*
X054072Y026162D03*
X055009Y028682D03*
D28*
X054009Y028682D03*
X055072Y026162D03*
X046529Y029075D03*
D29*
X043084Y025158D02*
X032584Y025158D01*
X032084Y025658D01*
X031593Y025699D01*
X031593Y025900D01*
X027040Y030453D01*
X017651Y030453D01*
X015596Y032507D01*
X015184Y034011D02*
X015084Y034158D01*
X014084Y033158D01*
X010084Y033158D01*
X008584Y034658D01*
X008695Y034813D01*
X008584Y034658D02*
X007084Y033158D01*
X003084Y033158D01*
X003201Y032946D01*
X002584Y037158D02*
X002584Y017658D01*
X003615Y016626D01*
X002828Y015099D02*
X002834Y015093D01*
X002834Y011608D01*
X010063Y014680D02*
X010084Y014658D01*
X011084Y015658D01*
X013084Y015658D01*
X013150Y015678D01*
X013084Y015658D02*
X014084Y014658D01*
X016084Y014658D01*
X016333Y014555D01*
X019084Y014658D02*
X019269Y014666D01*
X019084Y014658D02*
X021084Y014658D01*
X022084Y015658D01*
X022162Y015654D01*
X022084Y015658D02*
X023084Y014658D01*
X025084Y014658D01*
X024987Y014652D01*
X025084Y014658D02*
X026084Y015658D01*
X027584Y015658D01*
X027583Y015673D01*
X031593Y019699D02*
X032084Y019658D01*
X032084Y020158D01*
X033084Y021158D01*
X034084Y021158D01*
X035084Y022158D01*
X035084Y024658D01*
X033584Y024658D01*
X033574Y024687D01*
X033084Y024658D01*
X032584Y025158D01*
X036084Y025658D02*
X036574Y025687D01*
X036084Y025658D02*
X029084Y032658D01*
X040084Y032658D01*
X040584Y032158D01*
X040835Y032263D01*
X043084Y025158D02*
X043084Y023158D01*
X044084Y022158D01*
X046584Y022158D01*
X047584Y023158D01*
X047626Y023271D01*
X053084Y024158D02*
X053217Y024076D01*
X053084Y024158D02*
X055084Y022158D01*
X056584Y022158D01*
X056660Y022081D01*
X057054Y021687D01*
X058084Y020658D01*
X063084Y020658D01*
X063084Y014658D01*
X063584Y014158D01*
X063584Y012658D01*
X063720Y012683D01*
X062356Y017507D02*
X062084Y017658D01*
X061584Y018158D01*
X053584Y018158D01*
X050084Y014658D01*
X049584Y014658D01*
X049714Y014668D01*
X049584Y014658D02*
X048084Y014658D01*
X047084Y015658D01*
X046881Y015644D01*
X047084Y015658D02*
X045084Y015658D01*
X044084Y014658D01*
X044088Y014668D01*
X044084Y014658D02*
X043084Y015658D01*
X041584Y015658D01*
X041374Y015673D01*
X041584Y015658D02*
X040584Y014658D01*
X038584Y014658D01*
X038738Y014668D01*
X038584Y014658D02*
X037084Y014658D01*
X036084Y015658D01*
X036003Y015654D01*
X036084Y015658D02*
X035084Y014658D01*
X033084Y014658D01*
X033181Y014663D01*
X029084Y032658D02*
X023584Y032658D01*
X022084Y034158D01*
X021801Y033979D01*
X021584Y034158D01*
X018084Y034158D01*
X019584Y035658D01*
X020084Y035658D01*
X020584Y035158D01*
X025084Y035158D01*
X025584Y035658D01*
X025586Y035758D01*
X026586Y035758D02*
X026584Y036158D01*
X026084Y036658D01*
X022584Y036658D01*
X022084Y036158D01*
X021801Y035979D01*
X018084Y034158D02*
X015084Y034158D01*
X017084Y040658D02*
X017245Y040640D01*
X017084Y040658D02*
X022584Y040658D01*
X023084Y040158D01*
X023018Y040051D01*
X022084Y041158D02*
X008084Y041158D01*
X006584Y039658D01*
X005084Y039658D01*
X002584Y037158D01*
X003584Y043158D02*
X010084Y043158D01*
X010111Y042931D01*
X010084Y044158D02*
X010111Y044331D01*
X010084Y044158D02*
X004584Y044158D01*
X004584Y047658D01*
X004368Y047812D01*
X007285Y045662D02*
X007584Y045658D01*
X010084Y048158D01*
X010109Y048060D01*
X011084Y049158D02*
X009084Y051158D01*
X008875Y051466D01*
X008584Y051658D01*
X008084Y051658D01*
X007584Y051158D01*
X007518Y051348D01*
X011084Y049158D02*
X032584Y049158D01*
X033584Y050158D01*
X033665Y050208D01*
X033584Y045158D02*
X027584Y045158D01*
X027587Y045139D01*
X027584Y045158D02*
X027084Y044658D01*
X019584Y044658D01*
X019444Y044549D01*
X018084Y045658D02*
X018146Y045854D01*
X018084Y045658D02*
X016584Y045658D01*
X016084Y046158D01*
X013024Y046127D01*
X004584Y044158D02*
X003584Y044158D01*
X003084Y044658D01*
X002846Y044760D01*
X002846Y043760D02*
X003084Y043658D01*
X003584Y043158D01*
X022084Y041158D02*
X023084Y042158D01*
X023018Y042051D01*
X033584Y045158D02*
X033596Y045128D01*
X033584Y045158D02*
X035084Y045158D01*
X035009Y045122D01*
D30*
X035009Y047122D02*
X035009Y047339D01*
X035485Y047815D01*
X037378Y047815D01*
X041763Y043430D01*
X054009Y026516D02*
X058749Y031256D01*
X059717Y031256D01*
X059717Y032256D01*
X059717Y030256D02*
X058930Y030256D01*
X055780Y027107D01*
X054009Y026516D02*
X054009Y026225D01*
X054072Y026162D01*
X043537Y013548D02*
X044596Y012489D01*
X044643Y012489D01*
X044643Y005867D01*
X042211Y003436D01*
X039094Y004811D02*
X037719Y003436D01*
X039094Y004811D02*
X039094Y012461D01*
X039094Y012529D01*
X038043Y013581D01*
X025302Y012641D02*
X024308Y013634D01*
X025302Y012641D02*
X025302Y012505D01*
X025302Y005236D01*
X023552Y003486D01*
X009875Y013649D02*
X008411Y013649D01*
X007552Y014508D01*
X004698Y014508D01*
X003780Y015426D01*
X003615Y016626D02*
X003568Y016626D01*
X003615Y016626D02*
X006580Y016626D01*
X007780Y015426D01*
X009317Y015426D01*
X010063Y014680D01*
D31*
X010084Y015658D02*
X010063Y015680D01*
X010084Y015658D02*
X012584Y018158D01*
X015084Y018158D01*
X022584Y025658D01*
X022589Y025696D01*
X022589Y024707D02*
X022584Y024658D01*
X015584Y017658D01*
X014084Y017658D01*
X013084Y016658D01*
X013150Y016678D01*
X011584Y020158D02*
X003084Y020158D01*
X003084Y022158D01*
X003584Y022658D01*
X003660Y022880D01*
X003629Y021721D02*
X003584Y021658D01*
X004084Y021158D01*
X008584Y021158D01*
X009084Y021658D01*
X008891Y021752D01*
X007629Y021721D02*
X007584Y021658D01*
X011084Y025158D01*
X017084Y025158D01*
X018084Y026158D01*
X018362Y026077D01*
X016362Y024077D02*
X016084Y024158D01*
X015584Y024658D01*
X011584Y024658D01*
X011084Y024158D01*
X011244Y024077D01*
X013244Y020959D02*
X013084Y020658D01*
X012084Y020658D01*
X011584Y020158D01*
X009084Y017658D01*
X008891Y017752D01*
X003584Y026658D02*
X003660Y026880D01*
X003584Y026658D02*
X007584Y030658D01*
X007584Y031658D01*
X007456Y031864D01*
X005456Y029864D02*
X005584Y029658D01*
X003584Y029658D01*
X003084Y029158D01*
X003201Y028946D01*
X010502Y037281D02*
X010584Y037658D01*
X007584Y037658D01*
X006584Y038658D01*
X006215Y038743D01*
X006075Y041540D02*
X006084Y041658D01*
X021584Y041658D01*
X023584Y043658D01*
X038084Y043658D01*
X038584Y043158D01*
X038444Y042863D01*
X038584Y042658D01*
X041084Y040158D01*
X043584Y040158D01*
X044084Y039658D01*
X044147Y039408D01*
X044584Y039658D02*
X044584Y038158D01*
X039584Y038158D01*
X040084Y038658D02*
X039084Y038658D01*
X040084Y038658D02*
X040084Y040158D01*
X039584Y040658D01*
X031584Y040658D01*
X030584Y041658D01*
X029584Y041158D02*
X030584Y040158D01*
X030444Y039863D01*
X029584Y040158D02*
X029444Y039863D01*
X029584Y040158D02*
X029084Y040658D01*
X024584Y040658D01*
X024084Y040158D01*
X024018Y040051D01*
X023584Y040158D02*
X023584Y039158D01*
X028084Y039158D01*
X028584Y039658D01*
X028444Y039863D01*
X029584Y041158D02*
X024084Y041158D01*
X024018Y041051D01*
X023084Y041158D02*
X023084Y040658D01*
X023584Y040158D01*
X023018Y041051D02*
X023084Y041158D01*
X026084Y042158D02*
X034084Y042158D01*
X034584Y042658D01*
X034444Y042863D01*
X036084Y045158D02*
X036329Y045135D01*
X036584Y045158D01*
X037584Y045158D01*
X036084Y045158D02*
X034084Y047158D01*
X034084Y047658D01*
X024084Y047658D01*
X024084Y045658D01*
X024084Y047658D02*
X021084Y047658D01*
X020706Y047634D01*
X017245Y044640D02*
X017084Y044658D01*
X018084Y043658D01*
X019584Y043658D01*
X019444Y043549D01*
X023584Y038158D02*
X024584Y037158D01*
X027584Y037158D01*
X028084Y036658D01*
X028084Y035158D01*
X029084Y034158D01*
X037084Y034158D01*
X038584Y035658D01*
X038586Y035758D01*
X040584Y036658D02*
X036084Y036658D01*
X035584Y036158D01*
X035586Y035758D01*
X036084Y034658D02*
X031584Y034658D01*
X030584Y035658D01*
X030586Y035758D01*
X031584Y036658D02*
X034584Y036658D01*
X035084Y037158D01*
X051084Y037158D01*
X053084Y039158D01*
X056084Y039158D01*
X056084Y041658D01*
X056334Y041783D01*
X058162Y039056D02*
X058747Y039050D01*
X058700Y039003D01*
X058629Y038830D01*
X058629Y038643D01*
X058700Y038470D01*
X058832Y038338D01*
X059005Y038267D01*
X059792Y038267D01*
X059965Y038338D01*
X060097Y038470D01*
X060169Y038643D01*
X060169Y038830D01*
X060097Y039003D01*
X060063Y039037D01*
X060190Y039036D01*
X061095Y039311D01*
X062287Y039357D01*
X061883Y030650D01*
X061883Y028288D01*
X061881Y025174D01*
X061785Y025077D01*
X061785Y024882D01*
X061881Y024882D01*
X061881Y024782D01*
X061785Y024782D01*
X061785Y024587D01*
X061881Y024491D01*
X061880Y021560D01*
X058013Y021138D01*
X057462Y021690D01*
X057462Y021856D01*
X057223Y022095D01*
X057057Y022095D01*
X056829Y022322D01*
X056748Y022404D01*
X056641Y022448D01*
X055204Y022448D01*
X053647Y024005D01*
X053647Y024254D01*
X053395Y024506D01*
X053039Y024506D01*
X052956Y024424D01*
X052941Y024413D01*
X052919Y024404D01*
X052895Y024379D01*
X052867Y024359D01*
X052855Y024339D01*
X052838Y024322D01*
X052826Y024293D01*
X052787Y024254D01*
X052787Y023898D01*
X053039Y023646D01*
X053185Y023646D01*
X054919Y021912D01*
X055026Y021868D01*
X055141Y021868D01*
X056463Y021868D01*
X056647Y021685D01*
X056647Y021519D01*
X056885Y021280D01*
X057051Y021280D01*
X057274Y021058D01*
X057185Y021048D01*
X056853Y021048D01*
X056812Y021008D01*
X056811Y021006D01*
X056504Y020700D01*
X056504Y020620D01*
X055520Y019378D01*
X053992Y019378D01*
X053864Y019249D01*
X053342Y018727D01*
X044027Y018658D01*
X043932Y021746D01*
X046280Y021666D01*
X045576Y020961D01*
X045540Y020961D01*
X045382Y020896D01*
X045261Y020775D01*
X045196Y020617D01*
X045196Y019926D01*
X045261Y019768D01*
X045382Y019647D01*
X045540Y019581D01*
X045711Y019581D01*
X045869Y019647D01*
X045990Y019768D01*
X046056Y019926D01*
X046056Y020617D01*
X045997Y020760D01*
X046882Y021645D01*
X048335Y021595D01*
X048330Y021938D01*
X050992Y021938D01*
X052787Y020144D01*
X052787Y019898D01*
X052655Y019898D01*
X052655Y019872D02*
X052403Y019620D01*
X052047Y019620D01*
X051795Y019872D01*
X051795Y019938D01*
X048056Y019938D01*
X048056Y019926D01*
X047990Y019768D01*
X047869Y019647D01*
X047711Y019581D01*
X047540Y019581D01*
X047382Y019647D01*
X047261Y019768D01*
X047196Y019926D01*
X047196Y020617D01*
X047261Y020775D01*
X047382Y020896D01*
X047540Y020961D01*
X047711Y020961D01*
X047869Y020896D01*
X047990Y020775D01*
X048056Y020617D01*
X048056Y020378D01*
X051944Y020378D01*
X052047Y020480D01*
X052403Y020480D01*
X052655Y020229D01*
X052655Y019872D01*
X052624Y019841D02*
X052624Y018722D01*
X052944Y018724D02*
X052944Y019741D01*
X053039Y019646D02*
X052787Y019898D01*
X052712Y020218D02*
X052655Y020218D01*
X052624Y020260D02*
X052624Y020307D01*
X052392Y020538D02*
X048056Y020538D01*
X048144Y020378D02*
X048144Y021602D01*
X048332Y021818D02*
X051112Y021818D01*
X051024Y021907D02*
X051024Y021544D01*
X051051Y021544D02*
X050911Y021544D01*
X050671Y021304D01*
X050671Y021164D01*
X051051Y021164D01*
X051051Y021544D01*
X051051Y021498D02*
X051111Y021498D01*
X051111Y021544D02*
X051111Y021164D01*
X051051Y021164D01*
X051051Y021104D01*
X050671Y021104D01*
X050671Y020964D01*
X050911Y020724D01*
X051051Y020724D01*
X051051Y021103D01*
X051111Y021103D01*
X051111Y020724D01*
X051251Y020724D01*
X051491Y020964D01*
X051491Y021104D01*
X051111Y021104D01*
X051111Y021164D01*
X051491Y021164D01*
X051491Y021304D01*
X051251Y021544D01*
X051111Y021544D01*
X051297Y021498D02*
X051432Y021498D01*
X051344Y021451D02*
X051344Y021587D01*
X051344Y021164D02*
X051344Y021104D01*
X051491Y021178D02*
X051752Y021178D01*
X051664Y021267D02*
X051664Y020378D01*
X051344Y020378D02*
X051344Y020817D01*
X051385Y020858D02*
X052072Y020858D01*
X051984Y020947D02*
X051984Y020417D01*
X052084Y020158D02*
X052225Y020050D01*
X052084Y020158D02*
X047584Y020158D01*
X047626Y020271D01*
X047196Y020218D02*
X047056Y020218D01*
X047056Y019926D02*
X047056Y020617D01*
X046990Y020775D01*
X046869Y020896D01*
X046711Y020961D01*
X046540Y020961D01*
X046382Y020896D01*
X046261Y020775D01*
X046196Y020617D01*
X046196Y019926D01*
X046261Y019768D01*
X046382Y019647D01*
X046540Y019581D01*
X046711Y019581D01*
X046869Y019647D01*
X046990Y019768D01*
X047056Y019926D01*
X047044Y019898D02*
X047207Y019898D01*
X047504Y019597D02*
X047504Y018684D01*
X047824Y018686D02*
X047824Y019628D01*
X048044Y019898D02*
X051795Y019898D01*
X051664Y019938D02*
X051664Y018715D01*
X051984Y018717D02*
X051984Y019684D01*
X052304Y019620D02*
X052304Y018719D01*
X051344Y018712D02*
X051344Y019938D01*
X051024Y019938D02*
X051024Y018710D01*
X050704Y018708D02*
X050704Y019938D01*
X050384Y019938D02*
X050384Y018705D01*
X050064Y018703D02*
X050064Y019938D01*
X049744Y019938D02*
X049744Y018701D01*
X049424Y018698D02*
X049424Y019938D01*
X049104Y019938D02*
X049104Y018696D01*
X048784Y018693D02*
X048784Y019938D01*
X048464Y019938D02*
X048464Y018691D01*
X048144Y018689D02*
X048144Y019938D01*
X048464Y020378D02*
X048464Y020919D01*
X048448Y020935D02*
X048700Y020683D01*
X049056Y020683D01*
X049308Y020935D01*
X049308Y021291D01*
X049056Y021543D01*
X048700Y021543D01*
X048448Y021291D01*
X048448Y020935D01*
X048525Y020858D02*
X047907Y020858D01*
X047824Y020915D02*
X047824Y021613D01*
X047504Y021624D02*
X047504Y020946D01*
X047344Y020858D02*
X046907Y020858D01*
X046864Y020898D02*
X046864Y021627D01*
X046735Y021498D02*
X048654Y021498D01*
X048784Y021543D02*
X048784Y021938D01*
X049104Y021938D02*
X049104Y021496D01*
X049101Y021498D02*
X049751Y021498D01*
X049744Y021491D02*
X049744Y021938D01*
X050064Y021938D02*
X050064Y021548D01*
X050157Y021548D02*
X049801Y021548D01*
X049549Y021296D01*
X049549Y020940D01*
X049801Y020688D01*
X050157Y020688D01*
X050409Y020940D01*
X050409Y021296D01*
X050157Y021548D01*
X050207Y021498D02*
X050865Y021498D01*
X050704Y021336D02*
X050704Y021938D01*
X050384Y021938D02*
X050384Y021321D01*
X050409Y021178D02*
X050671Y021178D01*
X050704Y021164D02*
X050704Y021104D01*
X050704Y020931D02*
X050704Y020378D01*
X051024Y020378D02*
X051024Y020724D01*
X051051Y020858D02*
X051111Y020858D01*
X051024Y021104D02*
X051024Y021164D01*
X051051Y021178D02*
X051111Y021178D01*
X050777Y020858D02*
X050327Y020858D01*
X050384Y020915D02*
X050384Y020378D01*
X050064Y020378D02*
X050064Y020688D01*
X049744Y020745D02*
X049744Y020378D01*
X049424Y020378D02*
X049424Y021938D01*
X049424Y022378D02*
X049424Y025559D01*
X049468Y025603D02*
X049533Y025761D01*
X049533Y026452D01*
X049468Y026610D01*
X049347Y026731D01*
X049189Y026797D01*
X049018Y026797D01*
X048860Y026731D01*
X048739Y026610D01*
X048673Y026452D01*
X048673Y025761D01*
X048739Y025603D01*
X048860Y025482D01*
X049018Y025417D01*
X049189Y025417D01*
X049347Y025482D01*
X049468Y025603D01*
X049490Y025658D02*
X049739Y025658D01*
X049744Y025650D02*
X049744Y023491D01*
X049801Y023548D02*
X049549Y023296D01*
X049549Y022940D01*
X049801Y022688D01*
X050157Y022688D01*
X050409Y022940D01*
X050409Y023172D01*
X052175Y024938D01*
X054492Y024938D01*
X054675Y024938D01*
X055175Y025438D01*
X055304Y025567D01*
X055304Y025695D01*
X055366Y025721D01*
X055513Y025867D01*
X055592Y026058D01*
X055592Y026265D01*
X055513Y026456D01*
X055366Y026603D01*
X055175Y026682D01*
X054968Y026682D01*
X054777Y026603D01*
X054631Y026456D01*
X054592Y026362D01*
X054592Y026582D01*
X054510Y026664D01*
X058852Y031006D01*
X059012Y031006D01*
X059019Y030990D01*
X059151Y030858D01*
X059324Y030786D01*
X060111Y030786D01*
X060284Y030858D01*
X060416Y030990D01*
X060487Y031163D01*
X060487Y031350D01*
X060416Y031523D01*
X060284Y031655D01*
X060111Y031726D01*
X059967Y031726D01*
X059967Y031786D01*
X060111Y031786D01*
X060284Y031858D01*
X060416Y031990D01*
X060487Y032163D01*
X060487Y032350D01*
X060416Y032523D01*
X060284Y032655D01*
X060111Y032726D01*
X059324Y032726D01*
X059151Y032655D01*
X059019Y032523D01*
X058947Y032350D01*
X058947Y032163D01*
X059019Y031990D01*
X059151Y031858D01*
X059324Y031786D01*
X059467Y031786D01*
X059467Y031726D01*
X059324Y031726D01*
X059151Y031655D01*
X059019Y031523D01*
X059012Y031506D01*
X058799Y031506D01*
X058699Y031506D01*
X058607Y031468D01*
X058258Y031119D01*
X058283Y031179D01*
X058283Y031366D01*
X058211Y031538D01*
X058079Y031671D01*
X057906Y031742D01*
X057119Y031742D01*
X056946Y031671D01*
X056814Y031538D01*
X056743Y031366D01*
X056743Y031179D01*
X056814Y031006D01*
X056946Y030874D01*
X057119Y030802D01*
X057906Y030802D01*
X057966Y030827D01*
X055529Y028390D01*
X055529Y029102D01*
X055429Y029202D01*
X054588Y029202D01*
X054489Y029102D01*
X054489Y028881D01*
X054450Y028976D01*
X054303Y029122D01*
X054112Y029202D01*
X053905Y029202D01*
X053867Y029186D01*
X050175Y032878D01*
X049992Y032878D01*
X043992Y032878D01*
X043864Y032749D01*
X042622Y031507D01*
X042616Y031513D01*
X042260Y031513D01*
X042008Y031261D01*
X042008Y030905D01*
X042260Y030653D01*
X042616Y030653D01*
X042868Y030905D01*
X042868Y031131D01*
X044175Y032438D01*
X049992Y032438D01*
X053535Y028896D01*
X053489Y028785D01*
X053489Y028578D01*
X053568Y028387D01*
X053714Y028241D01*
X053905Y028162D01*
X054112Y028162D01*
X054303Y028241D01*
X054450Y028387D01*
X054489Y028482D01*
X054489Y028261D01*
X054588Y028162D01*
X055301Y028162D01*
X053867Y026728D01*
X053821Y026682D01*
X053651Y026682D01*
X053552Y026582D01*
X053552Y025741D01*
X053651Y025642D01*
X054492Y025642D01*
X054592Y025741D01*
X054592Y025962D01*
X054631Y025867D01*
X054777Y025721D01*
X054819Y025704D01*
X054492Y025378D01*
X052175Y025378D01*
X051992Y025378D01*
X050160Y023545D01*
X050157Y023548D01*
X049801Y023548D01*
X049671Y023418D02*
X049181Y023418D01*
X049104Y023496D02*
X049104Y025417D01*
X048784Y025558D02*
X048784Y023543D01*
X048700Y023543D02*
X048448Y023291D01*
X048448Y022935D01*
X048700Y022683D01*
X049056Y022683D01*
X049308Y022935D01*
X049308Y023291D01*
X049056Y023543D01*
X048700Y023543D01*
X048574Y023418D02*
X048306Y023418D01*
X048464Y023307D02*
X048464Y032438D01*
X048784Y032438D02*
X048784Y029655D01*
X048739Y029610D02*
X048673Y029452D01*
X048673Y028761D01*
X048739Y028603D01*
X048860Y028482D01*
X049018Y028417D01*
X049189Y028417D01*
X049347Y028482D01*
X049468Y028603D01*
X049533Y028761D01*
X049533Y029452D01*
X049468Y029610D01*
X049347Y029731D01*
X049189Y029797D01*
X049018Y029797D01*
X048860Y029731D01*
X048739Y029610D01*
X048692Y029498D02*
X046841Y029498D01*
X046823Y029516D02*
X046632Y029595D01*
X046425Y029595D01*
X046234Y029516D01*
X046088Y029370D01*
X046009Y029179D01*
X046009Y028972D01*
X046088Y028781D01*
X046234Y028634D01*
X046329Y028595D01*
X046108Y028595D01*
X046009Y028496D01*
X046009Y027655D01*
X046108Y027555D01*
X046949Y027555D01*
X047048Y027655D01*
X047048Y028496D01*
X046949Y028595D01*
X046728Y028595D01*
X046823Y028634D01*
X046969Y028781D01*
X047048Y028972D01*
X047048Y029179D01*
X046969Y029370D01*
X046823Y029516D01*
X046864Y029475D02*
X046864Y032438D01*
X047184Y032438D02*
X047184Y024640D01*
X047110Y024698D02*
X051313Y024698D01*
X051344Y024729D02*
X051344Y025481D01*
X051347Y025482D02*
X051468Y025603D01*
X051533Y025761D01*
X051533Y026452D01*
X051468Y026610D01*
X051347Y026731D01*
X051189Y026797D01*
X051018Y026797D01*
X050860Y026731D01*
X050739Y026610D01*
X050673Y026452D01*
X050673Y025761D01*
X050739Y025603D01*
X050860Y025482D01*
X051018Y025417D01*
X051189Y025417D01*
X051347Y025482D01*
X051490Y025658D02*
X051739Y025658D01*
X051753Y025632D02*
X051791Y025580D01*
X051836Y025534D01*
X051888Y025496D01*
X051946Y025467D01*
X052007Y025447D01*
X052071Y025437D01*
X052073Y025437D01*
X052073Y026076D01*
X052133Y026076D01*
X052133Y025437D01*
X052136Y025437D01*
X052199Y025447D01*
X052261Y025467D01*
X052318Y025496D01*
X052370Y025534D01*
X052416Y025580D01*
X052454Y025632D01*
X052483Y025689D01*
X052503Y025751D01*
X052513Y025814D01*
X052513Y026077D01*
X052134Y026077D01*
X052134Y026137D01*
X052513Y026137D01*
X052513Y026399D01*
X052503Y026463D01*
X052483Y026524D01*
X052454Y026582D01*
X052416Y026634D01*
X052370Y026679D01*
X052318Y026717D01*
X052261Y026747D01*
X052199Y026767D01*
X052136Y026777D01*
X052133Y026777D01*
X052133Y026137D01*
X052073Y026137D01*
X052073Y026077D01*
X051693Y026077D01*
X051693Y025814D01*
X051703Y025751D01*
X051723Y025689D01*
X051753Y025632D01*
X051984Y025455D02*
X051984Y025369D01*
X051953Y025338D02*
X046298Y025338D01*
X046224Y025396D02*
X046224Y027555D01*
X046085Y027578D02*
X043455Y027578D01*
X043344Y027665D02*
X043344Y031607D01*
X043475Y031738D02*
X050692Y031738D01*
X050704Y031727D02*
X050704Y031474D01*
X050805Y031474D02*
X050449Y031474D01*
X050197Y031222D01*
X050197Y030866D01*
X050449Y030614D01*
X050805Y030614D01*
X051057Y030866D01*
X051057Y031222D01*
X050805Y031474D01*
X050861Y031418D02*
X051012Y031418D01*
X051024Y031407D02*
X051024Y031255D01*
X051057Y031098D02*
X051332Y031098D01*
X051344Y031087D02*
X051344Y029733D01*
X051347Y029731D02*
X051189Y029797D01*
X051018Y029797D01*
X050860Y029731D01*
X050739Y029610D01*
X050673Y029452D01*
X050673Y028761D01*
X050739Y028603D01*
X050860Y028482D01*
X051018Y028417D01*
X051189Y028417D01*
X051347Y028482D01*
X051468Y028603D01*
X051533Y028761D01*
X051533Y029452D01*
X051468Y029610D01*
X051347Y029731D01*
X051514Y029498D02*
X051692Y029498D01*
X051673Y029452D02*
X051739Y029610D01*
X051860Y029731D01*
X052018Y029797D01*
X052189Y029797D01*
X052347Y029731D01*
X052468Y029610D01*
X052533Y029452D01*
X052533Y028761D01*
X052468Y028603D01*
X052347Y028482D01*
X052189Y028417D01*
X052018Y028417D01*
X051860Y028482D01*
X051739Y028603D01*
X051673Y028761D01*
X051673Y029452D01*
X051673Y029178D02*
X051533Y029178D01*
X051533Y028858D02*
X051673Y028858D01*
X051804Y028538D02*
X051403Y028538D01*
X051344Y028481D02*
X051344Y026733D01*
X051460Y026618D02*
X051779Y026618D01*
X051791Y026634D02*
X051753Y026582D01*
X051723Y026524D01*
X051703Y026463D01*
X051693Y026399D01*
X051693Y026137D01*
X052073Y026137D01*
X052073Y026777D01*
X052071Y026777D01*
X052007Y026767D01*
X051946Y026747D01*
X051888Y026717D01*
X051836Y026679D01*
X051791Y026634D01*
X051984Y026759D02*
X051984Y028431D01*
X052304Y028464D02*
X052304Y026725D01*
X052428Y026618D02*
X053587Y026618D01*
X053584Y026614D02*
X053584Y028371D01*
X053505Y028538D02*
X052403Y028538D01*
X052533Y028858D02*
X053519Y028858D01*
X053264Y029167D02*
X053264Y025378D01*
X053584Y025378D02*
X053584Y025710D01*
X053635Y025658D02*
X052467Y025658D01*
X052304Y025489D02*
X052304Y025378D01*
X052084Y025158D02*
X054584Y025158D01*
X055084Y025658D01*
X055084Y026158D01*
X055072Y026162D01*
X054864Y026638D02*
X054864Y027018D01*
X054784Y026938D02*
X055373Y026938D01*
X055612Y026699D01*
X055949Y026699D01*
X056188Y026938D01*
X056188Y027161D01*
X059019Y029991D01*
X059019Y029990D01*
X059151Y029858D01*
X059324Y029786D01*
X060111Y029786D01*
X060284Y029858D01*
X060416Y029990D01*
X060487Y030163D01*
X060487Y030350D01*
X060416Y030523D01*
X060284Y030655D01*
X060111Y030726D01*
X059324Y030726D01*
X059151Y030655D01*
X059019Y030523D01*
X059012Y030506D01*
X058980Y030506D01*
X058880Y030506D01*
X058788Y030468D01*
X055834Y027514D01*
X055612Y027514D01*
X055373Y027276D01*
X055373Y026938D01*
X055504Y026807D02*
X055504Y026465D01*
X055578Y026298D02*
X056308Y026298D01*
X056308Y026270D02*
X056656Y025921D01*
X057149Y025921D01*
X057497Y026270D01*
X057497Y026763D01*
X057149Y027111D01*
X056656Y027111D01*
X056308Y026763D01*
X056308Y026270D01*
X056464Y026114D02*
X056464Y022448D01*
X056144Y022448D02*
X056144Y026894D01*
X056188Y026938D02*
X056483Y026938D01*
X056464Y026919D02*
X056464Y027436D01*
X056605Y027578D02*
X061883Y027578D01*
X061883Y027898D02*
X060290Y027898D01*
X060304Y027908D02*
X060304Y024212D01*
X060357Y024159D02*
X060185Y024331D01*
X059959Y024425D01*
X059716Y024425D01*
X059491Y024331D01*
X059318Y024159D01*
X059225Y023934D01*
X059225Y023690D01*
X059318Y023465D01*
X059349Y023435D01*
X059166Y023435D01*
X058941Y023341D01*
X058768Y023169D01*
X058675Y022944D01*
X058675Y022700D01*
X058768Y022475D01*
X058941Y022303D01*
X059166Y022210D01*
X059409Y022210D01*
X059635Y022303D01*
X059807Y022475D01*
X059900Y022700D01*
X059900Y022944D01*
X059807Y023169D01*
X059776Y023200D01*
X059959Y023200D01*
X060185Y023293D01*
X060357Y023465D01*
X060450Y023690D01*
X060450Y023934D01*
X060357Y024159D01*
X060399Y024058D02*
X061881Y024058D01*
X061881Y024378D02*
X060072Y024378D01*
X059984Y024414D02*
X059984Y027806D01*
X060053Y027806D02*
X060123Y027817D01*
X060190Y027839D01*
X060253Y027871D01*
X060311Y027913D01*
X060361Y027963D01*
X060402Y028021D01*
X060434Y028084D01*
X060456Y028151D01*
X060465Y028206D01*
X059768Y028206D01*
X059768Y028306D01*
X060465Y028306D01*
X060456Y028362D01*
X060434Y028429D01*
X060402Y028492D01*
X060361Y028549D01*
X060311Y028600D01*
X060253Y028641D01*
X060190Y028673D01*
X060123Y028695D01*
X060053Y028706D01*
X059767Y028706D01*
X059767Y028307D01*
X059667Y028307D01*
X059667Y028706D01*
X059382Y028706D01*
X059312Y028695D01*
X059245Y028673D01*
X059182Y028641D01*
X059124Y028600D01*
X059074Y028549D01*
X059033Y028492D01*
X059000Y028429D01*
X058979Y028362D01*
X058970Y028306D01*
X059667Y028306D01*
X059667Y028206D01*
X058970Y028206D01*
X058979Y028151D01*
X059000Y028084D01*
X059033Y028021D01*
X059074Y027963D01*
X059124Y027913D01*
X059182Y027871D01*
X059245Y027839D01*
X059312Y027817D01*
X059382Y027806D01*
X059667Y027806D01*
X059667Y028206D01*
X059767Y028206D01*
X059767Y027806D01*
X060053Y027806D01*
X059767Y027898D02*
X059667Y027898D01*
X059664Y027806D02*
X059664Y024403D01*
X059603Y024378D02*
X054440Y024378D01*
X054359Y024460D02*
X054219Y024460D01*
X054219Y024080D01*
X054159Y024080D01*
X054159Y024460D01*
X054019Y024460D01*
X053779Y024219D01*
X053779Y024080D01*
X054159Y024080D01*
X054159Y024019D01*
X054219Y024019D01*
X054219Y023640D01*
X054359Y023640D01*
X054599Y023880D01*
X054599Y024019D01*
X054219Y024019D01*
X054219Y024080D01*
X054599Y024080D01*
X054599Y024219D01*
X054359Y024460D01*
X054224Y024460D02*
X054224Y024938D01*
X054544Y024938D02*
X054544Y024275D01*
X054544Y024080D02*
X054544Y024019D01*
X054544Y023824D02*
X054544Y023108D01*
X054554Y023098D02*
X054980Y023098D01*
X054980Y023133D02*
X054980Y022993D01*
X055220Y022753D01*
X055360Y022753D01*
X055360Y023133D01*
X055420Y023133D01*
X055420Y023193D01*
X055800Y023193D01*
X055800Y023333D01*
X055560Y023573D01*
X055420Y023573D01*
X055420Y023193D01*
X055360Y023193D01*
X055360Y023133D01*
X054980Y023133D01*
X054980Y023193D02*
X055360Y023193D01*
X055360Y023573D01*
X055220Y023573D01*
X054980Y023333D01*
X054980Y023193D01*
X055184Y023193D02*
X055184Y023133D01*
X055360Y023098D02*
X055420Y023098D01*
X055420Y023133D02*
X055420Y022753D01*
X055560Y022753D01*
X055800Y022993D01*
X055800Y023133D01*
X055420Y023133D01*
X055504Y023133D02*
X055504Y023193D01*
X055420Y023418D02*
X055360Y023418D01*
X055504Y023573D02*
X055504Y025858D01*
X055558Y025978D02*
X056599Y025978D01*
X056784Y025921D02*
X056784Y022368D01*
X057014Y022138D02*
X061880Y022138D01*
X061880Y022458D02*
X059790Y022458D01*
X059664Y022332D02*
X059664Y021318D01*
X059984Y021353D02*
X059984Y023210D01*
X059836Y023098D02*
X061880Y023098D01*
X061881Y023418D02*
X060310Y023418D01*
X060304Y023412D02*
X060304Y021388D01*
X060624Y021423D02*
X060624Y026290D01*
X060615Y026298D02*
X058760Y026298D01*
X058760Y026218D02*
X058401Y025860D01*
X057894Y025860D01*
X057535Y026218D01*
X057535Y026726D01*
X057894Y027085D01*
X058401Y027085D01*
X058760Y026726D01*
X058760Y026218D01*
X058704Y026162D02*
X058704Y023013D01*
X058739Y023098D02*
X055800Y023098D01*
X055715Y023418D02*
X059126Y023418D01*
X059024Y023376D02*
X059024Y028038D01*
X059024Y028206D02*
X059024Y028306D01*
X059024Y028475D02*
X059024Y029038D01*
X059033Y029021D02*
X059074Y028963D01*
X059124Y028913D01*
X059182Y028871D01*
X059245Y028839D01*
X059312Y028817D01*
X059382Y028806D01*
X059667Y028806D01*
X059667Y029206D01*
X058970Y029206D01*
X058979Y029151D01*
X059000Y029084D01*
X059033Y029021D01*
X058974Y029178D02*
X058205Y029178D01*
X058064Y029036D02*
X058064Y027085D01*
X058384Y027085D02*
X058384Y029356D01*
X058525Y029498D02*
X059037Y029498D01*
X059033Y029492D02*
X059000Y029429D01*
X058979Y029362D01*
X058970Y029306D01*
X059667Y029306D01*
X059667Y029206D01*
X059767Y029206D01*
X059767Y028806D01*
X060053Y028806D01*
X060123Y028817D01*
X060190Y028839D01*
X060253Y028871D01*
X060311Y028913D01*
X060361Y028963D01*
X060402Y029021D01*
X060434Y029084D01*
X060456Y029151D01*
X060465Y029206D01*
X059768Y029206D01*
X059768Y029306D01*
X060465Y029306D01*
X060456Y029362D01*
X060434Y029429D01*
X060402Y029492D01*
X060361Y029549D01*
X060311Y029600D01*
X060253Y029641D01*
X060190Y029673D01*
X060123Y029695D01*
X060053Y029706D01*
X059767Y029706D01*
X059767Y029307D01*
X059667Y029307D01*
X059667Y029706D01*
X059382Y029706D01*
X059312Y029695D01*
X059245Y029673D01*
X059182Y029641D01*
X059124Y029600D01*
X059074Y029549D01*
X059033Y029492D01*
X059024Y029475D02*
X059024Y029986D01*
X058845Y029818D02*
X059248Y029818D01*
X059344Y029786D02*
X059344Y029700D01*
X059664Y029706D02*
X059664Y029786D01*
X059667Y029498D02*
X059767Y029498D01*
X059664Y029306D02*
X059664Y029206D01*
X059667Y029178D02*
X059767Y029178D01*
X059984Y029206D02*
X059984Y029306D01*
X060304Y029306D02*
X060304Y029206D01*
X060461Y029178D02*
X061883Y029178D01*
X061883Y029498D02*
X060398Y029498D01*
X060304Y029605D02*
X060304Y029878D01*
X060187Y029818D02*
X061883Y029818D01*
X061883Y030138D02*
X060477Y030138D01*
X060443Y030458D02*
X061883Y030458D01*
X061889Y030778D02*
X058624Y030778D01*
X058704Y030858D02*
X058704Y030383D01*
X058778Y030458D02*
X058304Y030458D01*
X058384Y030538D02*
X058384Y030063D01*
X058458Y030138D02*
X057984Y030138D01*
X058064Y030218D02*
X058064Y029743D01*
X058138Y029818D02*
X057664Y029818D01*
X057744Y029898D02*
X057744Y029423D01*
X057818Y029498D02*
X057344Y029498D01*
X057424Y029578D02*
X057424Y029103D01*
X057498Y029178D02*
X057024Y029178D01*
X057104Y029258D02*
X057104Y028783D01*
X057178Y028858D02*
X056704Y028858D01*
X056784Y028938D02*
X056784Y028463D01*
X056858Y028538D02*
X056384Y028538D01*
X056464Y028618D02*
X056464Y028143D01*
X056538Y028218D02*
X056064Y028218D01*
X056144Y028298D02*
X056144Y027823D01*
X056218Y027898D02*
X055744Y027898D01*
X055824Y027978D02*
X055824Y027514D01*
X055898Y027578D02*
X055424Y027578D01*
X055504Y027658D02*
X055504Y027406D01*
X055373Y027258D02*
X055104Y027258D01*
X055184Y027338D02*
X055184Y026678D01*
X055329Y026618D02*
X056308Y026618D01*
X055824Y026699D02*
X055824Y022448D01*
X055504Y022448D02*
X055504Y022753D01*
X055584Y022778D02*
X058675Y022778D01*
X058704Y022631D02*
X058704Y021214D01*
X059024Y021249D02*
X059024Y022268D01*
X058785Y022458D02*
X055194Y022458D01*
X055184Y022468D02*
X055184Y022790D01*
X055195Y022778D02*
X054874Y022778D01*
X054864Y022788D02*
X054864Y025127D01*
X054755Y025018D02*
X061785Y025018D01*
X061785Y024698D02*
X051935Y024698D01*
X051984Y024747D02*
X051984Y024417D01*
X051944Y024378D02*
X051615Y024378D01*
X051664Y024427D02*
X051664Y021889D01*
X051735Y021818D02*
X056513Y021818D01*
X056464Y021868D02*
X056464Y020568D01*
X056440Y020538D02*
X053015Y020538D01*
X053047Y020506D02*
X051175Y022378D01*
X050992Y022378D01*
X048323Y022378D01*
X048300Y023760D01*
X041804Y028878D01*
X039442Y031044D01*
X039442Y032368D01*
X039963Y032368D01*
X040065Y032266D01*
X040065Y032169D01*
X040137Y031996D01*
X040269Y031864D01*
X040442Y031793D01*
X041229Y031793D01*
X041401Y031864D01*
X041534Y031996D01*
X041605Y032169D01*
X041605Y032356D01*
X041534Y032529D01*
X041401Y032661D01*
X041229Y032733D01*
X040442Y032733D01*
X040426Y032726D01*
X040329Y032822D01*
X040323Y032828D01*
X053851Y033029D01*
X058126Y033009D01*
X058162Y039056D01*
X058384Y039053D02*
X058384Y031245D01*
X058261Y031418D02*
X058557Y031418D01*
X058704Y031506D02*
X058704Y033514D01*
X058700Y033518D02*
X058832Y033385D01*
X059005Y033314D01*
X059792Y033314D01*
X059965Y033385D01*
X060097Y033518D01*
X060169Y033690D01*
X060169Y033877D01*
X060097Y034050D01*
X059965Y034182D01*
X059792Y034254D01*
X059005Y034254D01*
X058832Y034182D01*
X058700Y034050D01*
X058629Y033877D01*
X058629Y033690D01*
X058700Y033518D01*
X058642Y033658D02*
X058130Y033658D01*
X058132Y033978D02*
X058670Y033978D01*
X058704Y034054D02*
X058704Y034514D01*
X058700Y034518D02*
X058832Y034385D01*
X059005Y034314D01*
X059792Y034314D01*
X059965Y034385D01*
X060097Y034518D01*
X060169Y034690D01*
X060169Y034877D01*
X060097Y035050D01*
X059965Y035182D01*
X059792Y035254D01*
X059005Y035254D01*
X058832Y035182D01*
X058700Y035050D01*
X058629Y034877D01*
X058629Y034690D01*
X058700Y034518D01*
X058659Y034618D02*
X058136Y034618D01*
X058138Y034938D02*
X058654Y034938D01*
X058704Y035054D02*
X058704Y035514D01*
X058700Y035518D02*
X058832Y035385D01*
X059005Y035314D01*
X059792Y035314D01*
X059965Y035385D01*
X060097Y035518D01*
X060169Y035690D01*
X060169Y035877D01*
X060097Y036050D01*
X059965Y036182D01*
X059792Y036254D01*
X059005Y036254D01*
X058832Y036182D01*
X058700Y036050D01*
X058629Y035877D01*
X058629Y035690D01*
X058700Y035518D01*
X058675Y035578D02*
X058141Y035578D01*
X058143Y035898D02*
X058637Y035898D01*
X058704Y036054D02*
X058704Y036467D01*
X058700Y036470D02*
X058832Y036338D01*
X059005Y036267D01*
X059792Y036267D01*
X059965Y036338D01*
X060097Y036470D01*
X060169Y036643D01*
X060169Y036830D01*
X060097Y037003D01*
X059965Y037135D01*
X059792Y037207D01*
X059005Y037207D01*
X058832Y037135D01*
X058700Y037003D01*
X058629Y036830D01*
X058629Y036643D01*
X058700Y036470D01*
X058672Y036538D02*
X058147Y036538D01*
X058149Y036858D02*
X058640Y036858D01*
X058704Y037006D02*
X058704Y037467D01*
X058700Y037470D02*
X058832Y037338D01*
X059005Y037267D01*
X059792Y037267D01*
X059965Y037338D01*
X060097Y037470D01*
X060169Y037643D01*
X060169Y037830D01*
X060097Y038003D01*
X059965Y038135D01*
X059792Y038207D01*
X059005Y038207D01*
X058832Y038135D01*
X058700Y038003D01*
X058629Y037830D01*
X058629Y037643D01*
X058700Y037470D01*
X058689Y037498D02*
X058153Y037498D01*
X058155Y037818D02*
X058629Y037818D01*
X058704Y038006D02*
X058704Y038467D01*
X058713Y038458D02*
X058159Y038458D01*
X058161Y038778D02*
X058629Y038778D01*
X058704Y039006D02*
X058704Y039050D01*
X059024Y038267D02*
X059024Y038207D01*
X058839Y038138D02*
X058157Y038138D01*
X058151Y037178D02*
X058936Y037178D01*
X059024Y037207D02*
X059024Y037267D01*
X059344Y037267D02*
X059344Y037207D01*
X059664Y037207D02*
X059664Y037267D01*
X059861Y037178D02*
X062186Y037178D01*
X062201Y037498D02*
X060108Y037498D01*
X059984Y037357D02*
X059984Y037116D01*
X060157Y036858D02*
X062171Y036858D01*
X062156Y036538D02*
X060125Y036538D01*
X059984Y036357D02*
X059984Y036164D01*
X059879Y036218D02*
X062141Y036218D01*
X062126Y035898D02*
X060160Y035898D01*
X060122Y035578D02*
X062111Y035578D01*
X062097Y035258D02*
X058140Y035258D01*
X058134Y034298D02*
X062052Y034298D01*
X062067Y034618D02*
X060139Y034618D01*
X059984Y034404D02*
X059984Y034164D01*
X060127Y033978D02*
X062037Y033978D01*
X062022Y033658D02*
X060155Y033658D01*
X059984Y033404D02*
X059984Y032726D01*
X060180Y032698D02*
X061978Y032698D01*
X061993Y033018D02*
X058126Y033018D01*
X058064Y033009D02*
X058064Y032646D01*
X058049Y032657D02*
X057985Y032689D01*
X057918Y032711D01*
X057848Y032722D01*
X057563Y032722D01*
X057563Y032322D01*
X058260Y032322D01*
X058252Y032377D01*
X058230Y032445D01*
X058198Y032508D01*
X058156Y032565D01*
X058106Y032615D01*
X058049Y032657D01*
X057958Y032698D02*
X059255Y032698D01*
X059344Y032726D02*
X059344Y033314D01*
X059664Y033314D02*
X059664Y032726D01*
X059850Y033338D02*
X062008Y033338D01*
X061963Y032378D02*
X060476Y032378D01*
X060304Y032635D02*
X060304Y039070D01*
X060394Y039098D02*
X062275Y039098D01*
X062224Y039354D02*
X062224Y037996D01*
X062230Y038138D02*
X059958Y038138D01*
X059984Y038116D02*
X059984Y038357D01*
X060085Y038458D02*
X062245Y038458D01*
X062260Y038778D02*
X060169Y038778D01*
X060624Y039168D02*
X060624Y027074D01*
X060487Y026938D02*
X058548Y026938D01*
X058704Y026782D02*
X058704Y029676D01*
X059024Y029306D02*
X059024Y029206D01*
X059344Y029206D02*
X059344Y029306D01*
X059208Y028858D02*
X057885Y028858D01*
X057744Y028716D02*
X057744Y026934D01*
X057747Y026938D02*
X057322Y026938D01*
X057424Y026836D02*
X057424Y028396D01*
X057565Y028538D02*
X059066Y028538D01*
X059344Y028700D02*
X059344Y028812D01*
X059664Y028806D02*
X059664Y028706D01*
X059667Y028858D02*
X059767Y028858D01*
X059984Y028806D02*
X059984Y028706D01*
X059767Y028538D02*
X059667Y028538D01*
X059664Y028306D02*
X059664Y028206D01*
X059667Y028218D02*
X057245Y028218D01*
X057104Y028076D02*
X057104Y027111D01*
X056784Y027111D02*
X056784Y027756D01*
X056925Y027898D02*
X059145Y027898D01*
X059344Y027812D02*
X059344Y024184D01*
X059276Y024058D02*
X054219Y024058D01*
X054224Y024080D02*
X054224Y024019D01*
X054159Y024019D02*
X054159Y023640D01*
X054019Y023640D01*
X053779Y023880D01*
X053779Y024019D01*
X054159Y024019D01*
X054159Y024058D02*
X053647Y024058D01*
X053904Y024080D02*
X053904Y024019D01*
X053904Y023755D02*
X053904Y023748D01*
X053914Y023738D02*
X053921Y023738D01*
X054159Y023738D02*
X054219Y023738D01*
X054224Y023640D02*
X054224Y023428D01*
X054234Y023418D02*
X055065Y023418D01*
X055184Y023537D02*
X055184Y025447D01*
X055175Y025438D02*
X055175Y025438D01*
X055075Y025338D02*
X061881Y025338D01*
X061882Y025658D02*
X055304Y025658D01*
X054773Y025658D02*
X054508Y025658D01*
X054544Y025693D02*
X054544Y025429D01*
X054224Y025378D02*
X054224Y025642D01*
X053904Y025642D02*
X053904Y025378D01*
X053904Y024938D02*
X053904Y024344D01*
X053938Y024378D02*
X053523Y024378D01*
X053584Y024317D02*
X053584Y024938D01*
X053264Y024938D02*
X053264Y024506D01*
X052944Y024415D02*
X052944Y024938D01*
X052624Y024938D02*
X052624Y024260D01*
X052655Y024229D02*
X052403Y024480D01*
X052047Y024480D01*
X051795Y024229D01*
X051795Y023872D01*
X052047Y023620D01*
X052403Y023620D01*
X052655Y023872D01*
X052655Y024229D01*
X052655Y024058D02*
X052787Y024058D01*
X052624Y023841D02*
X052624Y020929D01*
X052695Y020858D02*
X055087Y020858D01*
X055184Y020761D02*
X055184Y019378D01*
X055504Y019378D02*
X055504Y020733D01*
X055568Y020733D02*
X055820Y020985D01*
X055820Y021341D01*
X055568Y021593D01*
X055212Y021593D01*
X054960Y021341D01*
X054960Y020985D01*
X055212Y020733D01*
X055568Y020733D01*
X055693Y020858D02*
X056663Y020858D01*
X056784Y020979D02*
X056784Y021382D01*
X056667Y021498D02*
X055663Y021498D01*
X055504Y021593D02*
X055504Y021868D01*
X055824Y021868D02*
X055824Y019761D01*
X055932Y019898D02*
X054619Y019898D01*
X054619Y019871D02*
X054367Y019620D01*
X054011Y019620D01*
X053759Y019871D01*
X053759Y020228D01*
X054011Y020480D01*
X054367Y020480D01*
X054619Y020228D01*
X054619Y019871D01*
X054544Y019796D02*
X054544Y019378D01*
X054864Y019378D02*
X054864Y021968D01*
X054693Y022138D02*
X051415Y022138D01*
X051344Y022209D02*
X051344Y022788D01*
X051333Y022778D02*
X054053Y022778D01*
X053904Y022928D02*
X053904Y020372D01*
X053759Y020218D02*
X053647Y020218D01*
X053647Y020254D02*
X053395Y020506D01*
X053047Y020506D01*
X052944Y020609D02*
X052944Y023741D01*
X052947Y023738D02*
X052521Y023738D01*
X052304Y023620D02*
X052304Y021249D01*
X052375Y021178D02*
X054960Y021178D01*
X055117Y021498D02*
X052055Y021498D01*
X051984Y021569D02*
X051984Y023684D01*
X051929Y023738D02*
X050975Y023738D01*
X051024Y023787D02*
X051024Y023564D01*
X050903Y023564D02*
X050651Y023312D01*
X050651Y022956D01*
X050903Y022704D01*
X051259Y022704D01*
X051511Y022956D01*
X051511Y023312D01*
X051259Y023564D01*
X050903Y023564D01*
X050757Y023418D02*
X050655Y023418D01*
X050704Y023467D02*
X050704Y023364D01*
X050651Y023098D02*
X050409Y023098D01*
X050384Y022915D02*
X050384Y022378D01*
X050704Y022378D02*
X050704Y022903D01*
X050829Y022778D02*
X050247Y022778D01*
X050064Y022688D02*
X050064Y022378D01*
X049744Y022378D02*
X049744Y022745D01*
X049711Y022778D02*
X049150Y022778D01*
X049104Y022731D02*
X049104Y022378D01*
X048784Y022378D02*
X048784Y022683D01*
X048605Y022778D02*
X048316Y022778D01*
X048464Y022919D02*
X048464Y022378D01*
X048321Y022458D02*
X054373Y022458D01*
X054224Y022608D02*
X054224Y020480D01*
X054544Y020303D02*
X054544Y022288D01*
X055184Y021868D02*
X055184Y021565D01*
X055820Y021178D02*
X057153Y021178D01*
X057104Y021228D02*
X057104Y021048D01*
X056812Y021008D02*
X056812Y021008D01*
X057099Y020453D02*
X057084Y020158D01*
X060584Y020158D01*
X061084Y019658D01*
X061076Y019357D01*
X059344Y021284D02*
X059344Y022210D01*
X059900Y022778D02*
X061880Y022778D01*
X061881Y023738D02*
X060450Y023738D01*
X059344Y023440D02*
X059344Y023435D01*
X059225Y023738D02*
X054457Y023738D01*
X054219Y024378D02*
X054159Y024378D01*
X053264Y023568D02*
X053264Y020506D01*
X053584Y020317D02*
X053584Y023248D01*
X053733Y023098D02*
X051511Y023098D01*
X051405Y023418D02*
X053413Y023418D01*
X052893Y024378D02*
X052506Y024378D01*
X052304Y024480D02*
X052304Y024938D01*
X052084Y025158D02*
X050084Y023158D01*
X049979Y023118D01*
X049549Y023098D02*
X049308Y023098D01*
X050064Y023548D02*
X050064Y025438D01*
X050071Y025437D02*
X050073Y025437D01*
X050073Y026076D01*
X050133Y026076D01*
X050133Y025437D01*
X050136Y025437D01*
X050199Y025447D01*
X050261Y025467D01*
X050318Y025496D01*
X050370Y025534D01*
X050416Y025580D01*
X050454Y025632D01*
X050483Y025689D01*
X050503Y025751D01*
X050513Y025814D01*
X050513Y026077D01*
X050134Y026077D01*
X050134Y026137D01*
X050513Y026137D01*
X050513Y026399D01*
X050503Y026463D01*
X050483Y026524D01*
X050454Y026582D01*
X050416Y026634D01*
X050370Y026679D01*
X050318Y026717D01*
X050261Y026747D01*
X050199Y026767D01*
X050136Y026777D01*
X050133Y026777D01*
X050133Y026137D01*
X050073Y026137D01*
X050073Y026077D01*
X049693Y026077D01*
X049693Y025814D01*
X049703Y025751D01*
X049723Y025689D01*
X049753Y025632D01*
X049791Y025580D01*
X049836Y025534D01*
X049888Y025496D01*
X049946Y025467D01*
X050007Y025447D01*
X050071Y025437D01*
X050073Y025658D02*
X050133Y025658D01*
X050384Y025547D02*
X050384Y023769D01*
X050353Y023738D02*
X048301Y023738D01*
X048144Y023884D02*
X048144Y032438D01*
X047824Y032438D02*
X047824Y024136D01*
X047922Y024058D02*
X050673Y024058D01*
X050704Y024089D02*
X050704Y025688D01*
X050716Y025658D02*
X050467Y025658D01*
X050513Y025978D02*
X050673Y025978D01*
X050384Y026077D02*
X050384Y026137D01*
X050513Y026298D02*
X050673Y026298D01*
X050704Y026525D02*
X050704Y028688D01*
X050673Y028858D02*
X050533Y028858D01*
X050533Y028761D02*
X050533Y029452D01*
X050468Y029610D01*
X050347Y029731D01*
X050189Y029797D01*
X050018Y029797D01*
X049860Y029731D01*
X049739Y029610D01*
X049673Y029452D01*
X049673Y028761D01*
X049739Y028603D01*
X049860Y028482D01*
X050018Y028417D01*
X050189Y028417D01*
X050347Y028482D01*
X050468Y028603D01*
X050533Y028761D01*
X050403Y028538D02*
X050804Y028538D01*
X051024Y028417D02*
X051024Y026797D01*
X050746Y026618D02*
X050428Y026618D01*
X050384Y026666D02*
X050384Y028519D01*
X050064Y028417D02*
X050064Y026776D01*
X050071Y026777D02*
X050007Y026767D01*
X049946Y026747D01*
X049888Y026717D01*
X049836Y026679D01*
X049791Y026634D01*
X049753Y026582D01*
X049723Y026524D01*
X049703Y026463D01*
X049693Y026399D01*
X049693Y026137D01*
X050073Y026137D01*
X050073Y026777D01*
X050071Y026777D01*
X050073Y026618D02*
X050133Y026618D01*
X050133Y026298D02*
X050073Y026298D01*
X050064Y026137D02*
X050064Y026077D01*
X050073Y025978D02*
X050133Y025978D01*
X049744Y026077D02*
X049744Y026137D01*
X049693Y025978D02*
X049533Y025978D01*
X049533Y026298D02*
X049693Y026298D01*
X049744Y026564D02*
X049744Y028598D01*
X049804Y028538D02*
X049403Y028538D01*
X049424Y028559D02*
X049424Y026654D01*
X049460Y026618D02*
X049779Y026618D01*
X049104Y026797D02*
X049104Y028417D01*
X048804Y028538D02*
X047006Y028538D01*
X046864Y028595D02*
X046864Y028675D01*
X047001Y028858D02*
X048673Y028858D01*
X048784Y028558D02*
X048784Y026655D01*
X048746Y026618D02*
X044673Y026618D01*
X044624Y026657D02*
X044624Y030661D01*
X044616Y030653D02*
X044868Y030905D01*
X044868Y031261D01*
X044616Y031513D01*
X044260Y031513D01*
X044008Y031261D01*
X044008Y030905D01*
X044260Y030653D01*
X044616Y030653D01*
X044741Y030778D02*
X045170Y030778D01*
X045083Y030866D02*
X045335Y030614D01*
X045691Y030614D01*
X045943Y030866D01*
X045943Y031222D01*
X045691Y031474D01*
X045335Y031474D01*
X045083Y031222D01*
X045083Y030866D01*
X045083Y031098D02*
X044868Y031098D01*
X044711Y031418D02*
X045279Y031418D01*
X045264Y031403D02*
X045264Y032438D01*
X045584Y032438D02*
X045584Y031474D01*
X045747Y031418D02*
X049279Y031418D01*
X049335Y031474D02*
X049083Y031222D01*
X049083Y030866D01*
X049335Y030614D01*
X049691Y030614D01*
X049943Y030866D01*
X049943Y031222D01*
X049691Y031474D01*
X049335Y031474D01*
X049424Y031474D02*
X049424Y032438D01*
X049744Y032438D02*
X049744Y031421D01*
X049747Y031418D02*
X050393Y031418D01*
X050384Y031409D02*
X050384Y032047D01*
X050372Y032058D02*
X043795Y032058D01*
X043664Y031927D02*
X043664Y027413D01*
X043861Y027258D02*
X054397Y027258D01*
X054544Y027404D02*
X054544Y028206D01*
X054532Y028218D02*
X054248Y028218D01*
X054224Y028208D02*
X054224Y027084D01*
X054077Y026938D02*
X044267Y026938D01*
X044304Y026909D02*
X044304Y030653D01*
X044135Y030778D02*
X042741Y030778D01*
X042704Y030741D02*
X042704Y028170D01*
X042642Y028218D02*
X046009Y028218D01*
X046009Y027898D02*
X043049Y027898D01*
X043024Y027918D02*
X043024Y031287D01*
X043155Y031418D02*
X044165Y031418D01*
X044304Y031513D02*
X044304Y032438D01*
X044115Y032378D02*
X050052Y032378D01*
X050064Y032367D02*
X050064Y029797D01*
X050384Y029694D02*
X050384Y030679D01*
X050285Y030778D02*
X049855Y030778D01*
X049744Y030667D02*
X049744Y029615D01*
X049692Y029498D02*
X049514Y029498D01*
X049424Y029654D02*
X049424Y030614D01*
X049170Y030778D02*
X045855Y030778D01*
X045904Y030827D02*
X045904Y025648D01*
X045892Y025658D02*
X048716Y025658D01*
X048673Y025978D02*
X045485Y025978D01*
X045584Y025901D02*
X045584Y030614D01*
X045264Y030685D02*
X045264Y026153D01*
X045079Y026298D02*
X048673Y026298D01*
X046972Y027578D02*
X054717Y027578D01*
X054864Y027724D02*
X054864Y028162D01*
X055037Y027898D02*
X047048Y027898D01*
X047048Y028218D02*
X053769Y028218D01*
X053904Y028162D02*
X053904Y026764D01*
X053867Y026728D02*
X053867Y026728D01*
X053552Y026298D02*
X052513Y026298D01*
X052304Y026137D02*
X052304Y026077D01*
X052133Y025978D02*
X052073Y025978D01*
X051984Y026077D02*
X051984Y026137D01*
X052073Y026298D02*
X052133Y026298D01*
X052133Y026618D02*
X052073Y026618D01*
X051693Y026298D02*
X051533Y026298D01*
X051533Y025978D02*
X051693Y025978D01*
X052073Y025658D02*
X052133Y025658D01*
X052513Y025978D02*
X053552Y025978D01*
X052944Y025378D02*
X052944Y029487D01*
X052932Y029498D02*
X052514Y029498D01*
X052533Y029178D02*
X053252Y029178D01*
X053555Y029498D02*
X056637Y029498D01*
X056784Y029644D02*
X056784Y031080D01*
X056776Y031098D02*
X056167Y031098D01*
X056167Y031222D02*
X055915Y031474D01*
X055559Y031474D01*
X055307Y031222D01*
X055307Y030866D01*
X055559Y030614D01*
X055915Y030614D01*
X056167Y030866D01*
X056167Y031222D01*
X056144Y031245D02*
X056144Y031992D01*
X056187Y031992D02*
X056439Y032244D01*
X056439Y032600D01*
X056187Y032852D01*
X055831Y032852D01*
X055579Y032600D01*
X055579Y032244D01*
X055831Y031992D01*
X056187Y031992D01*
X056253Y032058D02*
X056817Y032058D01*
X056828Y032036D02*
X056869Y031979D01*
X056920Y031929D01*
X056977Y031887D01*
X057040Y031855D01*
X057107Y031833D01*
X057177Y031822D01*
X057463Y031822D01*
X057463Y032222D01*
X057563Y032222D01*
X057563Y032322D01*
X057463Y032322D01*
X057463Y032722D01*
X057177Y032722D01*
X057107Y032711D01*
X057040Y032689D01*
X056977Y032657D01*
X056920Y032615D01*
X056869Y032565D01*
X056828Y032508D01*
X056796Y032445D01*
X056774Y032377D01*
X056765Y032322D01*
X057463Y032322D01*
X057463Y032222D01*
X056765Y032222D01*
X056774Y032167D01*
X056796Y032099D01*
X056828Y032036D01*
X056784Y032137D02*
X056784Y031464D01*
X056764Y031418D02*
X055971Y031418D01*
X055824Y031474D02*
X055824Y031999D01*
X055764Y032058D02*
X052225Y032058D01*
X052179Y032012D02*
X052419Y032252D01*
X052419Y032392D01*
X052039Y032392D01*
X052039Y032452D01*
X051979Y032452D01*
X051979Y032832D01*
X051839Y032832D01*
X051599Y032592D01*
X051599Y032452D01*
X051979Y032452D01*
X051979Y032392D01*
X051979Y032391D02*
X052039Y032391D01*
X052039Y032012D01*
X052179Y032012D01*
X052039Y032058D02*
X051979Y032058D01*
X051979Y032012D02*
X051979Y032391D01*
X051979Y032392D02*
X051599Y032392D01*
X051599Y032252D01*
X051839Y032012D01*
X051979Y032012D01*
X051793Y032058D02*
X050995Y032058D01*
X051024Y032029D02*
X051024Y032987D01*
X051344Y032992D02*
X051344Y031709D01*
X051315Y031738D02*
X057109Y031738D01*
X057104Y031736D02*
X057104Y031834D01*
X057424Y031822D02*
X057424Y031742D01*
X057563Y031822D02*
X057848Y031822D01*
X057918Y031833D01*
X057985Y031855D01*
X058049Y031887D01*
X058106Y031929D01*
X058156Y031979D01*
X058198Y032036D01*
X058230Y032099D01*
X058252Y032167D01*
X058260Y032222D01*
X057563Y032222D01*
X057563Y031822D01*
X057744Y031822D02*
X057744Y031742D01*
X057916Y031738D02*
X059467Y031738D01*
X059344Y031726D02*
X059344Y031786D01*
X059024Y031986D02*
X059024Y031527D01*
X058991Y032058D02*
X058209Y032058D01*
X058064Y031898D02*
X058064Y031677D01*
X058064Y032222D02*
X058064Y032322D01*
X058252Y032378D02*
X058959Y032378D01*
X059024Y032527D02*
X059024Y033314D01*
X058947Y033338D02*
X058128Y033338D01*
X057744Y033011D02*
X057744Y032722D01*
X057563Y032698D02*
X057463Y032698D01*
X057424Y032722D02*
X057424Y033012D01*
X057104Y033014D02*
X057104Y032710D01*
X057067Y032698D02*
X056341Y032698D01*
X056144Y032852D02*
X056144Y033018D01*
X056211Y033018D02*
X053118Y033018D01*
X053264Y033020D02*
X053264Y029789D01*
X053235Y029818D02*
X056957Y029818D01*
X057104Y029964D02*
X057104Y030809D01*
X057424Y030802D02*
X057424Y030284D01*
X057277Y030138D02*
X052915Y030138D01*
X052944Y030109D02*
X052944Y030781D01*
X052941Y030778D02*
X053395Y030778D01*
X053307Y030866D02*
X053559Y030614D01*
X053915Y030614D01*
X054167Y030866D01*
X054167Y031222D01*
X053915Y031474D01*
X053559Y031474D01*
X053307Y031222D01*
X053307Y030866D01*
X053307Y031098D02*
X053037Y031098D01*
X053037Y031074D02*
X053037Y031214D01*
X052797Y031454D01*
X052657Y031454D01*
X052657Y031074D01*
X052597Y031074D01*
X052597Y031454D01*
X052457Y031454D01*
X052217Y031214D01*
X052217Y031074D01*
X052597Y031074D01*
X052597Y031014D01*
X052217Y031014D01*
X052217Y030874D01*
X052457Y030634D01*
X052597Y030634D01*
X052597Y031014D01*
X052657Y031014D01*
X052657Y031074D01*
X053037Y031074D01*
X053037Y031014D02*
X052657Y031014D01*
X052657Y030634D01*
X052797Y030634D01*
X053037Y030874D01*
X053037Y031014D01*
X052944Y031014D02*
X052944Y031074D01*
X052944Y031307D02*
X052944Y033015D01*
X052624Y033011D02*
X052624Y031074D01*
X052597Y031098D02*
X052657Y031098D01*
X052624Y031014D02*
X052624Y030429D01*
X052595Y030458D02*
X057597Y030458D01*
X057744Y030604D02*
X057744Y030802D01*
X057917Y030778D02*
X056079Y030778D01*
X056144Y030842D02*
X056144Y029004D01*
X055997Y028858D02*
X055529Y028858D01*
X055504Y029127D02*
X055504Y030669D01*
X055395Y030778D02*
X054079Y030778D01*
X053904Y030614D02*
X053904Y029201D01*
X054169Y029178D02*
X054565Y029178D01*
X054544Y029157D02*
X054544Y033026D01*
X054864Y033024D02*
X054864Y029202D01*
X055184Y029202D02*
X055184Y033023D01*
X055504Y033021D02*
X055504Y031418D01*
X055503Y031418D02*
X053971Y031418D01*
X053904Y031474D02*
X053904Y033029D01*
X054224Y033027D02*
X054224Y029155D01*
X054084Y028658D02*
X054009Y028682D01*
X054084Y028658D02*
X050084Y032658D01*
X044084Y032658D01*
X042584Y031158D01*
X042438Y031083D01*
X042135Y030778D02*
X039732Y030778D01*
X039824Y030694D02*
X039824Y032368D01*
X039504Y032368D02*
X039504Y030987D01*
X039442Y031098D02*
X040116Y031098D01*
X040118Y031090D02*
X040150Y031027D01*
X040192Y030970D01*
X040242Y030919D01*
X040299Y030878D01*
X040362Y030846D01*
X040430Y030824D01*
X040500Y030813D01*
X040785Y030813D01*
X040785Y031212D01*
X040885Y031212D01*
X040885Y030813D01*
X041171Y030813D01*
X041241Y030824D01*
X041308Y030846D01*
X041371Y030878D01*
X041428Y030919D01*
X041478Y030970D01*
X041520Y031027D01*
X041552Y031090D01*
X041574Y031157D01*
X041583Y031213D01*
X040885Y031213D01*
X040885Y031313D01*
X040785Y031313D01*
X040785Y031713D01*
X040500Y031713D01*
X040430Y031702D01*
X040362Y031680D01*
X040299Y031648D01*
X040242Y031606D01*
X040192Y031556D01*
X040150Y031499D01*
X040118Y031435D01*
X040096Y031368D01*
X040087Y031313D01*
X040785Y031313D01*
X040785Y031213D01*
X040087Y031213D01*
X040096Y031157D01*
X040118Y031090D01*
X040144Y031040D02*
X040144Y030401D01*
X040081Y030458D02*
X051972Y030458D01*
X051984Y030447D02*
X051984Y029783D01*
X052304Y029749D02*
X052304Y030127D01*
X052292Y030138D02*
X040430Y030138D01*
X040464Y030107D02*
X040464Y030818D01*
X040784Y030813D02*
X040784Y029814D01*
X040779Y029818D02*
X052612Y029818D01*
X052624Y029807D02*
X052624Y025378D01*
X051664Y025049D02*
X051664Y030767D01*
X051652Y030778D02*
X050969Y030778D01*
X051024Y030832D02*
X051024Y029797D01*
X050704Y029525D02*
X050704Y030614D01*
X050197Y031098D02*
X049943Y031098D01*
X049104Y031243D02*
X049104Y032438D01*
X049104Y032878D02*
X049104Y032959D01*
X049424Y032963D02*
X049424Y032878D01*
X049744Y032878D02*
X049744Y032968D01*
X050064Y032973D02*
X050064Y032878D01*
X050384Y032977D02*
X050384Y032669D01*
X050355Y032698D02*
X051705Y032698D01*
X051664Y032656D02*
X051664Y032996D01*
X051984Y033001D02*
X051984Y032452D01*
X052039Y032452D02*
X052039Y032832D01*
X052179Y032832D01*
X052419Y032592D01*
X052419Y032452D01*
X052039Y032452D01*
X052039Y032378D02*
X051979Y032378D01*
X051984Y032391D02*
X051984Y031069D01*
X051955Y031098D02*
X052217Y031098D01*
X052304Y031074D02*
X052304Y031014D01*
X052304Y030787D02*
X052304Y030749D01*
X052313Y030778D02*
X052275Y030778D01*
X052597Y030778D02*
X052657Y030778D01*
X052304Y031300D02*
X052304Y032137D01*
X052304Y032392D02*
X052304Y032452D01*
X052419Y032378D02*
X055579Y032378D01*
X055677Y032698D02*
X052312Y032698D01*
X052304Y032707D02*
X052304Y033006D01*
X052039Y032698D02*
X051979Y032698D01*
X051664Y032452D02*
X051664Y032392D01*
X051599Y032378D02*
X050675Y032378D01*
X050704Y032349D02*
X050704Y032982D01*
X051664Y032187D02*
X051664Y031389D01*
X051635Y031418D02*
X052421Y031418D01*
X052597Y031418D02*
X052657Y031418D01*
X052833Y031418D02*
X053503Y031418D01*
X053584Y031474D02*
X053584Y033025D01*
X054084Y034158D02*
X054131Y034365D01*
X054084Y034158D02*
X053584Y034658D01*
X051084Y034658D01*
X049584Y035158D02*
X055584Y035158D01*
X056084Y034658D01*
X056246Y034831D01*
X058145Y036218D02*
X058918Y036218D01*
X059024Y036254D02*
X059024Y036267D01*
X059344Y036254D02*
X059344Y036267D01*
X059664Y036254D02*
X059664Y036267D01*
X059984Y035404D02*
X059984Y035164D01*
X060144Y034938D02*
X062082Y034938D01*
X059664Y035254D02*
X059664Y035314D01*
X059344Y035314D02*
X059344Y035254D01*
X059024Y035254D02*
X059024Y035314D01*
X059024Y034314D02*
X059024Y034254D01*
X059344Y034254D02*
X059344Y034314D01*
X059664Y034314D02*
X059664Y034254D01*
X060444Y032058D02*
X061948Y032058D01*
X061933Y031738D02*
X059967Y031738D01*
X059984Y031726D02*
X059984Y031786D01*
X060304Y031878D02*
X060304Y031635D01*
X060459Y031418D02*
X061918Y031418D01*
X061904Y031098D02*
X061904Y039342D01*
X061584Y039330D02*
X061584Y027062D01*
X061708Y026938D02*
X061882Y026938D01*
X061710Y026936D02*
X061351Y027295D01*
X060844Y027295D01*
X060485Y026936D01*
X060485Y026428D01*
X060844Y026070D01*
X061351Y026070D01*
X061710Y026428D01*
X061710Y026936D01*
X061710Y026618D02*
X061882Y026618D01*
X061882Y026298D02*
X061580Y026298D01*
X061584Y026302D02*
X061584Y021528D01*
X061311Y021498D02*
X057654Y021498D01*
X057744Y021408D02*
X057744Y026010D01*
X057775Y025978D02*
X057206Y025978D01*
X057104Y025921D02*
X057104Y022095D01*
X057424Y021894D02*
X057424Y026196D01*
X057497Y026298D02*
X057535Y026298D01*
X057535Y026618D02*
X057497Y026618D01*
X058064Y025860D02*
X058064Y021144D01*
X057974Y021178D02*
X058375Y021178D01*
X058384Y021179D02*
X058384Y025860D01*
X058520Y025978D02*
X061882Y025978D01*
X061264Y026070D02*
X061264Y021493D01*
X060944Y021458D02*
X060944Y026070D01*
X060485Y026618D02*
X058760Y026618D01*
X059344Y028206D02*
X059344Y028306D01*
X059768Y028218D02*
X061883Y028218D01*
X061883Y028538D02*
X060369Y028538D01*
X060304Y028605D02*
X060304Y028908D01*
X060227Y028858D02*
X061883Y028858D01*
X061882Y027258D02*
X061388Y027258D01*
X061264Y027295D02*
X061264Y039318D01*
X060944Y039265D02*
X060944Y027295D01*
X060807Y027258D02*
X056285Y027258D01*
X055184Y028044D02*
X055184Y028162D01*
X055529Y028538D02*
X055677Y028538D01*
X055824Y028684D02*
X055824Y030614D01*
X055307Y031098D02*
X054167Y031098D01*
X053584Y030614D02*
X053584Y029469D01*
X055453Y029178D02*
X056317Y029178D01*
X056464Y029324D02*
X056464Y033017D01*
X056784Y033015D02*
X056784Y032408D01*
X056774Y032378D02*
X056439Y032378D01*
X056784Y032322D02*
X056784Y032222D01*
X057104Y032222D02*
X057104Y032322D01*
X057424Y032322D02*
X057424Y032222D01*
X057463Y032378D02*
X057563Y032378D01*
X057744Y032322D02*
X057744Y032222D01*
X057563Y032058D02*
X057463Y032058D01*
X055824Y032845D02*
X055824Y033020D01*
X059024Y030986D02*
X059024Y030527D01*
X059344Y030726D02*
X059344Y030786D01*
X059664Y030786D02*
X059664Y030726D01*
X059984Y030726D02*
X059984Y030786D01*
X060304Y030878D02*
X060304Y030635D01*
X060461Y031098D02*
X061904Y031098D01*
X059984Y029786D02*
X059984Y029706D01*
X059984Y028306D02*
X059984Y028206D01*
X060304Y028206D02*
X060304Y028306D01*
X054814Y026618D02*
X054556Y026618D01*
X054544Y026630D02*
X054544Y026698D01*
X051633Y025018D02*
X046704Y025018D01*
X046864Y024892D02*
X046864Y027555D01*
X046544Y027555D02*
X046544Y025144D01*
X047504Y024388D02*
X047504Y032438D01*
X047504Y032878D02*
X047504Y032935D01*
X047584Y033158D02*
X049584Y035158D01*
X047584Y033158D02*
X028584Y033158D01*
X027084Y034658D01*
X026584Y034658D02*
X020584Y034658D01*
X020084Y035158D01*
X019801Y034979D01*
X026584Y034658D02*
X027584Y035658D01*
X027586Y035758D01*
X028586Y035758D02*
X028584Y036158D01*
X029584Y037158D01*
X034584Y037158D01*
X035584Y038158D01*
X037584Y038658D02*
X010084Y038658D01*
X009914Y038524D01*
X026589Y025696D02*
X026584Y025658D01*
X027084Y026158D01*
X030084Y026158D01*
X031584Y024658D01*
X031593Y024699D01*
X033574Y023687D02*
X033584Y023658D01*
X034584Y023658D01*
X034584Y022658D01*
X034084Y022158D01*
X033084Y022158D01*
X032084Y021158D01*
X032084Y020658D01*
X031593Y020699D01*
X031593Y021699D02*
X032084Y021658D01*
X033084Y022658D01*
X033574Y022687D01*
X033574Y020687D02*
X033584Y020658D01*
X032084Y019158D01*
X032084Y018658D01*
X031593Y018699D01*
X033584Y019658D02*
X033574Y019687D01*
X033584Y019658D02*
X035084Y018158D01*
X038084Y018158D01*
X038584Y018658D01*
X038578Y018632D01*
X038578Y019621D02*
X038584Y019658D01*
X037584Y019658D01*
X036584Y018658D01*
X036574Y018687D01*
X036584Y019658D02*
X036574Y019687D01*
X036584Y019658D02*
X037584Y020658D01*
X038584Y020658D01*
X038578Y020610D01*
X038578Y021599D02*
X038584Y021658D01*
X037584Y021658D01*
X036584Y020658D01*
X036574Y020687D01*
X036584Y021658D02*
X036574Y021687D01*
X036584Y021658D02*
X037584Y022658D01*
X038584Y022658D01*
X038578Y022588D01*
X038578Y023577D02*
X038584Y023658D01*
X037584Y023658D01*
X036584Y022658D01*
X036574Y022687D01*
X036584Y023658D02*
X036574Y023687D01*
X036584Y023658D02*
X037584Y024658D01*
X038584Y024658D01*
X038578Y024566D01*
X039584Y021658D02*
X039584Y016158D01*
X049084Y016158D01*
X049584Y015658D01*
X049714Y015668D01*
X052084Y017158D02*
X054084Y019158D01*
X056584Y019158D01*
X056833Y019242D01*
X056144Y020165D02*
X056144Y021868D01*
X055420Y022778D02*
X055360Y022778D01*
X057462Y021818D02*
X061880Y021818D01*
X056186Y020218D02*
X054619Y020218D01*
X053904Y019727D02*
X053904Y019289D01*
X053873Y019258D02*
X044009Y019258D01*
X043999Y019578D02*
X055678Y019578D01*
X054224Y019620D02*
X054224Y019378D01*
X053759Y019898D02*
X053647Y019898D01*
X053647Y020254D01*
X053647Y019898D02*
X053395Y019646D01*
X053039Y019646D01*
X053264Y019646D02*
X053264Y018727D01*
X053553Y018938D02*
X044019Y018938D01*
X044304Y018660D02*
X044304Y019725D01*
X044261Y019768D02*
X044382Y019647D01*
X044540Y019581D01*
X044711Y019581D01*
X044869Y019647D01*
X044990Y019768D01*
X045056Y019926D01*
X045056Y020617D01*
X044990Y020775D01*
X044869Y020896D01*
X044711Y020961D01*
X044540Y020961D01*
X044382Y020896D01*
X044261Y020775D01*
X044196Y020617D01*
X044196Y019926D01*
X044261Y019768D01*
X044207Y019898D02*
X043989Y019898D01*
X043984Y020075D02*
X043984Y021744D01*
X043940Y021498D02*
X046113Y021498D01*
X046224Y021609D02*
X046224Y021667D01*
X045904Y021678D02*
X045904Y021289D01*
X045793Y021178D02*
X043950Y021178D01*
X043959Y020858D02*
X044344Y020858D01*
X044304Y020817D02*
X044304Y021733D01*
X044624Y021722D02*
X044624Y020961D01*
X044907Y020858D02*
X045344Y020858D01*
X045264Y020777D02*
X045264Y021700D01*
X045584Y021689D02*
X045584Y020969D01*
X045584Y020658D02*
X045626Y020271D01*
X045584Y020658D02*
X047084Y022158D01*
X051084Y022158D01*
X053084Y020158D01*
X053217Y020076D01*
X053584Y019835D02*
X053584Y018969D01*
X053765Y017048D02*
X053584Y016658D01*
X054584Y016658D02*
X054765Y017048D01*
X054584Y016658D02*
X058084Y016658D01*
X059084Y015658D01*
X059266Y015497D01*
X058084Y012658D02*
X058272Y012586D01*
X058084Y012658D02*
X058084Y003658D01*
X056584Y003658D01*
X056361Y003536D01*
X052084Y017158D02*
X043084Y017158D01*
X040084Y020158D01*
X039584Y021658D02*
X042584Y024658D01*
X042578Y024566D01*
X044584Y025158D02*
X037584Y032158D01*
X031084Y032158D01*
X029084Y033658D02*
X041084Y033658D01*
X041104Y032840D02*
X041104Y032733D01*
X041312Y032698D02*
X043813Y032698D01*
X043664Y032549D02*
X043664Y032878D01*
X043984Y032869D02*
X043984Y032883D01*
X044304Y032878D02*
X044304Y032887D01*
X044624Y032878D02*
X044624Y032892D01*
X044944Y032878D02*
X044944Y032897D01*
X045264Y032878D02*
X045264Y032902D01*
X045584Y032878D02*
X045584Y032906D01*
X045904Y032911D02*
X045904Y032878D01*
X046224Y032878D02*
X046224Y032916D01*
X046544Y032921D02*
X046544Y032878D01*
X046864Y032878D02*
X046864Y032925D01*
X047184Y032930D02*
X047184Y032878D01*
X047824Y032878D02*
X047824Y032940D01*
X048144Y032944D02*
X048144Y032878D01*
X048464Y032878D02*
X048464Y032949D01*
X048784Y032954D02*
X048784Y032878D01*
X049083Y031098D02*
X045943Y031098D01*
X045904Y031261D02*
X045904Y032438D01*
X046224Y032438D02*
X046224Y029506D01*
X046216Y029498D02*
X041128Y029498D01*
X041104Y029521D02*
X041104Y030813D01*
X041424Y030916D02*
X041424Y029227D01*
X041477Y029178D02*
X046009Y029178D01*
X046056Y028858D02*
X041830Y028858D01*
X041744Y028934D02*
X041744Y032849D01*
X042064Y032854D02*
X042064Y031317D01*
X042165Y031418D02*
X041558Y031418D01*
X041552Y031435D02*
X041520Y031499D01*
X041478Y031556D01*
X041428Y031606D01*
X041371Y031648D01*
X041308Y031680D01*
X041241Y031702D01*
X041171Y031713D01*
X040885Y031713D01*
X040885Y031313D01*
X041583Y031313D01*
X041574Y031368D01*
X041552Y031435D01*
X041424Y031313D02*
X041424Y031213D01*
X041555Y031098D02*
X042008Y031098D01*
X042064Y030849D02*
X042064Y028674D01*
X042236Y028538D02*
X046051Y028538D01*
X046224Y028595D02*
X046224Y028645D01*
X047048Y029178D02*
X048673Y029178D01*
X049533Y029178D02*
X049673Y029178D01*
X049673Y028858D02*
X049533Y028858D01*
X050533Y029178D02*
X050673Y029178D01*
X050692Y029498D02*
X050514Y029498D01*
X049104Y029797D02*
X049104Y030845D01*
X046544Y029595D02*
X046544Y032438D01*
X044944Y032438D02*
X044944Y026405D01*
X043984Y027161D02*
X043984Y032247D01*
X043493Y032378D02*
X041596Y032378D01*
X041424Y032639D02*
X041424Y032845D01*
X040784Y032835D02*
X040784Y032733D01*
X040464Y032733D02*
X040464Y032831D01*
X040111Y032058D02*
X039442Y032058D01*
X039442Y031738D02*
X042853Y031738D01*
X042704Y031589D02*
X042704Y032864D01*
X043024Y032868D02*
X043024Y031909D01*
X043173Y032058D02*
X041559Y032058D01*
X041424Y031886D02*
X041424Y031609D01*
X041104Y031713D02*
X041104Y031793D01*
X040784Y031793D02*
X040784Y031713D01*
X040785Y031418D02*
X040885Y031418D01*
X040784Y031313D02*
X040784Y031213D01*
X040785Y031098D02*
X040885Y031098D01*
X041104Y031213D02*
X041104Y031313D01*
X040464Y031313D02*
X040464Y031213D01*
X040144Y031213D02*
X040144Y031313D01*
X040113Y031418D02*
X039442Y031418D01*
X040144Y031485D02*
X040144Y031990D01*
X040464Y031793D02*
X040464Y031707D01*
X042384Y031513D02*
X042384Y032859D01*
X043344Y032873D02*
X043344Y032229D01*
X042868Y031098D02*
X044008Y031098D01*
X044624Y031506D02*
X044624Y032438D01*
X042384Y030653D02*
X042384Y028422D01*
X038584Y030658D02*
X034084Y030658D01*
X038584Y030658D02*
X045584Y023658D01*
X045626Y023271D01*
X044944Y021711D02*
X044944Y020822D01*
X045056Y020538D02*
X045196Y020538D01*
X045196Y020218D02*
X045056Y020218D01*
X045044Y019898D02*
X045207Y019898D01*
X045264Y019765D02*
X045264Y018667D01*
X045584Y018670D02*
X045584Y019581D01*
X045904Y019681D02*
X045904Y018672D01*
X046224Y018675D02*
X046224Y019859D01*
X046207Y019898D02*
X046044Y019898D01*
X046056Y020218D02*
X046196Y020218D01*
X046196Y020538D02*
X046056Y020538D01*
X046224Y020684D02*
X046224Y020987D01*
X046344Y020858D02*
X046095Y020858D01*
X046415Y021178D02*
X048448Y021178D01*
X048464Y021307D02*
X048464Y021938D01*
X049308Y021178D02*
X049549Y021178D01*
X049631Y020858D02*
X049230Y020858D01*
X049104Y020731D02*
X049104Y020378D01*
X048784Y020378D02*
X048784Y020683D01*
X047196Y020538D02*
X047056Y020538D01*
X046544Y020961D02*
X046544Y021307D01*
X047184Y021634D02*
X047184Y018682D01*
X046864Y018679D02*
X046864Y019644D01*
X046544Y019581D02*
X046544Y018677D01*
X044944Y018665D02*
X044944Y019721D01*
X044624Y019581D02*
X044624Y018663D01*
X044196Y020218D02*
X043979Y020218D01*
X043969Y020538D02*
X044196Y020538D01*
X048311Y023098D02*
X048448Y023098D01*
X047516Y024378D02*
X050993Y024378D01*
X051024Y024409D02*
X051024Y025417D01*
X051344Y024107D02*
X051344Y023479D01*
X051295Y024058D02*
X051795Y024058D01*
X051024Y022704D02*
X051024Y022378D01*
X052304Y020627D02*
X052304Y020480D01*
X054084Y038158D02*
X054131Y038365D01*
X054084Y038158D02*
X056084Y038158D01*
X056268Y038204D01*
X059344Y038207D02*
X059344Y038267D01*
X059664Y038267D02*
X059664Y038207D01*
X060169Y037818D02*
X062215Y037818D01*
X044584Y039658D02*
X040084Y044158D01*
X029584Y044158D01*
X029574Y046096D02*
X029584Y046158D01*
X028584Y047158D01*
X027584Y047158D01*
X027587Y047139D01*
X031584Y046158D02*
X031574Y046096D01*
X031584Y046158D02*
X032584Y047158D01*
X033584Y047158D01*
X033596Y047128D01*
X036084Y048158D02*
X034584Y049658D01*
X034658Y050086D01*
X035650Y049964D02*
X035584Y049658D01*
X036584Y048658D01*
X039084Y048658D01*
X044084Y043658D01*
X044147Y043408D01*
X043084Y043658D02*
X042973Y043430D01*
X043084Y043658D02*
X038584Y048158D01*
X036084Y048158D01*
X038444Y039863D02*
X038584Y039658D01*
X037584Y038658D01*
X029084Y033658D02*
X028084Y034658D01*
X028593Y025699D02*
X028584Y025658D01*
X027584Y025658D01*
X026584Y024658D01*
X026589Y024707D01*
X026589Y023718D02*
X026584Y023658D01*
X027584Y024658D01*
X028584Y024658D01*
X028593Y024699D01*
X028593Y023699D02*
X028584Y023658D01*
X027584Y023658D01*
X026584Y022658D01*
X026589Y022729D01*
X026589Y021740D02*
X026584Y021658D01*
X027584Y022658D01*
X028584Y022658D01*
X028593Y022699D01*
X028593Y021699D02*
X028584Y021658D01*
X027584Y021658D01*
X026584Y020658D01*
X026589Y020751D01*
X026589Y019762D02*
X026584Y019658D01*
X027584Y020658D01*
X028584Y020658D01*
X028593Y020699D01*
X028593Y019699D02*
X028584Y019658D01*
X027584Y019658D01*
X026584Y018658D01*
X026589Y018673D01*
X027084Y017158D02*
X027584Y016658D01*
X027583Y016673D01*
X027084Y017158D02*
X022084Y017158D01*
X022084Y019158D01*
X022584Y019658D01*
X022589Y019762D01*
X022589Y018673D02*
X022584Y018658D01*
X023584Y017658D01*
X028584Y017658D01*
X030584Y015658D01*
X030345Y015652D01*
D32*
X040084Y020158D03*
X044584Y025158D03*
X041084Y033658D03*
X040584Y036658D03*
X039584Y038158D03*
X039084Y038658D03*
X035584Y038158D03*
X036084Y034658D03*
X034084Y030658D03*
X031084Y032158D03*
X028084Y034658D03*
X027084Y034658D03*
X023584Y038158D03*
X026084Y042158D03*
X029584Y044158D03*
X030584Y041658D03*
X031584Y036658D03*
X037584Y045158D03*
X024084Y045658D03*
X051084Y034658D03*
D33*
X041410Y034587D02*
X040032Y034587D01*
X039639Y034981D01*
X039639Y035706D01*
X039586Y035758D01*
X004934Y009708D02*
X003297Y009708D01*
X002237Y010965D01*
X002237Y016477D01*
X002434Y016674D01*
D34*
X002434Y016674D03*
D35*
X002828Y015099D03*
X041410Y034587D03*
X055780Y027107D03*
X057054Y021687D03*
D36*
X051121Y038397D03*
X050121Y038397D03*
X050121Y039397D03*
X050121Y040397D03*
X051121Y040397D03*
X051121Y039397D03*
X052696Y039578D03*
X052696Y040578D03*
X052696Y041578D03*
X052696Y042578D03*
X052696Y043554D03*
X052696Y044554D03*
X054271Y043948D03*
X054271Y042971D03*
X054271Y041971D03*
X054271Y040971D03*
X054271Y039971D03*
X051121Y041397D03*
X050121Y041397D03*
X050121Y042373D03*
X051121Y042373D03*
X051121Y043373D03*
X050121Y043373D03*
X050121Y044373D03*
X050121Y045373D03*
X051121Y044373D03*
X049121Y044373D03*
X048121Y044373D03*
X048121Y045373D03*
X049121Y045373D03*
X047121Y045373D03*
X047121Y044373D03*
X046121Y044373D03*
X046121Y043373D03*
X047121Y043373D03*
X048121Y043373D03*
X048121Y042373D03*
X048121Y041397D03*
X049121Y041397D03*
X049121Y040397D03*
X048121Y040397D03*
X048121Y039397D03*
X049121Y039397D03*
X048121Y038397D03*
X047121Y039397D03*
X047121Y040397D03*
X046121Y040397D03*
X046121Y039397D03*
X046121Y038397D03*
X046121Y041397D03*
X047121Y041397D03*
X046121Y042373D03*
M02*
