M48
M71,TZ
FMAT,2
T1C3.0
T2C2.8
T3C0.9
T4C0.85
T5C1.0
T6C0.7
T7C1.05
T8C1.4986
T9C0.95
T10C0.8
T11C0.635
%
T1
X130.9Y93.0
X13.275Y53.725
X73.3Y68.2
X99.0Y94.25
T2
X26.55Y59.85
X36.95Y59.85
X54.49Y59.85
X64.89Y59.85
T3
X147.32Y71.12
X139.7Y66.04
X147.32Y68.58
X139.7Y68.58
X147.32Y66.04
X139.7Y71.12
X139.7Y73.66
X147.32Y73.66
T4
X94.7690768363Y69.3690768363
X89.3809231637Y63.9809231637
T5
X35.5Y69.85
X28.0Y69.85
X31.75Y69.85
X10.12Y16.51
X5.12Y16.51
X63.44Y69.85
X55.94Y69.85
X59.69Y69.85
X10.12Y7.62
X5.12Y7.62
X10.12Y25.4
X5.12Y25.4
T6
X123.19Y34.29
X57.15Y34.29
X139.7Y34.29
X106.68Y34.29
X24.13Y34.29
X73.66Y34.29
X90.17Y34.29
X40.64Y34.29
X8.89Y38.1
T7
X92.71Y38.1
X85.09Y38.1
X76.2Y38.1
X68.58Y38.1
X132.08Y66.04
X132.08Y73.66
X3.81Y41.91
X11.43Y41.91
X26.67Y41.91
X19.05Y41.91
X109.22Y38.1
X101.6Y38.1
X135.89Y66.04
X135.89Y73.66
X59.69Y38.1
X52.07Y38.1
X142.24Y38.1
X134.62Y38.1
X43.18Y41.91
X35.56Y41.91
X125.73Y38.1
X118.11Y38.1
X76.2Y41.91
X68.58Y41.91
X142.24Y41.91
X134.62Y41.91
X43.18Y38.1
X35.56Y38.1
X59.69Y41.91
X52.07Y41.91
X92.5559231637Y60.8059231637
X97.9440768363Y66.1940768363
X125.73Y41.91
X118.11Y41.91
X26.67Y38.1
X19.05Y38.1
X109.22Y41.91
X101.6Y41.91
X92.71Y41.91
X85.09Y41.91
T8
X81.0319107202Y70.7853315544
X86.353878491Y66.2177052977
X87.742495495Y74.3840808065
X90.5084143803Y75.1743433452
X81.3485531368Y77.1140786673
X89.9219107202Y79.6753315544
X95.243878491Y75.1077052977
X96.632495495Y83.2740808065
X99.3984143803Y84.0643433452
X90.2385531368Y86.0040786673
X143.5126Y91.2622
X136.519601Y90.7288
X141.3122Y83.9724
X139.9152Y81.4578
X147.7638Y86.5632
T9
X120.65Y93.98
X120.65Y88.9
X120.65Y86.36
X120.65Y83.82
X120.65Y63.5
X118.11Y63.5
X115.57Y63.5
X113.03Y63.5
X110.49Y63.5
X107.95Y96.52
X107.95Y93.98
X107.95Y91.44
X107.95Y88.9
X107.95Y86.36
X107.95Y83.82
X107.95Y81.28
X107.95Y78.74
X107.95Y76.2
X107.95Y73.66
X107.95Y71.12
X107.95Y68.58
X107.95Y66.04
X107.95Y63.5
X123.19Y63.5
X123.19Y66.04
X123.19Y68.58
X123.19Y71.12
X123.19Y73.66
X123.19Y76.2
X123.19Y78.74
X123.19Y81.28
X123.19Y83.82
X123.19Y86.36
X123.19Y88.9
X123.19Y91.44
X123.19Y93.98
X123.19Y96.52
X137.2Y77.47
X142.2Y77.47
T10
X120.65Y34.29
X54.61Y34.29
X137.16Y34.29
X104.14Y34.29
X21.59Y34.29
X71.12Y34.29
X87.63Y34.29
X38.1Y34.29
X6.35Y38.1
X131.445Y80.625
X131.445Y78.125
T11
X99.695Y58.42
X59.69Y69.85
X102.235Y60.96
X111.76Y72.39
X142.24Y46.99
X48.26Y44.45
X102.235Y91.44
X81.28Y59.69
X26.67Y45.72
X103.505Y62.23
X130.81Y44.45
X64.77Y44.45
X95.885Y57.785
X92.71Y45.72
X31.75Y44.45
X15.24Y44.45
X125.73Y45.72
X81.28Y44.45
X147.32Y44.45
X59.69Y45.72
X100.965Y59.69
X13.97Y48.26
X43.18Y45.72
X83.82Y57.15
X114.3Y44.45
X139.7Y93.98
X110.49Y66.04
X88.265Y57.15
X76.2Y45.72
X94.615Y59.055
X97.79Y44.45
X10.16Y16.51
X81.28Y57.15
X86.353878Y63.5
X86.36Y58.42
X109.22Y45.72
X143.51Y55.88
X143.51Y60.96
X143.51Y58.42
T00
M30
